<?xml version="1.0" standalone="no"?>
<!DOCTYPE svg PUBLIC "-//W3C//DTD SVG 20010904//EN"
 "http://www.w3.org/TR/2001/REC-SVG-20010904/DTD/svg10.dtd">
<svg version="1.0" xmlns="http://www.w3.org/2000/svg"
 width="5669.000000pt" height="2291.000000pt" viewBox="0 0 5669.000000 2291.000000"
 preserveAspectRatio="xMidYMid meet">
<metadata>
Created by potrace 1.16, written by Peter Selinger 2001-2019
</metadata>
<g transform="translate(0.000000,2291.000000) scale(0.100000,-0.100000)"
fill="#000000" stroke="none">
<path d="M11355 22331 c-89 -66 -191 -224 -233 -362 -68 -221 -44 -502 60
-701 51 -100 176 -238 214 -238 36 0 30 16 -31 82 -63 71 -126 190 -157 303
-19 70 -22 104 -22 275 0 170 3 205 22 275 32 116 93 235 159 305 34 38 53 66
49 75 -8 21 -17 19 -61 -14z"/>
<path d="M15410 22345 c0 -9 24 -45 54 -81 113 -136 172 -301 183 -509 13
-254 -51 -480 -181 -637 -61 -73 -67 -88 -36 -88 48 0 171 145 230 273 54 117
71 193 77 342 6 151 -6 245 -46 363 -40 114 -83 184 -172 275 -74 74 -109 94
-109 62z"/>
<path d="M20805 22331 c-89 -66 -191 -224 -233 -362 -68 -221 -44 -502 60
-701 51 -100 176 -238 214 -238 36 0 30 16 -31 82 -63 71 -126 190 -157 303
-19 70 -22 104 -22 275 0 170 3 205 22 275 32 116 93 235 159 305 34 38 53 66
49 75 -8 21 -17 19 -61 -14z"/>
<path d="M24860 22345 c0 -9 24 -45 54 -81 113 -136 172 -301 183 -509 13
-254 -51 -480 -181 -637 -61 -73 -67 -88 -36 -88 48 0 171 145 230 273 54 117
71 193 77 342 6 151 -6 245 -46 363 -40 114 -83 184 -172 275 -74 74 -109 94
-109 62z"/>
<path d="M30255 22331 c-89 -66 -191 -224 -233 -362 -68 -221 -44 -502 60
-701 51 -100 176 -238 214 -238 36 0 30 16 -31 82 -63 71 -126 190 -157 303
-19 70 -22 104 -22 275 0 170 3 205 22 275 32 116 93 235 159 305 34 38 53 66
49 75 -8 21 -17 19 -61 -14z"/>
<path d="M34310 22345 c0 -9 24 -45 54 -81 113 -136 172 -301 183 -509 13
-254 -51 -480 -181 -637 -61 -73 -67 -88 -36 -88 48 0 171 145 230 273 54 117
71 193 77 342 6 151 -6 245 -46 363 -40 114 -83 184 -172 275 -74 74 -109 94
-109 62z"/>
<path d="M39545 22331 c-89 -66 -191 -224 -233 -362 -68 -221 -44 -502 60
-701 51 -100 176 -238 214 -238 36 0 30 16 -31 82 -63 71 -126 190 -157 303
-19 70 -22 104 -22 275 0 170 3 205 22 275 32 116 93 235 159 305 34 38 53 66
49 75 -8 21 -17 19 -61 -14z"/>
<path d="M43760 22345 c0 -9 24 -45 54 -81 113 -136 172 -301 183 -509 13
-254 -51 -480 -181 -637 -61 -73 -67 -88 -36 -88 48 0 171 145 230 273 54 117
71 193 77 342 6 151 -6 245 -46 363 -40 114 -83 184 -172 275 -74 74 -109 94
-109 62z"/>
<path d="M16110 22262 c0 -11 12 -22 34 -30 22 -8 39 -24 49 -45 23 -49 157
-386 157 -395 0 -5 -88 -89 -195 -188 -108 -98 -198 -189 -201 -201 -12 -45
14 -71 59 -59 12 3 98 91 192 195 93 105 170 189 171 188 1 -1 32 -78 69 -172
76 -193 92 -215 160 -215 24 0 46 4 50 9 3 5 -4 24 -14 43 -11 18 -90 210
-175 427 -85 216 -163 402 -173 414 -27 29 -76 47 -133 47 -41 0 -50 -3 -50
-18z"/>
<path d="M25560 22262 c0 -11 12 -22 34 -30 22 -8 39 -24 49 -45 23 -49 157
-386 157 -395 0 -5 -88 -89 -195 -188 -108 -98 -198 -189 -201 -201 -12 -45
14 -71 59 -59 12 3 98 91 192 195 93 105 170 189 171 188 1 -1 32 -78 69 -172
76 -193 92 -215 160 -215 24 0 46 4 50 9 3 5 -4 24 -14 43 -11 18 -90 210
-175 427 -85 216 -163 402 -173 414 -27 29 -76 47 -133 47 -41 0 -50 -3 -50
-18z"/>
<path d="M35010 22262 c0 -11 12 -22 34 -30 22 -8 39 -24 49 -45 23 -49 157
-386 157 -395 0 -5 -88 -89 -195 -188 -108 -98 -198 -189 -201 -201 -12 -45
14 -71 59 -59 12 3 98 91 192 195 93 105 170 189 171 188 1 -1 32 -78 69 -172
76 -193 92 -215 160 -215 24 0 46 4 50 9 3 5 -4 24 -14 43 -11 18 -90 210
-175 427 -85 216 -163 402 -173 414 -27 29 -76 47 -133 47 -41 0 -50 -3 -50
-18z"/>
<path d="M44460 22262 c0 -11 12 -22 34 -30 22 -8 39 -24 49 -45 23 -49 157
-386 157 -395 0 -5 -88 -89 -195 -188 -108 -98 -198 -189 -201 -201 -12 -45
14 -71 59 -59 12 3 98 91 192 195 93 105 170 189 171 188 1 -1 32 -78 69 -172
76 -193 92 -215 160 -215 24 0 46 4 50 9 3 5 -4 24 -14 43 -11 18 -90 210
-175 427 -85 216 -163 402 -173 414 -27 29 -76 47 -133 47 -41 0 -50 -3 -50
-18z"/>
<path d="M11851 22226 c-20 -24 -108 -56 -171 -63 -55 -5 -60 -8 -60 -29 0
-22 4 -24 43 -24 24 0 66 7 93 15 27 8 50 15 52 15 1 0 2 -157 2 -349 l0 -350
-22 -15 c-15 -11 -45 -16 -90 -16 -66 0 -68 -1 -68 -25 l0 -25 235 0 235 0 0
25 c0 24 -2 25 -71 25 -120 0 -109 -41 -109 425 l0 405 -29 0 c-16 0 -34 -6
-40 -14z"/>
<path d="M21301 22226 c-20 -24 -108 -56 -171 -63 -55 -5 -60 -8 -60 -29 0
-22 4 -24 43 -24 24 0 66 7 93 15 27 8 50 15 52 15 1 0 2 -157 2 -349 l0 -350
-22 -15 c-15 -11 -45 -16 -90 -16 -66 0 -68 -1 -68 -25 l0 -25 235 0 235 0 0
25 c0 24 -2 25 -71 25 -120 0 -109 -41 -109 425 l0 405 -29 0 c-16 0 -34 -6
-40 -14z"/>
<path d="M30751 22226 c-20 -24 -108 -56 -171 -63 -55 -5 -60 -8 -60 -29 0
-22 4 -24 43 -24 24 0 66 7 93 15 27 8 50 15 52 15 1 0 2 -157 2 -349 l0 -350
-22 -15 c-15 -11 -45 -16 -90 -16 -66 0 -68 -1 -68 -25 l0 -25 235 0 235 0 0
25 c0 24 -2 25 -71 25 -120 0 -109 -41 -109 425 l0 405 -29 0 c-16 0 -34 -6
-40 -14z"/>
<path d="M40041 22226 c-20 -24 -108 -56 -171 -63 -55 -5 -60 -8 -60 -29 0
-22 4 -24 43 -24 24 0 66 7 93 15 27 8 50 15 52 15 1 0 2 -157 2 -349 l0 -350
-22 -15 c-15 -11 -45 -16 -90 -16 -66 0 -68 -1 -68 -25 l0 -25 235 0 235 0 0
25 c0 24 -2 25 -71 25 -120 0 -109 -41 -109 425 l0 405 -29 0 c-16 0 -34 -6
-40 -14z"/>
<path d="M14074 21940 c-30 -12 -60 -53 -84 -116 -26 -71 -26 -104 -1 -104 16
0 24 13 37 61 26 94 77 142 112 107 7 -7 12 -25 12 -40 0 -38 -158 -669 -172
-685 -6 -7 -25 -13 -43 -13 -32 0 -52 -21 -39 -41 3 -5 70 -9 150 -9 l144 0 0
25 c0 22 -4 25 -39 25 -22 0 -43 5 -46 11 -6 8 41 226 51 238 1 1 19 -10 40
-25 108 -83 303 14 391 194 24 50 28 68 28 153 0 88 -2 99 -28 138 -68 102
-183 117 -294 38 l-43 -30 -22 28 c-36 46 -103 66 -154 45z m405 -64 c31 -33
37 -95 18 -187 -39 -189 -119 -299 -217 -299 -36 0 -85 42 -95 82 -8 33 61
304 87 341 12 16 41 42 66 58 59 37 109 39 141 5z"/>
<path d="M23524 21940 c-30 -12 -60 -53 -84 -116 -26 -71 -26 -104 -1 -104 16
0 24 13 37 61 26 94 77 142 112 107 7 -7 12 -25 12 -40 0 -38 -158 -669 -172
-685 -6 -7 -25 -13 -43 -13 -32 0 -52 -21 -39 -41 3 -5 70 -9 150 -9 l144 0 0
25 c0 22 -4 25 -39 25 -22 0 -43 5 -46 11 -6 8 41 226 51 238 1 1 19 -10 40
-25 108 -83 303 14 391 194 24 50 28 68 28 153 0 88 -2 99 -28 138 -68 102
-183 117 -294 38 l-43 -30 -22 28 c-36 46 -103 66 -154 45z m405 -64 c31 -33
37 -95 18 -187 -39 -189 -119 -299 -217 -299 -36 0 -85 42 -95 82 -8 33 61
304 87 341 12 16 41 42 66 58 59 37 109 39 141 5z"/>
<path d="M32974 21940 c-30 -12 -60 -53 -84 -116 -26 -71 -26 -104 -1 -104 16
0 24 13 37 61 26 94 77 142 112 107 7 -7 12 -25 12 -40 0 -38 -158 -669 -172
-685 -6 -7 -25 -13 -43 -13 -32 0 -52 -21 -39 -41 3 -5 70 -9 150 -9 l144 0 0
25 c0 22 -4 25 -39 25 -22 0 -43 5 -46 11 -6 8 41 226 51 238 1 1 19 -10 40
-25 108 -83 303 14 391 194 24 50 28 68 28 153 0 88 -2 99 -28 138 -68 102
-183 117 -294 38 l-43 -30 -22 28 c-36 46 -103 66 -154 45z m405 -64 c31 -33
37 -95 18 -187 -39 -189 -119 -299 -217 -299 -36 0 -85 42 -95 82 -8 33 61
304 87 341 12 16 41 42 66 58 59 37 109 39 141 5z"/>
<path d="M42264 21940 c-30 -12 -60 -53 -84 -116 -26 -71 -26 -104 -1 -104 16
0 24 13 37 61 26 94 77 142 112 107 7 -7 12 -25 12 -40 0 -38 -158 -669 -172
-685 -6 -7 -25 -13 -43 -13 -32 0 -52 -21 -39 -41 3 -5 70 -9 150 -9 l144 0 0
25 c0 22 -4 25 -39 25 -22 0 -43 5 -46 11 -6 8 41 226 51 238 1 1 19 -10 40
-25 108 -83 303 14 391 194 24 50 28 68 28 153 0 88 -2 99 -28 138 -68 102
-183 117 -294 38 l-43 -30 -22 28 c-36 46 -103 66 -154 45z m405 -64 c31 -33
37 -95 18 -187 -39 -189 -119 -299 -217 -299 -36 0 -85 42 -95 82 -8 33 61
304 87 341 12 16 41 42 66 58 59 37 109 39 141 5z"/>
<path d="M14912 21814 c-24 -12 -68 -26 -98 -30 -48 -6 -54 -9 -54 -30 0 -23
3 -24 43 -18 23 3 57 10 75 14 l32 8 0 -258 c0 -178 -3 -261 -11 -266 -6 -3
-40 -9 -75 -12 -54 -4 -64 -8 -64 -23 0 -18 11 -19 195 -19 188 0 195 1 195
20 0 17 -7 20 -49 20 -27 0 -61 4 -75 10 l-26 10 0 300 0 300 -22 -1 c-13 -1
-43 -12 -66 -25z"/>
<path d="M16972 21814 c-24 -12 -68 -26 -98 -30 -48 -6 -54 -9 -54 -30 0 -23
3 -24 43 -18 23 3 57 10 75 14 l32 8 0 -258 c0 -178 -3 -261 -11 -266 -6 -3
-40 -9 -75 -12 -54 -4 -64 -8 -64 -23 0 -18 11 -19 195 -19 188 0 195 1 195
20 0 17 -7 20 -49 20 -27 0 -61 4 -75 10 l-26 10 0 300 0 300 -22 -1 c-13 -1
-43 -12 -66 -25z"/>
<path d="M24262 21818 c-59 -28 -94 -77 -100 -137 -4 -42 -1 -50 19 -65 30
-21 52 -20 72 2 25 28 21 69 -8 88 -25 16 -25 17 -8 37 10 11 38 29 62 39 121
55 247 -51 213 -178 -19 -71 -55 -115 -208 -255 -89 -80 -144 -138 -144 -150
0 -18 11 -19 219 -19 l219 0 11 68 c6 37 14 79 17 95 5 24 2 27 -19 27 -21 0
-25 -6 -31 -40 -8 -54 -30 -61 -174 -58 l-115 3 130 102 c152 119 188 157 203
215 29 105 -32 208 -140 238 -62 17 -170 11 -218 -12z"/>
<path d="M26322 21818 c-59 -28 -94 -77 -100 -137 -4 -42 -1 -50 19 -65 30
-21 52 -20 72 2 25 28 21 69 -8 88 -25 16 -25 17 -8 37 10 11 38 29 62 39 121
55 247 -51 213 -178 -19 -71 -55 -115 -208 -255 -89 -80 -144 -138 -144 -150
0 -18 11 -19 219 -19 l219 0 11 68 c6 37 14 79 17 95 5 24 2 27 -19 27 -21 0
-25 -6 -31 -40 -8 -54 -30 -61 -174 -58 l-115 3 130 102 c152 119 188 157 203
215 29 105 -32 208 -140 238 -62 17 -170 11 -218 -12z"/>
<path d="M33734 21830 c-101 -31 -144 -170 -56 -178 18 -2 40 2 48 9 19 16 18
78 -1 85 -43 17 26 54 100 54 110 0 151 -77 98 -182 -20 -40 -60 -62 -122 -68
-43 -4 -57 -9 -59 -22 -3 -15 4 -18 45 -18 108 0 166 -41 179 -126 13 -90 -31
-167 -105 -180 -44 -9 -130 8 -166 32 -26 17 -27 18 -6 25 42 16 39 93 -6 110
-41 15 -77 -8 -81 -53 -4 -52 20 -93 75 -125 40 -23 61 -28 138 -31 78 -4 99
-1 143 18 95 41 147 130 123 210 -16 53 -52 94 -107 120 l-45 22 33 18 c51 27
90 88 90 144 2 92 -65 140 -202 143 -47 1 -99 -2 -116 -7z"/>
<path d="M35772 21818 c-59 -28 -94 -77 -100 -137 -4 -42 -1 -50 19 -65 30
-21 52 -20 72 2 25 28 21 69 -8 88 -25 16 -25 17 -8 37 10 11 38 29 62 39 121
55 247 -51 213 -178 -19 -71 -55 -115 -208 -255 -89 -80 -144 -138 -144 -150
0 -18 11 -19 219 -19 l219 0 11 68 c6 37 14 79 17 95 5 24 2 27 -19 27 -21 0
-25 -6 -31 -40 -8 -54 -30 -61 -174 -58 l-115 3 130 102 c152 119 188 157 203
215 29 105 -32 208 -140 238 -62 17 -170 11 -218 -12z"/>
<path d="M12652 21719 c-17 -6 -22 -15 -20 -31 l3 -23 430 0 430 0 3 22 c3 17
-3 26 -23 33 -34 13 -791 12 -823 -1z"/>
<path d="M22102 21719 c-17 -6 -22 -15 -20 -31 l3 -23 430 0 430 0 3 22 c3 17
-3 26 -23 33 -34 13 -791 12 -823 -1z"/>
<path d="M31552 21719 c-17 -6 -22 -15 -20 -31 l3 -23 430 0 430 0 3 22 c3 17
-3 26 -23 33 -34 13 -791 12 -823 -1z"/>
<path d="M40842 21719 c-17 -6 -22 -15 -20 -31 l3 -23 430 0 430 0 3 22 c3 17
-3 26 -23 33 -34 13 -791 12 -823 -1z"/>
<path d="M42951 21619 c-27 -26 -60 -94 -61 -126 0 -35 38 -31 46 5 21 86 69
128 94 82 9 -17 2 -57 -30 -191 -23 -93 -39 -176 -36 -184 7 -18 60 -20 73 -2
5 6 24 67 41 135 25 97 39 134 68 173 56 77 149 113 188 73 25 -24 19 -80 -19
-189 -42 -121 -43 -144 -9 -179 22 -21 36 -26 75 -26 40 0 54 5 85 33 39 33
80 110 69 127 -13 21 -35 9 -50 -27 -31 -73 -102 -120 -119 -78 -3 8 10 57 29
109 19 52 37 117 41 144 12 90 -38 142 -136 142 -59 0 -102 -16 -147 -54 -22
-19 -33 -23 -33 -14 0 29 -48 61 -97 65 -40 4 -52 1 -72 -18z"/>
<path d="M45171 21619 c-27 -26 -60 -94 -61 -126 0 -35 38 -31 46 5 21 86 69
128 94 82 9 -17 2 -57 -30 -191 -23 -93 -39 -176 -36 -184 7 -18 60 -20 73 -2
5 6 24 67 41 135 25 97 39 134 68 173 56 77 149 113 188 73 25 -24 19 -80 -19
-189 -42 -121 -43 -144 -9 -179 22 -21 36 -26 75 -26 40 0 54 5 85 33 39 33
80 110 69 127 -13 21 -35 9 -50 -27 -31 -73 -102 -120 -119 -78 -3 8 10 57 29
109 19 52 37 117 41 144 12 90 -38 142 -136 142 -59 0 -102 -16 -147 -54 -22
-19 -33 -23 -33 -14 0 29 -48 61 -97 65 -40 4 -52 1 -72 -18z"/>
<path d="M23490 20543 c-910 -28 -1830 -304 -2600 -781 -308 -191 -555 -380
-840 -643 l-115 -106 -85 69 c-260 211 -552 321 -892 335 -164 7 -276 -5 -428
-42 -243 -61 -479 -187 -642 -343 l-47 -46 -15 35 c-7 19 -100 248 -206 509
-105 261 -195 481 -199 487 -4 8 -67 -48 -180 -161 l-173 -173 -107 67 c-672
426 -1393 675 -2216 766 -198 21 -683 30 -886 15 -815 -60 -1549 -277 -2234
-661 -373 -209 -687 -439 -1030 -756 l-110 -101 -65 54 c-264 221 -565 336
-912 350 -438 18 -838 -142 -1138 -453 -226 -234 -360 -506 -411 -829 -16
-103 -16 -337 0 -440 94 -604 531 -1088 1116 -1235 60 -15 160 -33 221 -40
l111 -12 7 -237 c24 -848 116 -1551 293 -2241 595 -2326 2072 -4168 4634
-5777 986 -620 2092 -1196 3634 -1893 582 -263 1240 -547 2735 -1180 2572
-1089 3498 -1507 4795 -2163 266 -134 704 -363 713 -371 1 -2 -41 -78 -94
-170 -53 -92 -95 -168 -93 -170 4 -4 1073 -136 1096 -136 7 0 -5 -35 -28 -84
-110 -236 -157 -504 -130 -746 71 -633 527 -1117 1156 -1226 115 -20 403 -14
515 11 253 56 484 181 671 362 272 264 419 611 419 993 0 226 -44 415 -143
618 -26 53 -32 72 -21 72 8 0 253 29 544 65 291 36 534 65 540 65 19 0 10 20
-84 182 l-94 163 67 36 c500 271 1401 719 2121 1054 855 398 1435 653 3330
1465 1649 707 2215 955 2925 1283 2082 961 3517 1791 4705 2721 718 562 1386
1226 1881 1871 1002 1305 1574 2792 1734 4510 24 257 45 649 45 846 l0 176
112 13 c459 50 847 305 1076 704 127 222 192 494 179 756 -36 754 -649 1340
-1402 1340 -342 0 -668 -121 -924 -344 -36 -31 -65 -55 -66 -53 -1 1 -93 229
-205 507 -112 278 -207 509 -212 515 -5 6 -80 -62 -191 -172 l-182 -182 -70
42 c-103 63 -360 180 -520 237 -369 133 -808 216 -1330 251 -264 17 -961 13
-1590 -10 -302 -11 -700 -24 -882 -27 l-333 -7 0 -39 c0 -30 4 -38 18 -38 151
1 927 24 1247 37 512 20 1330 23 1572 5 637 -47 1120 -161 1563 -368 145 -68
260 -131 260 -142 0 -4 -44 -50 -97 -104 -53 -54 -94 -100 -91 -103 3 -4 228
-96 500 -206 271 -109 501 -202 511 -207 16 -6 11 -16 -38 -72 -488 -561 -454
-1411 77 -1926 238 -231 505 -357 836 -395 l113 -13 -6 -180 c-16 -492 -43
-857 -89 -1206 -313 -2357 -1424 -4251 -3446 -5873 -1074 -861 -2426 -1670
-4230 -2530 -885 -422 -1521 -704 -3460 -1534 -2036 -873 -2794 -1209 -3765
-1669 -331 -157 -1262 -622 -1548 -774 -125 -67 -231 -119 -236 -116 -5 3 -53
82 -106 176 -54 93 -101 170 -106 170 -4 0 -157 -198 -339 -440 -183 -242
-335 -440 -338 -439 -4 0 -27 32 -52 71 -56 89 -202 243 -300 318 -210 159
-449 253 -719 280 -58 5 -106 12 -108 13 -1 2 94 231 212 510 118 278 215 509
215 512 0 3 -92 5 -205 5 l-205 0 0 6294 0 6294 23 6 c12 3 40 6 62 6 22 0 78
7 125 14 599 98 1067 523 1229 1116 25 93 51 287 51 383 0 356 -131 712 -359
985 l-61 71 136 121 c702 625 1426 908 2489 971 243 14 936 7 1360 -15 160 -9
309 -16 333 -16 l42 0 0 -215 c0 -118 3 -215 6 -215 6 0 1026 431 1033 437 2
1 2 5 -1 9 -3 3 -237 103 -519 223 l-514 218 -3 -188 -2 -189 -68 0 c-37 0
-206 7 -377 15 -931 44 -1471 26 -1980 -65 -741 -132 -1392 -463 -1931 -982
-55 -54 -62 -58 -75 -42 -23 27 -170 138 -239 180 -572 342 -1287 283 -1790
-149 l-75 -64 -209 519 -210 519 -176 -176 -176 -176 -39 28 c-81 58 -294 183
-445 261 -554 288 -1136 463 -1786 537 -114 13 -603 38 -644 33 -8 -1 -53 -3
-100 -5z m-9092 -83 c959 -40 1767 -296 2589 -820 23 -15 21 -17 -89 -127 -62
-62 -110 -115 -107 -118 3 -3 234 -97 514 -210 279 -113 510 -207 513 -210 3
-2 -20 -31 -51 -64 -118 -127 -229 -319 -290 -501 -128 -379 -109 -768 57
-1132 98 -214 268 -423 466 -570 229 -171 481 -264 791 -294 l66 -6 7 -257
c20 -759 131 -1543 315 -2226 389 -1444 1125 -2749 2370 -4205 479 -560 805
-908 2002 -2135 816 -837 1119 -1155 1509 -1585 674 -741 1234 -1431 1702
-2097 172 -244 296 -426 304 -447 4 -9 -47 -44 -156 -107 l-161 -94 23 -20
c14 -11 215 -164 448 -339 367 -277 421 -321 405 -330 -10 -6 -62 -44 -116
-83 -112 -84 -228 -204 -302 -315 -29 -43 -54 -77 -57 -78 -3 0 -153 198 -335
440 -181 241 -334 439 -340 439 -5 0 -55 -78 -110 -174 -55 -96 -103 -175
-107 -175 -4 0 -101 50 -215 110 -531 282 -1501 757 -2203 1078 -844 385
-1439 643 -3374 1461 -1587 672 -2232 955 -3096 1356 -394 183 -1291 629
-1620 805 -1436 771 -2505 1501 -3390 2316 -772 712 -1367 1460 -1832 2304
-431 782 -737 1675 -897 2615 -84 494 -140 1123 -141 1571 l0 171 108 12 c519
58 944 345 1186 802 114 215 166 432 166 699 0 364 -108 667 -342 956 l-65 81
94 87 c516 483 1078 835 1733 1086 483 184 1071 305 1600 329 91 5 172 9 180
9 8 1 120 -3 248 -8z m9567 0 c607 -40 1122 -160 1675 -390 222 -92 642 -318
775 -417 l30 -22 -109 -110 c-61 -61 -108 -112 -105 -115 2 -2 229 -95 504
-206 275 -111 505 -205 512 -209 7 -4 -2 -21 -28 -51 -261 -296 -393 -645
-392 -1030 2 -698 469 -1295 1148 -1469 92 -23 206 -41 264 -41 21 0 46 -3 55
-6 15 -6 16 -570 16 -6300 l0 -6294 -205 -2 -204 -3 215 -508 c119 -280 214
-510 211 -513 -3 -3 -48 -9 -99 -14 -181 -17 -336 -60 -487 -134 -41 -20 -76
-34 -78 -32 -2 2 -33 248 -70 547 -36 299 -69 547 -72 551 -3 3 -89 -42 -191
-101 l-185 -107 -76 116 c-383 585 -1025 1411 -1628 2095 -514 583 -735 817
-1871 1985 -1004 1032 -1280 1322 -1666 1755 -1302 1462 -2064 2694 -2517
4070 -270 819 -423 1725 -444 2626 l-6 276 109 12 c354 39 661 182 903 421
296 291 450 659 451 1073 0 365 -112 679 -343 964 l-66 80 92 85 c608 560
1240 935 1989 1177 593 192 1291 280 1893 241z m4580 -1114 c593 -91 1056
-507 1199 -1076 62 -243 62 -472 1 -710 -212 -829 -1110 -1298 -1906 -994
-199 75 -351 175 -510 333 -473 474 -563 1183 -221 1756 94 157 251 328 399
434 297 212 692 310 1038 257z m-18990 -6 c358 -34 654 -171 899 -416 352
-351 495 -848 384 -1329 -131 -570 -599 -1001 -1183 -1091 -620 -95 -1257 256
-1508 831 -199 454 -159 955 109 1360 244 370 630 601 1074 644 47 5 92 9 100
10 8 0 65 -4 125 -9z m9565 -15 c446 -70 834 -351 1045 -757 180 -348 209
-742 83 -1113 -195 -572 -746 -966 -1351 -965 -686 1 -1266 483 -1404 1166
-27 134 -24 404 5 541 69 317 228 590 466 795 231 200 505 316 816 347 98 10
218 5 340 -14z m28225 -85 c199 -19 343 -61 516 -152 368 -191 630 -557 695
-968 20 -125 15 -355 -11 -470 -116 -526 -511 -921 -1035 -1035 -104 -22 -340
-31 -437 -16 -252 40 -458 127 -648 276 -259 202 -439 509 -491 835 -20 126
-15 366 11 480 114 507 505 904 1006 1019 52 12 132 26 179 30 47 5 90 9 95
10 6 0 60 -4 120 -9z m-18822 -16565 c183 -27 316 -73 463 -157 354 -202 589
-544 655 -948 16 -97 15 -284 0 -380 -89 -535 -470 -951 -986 -1079 -444 -110
-915 26 -1238 355 -182 185 -298 403 -354 664 -25 118 -25 381 0 500 104 489
452 869 920 1004 189 55 362 68 540 41z"/>
<path d="M20960 9042 c0 -11 12 -22 34 -30 22 -8 39 -24 49 -45 23 -49 157
-386 157 -395 0 -5 -88 -89 -195 -188 -108 -98 -198 -189 -201 -201 -12 -45
14 -71 59 -59 12 3 98 91 192 195 93 105 170 189 171 188 1 -1 32 -78 69 -172
76 -193 92 -215 160 -215 24 0 46 4 50 9 3 5 -4 24 -14 43 -11 18 -90 210
-175 427 -85 216 -163 402 -173 414 -27 29 -76 47 -133 47 -41 0 -50 -3 -50
-18z"/>
<path d="M19474 8720 c-30 -12 -60 -53 -84 -116 -26 -71 -26 -104 -1 -104 16
0 24 13 37 61 26 94 77 142 112 107 7 -7 12 -25 12 -40 0 -38 -158 -669 -172
-685 -6 -7 -25 -13 -43 -13 -32 0 -52 -21 -39 -41 3 -5 70 -9 150 -9 l144 0 0
25 c0 22 -4 25 -39 25 -22 0 -43 5 -46 11 -6 8 41 226 51 238 1 1 19 -10 40
-25 108 -83 303 14 391 194 24 50 28 68 28 153 0 88 -2 99 -28 138 -68 102
-183 117 -294 38 l-43 -30 -22 28 c-36 46 -103 66 -154 45z m405 -64 c31 -33
37 -95 18 -187 -39 -189 -119 -299 -217 -299 -36 0 -85 42 -95 82 -8 33 61
304 87 341 12 16 41 42 66 58 59 37 109 39 141 5z"/>
<path d="M20212 8588 c-59 -28 -94 -77 -100 -137 -4 -42 -1 -50 19 -65 30 -21
52 -20 72 2 25 28 21 69 -8 88 -25 16 -25 17 -8 37 10 11 38 29 62 39 121 55
247 -51 213 -178 -19 -71 -55 -115 -208 -255 -89 -80 -144 -138 -144 -150 0
-18 11 -19 219 -19 l219 0 11 68 c6 37 14 79 17 95 5 24 2 27 -19 27 -21 0
-25 -6 -31 -40 -8 -54 -30 -61 -174 -58 l-115 3 130 102 c152 119 188 157 203
215 29 105 -32 208 -140 238 -62 17 -170 11 -218 -12z"/>
<path d="M21722 8588 c-59 -28 -94 -77 -100 -137 -4 -42 -1 -50 19 -65 30 -21
52 -20 72 2 25 28 21 69 -8 88 -25 16 -25 17 -8 37 10 11 38 29 62 39 121 55
247 -51 213 -178 -19 -71 -55 -115 -208 -255 -89 -80 -144 -138 -144 -150 0
-18 11 -19 219 -19 l219 0 11 68 c6 37 14 79 17 95 5 24 2 27 -19 27 -21 0
-25 -6 -31 -40 -8 -54 -30 -61 -174 -58 l-115 3 130 102 c152 119 188 157 203
215 29 105 -32 208 -140 238 -62 17 -170 11 -218 -12z"/>
<path d="M28280 18484 c-142 -27 -239 -119 -240 -227 0 -50 35 -87 84 -87 49
0 65 8 82 42 31 59 -4 127 -66 128 -24 1 -24 2 12 34 39 34 85 52 159 62 60 7
125 -27 152 -79 41 -81 16 -245 -49 -317 -36 -40 -92 -60 -170 -60 -23 0 -37
-6 -41 -16 -9 -25 16 -34 95 -34 113 0 167 -40 198 -148 23 -78 15 -221 -14
-279 -46 -90 -108 -120 -208 -102 -69 13 -119 36 -157 75 l-29 28 31 11 c43
14 62 37 68 82 4 32 0 44 -22 71 -23 27 -33 32 -71 32 -35 0 -51 -6 -71 -26
-23 -23 -25 -31 -21 -89 7 -110 78 -186 211 -227 227 -68 455 66 474 279 6 72
-7 125 -49 188 -34 52 -127 119 -181 131 l-31 7 47 23 c143 73 213 249 144
366 -27 47 -84 91 -147 113 -42 15 -152 26 -190 19z"/>
<path d="M9444 18441 c-41 -37 -131 -71 -211 -78 -62 -6 -63 -6 -63 -36 l0
-30 64 7 c35 3 85 13 110 20 l46 14 0 -443 0 -444 -22 -15 c-16 -11 -46 -16
-105 -16 l-83 0 0 -30 0 -30 275 0 275 0 0 30 0 30 -84 0 c-138 0 -126 -54
-129 540 -2 497 -2 505 -22 507 -11 2 -34 -10 -51 -26z"/>
<path d="M18803 18460 c-130 -27 -230 -142 -241 -276 -4 -57 -2 -65 21 -88 58
-57 157 -20 157 59 0 42 -44 95 -79 95 -25 0 -25 3 -7 38 53 102 193 146 294
93 78 -40 132 -163 119 -271 -16 -131 -81 -232 -327 -505 -122 -135 -180 -207
-180 -222 l0 -23 309 0 c286 0 310 1 315 18 2 9 12 67 21 127 9 61 18 118 21
128 4 13 -1 17 -20 17 -20 0 -27 -6 -32 -27 -21 -98 -30 -117 -54 -124 -14 -4
-113 -7 -220 -8 l-195 -1 106 103 c58 56 160 154 226 217 132 127 176 196 188
294 8 62 -14 160 -47 213 -64 105 -239 171 -375 143z"/>
<path d="M47055 18284 c-5 -1 -58 -6 -117 -9 l-108 -7 0 -29 c0 -25 4 -29 29
-29 46 0 88 -19 95 -43 10 -39 7 -517 -4 -538 -9 -15 -22 -19 -65 -19 -54 0
-55 0 -55 -30 l0 -30 190 0 190 0 0 30 c0 30 -1 30 -55 30 -45 0 -56 4 -66 21
-7 14 -10 88 -7 227 l3 207 31 55 c23 41 45 63 84 88 99 59 184 34 209 -62 14
-58 15 -490 1 -517 -9 -15 -22 -19 -65 -19 -54 0 -55 0 -55 -30 l0 -30 190 0
190 0 0 30 c0 30 -1 30 -53 30 -29 0 -58 5 -65 12 -9 9 -12 78 -12 248 0 141
-5 251 -11 275 -26 95 -92 137 -215 138 -93 0 -154 -28 -204 -96 l-35 -47 -5
73 c-3 42 -9 73 -15 71z"/>
<path d="M28325 1788 c-3 -7 -13 -84 -23 -170 -10 -87 -20 -160 -23 -162 -2
-2 -69 9 -149 25 -153 31 -195 33 -195 10 0 -12 203 -115 300 -154 5 -2 -28
-70 -74 -151 -76 -135 -90 -176 -61 -176 6 0 44 35 83 77 40 43 92 99 117 126
l45 48 114 -125 c63 -69 119 -126 126 -126 30 0 19 36 -56 171 -43 79 -79 147
-79 150 0 3 68 36 150 74 114 52 150 72 150 87 0 25 -19 24 -195 -12 -82 -17
-149 -29 -150 -28 -1 2 -9 73 -19 158 -10 85 -20 163 -22 173 -6 20 -32 23
-39 5z"/>
<path d="M36999 17981 c-60 -61 -24 -151 61 -151 54 0 90 34 90 85 0 48 -45
95 -90 95 -22 0 -41 -9 -61 -29z"/>
<path d="M37729 17981 c-60 -61 -24 -151 61 -151 54 0 90 34 90 85 0 48 -45
95 -90 95 -22 0 -41 -9 -61 -29z"/>
<path d="M38469 17981 c-60 -61 -24 -151 61 -151 54 0 90 34 90 85 0 48 -45
95 -90 95 -22 0 -41 -9 -61 -29z"/>
<path d="M12460 9042 c0 -11 12 -22 34 -30 22 -8 39 -24 49 -45 23 -49 157
-386 157 -395 0 -5 -88 -89 -195 -188 -108 -98 -198 -189 -201 -201 -12 -45
14 -71 59 -59 12 3 98 91 192 195 93 105 170 189 171 188 1 -1 32 -78 69 -172
76 -193 92 -215 160 -215 24 0 46 4 50 9 3 5 -4 24 -14 43 -11 18 -90 210
-175 427 -85 216 -163 402 -173 414 -27 29 -76 47 -133 47 -41 0 -50 -3 -50
-18z"/>
<path d="M30410 9042 c0 -11 12 -22 34 -30 22 -8 39 -24 49 -45 23 -49 157
-386 157 -395 0 -5 -88 -89 -195 -188 -108 -98 -198 -189 -201 -201 -12 -45
14 -71 59 -59 12 3 98 91 192 195 93 105 170 189 171 188 1 -1 32 -78 69 -172
76 -193 92 -215 160 -215 24 0 46 4 50 9 3 5 -4 24 -14 43 -11 18 -90 210
-175 427 -85 216 -163 402 -173 414 -27 29 -76 47 -133 47 -41 0 -50 -3 -50
-18z"/>
<path d="M45060 9042 c0 -11 12 -22 34 -30 22 -8 39 -24 49 -45 23 -49 157
-386 157 -395 0 -5 -88 -89 -195 -188 -108 -98 -198 -189 -201 -201 -12 -45
14 -71 59 -59 12 3 98 91 192 195 93 105 170 189 171 188 1 -1 32 -78 69 -172
76 -193 92 -215 160 -215 24 0 46 4 50 9 3 5 -4 24 -14 43 -11 18 -90 210
-175 427 -85 216 -163 402 -173 414 -27 29 -76 47 -133 47 -41 0 -50 -3 -50
-18z"/>
<path d="M10964 8720 c-30 -12 -60 -53 -84 -116 -26 -71 -26 -104 -1 -104 16
0 24 13 37 61 26 94 77 142 112 107 7 -7 12 -25 12 -40 0 -38 -158 -669 -172
-685 -6 -7 -25 -13 -43 -13 -32 0 -52 -21 -39 -41 3 -5 70 -9 150 -9 l144 0 0
25 c0 22 -4 25 -39 25 -22 0 -43 5 -46 11 -6 8 41 226 51 238 1 1 19 -10 40
-25 108 -83 303 14 391 194 24 50 28 68 28 153 0 88 -2 99 -28 138 -68 102
-183 117 -294 38 l-43 -30 -22 28 c-36 46 -103 66 -154 45z m405 -64 c31 -33
37 -95 18 -187 -39 -189 -119 -299 -217 -299 -36 0 -85 42 -95 82 -8 33 61
304 87 341 12 16 41 42 66 58 59 37 109 39 141 5z"/>
<path d="M28924 8720 c-30 -12 -60 -53 -84 -116 -26 -71 -26 -104 -1 -104 16
0 24 13 37 61 26 94 77 142 112 107 7 -7 12 -25 12 -40 0 -38 -158 -669 -172
-685 -6 -7 -25 -13 -43 -13 -32 0 -52 -21 -39 -41 3 -5 70 -9 150 -9 l144 0 0
25 c0 22 -4 25 -39 25 -22 0 -43 5 -46 11 -6 8 41 226 51 238 1 1 19 -10 40
-25 108 -83 303 14 391 194 24 50 28 68 28 153 0 88 -2 99 -28 138 -68 102
-183 117 -294 38 l-43 -30 -22 28 c-36 46 -103 66 -154 45z m405 -64 c31 -33
37 -95 18 -187 -39 -189 -119 -299 -217 -299 -36 0 -85 42 -95 82 -8 33 61
304 87 341 12 16 41 42 66 58 59 37 109 39 141 5z"/>
<path d="M43414 8720 c-30 -12 -60 -53 -84 -116 -26 -71 -26 -104 -1 -104 16
0 24 13 37 61 26 94 77 142 112 107 7 -7 12 -25 12 -40 0 -38 -158 -669 -172
-685 -6 -7 -25 -13 -43 -13 -32 0 -52 -21 -39 -41 3 -5 70 -9 150 -9 l144 0 0
25 c0 22 -4 25 -39 25 -22 0 -43 5 -46 11 -6 8 41 226 51 238 1 1 19 -10 40
-25 108 -83 303 14 391 194 24 50 28 68 28 153 0 88 -2 99 -28 138 -68 102
-183 117 -294 38 l-43 -30 -22 28 c-36 46 -103 66 -154 45z m405 -64 c31 -33
37 -95 18 -187 -39 -189 -119 -299 -217 -299 -36 0 -85 42 -95 82 -8 33 61
304 87 341 12 16 41 42 66 58 59 37 109 39 141 5z"/>
<path d="M11812 8584 c-24 -12 -68 -26 -98 -30 -48 -6 -54 -9 -54 -30 0 -23 3
-24 43 -18 23 3 57 10 75 14 l32 8 0 -258 c0 -178 -3 -261 -11 -266 -6 -3 -40
-9 -75 -12 -54 -4 -64 -8 -64 -23 0 -18 11 -19 195 -19 188 0 195 1 195 20 0
17 -7 20 -49 20 -27 0 -61 4 -75 10 l-26 10 0 300 0 300 -22 -1 c-13 -1 -43
-12 -66 -25z"/>
<path d="M13322 8584 c-24 -12 -68 -26 -98 -30 -48 -6 -54 -9 -54 -30 0 -23 3
-24 43 -18 23 3 57 10 75 14 l32 8 0 -258 c0 -178 -3 -261 -11 -266 -6 -3 -40
-9 -75 -12 -54 -4 -64 -8 -64 -23 0 -18 11 -19 195 -19 188 0 195 1 195 20 0
17 -7 20 -49 20 -27 0 -61 4 -75 10 l-26 10 0 300 0 300 -22 -1 c-13 -1 -43
-12 -66 -25z"/>
<path d="M29684 8600 c-101 -31 -144 -170 -56 -178 18 -2 40 2 48 9 19 16 18
78 -1 85 -43 17 26 54 100 54 110 0 151 -77 98 -182 -20 -40 -60 -62 -122 -68
-43 -4 -57 -9 -59 -22 -3 -15 4 -18 45 -18 108 0 166 -41 179 -126 13 -90 -31
-167 -105 -180 -44 -9 -130 8 -166 32 -26 17 -27 18 -6 25 42 16 39 93 -6 110
-41 15 -77 -8 -81 -53 -4 -52 20 -93 75 -125 40 -23 61 -28 138 -31 78 -4 99
-1 143 18 95 41 147 130 123 210 -16 53 -52 94 -107 120 l-45 22 33 18 c51 27
90 88 90 144 2 92 -65 140 -202 143 -47 1 -99 -2 -116 -7z"/>
<path d="M31172 8588 c-59 -28 -94 -77 -100 -137 -4 -42 -1 -50 19 -65 30 -21
52 -20 72 2 25 28 21 69 -8 88 -25 16 -25 17 -8 37 10 11 38 29 62 39 121 55
247 -51 213 -178 -19 -71 -55 -115 -208 -255 -89 -80 -144 -138 -144 -150 0
-18 11 -19 219 -19 l219 0 11 68 c6 37 14 79 17 95 5 24 2 27 -19 27 -21 0
-25 -6 -31 -40 -8 -54 -30 -61 -174 -58 l-115 3 130 102 c152 119 188 157 203
215 29 105 -32 208 -140 238 -62 17 -170 11 -218 -12z"/>
<path d="M44101 8389 c-27 -26 -60 -94 -61 -126 0 -35 38 -31 46 5 21 86 69
128 94 82 9 -17 2 -57 -30 -191 -23 -93 -39 -176 -36 -184 7 -18 60 -20 73 -2
5 6 24 67 41 135 25 97 39 134 68 173 56 77 149 113 188 73 25 -24 19 -80 -19
-189 -42 -121 -43 -144 -9 -179 22 -21 36 -26 75 -26 40 0 54 5 85 33 39 33
80 110 69 127 -13 21 -35 9 -50 -27 -31 -73 -102 -120 -119 -78 -3 8 10 57 29
109 19 52 37 117 41 144 12 90 -38 142 -136 142 -59 0 -102 -16 -147 -54 -22
-19 -33 -23 -33 -14 0 29 -48 61 -97 65 -40 4 -52 1 -72 -18z"/>
<path d="M45771 8389 c-27 -26 -60 -94 -61 -126 0 -35 38 -31 46 5 21 86 69
128 94 82 9 -17 2 -57 -30 -191 -23 -93 -39 -176 -36 -184 7 -18 60 -20 73 -2
5 6 24 67 41 135 25 97 39 134 68 173 56 77 149 113 188 73 25 -24 19 -80 -19
-189 -42 -121 -43 -144 -9 -179 22 -21 36 -26 75 -26 40 0 54 5 85 33 39 33
80 110 69 127 -13 21 -35 9 -50 -27 -31 -73 -102 -120 -119 -78 -3 8 10 57 29
109 19 52 37 117 41 144 12 90 -38 142 -136 142 -59 0 -102 -16 -147 -54 -22
-19 -33 -23 -33 -14 0 29 -48 61 -97 65 -40 4 -52 1 -72 -18z"/>
</g>
</svg>
