<?xml version="1.0" encoding="utf-8" standalone="no"?>
<!DOCTYPE svg PUBLIC "-//W3C//DTD SVG 1.1//EN"
  "http://www.w3.org/Graphics/SVG/1.1/DTD/svg11.dtd">
<!-- Created with matplotlib (https://matplotlib.org/) -->
<svg height="288pt" version="1.1" viewBox="0 0 864 288" width="864pt" xmlns="http://www.w3.org/2000/svg" xmlns:xlink="http://www.w3.org/1999/xlink">
 <defs>
  <style type="text/css">
*{stroke-linecap:butt;stroke-linejoin:round;}
  </style>
 </defs>
 <g id="figure_1">
  <g id="patch_1">
   <path d="M 0 288 
L 864 288 
L 864 0 
L 0 0 
z
" style="fill:#ffffff;"/>
  </g>
  <g id="axes_1">
   <g id="patch_2">
    <path d="M 108 252 
L 777.6 252 
L 777.6 34.56 
L 108 34.56 
z
" style="fill:#ffffff;"/>
   </g>
   <g id="matplotlib.axis_1">
    <g id="xtick_1">
     <g id="line2d_1">
      <defs>
       <path d="M 0 0 
L 0 3.5 
" id="m11a8920bb7" style="stroke:#000000;stroke-width:0.8;"/>
      </defs>
      <g>
       <use style="stroke:#000000;stroke-width:0.8;" x="138.436364" xlink:href="#m11a8920bb7" y="252"/>
      </g>
     </g>
     <g id="text_1">
      <!-- 0 -->
      <defs>
       <path d="M 31.78125 66.40625 
Q 24.171875 66.40625 20.328125 58.90625 
Q 16.5 51.421875 16.5 36.375 
Q 16.5 21.390625 20.328125 13.890625 
Q 24.171875 6.390625 31.78125 6.390625 
Q 39.453125 6.390625 43.28125 13.890625 
Q 47.125 21.390625 47.125 36.375 
Q 47.125 51.421875 43.28125 58.90625 
Q 39.453125 66.40625 31.78125 66.40625 
z
M 31.78125 74.21875 
Q 44.046875 74.21875 50.515625 64.515625 
Q 56.984375 54.828125 56.984375 36.375 
Q 56.984375 17.96875 50.515625 8.265625 
Q 44.046875 -1.421875 31.78125 -1.421875 
Q 19.53125 -1.421875 13.0625 8.265625 
Q 6.59375 17.96875 6.59375 36.375 
Q 6.59375 54.828125 13.0625 64.515625 
Q 19.53125 74.21875 31.78125 74.21875 
z
" id="DejaVuSans-48"/>
      </defs>
      <g transform="translate(135.255114 266.598437)scale(0.1 -0.1)">
       <use xlink:href="#DejaVuSans-48"/>
      </g>
     </g>
    </g>
    <g id="xtick_2">
     <g id="line2d_2">
      <g>
       <use style="stroke:#000000;stroke-width:0.8;" x="214.587565" xlink:href="#m11a8920bb7" y="252"/>
      </g>
     </g>
     <g id="text_2">
      <!-- 10 -->
      <defs>
       <path d="M 12.40625 8.296875 
L 28.515625 8.296875 
L 28.515625 63.921875 
L 10.984375 60.40625 
L 10.984375 69.390625 
L 28.421875 72.90625 
L 38.28125 72.90625 
L 38.28125 8.296875 
L 54.390625 8.296875 
L 54.390625 0 
L 12.40625 0 
z
" id="DejaVuSans-49"/>
      </defs>
      <g transform="translate(208.225065 266.598437)scale(0.1 -0.1)">
       <use xlink:href="#DejaVuSans-49"/>
       <use x="63.623047" xlink:href="#DejaVuSans-48"/>
      </g>
     </g>
    </g>
    <g id="xtick_3">
     <g id="line2d_3">
      <g>
       <use style="stroke:#000000;stroke-width:0.8;" x="290.738766" xlink:href="#m11a8920bb7" y="252"/>
      </g>
     </g>
     <g id="text_3">
      <!-- 20 -->
      <defs>
       <path d="M 19.1875 8.296875 
L 53.609375 8.296875 
L 53.609375 0 
L 7.328125 0 
L 7.328125 8.296875 
Q 12.9375 14.109375 22.625 23.890625 
Q 32.328125 33.6875 34.8125 36.53125 
Q 39.546875 41.84375 41.421875 45.53125 
Q 43.3125 49.21875 43.3125 52.78125 
Q 43.3125 58.59375 39.234375 62.25 
Q 35.15625 65.921875 28.609375 65.921875 
Q 23.96875 65.921875 18.8125 64.3125 
Q 13.671875 62.703125 7.8125 59.421875 
L 7.8125 69.390625 
Q 13.765625 71.78125 18.9375 73 
Q 24.125 74.21875 28.421875 74.21875 
Q 39.75 74.21875 46.484375 68.546875 
Q 53.21875 62.890625 53.21875 53.421875 
Q 53.21875 48.921875 51.53125 44.890625 
Q 49.859375 40.875 45.40625 35.40625 
Q 44.1875 33.984375 37.640625 27.21875 
Q 31.109375 20.453125 19.1875 8.296875 
z
" id="DejaVuSans-50"/>
      </defs>
      <g transform="translate(284.376266 266.598437)scale(0.1 -0.1)">
       <use xlink:href="#DejaVuSans-50"/>
       <use x="63.623047" xlink:href="#DejaVuSans-48"/>
      </g>
     </g>
    </g>
    <g id="xtick_4">
     <g id="line2d_4">
      <g>
       <use style="stroke:#000000;stroke-width:0.8;" x="366.889968" xlink:href="#m11a8920bb7" y="252"/>
      </g>
     </g>
     <g id="text_4">
      <!-- 30 -->
      <defs>
       <path d="M 40.578125 39.3125 
Q 47.65625 37.796875 51.625 33 
Q 55.609375 28.21875 55.609375 21.1875 
Q 55.609375 10.40625 48.1875 4.484375 
Q 40.765625 -1.421875 27.09375 -1.421875 
Q 22.515625 -1.421875 17.65625 -0.515625 
Q 12.796875 0.390625 7.625 2.203125 
L 7.625 11.71875 
Q 11.71875 9.328125 16.59375 8.109375 
Q 21.484375 6.890625 26.8125 6.890625 
Q 36.078125 6.890625 40.9375 10.546875 
Q 45.796875 14.203125 45.796875 21.1875 
Q 45.796875 27.640625 41.28125 31.265625 
Q 36.765625 34.90625 28.71875 34.90625 
L 20.21875 34.90625 
L 20.21875 43.015625 
L 29.109375 43.015625 
Q 36.375 43.015625 40.234375 45.921875 
Q 44.09375 48.828125 44.09375 54.296875 
Q 44.09375 59.90625 40.109375 62.90625 
Q 36.140625 65.921875 28.71875 65.921875 
Q 24.65625 65.921875 20.015625 65.03125 
Q 15.375 64.15625 9.8125 62.3125 
L 9.8125 71.09375 
Q 15.4375 72.65625 20.34375 73.4375 
Q 25.25 74.21875 29.59375 74.21875 
Q 40.828125 74.21875 47.359375 69.109375 
Q 53.90625 64.015625 53.90625 55.328125 
Q 53.90625 49.265625 50.4375 45.09375 
Q 46.96875 40.921875 40.578125 39.3125 
z
" id="DejaVuSans-51"/>
      </defs>
      <g transform="translate(360.527468 266.598437)scale(0.1 -0.1)">
       <use xlink:href="#DejaVuSans-51"/>
       <use x="63.623047" xlink:href="#DejaVuSans-48"/>
      </g>
     </g>
    </g>
    <g id="xtick_5">
     <g id="line2d_5">
      <g>
       <use style="stroke:#000000;stroke-width:0.8;" x="443.041169" xlink:href="#m11a8920bb7" y="252"/>
      </g>
     </g>
     <g id="text_5">
      <!-- 40 -->
      <defs>
       <path d="M 37.796875 64.3125 
L 12.890625 25.390625 
L 37.796875 25.390625 
z
M 35.203125 72.90625 
L 47.609375 72.90625 
L 47.609375 25.390625 
L 58.015625 25.390625 
L 58.015625 17.1875 
L 47.609375 17.1875 
L 47.609375 0 
L 37.796875 0 
L 37.796875 17.1875 
L 4.890625 17.1875 
L 4.890625 26.703125 
z
" id="DejaVuSans-52"/>
      </defs>
      <g transform="translate(436.678669 266.598437)scale(0.1 -0.1)">
       <use xlink:href="#DejaVuSans-52"/>
       <use x="63.623047" xlink:href="#DejaVuSans-48"/>
      </g>
     </g>
    </g>
    <g id="xtick_6">
     <g id="line2d_6">
      <g>
       <use style="stroke:#000000;stroke-width:0.8;" x="519.19237" xlink:href="#m11a8920bb7" y="252"/>
      </g>
     </g>
     <g id="text_6">
      <!-- 50 -->
      <defs>
       <path d="M 10.796875 72.90625 
L 49.515625 72.90625 
L 49.515625 64.59375 
L 19.828125 64.59375 
L 19.828125 46.734375 
Q 21.96875 47.46875 24.109375 47.828125 
Q 26.265625 48.1875 28.421875 48.1875 
Q 40.625 48.1875 47.75 41.5 
Q 54.890625 34.8125 54.890625 23.390625 
Q 54.890625 11.625 47.5625 5.09375 
Q 40.234375 -1.421875 26.90625 -1.421875 
Q 22.3125 -1.421875 17.546875 -0.640625 
Q 12.796875 0.140625 7.71875 1.703125 
L 7.71875 11.625 
Q 12.109375 9.234375 16.796875 8.0625 
Q 21.484375 6.890625 26.703125 6.890625 
Q 35.15625 6.890625 40.078125 11.328125 
Q 45.015625 15.765625 45.015625 23.390625 
Q 45.015625 31 40.078125 35.4375 
Q 35.15625 39.890625 26.703125 39.890625 
Q 22.75 39.890625 18.8125 39.015625 
Q 14.890625 38.140625 10.796875 36.28125 
z
" id="DejaVuSans-53"/>
      </defs>
      <g transform="translate(512.82987 266.598437)scale(0.1 -0.1)">
       <use xlink:href="#DejaVuSans-53"/>
       <use x="63.623047" xlink:href="#DejaVuSans-48"/>
      </g>
     </g>
    </g>
    <g id="xtick_7">
     <g id="line2d_7">
      <g>
       <use style="stroke:#000000;stroke-width:0.8;" x="595.343572" xlink:href="#m11a8920bb7" y="252"/>
      </g>
     </g>
     <g id="text_7">
      <!-- 60 -->
      <defs>
       <path d="M 33.015625 40.375 
Q 26.375 40.375 22.484375 35.828125 
Q 18.609375 31.296875 18.609375 23.390625 
Q 18.609375 15.53125 22.484375 10.953125 
Q 26.375 6.390625 33.015625 6.390625 
Q 39.65625 6.390625 43.53125 10.953125 
Q 47.40625 15.53125 47.40625 23.390625 
Q 47.40625 31.296875 43.53125 35.828125 
Q 39.65625 40.375 33.015625 40.375 
z
M 52.59375 71.296875 
L 52.59375 62.3125 
Q 48.875 64.0625 45.09375 64.984375 
Q 41.3125 65.921875 37.59375 65.921875 
Q 27.828125 65.921875 22.671875 59.328125 
Q 17.53125 52.734375 16.796875 39.40625 
Q 19.671875 43.65625 24.015625 45.921875 
Q 28.375 48.1875 33.59375 48.1875 
Q 44.578125 48.1875 50.953125 41.515625 
Q 57.328125 34.859375 57.328125 23.390625 
Q 57.328125 12.15625 50.6875 5.359375 
Q 44.046875 -1.421875 33.015625 -1.421875 
Q 20.359375 -1.421875 13.671875 8.265625 
Q 6.984375 17.96875 6.984375 36.375 
Q 6.984375 53.65625 15.1875 63.9375 
Q 23.390625 74.21875 37.203125 74.21875 
Q 40.921875 74.21875 44.703125 73.484375 
Q 48.484375 72.75 52.59375 71.296875 
z
" id="DejaVuSans-54"/>
      </defs>
      <g transform="translate(588.981072 266.598437)scale(0.1 -0.1)">
       <use xlink:href="#DejaVuSans-54"/>
       <use x="63.623047" xlink:href="#DejaVuSans-48"/>
      </g>
     </g>
    </g>
    <g id="xtick_8">
     <g id="line2d_8">
      <g>
       <use style="stroke:#000000;stroke-width:0.8;" x="671.494773" xlink:href="#m11a8920bb7" y="252"/>
      </g>
     </g>
     <g id="text_8">
      <!-- 70 -->
      <defs>
       <path d="M 8.203125 72.90625 
L 55.078125 72.90625 
L 55.078125 68.703125 
L 28.609375 0 
L 18.3125 0 
L 43.21875 64.59375 
L 8.203125 64.59375 
z
" id="DejaVuSans-55"/>
      </defs>
      <g transform="translate(665.132273 266.598437)scale(0.1 -0.1)">
       <use xlink:href="#DejaVuSans-55"/>
       <use x="63.623047" xlink:href="#DejaVuSans-48"/>
      </g>
     </g>
    </g>
    <g id="xtick_9">
     <g id="line2d_9">
      <g>
       <use style="stroke:#000000;stroke-width:0.8;" x="747.645975" xlink:href="#m11a8920bb7" y="252"/>
      </g>
     </g>
     <g id="text_9">
      <!-- 80 -->
      <defs>
       <path d="M 31.78125 34.625 
Q 24.75 34.625 20.71875 30.859375 
Q 16.703125 27.09375 16.703125 20.515625 
Q 16.703125 13.921875 20.71875 10.15625 
Q 24.75 6.390625 31.78125 6.390625 
Q 38.8125 6.390625 42.859375 10.171875 
Q 46.921875 13.96875 46.921875 20.515625 
Q 46.921875 27.09375 42.890625 30.859375 
Q 38.875 34.625 31.78125 34.625 
z
M 21.921875 38.8125 
Q 15.578125 40.375 12.03125 44.71875 
Q 8.5 49.078125 8.5 55.328125 
Q 8.5 64.0625 14.71875 69.140625 
Q 20.953125 74.21875 31.78125 74.21875 
Q 42.671875 74.21875 48.875 69.140625 
Q 55.078125 64.0625 55.078125 55.328125 
Q 55.078125 49.078125 51.53125 44.71875 
Q 48 40.375 41.703125 38.8125 
Q 48.828125 37.15625 52.796875 32.3125 
Q 56.78125 27.484375 56.78125 20.515625 
Q 56.78125 9.90625 50.3125 4.234375 
Q 43.84375 -1.421875 31.78125 -1.421875 
Q 19.734375 -1.421875 13.25 4.234375 
Q 6.78125 9.90625 6.78125 20.515625 
Q 6.78125 27.484375 10.78125 32.3125 
Q 14.796875 37.15625 21.921875 38.8125 
z
M 18.3125 54.390625 
Q 18.3125 48.734375 21.84375 45.5625 
Q 25.390625 42.390625 31.78125 42.390625 
Q 38.140625 42.390625 41.71875 45.5625 
Q 45.3125 48.734375 45.3125 54.390625 
Q 45.3125 60.0625 41.71875 63.234375 
Q 38.140625 66.40625 31.78125 66.40625 
Q 25.390625 66.40625 21.84375 63.234375 
Q 18.3125 60.0625 18.3125 54.390625 
z
" id="DejaVuSans-56"/>
      </defs>
      <g transform="translate(741.283475 266.598437)scale(0.1 -0.1)">
       <use xlink:href="#DejaVuSans-56"/>
       <use x="63.623047" xlink:href="#DejaVuSans-48"/>
      </g>
     </g>
    </g>
   </g>
   <g id="matplotlib.axis_2">
    <g id="ytick_1">
     <g id="line2d_10">
      <defs>
       <path d="M 0 0 
L -3.5 0 
" id="mf20237ae7d" style="stroke:#000000;stroke-width:0.8;"/>
      </defs>
      <g>
       <use style="stroke:#000000;stroke-width:0.8;" x="108" xlink:href="#mf20237ae7d" y="242.116364"/>
      </g>
     </g>
     <g id="text_10">
      <!-- 0 -->
      <g transform="translate(94.6375 245.915582)scale(0.1 -0.1)">
       <use xlink:href="#DejaVuSans-48"/>
      </g>
     </g>
    </g>
    <g id="ytick_2">
     <g id="line2d_11">
      <g>
       <use style="stroke:#000000;stroke-width:0.8;" x="108" xlink:href="#mf20237ae7d" y="200.934545"/>
      </g>
     </g>
     <g id="text_11">
      <!-- 5 -->
      <g transform="translate(94.6375 204.733764)scale(0.1 -0.1)">
       <use xlink:href="#DejaVuSans-53"/>
      </g>
     </g>
    </g>
    <g id="ytick_3">
     <g id="line2d_12">
      <g>
       <use style="stroke:#000000;stroke-width:0.8;" x="108" xlink:href="#mf20237ae7d" y="159.752727"/>
      </g>
     </g>
     <g id="text_12">
      <!-- 10 -->
      <g transform="translate(88.275 163.551946)scale(0.1 -0.1)">
       <use xlink:href="#DejaVuSans-49"/>
       <use x="63.623047" xlink:href="#DejaVuSans-48"/>
      </g>
     </g>
    </g>
    <g id="ytick_4">
     <g id="line2d_13">
      <g>
       <use style="stroke:#000000;stroke-width:0.8;" x="108" xlink:href="#mf20237ae7d" y="118.570909"/>
      </g>
     </g>
     <g id="text_13">
      <!-- 15 -->
      <g transform="translate(88.275 122.370128)scale(0.1 -0.1)">
       <use xlink:href="#DejaVuSans-49"/>
       <use x="63.623047" xlink:href="#DejaVuSans-53"/>
      </g>
     </g>
    </g>
    <g id="ytick_5">
     <g id="line2d_14">
      <g>
       <use style="stroke:#000000;stroke-width:0.8;" x="108" xlink:href="#mf20237ae7d" y="77.389091"/>
      </g>
     </g>
     <g id="text_14">
      <!-- 20 -->
      <g transform="translate(88.275 81.18831)scale(0.1 -0.1)">
       <use xlink:href="#DejaVuSans-50"/>
       <use x="63.623047" xlink:href="#DejaVuSans-48"/>
      </g>
     </g>
    </g>
    <g id="ytick_6">
     <g id="line2d_15">
      <g>
       <use style="stroke:#000000;stroke-width:0.8;" x="108" xlink:href="#mf20237ae7d" y="36.207273"/>
      </g>
     </g>
     <g id="text_15">
      <!-- 25 -->
      <g transform="translate(88.275 40.006491)scale(0.1 -0.1)">
       <use xlink:href="#DejaVuSans-50"/>
       <use x="63.623047" xlink:href="#DejaVuSans-53"/>
      </g>
     </g>
    </g>
   </g>
   <g id="line2d_16">
    <path clip-path="url(#p588a9d0262)" d="M 138.436364 242.116364 
L 140.28536 242.116364 
L 140.496987 233.88 
L 140.763694 233.88 
L 141.265151 242.116364 
L 142.314864 242.116364 
L 142.744291 233.88 
L 145.320797 233.88 
L 145.79685 242.116364 
L 146.985879 242.116364 
L 148.025741 225.643636 
L 148.512542 225.643636 
L 148.537535 233.88 
L 148.901061 233.88 
L 149.107298 225.643636 
L 150.439788 225.643636 
L 150.559603 217.407273 
L 150.748564 225.643636 
L 151.812394 233.88 
L 151.996206 233.88 
L 152.158396 242.116364 
L 153.040317 233.88 
L 153.234016 242.116364 
L 157.235765 242.116364 
L 157.415106 233.88 
L 157.926495 233.88 
L 158.086389 225.643636 
L 158.375381 217.407273 
L 158.622505 233.88 
L 159.538223 233.88 
L 160.421173 242.116364 
L 164.783395 242.116364 
L 165.541315 233.88 
L 166.74144 233.88 
L 166.745482 242.116364 
L 166.826254 233.88 
L 167.142347 242.116364 
L 168.050581 242.116364 
L 168.224827 233.88 
L 168.273029 225.643636 
L 169.433039 225.643636 
L 169.743076 233.88 
L 169.77742 242.116364 
L 170.07285 242.116364 
L 170.334174 233.88 
L 170.705268 233.88 
L 170.805993 225.643636 
L 170.950115 242.116364 
L 171.297375 233.88 
L 171.433214 242.116364 
L 173.671496 242.116364 
L 174.268138 233.88 
L 175.598771 233.88 
L 175.643836 242.116364 
L 176.80536 242.116364 
L 176.83691 233.88 
L 177.09336 225.643636 
L 177.291167 225.643636 
L 177.502347 217.407273 
L 177.738664 225.643636 
L 177.754547 233.88 
L 178.719306 233.88 
L 178.884766 225.643636 
L 179.223669 225.643636 
L 179.471943 233.88 
L 179.529625 225.643636 
L 179.962657 225.643636 
L 180.125666 217.407273 
L 180.763924 217.407273 
L 180.82898 209.170909 
L 181.073912 217.407273 
L 182.14182 217.407273 
L 182.355402 225.643636 
L 182.696498 225.643636 
L 183.04287 217.407273 
L 183.772972 217.407273 
L 183.980826 225.643636 
L 184.68624 225.643636 
L 184.689591 233.88 
L 184.691264 225.643636 
L 185.332224 225.643636 
L 185.726079 217.407273 
L 185.962123 225.643636 
L 187.402401 233.88 
L 187.884764 242.116364 
L 188.628937 242.116364 
L 188.702101 233.88 
L 190.628299 233.88 
L 190.717615 225.643636 
L 190.872888 225.643636 
L 190.897908 233.88 
L 191.079657 242.116364 
L 191.196412 242.116364 
L 191.516875 233.88 
L 193.236323 233.88 
L 194.124624 242.116364 
L 197.434757 242.116364 
L 197.505729 233.88 
L 197.719268 242.116364 
L 198.1084 242.116364 
L 198.583235 233.88 
L 199.209988 233.88 
L 199.411909 225.643636 
L 199.898978 233.88 
L 200.003904 225.643636 
L 200.08363 225.643636 
L 200.167071 217.407273 
L 200.390269 217.407273 
L 200.638318 225.643636 
L 200.726904 217.407273 
L 201.906035 217.407273 
L 202.104689 209.170909 
L 204.310281 209.170909 
L 204.501302 200.934545 
L 204.503703 192.698182 
L 204.726642 184.461818 
L 205.365564 184.461818 
L 205.384198 192.698182 
L 205.633375 184.461818 
L 205.970218 184.461818 
L 206.082224 192.698182 
L 206.231599 192.698182 
L 206.323695 184.461818 
L 208.941843 184.461818 
L 209.118685 176.225455 
L 209.954008 176.225455 
L 210.019026 167.989091 
L 210.555999 167.989091 
L 211.384283 159.752727 
L 211.542896 159.752727 
L 211.74515 167.989091 
L 212.19399 159.752727 
L 212.393035 151.516364 
L 212.730802 143.28 
L 214.643339 143.28 
L 214.90973 151.516364 
L 214.930645 143.28 
L 215.627206 135.043636 
L 216.364687 135.043636 
L 216.511952 143.28 
L 217.381524 143.28 
L 217.594589 151.516364 
L 217.800121 143.28 
L 219.148224 143.28 
L 219.474145 135.043636 
L 220.586798 135.043636 
L 220.592574 143.28 
L 220.696666 135.043636 
L 222.357657 135.043636 
L 222.407025 126.807273 
L 222.613224 126.807273 
L 222.700602 135.043636 
L 222.908922 143.28 
L 223.922549 143.28 
L 224.083857 135.043636 
L 224.64306 135.043636 
L 224.657735 126.807273 
L 225.859442 126.807273 
L 226.183594 118.570909 
L 226.696832 118.570909 
L 226.888607 110.334545 
L 228.373888 110.334545 
L 228.392363 118.570909 
L 231.447071 118.570909 
L 231.51093 110.334545 
L 231.54954 118.570909 
L 232.607451 118.570909 
L 232.792599 110.334545 
L 233.343048 118.570909 
L 233.401009 126.807273 
L 235.815978 126.807273 
L 236.483271 118.570909 
L 236.594236 110.334545 
L 236.729025 110.334545 
L 236.898104 118.570909 
L 238.496616 118.570909 
L 238.676908 110.334545 
L 239.379738 110.334545 
L 240.108531 118.570909 
L 240.146366 110.334545 
L 241.735741 118.570909 
L 241.874886 126.807273 
L 241.883968 118.570909 
L 242.20045 118.570909 
L 242.48605 135.043636 
L 243.315967 126.807273 
L 244.355083 126.807273 
L 244.357279 118.570909 
L 244.705878 118.570909 
L 244.988699 110.334545 
L 245.32776 118.570909 
L 245.479078 126.807273 
L 246.01503 135.043636 
L 246.198625 135.043636 
L 246.2411 126.807273 
L 249.203845 126.807273 
L 249.35672 118.570909 
L 249.621581 110.334545 
L 250.074366 118.570909 
L 252.001579 118.570909 
L 252.977123 126.807273 
L 253.514124 126.807273 
L 253.622132 110.334545 
L 253.769665 110.334545 
L 253.816416 102.098182 
L 254.231521 102.098182 
L 254.258432 93.861818 
L 255.536225 93.861818 
L 255.655201 77.389091 
L 256.528184 77.389091 
L 256.664538 85.625455 
L 256.978152 85.625455 
L 257.098684 69.152727 
L 257.310287 77.389091 
L 258.631591 77.389091 
L 258.633969 69.152727 
L 259.477921 69.152727 
L 259.779887 60.916364 
L 260.56346 60.916364 
L 260.644009 52.68 
L 260.821216 60.916364 
L 261.656583 60.916364 
L 261.695809 52.68 
L 263.865764 52.68 
L 263.896607 44.443636 
L 265.90893 44.443636 
L 266.070716 52.68 
L 266.186663 52.68 
L 266.387572 44.443636 
L 266.597872 52.68 
L 266.761923 52.68 
L 266.824541 60.916364 
L 267.169982 60.916364 
L 267.258675 69.152727 
L 267.747173 69.152727 
L 268.010405 77.389091 
L 268.258577 77.389091 
L 268.366236 69.152727 
L 268.520121 77.389091 
L 268.765096 77.389091 
L 268.898223 69.152727 
L 269.544122 69.152727 
L 269.722526 60.916364 
L 269.777462 60.916364 
L 269.92054 69.152727 
L 271.061659 69.152727 
L 271.160584 85.625455 
L 271.213953 93.861818 
L 272.423 93.861818 
L 272.44493 102.098182 
L 272.771201 110.334545 
L 272.789417 102.098182 
L 273.411937 102.098182 
L 273.445884 93.861818 
L 274.480106 93.861818 
L 274.623437 102.098182 
L 274.714504 110.334545 
L 275.239082 110.334545 
L 275.459784 118.570909 
L 275.614092 118.570909 
L 275.780029 110.334545 
L 276.028821 110.334545 
L 276.258944 102.098182 
L 276.285888 93.861818 
L 276.403173 93.861818 
L 276.421047 85.625455 
L 277.465892 85.625455 
L 277.546667 93.861818 
L 277.817909 93.861818 
L 277.971422 102.098182 
L 278.293283 102.098182 
L 278.524177 110.334545 
L 281.074762 110.334545 
L 281.31308 102.098182 
L 281.315106 93.861818 
L 282.266444 93.861818 
L 282.502147 102.098182 
L 282.893648 93.861818 
L 283.26949 102.098182 
L 283.764447 110.334545 
L 284.11623 110.334545 
L 284.179194 102.098182 
L 284.401178 102.098182 
L 284.474232 93.861818 
L 284.536539 102.098182 
L 284.588246 93.861818 
L 284.909536 102.098182 
L 285.316952 102.098182 
L 285.330819 93.861818 
L 286.345717 93.861818 
L 286.491532 102.098182 
L 287.275777 110.334545 
L 288.649618 110.334545 
L 288.714338 102.098182 
L 288.912455 110.334545 
L 289.121333 110.334545 
L 289.15603 102.098182 
L 289.563743 102.098182 
L 289.575971 93.861818 
L 291.375176 93.861818 
L 291.449131 85.625455 
L 292.066468 85.625455 
L 292.13266 93.861818 
L 292.334435 93.861818 
L 292.42055 85.625455 
L 292.614541 85.625455 
L 292.832752 77.389091 
L 292.93475 85.625455 
L 294.408868 85.625455 
L 294.536642 93.861818 
L 294.751112 85.625455 
L 295.877592 85.625455 
L 295.908127 93.861818 
L 295.958633 85.625455 
L 296.099728 85.625455 
L 296.337159 93.861818 
L 296.713104 93.861818 
L 296.820189 85.625455 
L 296.8959 93.861818 
L 297.95201 93.861818 
L 298.208732 85.625455 
L 298.521002 85.625455 
L 298.679656 93.861818 
L 298.922734 85.625455 
L 300.19198 85.625455 
L 300.565883 93.861818 
L 300.904089 85.625455 
L 301.093367 85.625455 
L 301.30129 77.389091 
L 301.937251 77.389091 
L 302.769414 85.625455 
L 303.247638 93.861818 
L 304.601815 93.861818 
L 304.729847 85.625455 
L 305.159755 85.625455 
L 305.215734 77.389091 
L 305.565491 77.389091 
L 305.636798 85.625455 
L 305.699704 77.389091 
L 306.156022 77.389091 
L 306.263454 69.152727 
L 306.908704 69.152727 
L 306.98665 60.916364 
L 307.30951 69.152727 
L 307.391294 77.389091 
L 307.716638 77.389091 
L 307.883961 69.152727 
L 309.414508 69.152727 
L 309.588531 60.916364 
L 310.332618 60.916364 
L 311.933569 69.152727 
L 312.601695 77.389091 
L 313.047258 85.625455 
L 313.452514 77.389091 
L 313.930935 77.389091 
L 313.943985 69.152727 
L 313.952165 77.389091 
L 314.580141 85.625455 
L 314.584095 93.861818 
L 314.772904 102.098182 
L 315.868797 102.098182 
L 316.088542 93.861818 
L 317.264561 93.861818 
L 317.379382 110.334545 
L 319.449042 110.334545 
L 319.47394 118.570909 
L 320.056105 118.570909 
L 320.620006 126.807273 
L 320.826379 135.043636 
L 321.5639 135.043636 
L 321.995589 143.28 
L 322.697337 143.28 
L 322.818631 126.807273 
L 323.368974 126.807273 
L 323.379069 118.570909 
L 323.608463 110.334545 
L 325.18064 110.334545 
L 325.415397 118.570909 
L 327.116755 126.807273 
L 327.309551 118.570909 
L 327.657319 118.570909 
L 327.693685 126.807273 
L 328.142447 135.043636 
L 328.213132 126.807273 
L 329.081101 126.807273 
L 329.598598 135.043636 
L 329.885175 135.043636 
L 329.89612 143.28 
L 333.076877 143.28 
L 333.199164 135.043636 
L 334.124663 135.043636 
L 334.286212 143.28 
L 335.921053 143.28 
L 335.921362 135.043636 
L 338.054979 135.043636 
L 338.25441 143.28 
L 340.287443 143.28 
L 340.350749 151.516364 
L 340.982406 151.516364 
L 341.013261 159.752727 
L 341.467605 151.516364 
L 342.703989 151.516364 
L 342.797094 159.752727 
L 343.07966 151.516364 
L 348.538495 151.516364 
L 348.653432 159.752727 
L 349.386451 159.752727 
L 350.74017 167.989091 
L 351.890777 167.989091 
L 352.018457 176.225455 
L 352.28602 167.989091 
L 352.295341 159.752727 
L 353.304257 167.989091 
L 353.647101 176.225455 
L 353.712597 176.225455 
L 353.724529 167.989091 
L 354.125858 167.989091 
L 354.562075 159.752727 
L 354.569568 151.516364 
L 354.72604 151.516364 
L 354.879531 167.989091 
L 355.073225 167.989091 
L 355.267985 159.752727 
L 355.796619 159.752727 
L 355.938699 167.989091 
L 357.272994 167.989091 
L 357.430735 159.752727 
L 357.551269 159.752727 
L 357.660789 151.516364 
L 357.973596 143.28 
L 358.79442 143.28 
L 358.929787 151.516364 
L 360.268487 151.516364 
L 360.357697 143.28 
L 360.487765 143.28 
L 360.659886 151.516364 
L 360.772917 151.516364 
L 360.873939 159.752727 
L 361.192718 151.516364 
L 361.46098 151.516364 
L 361.895107 159.752727 
L 361.938742 167.989091 
L 362.584211 167.989091 
L 363.046237 159.752727 
L 363.129319 151.516364 
L 363.689336 151.516364 
L 363.737871 159.752727 
L 364.307494 159.752727 
L 364.435628 151.516364 
L 364.732966 159.752727 
L 365.441362 167.989091 
L 365.767107 167.989091 
L 365.992645 176.225455 
L 366.94938 176.225455 
L 366.987919 167.989091 
L 367.254357 167.989091 
L 367.642687 159.752727 
L 367.805393 151.516364 
L 368.948464 151.516364 
L 369.057936 143.28 
L 369.607132 135.043636 
L 371.117695 135.043636 
L 371.444189 118.570909 
L 371.528788 126.807273 
L 371.776158 135.043636 
L 372.915811 135.043636 
L 372.990958 143.28 
L 373.311814 143.28 
L 373.377565 135.043636 
L 373.911233 126.807273 
L 374.424589 126.807273 
L 374.910045 118.570909 
L 374.976128 126.807273 
L 375.405605 135.043636 
L 375.453197 143.28 
L 375.65804 135.043636 
L 375.925151 135.043636 
L 376.140501 143.28 
L 376.341403 143.28 
L 376.355163 135.043636 
L 377.297043 143.28 
L 377.532785 143.28 
L 377.589548 135.043636 
L 377.739957 143.28 
L 377.92929 135.043636 
L 379.332744 135.043636 
L 379.336874 126.807273 
L 380.39037 135.043636 
L 381.017533 143.28 
L 382.699415 143.28 
L 383.070314 151.516364 
L 383.119724 159.752727 
L 384.140558 159.752727 
L 384.2606 151.516364 
L 385.00684 143.28 
L 385.093641 151.516364 
L 385.200329 151.516364 
L 385.213149 159.752727 
L 385.325802 159.752727 
L 385.59924 143.28 
L 385.984516 143.28 
L 387.167481 159.752727 
L 387.195361 167.989091 
L 387.633417 167.989091 
L 387.872617 159.752727 
L 387.885148 151.516364 
L 388.121829 151.516364 
L 388.39567 159.752727 
L 388.53882 167.989091 
L 388.609148 159.752727 
L 391.188653 159.752727 
L 391.205105 167.989091 
L 391.242262 159.752727 
L 391.733426 167.989091 
L 392.831148 167.989091 
L 392.865665 176.225455 
L 393.496668 184.461818 
L 393.728552 184.461818 
L 394.155033 176.225455 
L 394.660613 184.461818 
L 394.894671 184.461818 
L 394.907692 192.698182 
L 395.287764 176.225455 
L 395.713906 167.989091 
L 396.03499 167.989091 
L 396.078166 159.752727 
L 396.184847 167.989091 
L 396.818502 167.989091 
L 396.912958 176.225455 
L 397.152763 167.989091 
L 398.09499 167.989091 
L 398.348993 176.225455 
L 399.84953 176.225455 
L 399.948621 184.461818 
L 402.412625 184.461818 
L 402.473501 192.698182 
L 402.942847 192.698182 
L 402.985177 200.934545 
L 403.533246 209.170909 
L 404.198062 209.170909 
L 406.143643 217.407273 
L 407.921814 217.407273 
L 408.271228 225.643636 
L 408.497809 225.643636 
L 408.633453 217.407273 
L 408.828687 217.407273 
L 408.869487 225.643636 
L 409.312552 217.407273 
L 409.496115 217.407273 
L 409.585326 209.170909 
L 409.698499 209.170909 
L 409.701163 217.407273 
L 410.524382 217.407273 
L 410.747895 225.643636 
L 412.986523 225.643636 
L 413.208284 217.407273 
L 413.700168 217.407273 
L 413.966505 225.643636 
L 413.993661 233.88 
L 414.075274 225.643636 
L 414.095563 225.643636 
L 414.176651 233.88 
L 414.798493 233.88 
L 414.878899 225.643636 
L 415.078055 217.407273 
L 415.849931 217.407273 
L 415.943042 209.170909 
L 417.186571 209.170909 
L 417.324238 217.407273 
L 418.094379 217.407273 
L 418.339385 200.934545 
L 419.565236 200.934545 
L 420.173091 192.698182 
L 421.133059 192.698182 
L 421.206032 200.934545 
L 422.555155 200.934545 
L 422.917229 217.407273 
L 423.030324 209.170909 
L 423.36578 209.170909 
L 423.443916 200.934545 
L 423.801815 200.934545 
L 423.876326 192.698182 
L 425.139186 200.934545 
L 426.0421 200.934545 
L 426.084354 192.698182 
L 426.273704 192.698182 
L 426.295644 184.461818 
L 428.053645 184.461818 
L 428.675612 192.698182 
L 429.062999 200.934545 
L 429.5554 192.698182 
L 429.627982 192.698182 
L 429.66347 184.461818 
L 429.812539 192.698182 
L 430.213878 192.698182 
L 430.727101 200.934545 
L 431.189077 200.934545 
L 431.786195 209.170909 
L 432.260779 209.170909 
L 432.671582 217.407273 
L 432.857409 217.407273 
L 432.97244 209.170909 
L 433.517941 217.407273 
L 433.930936 217.407273 
L 434.002102 225.643636 
L 434.40956 225.643636 
L 434.502979 217.407273 
L 436.633607 217.407273 
L 436.743836 200.934545 
L 437.995594 200.934545 
L 438.063779 192.698182 
L 439.05748 192.698182 
L 439.223156 184.461818 
L 439.281753 192.698182 
L 439.738704 192.698182 
L 440.037384 200.934545 
L 441.064493 200.934545 
L 441.13803 209.170909 
L 441.380687 209.170909 
L 441.635881 200.934545 
L 442.199645 200.934545 
L 442.307993 192.698182 
L 442.739787 192.698182 
L 442.780303 184.461818 
L 444.443612 184.461818 
L 444.717536 176.225455 
L 444.759819 176.225455 
L 444.78547 184.461818 
L 445.157278 184.461818 
L 445.393679 192.698182 
L 445.593191 184.461818 
L 445.666926 192.698182 
L 447.298126 200.934545 
L 447.305772 209.170909 
L 447.476124 209.170909 
L 447.925975 200.934545 
L 447.964428 209.170909 
L 448.014914 200.934545 
L 448.293283 209.170909 
L 449.398875 209.170909 
L 449.637703 217.407273 
L 449.753998 225.643636 
L 450.206509 233.88 
L 450.43693 233.88 
L 450.777567 225.643636 
L 451.132262 233.88 
L 451.179697 242.116364 
L 453.907924 242.116364 
L 454.311621 233.88 
L 454.782748 233.88 
L 454.882111 242.116364 
L 458.790205 242.116364 
L 458.863312 233.88 
L 459.233622 233.88 
L 459.851607 225.643636 
L 459.961315 217.407273 
L 461.347249 217.407273 
L 461.69286 209.170909 
L 461.850158 217.407273 
L 461.941118 209.170909 
L 462.404033 209.170909 
L 462.409724 217.407273 
L 463.105101 217.407273 
L 463.212088 225.643636 
L 466.388121 225.643636 
L 466.594864 217.407273 
L 466.744951 217.407273 
L 467.115795 225.643636 
L 467.618485 225.643636 
L 468.912361 233.88 
L 470.536852 233.88 
L 470.646806 242.116364 
L 470.772943 233.88 
L 471.379778 225.643636 
L 472.064603 242.116364 
L 473.405867 242.116364 
L 473.431546 233.88 
L 473.57916 225.643636 
L 474.328693 233.88 
L 474.992944 233.88 
L 475.139793 225.643636 
L 475.280424 225.643636 
L 476.534645 233.88 
L 477.257575 242.116364 
L 481.269824 242.116364 
L 481.308384 233.88 
L 481.697578 233.88 
L 481.711282 242.116364 
L 481.845308 233.88 
L 483.477583 233.88 
L 483.588266 225.643636 
L 483.998532 233.88 
L 484.319631 233.88 
L 484.418962 242.116364 
L 484.483226 233.88 
L 484.740661 233.88 
L 485.510468 242.116364 
L 488.10803 242.116364 
L 488.131142 233.88 
L 488.29916 233.88 
L 490.558304 242.116364 
L 491.870803 242.116364 
L 492.197496 233.88 
L 492.752724 242.116364 
L 492.98862 242.116364 
L 493.709018 233.88 
L 493.838528 225.643636 
L 494.353468 225.643636 
L 494.394237 217.407273 
L 494.563754 217.407273 
L 495.211299 225.643636 
L 495.454124 233.88 
L 495.746782 225.643636 
L 495.804173 233.88 
L 497.32689 242.116364 
L 500.290988 242.116364 
L 500.914488 233.88 
L 501.153033 233.88 
L 501.921882 242.116364 
L 503.796165 242.116364 
L 504.188288 225.643636 
L 504.203363 233.88 
L 504.605452 233.88 
L 504.812927 225.643636 
L 505.357485 225.643636 
L 506.297425 233.88 
L 506.699901 233.88 
L 506.915463 225.643636 
L 507.399968 225.643636 
L 507.618247 217.407273 
L 508.075086 217.407273 
L 508.159015 225.643636 
L 509.70625 225.643636 
L 510.779161 233.88 
L 512.466458 233.88 
L 512.498575 242.116364 
L 512.539222 233.88 
L 512.71127 242.116364 
L 513.055575 242.116364 
L 513.074027 233.88 
L 513.615088 233.88 
L 514.066672 225.643636 
L 514.383024 225.643636 
L 514.481311 217.407273 
L 514.918441 217.407273 
L 514.94172 209.170909 
L 515.774413 209.170909 
L 515.953819 200.934545 
L 516.499029 200.934545 
L 516.551868 192.698182 
L 518.155385 192.698182 
L 518.491096 209.170909 
L 518.847262 209.170909 
L 518.897335 200.934545 
L 519.074153 192.698182 
L 519.264965 192.698182 
L 519.339212 184.461818 
L 520.172407 192.698182 
L 521.362317 192.698182 
L 521.461551 200.934545 
L 523.692629 200.934545 
L 523.813855 209.170909 
L 523.8894 200.934545 
L 524.331274 200.934545 
L 524.518301 192.698182 
L 524.534934 200.934545 
L 524.82014 209.170909 
L 525.04831 217.407273 
L 525.257342 217.407273 
L 525.334323 225.643636 
L 525.528612 217.407273 
L 525.593961 225.643636 
L 526.161137 233.88 
L 526.635886 225.643636 
L 527.928242 225.643636 
L 528.0511 217.407273 
L 528.280836 225.643636 
L 528.576977 217.407273 
L 528.714482 209.170909 
L 528.914548 217.407273 
L 529.622036 217.407273 
L 529.820674 209.170909 
L 530.021854 217.407273 
L 530.450308 217.407273 
L 530.605597 209.170909 
L 530.932506 209.170909 
L 531.013084 217.407273 
L 531.326049 217.407273 
L 531.92758 209.170909 
L 532.106443 217.407273 
L 534.962453 217.407273 
L 535.020347 225.643636 
L 535.277866 233.88 
L 535.557801 233.88 
L 535.635001 242.116364 
L 541.068645 242.116364 
L 541.579212 233.88 
L 542.202008 233.88 
L 542.757804 225.643636 
L 543.328109 225.643636 
L 543.46315 233.88 
L 543.601145 233.88 
L 543.90838 242.116364 
L 544.440163 242.116364 
L 544.481442 233.88 
L 545.058632 242.116364 
L 545.577915 242.116364 
L 545.692398 233.88 
L 546.324005 242.116364 
L 546.882902 242.116364 
L 547.146571 233.88 
L 547.821455 242.116364 
L 552.947899 242.116364 
L 553.278103 233.88 
L 555.108708 233.88 
L 555.212093 225.643636 
L 555.330543 225.643636 
L 555.333295 217.407273 
L 556.553695 217.407273 
L 556.769313 209.170909 
L 556.892311 209.170909 
L 557.011277 200.934545 
L 557.158715 209.170909 
L 557.54737 209.170909 
L 557.567052 200.934545 
L 558.025683 200.934545 
L 558.254791 209.170909 
L 558.408471 217.407273 
L 558.555904 209.170909 
L 558.801676 209.170909 
L 558.860244 217.407273 
L 558.970702 217.407273 
L 559.162047 225.643636 
L 559.205116 217.407273 
L 559.36644 225.643636 
L 559.979814 225.643636 
L 559.980643 233.88 
L 560.213239 233.88 
L 560.608546 242.116364 
L 561.201962 242.116364 
L 561.324729 233.88 
L 561.889556 233.88 
L 562.037078 225.643636 
L 563.230409 233.88 
L 564.141813 242.116364 
L 564.829575 242.116364 
L 564.919132 233.88 
L 565.15007 225.643636 
L 565.162587 217.407273 
L 565.626924 217.407273 
L 565.86581 225.643636 
L 566.345833 225.643636 
L 566.34623 217.407273 
L 566.669936 217.407273 
L 566.695302 225.643636 
L 567.735946 225.643636 
L 568.308204 217.407273 
L 568.918248 217.407273 
L 569.464162 225.643636 
L 569.69286 233.88 
L 569.926883 233.88 
L 570.030258 225.643636 
L 570.310411 233.88 
L 571.907393 233.88 
L 573.419083 242.116364 
L 578.328519 242.116364 
L 578.488017 233.88 
L 578.801286 233.88 
L 579.02732 242.116364 
L 580.527585 242.116364 
L 581.137528 233.88 
L 581.501604 233.88 
L 581.735845 225.643636 
L 582.410236 233.88 
L 583.671696 233.88 
L 583.861213 225.643636 
L 584.077936 225.643636 
L 584.236963 217.407273 
L 585.077466 217.407273 
L 585.646511 225.643636 
L 585.782727 225.643636 
L 586.033056 242.116364 
L 586.403115 233.88 
L 586.551212 233.88 
L 587.237052 225.643636 
L 587.809928 233.88 
L 588.024453 233.88 
L 588.315192 225.643636 
L 588.647532 225.643636 
L 589.385659 217.407273 
L 590.182136 217.407273 
L 590.336516 225.643636 
L 590.994612 225.643636 
L 592.319557 233.88 
L 593.428228 242.116364 
L 596.656984 242.116364 
L 596.686206 233.88 
L 596.860614 242.116364 
L 600.113226 242.116364 
L 600.245895 233.88 
L 600.39998 233.88 
L 600.701261 242.116364 
L 603.50194 242.116364 
L 603.563132 233.88 
L 604.542697 242.116364 
L 605.160594 242.116364 
L 605.263297 233.88 
L 606.446058 233.88 
L 606.782492 242.116364 
L 606.924036 233.88 
L 607.120531 242.116364 
L 607.461655 242.116364 
L 607.532353 233.88 
L 607.704961 242.116364 
L 608.149647 242.116364 
L 608.378207 233.88 
L 608.76098 233.88 
L 608.802986 242.116364 
L 609.692274 242.116364 
L 609.767127 233.88 
L 610.30437 233.88 
L 610.364802 242.116364 
L 611.24343 233.88 
L 612.125273 233.88 
L 612.508389 225.643636 
L 612.889215 225.643636 
L 613.672783 233.88 
L 614.029132 233.88 
L 614.369747 242.116364 
L 614.614133 242.116364 
L 614.740604 225.643636 
L 615.456029 233.88 
L 616.294952 233.88 
L 616.366265 242.116364 
L 618.985231 242.116364 
L 619.052929 233.88 
L 619.169459 242.116364 
L 619.604229 242.116364 
L 619.660227 233.88 
L 620.480791 233.88 
L 620.818452 242.116364 
L 622.058371 242.116364 
L 622.103428 233.88 
L 622.336719 242.116364 
L 625.188608 242.116364 
L 625.317667 233.88 
L 626.304018 233.88 
L 626.630277 242.116364 
L 627.301969 242.116364 
L 627.506508 233.88 
L 628.189385 233.88 
L 628.217672 225.643636 
L 628.290624 233.88 
L 628.601157 233.88 
L 628.619449 217.407273 
L 629.079644 217.407273 
L 629.438047 225.643636 
L 629.637744 233.88 
L 630.359018 233.88 
L 630.538322 242.116364 
L 630.877574 242.116364 
L 630.931212 233.88 
L 631.866568 242.116364 
L 632.566718 242.116364 
L 632.672516 233.88 
L 633.358701 233.88 
L 633.64182 242.116364 
L 635.47026 242.116364 
L 635.756245 233.88 
L 635.987262 225.643636 
L 636.272048 225.643636 
L 636.310971 217.407273 
L 638.957612 217.407273 
L 639.073349 225.643636 
L 640.078942 225.643636 
L 640.507064 233.88 
L 640.560621 233.88 
L 640.810187 225.643636 
L 642.079497 225.643636 
L 642.463493 217.407273 
L 642.586782 217.407273 
L 642.619825 233.88 
L 642.73759 225.643636 
L 643.074511 233.88 
L 644.077163 233.88 
L 645.026093 242.116364 
L 648.391031 242.116364 
L 648.573048 233.88 
L 648.739119 233.88 
L 649.331676 242.116364 
L 650.034408 242.116364 
L 650.18314 233.88 
L 650.819469 233.88 
L 650.921801 225.643636 
L 652.014485 225.643636 
L 652.20116 242.116364 
L 652.235624 233.88 
L 652.571224 233.88 
L 652.765089 225.643636 
L 653.122869 233.88 
L 653.593655 233.88 
L 654.038364 242.116364 
L 654.068539 242.116364 
L 654.07361 233.88 
L 654.369976 225.643636 
L 654.63626 225.643636 
L 654.830305 217.407273 
L 657.059429 217.407273 
L 657.396148 225.643636 
L 657.441073 225.643636 
L 657.714282 233.88 
L 657.907561 233.88 
L 658.106212 217.407273 
L 658.443413 209.170909 
L 658.579511 217.407273 
L 658.717048 200.934545 
L 659.351064 200.934545 
L 659.365626 192.698182 
L 661.388842 192.698182 
L 661.646587 184.461818 
L 662.015272 184.461818 
L 662.099119 192.698182 
L 662.381067 184.461818 
L 662.475275 192.698182 
L 662.656076 184.461818 
L 663.005816 184.461818 
L 663.057698 192.698182 
L 663.276671 184.461818 
L 664.228515 192.698182 
L 665.084806 192.698182 
L 665.141985 200.934545 
L 665.688506 200.934545 
L 666.335844 192.698182 
L 666.788237 192.698182 
L 666.909407 209.170909 
L 667.489868 209.170909 
L 667.496337 200.934545 
L 667.685388 209.170909 
L 668.530201 209.170909 
L 668.774597 200.934545 
L 669.45417 209.170909 
L 669.645835 200.934545 
L 670.021671 209.170909 
L 670.036879 217.407273 
L 671.099504 225.643636 
L 671.263956 233.88 
L 673.264313 233.88 
L 673.742463 225.643636 
L 674.382248 225.643636 
L 674.412453 217.407273 
L 676.841399 217.407273 
L 677.320192 225.643636 
L 679.979008 225.643636 
L 680.172214 217.407273 
L 680.33046 217.407273 
L 681.121915 209.170909 
L 681.133481 200.934545 
L 681.5623 200.934545 
L 681.583041 192.698182 
L 681.758132 192.698182 
L 681.922683 184.461818 
L 681.951809 192.698182 
L 682.584734 192.698182 
L 682.594636 184.461818 
L 682.82423 192.698182 
L 684.111752 192.698182 
L 684.171992 200.934545 
L 684.719054 192.698182 
L 684.888778 200.934545 
L 685.317834 200.934545 
L 685.625615 209.170909 
L 685.994465 209.170909 
L 686.253514 200.934545 
L 686.750632 192.698182 
L 686.873448 184.461818 
L 688.295191 184.461818 
L 688.514586 192.698182 
L 689.372462 192.698182 
L 689.613568 176.225455 
L 691.145 184.461818 
L 691.243636 200.934545 
L 692.127049 200.934545 
L 692.220028 192.698182 
L 692.743553 192.698182 
L 692.916294 184.461818 
L 693.832763 184.461818 
L 693.968291 192.698182 
L 696.125074 192.698182 
L 696.287377 200.934545 
L 696.45053 200.934545 
L 696.49736 209.170909 
L 696.74495 192.698182 
L 697.390237 192.698182 
L 697.530327 184.461818 
L 698.350324 184.461818 
L 698.404106 192.698182 
L 699.148202 192.698182 
L 699.760453 200.934545 
L 700.621374 200.934545 
L 700.651805 192.698182 
L 701.821627 192.698182 
L 701.981641 184.461818 
L 703.441125 184.461818 
L 703.74838 176.225455 
L 704.711985 176.225455 
L 705.218807 184.461818 
L 706.37553 184.461818 
L 706.447548 192.698182 
L 706.976071 184.461818 
L 707.771816 184.461818 
L 708.012793 192.698182 
L 708.077921 184.461818 
L 708.250738 192.698182 
L 708.332824 184.461818 
L 708.468664 184.461818 
L 709.392598 192.698182 
L 709.699653 192.698182 
L 709.767342 184.461818 
L 710.752932 184.461818 
L 710.832333 192.698182 
L 710.937194 184.461818 
L 711.643541 184.461818 
L 711.767697 176.225455 
L 711.836628 184.461818 
L 713.455551 184.461818 
L 713.709576 192.698182 
L 714.315235 192.698182 
L 714.530556 184.461818 
L 716.31682 184.461818 
L 716.641522 192.698182 
L 716.827182 176.225455 
L 717.367566 184.461818 
L 720.439142 184.461818 
L 721.176311 176.225455 
L 721.491359 176.225455 
L 721.639117 167.989091 
L 722.055484 167.989091 
L 722.644304 151.516364 
L 722.865868 143.28 
L 725.036321 143.28 
L 725.38294 135.043636 
L 726.830583 143.28 
L 726.944219 151.516364 
L 728.835995 151.516364 
L 729.025012 159.752727 
L 729.206259 151.516364 
L 729.236043 159.752727 
L 729.449176 151.516364 
L 729.698683 151.516364 
L 729.703065 159.752727 
L 729.740654 151.516364 
L 730.023729 151.516364 
L 730.184445 159.752727 
L 731.768442 167.989091 
L 731.90381 176.225455 
L 732.23313 176.225455 
L 732.76153 184.461818 
L 733.530496 184.461818 
L 733.644427 176.225455 
L 734.728261 176.225455 
L 734.767368 159.752727 
L 735.027056 151.516364 
L 737.534035 151.516364 
L 737.561876 143.28 
L 738.83017 143.28 
L 738.869007 151.516364 
L 739.048235 151.516364 
L 739.278534 143.28 
L 739.645336 143.28 
L 739.686942 151.516364 
L 739.718665 143.28 
L 740.057219 143.28 
L 740.080839 151.516364 
L 740.280294 159.752727 
L 741.773361 159.752727 
L 741.88658 143.28 
L 741.940513 143.28 
L 742.386591 151.516364 
L 743.229306 151.516364 
L 743.477742 135.043636 
L 743.901352 135.043636 
L 744.01709 126.807273 
L 744.237861 126.807273 
L 744.450439 135.043636 
L 744.600469 126.807273 
L 745.114255 118.570909 
L 746.120098 118.570909 
L 746.255733 126.807273 
L 746.368638 126.807273 
L 746.611135 135.043636 
L 746.645187 126.807273 
L 747.163636 126.807273 
L 747.163636 126.807273 
" style="fill:none;stroke:#1f77b4;stroke-linecap:square;stroke-width:1.5;"/>
   </g>
   <g id="line2d_17">
    <path clip-path="url(#p588a9d0262)" d="M 138.436364 242.116364 
L 140.268805 242.116364 
L 140.28536 233.88 
L 140.496987 233.88 
L 140.763694 225.643636 
L 141.265151 225.643636 
L 141.743222 233.88 
L 142.058354 242.116364 
L 143.048429 242.116364 
L 144.313967 233.88 
L 144.63915 242.116364 
L 144.712607 233.88 
L 145.320797 242.116364 
L 146.058618 242.116364 
L 146.090949 233.88 
L 148.025741 233.88 
L 148.512542 242.116364 
L 148.537535 242.116364 
L 148.90005 233.88 
L 148.901061 242.116364 
L 153.234016 242.116364 
L 153.351515 233.88 
L 153.461435 242.116364 
L 153.774046 242.116364 
L 154.018135 233.88 
L 154.707726 233.88 
L 154.944449 225.643636 
L 155.621614 233.88 
L 156.464801 242.116364 
L 158.90047 242.116364 
L 159.538223 233.88 
L 161.449056 233.88 
L 161.638044 225.643636 
L 161.712798 233.88 
L 161.736267 225.643636 
L 162.505682 225.643636 
L 162.513718 217.407273 
L 162.696134 209.170909 
L 163.301826 217.407273 
L 165.984001 217.407273 
L 166.186989 209.170909 
L 168.273029 209.170909 
L 168.621075 217.407273 
L 169.339324 217.407273 
L 169.433039 225.643636 
L 169.921115 225.643636 
L 170.07285 217.407273 
L 170.334174 217.407273 
L 170.519409 225.643636 
L 170.688611 225.643636 
L 170.805993 217.407273 
L 172.910912 217.407273 
L 173.100928 209.170909 
L 173.401085 184.461818 
L 174.226539 184.461818 
L 174.268138 192.698182 
L 175.580554 192.698182 
L 175.643836 184.461818 
L 176.439262 184.461818 
L 176.659033 176.225455 
L 177.425755 176.225455 
L 177.502347 184.461818 
L 177.754547 184.461818 
L 178.285129 192.698182 
L 178.675649 200.934545 
L 178.776086 209.170909 
L 178.884766 209.170909 
L 178.988181 200.934545 
L 181.073912 200.934545 
L 181.21886 192.698182 
L 182.14182 209.170909 
L 182.355402 209.170909 
L 182.696498 217.407273 
L 182.990599 217.407273 
L 183.14535 209.170909 
L 183.147287 217.407273 
L 183.348826 209.170909 
L 183.891233 209.170909 
L 184.057817 200.934545 
L 184.488003 209.170909 
L 184.691264 217.407273 
L 189.765833 217.407273 
L 189.952197 192.698182 
L 191.079657 192.698182 
L 191.196412 184.461818 
L 191.516875 184.461818 
L 192.091374 200.934545 
L 192.148737 217.407273 
L 192.37754 217.407273 
L 192.626478 209.170909 
L 193.236323 217.407273 
L 194.607339 217.407273 
L 194.620411 209.170909 
L 195.526849 217.407273 
L 195.660388 217.407273 
L 196.039937 209.170909 
L 196.984375 225.643636 
L 197.713525 225.643636 
L 197.719268 233.88 
L 198.1084 242.116364 
L 199.073708 242.116364 
L 199.086525 233.88 
L 199.362956 233.88 
L 199.411909 242.116364 
L 199.853165 242.116364 
L 200.003904 233.88 
L 200.167071 233.88 
L 200.390269 242.116364 
L 202.821848 242.116364 
L 202.931322 233.88 
L 203.83244 233.88 
L 204.24291 225.643636 
L 204.726642 225.643636 
L 205.384198 233.88 
L 205.633375 233.88 
L 205.970218 242.116364 
L 207.424904 242.116364 
L 207.509891 233.88 
L 208.08176 242.116364 
L 208.220581 233.88 
L 208.341087 242.116364 
L 211.384283 242.116364 
L 211.542896 233.88 
L 212.182848 233.88 
L 212.19399 242.116364 
L 213.846337 242.116364 
L 213.944967 233.88 
L 214.538903 233.88 
L 214.643339 225.643636 
L 214.904761 225.643636 
L 214.930645 217.407273 
L 215.549529 217.407273 
L 215.621515 242.116364 
L 215.627206 233.88 
L 215.70649 233.88 
L 215.829194 225.643636 
L 216.009261 233.88 
L 216.511952 233.88 
L 216.896234 225.643636 
L 217.381524 217.407273 
L 217.976198 217.407273 
L 218.209712 209.170909 
L 218.211506 217.407273 
L 218.67133 217.407273 
L 218.838033 225.643636 
L 219.045959 225.643636 
L 219.148224 217.407273 
L 219.474145 217.407273 
L 219.86958 233.88 
L 220.497352 233.88 
L 220.549038 242.116364 
L 220.592574 233.88 
L 220.696666 233.88 
L 221.085942 242.116364 
L 222.149331 242.116364 
L 222.375058 233.88 
L 222.407025 242.116364 
L 222.700602 233.88 
L 222.908922 233.88 
L 223.678827 242.116364 
L 225.127807 242.116364 
L 225.13786 233.88 
L 225.243766 242.116364 
L 226.183594 242.116364 
L 226.696832 233.88 
L 227.458742 233.88 
L 227.499181 225.643636 
L 227.536488 233.88 
L 228.332478 233.88 
L 228.392363 225.643636 
L 229.015577 233.88 
L 230.181398 233.88 
L 230.529435 225.643636 
L 230.976386 233.88 
L 231.54954 233.88 
L 232.441721 242.116364 
L 233.794304 242.116364 
L 233.997126 233.88 
L 235.04244 242.116364 
L 235.741244 242.116364 
L 235.815978 233.88 
L 236.856367 233.88 
L 236.898104 225.643636 
L 237.252978 233.88 
L 237.36469 233.88 
L 237.396517 225.643636 
L 237.764372 233.88 
L 237.794053 242.116364 
L 243.502098 242.116364 
L 243.571899 233.88 
L 243.697037 242.116364 
L 248.785318 242.116364 
L 249.048956 233.88 
L 250.074366 233.88 
L 252.001579 242.116364 
L 253.266223 242.116364 
L 253.578906 233.88 
L 253.622132 233.88 
L 253.816416 225.643636 
L 253.992295 233.88 
L 254.725016 233.88 
L 254.956806 242.116364 
L 255.655201 242.116364 
L 255.849098 233.88 
L 256.157801 242.116364 
L 256.334082 233.88 
L 257.310287 233.88 
L 257.443409 242.116364 
L 258.089556 242.116364 
L 258.136408 233.88 
L 258.563636 233.88 
L 258.633969 225.643636 
L 258.764912 233.88 
L 260.077928 233.88 
L 260.158247 242.116364 
L 260.451122 233.88 
L 261.695809 233.88 
L 261.809937 242.116364 
L 263.295156 242.116364 
L 263.385468 233.88 
L 263.863825 233.88 
L 263.896607 242.116364 
L 264.085551 242.116364 
L 264.514254 233.88 
L 264.548612 242.116364 
L 266.824541 242.116364 
L 267.416749 225.643636 
L 267.574087 217.407273 
L 268.010405 217.407273 
L 268.095926 225.643636 
L 268.219921 217.407273 
L 268.366236 225.643636 
L 268.898223 225.643636 
L 269.10975 233.88 
L 269.613801 233.88 
L 269.722526 225.643636 
L 269.777462 242.116364 
L 270.348057 242.116364 
L 270.35594 233.88 
L 270.365613 242.116364 
L 270.886092 242.116364 
L 271.160584 233.88 
L 271.213953 233.88 
L 271.474282 225.643636 
L 272.114126 233.88 
L 273.882434 233.88 
L 273.938551 225.643636 
L 274.07952 233.88 
L 274.299498 233.88 
L 274.538888 225.643636 
L 274.714504 233.88 
L 275.713504 233.88 
L 275.780029 225.643636 
L 276.421047 225.643636 
L 276.919696 233.88 
L 277.177109 233.88 
L 277.546667 225.643636 
L 277.817909 233.88 
L 278.106551 233.88 
L 278.293283 225.643636 
L 278.867564 225.643636 
L 279.810266 217.407273 
L 279.816209 225.643636 
L 280.644153 233.88 
L 281.260959 233.88 
L 281.315106 242.116364 
L 281.785708 233.88 
L 282.122668 233.88 
L 282.266444 242.116364 
L 282.860762 242.116364 
L 282.893648 233.88 
L 284.179194 233.88 
L 284.466511 242.116364 
L 284.536539 233.88 
L 285.330819 233.88 
L 286.345717 242.116364 
L 287.388938 242.116364 
L 287.403751 233.88 
L 287.991195 242.116364 
L 289.15603 242.116364 
L 289.325621 233.88 
L 289.715227 233.88 
L 289.756977 225.643636 
L 291.008631 233.88 
L 291.275307 233.88 
L 291.449131 242.116364 
L 292.105984 242.116364 
L 292.13266 233.88 
L 292.366665 233.88 
L 292.42055 242.116364 
L 292.845931 242.116364 
L 292.93475 233.88 
L 293.347334 225.643636 
L 293.619795 225.643636 
L 293.624099 233.88 
L 293.659355 225.643636 
L 293.743885 233.88 
L 294.167074 242.116364 
L 295.543726 242.116364 
L 295.958633 233.88 
L 296.337159 233.88 
L 296.713104 225.643636 
L 296.818999 225.643636 
L 296.8959 242.116364 
L 297.362961 242.116364 
L 297.95201 233.88 
L 298.922734 233.88 
L 299.084509 242.116364 
L 299.810825 242.116364 
L 300.083175 233.88 
L 300.19198 242.116364 
L 300.904089 242.116364 
L 300.907962 233.88 
L 301.30129 233.88 
L 301.937251 242.116364 
L 303.42707 242.116364 
L 303.518442 233.88 
L 304.578336 233.88 
L 304.601815 225.643636 
L 304.729847 225.643636 
L 305.123973 217.407273 
L 305.215734 225.643636 
L 306.162794 225.643636 
L 306.263454 242.116364 
L 309.752027 242.116364 
L 309.873475 233.88 
L 310.332618 242.116364 
L 316.872768 242.116364 
L 316.994779 233.88 
L 317.35118 242.116364 
L 318.268951 242.116364 
L 318.325284 233.88 
L 318.500719 242.116364 
L 319.463776 242.116364 
L 319.47394 233.88 
L 320.056105 242.116364 
L 321.448949 242.116364 
L 321.537584 233.88 
L 321.5639 242.116364 
L 324.217295 242.116364 
L 324.311496 233.88 
L 324.568927 225.643636 
L 324.601267 233.88 
L 325.18064 242.116364 
L 327.309551 242.116364 
L 327.693685 233.88 
L 328.716227 233.88 
L 329.081101 242.116364 
L 329.598598 242.116364 
L 329.89612 233.88 
L 330.265594 242.116364 
L 332.107269 242.116364 
L 332.355315 225.643636 
L 334.286212 225.643636 
L 334.584399 233.88 
L 334.640899 225.643636 
L 334.758324 225.643636 
L 334.877146 217.407273 
L 335.013976 225.643636 
L 336.036579 225.643636 
L 336.077548 217.407273 
L 338.148302 217.407273 
L 338.25441 209.170909 
L 339.182979 217.407273 
L 340.313383 217.407273 
L 340.350749 209.170909 
L 340.851261 233.88 
L 340.893618 233.88 
L 341.013261 225.643636 
L 341.68984 225.643636 
L 341.79201 217.407273 
L 341.874988 225.643636 
L 343.006678 225.643636 
L 343.07966 233.88 
L 343.319818 233.88 
L 343.522917 217.407273 
L 344.572112 225.643636 
L 344.738259 225.643636 
L 345.330417 209.170909 
L 345.692546 209.170909 
L 345.979738 200.934545 
L 346.26604 200.934545 
L 346.32706 192.698182 
L 346.536368 184.461818 
L 346.62367 176.225455 
L 347.326863 192.698182 
L 347.404088 200.934545 
L 347.908224 192.698182 
L 347.970018 200.934545 
L 348.538495 209.170909 
L 349.012916 209.170909 
L 349.215389 217.407273 
L 349.384764 209.170909 
L 349.386451 217.407273 
L 351.648856 217.407273 
L 351.890777 225.643636 
L 353.27489 225.643636 
L 353.304257 233.88 
L 353.647101 233.88 
L 353.724529 225.643636 
L 354.569568 225.643636 
L 354.825621 233.88 
L 355.267985 233.88 
L 355.428061 242.116364 
L 355.436761 233.88 
L 355.796619 242.116364 
L 355.938699 242.116364 
L 356.321896 233.88 
L 356.628117 242.116364 
L 356.762668 233.88 
L 357.592076 233.88 
L 357.660789 242.116364 
L 358.929787 242.116364 
L 359.289341 233.88 
L 359.410911 233.88 
L 359.691667 242.116364 
L 360.148082 242.116364 
L 360.357697 225.643636 
L 360.487765 233.88 
L 361.192718 233.88 
L 361.46098 225.643636 
L 363.38019 225.643636 
L 363.433077 217.407273 
L 363.737871 217.407273 
L 363.886474 209.170909 
L 365.584127 209.170909 
L 365.767107 200.934545 
L 365.992645 200.934545 
L 366.704936 209.170909 
L 367.805393 209.170909 
L 368.586444 217.407273 
L 368.907613 217.407273 
L 368.948464 225.643636 
L 369.894673 225.643636 
L 369.911584 217.407273 
L 370.228576 217.407273 
L 370.330275 225.643636 
L 370.658832 217.407273 
L 371.101939 217.407273 
L 371.117695 225.643636 
L 371.240074 225.643636 
L 371.444189 242.116364 
L 372.347219 242.116364 
L 372.65954 233.88 
L 372.990958 233.88 
L 373.284923 225.643636 
L 373.377565 233.88 
L 373.911233 233.88 
L 374.305698 242.116364 
L 375.779013 242.116364 
L 375.925151 233.88 
L 376.053149 233.88 
L 376.093672 242.116364 
L 376.140501 233.88 
L 376.355163 225.643636 
L 377.92929 225.643636 
L 378.22359 233.88 
L 379.015773 242.116364 
L 384.053078 242.116364 
L 384.11505 233.88 
L 384.140558 242.116364 
L 385.024923 242.116364 
L 385.093641 233.88 
L 385.213149 242.116364 
L 385.325802 233.88 
L 385.59924 233.88 
L 385.87101 242.116364 
L 385.984516 233.88 
L 387.631795 233.88 
L 387.633417 242.116364 
L 390.67648 242.116364 
L 391.092676 233.88 
L 391.242262 225.643636 
L 393.403499 225.643636 
L 393.496668 233.88 
L 393.728552 225.643636 
L 394.660613 225.643636 
L 394.907692 233.88 
L 395.684206 233.88 
L 395.713906 242.116364 
L 396.899568 242.116364 
L 396.912958 233.88 
L 397.152763 233.88 
L 397.763182 242.116364 
L 397.834008 233.88 
L 397.960485 233.88 
L 398.09499 225.643636 
L 398.348993 225.643636 
L 399.460942 233.88 
L 399.587065 233.88 
L 399.625477 225.643636 
L 399.948621 233.88 
L 400.349954 242.116364 
L 402.473501 242.116364 
L 402.792349 233.88 
L 403.447405 233.88 
L 403.662841 217.407273 
L 403.97981 217.407273 
L 404.198062 209.170909 
L 406.655936 209.170909 
L 406.761506 217.407273 
L 407.096932 200.934545 
L 407.345129 200.934545 
L 407.519753 192.698182 
L 407.609509 192.698182 
L 407.921814 200.934545 
L 408.633453 200.934545 
L 408.869487 209.170909 
L 409.312552 209.170909 
L 409.585326 200.934545 
L 409.701163 200.934545 
L 410.153852 192.698182 
L 410.447148 200.934545 
L 410.524382 209.170909 
L 411.64833 209.170909 
L 411.704354 200.934545 
L 412.371526 209.170909 
L 414.176651 209.170909 
L 414.379204 217.407273 
L 414.729351 217.407273 
L 414.798493 209.170909 
L 415.882215 209.170909 
L 415.943042 200.934545 
L 416.638555 200.934545 
L 416.691497 192.698182 
L 417.051137 209.170909 
L 417.186571 225.643636 
L 417.324238 225.643636 
L 417.662162 233.88 
L 418.339385 233.88 
L 418.435332 242.116364 
L 420.889257 242.116364 
L 421.206032 233.88 
L 421.561908 225.643636 
L 421.774653 233.88 
L 422.397633 233.88 
L 422.555155 242.116364 
L 423.201451 242.116364 
L 423.238809 233.88 
L 423.315598 242.116364 
L 423.443916 233.88 
L 423.876326 242.116364 
L 425.436988 242.116364 
L 425.936602 233.88 
L 426.084354 233.88 
L 426.295644 242.116364 
L 427.190145 242.116364 
L 427.546766 233.88 
L 427.682333 225.643636 
L 427.936881 225.643636 
L 428.053645 233.88 
L 428.625882 233.88 
L 428.675612 242.116364 
L 429.470386 242.116364 
L 429.66347 233.88 
L 429.996826 233.88 
L 430.213878 242.116364 
L 430.727101 242.116364 
L 431.189077 233.88 
L 431.786195 233.88 
L 432.260779 242.116364 
L 434.002102 242.116364 
L 434.422133 233.88 
L 434.502979 242.116364 
L 437.946423 242.116364 
L 438.063779 225.643636 
L 439.263935 225.643636 
L 439.281753 233.88 
L 439.724854 225.643636 
L 439.738704 233.88 
L 439.99038 233.88 
L 440.016205 225.643636 
L 440.037384 233.88 
L 440.550761 225.643636 
L 441.099922 225.643636 
L 441.13803 233.88 
L 441.380687 225.643636 
L 441.635881 225.643636 
L 441.895217 217.407273 
L 442.268247 217.407273 
L 442.414152 233.88 
L 444.628444 233.88 
L 444.78547 242.116364 
L 444.904075 233.88 
L 445.157278 242.116364 
L 448.416799 242.116364 
L 448.695485 233.88 
L 449.398875 242.116364 
L 452.662396 242.116364 
L 453.28394 233.88 
L 453.907924 242.116364 
L 454.311621 242.116364 
L 454.882111 233.88 
L 455.544326 233.88 
L 455.893394 225.643636 
L 456.104701 225.643636 
L 456.166342 217.407273 
L 456.863855 225.643636 
L 457.723029 233.88 
L 458.058016 233.88 
L 458.264878 242.116364 
L 458.363799 233.88 
L 458.863312 233.88 
L 459.233622 242.116364 
L 460.154434 242.116364 
L 460.302924 233.88 
L 460.734149 225.643636 
L 460.83056 233.88 
L 462.228016 233.88 
L 462.409724 225.643636 
L 463.056818 225.643636 
L 463.212088 217.407273 
L 464.125258 217.407273 
L 464.277855 209.170909 
L 464.599981 209.170909 
L 465.070227 217.407273 
L 465.0907 225.643636 
L 465.278265 217.407273 
L 465.311861 225.643636 
L 466.114323 225.643636 
L 466.150114 233.88 
L 466.15836 225.643636 
L 466.289684 233.88 
L 466.388121 217.407273 
L 466.594864 217.407273 
L 466.744951 225.643636 
L 467.115795 225.643636 
L 467.262394 233.88 
L 467.618485 242.116364 
L 474.864885 242.116364 
L 474.887242 233.88 
L 474.949486 242.116364 
L 475.139793 242.116364 
L 475.257015 233.88 
L 475.280424 242.116364 
L 478.776816 242.116364 
L 479.109407 233.88 
L 481.269824 242.116364 
L 482.018419 242.116364 
L 482.082434 233.88 
L 482.476151 242.116364 
L 483.998532 242.116364 
L 484.193696 233.88 
L 484.483226 233.88 
L 484.708374 242.116364 
L 484.740661 233.88 
L 485.510468 233.88 
L 485.580583 242.116364 
L 485.712762 233.88 
L 486.069753 233.88 
L 486.118904 242.116364 
L 486.318301 233.88 
L 487.39336 233.88 
L 487.444519 242.116364 
L 488.10803 233.88 
L 488.131142 233.88 
L 488.29916 242.116364 
L 490.853856 242.116364 
L 491.039234 233.88 
L 491.253427 242.116364 
L 492.665434 242.116364 
L 492.718704 233.88 
L 492.752724 242.116364 
L 493.632061 242.116364 
L 493.709018 233.88 
L 494.163019 233.88 
L 494.394237 242.116364 
L 498.916588 242.116364 
L 498.926289 233.88 
L 499.224938 242.116364 
L 502.091661 242.116364 
L 502.295452 233.88 
L 502.3414 225.643636 
L 502.50659 217.407273 
L 503.160901 225.643636 
L 503.796165 242.116364 
L 504.812927 242.116364 
L 505.342911 233.88 
L 505.357485 242.116364 
L 506.915463 242.116364 
L 507.001732 225.643636 
L 507.618247 225.643636 
L 507.825598 209.170909 
L 507.960488 209.170909 
L 508.076816 192.698182 
L 508.159015 200.934545 
L 508.988004 209.170909 
L 509.434327 225.643636 
L 509.597872 225.643636 
L 509.70625 217.407273 
L 511.138187 217.407273 
L 511.528058 209.170909 
L 512.326573 209.170909 
L 512.346188 200.934545 
L 513.074027 200.934545 
L 513.615088 209.170909 
L 514.787995 209.170909 
L 514.94172 217.407273 
L 516.551868 217.407273 
L 516.722785 209.170909 
L 516.766781 200.934545 
L 517.041639 209.170909 
L 517.697852 209.170909 
L 517.701989 200.934545 
L 517.720061 209.170909 
L 517.819586 209.170909 
L 518.155385 217.407273 
L 518.491096 217.407273 
L 518.897335 209.170909 
L 519.232346 209.170909 
L 519.339212 217.407273 
L 520.491903 217.407273 
L 520.637862 209.170909 
L 521.150255 209.170909 
L 521.461551 200.934545 
L 521.789374 217.407273 
L 522.005163 217.407273 
L 522.02148 225.643636 
L 522.225183 217.407273 
L 522.547855 217.407273 
L 523.249393 209.170909 
L 523.692629 217.407273 
L 524.051822 217.407273 
L 524.331274 209.170909 
L 525.04831 209.170909 
L 525.334323 217.407273 
L 527.348203 217.407273 
L 527.928242 225.643636 
L 529.356587 225.643636 
L 529.622036 233.88 
L 530.272136 233.88 
L 530.450308 225.643636 
L 530.605597 225.643636 
L 530.9847 217.407273 
L 531.013084 225.643636 
L 533.126083 225.643636 
L 533.135786 217.407273 
L 533.700329 225.643636 
L 533.920424 225.643636 
L 534.085994 217.407273 
L 534.227377 217.407273 
L 534.364831 225.643636 
L 534.996434 225.643636 
L 535.020347 217.407273 
L 535.277866 217.407273 
L 535.468554 200.934545 
L 535.635001 217.407273 
L 537.186986 225.643636 
L 537.460918 242.116364 
L 538.15326 242.116364 
L 538.244544 233.88 
L 538.765164 242.116364 
L 539.108694 242.116364 
L 539.161457 233.88 
L 540.264899 242.116364 
L 543.46315 242.116364 
L 543.601145 233.88 
L 543.849136 233.88 
L 543.90838 225.643636 
L 544.278387 233.88 
L 544.441509 242.116364 
L 544.481442 233.88 
L 546.324005 233.88 
L 546.547893 242.116364 
L 550.86446 242.116364 
L 550.914987 233.88 
L 551.252691 233.88 
L 551.285143 225.643636 
L 551.465544 242.116364 
L 552.565596 233.88 
L 552.715165 242.116364 
L 553.207335 242.116364 
L 553.278103 233.88 
L 554.096084 242.116364 
L 556.419228 242.116364 
L 556.553695 233.88 
L 556.769313 233.88 
L 556.892311 225.643636 
L 557.902871 225.643636 
L 558.025683 217.407273 
L 558.860244 217.407273 
L 558.970702 209.170909 
L 559.188889 209.170909 
L 559.205116 217.407273 
L 559.365614 217.407273 
L 559.36644 225.643636 
L 559.647365 225.643636 
L 559.980643 217.407273 
L 560.213239 225.643636 
L 560.604941 225.643636 
L 560.608546 217.407273 
L 561.201962 225.643636 
L 561.324729 225.643636 
L 561.800474 233.88 
L 561.889556 242.116364 
L 565.86581 242.116364 
L 566.34623 233.88 
L 566.695302 225.643636 
L 567.339442 233.88 
L 568.308204 233.88 
L 568.434278 242.116364 
L 568.90464 242.116364 
L 568.918248 233.88 
L 571.533267 233.88 
L 571.907393 225.643636 
L 573.419083 225.643636 
L 574.77192 233.88 
L 576.65869 233.88 
L 576.7167 225.643636 
L 577.741465 225.643636 
L 578.269231 217.407273 
L 578.328519 225.643636 
L 578.488017 225.643636 
L 578.801286 233.88 
L 578.932064 233.88 
L 579.02732 242.116364 
L 579.853374 242.116364 
L 580.268644 233.88 
L 580.527585 242.116364 
L 581.501548 242.116364 
L 581.501604 233.88 
L 582.587867 233.88 
L 582.681472 242.116364 
L 582.786953 233.88 
L 583.555055 233.88 
L 583.671696 242.116364 
L 583.861213 242.116364 
L 584.077936 233.88 
L 584.236963 233.88 
L 584.427478 242.116364 
L 585.980298 242.116364 
L 586.033056 233.88 
L 586.403115 233.88 
L 586.551212 242.116364 
L 587.978369 242.116364 
L 588.024453 233.88 
L 589.346127 233.88 
L 589.385659 242.116364 
L 590.106304 242.116364 
L 590.182136 233.88 
L 590.965467 233.88 
L 590.994612 225.643636 
L 594.467868 225.643636 
L 594.590279 217.407273 
L 595.327169 225.643636 
L 595.473243 233.88 
L 595.479458 225.643636 
L 596.212106 233.88 
L 597.332414 233.88 
L 597.458855 242.116364 
L 598.010605 233.88 
L 598.731773 242.116364 
L 599.939133 242.116364 
L 600.191267 233.88 
L 600.245895 242.116364 
L 600.39998 233.88 
L 600.650296 233.88 
L 600.701261 242.116364 
L 601.761985 242.116364 
L 601.786866 233.88 
L 605.256905 233.88 
L 605.263297 242.116364 
L 605.953551 233.88 
L 607.704961 233.88 
L 607.870192 242.116364 
L 608.319828 242.116364 
L 608.441931 233.88 
L 608.628782 242.116364 
L 608.802986 233.88 
L 608.96009 242.116364 
L 609.450365 242.116364 
L 609.692274 233.88 
L 612.508389 233.88 
L 612.889215 242.116364 
L 615.70525 242.116364 
L 615.83382 233.88 
L 616.366265 242.116364 
L 617.216678 242.116364 
L 617.257654 233.88 
L 617.414535 242.116364 
L 618.158926 242.116364 
L 618.16971 233.88 
L 618.889169 233.88 
L 619.052929 242.116364 
L 619.469524 242.116364 
L 619.660227 233.88 
L 619.818437 242.116364 
L 620.321877 242.116364 
L 620.480791 233.88 
L 620.818452 233.88 
L 621.190692 242.116364 
L 622.06093 242.116364 
L 622.103428 233.88 
L 622.336719 233.88 
L 623.073376 242.116364 
L 624.027952 242.116364 
L 624.200052 233.88 
L 624.410503 233.88 
L 624.489369 242.116364 
L 624.901433 233.88 
L 624.929325 242.116364 
L 627.483443 242.116364 
L 627.610841 225.643636 
L 627.886362 233.88 
L 627.943311 225.643636 
L 628.619449 225.643636 
L 628.841248 217.407273 
L 629.079644 225.643636 
L 629.637744 225.643636 
L 630.359018 233.88 
L 630.538322 233.88 
L 630.726399 242.116364 
L 632.146837 242.116364 
L 632.527471 233.88 
L 632.672516 242.116364 
L 633.00945 233.88 
L 633.131961 225.643636 
L 633.358701 209.170909 
L 633.62194 209.170909 
L 633.64182 217.407273 
L 635.987262 217.407273 
L 636.039872 209.170909 
L 636.310971 217.407273 
L 636.868607 225.643636 
L 637.488999 225.643636 
L 637.707709 233.88 
L 637.858505 225.643636 
L 637.876482 233.88 
L 638.688407 233.88 
L 638.953504 225.643636 
L 638.957612 233.88 
L 639.807255 233.88 
L 639.980423 225.643636 
L 640.078942 209.170909 
L 640.810187 209.170909 
L 640.994431 200.934545 
L 641.963439 209.170909 
L 642.463493 209.170909 
L 642.619825 200.934545 
L 643.066155 200.934545 
L 643.074511 209.170909 
L 643.929163 217.407273 
L 644.077163 225.643636 
L 645.026093 225.643636 
L 645.099053 217.407273 
L 645.735327 217.407273 
L 645.760819 209.170909 
L 646.038502 217.407273 
L 646.13873 209.170909 
L 646.293099 209.170909 
L 647.235816 217.407273 
L 647.57294 225.643636 
L 647.646435 217.407273 
L 648.133671 225.643636 
L 648.255622 225.643636 
L 648.391031 233.88 
L 648.573048 233.88 
L 648.739119 242.116364 
L 651.560326 242.116364 
L 651.848153 233.88 
L 652.095743 242.116364 
L 653.950514 242.116364 
L 654.038364 233.88 
L 654.07361 242.116364 
L 654.830305 242.116364 
L 655.266511 233.88 
L 655.41632 233.88 
L 655.443892 225.643636 
L 655.604681 217.407273 
L 656.370219 217.407273 
L 656.468979 233.88 
L 656.829408 233.88 
L 657.059429 225.643636 
L 657.285702 225.643636 
L 657.441073 209.170909 
L 657.629752 209.170909 
L 657.714282 200.934545 
L 659.257999 200.934545 
L 659.365626 209.170909 
L 659.657575 200.934545 
L 659.743518 192.698182 
L 660.74684 200.934545 
L 661.161773 200.934545 
L 661.258867 184.461818 
L 661.646587 184.461818 
L 662.099119 200.934545 
L 662.318397 200.934545 
L 662.381067 209.170909 
L 662.656076 209.170909 
L 663.005816 217.407273 
L 664.228515 217.407273 
L 664.475245 225.643636 
L 665.141985 233.88 
L 666.652004 233.88 
L 666.839525 225.643636 
L 666.869348 225.643636 
L 666.909407 233.88 
L 667.085926 233.88 
L 667.496337 225.643636 
L 668.163492 225.643636 
L 668.387655 233.88 
L 668.530201 225.643636 
L 671.189048 225.643636 
L 671.263956 233.88 
L 671.789968 233.88 
L 672.17673 225.643636 
L 672.290004 233.88 
L 672.770465 233.88 
L 672.792809 242.116364 
L 673.264313 233.88 
L 673.742463 233.88 
L 674.113244 225.643636 
L 674.412453 225.643636 
L 674.777671 217.407273 
L 675.119495 225.643636 
L 675.214303 217.407273 
L 675.436412 225.643636 
L 675.901421 225.643636 
L 676.202554 217.407273 
L 676.204565 225.643636 
L 676.363764 233.88 
L 676.669353 233.88 
L 676.841399 225.643636 
L 677.320192 225.643636 
L 677.432392 233.88 
L 679.307083 233.88 
L 679.854083 225.643636 
L 681.902143 225.643636 
L 681.951809 233.88 
L 682.50485 233.88 
L 682.594636 225.643636 
L 683.381977 225.643636 
L 683.56448 233.88 
L 684.171992 242.116364 
L 686.740629 242.116364 
L 686.750632 233.88 
L 686.873448 233.88 
L 687.278497 225.643636 
L 687.339478 233.88 
L 687.354085 225.643636 
L 688.295191 233.88 
L 688.494906 233.88 
L 688.514586 242.116364 
L 691.900538 242.116364 
L 692.075609 233.88 
L 692.220028 233.88 
L 692.743553 225.643636 
L 693.270194 225.643636 
L 693.30147 217.407273 
L 693.480715 225.643636 
L 693.882438 225.643636 
L 693.993937 209.170909 
L 694.091684 192.698182 
L 694.18765 192.698182 
L 694.219588 200.934545 
L 694.935514 209.170909 
L 695.308446 217.407273 
L 695.780532 209.170909 
L 696.287377 209.170909 
L 696.49736 217.407273 
L 696.74495 217.407273 
L 697.025479 225.643636 
L 697.027919 217.407273 
L 697.143103 217.407273 
L 697.390237 225.643636 
L 697.502602 225.643636 
L 697.530327 233.88 
L 698.050358 233.88 
L 698.14946 225.643636 
L 698.170442 233.88 
L 698.404106 242.116364 
L 698.776161 233.88 
L 699.148202 242.116364 
L 702.193598 242.116364 
L 702.32017 233.88 
L 703.281627 225.643636 
L 703.664595 225.643636 
L 703.74838 233.88 
L 703.988214 233.88 
L 704.259135 242.116364 
L 704.697426 233.88 
L 704.711985 225.643636 
L 706.278329 225.643636 
L 706.447548 217.407273 
L 706.976071 217.407273 
L 707.771816 209.170909 
L 708.332824 209.170909 
L 708.468664 217.407273 
L 709.767342 217.407273 
L 710.410453 233.88 
L 710.439235 225.643636 
L 710.57841 225.643636 
L 710.832333 217.407273 
L 710.937194 217.407273 
L 711.078498 225.643636 
L 711.836628 225.643636 
L 711.997225 233.88 
L 712.013255 242.116364 
L 712.957733 242.116364 
L 713.095433 233.88 
L 713.709576 233.88 
L 713.858703 225.643636 
L 714.226486 225.643636 
L 714.315235 233.88 
L 714.530556 233.88 
L 715.690479 242.116364 
L 717.367566 242.116364 
L 717.902496 233.88 
L 718.132529 242.116364 
L 718.383894 242.116364 
L 718.40377 233.88 
L 718.405885 242.116364 
L 722.883832 242.116364 
L 723.363499 225.643636 
L 723.672674 233.88 
L 724.9926 233.88 
L 725.036321 242.116364 
L 727.573806 242.116364 
L 727.933846 233.88 
L 728.090789 233.88 
L 728.343436 242.116364 
L 728.576775 242.116364 
L 728.835995 233.88 
L 729.340183 233.88 
L 729.371395 225.643636 
L 729.449176 233.88 
L 729.740654 233.88 
L 730.023729 242.116364 
L 731.90381 242.116364 
L 732.23313 233.88 
L 733.189726 233.88 
L 733.530496 242.116364 
L 733.644427 242.116364 
L 733.877737 233.88 
L 734.074795 242.116364 
L 736.796872 242.116364 
L 737.0988 233.88 
L 737.179154 242.116364 
L 737.561876 242.116364 
L 737.683788 233.88 
L 738.014515 233.88 
L 738.050031 225.643636 
L 738.615515 233.88 
L 738.869007 233.88 
L 739.048235 242.116364 
L 740.280294 242.116364 
L 740.394347 233.88 
L 741.335812 242.116364 
L 741.88658 242.116364 
L 741.940513 233.88 
L 742.386591 233.88 
L 743.151692 242.116364 
L 745.114255 242.116364 
L 745.433677 233.88 
L 745.610762 242.116364 
L 746.255733 242.116364 
L 746.368638 233.88 
L 746.973757 233.88 
L 747.163636 225.643636 
L 747.163636 225.643636 
" style="fill:none;stroke:#ff7f0e;stroke-linecap:square;stroke-width:1.5;"/>
   </g>
   <g id="patch_3">
    <path d="M 108 252 
L 108 34.56 
" style="fill:none;stroke:#000000;stroke-linecap:square;stroke-linejoin:miter;stroke-width:0.8;"/>
   </g>
   <g id="patch_4">
    <path d="M 777.6 252 
L 777.6 34.56 
" style="fill:none;stroke:#000000;stroke-linecap:square;stroke-linejoin:miter;stroke-width:0.8;"/>
   </g>
   <g id="patch_5">
    <path d="M 108 252 
L 777.6 252 
" style="fill:none;stroke:#000000;stroke-linecap:square;stroke-linejoin:miter;stroke-width:0.8;"/>
   </g>
   <g id="patch_6">
    <path d="M 108 34.56 
L 777.6 34.56 
" style="fill:none;stroke:#000000;stroke-linecap:square;stroke-linejoin:miter;stroke-width:0.8;"/>
   </g>
  </g>
 </g>
 <defs>
  <clipPath id="p588a9d0262">
   <rect height="217.44" width="669.6" x="108" y="34.56"/>
  </clipPath>
 </defs>
</svg>
