<?xml version="1.0" encoding="utf-8" standalone="no"?>
<!DOCTYPE svg PUBLIC "-//W3C//DTD SVG 1.1//EN"
  "http://www.w3.org/Graphics/SVG/1.1/DTD/svg11.dtd">
<svg xmlns:xlink="http://www.w3.org/1999/xlink" width="648pt" height="216pt" viewBox="0 0 648 216" xmlns="http://www.w3.org/2000/svg" version="1.1">
 <metadata>
  <rdf:RDF xmlns:dc="http://purl.org/dc/elements/1.1/" xmlns:cc="http://creativecommons.org/ns#" xmlns:rdf="http://www.w3.org/1999/02/22-rdf-syntax-ns#">
   <cc:Work>
    <dc:type rdf:resource="http://purl.org/dc/dcmitype/StillImage"/>
    <dc:date>2024-04-26T13:29:06.791084</dc:date>
    <dc:format>image/svg+xml</dc:format>
    <dc:creator>
     <cc:Agent>
      <dc:title>Matplotlib v3.8.2, https://matplotlib.org/</dc:title>
     </cc:Agent>
    </dc:creator>
   </cc:Work>
  </rdf:RDF>
 </metadata>
 <defs>
  <style type="text/css">*{stroke-linejoin: round; stroke-linecap: butt}</style>
 </defs>
 <g id="figure_1">
  <g id="patch_1">
   <path d="M 0 216 
L 648 216 
L 648 0 
L 0 0 
z
" style="fill: #ffffff"/>
  </g>
  <g id="axes_1">
   <g id="patch_2">
    <path d="M 81 192.24 
L 583.2 192.24 
L 583.2 25.92 
L 81 25.92 
z
" style="fill: #ffffff"/>
   </g>
   <g id="matplotlib.axis_1">
    <g id="xtick_1">
     <g id="line2d_1">
      <path d="M 103.827273 192.24 
L 103.827273 25.92 
" clip-path="url(#p8d1e24234b)" style="fill: none; stroke: #b0b0b0; stroke-width: 0.5; stroke-linecap: square"/>
     </g>
     <g id="line2d_2">
      <defs>
       <path id="m572d2431eb" d="M 0 0 
L 0 3.5 
" style="stroke: #333333; stroke-width: 0.8"/>
      </defs>
      <g>
       <use xlink:href="#m572d2431eb" x="103.827273" y="192.24" style="fill: #333333; stroke: #333333; stroke-width: 0.8"/>
      </g>
     </g>
     <g id="text_1">
      <!-- 0 -->
      <g style="fill: #333333" transform="translate(101.918523 203.799062) scale(0.06 -0.06)">
       <defs>
        <path id="DejaVuSans-30" d="M 2034 4250 
Q 1547 4250 1301 3770 
Q 1056 3291 1056 2328 
Q 1056 1369 1301 889 
Q 1547 409 2034 409 
Q 2525 409 2770 889 
Q 3016 1369 3016 2328 
Q 3016 3291 2770 3770 
Q 2525 4250 2034 4250 
z
M 2034 4750 
Q 2819 4750 3233 4129 
Q 3647 3509 3647 2328 
Q 3647 1150 3233 529 
Q 2819 -91 2034 -91 
Q 1250 -91 836 529 
Q 422 1150 422 2328 
Q 422 3509 836 4129 
Q 1250 4750 2034 4750 
z
" transform="scale(0.015625)"/>
       </defs>
       <use xlink:href="#DejaVuSans-30"/>
      </g>
     </g>
    </g>
    <g id="xtick_2">
     <g id="line2d_3">
      <path d="M 160.940674 192.24 
L 160.940674 25.92 
" clip-path="url(#p8d1e24234b)" style="fill: none; stroke: #b0b0b0; stroke-width: 0.5; stroke-linecap: square"/>
     </g>
     <g id="line2d_4">
      <g>
       <use xlink:href="#m572d2431eb" x="160.940674" y="192.24" style="fill: #333333; stroke: #333333; stroke-width: 0.8"/>
      </g>
     </g>
     <g id="text_2">
      <!-- 10 -->
      <g style="fill: #333333" transform="translate(157.123174 203.799062) scale(0.06 -0.06)">
       <defs>
        <path id="DejaVuSans-31" d="M 794 531 
L 1825 531 
L 1825 4091 
L 703 3866 
L 703 4441 
L 1819 4666 
L 2450 4666 
L 2450 531 
L 3481 531 
L 3481 0 
L 794 0 
L 794 531 
z
" transform="scale(0.015625)"/>
       </defs>
       <use xlink:href="#DejaVuSans-31"/>
       <use xlink:href="#DejaVuSans-30" x="63.623047"/>
      </g>
     </g>
    </g>
    <g id="xtick_3">
     <g id="line2d_5">
      <path d="M 218.054075 192.24 
L 218.054075 25.92 
" clip-path="url(#p8d1e24234b)" style="fill: none; stroke: #b0b0b0; stroke-width: 0.5; stroke-linecap: square"/>
     </g>
     <g id="line2d_6">
      <g>
       <use xlink:href="#m572d2431eb" x="218.054075" y="192.24" style="fill: #333333; stroke: #333333; stroke-width: 0.8"/>
      </g>
     </g>
     <g id="text_3">
      <!-- 20 -->
      <g style="fill: #333333" transform="translate(214.236575 203.799062) scale(0.06 -0.06)">
       <defs>
        <path id="DejaVuSans-32" d="M 1228 531 
L 3431 531 
L 3431 0 
L 469 0 
L 469 531 
Q 828 903 1448 1529 
Q 2069 2156 2228 2338 
Q 2531 2678 2651 2914 
Q 2772 3150 2772 3378 
Q 2772 3750 2511 3984 
Q 2250 4219 1831 4219 
Q 1534 4219 1204 4116 
Q 875 4013 500 3803 
L 500 4441 
Q 881 4594 1212 4672 
Q 1544 4750 1819 4750 
Q 2544 4750 2975 4387 
Q 3406 4025 3406 3419 
Q 3406 3131 3298 2873 
Q 3191 2616 2906 2266 
Q 2828 2175 2409 1742 
Q 1991 1309 1228 531 
z
" transform="scale(0.015625)"/>
       </defs>
       <use xlink:href="#DejaVuSans-32"/>
       <use xlink:href="#DejaVuSans-30" x="63.623047"/>
      </g>
     </g>
    </g>
    <g id="xtick_4">
     <g id="line2d_7">
      <path d="M 275.167476 192.24 
L 275.167476 25.92 
" clip-path="url(#p8d1e24234b)" style="fill: none; stroke: #b0b0b0; stroke-width: 0.5; stroke-linecap: square"/>
     </g>
     <g id="line2d_8">
      <g>
       <use xlink:href="#m572d2431eb" x="275.167476" y="192.24" style="fill: #333333; stroke: #333333; stroke-width: 0.8"/>
      </g>
     </g>
     <g id="text_4">
      <!-- 30 -->
      <g style="fill: #333333" transform="translate(271.349976 203.799062) scale(0.06 -0.06)">
       <defs>
        <path id="DejaVuSans-33" d="M 2597 2516 
Q 3050 2419 3304 2112 
Q 3559 1806 3559 1356 
Q 3559 666 3084 287 
Q 2609 -91 1734 -91 
Q 1441 -91 1130 -33 
Q 819 25 488 141 
L 488 750 
Q 750 597 1062 519 
Q 1375 441 1716 441 
Q 2309 441 2620 675 
Q 2931 909 2931 1356 
Q 2931 1769 2642 2001 
Q 2353 2234 1838 2234 
L 1294 2234 
L 1294 2753 
L 1863 2753 
Q 2328 2753 2575 2939 
Q 2822 3125 2822 3475 
Q 2822 3834 2567 4026 
Q 2313 4219 1838 4219 
Q 1578 4219 1281 4162 
Q 984 4106 628 3988 
L 628 4550 
Q 988 4650 1302 4700 
Q 1616 4750 1894 4750 
Q 2613 4750 3031 4423 
Q 3450 4097 3450 3541 
Q 3450 3153 3228 2886 
Q 3006 2619 2597 2516 
z
" transform="scale(0.015625)"/>
       </defs>
       <use xlink:href="#DejaVuSans-33"/>
       <use xlink:href="#DejaVuSans-30" x="63.623047"/>
      </g>
     </g>
    </g>
    <g id="xtick_5">
     <g id="line2d_9">
      <path d="M 332.280877 192.24 
L 332.280877 25.92 
" clip-path="url(#p8d1e24234b)" style="fill: none; stroke: #b0b0b0; stroke-width: 0.5; stroke-linecap: square"/>
     </g>
     <g id="line2d_10">
      <g>
       <use xlink:href="#m572d2431eb" x="332.280877" y="192.24" style="fill: #333333; stroke: #333333; stroke-width: 0.8"/>
      </g>
     </g>
     <g id="text_5">
      <!-- 40 -->
      <g style="fill: #333333" transform="translate(328.463377 203.799062) scale(0.06 -0.06)">
       <defs>
        <path id="DejaVuSans-34" d="M 2419 4116 
L 825 1625 
L 2419 1625 
L 2419 4116 
z
M 2253 4666 
L 3047 4666 
L 3047 1625 
L 3713 1625 
L 3713 1100 
L 3047 1100 
L 3047 0 
L 2419 0 
L 2419 1100 
L 313 1100 
L 313 1709 
L 2253 4666 
z
" transform="scale(0.015625)"/>
       </defs>
       <use xlink:href="#DejaVuSans-34"/>
       <use xlink:href="#DejaVuSans-30" x="63.623047"/>
      </g>
     </g>
    </g>
    <g id="xtick_6">
     <g id="line2d_11">
      <path d="M 389.394278 192.24 
L 389.394278 25.92 
" clip-path="url(#p8d1e24234b)" style="fill: none; stroke: #b0b0b0; stroke-width: 0.5; stroke-linecap: square"/>
     </g>
     <g id="line2d_12">
      <g>
       <use xlink:href="#m572d2431eb" x="389.394278" y="192.24" style="fill: #333333; stroke: #333333; stroke-width: 0.8"/>
      </g>
     </g>
     <g id="text_6">
      <!-- 50 -->
      <g style="fill: #333333" transform="translate(385.576778 203.799062) scale(0.06 -0.06)">
       <defs>
        <path id="DejaVuSans-35" d="M 691 4666 
L 3169 4666 
L 3169 4134 
L 1269 4134 
L 1269 2991 
Q 1406 3038 1543 3061 
Q 1681 3084 1819 3084 
Q 2600 3084 3056 2656 
Q 3513 2228 3513 1497 
Q 3513 744 3044 326 
Q 2575 -91 1722 -91 
Q 1428 -91 1123 -41 
Q 819 9 494 109 
L 494 744 
Q 775 591 1075 516 
Q 1375 441 1709 441 
Q 2250 441 2565 725 
Q 2881 1009 2881 1497 
Q 2881 1984 2565 2268 
Q 2250 2553 1709 2553 
Q 1456 2553 1204 2497 
Q 953 2441 691 2322 
L 691 4666 
z
" transform="scale(0.015625)"/>
       </defs>
       <use xlink:href="#DejaVuSans-35"/>
       <use xlink:href="#DejaVuSans-30" x="63.623047"/>
      </g>
     </g>
    </g>
    <g id="xtick_7">
     <g id="line2d_13">
      <path d="M 446.507679 192.24 
L 446.507679 25.92 
" clip-path="url(#p8d1e24234b)" style="fill: none; stroke: #b0b0b0; stroke-width: 0.5; stroke-linecap: square"/>
     </g>
     <g id="line2d_14">
      <g>
       <use xlink:href="#m572d2431eb" x="446.507679" y="192.24" style="fill: #333333; stroke: #333333; stroke-width: 0.8"/>
      </g>
     </g>
     <g id="text_7">
      <!-- 60 -->
      <g style="fill: #333333" transform="translate(442.690179 203.799062) scale(0.06 -0.06)">
       <defs>
        <path id="DejaVuSans-36" d="M 2113 2584 
Q 1688 2584 1439 2293 
Q 1191 2003 1191 1497 
Q 1191 994 1439 701 
Q 1688 409 2113 409 
Q 2538 409 2786 701 
Q 3034 994 3034 1497 
Q 3034 2003 2786 2293 
Q 2538 2584 2113 2584 
z
M 3366 4563 
L 3366 3988 
Q 3128 4100 2886 4159 
Q 2644 4219 2406 4219 
Q 1781 4219 1451 3797 
Q 1122 3375 1075 2522 
Q 1259 2794 1537 2939 
Q 1816 3084 2150 3084 
Q 2853 3084 3261 2657 
Q 3669 2231 3669 1497 
Q 3669 778 3244 343 
Q 2819 -91 2113 -91 
Q 1303 -91 875 529 
Q 447 1150 447 2328 
Q 447 3434 972 4092 
Q 1497 4750 2381 4750 
Q 2619 4750 2861 4703 
Q 3103 4656 3366 4563 
z
" transform="scale(0.015625)"/>
       </defs>
       <use xlink:href="#DejaVuSans-36"/>
       <use xlink:href="#DejaVuSans-30" x="63.623047"/>
      </g>
     </g>
    </g>
    <g id="xtick_8">
     <g id="line2d_15">
      <path d="M 503.62108 192.24 
L 503.62108 25.92 
" clip-path="url(#p8d1e24234b)" style="fill: none; stroke: #b0b0b0; stroke-width: 0.5; stroke-linecap: square"/>
     </g>
     <g id="line2d_16">
      <g>
       <use xlink:href="#m572d2431eb" x="503.62108" y="192.24" style="fill: #333333; stroke: #333333; stroke-width: 0.8"/>
      </g>
     </g>
     <g id="text_8">
      <!-- 70 -->
      <g style="fill: #333333" transform="translate(499.80358 203.799062) scale(0.06 -0.06)">
       <defs>
        <path id="DejaVuSans-37" d="M 525 4666 
L 3525 4666 
L 3525 4397 
L 1831 0 
L 1172 0 
L 2766 4134 
L 525 4134 
L 525 4666 
z
" transform="scale(0.015625)"/>
       </defs>
       <use xlink:href="#DejaVuSans-37"/>
       <use xlink:href="#DejaVuSans-30" x="63.623047"/>
      </g>
     </g>
    </g>
    <g id="xtick_9">
     <g id="line2d_17">
      <path d="M 560.734481 192.24 
L 560.734481 25.92 
" clip-path="url(#p8d1e24234b)" style="fill: none; stroke: #b0b0b0; stroke-width: 0.5; stroke-linecap: square"/>
     </g>
     <g id="line2d_18">
      <g>
       <use xlink:href="#m572d2431eb" x="560.734481" y="192.24" style="fill: #333333; stroke: #333333; stroke-width: 0.8"/>
      </g>
     </g>
     <g id="text_9">
      <!-- 80 -->
      <g style="fill: #333333" transform="translate(556.916981 203.799062) scale(0.06 -0.06)">
       <defs>
        <path id="DejaVuSans-38" d="M 2034 2216 
Q 1584 2216 1326 1975 
Q 1069 1734 1069 1313 
Q 1069 891 1326 650 
Q 1584 409 2034 409 
Q 2484 409 2743 651 
Q 3003 894 3003 1313 
Q 3003 1734 2745 1975 
Q 2488 2216 2034 2216 
z
M 1403 2484 
Q 997 2584 770 2862 
Q 544 3141 544 3541 
Q 544 4100 942 4425 
Q 1341 4750 2034 4750 
Q 2731 4750 3128 4425 
Q 3525 4100 3525 3541 
Q 3525 3141 3298 2862 
Q 3072 2584 2669 2484 
Q 3125 2378 3379 2068 
Q 3634 1759 3634 1313 
Q 3634 634 3220 271 
Q 2806 -91 2034 -91 
Q 1263 -91 848 271 
Q 434 634 434 1313 
Q 434 1759 690 2068 
Q 947 2378 1403 2484 
z
M 1172 3481 
Q 1172 3119 1398 2916 
Q 1625 2713 2034 2713 
Q 2441 2713 2670 2916 
Q 2900 3119 2900 3481 
Q 2900 3844 2670 4047 
Q 2441 4250 2034 4250 
Q 1625 4250 1398 4047 
Q 1172 3844 1172 3481 
z
" transform="scale(0.015625)"/>
       </defs>
       <use xlink:href="#DejaVuSans-38"/>
       <use xlink:href="#DejaVuSans-30" x="63.623047"/>
      </g>
     </g>
    </g>
   </g>
   <g id="matplotlib.axis_2">
    <g id="ytick_1">
     <g id="line2d_19">
      <path d="M 81 184.68 
L 583.2 184.68 
" clip-path="url(#p8d1e24234b)" style="fill: none; stroke: #b0b0b0; stroke-width: 0.5; stroke-linecap: square"/>
     </g>
     <g id="line2d_20">
      <defs>
       <path id="m194a41a671" d="M 0 0 
L -3.5 0 
" style="stroke: #333333; stroke-width: 0.8"/>
      </defs>
      <g>
       <use xlink:href="#m194a41a671" x="81" y="184.68" style="fill: #333333; stroke: #333333; stroke-width: 0.8"/>
      </g>
     </g>
     <g id="text_10">
      <!-- 0 -->
      <g style="fill: #333333" transform="translate(70.1825 186.959531) scale(0.06 -0.06)">
       <use xlink:href="#DejaVuSans-30"/>
      </g>
     </g>
    </g>
    <g id="ytick_2">
     <g id="line2d_21">
      <path d="M 81 153.18 
L 583.2 153.18 
" clip-path="url(#p8d1e24234b)" style="fill: none; stroke: #b0b0b0; stroke-width: 0.5; stroke-linecap: square"/>
     </g>
     <g id="line2d_22">
      <g>
       <use xlink:href="#m194a41a671" x="81" y="153.18" style="fill: #333333; stroke: #333333; stroke-width: 0.8"/>
      </g>
     </g>
     <g id="text_11">
      <!-- 5 -->
      <g style="fill: #333333" transform="translate(70.1825 155.459531) scale(0.06 -0.06)">
       <use xlink:href="#DejaVuSans-35"/>
      </g>
     </g>
    </g>
    <g id="ytick_3">
     <g id="line2d_23">
      <path d="M 81 121.68 
L 583.2 121.68 
" clip-path="url(#p8d1e24234b)" style="fill: none; stroke: #b0b0b0; stroke-width: 0.5; stroke-linecap: square"/>
     </g>
     <g id="line2d_24">
      <g>
       <use xlink:href="#m194a41a671" x="81" y="121.68" style="fill: #333333; stroke: #333333; stroke-width: 0.8"/>
      </g>
     </g>
     <g id="text_12">
      <!-- 10 -->
      <g style="fill: #333333" transform="translate(66.365 123.959531) scale(0.06 -0.06)">
       <use xlink:href="#DejaVuSans-31"/>
       <use xlink:href="#DejaVuSans-30" x="63.623047"/>
      </g>
     </g>
    </g>
    <g id="ytick_4">
     <g id="line2d_25">
      <path d="M 81 90.18 
L 583.2 90.18 
" clip-path="url(#p8d1e24234b)" style="fill: none; stroke: #b0b0b0; stroke-width: 0.5; stroke-linecap: square"/>
     </g>
     <g id="line2d_26">
      <g>
       <use xlink:href="#m194a41a671" x="81" y="90.18" style="fill: #333333; stroke: #333333; stroke-width: 0.8"/>
      </g>
     </g>
     <g id="text_13">
      <!-- 15 -->
      <g style="fill: #333333" transform="translate(66.365 92.459531) scale(0.06 -0.06)">
       <use xlink:href="#DejaVuSans-31"/>
       <use xlink:href="#DejaVuSans-35" x="63.623047"/>
      </g>
     </g>
    </g>
    <g id="ytick_5">
     <g id="line2d_27">
      <path d="M 81 58.68 
L 583.2 58.68 
" clip-path="url(#p8d1e24234b)" style="fill: none; stroke: #b0b0b0; stroke-width: 0.5; stroke-linecap: square"/>
     </g>
     <g id="line2d_28">
      <g>
       <use xlink:href="#m194a41a671" x="81" y="58.68" style="fill: #333333; stroke: #333333; stroke-width: 0.8"/>
      </g>
     </g>
     <g id="text_14">
      <!-- 20 -->
      <g style="fill: #333333" transform="translate(66.365 60.959531) scale(0.06 -0.06)">
       <use xlink:href="#DejaVuSans-32"/>
       <use xlink:href="#DejaVuSans-30" x="63.623047"/>
      </g>
     </g>
    </g>
    <g id="ytick_6">
     <g id="line2d_29">
      <path d="M 81 27.18 
L 583.2 27.18 
" clip-path="url(#p8d1e24234b)" style="fill: none; stroke: #b0b0b0; stroke-width: 0.5; stroke-linecap: square"/>
     </g>
     <g id="line2d_30">
      <g>
       <use xlink:href="#m194a41a671" x="81" y="27.18" style="fill: #333333; stroke: #333333; stroke-width: 0.8"/>
      </g>
     </g>
     <g id="text_15">
      <!-- 25 -->
      <g style="fill: #333333" transform="translate(66.365 29.459531) scale(0.06 -0.06)">
       <use xlink:href="#DejaVuSans-32"/>
       <use xlink:href="#DejaVuSans-35" x="63.623047"/>
      </g>
     </g>
    </g>
   </g>
   <g id="line2d_31">
    <path d="M 103.827273 184.68 
L 105.21402 184.68 
L 105.37274 178.38 
L 105.572771 178.38 
L 105.948863 184.68 
L 106.736148 184.68 
L 107.058218 178.38 
L 108.990598 178.38 
L 109.347638 184.68 
L 110.239409 184.68 
L 111.019305 172.08 
L 111.384406 172.08 
L 111.403151 178.38 
L 111.675795 178.38 
L 111.830474 172.08 
L 112.829841 172.08 
L 112.919702 165.78 
L 113.061423 172.08 
L 113.859295 178.38 
L 113.997155 178.38 
L 114.118797 184.68 
L 114.780237 178.38 
L 114.925512 184.68 
L 117.926823 184.68 
L 118.06133 178.38 
L 118.444871 178.38 
L 118.564792 172.08 
L 118.781536 165.78 
L 118.966878 178.38 
L 119.653667 178.38 
L 120.31588 184.68 
L 123.587547 184.68 
L 124.155986 178.38 
L 125.05608 178.38 
L 125.059111 184.68 
L 125.11969 178.38 
L 125.35676 184.68 
L 126.037936 184.68 
L 126.204771 172.08 
L 127.074779 172.08 
L 127.307307 178.38 
L 127.440836 184.68 
L 127.554638 184.68 
L 127.75063 178.38 
L 128.028951 178.38 
L 128.104495 172.08 
L 128.212586 184.68 
L 128.473031 178.38 
L 128.574911 184.68 
L 130.253622 184.68 
L 130.701103 178.38 
L 131.699078 178.38 
L 131.732877 184.68 
L 132.60402 184.68 
L 132.627683 178.38 
L 132.82002 172.08 
L 132.968375 172.08 
L 133.12676 165.78 
L 133.303998 172.08 
L 133.31591 178.38 
L 134.03948 178.38 
L 134.163575 172.08 
L 134.417752 172.08 
L 134.603957 178.38 
L 134.647218 172.08 
L 134.971993 172.08 
L 135.09425 165.78 
L 135.572943 165.78 
L 135.621735 159.48 
L 135.805434 165.78 
L 136.606365 165.78 
L 136.766552 172.08 
L 137.022374 172.08 
L 137.282153 165.78 
L 137.829729 165.78 
L 137.985619 172.08 
L 138.51468 172.08 
L 138.517193 178.38 
L 138.518448 172.08 
L 138.999168 172.08 
L 139.294559 165.78 
L 139.471592 172.08 
L 140.551801 178.38 
L 140.913573 184.68 
L 141.471703 184.68 
L 141.526576 178.38 
L 142.971224 178.38 
L 143.038212 172.08 
L 143.154666 172.08 
L 143.173431 178.38 
L 143.397309 184.68 
L 143.637656 178.38 
L 144.927242 178.38 
L 145.593468 184.68 
L 148.076068 184.68 
L 148.129297 178.38 
L 148.289451 184.68 
L 148.5813 184.68 
L 148.937426 178.38 
L 149.407491 178.38 
L 149.558932 172.08 
L 149.924233 178.38 
L 150.002928 172.08 
L 150.062723 172.08 
L 150.125303 165.78 
L 150.292702 165.78 
L 150.478738 172.08 
L 150.545178 165.78 
L 151.429526 165.78 
L 151.578517 159.48 
L 153.232711 159.48 
L 153.375977 153.18 
L 153.377778 146.88 
L 153.544982 140.58 
L 154.024173 140.58 
L 154.038148 146.88 
L 154.225031 140.58 
L 154.477664 140.58 
L 154.561668 146.88 
L 154.673699 146.88 
L 154.742771 140.58 
L 156.706382 140.58 
L 156.839014 134.28 
L 157.465506 134.28 
L 157.51427 127.98 
L 157.916999 127.98 
L 158.538212 121.68 
L 158.657172 121.68 
L 158.808863 127.98 
L 159.145493 121.68 
L 159.548102 109.08 
L 160.982504 109.08 
L 161.182297 115.38 
L 161.197984 109.08 
L 161.720404 102.78 
L 162.273515 102.78 
L 162.383964 109.08 
L 163.036143 109.08 
L 163.195942 115.38 
L 163.350091 109.08 
L 164.361168 109.08 
L 164.605609 102.78 
L 165.440098 102.78 
L 165.44443 109.08 
L 165.522499 102.78 
L 166.768243 102.78 
L 166.805269 96.48 
L 166.959918 96.48 
L 167.181692 109.08 
L 167.941911 109.08 
L 168.062893 102.78 
L 168.482295 102.78 
L 168.493301 96.48 
L 169.394581 96.48 
L 169.637696 90.18 
L 170.022624 90.18 
L 170.166455 83.88 
L 171.280416 83.88 
L 171.294272 90.18 
L 173.585303 90.18 
L 173.633197 83.88 
L 173.662155 90.18 
L 174.455588 90.18 
L 174.59445 83.88 
L 175.007286 90.18 
L 175.050757 96.48 
L 176.861983 96.48 
L 177.362453 90.18 
L 177.546769 83.88 
L 177.673578 90.18 
L 178.872462 90.18 
L 179.007681 83.88 
L 179.534803 83.88 
L 180.081398 90.18 
L 180.109775 83.88 
L 181.301805 90.18 
L 181.406164 96.48 
L 181.412976 90.18 
L 181.650337 90.18 
L 181.864538 102.78 
L 182.486975 96.48 
L 183.266312 96.48 
L 183.267959 90.18 
L 183.529408 90.18 
L 183.741524 83.88 
L 183.99582 90.18 
L 184.109308 96.48 
L 184.511273 102.78 
L 184.648969 102.78 
L 184.680825 96.48 
L 186.902884 96.48 
L 187.216186 83.88 
L 187.555774 90.18 
L 189.001184 90.18 
L 189.732843 96.48 
L 190.135593 96.48 
L 190.362312 77.58 
L 190.673641 77.58 
L 190.693824 71.28 
L 191.652169 71.28 
L 191.7414 58.68 
L 192.396138 58.68 
L 192.498404 64.98 
L 192.733614 64.98 
L 192.824013 52.38 
L 193.082557 58.68 
L 193.973693 58.68 
L 194.073684 52.38 
L 194.608441 52.38 
L 194.834916 46.08 
L 195.422595 46.08 
L 195.483007 39.78 
L 195.615912 46.08 
L 196.242437 46.08 
L 196.357452 39.78 
L 197.899323 39.78 
L 197.922455 33.48 
L 199.431698 33.48 
L 199.639998 39.78 
L 199.790679 33.48 
L 199.948404 39.78 
L 200.071442 39.78 
L 200.118406 46.08 
L 200.377486 46.08 
L 200.444006 52.38 
L 200.81038 52.38 
L 201.007804 58.68 
L 201.193933 58.68 
L 201.274677 52.38 
L 201.39009 58.68 
L 201.573822 58.68 
L 201.673667 52.38 
L 202.158091 52.38 
L 202.294667 46.08 
L 202.333096 46.08 
L 202.440405 52.38 
L 203.296244 52.38 
L 203.605711 71.28 
L 204.31725 71.28 
L 204.333697 77.58 
L 204.578401 83.88 
L 204.592063 77.58 
L 205.058953 77.58 
L 205.084413 71.28 
L 205.86008 71.28 
L 206.035878 83.88 
L 206.429312 83.88 
L 206.594838 90.18 
L 206.710569 90.18 
L 206.835022 83.88 
L 207.021616 83.88 
L 207.194208 77.58 
L 207.315785 64.98 
L 208.099419 64.98 
L 208.16 71.28 
L 208.363432 71.28 
L 208.579913 77.58 
L 208.719963 77.58 
L 208.893133 83.88 
L 210.806071 83.88 
L 210.986329 71.28 
L 211.699833 71.28 
L 211.87661 77.58 
L 212.170236 71.28 
L 212.823335 83.88 
L 213.087172 83.88 
L 213.134395 77.58 
L 213.300883 77.58 
L 213.355674 71.28 
L 213.402404 77.58 
L 213.441185 71.28 
L 213.682152 77.58 
L 213.987714 77.58 
L 213.998114 71.28 
L 214.759288 71.28 
L 214.868649 77.58 
L 215.552814 83.88 
L 216.487213 83.88 
L 216.535753 77.58 
L 216.684341 83.88 
L 216.841 83.88 
L 216.867022 77.58 
L 217.172807 77.58 
L 217.28642 71.28 
L 218.531382 71.28 
L 218.586848 64.98 
L 219.049851 64.98 
L 219.099495 71.28 
L 219.250826 71.28 
L 219.315413 64.98 
L 219.460906 64.98 
L 219.624564 58.68 
L 219.701062 64.98 
L 220.806651 64.98 
L 220.902482 71.28 
L 221.063334 64.98 
L 221.908194 64.98 
L 221.931095 71.28 
L 221.968975 64.98 
L 222.074796 64.98 
L 222.252869 71.28 
L 222.534828 71.28 
L 222.615142 64.98 
L 222.631079 71.28 
L 223.464008 71.28 
L 223.656549 64.98 
L 223.890752 64.98 
L 224.009742 71.28 
L 224.192051 64.98 
L 225.143985 64.98 
L 225.424412 71.28 
L 225.680972 64.98 
L 225.820025 64.98 
L 225.975968 58.68 
L 226.452938 58.68 
L 227.077061 64.98 
L 227.435728 71.28 
L 228.451361 71.28 
L 228.547385 64.98 
L 228.869816 64.98 
L 228.911801 58.68 
L 229.174118 58.68 
L 229.227598 64.98 
L 229.274778 58.68 
L 229.617016 58.68 
L 229.697591 52.38 
L 230.181528 52.38 
L 230.239988 46.08 
L 230.482132 52.38 
L 230.54347 58.68 
L 230.787479 58.68 
L 230.912971 52.38 
L 232.060881 52.38 
L 232.191398 46.08 
L 232.749463 46.08 
L 233.950177 52.38 
L 234.451271 58.68 
L 234.785443 64.98 
L 235.089385 58.68 
L 235.448201 58.68 
L 235.457989 52.38 
L 235.464124 58.68 
L 235.935106 64.98 
L 235.938071 71.28 
L 236.079678 77.58 
L 236.901598 77.58 
L 237.066407 71.28 
L 237.94842 71.28 
L 238.034536 83.88 
L 239.586781 83.88 
L 239.605455 90.18 
L 240.042079 90.18 
L 240.465004 96.48 
L 240.619784 102.78 
L 241.172925 102.78 
L 241.496692 109.08 
L 242.023003 109.08 
L 242.113973 96.48 
L 242.526731 96.48 
L 242.648199 83.88 
L 243.88548 83.88 
L 244.061548 90.18 
L 245.337566 96.48 
L 245.482163 90.18 
L 245.74299 90.18 
L 245.770264 96.48 
L 246.106835 102.78 
L 246.159849 96.48 
L 246.810826 96.48 
L 247.198949 102.78 
L 247.413881 102.78 
L 247.42209 109.08 
L 249.807658 109.08 
L 249.899373 102.78 
L 250.593497 102.78 
L 250.714659 109.08 
L 251.94079 109.08 
L 252.027434 102.78 
L 253.541234 102.78 
L 253.690807 109.08 
L 255.215582 109.08 
L 255.263062 115.38 
L 255.736805 115.38 
L 255.759946 121.68 
L 256.100704 115.38 
L 257.027992 115.38 
L 257.097821 121.68 
L 257.309745 115.38 
L 261.403871 115.38 
L 261.490074 121.68 
L 262.039839 121.68 
L 263.055127 127.98 
L 263.918083 127.98 
L 264.013843 134.28 
L 264.214515 127.98 
L 264.221505 121.68 
L 264.978193 127.98 
L 265.284447 134.28 
L 265.293397 127.98 
L 265.594394 127.98 
L 265.921556 121.68 
L 265.927176 115.38 
L 266.04453 115.38 
L 266.304919 127.98 
L 266.450988 121.68 
L 266.847464 121.68 
L 266.954024 127.98 
L 267.954745 127.98 
L 268.245592 115.38 
L 268.480197 109.08 
L 269.095815 109.08 
L 269.19734 115.38 
L 270.201365 115.38 
L 270.365824 109.08 
L 270.655454 121.68 
L 270.894539 115.38 
L 271.095735 115.38 
L 271.42133 121.68 
L 271.454056 127.98 
L 271.938158 127.98 
L 272.284677 121.68 
L 272.346989 115.38 
L 272.767002 115.38 
L 272.803404 121.68 
L 273.230621 121.68 
L 273.326721 115.38 
L 273.549725 121.68 
L 274.188095 127.98 
L 274.32533 127.98 
L 274.494484 134.28 
L 275.212035 134.28 
L 275.24094 127.98 
L 275.440768 127.98 
L 275.732015 121.68 
L 275.854045 115.38 
L 276.711348 115.38 
L 276.793452 109.08 
L 277.205349 102.78 
L 278.338271 102.78 
L 278.583142 90.18 
L 278.646591 96.48 
L 278.832118 102.78 
L 279.686858 102.78 
L 279.743219 109.08 
L 279.983861 109.08 
L 280.033174 102.78 
L 280.433424 96.48 
L 280.818442 96.48 
L 281.182534 90.18 
L 281.232096 96.48 
L 281.554204 102.78 
L 281.589898 109.08 
L 281.74353 102.78 
L 281.943863 102.78 
L 282.105375 109.08 
L 282.256052 109.08 
L 282.266372 102.78 
L 282.972782 109.08 
L 283.149589 109.08 
L 283.192161 102.78 
L 283.304968 109.08 
L 283.446968 102.78 
L 284.499558 102.78 
L 284.502655 96.48 
L 285.292778 102.78 
L 285.763149 109.08 
L 287.024561 109.08 
L 287.302736 115.38 
L 287.432082 121.68 
L 288.105419 121.68 
L 288.19545 115.38 
L 288.75513 109.08 
L 288.874384 115.38 
L 288.900247 115.38 
L 288.994352 121.68 
L 289.19943 109.08 
L 289.488387 109.08 
L 290.375611 121.68 
L 290.39652 127.98 
L 290.725063 127.98 
L 290.904463 121.68 
L 290.913861 115.38 
L 291.091372 115.38 
L 291.404115 127.98 
L 291.456861 121.68 
L 293.39149 121.68 
L 293.403829 127.98 
L 293.431697 121.68 
L 293.800069 127.98 
L 294.623361 127.98 
L 294.649248 134.28 
L 295.122501 140.58 
L 295.296414 140.58 
L 295.616275 134.28 
L 295.99546 140.58 
L 296.171003 140.58 
L 296.180769 146.88 
L 296.465823 134.28 
L 296.785429 127.98 
L 297.026243 127.98 
L 297.058625 121.68 
L 297.138636 127.98 
L 297.613876 127.98 
L 297.684718 134.28 
L 297.864572 127.98 
L 298.571242 127.98 
L 298.761745 134.28 
L 299.887147 134.28 
L 299.961466 140.58 
L 301.809469 140.58 
L 301.855126 146.88 
L 302.207135 146.88 
L 302.238882 153.18 
L 302.649934 159.48 
L 303.148547 159.48 
L 304.607732 165.78 
L 305.94136 165.78 
L 306.203421 172.08 
L 306.373357 172.08 
L 306.47509 165.78 
L 306.621516 165.78 
L 306.652115 172.08 
L 306.984414 165.78 
L 307.122087 165.78 
L 307.273874 159.48 
L 307.275872 165.78 
L 307.893286 165.78 
L 308.060921 172.08 
L 309.739892 172.08 
L 309.906213 165.78 
L 310.275126 165.78 
L 310.474879 172.08 
L 310.495246 178.38 
L 310.571672 172.08 
L 310.632488 178.38 
L 311.09887 178.38 
L 311.308541 165.78 
L 311.887448 165.78 
L 311.957282 159.48 
L 312.889928 159.48 
L 312.993178 165.78 
L 313.570784 165.78 
L 313.754539 153.18 
L 314.673927 153.18 
L 315.129818 146.88 
L 315.849794 146.88 
L 315.904524 153.18 
L 316.916366 153.18 
L 317.187922 165.78 
L 317.272743 159.48 
L 317.524335 159.48 
L 317.582937 153.18 
L 317.851362 153.18 
L 317.907245 146.88 
L 318.854389 153.18 
L 319.531575 153.18 
L 319.563266 146.88 
L 319.705278 146.88 
L 319.721733 140.58 
L 321.040234 140.58 
L 321.797249 153.18 
L 322.16655 146.88 
L 322.220987 146.88 
L 322.247603 140.58 
L 322.359404 146.88 
L 322.660408 146.88 
L 323.045326 153.18 
L 323.391808 153.18 
L 323.839646 159.48 
L 324.195584 159.48 
L 324.503686 165.78 
L 324.643057 165.78 
L 324.72933 159.48 
L 325.138456 165.78 
L 325.448202 165.78 
L 325.501577 172.08 
L 325.80717 172.08 
L 325.877234 165.78 
L 327.475205 165.78 
L 327.557877 153.18 
L 328.496696 153.18 
L 328.547834 146.88 
L 329.29311 146.88 
L 329.417367 140.58 
L 329.461315 146.88 
L 329.804028 146.88 
L 330.028038 153.18 
L 330.79837 153.18 
L 330.853522 159.48 
L 331.035515 159.48 
L 331.226911 153.18 
L 331.649734 153.18 
L 331.810614 146.88 
L 332.05484 146.88 
L 332.085227 140.58 
L 333.332709 140.58 
L 333.569864 134.28 
L 333.678056 140.58 
L 333.867959 140.58 
L 334.045259 146.88 
L 334.194894 140.58 
L 334.250195 146.88 
L 335.473594 153.18 
L 335.479329 159.48 
L 335.607093 159.48 
L 335.944481 153.18 
L 335.973321 159.48 
L 336.011185 153.18 
L 336.3126 159.48 
L 337.049156 159.48 
L 337.654882 178.38 
L 337.827697 178.38 
L 338.083175 172.08 
L 338.349197 178.38 
L 338.384773 184.68 
L 340.430943 184.68 
L 340.733716 178.38 
L 341.087061 178.38 
L 341.161583 184.68 
L 344.092654 184.68 
L 344.147484 178.38 
L 344.425216 178.38 
L 344.888705 172.08 
L 344.970986 165.78 
L 346.010437 165.78 
L 346.269645 159.48 
L 346.387618 165.78 
L 346.455838 159.48 
L 346.803025 159.48 
L 346.807293 165.78 
L 347.328826 165.78 
L 347.409066 172.08 
L 349.79109 172.08 
L 349.946148 165.78 
L 350.058713 165.78 
L 350.446796 172.08 
L 350.713864 172.08 
L 351.684271 178.38 
L 352.902639 178.38 
L 352.985104 184.68 
L 353.079707 178.38 
L 353.534834 172.08 
L 354.048452 184.68 
L 355.0544 184.68 
L 355.18437 172.08 
L 355.74652 178.38 
L 356.244708 178.38 
L 356.460318 172.08 
L 357.400983 178.38 
L 357.943181 184.68 
L 360.952368 184.68 
L 360.981288 178.38 
L 361.273183 178.38 
L 361.283462 184.68 
L 361.383981 178.38 
L 362.608187 178.38 
L 362.6912 172.08 
L 362.998899 178.38 
L 363.239723 178.38 
L 363.314222 184.68 
L 363.362419 178.38 
L 363.555495 178.38 
L 364.132851 184.68 
L 366.081022 184.68 
L 366.098357 178.38 
L 366.22437 178.38 
L 367.918728 184.68 
L 368.903102 184.68 
L 369.148122 178.38 
L 369.564543 184.68 
L 369.741465 184.68 
L 370.281764 178.38 
L 370.378896 172.08 
L 370.765101 172.08 
L 370.795678 165.78 
L 370.922816 165.78 
L 371.408474 172.08 
L 371.590593 178.38 
L 371.810087 172.08 
L 371.85313 178.38 
L 372.995168 184.68 
L 375.218241 184.68 
L 375.685866 178.38 
L 375.864775 178.38 
L 376.441412 184.68 
L 377.847124 184.68 
L 378.141216 172.08 
L 378.152522 178.38 
L 378.454089 178.38 
L 378.609695 172.08 
L 379.018114 172.08 
L 379.723069 178.38 
L 380.024926 178.38 
L 380.186597 172.08 
L 380.549976 172.08 
L 380.713685 165.78 
L 381.056314 165.78 
L 381.119261 172.08 
L 382.279688 172.08 
L 383.084371 178.38 
L 384.349844 178.38 
L 384.373931 184.68 
L 384.404416 178.38 
L 384.533453 184.68 
L 384.791681 184.68 
L 384.805521 178.38 
L 385.211316 178.38 
L 385.550004 172.08 
L 385.787268 172.08 
L 385.860984 165.78 
L 386.188831 165.78 
L 386.20629 159.48 
L 386.83081 159.48 
L 386.965364 153.18 
L 387.374271 153.18 
L 387.413901 146.88 
L 388.616538 146.88 
L 388.868322 159.48 
L 389.135447 159.48 
L 389.305615 146.88 
L 389.448724 146.88 
L 389.504409 140.58 
L 390.129305 146.88 
L 391.021737 146.88 
L 391.192641 153.18 
L 392.769471 153.18 
L 392.860391 159.48 
L 393.008273 153.18 
L 393.248456 153.18 
L 393.388726 146.88 
L 393.401201 153.18 
L 393.786232 165.78 
L 393.943006 165.78 
L 394.000742 172.08 
L 394.146459 165.78 
L 394.195471 172.08 
L 394.620853 178.38 
L 394.976914 172.08 
L 395.946181 172.08 
L 396.038325 165.78 
L 396.210627 172.08 
L 396.432733 165.78 
L 396.535862 159.48 
L 396.685911 165.78 
L 397.216527 165.78 
L 397.365506 159.48 
L 397.516391 165.78 
L 397.837731 165.78 
L 397.954198 159.48 
L 398.19938 159.48 
L 398.259813 165.78 
L 398.494537 165.78 
L 398.945685 159.48 
L 399.079832 165.78 
L 401.22184 165.78 
L 401.26526 172.08 
L 401.4584 178.38 
L 401.668351 178.38 
L 401.726251 184.68 
L 405.801484 184.68 
L 406.184409 178.38 
L 406.651506 178.38 
L 407.068353 172.08 
L 407.496082 172.08 
L 407.700859 178.38 
L 407.931285 184.68 
L 408.330123 184.68 
L 408.361081 178.38 
L 408.793974 184.68 
L 409.183436 184.68 
L 409.269298 178.38 
L 409.743003 184.68 
L 410.162177 184.68 
L 410.359929 178.38 
L 410.866091 184.68 
L 414.710924 184.68 
L 414.958578 178.38 
L 416.331531 178.38 
L 416.499971 165.78 
L 417.415272 165.78 
L 417.758457 153.18 
L 417.869036 159.48 
L 418.160527 159.48 
L 418.175289 153.18 
L 418.519262 153.18 
L 418.806353 165.78 
L 418.916928 159.48 
L 419.101257 159.48 
L 419.228027 165.78 
L 419.371536 172.08 
L 419.403837 165.78 
L 419.52483 172.08 
L 419.98486 172.08 
L 419.985482 178.38 
L 420.159929 178.38 
L 420.45641 184.68 
L 420.901471 184.68 
L 420.993547 178.38 
L 421.417167 178.38 
L 421.527809 172.08 
L 422.422807 178.38 
L 423.10636 184.68 
L 423.622181 184.68 
L 423.689349 178.38 
L 423.862552 172.08 
L 423.87194 165.78 
L 424.220193 165.78 
L 424.399357 172.08 
L 424.759374 172.08 
L 424.759672 165.78 
L 425.002452 165.78 
L 425.021477 172.08 
L 425.80196 172.08 
L 426.325709 165.78 
L 426.688686 165.78 
L 427.098122 172.08 
L 427.269645 178.38 
L 427.445163 178.38 
L 427.522694 172.08 
L 427.732808 178.38 
L 428.930544 178.38 
L 430.064312 184.68 
L 433.746389 184.68 
L 433.866013 178.38 
L 434.100965 178.38 
L 434.27049 184.68 
L 435.395689 184.68 
L 435.853146 178.38 
L 436.126203 178.38 
L 436.301884 172.08 
L 436.807677 178.38 
L 437.753772 178.38 
L 437.89591 172.08 
L 438.058452 172.08 
L 438.177722 165.78 
L 438.808099 165.78 
L 439.337045 172.08 
L 439.524792 184.68 
L 439.802336 178.38 
L 439.913409 178.38 
L 440.427789 172.08 
L 440.857446 178.38 
L 441.018339 178.38 
L 441.236394 172.08 
L 441.485649 172.08 
L 442.039244 165.78 
L 442.636602 165.78 
L 442.752387 172.08 
L 443.245959 172.08 
L 444.239668 178.38 
L 445.071171 184.68 
L 447.492738 184.68 
L 447.514655 178.38 
L 447.64546 184.68 
L 450.08492 184.68 
L 450.184421 178.38 
L 450.299985 178.38 
L 450.525946 184.68 
L 452.626455 184.68 
L 452.672349 178.38 
L 453.407023 184.68 
L 453.870446 184.68 
L 453.947473 178.38 
L 454.834544 178.38 
L 455.086869 184.68 
L 455.193027 178.38 
L 455.340398 184.68 
L 455.596241 184.68 
L 455.649265 178.38 
L 455.778721 184.68 
L 456.112235 184.68 
L 456.331448 178.38 
L 456.570735 178.38 
L 456.60224 184.68 
L 457.269206 184.68 
L 457.325345 178.38 
L 457.728277 178.38 
L 457.773601 184.68 
L 458.432573 178.38 
L 459.093955 178.38 
L 459.381292 172.08 
L 459.666911 172.08 
L 460.254588 178.38 
L 460.521849 178.38 
L 460.77731 184.68 
L 460.960599 184.68 
L 461.055453 172.08 
L 461.592022 178.38 
L 462.221214 178.38 
L 462.274699 184.68 
L 464.238923 184.68 
L 464.289697 178.38 
L 464.377094 184.68 
L 464.703172 184.68 
L 464.74517 178.38 
L 465.360593 178.38 
L 465.613839 184.68 
L 466.543778 184.68 
L 466.577571 178.38 
L 466.752539 184.68 
L 468.891456 184.68 
L 468.98825 178.38 
L 469.728014 178.38 
L 470.059719 184.68 
L 470.476477 184.68 
L 470.629881 178.38 
L 471.142039 178.38 
L 471.163254 172.08 
L 471.217968 178.38 
L 471.450868 178.38 
L 471.464587 165.78 
L 471.809733 165.78 
L 472.078535 172.08 
L 472.228308 178.38 
L 472.769264 178.38 
L 472.903742 184.68 
L 473.15818 184.68 
L 473.198409 178.38 
L 473.899926 184.68 
L 474.425039 184.68 
L 474.504387 178.38 
L 475.019026 178.38 
L 475.231365 184.68 
L 476.602695 184.68 
L 477.029904 172.08 
L 477.204036 172.08 
L 477.233229 165.78 
L 479.218209 165.78 
L 479.305012 172.08 
L 480.059207 172.08 
L 480.380298 178.38 
L 480.420466 178.38 
L 480.60764 172.08 
L 481.559623 172.08 
L 481.940086 165.78 
L 481.964869 178.38 
L 482.053192 172.08 
L 482.305884 178.38 
L 483.057872 178.38 
L 483.82429 184.68 
L 486.293273 184.68 
L 486.429786 178.38 
L 486.554339 178.38 
L 486.998757 184.68 
L 487.525806 184.68 
L 487.637355 178.38 
L 488.114601 178.38 
L 488.191351 172.08 
L 489.010864 172.08 
L 489.15087 184.68 
L 489.176718 178.38 
L 489.428418 178.38 
L 489.573817 172.08 
L 489.842152 178.38 
L 490.195241 178.38 
L 490.551404 184.68 
L 490.555208 178.38 
L 490.777482 172.08 
L 490.977195 172.08 
L 491.122729 165.78 
L 492.794572 165.78 
L 493.060634 172.08 
L 493.080805 172.08 
L 493.285712 178.38 
L 493.43067 178.38 
L 493.832559 159.48 
L 493.934633 165.78 
L 494.037786 153.18 
L 494.513298 153.18 
L 494.52422 146.88 
L 496.041631 146.88 
L 496.234941 140.58 
L 496.511454 140.58 
L 496.574339 146.88 
L 496.7858 140.58 
L 496.856456 146.88 
L 496.992057 140.58 
L 497.254362 140.58 
L 497.293273 146.88 
L 497.457503 140.58 
L 498.171386 146.88 
L 498.813604 146.88 
L 498.856489 153.18 
L 499.26638 153.18 
L 499.751883 146.88 
L 500.091178 146.88 
L 500.182056 159.48 
L 500.617401 159.48 
L 500.622253 153.18 
L 500.764041 159.48 
L 501.397651 159.48 
L 501.580948 153.18 
L 502.090627 159.48 
L 502.234376 153.18 
L 502.516253 159.48 
L 502.527659 165.78 
L 503.324628 172.08 
L 503.447967 178.38 
L 504.948235 178.38 
L 505.306847 172.08 
L 505.786686 172.08 
L 505.80934 165.78 
L 507.63105 165.78 
L 508.074294 172.08 
L 509.984256 172.08 
L 510.129161 165.78 
L 510.247845 165.78 
L 510.841436 159.48 
L 510.850111 153.18 
L 511.171725 153.18 
L 511.187281 146.88 
L 511.318599 146.88 
L 511.442012 140.58 
L 511.463857 146.88 
L 511.93855 146.88 
L 511.945977 140.58 
L 512.118173 146.88 
L 513.083814 146.88 
L 513.128994 153.18 
L 513.53929 146.88 
L 513.666584 153.18 
L 513.988375 153.18 
L 514.219211 159.48 
L 514.495849 159.48 
L 514.690135 153.18 
L 515.062974 146.88 
L 515.155086 140.58 
L 516.221393 140.58 
L 516.38594 146.88 
L 517.029346 146.88 
L 517.210176 134.28 
L 518.35875 140.58 
L 518.514695 153.18 
L 519.095287 153.18 
L 519.165021 146.88 
L 519.557665 146.88 
L 519.68722 140.58 
L 520.374572 140.58 
L 520.503615 146.88 
L 522.093806 146.88 
L 522.215533 153.18 
L 522.337897 153.18 
L 522.37302 159.48 
L 522.558713 146.88 
L 523.042678 146.88 
L 523.147746 140.58 
L 523.762743 140.58 
L 523.803079 146.88 
L 524.361152 146.88 
L 524.82034 153.18 
L 525.466031 153.18 
L 525.488854 146.88 
L 526.36622 146.88 
L 526.486231 140.58 
L 527.580844 140.58 
L 527.811285 134.28 
L 528.533989 134.28 
L 528.914105 140.58 
L 529.781647 140.58 
L 529.835661 146.88 
L 530.232053 140.58 
L 530.828862 140.58 
L 531.009595 146.88 
L 531.058441 140.58 
L 531.188054 146.88 
L 531.351498 140.58 
L 532.044449 146.88 
L 532.27474 146.88 
L 532.325507 140.58 
L 533.064699 140.58 
L 533.12425 146.88 
L 533.308873 140.58 
L 533.732655 140.58 
L 533.825773 134.28 
L 533.877471 140.58 
L 535.091663 140.58 
L 535.282182 146.88 
L 535.736426 146.88 
L 535.897917 140.58 
L 537.237615 140.58 
L 537.481142 146.88 
L 537.620387 134.28 
L 538.025675 140.58 
L 540.329356 140.58 
L 540.882234 134.28 
L 541.118519 134.28 
L 541.229338 127.98 
L 541.541613 127.98 
L 541.983228 115.38 
L 542.162874 109.08 
L 543.77724 109.08 
L 544.037205 102.78 
L 545.122937 109.08 
L 545.208164 115.38 
L 546.626997 115.38 
L 546.768759 121.68 
L 546.904694 115.38 
L 546.927032 121.68 
L 547.005137 115.38 
L 547.274012 115.38 
L 547.277299 121.68 
L 547.30549 115.38 
L 547.517797 115.38 
L 547.638334 121.68 
L 548.826331 127.98 
L 548.927858 134.28 
L 549.174847 134.28 
L 549.571147 140.58 
L 550.147872 140.58 
L 550.23332 134.28 
L 551.046196 134.28 
L 551.075526 121.68 
L 551.270292 115.38 
L 553.150526 115.38 
L 553.262841 109.08 
L 554.122627 109.08 
L 554.151755 115.38 
L 554.286176 115.38 
L 554.4589 109.08 
L 554.734002 109.08 
L 554.765207 115.38 
L 554.788999 109.08 
L 555.042914 109.08 
L 555.06063 115.38 
L 555.29576 121.68 
L 556.330021 121.68 
L 556.414935 109.08 
L 556.455385 109.08 
L 556.789943 115.38 
L 557.421979 115.38 
L 557.608306 102.78 
L 557.926014 102.78 
L 558.107567 96.48 
L 558.178396 96.48 
L 558.33783 102.78 
L 558.450352 96.48 
L 558.835691 90.18 
L 559.590074 90.18 
L 559.776478 96.48 
L 559.958351 102.78 
L 559.98389 96.48 
L 560.372727 96.48 
L 560.372727 96.48 
" clip-path="url(#p8d1e24234b)" style="fill: none; stroke: #fa7100; stroke-width: 0.7; stroke-linecap: square"/>
   </g>
   <g id="line2d_32">
    <path d="M 103.827273 184.68 
L 105.201604 184.68 
L 105.21402 178.38 
L 105.37274 178.38 
L 105.572771 172.08 
L 105.948863 172.08 
L 106.307416 178.38 
L 106.543766 184.68 
L 107.286322 184.68 
L 108.235475 178.38 
L 108.479362 184.68 
L 108.534455 178.38 
L 108.990598 184.68 
L 109.543963 184.68 
L 109.568211 178.38 
L 111.019305 178.38 
L 111.403151 184.68 
L 111.675037 178.38 
L 111.675795 184.68 
L 114.925512 184.68 
L 115.013636 178.38 
L 115.096076 184.68 
L 115.330535 184.68 
L 115.513601 178.38 
L 116.030795 178.38 
L 116.208336 172.08 
L 116.716211 178.38 
L 117.348601 184.68 
L 119.175353 184.68 
L 119.653667 178.38 
L 121.086792 178.38 
L 121.228533 172.08 
L 121.284598 178.38 
L 121.3022 172.08 
L 121.879261 172.08 
L 121.885289 165.78 
L 122.022101 159.48 
L 122.47637 165.78 
L 124.488001 165.78 
L 124.640242 159.48 
L 126.204771 159.48 
L 126.465806 165.78 
L 127.004493 165.78 
L 127.074779 172.08 
L 127.440836 172.08 
L 127.554638 165.78 
L 127.75063 165.78 
L 127.889557 172.08 
L 128.016458 172.08 
L 128.104495 165.78 
L 129.683184 165.78 
L 129.924213 153.18 
L 129.93926 153.18 
L 130.050814 140.58 
L 130.669904 140.58 
L 130.701103 146.88 
L 131.685416 146.88 
L 131.732877 140.58 
L 132.329446 140.58 
L 132.494275 134.28 
L 133.069317 134.28 
L 133.12676 140.58 
L 133.31591 140.58 
L 134.006736 153.18 
L 134.082065 159.48 
L 134.163575 159.48 
L 134.241136 153.18 
L 135.805434 153.18 
L 135.914145 146.88 
L 136.606365 159.48 
L 136.766552 159.48 
L 137.022374 165.78 
L 137.242949 165.78 
L 137.359013 159.48 
L 137.360465 165.78 
L 137.511619 159.48 
L 137.918424 159.48 
L 138.043363 153.18 
L 138.366002 159.48 
L 138.518448 165.78 
L 142.324374 165.78 
L 142.464148 146.88 
L 143.309743 146.88 
L 143.397309 140.58 
L 143.637656 140.58 
L 144.06853 153.18 
L 144.111553 165.78 
L 144.283155 165.78 
L 144.469859 159.48 
L 144.927242 165.78 
L 145.955504 165.78 
L 145.965308 159.48 
L 146.745291 165.78 
L 147.029953 159.48 
L 147.738281 172.08 
L 148.285144 172.08 
L 148.289451 178.38 
L 148.5813 184.68 
L 149.305281 184.68 
L 149.407491 178.38 
L 149.522217 178.38 
L 149.558932 184.68 
L 149.889874 184.68 
L 150.002928 178.38 
L 150.125303 178.38 
L 150.292702 184.68 
L 152.116386 184.68 
L 152.198492 178.38 
L 152.87433 178.38 
L 153.182183 172.08 
L 153.544982 172.08 
L 154.038148 178.38 
L 154.225031 178.38 
L 154.561668 184.68 
L 155.568678 184.68 
L 155.632419 178.38 
L 156.06132 184.68 
L 156.165436 178.38 
L 156.255815 184.68 
L 158.538212 184.68 
L 158.657172 178.38 
L 159.137136 178.38 
L 159.145493 184.68 
L 160.384753 184.68 
L 160.458726 178.38 
L 160.904178 178.38 
L 160.982504 172.08 
L 161.178571 172.08 
L 161.197984 165.78 
L 161.662146 165.78 
L 161.716136 184.68 
L 161.779868 178.38 
L 161.871895 172.08 
L 162.006946 178.38 
L 162.383964 178.38 
L 163.036143 165.78 
L 163.482148 165.78 
L 163.657284 159.48 
L 163.658629 165.78 
L 164.003498 165.78 
L 164.128525 172.08 
L 164.284469 172.08 
L 164.361168 165.78 
L 164.605609 165.78 
L 164.902185 178.38 
L 165.373014 178.38 
L 165.411778 184.68 
L 165.44443 178.38 
L 165.522499 178.38 
L 165.814457 184.68 
L 166.611998 184.68 
L 166.781294 178.38 
L 166.805269 184.68 
L 167.025452 178.38 
L 167.181692 178.38 
L 167.75912 184.68 
L 168.845855 184.68 
L 168.853395 178.38 
L 168.932824 184.68 
L 169.637696 184.68 
L 170.022624 178.38 
L 170.594056 178.38 
L 170.624385 172.08 
L 170.652366 178.38 
L 171.249359 178.38 
L 171.294272 172.08 
L 171.761683 178.38 
L 172.636049 178.38 
L 172.897076 172.08 
L 173.23229 178.38 
L 173.662155 178.38 
L 174.331291 184.68 
L 175.345728 184.68 
L 175.497845 178.38 
L 176.28183 184.68 
L 176.805933 184.68 
L 176.861983 178.38 
L 177.642275 178.38 
L 177.673578 172.08 
L 178.023518 178.38 
L 178.047388 172.08 
L 178.323279 178.38 
L 178.34554 184.68 
L 182.626574 184.68 
L 182.678924 178.38 
L 182.772778 184.68 
L 186.588988 184.68 
L 186.786717 178.38 
L 187.555774 178.38 
L 189.001184 184.68 
L 189.949667 184.68 
L 190.362312 172.08 
L 190.494221 178.38 
L 191.043762 178.38 
L 191.217605 184.68 
L 191.7414 184.68 
L 191.886824 178.38 
L 192.118351 184.68 
L 192.250561 178.38 
L 192.982715 178.38 
L 193.082557 184.68 
L 193.567167 184.68 
L 193.602306 178.38 
L 193.922727 178.38 
L 193.975477 172.08 
L 194.073684 178.38 
L 195.058446 178.38 
L 195.118685 184.68 
L 195.422595 178.38 
L 196.271857 178.38 
L 196.357452 184.68 
L 197.471367 184.68 
L 197.539101 178.38 
L 197.897869 178.38 
L 197.922455 184.68 
L 198.064164 184.68 
L 198.385691 178.38 
L 198.411459 184.68 
L 200.118406 184.68 
L 200.562562 172.08 
L 200.680565 165.78 
L 201.007804 165.78 
L 201.071945 172.08 
L 201.164941 165.78 
L 201.274677 172.08 
L 201.673667 172.08 
L 201.939303 178.38 
L 202.21035 178.38 
L 202.291895 172.08 
L 202.294667 178.38 
L 202.440405 184.68 
L 202.761043 184.68 
L 202.766955 178.38 
L 202.77421 184.68 
L 203.164569 184.68 
L 203.370438 178.38 
L 203.410465 178.38 
L 203.605711 172.08 
L 204.085594 178.38 
L 205.411825 178.38 
L 205.453913 172.08 
L 205.55964 178.38 
L 205.724624 178.38 
L 205.904166 172.08 
L 206.035878 178.38 
L 206.785128 178.38 
L 206.835022 172.08 
L 207.315785 172.08 
L 207.689772 178.38 
L 207.882832 178.38 
L 208.16 172.08 
L 208.363432 178.38 
L 208.579913 178.38 
L 208.719963 172.08 
L 209.150673 172.08 
L 209.8577 165.78 
L 209.862157 172.08 
L 210.483115 178.38 
L 210.945719 178.38 
L 210.986329 184.68 
L 211.339281 178.38 
L 211.592001 178.38 
L 211.699833 184.68 
L 212.145572 184.68 
L 212.170236 178.38 
L 213.134395 178.38 
L 213.349883 184.68 
L 213.441185 178.38 
L 213.998114 178.38 
L 214.868649 184.68 
L 215.541703 184.68 
L 215.552814 178.38 
L 215.993396 184.68 
L 216.867022 184.68 
L 216.994215 178.38 
L 217.28642 178.38 
L 217.317733 172.08 
L 218.256474 178.38 
L 218.45648 178.38 
L 218.586848 184.68 
L 219.079488 184.68 
L 219.099495 178.38 
L 219.274999 178.38 
L 219.401428 184.68 
L 219.634448 184.68 
L 219.701062 178.38 
L 220.010501 172.08 
L 220.214846 172.08 
L 220.307914 178.38 
L 220.625305 184.68 
L 221.657795 184.68 
L 221.968975 178.38 
L 222.252869 178.38 
L 222.540679 172.08 
L 222.614249 172.08 
L 222.671925 184.68 
L 223.022221 184.68 
L 223.464008 178.38 
L 224.192051 178.38 
L 224.313382 184.68 
L 224.858119 184.68 
L 225.062381 178.38 
L 225.143985 184.68 
L 225.678066 184.68 
L 225.680972 178.38 
L 225.975968 178.38 
L 226.452938 184.68 
L 227.570303 184.68 
L 227.638832 178.38 
L 228.433752 178.38 
L 228.547385 172.08 
L 228.842979 165.78 
L 228.911801 172.08 
L 229.622096 172.08 
L 229.697591 184.68 
L 232.31402 184.68 
L 232.405106 178.38 
L 232.749463 184.68 
L 237.654576 184.68 
L 237.746084 178.38 
L 238.034536 184.68 
L 238.701714 184.68 
L 238.743963 178.38 
L 238.875539 184.68 
L 239.597832 184.68 
L 239.605455 178.38 
L 240.042079 184.68 
L 241.086712 184.68 
L 241.153188 178.38 
L 241.172925 184.68 
L 243.162972 184.68 
L 243.233622 178.38 
L 243.426695 172.08 
L 243.45095 178.38 
L 243.88548 184.68 
L 245.482163 184.68 
L 245.770264 178.38 
L 246.53717 178.38 
L 246.810826 184.68 
L 247.198949 184.68 
L 247.42209 178.38 
L 247.699196 184.68 
L 249.080451 184.68 
L 249.266486 172.08 
L 250.714659 172.08 
L 250.938299 178.38 
L 251.068743 172.08 
L 251.15786 165.78 
L 251.260482 172.08 
L 252.027434 172.08 
L 252.058161 165.78 
L 253.611227 165.78 
L 253.690807 159.48 
L 254.387234 165.78 
L 255.235037 165.78 
L 255.263062 159.48 
L 255.670214 178.38 
L 255.759946 172.08 
L 256.26738 172.08 
L 256.344008 165.78 
L 256.406241 172.08 
L 257.255008 172.08 
L 257.309745 178.38 
L 257.489863 178.38 
L 257.642188 165.78 
L 258.429084 172.08 
L 258.553694 172.08 
L 258.997812 159.48 
L 259.26941 159.48 
L 259.484803 153.18 
L 259.69953 153.18 
L 259.745295 146.88 
L 259.967753 134.28 
L 260.495147 146.88 
L 260.553066 153.18 
L 260.931168 146.88 
L 260.977514 153.18 
L 261.490074 159.48 
L 261.759687 159.48 
L 261.911542 165.78 
L 262.038573 159.48 
L 262.039839 165.78 
L 263.736642 165.78 
L 264.013843 172.08 
L 264.956167 172.08 
L 264.978193 178.38 
L 265.235326 178.38 
L 265.293397 172.08 
L 265.927176 172.08 
L 266.119216 178.38 
L 266.450988 178.38 
L 266.571045 184.68 
L 266.57757 178.38 
L 266.954024 184.68 
L 267.241422 178.38 
L 267.471088 184.68 
L 267.572001 178.38 
L 268.194057 178.38 
L 268.245592 184.68 
L 269.19734 184.68 
L 269.558183 178.38 
L 269.76875 184.68 
L 270.111062 184.68 
L 270.268273 172.08 
L 270.365824 178.38 
L 270.894539 178.38 
L 271.095735 172.08 
L 272.535142 172.08 
L 272.574808 165.78 
L 272.803404 165.78 
L 272.914855 159.48 
L 274.188095 159.48 
L 274.32533 153.18 
L 274.494484 153.18 
L 275.028702 159.48 
L 275.854045 159.48 
L 276.439833 165.78 
L 276.68071 165.78 
L 276.793452 172.08 
L 277.421004 172.08 
L 277.433688 165.78 
L 277.671432 165.78 
L 277.747706 172.08 
L 277.994124 165.78 
L 278.326454 165.78 
L 278.430056 172.08 
L 278.646591 184.68 
L 279.260414 184.68 
L 279.494655 178.38 
L 279.743219 178.38 
L 279.963692 172.08 
L 280.033174 178.38 
L 280.433424 178.38 
L 280.818442 184.68 
L 281.83426 184.68 
L 281.943863 178.38 
L 282.039862 178.38 
L 282.070254 184.68 
L 282.105375 178.38 
L 282.266372 172.08 
L 283.446968 172.08 
L 283.667692 178.38 
L 284.26183 184.68 
L 288.039808 184.68 
L 288.086287 178.38 
L 288.105419 184.68 
L 288.768693 184.68 
L 288.820231 178.38 
L 288.874384 184.68 
L 288.909861 184.68 
L 288.994352 178.38 
L 289.19943 178.38 
L 289.403258 184.68 
L 289.488387 178.38 
L 290.723846 178.38 
L 290.725063 184.68 
L 293.00736 184.68 
L 293.319507 178.38 
L 293.431697 172.08 
L 295.052624 172.08 
L 295.122501 178.38 
L 295.296414 172.08 
L 295.99546 172.08 
L 296.180769 178.38 
L 296.763155 178.38 
L 296.785429 184.68 
L 297.674676 184.68 
L 297.684718 178.38 
L 297.864572 178.38 
L 298.322387 184.68 
L 298.470364 178.38 
L 298.571242 172.08 
L 298.761745 172.08 
L 299.690299 178.38 
L 299.719108 172.08 
L 299.961466 178.38 
L 300.262465 184.68 
L 301.855126 184.68 
L 302.094262 178.38 
L 302.585553 178.38 
L 302.747131 165.78 
L 302.984857 165.78 
L 303.148547 159.48 
L 304.991952 159.48 
L 305.07113 165.78 
L 305.322699 153.18 
L 305.508846 153.18 
L 305.639815 146.88 
L 305.707132 146.88 
L 305.94136 153.18 
L 306.47509 153.18 
L 306.652115 159.48 
L 306.984414 159.48 
L 307.188995 153.18 
L 307.275872 153.18 
L 307.615389 146.88 
L 307.835361 153.18 
L 307.893286 159.48 
L 308.736247 159.48 
L 308.778265 153.18 
L 309.278644 159.48 
L 310.632488 159.48 
L 310.784403 165.78 
L 311.047013 165.78 
L 311.159174 159.48 
L 311.911661 159.48 
L 311.957282 153.18 
L 312.478916 153.18 
L 312.518622 146.88 
L 312.788353 159.48 
L 312.993178 172.08 
L 313.246622 178.38 
L 313.754539 178.38 
L 313.826499 184.68 
L 315.666943 184.68 
L 315.904524 178.38 
L 316.171431 172.08 
L 316.33099 178.38 
L 316.798224 178.38 
L 317.020658 184.68 
L 317.401088 184.68 
L 317.524335 178.38 
L 317.582937 178.38 
L 317.907245 184.68 
L 319.077741 184.68 
L 319.452452 178.38 
L 319.563266 178.38 
L 319.721733 184.68 
L 320.392609 184.68 
L 320.660074 178.38 
L 320.76175 172.08 
L 320.952661 172.08 
L 321.040234 178.38 
L 321.469412 178.38 
L 321.506709 184.68 
L 322.10279 184.68 
L 322.247603 178.38 
L 322.497619 178.38 
L 322.660408 184.68 
L 323.045326 184.68 
L 323.391808 178.38 
L 323.839646 178.38 
L 324.195584 184.68 
L 325.501577 184.68 
L 325.8166 178.38 
L 325.877234 184.68 
L 328.459817 184.68 
L 328.547834 172.08 
L 329.447952 172.08 
L 329.461315 178.38 
L 329.79364 172.08 
L 329.804028 178.38 
L 329.992785 178.38 
L 330.012154 172.08 
L 330.028038 178.38 
L 330.413071 172.08 
L 330.824942 172.08 
L 330.853522 178.38 
L 331.035515 172.08 
L 331.226911 172.08 
L 331.421413 165.78 
L 331.701185 165.78 
L 331.810614 178.38 
L 333.471333 178.38 
L 333.589102 184.68 
L 333.678056 178.38 
L 333.978293 184.68 
L 336.3126 184.68 
L 336.521614 178.38 
L 337.049156 184.68 
L 339.496797 184.68 
L 339.962955 178.38 
L 340.430943 184.68 
L 340.733716 184.68 
L 341.161583 178.38 
L 341.658245 178.38 
L 341.920045 172.08 
L 342.078525 172.08 
L 342.124757 165.78 
L 342.647891 172.08 
L 343.292272 178.38 
L 343.543512 178.38 
L 343.698659 184.68 
L 343.77285 178.38 
L 344.147484 178.38 
L 344.425216 184.68 
L 345.115826 184.68 
L 345.227193 178.38 
L 345.550612 172.08 
L 345.62292 178.38 
L 346.671012 178.38 
L 346.807293 172.08 
L 347.292614 172.08 
L 347.409066 165.78 
L 348.093944 165.78 
L 348.208392 159.48 
L 348.449986 159.48 
L 348.80267 165.78 
L 348.818025 172.08 
L 348.958699 165.78 
L 348.983896 172.08 
L 349.585742 172.08 
L 349.717263 178.38 
L 349.79109 165.78 
L 349.946148 165.78 
L 350.058713 172.08 
L 350.336847 172.08 
L 350.446796 178.38 
L 350.713864 184.68 
L 356.148663 184.68 
L 356.165431 178.38 
L 356.244708 184.68 
L 356.354845 184.68 
L 356.442762 178.38 
L 356.460318 184.68 
L 359.082612 184.68 
L 359.332055 178.38 
L 360.981288 184.68 
L 361.513814 184.68 
L 361.561826 178.38 
L 361.857113 184.68 
L 362.998899 184.68 
L 363.239723 178.38 
L 363.362419 178.38 
L 363.53128 184.68 
L 363.555495 178.38 
L 364.132851 178.38 
L 364.185437 184.68 
L 364.284571 178.38 
L 364.552315 178.38 
L 364.589178 184.68 
L 364.738726 178.38 
L 365.54502 178.38 
L 365.583389 184.68 
L 366.098357 178.38 
L 366.22437 184.68 
L 368.140392 184.68 
L 368.279425 178.38 
L 368.44007 184.68 
L 369.499075 184.68 
L 369.539028 178.38 
L 369.564543 184.68 
L 370.224046 184.68 
L 370.281764 178.38 
L 370.622264 178.38 
L 370.795678 184.68 
L 374.187441 184.68 
L 374.194717 178.38 
L 374.418704 184.68 
L 376.568746 184.68 
L 376.721589 178.38 
L 376.879942 165.78 
L 377.370676 172.08 
L 377.847124 184.68 
L 378.609695 184.68 
L 379.007183 178.38 
L 379.018114 184.68 
L 380.186597 184.68 
L 380.251299 172.08 
L 380.713685 172.08 
L 381.057612 146.88 
L 381.119261 153.18 
L 381.741003 159.48 
L 382.075745 172.08 
L 382.198404 172.08 
L 382.279688 165.78 
L 383.35364 165.78 
L 383.646044 159.48 
L 384.24493 159.48 
L 384.349844 153.18 
L 384.805521 153.18 
L 385.211316 159.48 
L 386.090996 159.48 
L 386.20629 165.78 
L 387.413901 165.78 
L 387.575086 153.18 
L 387.78123 159.48 
L 388.273389 159.48 
L 388.276492 153.18 
L 388.36469 159.48 
L 388.616538 165.78 
L 388.868322 165.78 
L 389.173001 159.48 
L 389.42426 159.48 
L 389.504409 165.78 
L 390.368927 165.78 
L 390.478396 159.48 
L 390.862692 159.48 
L 391.096163 153.18 
L 391.34203 165.78 
L 391.503872 165.78 
L 391.51611 172.08 
L 391.668887 165.78 
L 391.910891 165.78 
L 392.437045 159.48 
L 392.769471 165.78 
L 393.038866 165.78 
L 393.248456 159.48 
L 393.786232 159.48 
L 394.000742 165.78 
L 395.511152 165.78 
L 396.038325 172.08 
L 397.01744 172.08 
L 397.216527 178.38 
L 397.704102 178.38 
L 397.887799 172.08 
L 397.954198 172.08 
L 398.238525 165.78 
L 398.259813 172.08 
L 399.844563 172.08 
L 399.851839 165.78 
L 400.275247 172.08 
L 400.440318 172.08 
L 400.670532 165.78 
L 400.773623 172.08 
L 401.247325 172.08 
L 401.26526 165.78 
L 401.4584 165.78 
L 401.601416 153.18 
L 401.726251 165.78 
L 402.89024 172.08 
L 403.095688 184.68 
L 403.614945 184.68 
L 403.683408 178.38 
L 404.073873 184.68 
L 404.331521 184.68 
L 404.371093 178.38 
L 405.198675 184.68 
L 407.597363 184.68 
L 407.700859 178.38 
L 407.886852 178.38 
L 407.931285 172.08 
L 408.20879 178.38 
L 408.331132 184.68 
L 408.361081 178.38 
L 409.743003 178.38 
L 409.91092 184.68 
L 413.148345 184.68 
L 413.18624 178.38 
L 413.439518 178.38 
L 413.463857 172.08 
L 413.599158 184.68 
L 414.424197 178.38 
L 414.536373 184.68 
L 414.905501 184.68 
L 414.958578 178.38 
L 415.572063 184.68 
L 417.314421 184.68 
L 417.415272 178.38 
L 417.576985 178.38 
L 417.758457 172.08 
L 418.427153 172.08 
L 418.519262 165.78 
L 419.145183 165.78 
L 419.228027 159.48 
L 419.391667 159.48 
L 419.403837 165.78 
L 419.524211 165.78 
L 419.52483 172.08 
L 419.735524 172.08 
L 419.985482 165.78 
L 420.159929 172.08 
L 420.453706 172.08 
L 420.45641 165.78 
L 421.350355 178.38 
L 421.417167 184.68 
L 424.399357 184.68 
L 424.759672 178.38 
L 425.021477 172.08 
L 425.504581 178.38 
L 426.231153 178.38 
L 426.325709 184.68 
L 426.67848 184.68 
L 426.688686 178.38 
L 428.649951 178.38 
L 428.930544 172.08 
L 430.064312 172.08 
L 431.07894 178.38 
L 432.494018 178.38 
L 432.537525 172.08 
L 433.306099 172.08 
L 433.701923 165.78 
L 433.746389 172.08 
L 433.866013 172.08 
L 434.27049 184.68 
L 434.890031 184.68 
L 435.201483 178.38 
L 435.395689 184.68 
L 436.126161 184.68 
L 436.126203 178.38 
L 436.940901 178.38 
L 437.011104 184.68 
L 437.090215 178.38 
L 437.666291 178.38 
L 437.753772 184.68 
L 437.89591 184.68 
L 438.058452 178.38 
L 438.177722 178.38 
L 438.320609 184.68 
L 439.485224 184.68 
L 439.524792 178.38 
L 439.802336 178.38 
L 439.913409 184.68 
L 440.983777 184.68 
L 441.018339 178.38 
L 442.009595 178.38 
L 442.039244 184.68 
L 442.579728 184.68 
L 442.636602 178.38 
L 443.2241 178.38 
L 443.245959 172.08 
L 445.850901 172.08 
L 445.942709 165.78 
L 446.495377 172.08 
L 446.604932 178.38 
L 446.609594 172.08 
L 447.159079 178.38 
L 447.99931 178.38 
L 448.094141 184.68 
L 448.507954 178.38 
L 449.04883 184.68 
L 449.954349 184.68 
L 450.14345 178.38 
L 450.184421 184.68 
L 450.299985 178.38 
L 450.487722 178.38 
L 450.525946 184.68 
L 451.321489 184.68 
L 451.34015 178.38 
L 453.942679 178.38 
L 453.947473 184.68 
L 454.465163 178.38 
L 455.778721 178.38 
L 455.902644 184.68 
L 456.239871 184.68 
L 456.331448 178.38 
L 456.471587 184.68 
L 456.60224 178.38 
L 456.720068 184.68 
L 457.087773 184.68 
L 457.269206 178.38 
L 459.381292 178.38 
L 459.666911 184.68 
L 461.778938 184.68 
L 461.875365 178.38 
L 462.274699 184.68 
L 462.912508 184.68 
L 462.94324 178.38 
L 463.060901 184.68 
L 463.619194 184.68 
L 463.627283 178.38 
L 464.166876 178.38 
L 464.289697 184.68 
L 464.602143 184.68 
L 464.74517 178.38 
L 464.863828 184.68 
L 465.241408 184.68 
L 465.360593 178.38 
L 465.613839 178.38 
L 465.893019 184.68 
L 466.545697 184.68 
L 466.577571 178.38 
L 466.752539 178.38 
L 467.305032 184.68 
L 468.020964 184.68 
L 468.150039 178.38 
L 468.307877 178.38 
L 468.367027 184.68 
L 468.676074 178.38 
L 468.696993 184.68 
L 470.612583 184.68 
L 470.70813 172.08 
L 470.914772 178.38 
L 470.957483 172.08 
L 471.464587 172.08 
L 471.630936 165.78 
L 471.809733 172.08 
L 472.228308 172.08 
L 472.769264 178.38 
L 472.903742 178.38 
L 473.044799 184.68 
L 474.110128 184.68 
L 474.395603 178.38 
L 474.504387 184.68 
L 474.757087 178.38 
L 474.919269 165.78 
L 474.984757 165.78 
L 475.019026 159.48 
L 475.216455 159.48 
L 475.231365 165.78 
L 476.990447 165.78 
L 477.029904 159.48 
L 477.233229 165.78 
L 477.651455 172.08 
L 478.116749 172.08 
L 478.280782 178.38 
L 478.393879 172.08 
L 478.407361 178.38 
L 479.016305 178.38 
L 479.215128 172.08 
L 479.305012 178.38 
L 479.855441 178.38 
L 480.020907 165.78 
L 480.059207 159.48 
L 480.60764 159.48 
L 480.745824 153.18 
L 481.472579 159.48 
L 481.84762 159.48 
L 481.964869 153.18 
L 482.299616 153.18 
L 482.305884 159.48 
L 482.946872 165.78 
L 483.057872 172.08 
L 483.76957 172.08 
L 483.82429 165.78 
L 484.301496 165.78 
L 484.320614 159.48 
L 484.528877 165.78 
L 484.604047 159.48 
L 484.719824 159.48 
L 485.426862 165.78 
L 485.679705 172.08 
L 485.734826 165.78 
L 486.191716 172.08 
L 486.293273 178.38 
L 486.429786 178.38 
L 486.554339 184.68 
L 488.670245 184.68 
L 488.886115 178.38 
L 489.071808 184.68 
L 490.462885 184.68 
L 490.528773 178.38 
L 490.555208 184.68 
L 491.122729 184.68 
L 491.449883 178.38 
L 491.56224 178.38 
L 491.703511 165.78 
L 492.277664 165.78 
L 492.351734 178.38 
L 492.622056 178.38 
L 492.794572 172.08 
L 492.964277 172.08 
L 493.080805 159.48 
L 493.222314 159.48 
L 493.374814 153.18 
L 494.443499 153.18 
L 494.52422 159.48 
L 494.743181 153.18 
L 494.807638 146.88 
L 495.56013 153.18 
L 495.87133 153.18 
L 496.041631 140.58 
L 496.234941 140.58 
L 496.574339 153.18 
L 496.738798 153.18 
L 496.7858 159.48 
L 496.992057 159.48 
L 497.293273 165.78 
L 498.171386 165.78 
L 498.356434 172.08 
L 498.856489 178.38 
L 499.989003 178.38 
L 500.152011 172.08 
L 500.182056 178.38 
L 500.314444 178.38 
L 500.622253 172.08 
L 501.122619 172.08 
L 501.290741 178.38 
L 501.397651 172.08 
L 503.391786 172.08 
L 503.447967 178.38 
L 503.842476 178.38 
L 504.132548 172.08 
L 504.217503 178.38 
L 504.577849 178.38 
L 504.594607 184.68 
L 504.948235 178.38 
L 505.306847 178.38 
L 505.584933 172.08 
L 505.80934 172.08 
L 506.083253 165.78 
L 506.339621 172.08 
L 506.410727 165.78 
L 506.577309 172.08 
L 506.926066 172.08 
L 507.151916 165.78 
L 507.153424 172.08 
L 507.272823 178.38 
L 507.502014 178.38 
L 507.63105 172.08 
L 507.990144 172.08 
L 508.074294 178.38 
L 509.480313 178.38 
L 509.984256 172.08 
L 511.426607 172.08 
L 511.463857 178.38 
L 511.878637 178.38 
L 511.945977 172.08 
L 512.536483 172.08 
L 512.67336 178.38 
L 513.128994 184.68 
L 515.055472 184.68 
L 515.155086 178.38 
L 515.458873 172.08 
L 515.504608 178.38 
L 515.515563 172.08 
L 516.221393 178.38 
L 516.371179 178.38 
L 516.38594 184.68 
L 518.925404 184.68 
L 519.056707 178.38 
L 519.165021 178.38 
L 519.557665 172.08 
L 519.952645 172.08 
L 519.976102 165.78 
L 520.110536 172.08 
L 520.411829 172.08 
L 520.640737 146.88 
L 520.664691 153.18 
L 521.201636 159.48 
L 521.481334 165.78 
L 521.935428 159.48 
L 522.215533 159.48 
L 522.37302 165.78 
L 522.558713 165.78 
L 522.76911 172.08 
L 522.857327 165.78 
L 523.147746 178.38 
L 523.537768 178.38 
L 523.612095 172.08 
L 523.627831 178.38 
L 523.803079 184.68 
L 524.082121 178.38 
L 524.361152 184.68 
L 526.645199 184.68 
L 526.740127 178.38 
L 527.562274 172.08 
L 527.748446 172.08 
L 527.811285 178.38 
L 527.991161 178.38 
L 528.194351 184.68 
L 528.523069 178.38 
L 528.533989 172.08 
L 529.708747 172.08 
L 529.835661 165.78 
L 530.232053 165.78 
L 530.828862 159.48 
L 531.249618 159.48 
L 531.351498 165.78 
L 532.325507 165.78 
L 532.80784 178.38 
L 532.933808 172.08 
L 533.12425 165.78 
L 533.202895 165.78 
L 533.308873 172.08 
L 533.877471 172.08 
L 534.009941 184.68 
L 534.7183 184.68 
L 534.821575 178.38 
L 535.282182 178.38 
L 535.394027 172.08 
L 535.669864 172.08 
L 535.736426 178.38 
L 535.897917 178.38 
L 536.767859 184.68 
L 538.025675 184.68 
L 538.426872 178.38 
L 538.599396 184.68 
L 538.787921 184.68 
L 538.802828 178.38 
L 538.804414 184.68 
L 542.162874 184.68 
L 542.522624 172.08 
L 542.754506 178.38 
L 543.74445 178.38 
L 543.77724 184.68 
L 545.680355 184.68 
L 545.950384 178.38 
L 546.068092 178.38 
L 546.257577 184.68 
L 546.432581 184.68 
L 546.732285 178.38 
L 547.005137 178.38 
L 547.028546 172.08 
L 547.086882 178.38 
L 547.30549 178.38 
L 547.517797 184.68 
L 548.927858 184.68 
L 549.174847 178.38 
L 549.892295 178.38 
L 550.147872 184.68 
L 550.23332 184.68 
L 550.408303 178.38 
L 550.556096 184.68 
L 552.597654 184.68 
L 552.8241 178.38 
L 552.884366 184.68 
L 553.171407 184.68 
L 553.262841 178.38 
L 553.510886 178.38 
L 553.537523 172.08 
L 553.961636 178.38 
L 554.151755 178.38 
L 554.286176 184.68 
L 555.21022 184.68 
L 555.29576 178.38 
L 556.001859 184.68 
L 556.414935 184.68 
L 556.455385 178.38 
L 556.789943 178.38 
L 557.421979 184.68 
L 558.835691 184.68 
L 559.075258 178.38 
L 559.208072 184.68 
L 559.6918 184.68 
L 559.776478 178.38 
L 560.230318 178.38 
L 560.372727 172.08 
L 560.372727 172.08 
" clip-path="url(#p8d1e24234b)" style="fill: none; stroke: #005f8f; stroke-width: 0.7; stroke-linecap: square"/>
   </g>
   <g id="patch_3">
    <path d="M 81 192.24 
L 81 25.92 
" style="fill: none; stroke: #1a1a1a; stroke-width: 0.75; stroke-linejoin: miter; stroke-linecap: square"/>
   </g>
   <g id="patch_4">
    <path d="M 81 192.24 
L 583.2 192.24 
" style="fill: none; stroke: #1a1a1a; stroke-width: 0.75; stroke-linejoin: miter; stroke-linecap: square"/>
   </g>
  </g>
 </g>
 <defs>
  <clipPath id="p8d1e24234b">
   <rect x="81" y="25.92" width="502.2" height="166.32"/>
  </clipPath>
 </defs>
</svg>
