<?xml version="1.0" encoding="utf-8" standalone="no"?>
<!DOCTYPE svg PUBLIC "-//W3C//DTD SVG 1.1//EN"
  "http://www.w3.org/Graphics/SVG/1.1/DTD/svg11.dtd">
<svg xmlns:xlink="http://www.w3.org/1999/xlink" width="648pt" height="216pt" viewBox="0 0 648 216" xmlns="http://www.w3.org/2000/svg" version="1.1">
 <metadata>
  <rdf:RDF xmlns:dc="http://purl.org/dc/elements/1.1/" xmlns:cc="http://creativecommons.org/ns#" xmlns:rdf="http://www.w3.org/1999/02/22-rdf-syntax-ns#">
   <cc:Work>
    <dc:type rdf:resource="http://purl.org/dc/dcmitype/StillImage"/>
    <dc:date>2024-04-26T13:29:41.985021</dc:date>
    <dc:format>image/svg+xml</dc:format>
    <dc:creator>
     <cc:Agent>
      <dc:title>Matplotlib v3.8.2, https://matplotlib.org/</dc:title>
     </cc:Agent>
    </dc:creator>
   </cc:Work>
  </rdf:RDF>
 </metadata>
 <defs>
  <style type="text/css">*{stroke-linejoin: round; stroke-linecap: butt}</style>
 </defs>
 <g id="figure_1">
  <g id="patch_1">
   <path d="M 0 216 
L 648 216 
L 648 0 
L 0 0 
z
" style="fill: #ffffff"/>
  </g>
  <g id="axes_1">
   <g id="patch_2">
    <path d="M 81 192.24 
L 583.2 192.24 
L 583.2 25.92 
L 81 25.92 
z
" style="fill: #ffffff"/>
   </g>
   <g id="matplotlib.axis_1">
    <g id="xtick_1">
     <g id="line2d_1">
      <path d="M 103.827273 192.24 
L 103.827273 25.92 
" clip-path="url(#p617a73f17a)" style="fill: none; stroke: #b0b0b0; stroke-width: 0.5; stroke-linecap: square"/>
     </g>
     <g id="line2d_2">
      <defs>
       <path id="m2e3196fcc8" d="M 0 0 
L 0 3.5 
" style="stroke: #333333; stroke-width: 0.8"/>
      </defs>
      <g>
       <use xlink:href="#m2e3196fcc8" x="103.827273" y="192.24" style="fill: #333333; stroke: #333333; stroke-width: 0.8"/>
      </g>
     </g>
     <g id="text_1">
      <!-- 0 -->
      <g style="fill: #333333" transform="translate(101.918523 203.799062) scale(0.06 -0.06)">
       <defs>
        <path id="DejaVuSans-30" d="M 2034 4250 
Q 1547 4250 1301 3770 
Q 1056 3291 1056 2328 
Q 1056 1369 1301 889 
Q 1547 409 2034 409 
Q 2525 409 2770 889 
Q 3016 1369 3016 2328 
Q 3016 3291 2770 3770 
Q 2525 4250 2034 4250 
z
M 2034 4750 
Q 2819 4750 3233 4129 
Q 3647 3509 3647 2328 
Q 3647 1150 3233 529 
Q 2819 -91 2034 -91 
Q 1250 -91 836 529 
Q 422 1150 422 2328 
Q 422 3509 836 4129 
Q 1250 4750 2034 4750 
z
" transform="scale(0.015625)"/>
       </defs>
       <use xlink:href="#DejaVuSans-30"/>
      </g>
     </g>
    </g>
    <g id="xtick_2">
     <g id="line2d_3">
      <path d="M 160.896043 192.24 
L 160.896043 25.92 
" clip-path="url(#p617a73f17a)" style="fill: none; stroke: #b0b0b0; stroke-width: 0.5; stroke-linecap: square"/>
     </g>
     <g id="line2d_4">
      <g>
       <use xlink:href="#m2e3196fcc8" x="160.896043" y="192.24" style="fill: #333333; stroke: #333333; stroke-width: 0.8"/>
      </g>
     </g>
     <g id="text_2">
      <!-- 10 -->
      <g style="fill: #333333" transform="translate(157.078543 203.799062) scale(0.06 -0.06)">
       <defs>
        <path id="DejaVuSans-31" d="M 794 531 
L 1825 531 
L 1825 4091 
L 703 3866 
L 703 4441 
L 1819 4666 
L 2450 4666 
L 2450 531 
L 3481 531 
L 3481 0 
L 794 0 
L 794 531 
z
" transform="scale(0.015625)"/>
       </defs>
       <use xlink:href="#DejaVuSans-31"/>
       <use xlink:href="#DejaVuSans-30" x="63.623047"/>
      </g>
     </g>
    </g>
    <g id="xtick_3">
     <g id="line2d_5">
      <path d="M 217.964813 192.24 
L 217.964813 25.92 
" clip-path="url(#p617a73f17a)" style="fill: none; stroke: #b0b0b0; stroke-width: 0.5; stroke-linecap: square"/>
     </g>
     <g id="line2d_6">
      <g>
       <use xlink:href="#m2e3196fcc8" x="217.964813" y="192.24" style="fill: #333333; stroke: #333333; stroke-width: 0.8"/>
      </g>
     </g>
     <g id="text_3">
      <!-- 20 -->
      <g style="fill: #333333" transform="translate(214.147313 203.799062) scale(0.06 -0.06)">
       <defs>
        <path id="DejaVuSans-32" d="M 1228 531 
L 3431 531 
L 3431 0 
L 469 0 
L 469 531 
Q 828 903 1448 1529 
Q 2069 2156 2228 2338 
Q 2531 2678 2651 2914 
Q 2772 3150 2772 3378 
Q 2772 3750 2511 3984 
Q 2250 4219 1831 4219 
Q 1534 4219 1204 4116 
Q 875 4013 500 3803 
L 500 4441 
Q 881 4594 1212 4672 
Q 1544 4750 1819 4750 
Q 2544 4750 2975 4387 
Q 3406 4025 3406 3419 
Q 3406 3131 3298 2873 
Q 3191 2616 2906 2266 
Q 2828 2175 2409 1742 
Q 1991 1309 1228 531 
z
" transform="scale(0.015625)"/>
       </defs>
       <use xlink:href="#DejaVuSans-32"/>
       <use xlink:href="#DejaVuSans-30" x="63.623047"/>
      </g>
     </g>
    </g>
    <g id="xtick_4">
     <g id="line2d_7">
      <path d="M 275.033583 192.24 
L 275.033583 25.92 
" clip-path="url(#p617a73f17a)" style="fill: none; stroke: #b0b0b0; stroke-width: 0.5; stroke-linecap: square"/>
     </g>
     <g id="line2d_8">
      <g>
       <use xlink:href="#m2e3196fcc8" x="275.033583" y="192.24" style="fill: #333333; stroke: #333333; stroke-width: 0.8"/>
      </g>
     </g>
     <g id="text_4">
      <!-- 30 -->
      <g style="fill: #333333" transform="translate(271.216083 203.799062) scale(0.06 -0.06)">
       <defs>
        <path id="DejaVuSans-33" d="M 2597 2516 
Q 3050 2419 3304 2112 
Q 3559 1806 3559 1356 
Q 3559 666 3084 287 
Q 2609 -91 1734 -91 
Q 1441 -91 1130 -33 
Q 819 25 488 141 
L 488 750 
Q 750 597 1062 519 
Q 1375 441 1716 441 
Q 2309 441 2620 675 
Q 2931 909 2931 1356 
Q 2931 1769 2642 2001 
Q 2353 2234 1838 2234 
L 1294 2234 
L 1294 2753 
L 1863 2753 
Q 2328 2753 2575 2939 
Q 2822 3125 2822 3475 
Q 2822 3834 2567 4026 
Q 2313 4219 1838 4219 
Q 1578 4219 1281 4162 
Q 984 4106 628 3988 
L 628 4550 
Q 988 4650 1302 4700 
Q 1616 4750 1894 4750 
Q 2613 4750 3031 4423 
Q 3450 4097 3450 3541 
Q 3450 3153 3228 2886 
Q 3006 2619 2597 2516 
z
" transform="scale(0.015625)"/>
       </defs>
       <use xlink:href="#DejaVuSans-33"/>
       <use xlink:href="#DejaVuSans-30" x="63.623047"/>
      </g>
     </g>
    </g>
    <g id="xtick_5">
     <g id="line2d_9">
      <path d="M 332.102354 192.24 
L 332.102354 25.92 
" clip-path="url(#p617a73f17a)" style="fill: none; stroke: #b0b0b0; stroke-width: 0.5; stroke-linecap: square"/>
     </g>
     <g id="line2d_10">
      <g>
       <use xlink:href="#m2e3196fcc8" x="332.102354" y="192.24" style="fill: #333333; stroke: #333333; stroke-width: 0.8"/>
      </g>
     </g>
     <g id="text_5">
      <!-- 40 -->
      <g style="fill: #333333" transform="translate(328.284854 203.799062) scale(0.06 -0.06)">
       <defs>
        <path id="DejaVuSans-34" d="M 2419 4116 
L 825 1625 
L 2419 1625 
L 2419 4116 
z
M 2253 4666 
L 3047 4666 
L 3047 1625 
L 3713 1625 
L 3713 1100 
L 3047 1100 
L 3047 0 
L 2419 0 
L 2419 1100 
L 313 1100 
L 313 1709 
L 2253 4666 
z
" transform="scale(0.015625)"/>
       </defs>
       <use xlink:href="#DejaVuSans-34"/>
       <use xlink:href="#DejaVuSans-30" x="63.623047"/>
      </g>
     </g>
    </g>
    <g id="xtick_6">
     <g id="line2d_11">
      <path d="M 389.171124 192.24 
L 389.171124 25.92 
" clip-path="url(#p617a73f17a)" style="fill: none; stroke: #b0b0b0; stroke-width: 0.5; stroke-linecap: square"/>
     </g>
     <g id="line2d_12">
      <g>
       <use xlink:href="#m2e3196fcc8" x="389.171124" y="192.24" style="fill: #333333; stroke: #333333; stroke-width: 0.8"/>
      </g>
     </g>
     <g id="text_6">
      <!-- 50 -->
      <g style="fill: #333333" transform="translate(385.353624 203.799062) scale(0.06 -0.06)">
       <defs>
        <path id="DejaVuSans-35" d="M 691 4666 
L 3169 4666 
L 3169 4134 
L 1269 4134 
L 1269 2991 
Q 1406 3038 1543 3061 
Q 1681 3084 1819 3084 
Q 2600 3084 3056 2656 
Q 3513 2228 3513 1497 
Q 3513 744 3044 326 
Q 2575 -91 1722 -91 
Q 1428 -91 1123 -41 
Q 819 9 494 109 
L 494 744 
Q 775 591 1075 516 
Q 1375 441 1709 441 
Q 2250 441 2565 725 
Q 2881 1009 2881 1497 
Q 2881 1984 2565 2268 
Q 2250 2553 1709 2553 
Q 1456 2553 1204 2497 
Q 953 2441 691 2322 
L 691 4666 
z
" transform="scale(0.015625)"/>
       </defs>
       <use xlink:href="#DejaVuSans-35"/>
       <use xlink:href="#DejaVuSans-30" x="63.623047"/>
      </g>
     </g>
    </g>
    <g id="xtick_7">
     <g id="line2d_13">
      <path d="M 446.239894 192.24 
L 446.239894 25.92 
" clip-path="url(#p617a73f17a)" style="fill: none; stroke: #b0b0b0; stroke-width: 0.5; stroke-linecap: square"/>
     </g>
     <g id="line2d_14">
      <g>
       <use xlink:href="#m2e3196fcc8" x="446.239894" y="192.24" style="fill: #333333; stroke: #333333; stroke-width: 0.8"/>
      </g>
     </g>
     <g id="text_7">
      <!-- 60 -->
      <g style="fill: #333333" transform="translate(442.422394 203.799062) scale(0.06 -0.06)">
       <defs>
        <path id="DejaVuSans-36" d="M 2113 2584 
Q 1688 2584 1439 2293 
Q 1191 2003 1191 1497 
Q 1191 994 1439 701 
Q 1688 409 2113 409 
Q 2538 409 2786 701 
Q 3034 994 3034 1497 
Q 3034 2003 2786 2293 
Q 2538 2584 2113 2584 
z
M 3366 4563 
L 3366 3988 
Q 3128 4100 2886 4159 
Q 2644 4219 2406 4219 
Q 1781 4219 1451 3797 
Q 1122 3375 1075 2522 
Q 1259 2794 1537 2939 
Q 1816 3084 2150 3084 
Q 2853 3084 3261 2657 
Q 3669 2231 3669 1497 
Q 3669 778 3244 343 
Q 2819 -91 2113 -91 
Q 1303 -91 875 529 
Q 447 1150 447 2328 
Q 447 3434 972 4092 
Q 1497 4750 2381 4750 
Q 2619 4750 2861 4703 
Q 3103 4656 3366 4563 
z
" transform="scale(0.015625)"/>
       </defs>
       <use xlink:href="#DejaVuSans-36"/>
       <use xlink:href="#DejaVuSans-30" x="63.623047"/>
      </g>
     </g>
    </g>
    <g id="xtick_8">
     <g id="line2d_15">
      <path d="M 503.308664 192.24 
L 503.308664 25.92 
" clip-path="url(#p617a73f17a)" style="fill: none; stroke: #b0b0b0; stroke-width: 0.5; stroke-linecap: square"/>
     </g>
     <g id="line2d_16">
      <g>
       <use xlink:href="#m2e3196fcc8" x="503.308664" y="192.24" style="fill: #333333; stroke: #333333; stroke-width: 0.8"/>
      </g>
     </g>
     <g id="text_8">
      <!-- 70 -->
      <g style="fill: #333333" transform="translate(499.491164 203.799062) scale(0.06 -0.06)">
       <defs>
        <path id="DejaVuSans-37" d="M 525 4666 
L 3525 4666 
L 3525 4397 
L 1831 0 
L 1172 0 
L 2766 4134 
L 525 4134 
L 525 4666 
z
" transform="scale(0.015625)"/>
       </defs>
       <use xlink:href="#DejaVuSans-37"/>
       <use xlink:href="#DejaVuSans-30" x="63.623047"/>
      </g>
     </g>
    </g>
    <g id="xtick_9">
     <g id="line2d_17">
      <path d="M 560.377435 192.24 
L 560.377435 25.92 
" clip-path="url(#p617a73f17a)" style="fill: none; stroke: #b0b0b0; stroke-width: 0.5; stroke-linecap: square"/>
     </g>
     <g id="line2d_18">
      <g>
       <use xlink:href="#m2e3196fcc8" x="560.377435" y="192.24" style="fill: #333333; stroke: #333333; stroke-width: 0.8"/>
      </g>
     </g>
     <g id="text_9">
      <!-- 80 -->
      <g style="fill: #333333" transform="translate(556.559935 203.799062) scale(0.06 -0.06)">
       <defs>
        <path id="DejaVuSans-38" d="M 2034 2216 
Q 1584 2216 1326 1975 
Q 1069 1734 1069 1313 
Q 1069 891 1326 650 
Q 1584 409 2034 409 
Q 2484 409 2743 651 
Q 3003 894 3003 1313 
Q 3003 1734 2745 1975 
Q 2488 2216 2034 2216 
z
M 1403 2484 
Q 997 2584 770 2862 
Q 544 3141 544 3541 
Q 544 4100 942 4425 
Q 1341 4750 2034 4750 
Q 2731 4750 3128 4425 
Q 3525 4100 3525 3541 
Q 3525 3141 3298 2862 
Q 3072 2584 2669 2484 
Q 3125 2378 3379 2068 
Q 3634 1759 3634 1313 
Q 3634 634 3220 271 
Q 2806 -91 2034 -91 
Q 1263 -91 848 271 
Q 434 634 434 1313 
Q 434 1759 690 2068 
Q 947 2378 1403 2484 
z
M 1172 3481 
Q 1172 3119 1398 2916 
Q 1625 2713 2034 2713 
Q 2441 2713 2670 2916 
Q 2900 3119 2900 3481 
Q 2900 3844 2670 4047 
Q 2441 4250 2034 4250 
Q 1625 4250 1398 4047 
Q 1172 3844 1172 3481 
z
" transform="scale(0.015625)"/>
       </defs>
       <use xlink:href="#DejaVuSans-38"/>
       <use xlink:href="#DejaVuSans-30" x="63.623047"/>
      </g>
     </g>
    </g>
   </g>
   <g id="matplotlib.axis_2">
    <g id="ytick_1">
     <g id="line2d_19">
      <path d="M 81 184.68 
L 583.2 184.68 
" clip-path="url(#p617a73f17a)" style="fill: none; stroke: #b0b0b0; stroke-width: 0.5; stroke-linecap: square"/>
     </g>
     <g id="line2d_20">
      <defs>
       <path id="m17c0385119" d="M 0 0 
L -3.5 0 
" style="stroke: #333333; stroke-width: 0.8"/>
      </defs>
      <g>
       <use xlink:href="#m17c0385119" x="81" y="184.68" style="fill: #333333; stroke: #333333; stroke-width: 0.8"/>
      </g>
     </g>
     <g id="text_10">
      <!-- 0 -->
      <g style="fill: #333333" transform="translate(70.1825 186.959531) scale(0.06 -0.06)">
       <use xlink:href="#DejaVuSans-30"/>
      </g>
     </g>
    </g>
    <g id="ytick_2">
     <g id="line2d_21">
      <path d="M 81 159.48 
L 583.2 159.48 
" clip-path="url(#p617a73f17a)" style="fill: none; stroke: #b0b0b0; stroke-width: 0.5; stroke-linecap: square"/>
     </g>
     <g id="line2d_22">
      <g>
       <use xlink:href="#m17c0385119" x="81" y="159.48" style="fill: #333333; stroke: #333333; stroke-width: 0.8"/>
      </g>
     </g>
     <g id="text_11">
      <!-- 1 -->
      <g style="fill: #333333" transform="translate(70.1825 161.759531) scale(0.06 -0.06)">
       <use xlink:href="#DejaVuSans-31"/>
      </g>
     </g>
    </g>
    <g id="ytick_3">
     <g id="line2d_23">
      <path d="M 81 134.28 
L 583.2 134.28 
" clip-path="url(#p617a73f17a)" style="fill: none; stroke: #b0b0b0; stroke-width: 0.5; stroke-linecap: square"/>
     </g>
     <g id="line2d_24">
      <g>
       <use xlink:href="#m17c0385119" x="81" y="134.28" style="fill: #333333; stroke: #333333; stroke-width: 0.8"/>
      </g>
     </g>
     <g id="text_12">
      <!-- 2 -->
      <g style="fill: #333333" transform="translate(70.1825 136.559531) scale(0.06 -0.06)">
       <use xlink:href="#DejaVuSans-32"/>
      </g>
     </g>
    </g>
    <g id="ytick_4">
     <g id="line2d_25">
      <path d="M 81 109.08 
L 583.2 109.08 
" clip-path="url(#p617a73f17a)" style="fill: none; stroke: #b0b0b0; stroke-width: 0.5; stroke-linecap: square"/>
     </g>
     <g id="line2d_26">
      <g>
       <use xlink:href="#m17c0385119" x="81" y="109.08" style="fill: #333333; stroke: #333333; stroke-width: 0.8"/>
      </g>
     </g>
     <g id="text_13">
      <!-- 3 -->
      <g style="fill: #333333" transform="translate(70.1825 111.359531) scale(0.06 -0.06)">
       <use xlink:href="#DejaVuSans-33"/>
      </g>
     </g>
    </g>
    <g id="ytick_5">
     <g id="line2d_27">
      <path d="M 81 83.88 
L 583.2 83.88 
" clip-path="url(#p617a73f17a)" style="fill: none; stroke: #b0b0b0; stroke-width: 0.5; stroke-linecap: square"/>
     </g>
     <g id="line2d_28">
      <g>
       <use xlink:href="#m17c0385119" x="81" y="83.88" style="fill: #333333; stroke: #333333; stroke-width: 0.8"/>
      </g>
     </g>
     <g id="text_14">
      <!-- 4 -->
      <g style="fill: #333333" transform="translate(70.1825 86.159531) scale(0.06 -0.06)">
       <use xlink:href="#DejaVuSans-34"/>
      </g>
     </g>
    </g>
    <g id="ytick_6">
     <g id="line2d_29">
      <path d="M 81 58.68 
L 583.2 58.68 
" clip-path="url(#p617a73f17a)" style="fill: none; stroke: #b0b0b0; stroke-width: 0.5; stroke-linecap: square"/>
     </g>
     <g id="line2d_30">
      <g>
       <use xlink:href="#m17c0385119" x="81" y="58.68" style="fill: #333333; stroke: #333333; stroke-width: 0.8"/>
      </g>
     </g>
     <g id="text_15">
      <!-- 5 -->
      <g style="fill: #333333" transform="translate(70.1825 60.959531) scale(0.06 -0.06)">
       <use xlink:href="#DejaVuSans-35"/>
      </g>
     </g>
    </g>
    <g id="ytick_7">
     <g id="line2d_31">
      <path d="M 81 33.48 
L 583.2 33.48 
" clip-path="url(#p617a73f17a)" style="fill: none; stroke: #b0b0b0; stroke-width: 0.5; stroke-linecap: square"/>
     </g>
     <g id="line2d_32">
      <g>
       <use xlink:href="#m17c0385119" x="81" y="33.48" style="fill: #333333; stroke: #333333; stroke-width: 0.8"/>
      </g>
     </g>
     <g id="text_16">
      <!-- 6 -->
      <g style="fill: #333333" transform="translate(70.1825 35.759531) scale(0.06 -0.06)">
       <use xlink:href="#DejaVuSans-36"/>
      </g>
     </g>
    </g>
   </g>
   <g id="line2d_33">
    <path d="M 103.827273 184.68 
L 105.212936 184.68 
L 105.371532 159.48 
L 105.571407 159.48 
L 105.947205 184.68 
L 106.733875 184.68 
L 107.055694 159.48 
L 108.986563 159.48 
L 109.343324 184.68 
L 110.234398 184.68 
L 111.013685 134.28 
L 111.378501 134.28 
L 111.397231 159.48 
L 111.669662 159.48 
L 111.82422 134.28 
L 112.912597 134.28 
L 113.054207 159.48 
L 113.313506 184.68 
L 113.989207 184.68 
L 114.771678 159.48 
L 114.916839 184.68 
L 117.915806 184.68 
L 118.050206 159.48 
L 118.433448 159.48 
L 118.553275 134.28 
L 118.83699 134.28 
L 118.865528 159.48 
L 119.6413 159.48 
L 120.213475 184.68 
L 121.865155 184.68 
L 121.871177 159.48 
L 122.007883 134.28 
L 122.461796 134.28 
L 122.89797 159.48 
L 123.572105 159.48 
L 123.591729 134.28 
L 124.34061 134.28 
L 124.51605 184.68 
L 125.177793 184.68 
L 125.278582 159.48 
L 126.366054 159.48 
L 126.844315 184.68 
L 128.384599 184.68 
L 128.389592 159.48 
L 128.515399 184.68 
L 131.218179 184.68 
L 131.389954 159.48 
L 131.503429 159.48 
L 131.59636 134.28 
L 131.693836 159.48 
L 132.54045 159.48 
L 132.554102 134.28 
L 133.348677 134.28 
L 133.458337 159.48 
L 133.48198 134.28 
L 133.650704 109.08 
L 133.974827 109.08 
L 134.033776 134.28 
L 135.313676 134.28 
L 135.320817 159.48 
L 135.435837 134.28 
L 136.141517 134.28 
L 136.321618 159.48 
L 136.570688 159.48 
L 136.633159 134.28 
L 136.7088 159.48 
L 137.149624 159.48 
L 137.341302 134.28 
L 138.433621 134.28 
L 138.795152 159.48 
L 139.279252 159.48 
L 139.288181 184.68 
L 140.831922 184.68 
L 140.979149 134.28 
L 141.971176 134.28 
L 142.823076 159.48 
L 143.095839 159.48 
L 143.115207 134.28 
L 143.279138 134.28 
L 143.343484 159.48 
L 143.439929 184.68 
L 144.406744 184.68 
L 144.504049 159.48 
L 144.521882 184.68 
L 146.231356 184.68 
L 146.867724 159.48 
L 147.880446 159.48 
L 148.212529 184.68 
L 148.47843 184.68 
L 148.531618 159.48 
L 148.687342 184.68 
L 148.983267 184.68 
L 149.07585 159.48 
L 149.542617 184.68 
L 149.975017 184.68 
L 150.053048 159.48 
L 150.324165 159.48 
L 150.340943 134.28 
L 150.402798 159.48 
L 150.462546 159.48 
L 150.525078 134.28 
L 150.697698 134.28 
L 150.762196 159.48 
L 150.944624 134.28 
L 151.162689 159.48 
L 152.033385 159.48 
L 152.306561 184.68 
L 152.546569 159.48 
L 152.994481 184.68 
L 153.561926 184.68 
L 153.842747 134.28 
L 154.181184 159.48 
L 154.352769 159.48 
L 154.666636 134.28 
L 154.83918 134.28 
L 155.01744 159.48 
L 155.554137 184.68 
L 155.695801 159.48 
L 155.700229 134.28 
L 157.161029 134.28 
L 157.579858 159.48 
L 157.735931 184.68 
L 158.098087 184.68 
L 159.121229 159.48 
L 159.616509 184.68 
L 160.423015 184.68 
L 160.68307 159.48 
L 161.621987 159.48 
L 161.710851 134.28 
L 162.963275 134.28 
L 163.050926 159.48 
L 163.070649 134.28 
L 163.359717 134.28 
L 163.375391 109.08 
L 163.838281 109.08 
L 163.861231 83.88 
L 164.285276 83.88 
L 164.445799 58.68 
L 164.612428 58.68 
L 164.807952 83.88 
L 164.891338 58.68 
L 165.20504 33.48 
L 165.778999 33.48 
L 166.239377 58.68 
L 166.895751 58.68 
L 167.025088 83.88 
L 167.119092 58.68 
L 168.014568 58.68 
L 168.042796 83.88 
L 168.539703 83.88 
L 168.552744 58.68 
L 169.389414 58.68 
L 169.655877 83.88 
L 169.776764 58.68 
L 173.704107 58.68 
L 173.836563 83.88 
L 173.956205 83.88 
L 174.187969 58.68 
L 174.428095 83.88 
L 174.510548 58.68 
L 175.003869 58.68 
L 175.006233 83.88 
L 175.812955 109.08 
L 176.044388 134.28 
L 176.172076 159.48 
L 176.673408 134.28 
L 177.103322 134.28 
L 177.117763 109.08 
L 177.420096 109.08 
L 177.726692 83.88 
L 177.795218 134.28 
L 178.042008 109.08 
L 178.048992 83.88 
L 178.358191 109.08 
L 178.571327 109.08 
L 178.889985 58.68 
L 178.943211 33.48 
L 181.368502 33.48 
L 181.474689 58.68 
L 181.689366 58.68 
L 182.413909 109.08 
L 182.607369 134.28 
L 183.54888 134.28 
L 183.656832 109.08 
L 183.859538 109.08 
L 183.902927 83.88 
L 184.673617 83.88 
L 184.798828 58.68 
L 187.253672 58.68 
L 187.320281 83.88 
L 187.485018 83.88 
L 188.097231 109.08 
L 189.569152 109.08 
L 189.731587 159.48 
L 190.55177 159.48 
L 190.751326 184.68 
L 191.048425 184.68 
L 191.215002 159.48 
L 192.435587 159.48 
L 192.575813 134.28 
L 194.513674 134.28 
L 194.686696 109.08 
L 194.933478 109.08 
L 195.042838 134.28 
L 195.186181 134.28 
L 195.371621 159.48 
L 195.675912 159.48 
L 195.785562 134.28 
L 196.186217 134.28 
L 196.314248 159.48 
L 196.435634 159.48 
L 196.49156 134.28 
L 196.755887 134.28 
L 196.960179 159.48 
L 196.974105 184.68 
L 197.166972 159.48 
L 197.169292 134.28 
L 197.784856 134.28 
L 197.985747 184.68 
L 197.995346 159.48 
L 198.685961 159.48 
L 198.861143 134.28 
L 199.928702 134.28 
L 200.090813 184.68 
L 200.49749 184.68 
L 200.631535 159.48 
L 201.386335 159.48 
L 201.528246 134.28 
L 202.190802 134.28 
L 202.195474 159.48 
L 202.341954 159.48 
L 202.422801 184.68 
L 202.58663 159.48 
L 202.882998 159.48 
L 202.991211 134.28 
L 203.948323 134.28 
L 204.583368 159.48 
L 204.999035 159.48 
L 205.152833 134.28 
L 205.410665 159.48 
L 205.694013 159.48 
L 205.704238 134.28 
L 205.795459 159.48 
L 206.677148 159.48 
L 206.715831 184.68 
L 206.792434 159.48 
L 207.186935 184.68 
L 209.352206 184.68 
L 209.491074 159.48 
L 209.576632 184.68 
L 210.756457 184.68 
L 210.796998 159.48 
L 210.868418 184.68 
L 211.418108 159.48 
L 211.467799 184.68 
L 211.802152 184.68 
L 211.853356 159.48 
L 211.952229 184.68 
L 212.717579 184.68 
L 212.761907 159.48 
L 213.273138 184.68 
L 214.153544 184.68 
L 214.267068 159.48 
L 214.293076 184.68 
L 214.734727 159.48 
L 215.277501 184.68 
L 216.346824 184.68 
L 216.521081 134.28 
L 217.327098 134.28 
L 217.871246 159.48 
L 218.293338 159.48 
L 218.45823 134.28 
L 218.560057 159.48 
L 218.942029 159.48 
L 219.010035 184.68 
L 219.317551 184.68 
L 219.484221 159.48 
L 220.06563 159.48 
L 220.156329 134.28 
L 220.426082 159.48 
L 220.610099 184.68 
L 224.975881 184.68 
L 225.077264 159.48 
L 225.409659 184.68 
L 225.53823 184.68 
L 225.779687 159.48 
L 227.174622 159.48 
L 227.270571 134.28 
L 228.115047 134.28 
L 228.208946 109.08 
L 228.613308 109.08 
L 228.779426 134.28 
L 228.936305 109.08 
L 229.05294 109.08 
L 229.217013 134.28 
L 230.525398 159.48 
L 230.655735 159.48 
L 230.830464 134.28 
L 230.984182 159.48 
L 231.134168 134.28 
L 231.492703 134.28 
L 231.574944 159.48 
L 231.879462 159.48 
L 232.045558 184.68 
L 232.139805 159.48 
L 232.226139 184.68 
L 232.627722 184.68 
L 232.766846 159.48 
L 233.03878 184.68 
L 233.923156 184.68 
L 234.144338 159.48 
L 234.358328 159.48 
L 235.02056 184.68 
L 235.822826 184.68 
L 236.047171 159.48 
L 236.055042 159.48 
L 236.295224 184.68 
L 236.919429 184.68 
L 236.98892 159.48 
L 237.11254 159.48 
L 237.132632 134.28 
L 237.946793 134.28 
L 238.024903 109.08 
L 238.204422 134.28 
L 238.845166 134.28 
L 238.921087 159.48 
L 239.144053 184.68 
L 242.381556 184.68 
L 242.4732 159.48 
L 243.785321 159.48 
L 243.975271 134.28 
L 244.085177 159.48 
L 245.019899 184.68 
L 246.393269 184.68 
L 246.479846 159.48 
L 246.52143 184.68 
L 247.084893 159.48 
L 249.352258 159.48 
L 249.39152 134.28 
L 249.96278 159.48 
L 249.98419 184.68 
L 250.871818 184.68 
L 250.942336 159.48 
L 254.877077 159.48 
L 254.936238 134.28 
L 255.070831 134.28 
L 255.416484 159.48 
L 256.166954 159.48 
L 256.28496 134.28 
L 258.060688 134.28 
L 258.195384 159.48 
L 258.474052 134.28 
L 259.668358 159.48 
L 260.57935 159.48 
L 260.605139 134.28 
L 261.763705 134.28 
L 262.195643 159.48 
L 262.307219 184.68 
L 262.359555 184.68 
L 262.472114 159.48 
L 263.067602 184.68 
L 263.570261 184.68 
L 263.601216 159.48 
L 263.624616 184.68 
L 264.277661 184.68 
L 264.52457 159.48 
L 264.701114 159.48 
L 264.847069 134.28 
L 264.973553 134.28 
L 265.243235 159.48 
L 266.349651 159.48 
L 266.558195 134.28 
L 267.345724 134.28 
L 267.459516 159.48 
L 267.658234 159.48 
L 267.754716 134.28 
L 270.176949 134.28 
L 270.406708 159.48 
L 270.601281 109.08 
L 270.783141 109.08 
L 270.882824 134.28 
L 271.236722 134.28 
L 271.282927 159.48 
L 271.302753 134.28 
L 271.78742 134.28 
L 271.872735 184.68 
L 271.935814 159.48 
L 272.082226 109.08 
L 272.258868 109.08 
L 272.542629 134.28 
L 272.620301 134.28 
L 272.870533 159.48 
L 273.145246 109.08 
L 273.676633 109.08 
L 273.706689 83.88 
L 274.856855 83.88 
L 275.072991 109.08 
L 276.559771 109.08 
L 276.560705 134.28 
L 276.882561 159.48 
L 276.918227 184.68 
L 278.240649 184.68 
L 278.279598 159.48 
L 278.462127 184.68 
L 278.69417 184.68 
L 279.277404 159.48 
L 279.50113 134.28 
L 280.938893 134.28 
L 281.281198 159.48 
L 281.324165 184.68 
L 281.438443 159.48 
L 281.586385 159.48 
L 281.628924 134.28 
L 281.741643 134.28 
L 281.752983 159.48 
L 282.18111 159.48 
L 282.222517 134.28 
L 282.941278 134.28 
L 283.74241 159.48 
L 283.955211 159.48 
L 284.421081 184.68 
L 284.894402 184.68 
L 285.235269 159.48 
L 285.345871 134.28 
L 287.037474 134.28 
L 287.088285 109.08 
L 287.304172 109.08 
L 287.45449 83.88 
L 287.477538 83.88 
L 287.527661 109.08 
L 289.389191 109.08 
L 289.4699 134.28 
L 289.484215 109.08 
L 290.068094 109.08 
L 290.318415 134.28 
L 291.237799 134.28 
L 291.36208 159.48 
L 291.473178 159.48 
L 291.557409 134.28 
L 292.297273 134.28 
L 292.329829 109.08 
L 293.067929 109.08 
L 293.200624 83.88 
L 293.419581 58.68 
L 294.176022 58.68 
L 294.265121 83.88 
L 294.479935 83.88 
L 294.653405 109.08 
L 295.195312 109.08 
L 295.335484 83.88 
L 297.469685 83.88 
L 297.783808 109.08 
L 302.189744 109.08 
L 302.457864 134.28 
L 302.566539 134.28 
L 302.693824 109.08 
L 303.067708 109.08 
L 303.444295 134.28 
L 303.576635 109.08 
L 305.050791 109.08 
L 305.061491 134.28 
L 306.684845 134.28 
L 306.731573 159.48 
L 306.765631 134.28 
L 306.892694 109.08 
L 307.22543 134.28 
L 307.38762 134.28 
L 307.953743 109.08 
L 308.017046 134.28 
L 308.727203 134.28 
L 308.901034 159.48 
L 309.03981 134.28 
L 309.27416 134.28 
L 309.533255 159.48 
L 309.658743 159.48 
L 309.682937 134.28 
L 310.478773 134.28 
L 310.518264 159.48 
L 310.720005 83.88 
L 310.766426 109.08 
L 311.224465 109.08 
L 311.543582 134.28 
L 311.793725 134.28 
L 312.061388 109.08 
L 312.228795 134.28 
L 313.953964 134.28 
L 314.096341 109.08 
L 314.16029 134.28 
L 314.391379 134.28 
L 314.4109 159.48 
L 315.018493 159.48 
L 315.109012 184.68 
L 315.244464 184.68 
L 315.27613 159.48 
L 315.768545 159.48 
L 315.881732 184.68 
L 316.427547 184.68 
L 317.001715 134.28 
L 321.101531 134.28 
L 321.187737 109.08 
L 321.397032 134.28 
L 321.75883 134.28 
L 321.817717 159.48 
L 323.715748 159.48 
L 323.843308 134.28 
L 325.240998 134.28 
L 325.70316 159.48 
L 325.912678 184.68 
L 329.336537 184.68 
L 329.561007 159.48 
L 330.535004 159.48 
L 330.609473 184.68 
L 330.993737 184.68 
L 331.188086 159.48 
L 331.733603 159.48 
L 331.862736 184.68 
L 332.035193 184.68 
L 332.18384 159.48 
L 332.598369 159.48 
L 332.696298 184.68 
L 332.775446 184.68 
L 332.780972 159.48 
L 332.899437 134.28 
L 333.426992 134.28 
L 333.692279 109.08 
L 334.219409 134.28 
L 334.242342 159.48 
L 334.473748 159.48 
L 334.940906 184.68 
L 335.196184 159.48 
L 335.231733 184.68 
L 337.542117 184.68 
L 337.844654 159.48 
L 338.197723 159.48 
L 338.272187 184.68 
L 339.188412 184.68 
L 339.234607 159.48 
L 339.757333 159.48 
L 340.163402 184.68 
L 341.200967 184.68 
L 341.255754 159.48 
L 341.533269 159.48 
L 342.006558 134.28 
L 343.154371 134.28 
L 343.546826 159.48 
L 343.663616 184.68 
L 346.069226 184.68 
L 346.816077 159.48 
L 347.076622 134.28 
L 347.585273 184.68 
L 348.591792 184.68 
L 348.643369 159.48 
L 348.904022 134.28 
L 349.283275 159.48 
L 350.0161 184.68 
L 351.750139 184.68 
L 351.768747 159.48 
L 351.783402 184.68 
L 353.751939 184.68 
L 353.876029 159.48 
L 354.71572 159.48 
L 354.89265 134.28 
L 355.175846 159.48 
L 355.34742 134.28 
L 355.859502 159.48 
L 356.143833 184.68 
L 356.865799 184.68 
L 356.995668 134.28 
L 357.557378 159.48 
L 358.055177 159.48 
L 358.270619 134.28 
L 359.210549 159.48 
L 359.752323 184.68 
L 362.759158 184.68 
L 362.788056 159.48 
L 363.079723 159.48 
L 363.089993 184.68 
L 363.190434 159.48 
L 364.413684 159.48 
L 364.496631 134.28 
L 364.80409 159.48 
L 365.044726 159.48 
L 365.119166 184.68 
L 365.167326 159.48 
L 365.360252 159.48 
L 365.937156 184.68 
L 367.883805 184.68 
L 367.901126 159.48 
L 368.027041 159.48 
L 369.720075 184.68 
L 370.703679 184.68 
L 370.948508 159.48 
L 371.364604 184.68 
L 371.541387 184.68 
L 372.081264 159.48 
L 372.17832 134.28 
L 372.9884 134.28 
L 373.316202 159.48 
L 374.026644 159.48 
L 374.098264 134.28 
L 374.345343 109.08 
L 374.392702 134.28 
L 374.526532 134.28 
L 374.795597 109.08 
L 375.096123 109.08 
L 375.212553 83.88 
L 375.730483 83.88 
L 375.844966 58.68 
L 377.988666 58.68 
L 378.106885 83.88 
L 378.910382 83.88 
L 378.987894 58.68 
L 380.612472 58.68 
L 380.693692 83.88 
L 382.286391 83.88 
L 382.624327 109.08 
L 382.798249 109.08 
L 382.885488 159.48 
L 384.183041 159.48 
L 384.480196 184.68 
L 385.366092 184.68 
L 385.43975 159.48 
L 385.669582 159.48 
L 385.919764 184.68 
L 385.965277 159.48 
L 386.229654 184.68 
L 386.996286 184.68 
L 387.012125 159.48 
L 388.398071 159.48 
L 388.509007 184.68 
L 389.11047 184.68 
L 389.469752 159.48 
L 389.777617 159.48 
L 389.891133 134.28 
L 390.440029 134.28 
L 390.72975 159.48 
L 390.921704 159.48 
L 391.193172 134.28 
L 391.319008 134.28 
L 391.552048 159.48 
L 391.642085 134.28 
L 391.751078 159.48 
L 392.376718 159.48 
L 392.540039 184.68 
L 392.792482 184.68 
L 392.953612 159.48 
L 393.351303 184.68 
L 394.139171 184.68 
L 394.437644 159.48 
L 394.505414 184.68 
L 396.107655 184.68 
L 396.170065 159.48 
L 397.350087 159.48 
L 397.39361 134.28 
L 397.661219 159.48 
L 399.275843 184.68 
L 399.277909 159.48 
L 400.16761 184.68 
L 401.951019 184.68 
L 402.553064 159.48 
L 402.966502 159.48 
L 403.080481 134.28 
L 404.193341 134.28 
L 404.195145 159.48 
L 404.300897 134.28 
L 406.504802 134.28 
L 406.607664 159.48 
L 407.036713 159.48 
L 407.124666 184.68 
L 408.341995 184.68 
L 408.419326 159.48 
L 409.822123 159.48 
L 409.919161 134.28 
L 411.502242 134.28 
L 412.059924 159.48 
L 412.17336 184.68 
L 412.68044 184.68 
L 413.096961 159.48 
L 413.464223 159.48 
L 413.492216 134.28 
L 414.289088 159.48 
L 414.70364 159.48 
L 414.734574 134.28 
L 415.556286 134.28 
L 415.770775 159.48 
L 416.437475 159.48 
L 417.030346 134.28 
L 417.23899 109.08 
L 417.292626 134.28 
L 417.447696 109.08 
L 418.384425 109.08 
L 418.577768 159.48 
L 418.798746 184.68 
L 420.275079 184.68 
L 420.77064 159.48 
L 420.88329 134.28 
L 421.026897 184.68 
L 421.222636 159.48 
L 421.347941 159.48 
L 421.541264 184.68 
L 421.686119 159.48 
L 422.680624 159.48 
L 422.690654 134.28 
L 422.847752 134.28 
L 422.86787 109.08 
L 423.731149 109.08 
L 424.38788 134.28 
L 424.426568 159.48 
L 424.95666 159.48 
L 425.208483 184.68 
L 425.352013 159.48 
L 425.983236 159.48 
L 425.991983 134.28 
L 426.74966 134.28 
L 426.819241 184.68 
L 427.071498 134.28 
L 427.214955 159.48 
L 427.471189 184.68 
L 427.741192 184.68 
L 428.273672 159.48 
L 428.399157 159.48 
L 428.773706 134.28 
L 429.636597 134.28 
L 429.698923 159.48 
L 430.071839 159.48 
L 430.352213 184.68 
L 430.949127 184.68 
L 431.281737 159.48 
L 432.003191 184.68 
L 432.323309 109.08 
L 432.425649 109.08 
L 432.55188 134.28 
L 433.0733 134.28 
L 433.135397 109.08 
L 433.39978 83.88 
L 434.1681 83.88 
L 434.381495 58.68 
L 434.462678 83.88 
L 434.650197 58.68 
L 434.873168 58.68 
L 435.334976 83.88 
L 435.423421 109.08 
L 435.623285 109.08 
L 435.756 83.88 
L 436.06765 83.88 
L 436.076511 109.08 
L 436.65414 109.08 
L 436.694909 83.88 
L 436.957399 109.08 
L 437.119068 109.08 
L 437.429719 83.88 
L 437.619491 109.08 
L 437.685382 83.88 
L 439.571374 83.88 
L 439.58702 109.08 
L 439.655708 83.88 
L 440.880217 83.88 
L 441.40906 109.08 
L 441.500068 134.28 
L 442.871984 134.28 
L 442.894964 109.08 
L 445.039066 109.08 
L 445.948685 134.28 
L 446.028224 109.08 
L 446.281242 109.08 
L 446.329801 83.88 
L 446.473108 83.88 
L 446.723556 109.08 
L 446.740054 134.28 
L 447.140568 109.08 
L 447.585189 134.28 
L 447.602463 159.48 
L 447.970527 159.48 
L 448.32873 134.28 
L 448.451435 134.28 
L 448.541717 109.08 
L 448.736453 109.08 
L 448.867819 83.88 
L 449.484325 83.88 
L 449.532074 58.68 
L 449.745974 58.68 
L 449.77778 83.88 
L 449.81849 58.68 
L 450.494842 58.68 
L 450.781954 33.48 
L 452.439164 33.48 
L 453.08292 58.68 
L 453.214134 58.68 
L 453.230316 33.48 
L 453.268945 58.68 
L 453.762387 58.68 
L 454.250791 109.08 
L 454.793655 109.08 
L 454.938028 159.48 
L 455.077079 159.48 
L 455.205504 134.28 
L 455.503235 134.28 
L 455.636141 159.48 
L 455.684486 134.28 
L 455.928843 159.48 
L 456.014619 134.28 
L 458.221583 134.28 
L 458.341761 159.48 
L 458.343369 134.28 
L 458.495833 134.28 
L 458.557347 159.48 
L 458.742122 134.28 
L 458.883131 159.48 
L 459.842729 159.48 
L 460.096113 184.68 
L 460.727902 184.68 
L 460.780304 159.48 
L 461.007482 159.48 
L 461.030332 134.28 
L 461.412114 134.28 
L 461.53798 109.08 
L 462.058679 134.28 
L 462.150228 159.48 
L 462.227702 134.28 
L 462.646019 159.48 
L 462.864277 159.48 
L 463.0258 109.08 
L 463.267166 109.08 
L 464.331959 134.28 
L 464.668672 134.28 
L 464.719544 159.48 
L 464.87803 109.08 
L 465.086441 109.08 
L 465.104137 134.28 
L 466.211074 159.48 
L 466.382945 134.28 
L 466.659858 134.28 
L 467.045151 159.48 
L 467.794023 159.48 
L 467.872933 184.68 
L 467.95936 134.28 
L 468.358606 134.28 
L 468.545634 109.08 
L 468.683709 109.08 
L 468.887195 134.28 
L 469.897662 134.28 
L 470.125153 159.48 
L 470.410206 159.48 
L 470.912846 184.68 
L 477.635375 184.68 
L 477.769845 159.48 
L 478.682109 159.48 
L 478.744839 134.28 
L 478.761027 159.48 
L 478.811788 184.68 
L 479.056863 184.68 
L 479.402482 134.28 
L 479.415164 159.48 
L 479.470323 134.28 
L 479.949182 134.28 
L 480.020519 159.48 
L 480.414135 184.68 
L 481.49617 184.68 
L 481.777567 159.48 
L 481.807719 184.68 
L 483.254375 184.68 
L 483.521504 159.48 
L 483.848402 159.48 
L 483.948162 134.28 
L 485.627487 134.28 
L 485.930607 184.68 
L 487.308347 184.68 
L 487.370227 159.48 
L 487.42634 184.68 
L 488.03137 184.68 
L 488.263575 159.48 
L 488.449899 134.28 
L 488.909888 159.48 
L 488.932213 134.28 
L 489.019332 159.48 
L 489.22967 184.68 
L 489.708118 184.68 
L 489.81522 159.48 
L 490.339875 159.48 
L 490.631705 184.68 
L 490.758572 184.68 
L 491.089864 134.28 
L 491.872238 134.28 
L 492.405235 159.48 
L 492.526281 159.48 
L 492.600989 134.28 
L 492.875121 109.08 
L 493.07559 109.08 
L 493.230073 134.28 
L 493.356581 134.28 
L 493.660835 159.48 
L 494.166646 159.48 
L 494.318905 134.28 
L 496.741121 134.28 
L 496.974879 159.48 
L 497.320449 159.48 
L 497.430894 134.28 
L 497.802099 134.28 
L 497.957163 159.48 
L 498.420931 159.48 
L 498.558145 109.08 
L 498.646646 134.28 
L 498.706183 134.28 
L 498.706841 109.08 
L 498.97463 109.08 
L 499.941549 134.28 
L 501.800135 134.28 
L 501.860038 159.48 
L 501.927817 134.28 
L 502.969991 134.28 
L 503.323536 159.48 
L 503.361714 134.28 
L 504.124381 134.28 
L 504.324875 159.48 
L 504.526295 134.28 
L 507.293055 134.28 
L 507.308599 109.08 
L 507.602242 109.08 
L 507.69379 134.28 
L 507.694139 109.08 
L 508.510359 109.08 
L 508.626458 134.28 
L 510.821826 134.28 
L 511.10945 159.48 
L 511.269707 159.48 
L 511.451074 134.28 
L 511.698726 159.48 
L 511.879415 109.08 
L 513.192972 109.08 
L 513.645508 134.28 
L 513.662681 159.48 
L 513.80531 184.68 
L 514.838894 184.68 
L 515.042259 159.48 
L 515.057679 134.28 
L 516.22453 134.28 
L 516.470073 159.48 
L 517.434711 159.48 
L 517.731158 184.68 
L 518.031601 184.68 
L 518.126679 159.48 
L 519.396576 159.48 
L 519.784978 134.28 
L 523.086785 134.28 
L 523.100545 159.48 
L 523.129923 134.28 
L 524.660691 134.28 
L 524.696456 159.48 
L 524.748437 134.28 
L 525.579654 134.28 
L 525.587076 109.08 
L 525.809915 134.28 
L 526.016929 134.28 
L 526.565591 109.08 
L 528.277904 109.08 
L 528.362547 83.88 
L 528.925185 83.88 
L 528.978607 109.08 
L 529.539127 83.88 
L 530.050321 83.88 
L 530.151624 109.08 
L 530.646663 83.88 
L 531.08801 83.88 
L 531.107456 109.08 
L 531.545771 109.08 
L 531.758695 159.48 
L 531.898227 134.28 
L 532.343818 134.28 
L 532.52293 159.48 
L 532.663107 159.48 
L 533.098297 184.68 
L 535.103469 184.68 
L 535.619529 159.48 
L 535.840051 159.48 
L 536.198546 134.28 
L 536.868835 134.28 
L 536.998351 159.48 
L 537.126214 159.48 
L 537.1526 184.68 
L 541.511046 184.68 
L 541.534779 159.48 
L 541.719333 184.68 
L 542.990832 184.68 
L 543.058523 159.48 
L 543.630879 159.48 
L 543.793971 184.68 
L 544.321236 184.68 
L 544.562574 134.28 
L 544.740374 159.48 
L 545.020357 159.48 
L 545.184946 134.28 
L 546.358096 134.28 
L 546.363981 109.08 
L 547.200758 109.08 
L 547.374274 134.28 
L 547.579591 109.08 
L 547.783544 134.28 
L 548.117696 134.28 
L 548.343403 159.48 
L 549.007724 159.48 
L 549.13838 134.28 
L 549.18761 134.28 
L 549.512582 159.48 
L 549.597035 184.68 
L 549.935678 184.68 
L 549.953597 159.48 
L 550.280925 159.48 
L 550.301841 134.28 
L 551.448536 134.28 
L 551.812011 159.48 
L 551.960011 159.48 
L 552.270446 134.28 
L 552.663141 184.68 
L 552.890544 159.48 
L 553.348795 159.48 
L 553.477626 134.28 
L 553.49597 159.48 
L 553.689233 184.68 
L 553.833264 159.48 
L 554.631277 159.48 
L 554.77839 134.28 
L 554.927192 134.28 
L 555.104308 109.08 
L 555.356956 109.08 
L 555.864308 134.28 
L 556.71464 134.28 
L 556.805037 159.48 
L 557.411118 134.28 
L 557.629576 109.08 
L 558.20672 109.08 
L 558.551228 159.48 
L 558.798858 159.48 
L 558.988407 134.28 
L 559.264505 134.28 
L 559.630259 159.48 
L 559.654971 184.68 
L 559.779817 159.48 
L 559.969951 159.48 
L 560.372727 184.68 
L 560.372727 184.68 
" clip-path="url(#p617a73f17a)" style="fill: none; stroke: #fa7100; stroke-width: 0.7; stroke-linecap: square"/>
   </g>
   <g id="line2d_34">
    <path d="M 103.827273 184.68 
L 105.20053 184.68 
L 105.212936 159.48 
L 105.371532 159.48 
L 105.571407 134.28 
L 105.947205 134.28 
L 106.305478 159.48 
L 106.541643 184.68 
L 107.283619 184.68 
L 108.232031 159.48 
L 108.475727 184.68 
L 108.530777 159.48 
L 108.986563 184.68 
L 109.539496 184.68 
L 109.563725 159.48 
L 111.013685 159.48 
L 111.397231 184.68 
L 111.668905 159.48 
L 111.669662 184.68 
L 112.822806 184.68 
L 112.912597 159.48 
L 113.313506 159.48 
L 113.510533 184.68 
L 114.916839 184.68 
L 115.004895 159.48 
L 115.08727 184.68 
L 115.321546 184.68 
L 115.504469 159.48 
L 116.021258 159.48 
L 116.198661 134.28 
L 116.706139 159.48 
L 117.338035 184.68 
L 118.553275 184.68 
L 118.76985 159.48 
L 118.865528 184.68 
L 119.163359 184.68 
L 119.6413 159.48 
L 121.073305 159.48 
L 121.214935 134.28 
L 121.270956 159.48 
L 121.288544 134.28 
L 122.007883 134.28 
L 122.461796 159.48 
L 124.113557 159.48 
L 124.236783 184.68 
L 124.397555 159.48 
L 125.234645 159.48 
L 125.278582 184.68 
L 126.081027 184.68 
L 126.105233 159.48 
L 126.171335 184.68 
L 126.366054 159.48 
L 126.844315 159.48 
L 127.180195 184.68 
L 127.545622 184.68 
L 127.551799 159.48 
L 128.120794 159.48 
L 128.163798 184.68 
L 128.234082 159.48 
L 128.260527 184.68 
L 130.236478 184.68 
L 130.290454 159.48 
L 130.306894 184.68 
L 131.52132 184.68 
L 131.59636 134.28 
L 131.693836 134.28 
L 131.903165 159.48 
L 131.945541 134.28 
L 133.183977 134.28 
L 133.348677 109.08 
L 133.644169 109.08 
L 133.759359 134.28 
L 133.924245 134.28 
L 134.033776 184.68 
L 134.174379 159.48 
L 134.185056 134.28 
L 134.393548 134.28 
L 134.409596 159.48 
L 134.641348 159.48 
L 134.651785 184.68 
L 134.895326 184.68 
L 135.320817 134.28 
L 135.435837 134.28 
L 135.989161 159.48 
L 136.141517 184.68 
L 137.455015 184.68 
L 137.764142 159.48 
L 137.765425 184.68 
L 138.08787 134.28 
L 138.405732 134.28 
L 138.433621 159.48 
L 138.68988 159.48 
L 138.795152 184.68 
L 138.897228 159.48 
L 139.04579 184.68 
L 139.288181 159.48 
L 139.740053 159.48 
L 139.759948 134.28 
L 139.994492 159.48 
L 140.361057 184.68 
L 140.694846 184.68 
L 140.855412 134.28 
L 140.979149 134.28 
L 141.971176 159.48 
L 143.303723 159.48 
L 143.439929 184.68 
L 143.637954 159.48 
L 144.406744 184.68 
L 145.579315 184.68 
L 145.588791 159.48 
L 147.604598 159.48 
L 147.677595 184.68 
L 147.880446 159.48 
L 148.212529 159.48 
L 148.531618 134.28 
L 149.468556 134.28 
L 149.542617 159.48 
L 149.872886 159.48 
L 149.975017 134.28 
L 150.053048 134.28 
L 150.289832 159.48 
L 150.402798 134.28 
L 150.525078 134.28 
L 150.762196 159.48 
L 151.828282 159.48 
L 152.033385 134.28 
L 152.994481 134.28 
L 153.472572 159.48 
L 153.70508 159.48 
L 153.706879 134.28 
L 155.700229 134.28 
L 155.83737 109.08 
L 156.074544 159.48 
L 156.411266 159.48 
L 156.436517 184.68 
L 156.475852 134.28 
L 156.597103 159.48 
L 157.161029 184.68 
L 162.144548 184.68 
L 162.363836 134.28 
L 163.070649 134.28 
L 163.375391 109.08 
L 163.839191 109.08 
L 163.861231 83.88 
L 164.282211 83.88 
L 164.285276 58.68 
L 164.445799 58.68 
L 164.605138 33.48 
L 164.612428 58.68 
L 165.20504 58.68 
L 165.778999 83.88 
L 166.239377 83.88 
L 166.325871 109.08 
L 166.614999 109.08 
L 166.638164 83.88 
L 167.073242 83.88 
L 167.119092 58.68 
L 167.442716 83.88 
L 167.652191 109.08 
L 167.808727 134.28 
L 168.350505 134.28 
L 168.676253 58.68 
L 168.935112 58.68 
L 169.102561 83.88 
L 169.389414 58.68 
L 169.776764 58.68 
L 169.935504 109.08 
L 170.214674 109.08 
L 170.258703 58.68 
L 170.389598 83.88 
L 171.038204 134.28 
L 171.147599 109.08 
L 171.291318 83.88 
L 171.718584 83.88 
L 171.74889 58.68 
L 172.450957 58.68 
L 172.558344 83.88 
L 172.728079 58.68 
L 173.198305 33.48 
L 173.731949 58.68 
L 174.825809 58.68 
L 174.851871 33.48 
L 174.889748 58.68 
L 175.006233 33.48 
L 176.673408 33.48 
L 177.034604 58.68 
L 177.117763 58.68 
L 177.420096 83.88 
L 178.831067 83.88 
L 178.943211 58.68 
L 179.198907 33.48 
L 179.401839 109.08 
L 179.730452 134.28 
L 179.748257 159.48 
L 180.410601 184.68 
L 181.348198 184.68 
L 181.474689 159.48 
L 181.689366 184.68 
L 182.084618 184.68 
L 182.143903 159.48 
L 182.607369 159.48 
L 182.86466 184.68 
L 182.86836 159.48 
L 182.989689 184.68 
L 183.173471 159.48 
L 183.390126 159.48 
L 183.656832 109.08 
L 183.902927 109.08 
L 184.085601 83.88 
L 184.798828 83.88 
L 185.251872 109.08 
L 185.357074 83.88 
L 185.564523 109.08 
L 186.324438 159.48 
L 186.949437 159.48 
L 187.224945 109.08 
L 187.320281 134.28 
L 187.485018 159.48 
L 188.097231 159.48 
L 188.316364 184.68 
L 188.792334 184.68 
L 188.927219 159.48 
L 189.082694 159.48 
L 189.147744 134.28 
L 189.440087 184.68 
L 189.609364 159.48 
L 189.731587 184.68 
L 190.213078 184.68 
L 190.226362 159.48 
L 190.347537 184.68 
L 190.55177 134.28 
L 191.10879 134.28 
L 191.306867 184.68 
L 192.060451 184.68 
L 192.358815 159.48 
L 192.48662 184.68 
L 192.550064 159.48 
L 192.575813 184.68 
L 192.756626 159.48 
L 193.016797 184.68 
L 193.28981 184.68 
L 193.384623 159.48 
L 193.720917 159.48 
L 193.761685 134.28 
L 194.026722 134.28 
L 194.19419 109.08 
L 194.815567 109.08 
L 195.042838 83.88 
L 195.186181 109.08 
L 195.371621 109.08 
L 195.675912 159.48 
L 196.438096 159.48 
L 196.49156 184.68 
L 196.741709 159.48 
L 196.755887 134.28 
L 197.324144 134.28 
L 197.462032 159.48 
L 197.884841 134.28 
L 197.995346 134.28 
L 198.539253 159.48 
L 198.835703 159.48 
L 198.861143 134.28 
L 199.28648 159.48 
L 199.480798 159.48 
L 199.522853 134.28 
L 199.572373 159.48 
L 199.793352 159.48 
L 199.959204 134.28 
L 200.090813 159.48 
L 201.528246 159.48 
L 201.700841 184.68 
L 202.061409 184.68 
L 202.195474 134.28 
L 202.376575 159.48 
L 202.422801 134.28 
L 202.982416 134.28 
L 202.991211 159.48 
L 203.232848 159.48 
L 203.509058 184.68 
L 203.948323 159.48 
L 205.795459 159.48 
L 205.829996 134.28 
L 205.888132 159.48 
L 208.128567 159.48 
L 208.153212 134.28 
L 208.684018 184.68 
L 209.576632 184.68 
L 209.762262 134.28 
L 209.830006 159.48 
L 210.097019 184.68 
L 211.467799 184.68 
L 211.71248 159.48 
L 211.853356 184.68 
L 212.743581 184.68 
L 212.761907 159.48 
L 213.273138 159.48 
L 214.023179 184.68 
L 215.822254 184.68 
L 216.094435 134.28 
L 216.168379 159.48 
L 216.521081 159.48 
L 216.716401 184.68 
L 217.250659 184.68 
L 217.327098 159.48 
L 218.085003 159.48 
L 218.293338 184.68 
L 218.676345 184.68 
L 218.763361 159.48 
L 218.982915 184.68 
L 219.010035 159.48 
L 219.205935 184.68 
L 219.958342 184.68 
L 220.06563 159.48 
L 220.568129 159.48 
L 220.610099 184.68 
L 220.683063 159.48 
L 220.739801 184.68 
L 222.690865 184.68 
L 223.021485 159.48 
L 223.558717 159.48 
L 223.695744 184.68 
L 223.830304 159.48 
L 224.141417 184.68 
L 224.156047 159.48 
L 224.513635 159.48 
L 224.863361 184.68 
L 225.077264 159.48 
L 225.313677 159.48 
L 225.409659 184.68 
L 226.15532 184.68 
L 226.370353 159.48 
L 226.518983 184.68 
L 226.58199 159.48 
L 227.12108 159.48 
L 227.270571 134.28 
L 227.565934 109.08 
L 227.679732 134.28 
L 227.860868 134.28 
L 227.894631 159.48 
L 228.068428 159.48 
L 228.152472 134.28 
L 228.208946 159.48 
L 228.51098 159.48 
L 228.613308 134.28 
L 228.694537 134.28 
L 228.835129 109.08 
L 228.914034 134.28 
L 228.936305 109.08 
L 229.05294 134.28 
L 232.073608 134.28 
L 232.226139 159.48 
L 232.374564 134.28 
L 232.425544 159.48 
L 232.627722 184.68 
L 233.03878 184.68 
L 233.183816 134.28 
L 233.200054 159.48 
L 233.923156 184.68 
L 234.272182 184.68 
L 234.338606 159.48 
L 234.358328 184.68 
L 235.727114 184.68 
L 235.822826 159.48 
L 235.97808 159.48 
L 236.047171 184.68 
L 236.055042 159.48 
L 236.295224 159.48 
L 236.98892 134.28 
L 237.127861 159.48 
L 237.132632 134.28 
L 237.295237 134.28 
L 237.303198 109.08 
L 237.481449 134.28 
L 238.204422 134.28 
L 238.921087 184.68 
L 239.144053 184.68 
L 239.484084 159.48 
L 239.769175 184.68 
L 240.645867 184.68 
L 241.435466 159.48 
L 242.120505 159.48 
L 242.369301 184.68 
L 242.4732 159.48 
L 243.363088 184.68 
L 245.521904 184.68 
L 245.610951 159.48 
L 248.173806 159.48 
L 248.563216 134.28 
L 248.883517 184.68 
L 249.034325 184.68 
L 249.216036 159.48 
L 249.349024 159.48 
L 249.39152 184.68 
L 249.98419 184.68 
L 250.122807 159.48 
L 251.063238 159.48 
L 251.125429 184.68 
L 251.352134 159.48 
L 251.929022 184.68 
L 253.722737 184.68 
L 253.784952 159.48 
L 253.905377 184.68 
L 254.101457 159.48 
L 254.617508 159.48 
L 254.688837 134.28 
L 254.692457 159.48 
L 254.873039 159.48 
L 254.936238 134.28 
L 255.070831 159.48 
L 255.416484 159.48 
L 255.608061 184.68 
L 255.676772 159.48 
L 256.148858 159.48 
L 256.166954 184.68 
L 256.28496 184.68 
L 256.946826 159.48 
L 257.0047 184.68 
L 257.417697 184.68 
L 257.553414 159.48 
L 258.104528 184.68 
L 260.605139 184.68 
L 261.092568 159.48 
L 261.763705 184.68 
L 262.194953 184.68 
L 262.307219 134.28 
L 263.067602 134.28 
L 263.261147 159.48 
L 264.424198 159.48 
L 264.52457 184.68 
L 264.847069 184.68 
L 264.973553 159.48 
L 265.217953 159.48 
L 265.243235 184.68 
L 265.636885 159.48 
L 265.866371 184.68 
L 265.967206 159.48 
L 266.558195 159.48 
L 266.588776 134.28 
L 266.667573 159.48 
L 266.969949 134.28 
L 267.154751 109.08 
L 267.345724 134.28 
L 267.754716 134.28 
L 268.161356 159.48 
L 268.462429 159.48 
L 268.61296 109.08 
L 268.642667 134.28 
L 268.762978 159.48 
L 269.631926 159.48 
L 270.103915 134.28 
L 270.176949 109.08 
L 270.302802 109.08 
L 270.500436 134.28 
L 270.540071 134.28 
L 270.601281 159.48 
L 270.773466 159.48 
L 270.882824 134.28 
L 271.062961 159.48 
L 271.282927 134.28 
L 271.302753 134.28 
L 271.556811 109.08 
L 272.069981 109.08 
L 272.082226 83.88 
L 272.258868 109.08 
L 273.143037 109.08 
L 273.167481 159.48 
L 273.376307 109.08 
L 273.923165 109.08 
L 274.141658 83.88 
L 274.324216 109.08 
L 274.527913 109.08 
L 274.712257 83.88 
L 274.856855 159.48 
L 275.873158 159.48 
L 276.145887 134.28 
L 276.270229 159.48 
L 276.469023 159.48 
L 276.553501 109.08 
L 276.560705 134.28 
L 276.918227 134.28 
L 277.597677 184.68 
L 282.659275 184.68 
L 282.830545 159.48 
L 282.941278 184.68 
L 284.879607 184.68 
L 284.894402 159.48 
L 285.14998 159.48 
L 285.28082 184.68 
L 285.419133 159.48 
L 285.462421 159.48 
L 285.508828 134.28 
L 285.761371 134.28 
L 285.889573 159.48 
L 286.08371 159.48 
L 286.281057 134.28 
L 286.29816 159.48 
L 286.594488 109.08 
L 287.088285 134.28 
L 287.365925 109.08 
L 287.369109 134.28 
L 287.45449 109.08 
L 287.480157 109.08 
L 287.527661 83.88 
L 288.51037 109.08 
L 288.676429 109.08 
L 288.866626 134.28 
L 289.2664 109.08 
L 289.484215 109.08 
L 289.527772 134.28 
L 289.691366 134.28 
L 289.765798 159.48 
L 289.851227 134.28 
L 290.068094 159.48 
L 290.318415 159.48 
L 291.104603 184.68 
L 291.557409 184.68 
L 291.973274 134.28 
L 292.216382 134.28 
L 292.329829 83.88 
L 292.618646 109.08 
L 293.067929 83.88 
L 293.370707 83.88 
L 293.419581 109.08 
L 294.265121 109.08 
L 294.479935 83.88 
L 294.895292 83.88 
L 294.943307 109.08 
L 295.335484 109.08 
L 295.494426 83.88 
L 296.362442 109.08 
L 296.504918 109.08 
L 297.060157 83.88 
L 297.469685 134.28 
L 298.884552 134.28 
L 298.981672 109.08 
L 298.985134 134.28 
L 300.579668 134.28 
L 301.369214 159.48 
L 301.634596 159.48 
L 301.832006 134.28 
L 302.151086 134.28 
L 302.189744 159.48 
L 302.452919 159.48 
L 302.566539 134.28 
L 302.693824 134.28 
L 302.960106 109.08 
L 303.04115 134.28 
L 303.067708 109.08 
L 303.576635 109.08 
L 304.165917 134.28 
L 304.247558 159.48 
L 304.677448 184.68 
L 305.017579 184.68 
L 305.061491 159.48 
L 305.444284 159.48 
L 305.635284 134.28 
L 305.639118 159.48 
L 305.677269 134.28 
L 306.158735 109.08 
L 306.798543 109.08 
L 306.892694 134.28 
L 308.017046 134.28 
L 308.436681 159.48 
L 308.727203 184.68 
L 309.682937 184.68 
L 309.860696 159.48 
L 310.193641 159.48 
L 310.518264 134.28 
L 310.616025 134.28 
L 310.766426 83.88 
L 311.224465 109.08 
L 312.184675 109.08 
L 312.228795 134.28 
L 312.528506 159.48 
L 312.601713 184.68 
L 313.321525 184.68 
L 313.322702 159.48 
L 313.468205 159.48 
L 313.526278 134.28 
L 313.588952 159.48 
L 313.904848 159.48 
L 314.058531 134.28 
L 314.16029 159.48 
L 314.4109 159.48 
L 315.03493 134.28 
L 315.165403 159.48 
L 315.27613 159.48 
L 315.426449 184.68 
L 315.434474 159.48 
L 315.768545 184.68 
L 317.001715 184.68 
L 317.080335 159.48 
L 317.3811 184.68 
L 317.830767 184.68 
L 317.975467 134.28 
L 318.225289 134.28 
L 318.38795 159.48 
L 318.389781 134.28 
L 320.459012 134.28 
L 320.678744 109.08 
L 321.101531 134.28 
L 321.397032 134.28 
L 321.543357 159.48 
L 321.759869 159.48 
L 321.817717 134.28 
L 323.124312 159.48 
L 323.153757 184.68 
L 323.843308 184.68 
L 323.870709 159.48 
L 324.060623 184.68 
L 324.753891 184.68 
L 324.76409 159.48 
L 324.852442 184.68 
L 325.029165 184.68 
L 325.240998 159.48 
L 325.912678 159.48 
L 326.204863 184.68 
L 326.588585 184.68 
L 326.588927 159.48 
L 326.638229 184.68 
L 327.88322 184.68 
L 328.035574 159.48 
L 328.362219 184.68 
L 328.411553 159.48 
L 328.629896 134.28 
L 328.636175 159.48 
L 329.036778 134.28 
L 329.488267 134.28 
L 329.503475 159.48 
L 329.561007 134.28 
L 330.195247 159.48 
L 330.609473 184.68 
L 331.609446 184.68 
L 331.673092 159.48 
L 331.733603 184.68 
L 332.18384 184.68 
L 332.381481 159.48 
L 332.533284 159.48 
L 332.696298 184.68 
L 332.780972 159.48 
L 333.070091 159.48 
L 333.426992 109.08 
L 333.635843 109.08 
L 333.692279 134.28 
L 334.15519 134.28 
L 334.242342 159.48 
L 334.473748 184.68 
L 336.608701 184.68 
L 337.074495 159.48 
L 337.542117 184.68 
L 337.844654 184.68 
L 338.272187 159.48 
L 338.76846 159.48 
L 339.030056 134.28 
L 339.234607 134.28 
L 339.757333 159.48 
L 340.093111 159.48 
L 340.163402 184.68 
L 340.652254 184.68 
L 340.881412 159.48 
L 341.255754 159.48 
L 341.533269 184.68 
L 341.996396 184.68 
L 342.078613 159.48 
L 342.136503 134.28 
L 342.736993 134.28 
L 342.80658 159.48 
L 343.053327 159.48 
L 343.154371 109.08 
L 343.494138 109.08 
L 343.546826 134.28 
L 343.663616 134.28 
L 344.128227 159.48 
L 344.442737 184.68 
L 345.595139 184.68 
L 345.726743 159.48 
L 346.015373 159.48 
L 346.069226 134.28 
L 346.993635 134.28 
L 347.076622 184.68 
L 348.086865 184.68 
L 348.591792 159.48 
L 348.878476 159.48 
L 348.904022 184.68 
L 357.959208 184.68 
L 357.975962 159.48 
L 358.055177 184.68 
L 358.165228 184.68 
L 358.253076 159.48 
L 358.270619 184.68 
L 360.890863 184.68 
L 361.140111 159.48 
L 362.788056 184.68 
L 363.320166 184.68 
L 363.36814 159.48 
L 363.663197 184.68 
L 364.80409 184.68 
L 365.044726 159.48 
L 365.167326 159.48 
L 365.336055 184.68 
L 365.360252 159.48 
L 365.937156 159.48 
L 365.989701 184.68 
L 366.088758 159.48 
L 366.356292 159.48 
L 366.393126 184.68 
L 366.542557 159.48 
L 367.348221 159.48 
L 367.386561 184.68 
L 367.901126 159.48 
L 368.027041 184.68 
L 369.941566 184.68 
L 370.08049 159.48 
L 370.24101 184.68 
L 371.299187 184.68 
L 371.339108 159.48 
L 371.364604 184.68 
L 372.023591 184.68 
L 372.081264 159.48 
L 372.421498 159.48 
L 372.564223 184.68 
L 372.594776 159.48 
L 373.334376 159.48 
L 374.098264 134.28 
L 374.392702 134.28 
L 374.526532 109.08 
L 374.795597 109.08 
L 375.096123 83.88 
L 375.126938 83.88 
L 375.212553 58.68 
L 375.365331 83.88 
L 375.669331 83.88 
L 375.790446 58.68 
L 375.937073 83.88 
L 375.999267 58.68 
L 376.147428 58.68 
L 376.20117 109.08 
L 376.682711 83.88 
L 377.201296 109.08 
L 377.498124 159.48 
L 377.734143 184.68 
L 378.033559 184.68 
L 378.106885 159.48 
L 378.76763 159.48 
L 378.910382 83.88 
L 378.970827 83.88 
L 378.987894 109.08 
L 380.518629 109.08 
L 380.521742 134.28 
L 380.612472 83.88 
L 380.659935 83.88 
L 380.693692 58.68 
L 381.142999 83.88 
L 381.733734 83.88 
L 382.02591 58.68 
L 382.286391 134.28 
L 382.624327 134.28 
L 382.788787 159.48 
L 382.822181 134.28 
L 382.885488 159.48 
L 383.012169 184.68 
L 383.756071 159.48 
L 384.183041 184.68 
L 386.968989 184.68 
L 387.012125 159.48 
L 387.417918 184.68 
L 388.150289 184.68 
L 388.39497 159.48 
L 388.443485 134.28 
L 388.509007 159.48 
L 388.712898 159.48 
L 388.835244 184.68 
L 389.469752 184.68 
L 389.618785 159.48 
L 389.775698 159.48 
L 389.777617 184.68 
L 390.141825 184.68 
L 390.440029 134.28 
L 391.751078 134.28 
L 392.031663 159.48 
L 392.438102 159.48 
L 392.540039 184.68 
L 392.792482 159.48 
L 393.791514 159.48 
L 393.825491 184.68 
L 393.921207 159.48 
L 393.959419 184.68 
L 396.169825 184.68 
L 396.170065 159.48 
L 396.315997 184.68 
L 403.361852 184.68 
L 403.461852 159.48 
L 403.867955 159.48 
L 404.300897 134.28 
L 404.319508 159.48 
L 404.347447 134.28 
L 404.413325 134.28 
L 404.57414 109.08 
L 404.917715 109.08 
L 405.085101 134.28 
L 405.124821 159.48 
L 405.368511 134.28 
L 406.266686 134.28 
L 406.607664 109.08 
L 406.749171 134.28 
L 407.124666 159.48 
L 408.385381 159.48 
L 408.419326 134.28 
L 408.804712 159.48 
L 409.057217 184.68 
L 409.919161 184.68 
L 410.291347 159.48 
L 410.317353 134.28 
L 410.505126 159.48 
L 411.112772 159.48 
L 411.211625 184.68 
L 411.237623 159.48 
L 411.502242 134.28 
L 412.17336 134.28 
L 412.433328 159.48 
L 413.488276 159.48 
L 413.492216 184.68 
L 414.289088 184.68 
L 414.519335 159.48 
L 414.574742 184.68 
L 414.704648 184.68 
L 414.734574 159.48 
L 415.821518 159.48 
L 416.134015 134.28 
L 417.426538 134.28 
L 417.447696 159.48 
L 417.876105 159.48 
L 417.934703 134.28 
L 418.348557 109.08 
L 418.448459 83.88 
L 418.798746 83.88 
L 419.671308 109.08 
L 421.686119 109.08 
L 421.892223 134.28 
L 421.978983 159.48 
L 422.368097 184.68 
L 422.590983 184.68 
L 422.86787 134.28 
L 423.064104 159.48 
L 423.213395 134.28 
L 423.553892 184.68 
L 423.616732 159.48 
L 423.731149 184.68 
L 424.404971 184.68 
L 424.426568 159.48 
L 424.664427 159.48 
L 424.912234 134.28 
L 424.95666 159.48 
L 425.205781 159.48 
L 425.208483 134.28 
L 425.991983 134.28 
L 426.259624 159.48 
L 426.423625 134.28 
L 426.450471 109.08 
L 426.458908 134.28 
L 426.961832 134.28 
L 427.071498 159.48 
L 427.667197 159.48 
L 427.741192 134.28 
L 428.668055 134.28 
L 428.902248 184.68 
L 429.698923 184.68 
L 430.071839 159.48 
L 430.327687 159.48 
L 430.352213 134.28 
L 432.864431 134.28 
L 433.135397 109.08 
L 433.364306 109.08 
L 433.39978 83.88 
L 433.582258 58.68 
L 434.650197 58.68 
L 434.873168 83.88 
L 435.677178 83.88 
L 435.756 109.08 
L 435.905078 109.08 
L 436.024256 83.88 
L 436.076511 109.08 
L 437.685382 109.08 
L 438.305565 134.28 
L 438.992127 134.28 
L 439.026663 109.08 
L 439.355221 83.88 
L 439.655708 83.88 
L 439.903253 134.28 
L 440.708088 159.48 
L 441.500068 159.48 
L 441.632116 184.68 
L 441.771888 184.68 
L 442.11406 159.48 
L 442.205796 134.28 
L 442.894964 134.28 
L 443.055863 159.48 
L 443.345082 159.48 
L 443.741121 134.28 
L 444.092546 134.28 
L 444.26278 184.68 
L 444.375942 159.48 
L 444.808305 159.48 
L 445.039066 109.08 
L 446.028224 109.08 
L 446.281242 83.88 
L 446.306877 83.88 
L 446.329801 109.08 
L 446.473108 134.28 
L 447.765457 134.28 
L 447.930649 159.48 
L 447.970527 134.28 
L 448.61933 134.28 
L 448.867819 83.88 
L 449.148223 83.88 
L 449.295293 109.08 
L 449.532074 83.88 
L 450.226098 83.88 
L 450.239961 109.08 
L 450.494842 58.68 
L 451.92162 58.68 
L 452.046975 33.48 
L 452.439164 58.68 
L 453.268945 58.68 
L 453.762387 109.08 
L 453.951088 109.08 
L 454.079039 83.88 
L 454.250791 159.48 
L 454.304725 159.48 
L 454.470494 134.28 
L 454.907207 134.28 
L 455.027351 159.48 
L 455.205504 159.48 
L 455.503235 134.28 
L 456.008466 134.28 
L 456.014619 159.48 
L 456.204776 134.28 
L 456.417663 159.48 
L 456.58998 159.48 
L 456.659361 134.28 
L 457.148506 159.48 
L 457.509753 159.48 
L 457.516442 134.28 
L 457.751548 134.28 
L 457.804178 109.08 
L 457.807275 134.28 
L 458.330681 159.48 
L 458.70745 159.48 
L 458.742122 184.68 
L 459.527327 184.68 
L 459.776485 159.48 
L 459.842729 184.68 
L 460.242737 184.68 
L 460.273084 159.48 
L 460.634148 159.48 
L 460.780304 134.28 
L 461.009346 134.28 
L 461.030332 159.48 
L 461.303783 134.28 
L 461.348132 159.48 
L 461.412114 134.28 
L 462.956088 134.28 
L 463.091768 109.08 
L 463.267166 83.88 
L 464.87803 83.88 
L 465.104137 109.08 
L 466.382945 109.08 
L 466.6197 159.48 
L 466.659858 134.28 
L 467.281798 134.28 
L 467.319962 159.48 
L 467.578795 134.28 
L 467.95936 134.28 
L 468.358606 109.08 
L 468.545634 109.08 
L 468.683709 83.88 
L 469.496873 83.88 
L 469.569561 134.28 
L 469.784644 109.08 
L 469.874289 159.48 
L 469.897662 134.28 
L 470.058863 134.28 
L 470.236066 184.68 
L 470.239338 159.48 
L 470.410206 184.68 
L 471.705092 184.68 
L 471.793022 159.48 
L 472.182631 184.68 
L 472.890543 184.68 
L 473.057744 159.48 
L 473.955027 184.68 
L 475.099854 184.68 
L 475.343305 159.48 
L 475.59595 184.68 
L 478.811788 184.68 
L 479.248963 134.28 
L 479.470323 134.28 
L 479.780959 184.68 
L 479.938007 159.48 
L 480.020519 184.68 
L 482.621275 184.68 
L 482.706025 159.48 
L 482.992161 184.68 
L 483.838963 184.68 
L 483.948162 159.48 
L 484.171294 159.48 
L 484.37155 134.28 
L 485.197334 159.48 
L 485.627487 184.68 
L 487.050943 184.68 
L 487.370227 159.48 
L 487.739543 159.48 
L 488.03137 184.68 
L 490.97291 184.68 
L 491.089864 134.28 
L 491.494735 134.28 
L 491.684528 159.48 
L 491.75772 134.28 
L 491.830306 159.48 
L 491.872238 134.28 
L 492.875121 134.28 
L 492.985663 109.08 
L 493.07559 134.28 
L 493.230073 134.28 
L 493.356581 109.08 
L 493.624137 109.08 
L 493.660835 134.28 
L 494.242681 134.28 
L 494.318905 159.48 
L 494.577386 159.48 
L 494.882705 134.28 
L 495.790197 159.48 
L 495.892292 134.28 
L 495.89463 159.48 
L 495.911392 184.68 
L 496.115384 184.68 
L 496.494435 159.48 
L 496.555779 159.48 
L 496.741121 109.08 
L 496.974879 109.08 
L 497.320449 134.28 
L 497.62539 134.28 
L 497.793551 159.48 
L 497.8503 184.68 
L 497.997427 184.68 
L 498.131086 159.48 
L 498.420931 134.28 
L 498.646646 134.28 
L 498.706841 109.08 
L 498.97463 134.28 
L 499.941549 134.28 
L 500.246191 159.48 
L 500.754285 159.48 
L 500.878193 134.28 
L 501.293436 159.48 
L 501.448957 184.68 
L 501.458011 159.48 
L 501.691414 159.48 
L 501.860038 184.68 
L 503.263629 184.68 
L 503.361714 159.48 
L 503.534174 159.48 
L 504.222792 184.68 
L 504.24884 184.68 
L 504.324875 159.48 
L 504.526295 159.48 
L 504.979726 184.68 
L 506.940909 184.68 
L 507.046263 159.48 
L 507.272211 159.48 
L 507.308599 134.28 
L 507.694139 134.28 
L 507.872052 159.48 
L 507.972797 159.48 
L 508.028965 134.28 
L 508.510359 83.88 
L 508.626458 83.88 
L 509.42819 134.28 
L 509.609389 134.28 
L 509.687391 109.08 
L 509.831067 134.28 
L 509.940706 159.48 
L 510.075872 159.48 
L 510.323488 184.68 
L 510.456775 159.48 
L 510.713056 184.68 
L 510.821826 159.48 
L 511.073365 159.48 
L 511.10945 184.68 
L 511.269707 134.28 
L 511.879415 134.28 
L 513.143517 159.48 
L 513.182914 184.68 
L 513.192972 159.48 
L 513.582082 159.48 
L 513.662681 184.68 
L 515.744938 184.68 
L 516.137275 159.48 
L 516.22453 184.68 
L 517.300023 184.68 
L 517.434711 159.48 
L 517.697207 159.48 
L 517.731158 134.28 
L 517.963164 134.28 
L 518.031601 159.48 
L 518.126679 159.48 
L 518.424873 134.28 
L 518.492293 159.48 
L 518.596561 134.28 
L 518.771773 159.48 
L 519.238322 159.48 
L 519.396576 184.68 
L 519.784978 184.68 
L 519.903533 159.48 
L 520.071352 159.48 
L 520.147493 134.28 
L 520.319748 184.68 
L 520.355008 159.48 
L 521.089773 159.48 
L 521.108986 184.68 
L 521.160029 159.48 
L 521.19072 134.28 
L 521.595229 159.48 
L 523.129923 184.68 
L 524.653163 184.68 
L 524.742304 159.48 
L 524.748437 184.68 
L 525.415397 134.28 
L 525.809915 134.28 
L 526.016929 109.08 
L 526.565591 109.08 
L 527.812275 83.88 
L 528.279688 83.88 
L 528.362547 109.08 
L 531.037287 109.08 
L 531.107456 83.88 
L 531.514856 83.88 
L 531.635125 109.08 
L 531.758695 134.28 
L 531.898227 134.28 
L 532.043739 159.48 
L 532.162231 159.48 
L 532.2881 184.68 
L 532.343818 159.48 
L 532.52293 159.48 
L 532.663107 134.28 
L 533.098297 134.28 
L 533.923974 159.48 
L 534.230189 159.48 
L 534.349979 184.68 
L 534.472411 159.48 
L 534.730397 159.48 
L 534.774714 184.68 
L 534.799668 159.48 
L 535.103469 134.28 
L 535.619529 134.28 
L 535.743816 159.48 
L 535.840051 184.68 
L 536.198546 184.68 
L 536.513523 159.48 
L 536.868835 184.68 
L 536.998351 184.68 
L 537.1526 159.48 
L 538.078277 184.68 
L 541.450601 184.68 
L 541.534779 134.28 
L 543.058523 134.28 
L 543.23693 159.48 
L 543.630879 184.68 
L 545.418355 184.68 
L 545.718096 159.48 
L 546.287 159.48 
L 546.363981 134.28 
L 547.783544 134.28 
L 548.117696 159.48 
L 549.038015 159.48 
L 549.18761 184.68 
L 549.857045 184.68 
L 549.953597 159.48 
L 550.301841 184.68 
L 550.61299 184.68 
L 550.895139 159.48 
L 551.346385 159.48 
L 551.448536 134.28 
L 551.812011 134.28 
L 551.960011 159.48 
L 552.45734 159.48 
L 552.460071 184.68 
L 553.12356 184.68 
L 553.288576 159.48 
L 553.348795 184.68 
L 554.020014 184.68 
L 554.280685 134.28 
L 555.104308 134.28 
L 555.33905 184.68 
L 555.356956 159.48 
L 556.347945 159.48 
L 556.390409 184.68 
L 556.396633 159.48 
L 556.474396 159.48 
L 556.475257 134.28 
L 557.324015 134.28 
L 557.411118 109.08 
L 557.545417 109.08 
L 557.629576 134.28 
L 557.70214 109.08 
L 557.94234 159.48 
L 557.989641 134.28 
L 558.20672 159.48 
L 558.925538 159.48 
L 558.988407 134.28 
L 559.548642 134.28 
L 559.654971 159.48 
L 559.779817 159.48 
L 559.969951 184.68 
L 560.372727 184.68 
L 560.372727 184.68 
" clip-path="url(#p617a73f17a)" style="fill: none; stroke: #005f8f; stroke-width: 0.7; stroke-linecap: square"/>
   </g>
   <g id="patch_3">
    <path d="M 81 192.24 
L 81 25.92 
" style="fill: none; stroke: #1a1a1a; stroke-width: 0.75; stroke-linejoin: miter; stroke-linecap: square"/>
   </g>
   <g id="patch_4">
    <path d="M 81 192.24 
L 583.2 192.24 
" style="fill: none; stroke: #1a1a1a; stroke-width: 0.75; stroke-linejoin: miter; stroke-linecap: square"/>
   </g>
  </g>
 </g>
 <defs>
  <clipPath id="p617a73f17a">
   <rect x="81" y="25.92" width="502.2" height="166.32"/>
  </clipPath>
 </defs>
</svg>
