<?xml version="1.0" encoding="utf-8" standalone="no"?>
<!DOCTYPE svg PUBLIC "-//W3C//DTD SVG 1.1//EN"
  "http://www.w3.org/Graphics/SVG/1.1/DTD/svg11.dtd">
<!-- Created with matplotlib (https://matplotlib.org/) -->
<svg height="288pt" version="1.1" viewBox="0 0 864 288" width="864pt" xmlns="http://www.w3.org/2000/svg" xmlns:xlink="http://www.w3.org/1999/xlink">
 <defs>
  <style type="text/css">
*{stroke-linecap:butt;stroke-linejoin:round;}
  </style>
 </defs>
 <g id="figure_1">
  <g id="patch_1">
   <path d="M 0 288 
L 864 288 
L 864 0 
L 0 0 
z
" style="fill:#ffffff;"/>
  </g>
  <g id="axes_1">
   <g id="patch_2">
    <path d="M 108 252 
L 777.6 252 
L 777.6 34.56 
L 108 34.56 
z
" style="fill:#ffffff;"/>
   </g>
   <g id="matplotlib.axis_1">
    <g id="xtick_1">
     <g id="line2d_1">
      <defs>
       <path d="M 0 0 
L 0 3.5 
" id="maa2cd3eaae" style="stroke:#000000;stroke-width:0.8;"/>
      </defs>
      <g>
       <use style="stroke:#000000;stroke-width:0.8;" x="138.436364" xlink:href="#maa2cd3eaae" y="252"/>
      </g>
     </g>
     <g id="text_1">
      <!-- 0 -->
      <defs>
       <path d="M 31.78125 66.40625 
Q 24.171875 66.40625 20.328125 58.90625 
Q 16.5 51.421875 16.5 36.375 
Q 16.5 21.390625 20.328125 13.890625 
Q 24.171875 6.390625 31.78125 6.390625 
Q 39.453125 6.390625 43.28125 13.890625 
Q 47.125 21.390625 47.125 36.375 
Q 47.125 51.421875 43.28125 58.90625 
Q 39.453125 66.40625 31.78125 66.40625 
z
M 31.78125 74.21875 
Q 44.046875 74.21875 50.515625 64.515625 
Q 56.984375 54.828125 56.984375 36.375 
Q 56.984375 17.96875 50.515625 8.265625 
Q 44.046875 -1.421875 31.78125 -1.421875 
Q 19.53125 -1.421875 13.0625 8.265625 
Q 6.59375 17.96875 6.59375 36.375 
Q 6.59375 54.828125 13.0625 64.515625 
Q 19.53125 74.21875 31.78125 74.21875 
z
" id="DejaVuSans-48"/>
      </defs>
      <g transform="translate(135.255114 266.598437)scale(0.1 -0.1)">
       <use xlink:href="#DejaVuSans-48"/>
      </g>
     </g>
    </g>
    <g id="xtick_2">
     <g id="line2d_2">
      <g>
       <use style="stroke:#000000;stroke-width:0.8;" x="214.52811" xlink:href="#maa2cd3eaae" y="252"/>
      </g>
     </g>
     <g id="text_2">
      <!-- 10 -->
      <defs>
       <path d="M 12.40625 8.296875 
L 28.515625 8.296875 
L 28.515625 63.921875 
L 10.984375 60.40625 
L 10.984375 69.390625 
L 28.421875 72.90625 
L 38.28125 72.90625 
L 38.28125 8.296875 
L 54.390625 8.296875 
L 54.390625 0 
L 12.40625 0 
z
" id="DejaVuSans-49"/>
      </defs>
      <g transform="translate(208.16561 266.598437)scale(0.1 -0.1)">
       <use xlink:href="#DejaVuSans-49"/>
       <use x="63.623047" xlink:href="#DejaVuSans-48"/>
      </g>
     </g>
    </g>
    <g id="xtick_3">
     <g id="line2d_3">
      <g>
       <use style="stroke:#000000;stroke-width:0.8;" x="290.619857" xlink:href="#maa2cd3eaae" y="252"/>
      </g>
     </g>
     <g id="text_3">
      <!-- 20 -->
      <defs>
       <path d="M 19.1875 8.296875 
L 53.609375 8.296875 
L 53.609375 0 
L 7.328125 0 
L 7.328125 8.296875 
Q 12.9375 14.109375 22.625 23.890625 
Q 32.328125 33.6875 34.8125 36.53125 
Q 39.546875 41.84375 41.421875 45.53125 
Q 43.3125 49.21875 43.3125 52.78125 
Q 43.3125 58.59375 39.234375 62.25 
Q 35.15625 65.921875 28.609375 65.921875 
Q 23.96875 65.921875 18.8125 64.3125 
Q 13.671875 62.703125 7.8125 59.421875 
L 7.8125 69.390625 
Q 13.765625 71.78125 18.9375 73 
Q 24.125 74.21875 28.421875 74.21875 
Q 39.75 74.21875 46.484375 68.546875 
Q 53.21875 62.890625 53.21875 53.421875 
Q 53.21875 48.921875 51.53125 44.890625 
Q 49.859375 40.875 45.40625 35.40625 
Q 44.1875 33.984375 37.640625 27.21875 
Q 31.109375 20.453125 19.1875 8.296875 
z
" id="DejaVuSans-50"/>
      </defs>
      <g transform="translate(284.257357 266.598437)scale(0.1 -0.1)">
       <use xlink:href="#DejaVuSans-50"/>
       <use x="63.623047" xlink:href="#DejaVuSans-48"/>
      </g>
     </g>
    </g>
    <g id="xtick_4">
     <g id="line2d_4">
      <g>
       <use style="stroke:#000000;stroke-width:0.8;" x="366.711604" xlink:href="#maa2cd3eaae" y="252"/>
      </g>
     </g>
     <g id="text_4">
      <!-- 30 -->
      <defs>
       <path d="M 40.578125 39.3125 
Q 47.65625 37.796875 51.625 33 
Q 55.609375 28.21875 55.609375 21.1875 
Q 55.609375 10.40625 48.1875 4.484375 
Q 40.765625 -1.421875 27.09375 -1.421875 
Q 22.515625 -1.421875 17.65625 -0.515625 
Q 12.796875 0.390625 7.625 2.203125 
L 7.625 11.71875 
Q 11.71875 9.328125 16.59375 8.109375 
Q 21.484375 6.890625 26.8125 6.890625 
Q 36.078125 6.890625 40.9375 10.546875 
Q 45.796875 14.203125 45.796875 21.1875 
Q 45.796875 27.640625 41.28125 31.265625 
Q 36.765625 34.90625 28.71875 34.90625 
L 20.21875 34.90625 
L 20.21875 43.015625 
L 29.109375 43.015625 
Q 36.375 43.015625 40.234375 45.921875 
Q 44.09375 48.828125 44.09375 54.296875 
Q 44.09375 59.90625 40.109375 62.90625 
Q 36.140625 65.921875 28.71875 65.921875 
Q 24.65625 65.921875 20.015625 65.03125 
Q 15.375 64.15625 9.8125 62.3125 
L 9.8125 71.09375 
Q 15.4375 72.65625 20.34375 73.4375 
Q 25.25 74.21875 29.59375 74.21875 
Q 40.828125 74.21875 47.359375 69.109375 
Q 53.90625 64.015625 53.90625 55.328125 
Q 53.90625 49.265625 50.4375 45.09375 
Q 46.96875 40.921875 40.578125 39.3125 
z
" id="DejaVuSans-51"/>
      </defs>
      <g transform="translate(360.349104 266.598437)scale(0.1 -0.1)">
       <use xlink:href="#DejaVuSans-51"/>
       <use x="63.623047" xlink:href="#DejaVuSans-48"/>
      </g>
     </g>
    </g>
    <g id="xtick_5">
     <g id="line2d_5">
      <g>
       <use style="stroke:#000000;stroke-width:0.8;" x="442.80335" xlink:href="#maa2cd3eaae" y="252"/>
      </g>
     </g>
     <g id="text_5">
      <!-- 40 -->
      <defs>
       <path d="M 37.796875 64.3125 
L 12.890625 25.390625 
L 37.796875 25.390625 
z
M 35.203125 72.90625 
L 47.609375 72.90625 
L 47.609375 25.390625 
L 58.015625 25.390625 
L 58.015625 17.1875 
L 47.609375 17.1875 
L 47.609375 0 
L 37.796875 0 
L 37.796875 17.1875 
L 4.890625 17.1875 
L 4.890625 26.703125 
z
" id="DejaVuSans-52"/>
      </defs>
      <g transform="translate(436.44085 266.598437)scale(0.1 -0.1)">
       <use xlink:href="#DejaVuSans-52"/>
       <use x="63.623047" xlink:href="#DejaVuSans-48"/>
      </g>
     </g>
    </g>
    <g id="xtick_6">
     <g id="line2d_6">
      <g>
       <use style="stroke:#000000;stroke-width:0.8;" x="518.895097" xlink:href="#maa2cd3eaae" y="252"/>
      </g>
     </g>
     <g id="text_6">
      <!-- 50 -->
      <defs>
       <path d="M 10.796875 72.90625 
L 49.515625 72.90625 
L 49.515625 64.59375 
L 19.828125 64.59375 
L 19.828125 46.734375 
Q 21.96875 47.46875 24.109375 47.828125 
Q 26.265625 48.1875 28.421875 48.1875 
Q 40.625 48.1875 47.75 41.5 
Q 54.890625 34.8125 54.890625 23.390625 
Q 54.890625 11.625 47.5625 5.09375 
Q 40.234375 -1.421875 26.90625 -1.421875 
Q 22.3125 -1.421875 17.546875 -0.640625 
Q 12.796875 0.140625 7.71875 1.703125 
L 7.71875 11.625 
Q 12.109375 9.234375 16.796875 8.0625 
Q 21.484375 6.890625 26.703125 6.890625 
Q 35.15625 6.890625 40.078125 11.328125 
Q 45.015625 15.765625 45.015625 23.390625 
Q 45.015625 31 40.078125 35.4375 
Q 35.15625 39.890625 26.703125 39.890625 
Q 22.75 39.890625 18.8125 39.015625 
Q 14.890625 38.140625 10.796875 36.28125 
z
" id="DejaVuSans-53"/>
      </defs>
      <g transform="translate(512.532597 266.598437)scale(0.1 -0.1)">
       <use xlink:href="#DejaVuSans-53"/>
       <use x="63.623047" xlink:href="#DejaVuSans-48"/>
      </g>
     </g>
    </g>
    <g id="xtick_7">
     <g id="line2d_7">
      <g>
       <use style="stroke:#000000;stroke-width:0.8;" x="594.986844" xlink:href="#maa2cd3eaae" y="252"/>
      </g>
     </g>
     <g id="text_7">
      <!-- 60 -->
      <defs>
       <path d="M 33.015625 40.375 
Q 26.375 40.375 22.484375 35.828125 
Q 18.609375 31.296875 18.609375 23.390625 
Q 18.609375 15.53125 22.484375 10.953125 
Q 26.375 6.390625 33.015625 6.390625 
Q 39.65625 6.390625 43.53125 10.953125 
Q 47.40625 15.53125 47.40625 23.390625 
Q 47.40625 31.296875 43.53125 35.828125 
Q 39.65625 40.375 33.015625 40.375 
z
M 52.59375 71.296875 
L 52.59375 62.3125 
Q 48.875 64.0625 45.09375 64.984375 
Q 41.3125 65.921875 37.59375 65.921875 
Q 27.828125 65.921875 22.671875 59.328125 
Q 17.53125 52.734375 16.796875 39.40625 
Q 19.671875 43.65625 24.015625 45.921875 
Q 28.375 48.1875 33.59375 48.1875 
Q 44.578125 48.1875 50.953125 41.515625 
Q 57.328125 34.859375 57.328125 23.390625 
Q 57.328125 12.15625 50.6875 5.359375 
Q 44.046875 -1.421875 33.015625 -1.421875 
Q 20.359375 -1.421875 13.671875 8.265625 
Q 6.984375 17.96875 6.984375 36.375 
Q 6.984375 53.65625 15.1875 63.9375 
Q 23.390625 74.21875 37.203125 74.21875 
Q 40.921875 74.21875 44.703125 73.484375 
Q 48.484375 72.75 52.59375 71.296875 
z
" id="DejaVuSans-54"/>
      </defs>
      <g transform="translate(588.624344 266.598437)scale(0.1 -0.1)">
       <use xlink:href="#DejaVuSans-54"/>
       <use x="63.623047" xlink:href="#DejaVuSans-48"/>
      </g>
     </g>
    </g>
    <g id="xtick_8">
     <g id="line2d_8">
      <g>
       <use style="stroke:#000000;stroke-width:0.8;" x="671.07859" xlink:href="#maa2cd3eaae" y="252"/>
      </g>
     </g>
     <g id="text_8">
      <!-- 70 -->
      <defs>
       <path d="M 8.203125 72.90625 
L 55.078125 72.90625 
L 55.078125 68.703125 
L 28.609375 0 
L 18.3125 0 
L 43.21875 64.59375 
L 8.203125 64.59375 
z
" id="DejaVuSans-55"/>
      </defs>
      <g transform="translate(664.71609 266.598437)scale(0.1 -0.1)">
       <use xlink:href="#DejaVuSans-55"/>
       <use x="63.623047" xlink:href="#DejaVuSans-48"/>
      </g>
     </g>
    </g>
    <g id="xtick_9">
     <g id="line2d_9">
      <g>
       <use style="stroke:#000000;stroke-width:0.8;" x="747.170337" xlink:href="#maa2cd3eaae" y="252"/>
      </g>
     </g>
     <g id="text_9">
      <!-- 80 -->
      <defs>
       <path d="M 31.78125 34.625 
Q 24.75 34.625 20.71875 30.859375 
Q 16.703125 27.09375 16.703125 20.515625 
Q 16.703125 13.921875 20.71875 10.15625 
Q 24.75 6.390625 31.78125 6.390625 
Q 38.8125 6.390625 42.859375 10.171875 
Q 46.921875 13.96875 46.921875 20.515625 
Q 46.921875 27.09375 42.890625 30.859375 
Q 38.875 34.625 31.78125 34.625 
z
M 21.921875 38.8125 
Q 15.578125 40.375 12.03125 44.71875 
Q 8.5 49.078125 8.5 55.328125 
Q 8.5 64.0625 14.71875 69.140625 
Q 20.953125 74.21875 31.78125 74.21875 
Q 42.671875 74.21875 48.875 69.140625 
Q 55.078125 64.0625 55.078125 55.328125 
Q 55.078125 49.078125 51.53125 44.71875 
Q 48 40.375 41.703125 38.8125 
Q 48.828125 37.15625 52.796875 32.3125 
Q 56.78125 27.484375 56.78125 20.515625 
Q 56.78125 9.90625 50.3125 4.234375 
Q 43.84375 -1.421875 31.78125 -1.421875 
Q 19.734375 -1.421875 13.25 4.234375 
Q 6.78125 9.90625 6.78125 20.515625 
Q 6.78125 27.484375 10.78125 32.3125 
Q 14.796875 37.15625 21.921875 38.8125 
z
M 18.3125 54.390625 
Q 18.3125 48.734375 21.84375 45.5625 
Q 25.390625 42.390625 31.78125 42.390625 
Q 38.140625 42.390625 41.71875 45.5625 
Q 45.3125 48.734375 45.3125 54.390625 
Q 45.3125 60.0625 41.71875 63.234375 
Q 38.140625 66.40625 31.78125 66.40625 
Q 25.390625 66.40625 21.84375 63.234375 
Q 18.3125 60.0625 18.3125 54.390625 
z
" id="DejaVuSans-56"/>
      </defs>
      <g transform="translate(740.807837 266.598437)scale(0.1 -0.1)">
       <use xlink:href="#DejaVuSans-56"/>
       <use x="63.623047" xlink:href="#DejaVuSans-48"/>
      </g>
     </g>
    </g>
   </g>
   <g id="matplotlib.axis_2">
    <g id="ytick_1">
     <g id="line2d_10">
      <defs>
       <path d="M 0 0 
L -3.5 0 
" id="m9bb344e468" style="stroke:#000000;stroke-width:0.8;"/>
      </defs>
      <g>
       <use style="stroke:#000000;stroke-width:0.8;" x="108" xlink:href="#m9bb344e468" y="242.116364"/>
      </g>
     </g>
     <g id="text_10">
      <!-- 0 -->
      <g transform="translate(94.6375 245.915582)scale(0.1 -0.1)">
       <use xlink:href="#DejaVuSans-48"/>
      </g>
     </g>
    </g>
    <g id="ytick_2">
     <g id="line2d_11">
      <g>
       <use style="stroke:#000000;stroke-width:0.8;" x="108" xlink:href="#m9bb344e468" y="198.189091"/>
      </g>
     </g>
     <g id="text_11">
      <!-- 2 -->
      <g transform="translate(94.6375 201.98831)scale(0.1 -0.1)">
       <use xlink:href="#DejaVuSans-50"/>
      </g>
     </g>
    </g>
    <g id="ytick_3">
     <g id="line2d_12">
      <g>
       <use style="stroke:#000000;stroke-width:0.8;" x="108" xlink:href="#m9bb344e468" y="154.261818"/>
      </g>
     </g>
     <g id="text_12">
      <!-- 4 -->
      <g transform="translate(94.6375 158.061037)scale(0.1 -0.1)">
       <use xlink:href="#DejaVuSans-52"/>
      </g>
     </g>
    </g>
    <g id="ytick_4">
     <g id="line2d_13">
      <g>
       <use style="stroke:#000000;stroke-width:0.8;" x="108" xlink:href="#m9bb344e468" y="110.334545"/>
      </g>
     </g>
     <g id="text_13">
      <!-- 6 -->
      <g transform="translate(94.6375 114.133764)scale(0.1 -0.1)">
       <use xlink:href="#DejaVuSans-54"/>
      </g>
     </g>
    </g>
    <g id="ytick_5">
     <g id="line2d_14">
      <g>
       <use style="stroke:#000000;stroke-width:0.8;" x="108" xlink:href="#m9bb344e468" y="66.407273"/>
      </g>
     </g>
     <g id="text_14">
      <!-- 8 -->
      <g transform="translate(94.6375 70.206491)scale(0.1 -0.1)">
       <use xlink:href="#DejaVuSans-56"/>
      </g>
     </g>
    </g>
   </g>
   <g id="line2d_15">
    <path clip-path="url(#p9961788adf)" d="M 138.436364 242.116364 
L 140.283916 242.116364 
L 140.495378 220.152727 
L 140.692426 220.152727 
L 140.900257 242.116364 
L 141.161626 242.116364 
L 141.413535 220.152727 
L 141.632952 220.152727 
L 141.74064 198.189091 
L 142.943072 198.189091 
L 143.163347 220.152727 
L 145.720425 220.152727 
L 145.917714 198.189091 
L 146.111246 220.152727 
L 146.49395 242.116364 
L 148.227513 242.116364 
L 148.381532 220.152727 
L 149.202706 220.152727 
L 149.244393 242.116364 
L 149.306067 220.152727 
L 149.561187 220.152727 
L 149.6518 242.116364 
L 150.604482 220.152727 
L 151.139295 220.152727 
L 151.357984 242.116364 
L 152.072246 242.116364 
L 152.386109 220.152727 
L 153.227436 220.152727 
L 153.509481 242.116364 
L 154.968095 242.116364 
L 155.12537 220.152727 
L 156.049238 220.152727 
L 156.235197 242.116364 
L 157.211032 242.116364 
L 157.773526 220.152727 
L 160.868527 220.152727 
L 161.026475 242.116364 
L 167.125313 242.116364 
L 167.151478 220.152727 
L 168.059118 220.152727 
L 168.41289 242.116364 
L 168.490645 220.152727 
L 169.588805 220.152727 
L 169.82134 198.189091 
L 170.386046 198.189091 
L 170.422032 220.152727 
L 170.518322 198.189091 
L 171.467306 198.189091 
L 171.510031 220.152727 
L 171.677775 242.116364 
L 172.157098 220.152727 
L 172.648096 220.152727 
L 172.655111 198.189091 
L 173.925156 198.189091 
L 174.026829 176.225455 
L 174.562302 176.225455 
L 175.662558 198.189091 
L 178.74377 198.189091 
L 178.841839 220.152727 
L 179.169707 242.116364 
L 180.270492 242.116364 
L 180.404975 220.152727 
L 181.447871 242.116364 
L 181.653893 242.116364 
L 181.657702 220.152727 
L 181.71702 242.116364 
L 182.892481 242.116364 
L 182.995815 220.152727 
L 184.376734 220.152727 
L 184.377199 198.189091 
L 185.386415 198.189091 
L 185.543046 176.225455 
L 186.321776 176.225455 
L 186.755695 198.189091 
L 186.983932 198.189091 
L 187.099378 220.152727 
L 188.110772 220.152727 
L 188.174158 198.189091 
L 188.885604 220.152727 
L 197.296672 220.152727 
L 197.426411 198.189091 
L 197.914071 198.189091 
L 198.337597 220.152727 
L 198.361374 242.116364 
L 199.72949 242.116364 
L 200.577981 220.152727 
L 200.632402 242.116364 
L 203.166536 242.116364 
L 203.257663 220.152727 
L 203.980611 220.152727 
L 204.23939 242.116364 
L 204.553555 242.116364 
L 204.638019 220.152727 
L 204.852168 242.116364 
L 205.290885 242.116364 
L 205.463311 220.152727 
L 206.011691 220.152727 
L 206.444875 242.116364 
L 206.601966 220.152727 
L 206.747927 242.116364 
L 207.47632 242.116364 
L 207.604478 220.152727 
L 208.908749 220.152727 
L 209.129641 242.116364 
L 209.592995 220.152727 
L 210.827666 220.152727 
L 210.842783 242.116364 
L 213.621339 242.116364 
L 213.648266 220.152727 
L 213.658262 242.116364 
L 214.675798 242.116364 
L 214.828151 220.152727 
L 215.500312 220.152727 
L 215.678654 242.116364 
L 216.098069 242.116364 
L 216.237892 220.152727 
L 218.141495 242.116364 
L 219.493172 242.116364 
L 219.664915 220.152727 
L 222.088775 220.152727 
L 222.1628 198.189091 
L 222.191172 220.152727 
L 222.44979 220.152727 
L 222.498684 198.189091 
L 222.793396 220.152727 
L 223.45377 242.116364 
L 226.264985 242.116364 
L 226.383969 220.152727 
L 226.593992 220.152727 
L 227.259587 242.116364 
L 228.159272 242.116364 
L 228.227948 220.152727 
L 228.755326 242.116364 
L 230.845794 242.116364 
L 231.111976 220.152727 
L 231.876652 220.152727 
L 231.888891 198.189091 
L 232.082413 198.189091 
L 232.136635 176.225455 
L 232.579045 176.225455 
L 233.198605 198.189091 
L 237.07138 198.189091 
L 237.587694 220.152727 
L 240.249073 220.152727 
L 240.60423 242.116364 
L 240.749903 242.116364 
L 240.780789 220.152727 
L 242.094223 220.152727 
L 242.287531 198.189091 
L 242.906615 198.189091 
L 243.045299 176.225455 
L 243.19789 198.189091 
L 243.357089 176.225455 
L 243.370602 198.189091 
L 244.170445 198.189091 
L 244.198291 176.225455 
L 245.294991 176.225455 
L 245.712631 198.189091 
L 245.762589 176.225455 
L 246.496267 176.225455 
L 247.037041 198.189091 
L 247.396203 198.189091 
L 247.657028 220.152727 
L 247.718124 242.116364 
L 249.193874 242.116364 
L 249.227737 220.152727 
L 249.357297 220.152727 
L 249.951564 242.116364 
L 250.086328 220.152727 
L 250.847464 220.152727 
L 250.884768 242.116364 
L 251.502677 242.116364 
L 251.816393 220.152727 
L 252.99874 220.152727 
L 253.262294 242.116364 
L 254.220888 242.116364 
L 254.568653 220.152727 
L 255.485572 220.152727 
L 255.496849 242.116364 
L 255.697009 242.116364 
L 255.954113 220.152727 
L 256.384219 220.152727 
L 256.804568 242.116364 
L 256.839318 220.152727 
L 258.911126 220.152727 
L 259.637064 198.189091 
L 260.051544 198.189091 
L 260.281069 220.152727 
L 260.511321 220.152727 
L 260.595335 198.189091 
L 260.998716 176.225455 
L 263.585286 176.225455 
L 263.698077 154.261818 
L 263.762327 176.225455 
L 263.96624 176.225455 
L 264.91171 154.261818 
L 265.675421 154.261818 
L 265.709948 132.298182 
L 265.930048 154.261818 
L 266.06223 132.298182 
L 266.453367 132.298182 
L 267.320742 110.334545 
L 267.889812 110.334545 
L 268.416018 132.298182 
L 270.683061 132.298182 
L 272.440781 154.261818 
L 273.436555 154.261818 
L 273.645896 132.298182 
L 273.850766 132.298182 
L 273.912495 110.334545 
L 275.006002 110.334545 
L 275.24718 88.370909 
L 275.898826 88.370909 
L 276.221989 110.334545 
L 276.53149 110.334545 
L 276.625171 132.298182 
L 276.89001 132.298182 
L 276.90034 110.334545 
L 277.055198 110.334545 
L 277.661105 132.298182 
L 279.47683 132.298182 
L 279.5219 176.225455 
L 279.971628 198.189091 
L 280.393985 198.189091 
L 280.555551 176.225455 
L 281.720874 176.225455 
L 281.906738 198.189091 
L 282.140004 176.225455 
L 282.297213 220.152727 
L 282.673218 242.116364 
L 282.794921 220.152727 
L 283.08621 220.152727 
L 283.741963 242.116364 
L 285.135869 242.116364 
L 285.207553 220.152727 
L 285.635922 220.152727 
L 285.646908 198.189091 
L 286.620772 198.189091 
L 286.707946 176.225455 
L 287.640186 176.225455 
L 288.244145 198.189091 
L 288.542435 198.189091 
L 288.765725 220.152727 
L 289.191705 220.152727 
L 289.352714 198.189091 
L 289.486651 198.189091 
L 289.957756 220.152727 
L 290.731776 220.152727 
L 290.877976 198.189091 
L 291.819007 198.189091 
L 291.840961 220.152727 
L 291.982247 198.189091 
L 292.640357 198.189091 
L 292.648234 176.225455 
L 293.345607 198.189091 
L 295.577162 198.189091 
L 296.229768 220.152727 
L 297.464975 220.152727 
L 297.709487 242.116364 
L 301.760678 242.116364 
L 301.897479 220.152727 
L 302.440972 220.152727 
L 302.589908 242.116364 
L 302.721517 242.116364 
L 302.815954 220.152727 
L 303.290005 220.152727 
L 303.440482 242.116364 
L 304.517547 242.116364 
L 304.706761 220.152727 
L 304.853945 220.152727 
L 304.944735 242.116364 
L 305.417646 242.116364 
L 305.791706 198.189091 
L 305.825413 220.152727 
L 306.556834 220.152727 
L 306.614961 198.189091 
L 306.971076 198.189091 
L 307.373273 220.152727 
L 308.331439 220.152727 
L 308.640638 242.116364 
L 312.749144 242.116364 
L 312.935196 220.152727 
L 312.984322 242.116364 
L 312.9893 220.152727 
L 313.793278 220.152727 
L 313.946993 198.189091 
L 314.962327 242.116364 
L 315.728504 242.116364 
L 315.761365 220.152727 
L 317.478721 220.152727 
L 317.822918 242.116364 
L 317.929026 220.152727 
L 318.126856 220.152727 
L 318.491653 242.116364 
L 319.817249 242.116364 
L 319.871303 220.152727 
L 319.966529 242.116364 
L 320.699451 220.152727 
L 320.765705 242.116364 
L 321.211509 242.116364 
L 321.279782 220.152727 
L 321.411612 242.116364 
L 322.432079 242.116364 
L 322.491183 220.152727 
L 323.172825 242.116364 
L 324.528615 242.116364 
L 324.884843 220.152727 
L 325.768221 220.152727 
L 325.828145 198.189091 
L 326.035979 198.189091 
L 326.306043 176.225455 
L 327.758433 176.225455 
L 328.340814 198.189091 
L 329.057535 198.189091 
L 329.348355 220.152727 
L 329.480393 220.152727 
L 329.540608 198.189091 
L 330.495594 198.189091 
L 330.684132 220.152727 
L 331.127756 242.116364 
L 331.429152 242.116364 
L 331.550085 220.152727 
L 331.582565 242.116364 
L 333.030761 242.116364 
L 333.054969 220.152727 
L 334.847215 220.152727 
L 334.98353 242.116364 
L 335.777679 242.116364 
L 335.910421 220.152727 
L 337.161328 220.152727 
L 337.167868 242.116364 
L 337.388832 220.152727 
L 338.100256 220.152727 
L 338.159992 242.116364 
L 338.429372 220.152727 
L 340.077127 220.152727 
L 340.080197 198.189091 
L 340.651142 198.189091 
L 340.742833 176.225455 
L 341.779892 176.225455 
L 341.85074 154.261818 
L 342.045454 154.261818 
L 342.103614 132.298182 
L 342.315841 154.261818 
L 342.852758 154.261818 
L 343.012475 176.225455 
L 343.179845 176.225455 
L 343.192909 154.261818 
L 343.321934 176.225455 
L 343.327811 154.261818 
L 343.449165 154.261818 
L 343.568878 176.225455 
L 343.723242 176.225455 
L 343.961037 154.261818 
L 344.223945 176.225455 
L 344.581903 176.225455 
L 344.89839 132.298182 
L 345.472137 132.298182 
L 345.867839 154.261818 
L 346.640277 154.261818 
L 346.782731 176.225455 
L 348.674946 176.225455 
L 348.704569 154.261818 
L 349.164564 176.225455 
L 349.282952 176.225455 
L 350.276183 198.189091 
L 350.44217 242.116364 
L 350.670214 198.189091 
L 350.859018 220.152727 
L 351.548319 242.116364 
L 351.64404 220.152727 
L 352.199796 220.152727 
L 352.276308 242.116364 
L 352.766622 242.116364 
L 353.056167 220.152727 
L 354.496295 242.116364 
L 355.553788 242.116364 
L 355.739042 220.152727 
L 356.565722 220.152727 
L 356.607996 242.116364 
L 358.391391 242.116364 
L 358.56749 220.152727 
L 359.857165 220.152727 
L 360.592775 176.225455 
L 363.025525 176.225455 
L 363.095959 198.189091 
L 364.262949 198.189091 
L 365.335612 242.116364 
L 365.338098 220.152727 
L 365.57193 220.152727 
L 365.572238 198.189091 
L 366.287897 198.189091 
L 366.693155 176.225455 
L 369.12432 176.225455 
L 369.29216 154.261818 
L 370.845041 154.261818 
L 370.89243 176.225455 
L 371.400607 220.152727 
L 372.107488 220.152727 
L 372.146528 242.116364 
L 372.201512 220.152727 
L 372.362715 220.152727 
L 372.911508 242.116364 
L 373.791344 242.116364 
L 374.037483 220.152727 
L 374.3047 242.116364 
L 375.550232 242.116364 
L 376.014687 220.152727 
L 377.165267 220.152727 
L 377.417428 198.189091 
L 378.180168 198.189091 
L 378.376911 220.152727 
L 378.684666 220.152727 
L 379.584568 242.116364 
L 379.979399 242.116364 
L 380.046244 220.152727 
L 381.310858 220.152727 
L 381.398092 198.189091 
L 381.563094 220.152727 
L 381.899202 242.116364 
L 383.516767 242.116364 
L 383.797172 220.152727 
L 384.320871 220.152727 
L 384.3505 198.189091 
L 384.553685 198.189091 
L 384.698993 220.152727 
L 385.336285 220.152727 
L 385.976283 242.116364 
L 386.555581 242.116364 
L 386.644234 220.152727 
L 388.203627 220.152727 
L 388.231033 198.189091 
L 388.583941 220.152727 
L 388.646626 220.152727 
L 388.796705 198.189091 
L 389.434761 198.189091 
L 389.878124 176.225455 
L 390.377961 176.225455 
L 390.4755 220.152727 
L 390.66447 198.189091 
L 390.939139 198.189091 
L 390.94051 176.225455 
L 391.113623 176.225455 
L 391.533841 198.189091 
L 393.218716 198.189091 
L 393.898684 220.152727 
L 395.742557 220.152727 
L 396.009264 198.189091 
L 398.788362 198.189091 
L 399.167893 220.152727 
L 400.740217 220.152727 
L 401.368407 242.116364 
L 402.599827 242.116364 
L 402.610291 220.152727 
L 402.704568 242.116364 
L 403.193616 220.152727 
L 403.401161 220.152727 
L 403.446665 198.189091 
L 403.89432 198.189091 
L 403.948121 220.152727 
L 404.132957 198.189091 
L 405.242416 198.189091 
L 405.46103 176.225455 
L 405.942769 176.225455 
L 406.241235 220.152727 
L 406.724546 242.116364 
L 408.57626 242.116364 
L 408.964287 220.152727 
L 409.045511 242.116364 
L 409.126866 220.152727 
L 409.752723 242.116364 
L 411.887234 242.116364 
L 412.226819 220.152727 
L 412.722464 220.152727 
L 412.731951 198.189091 
L 412.900756 220.152727 
L 413.541892 242.116364 
L 413.642078 242.116364 
L 413.735914 220.152727 
L 413.970787 220.152727 
L 413.974969 198.189091 
L 414.434704 198.189091 
L 414.996528 220.152727 
L 415.059599 242.116364 
L 415.654663 242.116364 
L 415.685286 220.152727 
L 416.200027 242.116364 
L 417.484662 242.116364 
L 417.603922 220.152727 
L 417.75502 220.152727 
L 418.559817 242.116364 
L 422.039168 242.116364 
L 422.181108 220.152727 
L 422.520161 220.152727 
L 422.529633 242.116364 
L 422.59815 220.152727 
L 422.73778 220.152727 
L 423.386421 242.116364 
L 424.23607 242.116364 
L 424.759693 220.152727 
L 424.869322 242.116364 
L 425.570397 242.116364 
L 425.576394 220.152727 
L 425.625765 242.116364 
L 425.793569 220.152727 
L 427.558993 220.152727 
L 427.697281 242.116364 
L 428.30465 242.116364 
L 428.327737 220.152727 
L 428.739924 198.189091 
L 432.192697 198.189091 
L 432.634877 220.152727 
L 432.645758 242.116364 
L 434.326185 242.116364 
L 434.614035 220.152727 
L 434.666207 242.116364 
L 436.071187 242.116364 
L 436.672593 220.152727 
L 437.972633 220.152727 
L 438.026201 198.189091 
L 439.00781 198.189091 
L 439.262246 220.152727 
L 440.150362 242.116364 
L 443.574176 242.116364 
L 443.625652 220.152727 
L 443.739885 220.152727 
L 443.872538 242.116364 
L 444.406679 242.116364 
L 444.67379 220.152727 
L 444.892037 220.152727 
L 445.103138 242.116364 
L 445.190161 242.116364 
L 445.339268 198.189091 
L 446.117583 198.189091 
L 446.445324 220.152727 
L 448.18481 220.152727 
L 448.352886 242.116364 
L 448.431113 220.152727 
L 449.848502 220.152727 
L 449.967403 242.116364 
L 455.171108 242.116364 
L 455.448228 220.152727 
L 457.067894 220.152727 
L 457.417987 198.189091 
L 458.724525 198.189091 
L 458.917503 176.225455 
L 459.278463 176.225455 
L 459.28077 154.261818 
L 461.048857 154.261818 
L 461.289645 132.298182 
L 461.581712 132.298182 
L 461.62958 154.261818 
L 461.968992 154.261818 
L 462.319423 132.298182 
L 463.702239 132.298182 
L 463.785842 154.261818 
L 463.991344 132.298182 
L 464.019095 154.261818 
L 464.526204 132.298182 
L 465.549187 132.298182 
L 465.637173 110.334545 
L 466.371983 110.334545 
L 466.421351 132.298182 
L 466.60817 110.334545 
L 467.476841 132.298182 
L 468.018903 132.298182 
L 468.046538 110.334545 
L 470.766887 110.334545 
L 470.839987 132.298182 
L 471.26369 132.298182 
L 471.317965 110.334545 
L 472.909283 110.334545 
L 473.264466 132.298182 
L 473.645223 132.298182 
L 473.681849 154.261818 
L 473.734643 132.298182 
L 474.035263 176.225455 
L 474.342023 154.261818 
L 475.054398 154.261818 
L 475.072756 176.225455 
L 476.559441 176.225455 
L 476.858233 198.189091 
L 477.668763 198.189091 
L 477.704354 176.225455 
L 477.981747 176.225455 
L 478.065236 154.261818 
L 479.362337 154.261818 
L 479.492388 176.225455 
L 479.806351 176.225455 
L 480.008881 154.261818 
L 480.107539 176.225455 
L 480.220006 176.225455 
L 480.362543 154.261818 
L 480.9535 176.225455 
L 484.037838 176.225455 
L 484.05416 198.189091 
L 484.511146 198.189091 
L 484.723473 176.225455 
L 485.377227 176.225455 
L 485.406566 154.261818 
L 486.342038 154.261818 
L 486.602748 132.298182 
L 488.509547 132.298182 
L 488.818076 154.261818 
L 488.940226 154.261818 
L 489.155702 176.225455 
L 489.212362 198.189091 
L 489.781367 198.189091 
L 489.824082 220.152727 
L 491.242024 220.152727 
L 491.436608 198.189091 
L 491.537622 220.152727 
L 491.991601 220.152727 
L 492.263499 242.116364 
L 493.003189 242.116364 
L 493.04406 220.152727 
L 494.392735 220.152727 
L 495.269636 242.116364 
L 495.347467 220.152727 
L 496.639132 220.152727 
L 496.771518 242.116364 
L 497.169159 242.116364 
L 497.20262 220.152727 
L 497.883618 220.152727 
L 498.00729 242.116364 
L 498.068305 220.152727 
L 498.278568 220.152727 
L 498.750883 242.116364 
L 499.010427 242.116364 
L 499.15457 220.152727 
L 500.857518 220.152727 
L 501.037318 198.189091 
L 501.284562 198.189091 
L 501.343268 220.152727 
L 501.76019 220.152727 
L 501.766093 242.116364 
L 504.661061 242.116364 
L 505.102806 220.152727 
L 505.650348 220.152727 
L 505.77511 242.116364 
L 506.657803 242.116364 
L 507.323238 220.152727 
L 507.92154 220.152727 
L 508.196261 198.189091 
L 508.256466 220.152727 
L 508.739338 220.152727 
L 508.978367 242.116364 
L 511.791019 242.116364 
L 511.900641 220.152727 
L 512.09361 220.152727 
L 512.618696 198.189091 
L 513.170831 198.189091 
L 513.320449 220.152727 
L 513.783441 242.116364 
L 514.143041 220.152727 
L 514.197275 198.189091 
L 514.994761 198.189091 
L 515.258988 220.152727 
L 516.029955 220.152727 
L 516.447207 198.189091 
L 516.683951 198.189091 
L 517.549155 220.152727 
L 517.576431 242.116364 
L 519.605163 242.116364 
L 519.76648 220.152727 
L 519.784979 242.116364 
L 521.469432 242.116364 
L 521.494243 220.152727 
L 521.556096 242.116364 
L 521.700825 220.152727 
L 522.131664 220.152727 
L 522.250713 242.116364 
L 523.009582 242.116364 
L 523.262217 220.152727 
L 523.473375 242.116364 
L 523.480987 220.152727 
L 523.860096 242.116364 
L 524.77382 242.116364 
L 524.874919 198.189091 
L 525.478103 220.152727 
L 526.409415 220.152727 
L 526.554154 198.189091 
L 527.610635 198.189091 
L 527.618287 220.152727 
L 529.003 242.116364 
L 531.307164 242.116364 
L 531.547594 220.152727 
L 531.64463 220.152727 
L 532.045933 242.116364 
L 532.784053 242.116364 
L 532.909944 220.152727 
L 533.235748 242.116364 
L 533.395441 242.116364 
L 533.402198 220.152727 
L 533.886425 220.152727 
L 533.913078 242.116364 
L 539.659304 242.116364 
L 540.039972 220.152727 
L 540.637553 220.152727 
L 540.792541 198.189091 
L 541.389574 198.189091 
L 541.675218 176.225455 
L 542.36885 220.152727 
L 542.430242 220.152727 
L 542.560672 198.189091 
L 545.429622 198.189091 
L 546.941655 220.152727 
L 547.248572 220.152727 
L 547.250375 242.116364 
L 549.459199 242.116364 
L 549.995352 220.152727 
L 551.380219 242.116364 
L 552.654356 242.116364 
L 553.034968 220.152727 
L 554.312211 220.152727 
L 554.623012 198.189091 
L 554.859232 198.189091 
L 555.022218 176.225455 
L 555.462329 176.225455 
L 556.837653 198.189091 
L 563.850947 198.189091 
L 564.086712 220.152727 
L 565.568257 220.152727 
L 565.581515 242.116364 
L 566.730341 242.116364 
L 566.972352 220.152727 
L 567.101266 242.116364 
L 567.115148 220.152727 
L 567.296919 220.152727 
L 567.531986 242.116364 
L 567.900287 242.116364 
L 568.107601 220.152727 
L 570.81434 220.152727 
L 571.007964 242.116364 
L 571.007991 220.152727 
L 571.084243 242.116364 
L 572.915442 242.116364 
L 573.29134 220.152727 
L 573.654854 242.116364 
L 574.380114 242.116364 
L 574.456248 220.152727 
L 575.263148 220.152727 
L 575.528378 242.116364 
L 576.650991 242.116364 
L 576.867819 220.152727 
L 577.227333 242.116364 
L 578.163551 220.152727 
L 578.595271 220.152727 
L 579.070255 198.189091 
L 579.43676 198.189091 
L 580.133925 242.116364 
L 580.148634 220.152727 
L 580.383414 242.116364 
L 580.433862 242.116364 
L 580.468905 220.152727 
L 580.545577 242.116364 
L 584.89884 242.116364 
L 584.997051 220.152727 
L 585.303495 220.152727 
L 585.637071 242.116364 
L 585.697754 220.152727 
L 586.050258 242.116364 
L 587.072434 242.116364 
L 587.093553 220.152727 
L 587.63461 220.152727 
L 587.853136 242.116364 
L 588.501203 242.116364 
L 588.959239 220.152727 
L 589.947685 220.152727 
L 590.209481 242.116364 
L 590.302473 220.152727 
L 590.559908 242.116364 
L 590.758619 220.152727 
L 591.567907 220.152727 
L 591.635676 198.189091 
L 591.952691 198.189091 
L 592.147959 176.225455 
L 592.962051 176.225455 
L 593.03205 198.189091 
L 593.652964 220.152727 
L 593.798809 198.189091 
L 594.840542 198.189091 
L 594.864557 220.152727 
L 595.12993 242.116364 
L 595.285458 220.152727 
L 595.580544 242.116364 
L 596.805175 242.116364 
L 597.020015 220.152727 
L 597.839256 242.116364 
L 598.182522 242.116364 
L 598.26448 220.152727 
L 599.56444 220.152727 
L 599.618657 242.116364 
L 599.789966 198.189091 
L 600.126948 220.152727 
L 601.36333 220.152727 
L 601.508407 198.189091 
L 603.119273 198.189091 
L 603.685367 220.152727 
L 603.962239 220.152727 
L 604.075356 198.189091 
L 605.604321 198.189091 
L 605.982071 176.225455 
L 606.764242 176.225455 
L 606.835454 154.261818 
L 606.994284 154.261818 
L 607.030061 176.225455 
L 607.188245 176.225455 
L 607.279903 198.189091 
L 608.209036 198.189091 
L 608.479717 220.152727 
L 608.963266 220.152727 
L 609.373133 242.116364 
L 610.884743 242.116364 
L 611.561827 220.152727 
L 613.658599 220.152727 
L 613.761708 198.189091 
L 614.61223 198.189091 
L 614.949457 220.152727 
L 615.140158 220.152727 
L 615.42648 242.116364 
L 615.788085 220.152727 
L 615.910243 198.189091 
L 616.637206 198.189091 
L 616.974973 176.225455 
L 617.758341 176.225455 
L 618.268509 154.261818 
L 618.648763 154.261818 
L 618.739512 176.225455 
L 619.101754 154.261818 
L 619.784557 154.261818 
L 619.816628 132.298182 
L 620.467101 132.298182 
L 620.538663 154.261818 
L 621.468692 154.261818 
L 621.500466 132.298182 
L 621.713653 132.298182 
L 621.817812 154.261818 
L 622.083638 154.261818 
L 622.096668 132.298182 
L 622.462306 132.298182 
L 622.477504 110.334545 
L 624.411732 110.334545 
L 625.28351 88.370909 
L 625.910806 88.370909 
L 625.995461 66.407273 
L 626.111878 66.407273 
L 626.641143 88.370909 
L 627.188792 44.443636 
L 627.801661 66.407273 
L 628.758423 66.407273 
L 629.265944 110.334545 
L 629.692882 132.298182 
L 629.74069 110.334545 
L 630.17546 132.298182 
L 630.350014 154.261818 
L 630.548473 132.298182 
L 630.723865 132.298182 
L 630.849446 154.261818 
L 630.890325 132.298182 
L 631.012334 132.298182 
L 631.047484 110.334545 
L 631.17998 110.334545 
L 631.253133 88.370909 
L 631.50997 110.334545 
L 631.875478 110.334545 
L 632.101651 88.370909 
L 633.437829 88.370909 
L 633.701275 110.334545 
L 633.852471 88.370909 
L 634.498668 110.334545 
L 636.377607 110.334545 
L 636.40286 132.298182 
L 636.605115 176.225455 
L 636.949913 132.298182 
L 636.996993 132.298182 
L 637.3147 110.334545 
L 640.187609 110.334545 
L 640.226712 132.298182 
L 642.485689 132.298182 
L 642.609256 154.261818 
L 645.254438 154.261818 
L 645.715501 176.225455 
L 645.892887 176.225455 
L 646.357751 132.298182 
L 646.49772 132.298182 
L 646.646364 110.334545 
L 647.604196 110.334545 
L 648.25753 132.298182 
L 648.345189 88.370909 
L 650.279639 88.370909 
L 650.562536 66.407273 
L 651.221328 66.407273 
L 651.24963 44.443636 
L 651.7438 44.443636 
L 651.875053 66.407273 
L 651.89409 44.443636 
L 652.302798 44.443636 
L 652.429097 66.407273 
L 653.54487 66.407273 
L 653.71065 110.334545 
L 654.31975 110.334545 
L 654.676427 132.298182 
L 654.791217 132.298182 
L 655.283775 154.261818 
L 656.134548 154.261818 
L 656.383586 132.298182 
L 657.261476 132.298182 
L 657.907148 154.261818 
L 658.776482 176.225455 
L 659.083518 198.189091 
L 659.119878 176.225455 
L 659.762112 176.225455 
L 659.791234 154.261818 
L 665.867669 154.261818 
L 665.923021 176.225455 
L 669.040506 176.225455 
L 669.52845 198.189091 
L 669.847962 198.189091 
L 669.853366 220.152727 
L 670.163043 220.152727 
L 670.251505 198.189091 
L 670.254761 220.152727 
L 670.583316 220.152727 
L 670.611872 198.189091 
L 674.865277 198.189091 
L 674.886382 220.152727 
L 675.147941 220.152727 
L 675.238672 176.225455 
L 675.297005 154.261818 
L 675.945445 154.261818 
L 675.978964 176.225455 
L 676.244237 198.189091 
L 676.384483 176.225455 
L 676.764608 176.225455 
L 676.860779 198.189091 
L 677.270632 198.189091 
L 677.442129 176.225455 
L 677.809528 198.189091 
L 678.024719 198.189091 
L 678.212725 176.225455 
L 679.090114 176.225455 
L 679.323931 154.261818 
L 679.404598 176.225455 
L 679.652631 198.189091 
L 679.742531 220.152727 
L 680.307349 220.152727 
L 680.398665 198.189091 
L 680.501553 220.152727 
L 680.603913 220.152727 
L 680.649 198.189091 
L 680.886069 176.225455 
L 681.556202 176.225455 
L 682.275098 198.189091 
L 682.438731 176.225455 
L 683.010042 176.225455 
L 683.133366 198.189091 
L 683.510722 198.189091 
L 683.594536 176.225455 
L 684.449725 176.225455 
L 684.506489 198.189091 
L 684.809283 198.189091 
L 684.81914 220.152727 
L 684.912644 198.189091 
L 687.635617 198.189091 
L 688.099212 220.152727 
L 688.32967 220.152727 
L 688.401433 242.116364 
L 689.720801 242.116364 
L 689.722944 220.152727 
L 690.864515 220.152727 
L 690.892779 198.189091 
L 690.898595 220.152727 
L 691.067195 242.116364 
L 691.514519 242.116364 
L 691.653135 220.152727 
L 691.984757 242.116364 
L 692.165967 242.116364 
L 692.210494 220.152727 
L 692.524184 220.152727 
L 692.558652 242.116364 
L 694.474393 242.116364 
L 694.763749 220.152727 
L 694.881219 198.189091 
L 696.045654 198.189091 
L 696.399511 220.152727 
L 697.003394 242.116364 
L 699.163299 242.116364 
L 699.174294 220.152727 
L 700.472475 220.152727 
L 700.546964 242.116364 
L 701.076853 242.116364 
L 701.149216 220.152727 
L 701.298504 220.152727 
L 701.339451 242.116364 
L 703.994731 242.116364 
L 704.102804 220.152727 
L 704.215851 242.116364 
L 705.927776 242.116364 
L 706.066801 220.152727 
L 706.424282 242.116364 
L 709.781124 242.116364 
L 710.125599 220.152727 
L 710.52807 220.152727 
L 710.761603 198.189091 
L 711.229309 220.152727 
L 711.760642 220.152727 
L 712.483542 242.116364 
L 712.999588 242.116364 
L 713.047004 220.152727 
L 713.259611 242.116364 
L 713.770306 242.116364 
L 714.270906 220.152727 
L 715.40037 220.152727 
L 715.521604 242.116364 
L 716.597928 242.116364 
L 716.875279 220.152727 
L 717.370199 242.116364 
L 719.559285 242.116364 
L 719.826873 198.189091 
L 719.945181 198.189091 
L 720.108836 176.225455 
L 721.513027 176.225455 
L 721.591117 198.189091 
L 722.336924 198.189091 
L 722.520011 220.152727 
L 725.529509 220.152727 
L 725.873034 242.116364 
L 725.892652 220.152727 
L 726.846302 220.152727 
L 727.21801 242.116364 
L 727.356718 242.116364 
L 727.44281 220.152727 
L 727.587772 220.152727 
L 727.631108 198.189091 
L 727.816757 220.152727 
L 727.947446 198.189091 
L 730.964279 198.189091 
L 731.089478 176.225455 
L 731.455029 176.225455 
L 731.708646 198.189091 
L 732.230808 198.189091 
L 732.398773 220.152727 
L 732.48128 198.189091 
L 732.78977 176.225455 
L 732.994792 176.225455 
L 733.982402 198.189091 
L 734.824707 198.189091 
L 734.824747 176.225455 
L 736.243902 176.225455 
L 736.254612 198.189091 
L 736.633008 242.116364 
L 736.888441 242.116364 
L 737.125146 220.152727 
L 738.343862 220.152727 
L 738.429737 198.189091 
L 738.997717 220.152727 
L 740.005426 220.152727 
L 740.458745 242.116364 
L 740.989624 242.116364 
L 741.127861 220.152727 
L 741.271757 220.152727 
L 741.497274 198.189091 
L 741.578139 198.189091 
L 741.737043 220.152727 
L 741.827844 198.189091 
L 742.184261 198.189091 
L 742.319011 220.152727 
L 742.741428 242.116364 
L 742.897538 242.116364 
L 743.256499 220.152727 
L 744.528025 220.152727 
L 745.050939 242.116364 
L 747.163636 242.116364 
L 747.163636 242.116364 
" style="fill:none;stroke:#1f77b4;stroke-linecap:square;stroke-width:1.5;"/>
   </g>
   <g id="line2d_16">
    <path clip-path="url(#p9961788adf)" d="M 138.436364 242.116364 
L 140.267375 242.116364 
L 140.283916 220.152727 
L 140.495378 220.152727 
L 140.692426 198.189091 
L 141.706733 198.189091 
L 141.74064 220.152727 
L 142.943072 198.189091 
L 143.163347 198.189091 
L 143.321327 220.152727 
L 143.463057 220.152727 
L 143.674467 242.116364 
L 143.861385 220.152727 
L 144.957071 242.116364 
L 145.287109 242.116364 
L 145.400815 220.152727 
L 145.720425 198.189091 
L 147.245897 198.189091 
L 147.723491 220.152727 
L 147.736941 242.116364 
L 147.743506 220.152727 
L 147.851299 220.152727 
L 148.227513 242.116364 
L 149.306067 242.116364 
L 149.6518 220.152727 
L 150.757909 220.152727 
L 150.783435 198.189091 
L 151.051427 198.189091 
L 151.139295 220.152727 
L 151.357984 220.152727 
L 151.869421 242.116364 
L 151.873396 220.152727 
L 152.386109 220.152727 
L 152.612576 242.116364 
L 152.667431 220.152727 
L 153.227436 242.116364 
L 154.59831 242.116364 
L 154.968095 220.152727 
L 155.12537 220.152727 
L 155.200587 242.116364 
L 155.450748 220.152727 
L 155.617895 242.116364 
L 156.049238 220.152727 
L 157.773526 220.152727 
L 158.492649 242.116364 
L 158.949334 242.116364 
L 159.186081 220.152727 
L 159.327071 220.152727 
L 159.425217 198.189091 
L 160.348136 220.152727 
L 160.597301 220.152727 
L 160.868527 198.189091 
L 161.026475 198.189091 
L 162.492179 220.152727 
L 162.873236 220.152727 
L 163.061784 242.116364 
L 163.20181 220.152727 
L 164.701396 242.116364 
L 168.414842 242.116364 
L 168.490645 220.152727 
L 168.875165 242.116364 
L 169.260716 242.116364 
L 169.574716 220.152727 
L 169.588805 198.189091 
L 170.191545 198.189091 
L 170.422032 220.152727 
L 170.518322 220.152727 
L 170.659018 198.189091 
L 171.003294 198.189091 
L 171.510031 242.116364 
L 172.157098 242.116364 
L 172.655111 220.152727 
L 173.175471 242.116364 
L 173.472468 242.116364 
L 173.662336 220.152727 
L 173.844206 198.189091 
L 174.026829 198.189091 
L 174.161977 176.225455 
L 174.554298 198.189091 
L 174.562302 176.225455 
L 175.662558 176.225455 
L 176.287456 198.189091 
L 176.464024 220.152727 
L 177.351143 220.152727 
L 177.526166 242.116364 
L 178.20918 242.116364 
L 178.467313 198.189091 
L 178.614276 220.152727 
L 178.841839 198.189091 
L 179.085526 198.189091 
L 179.169707 220.152727 
L 179.629869 220.152727 
L 179.776491 242.116364 
L 179.790414 220.152727 
L 180.145345 242.116364 
L 182.683526 242.116364 
L 182.892481 220.152727 
L 182.995815 220.152727 
L 183.231119 242.116364 
L 183.536835 220.152727 
L 183.96953 220.152727 
L 184.11899 198.189091 
L 184.539248 198.189091 
L 184.663147 176.225455 
L 184.747488 198.189091 
L 185.185458 220.152727 
L 185.386415 198.189091 
L 185.543046 198.189091 
L 185.694444 220.152727 
L 186.307194 220.152727 
L 186.321776 198.189091 
L 186.718842 198.189091 
L 186.755695 220.152727 
L 186.889933 242.116364 
L 186.983932 220.152727 
L 187.263986 220.152727 
L 187.783214 242.116364 
L 187.919315 220.152727 
L 188.067836 220.152727 
L 188.174158 198.189091 
L 188.885604 198.189091 
L 189.49415 220.152727 
L 189.650219 220.152727 
L 189.676746 198.189091 
L 190.447803 220.152727 
L 190.923278 220.152727 
L 190.981729 242.116364 
L 191.106046 242.116364 
L 191.364037 220.152727 
L 191.461912 242.116364 
L 191.592772 220.152727 
L 191.713176 242.116364 
L 192.422501 242.116364 
L 192.741394 220.152727 
L 193.053827 242.116364 
L 194.076957 242.116364 
L 195.165527 220.152727 
L 195.246227 242.116364 
L 195.319334 220.152727 
L 195.540753 220.152727 
L 195.624832 242.116364 
L 195.724367 220.152727 
L 196.736809 220.152727 
L 196.780395 198.189091 
L 197.426411 198.189091 
L 197.603713 220.152727 
L 197.914071 242.116364 
L 198.8601 242.116364 
L 198.872735 220.152727 
L 201.56048 220.152727 
L 201.657809 242.116364 
L 201.981371 220.152727 
L 202.479972 220.152727 
L 203.257663 242.116364 
L 203.328579 220.152727 
L 203.33708 242.116364 
L 203.930779 242.116364 
L 203.980611 220.152727 
L 204.625212 220.152727 
L 204.638019 198.189091 
L 205.394927 198.189091 
L 205.463311 220.152727 
L 205.673005 220.152727 
L 205.793645 242.116364 
L 205.881534 220.152727 
L 206.011691 242.116364 
L 207.236789 242.116364 
L 207.47632 220.152727 
L 207.604478 220.152727 
L 208.096631 242.116364 
L 208.635277 242.116364 
L 208.908749 220.152727 
L 209.592995 220.152727 
L 210.066777 242.116364 
L 210.842783 242.116364 
L 210.970998 220.152727 
L 211.035773 242.116364 
L 215.23271 242.116364 
L 215.500312 220.152727 
L 215.678654 220.152727 
L 216.098069 242.116364 
L 219.831002 242.116364 
L 220.199492 220.152727 
L 220.770914 242.116364 
L 221.702669 242.116364 
L 221.950232 220.152727 
L 221.991144 242.116364 
L 222.020913 220.152727 
L 222.334041 220.152727 
L 222.498684 198.189091 
L 223.45377 198.189091 
L 224.832283 220.152727 
L 225.744517 220.152727 
L 225.915843 242.116364 
L 226.383969 242.116364 
L 226.593992 220.152727 
L 227.259587 220.152727 
L 227.648689 242.116364 
L 228.875311 242.116364 
L 229.875214 220.152727 
L 229.909562 242.116364 
L 230.619877 242.116364 
L 230.668758 220.152727 
L 231.809355 220.152727 
L 231.888891 198.189091 
L 232.083318 198.189091 
L 232.136635 176.225455 
L 232.425785 198.189091 
L 232.579045 220.152727 
L 233.4959 220.152727 
L 233.594258 242.116364 
L 233.70993 220.152727 
L 234.373846 242.116364 
L 235.256321 242.116364 
L 235.515951 220.152727 
L 236.119946 220.152727 
L 236.551595 198.189091 
L 237.07138 220.152727 
L 237.587694 220.152727 
L 238.378474 242.116364 
L 239.665744 242.116364 
L 239.735993 220.152727 
L 240.583338 220.152727 
L 240.60423 242.116364 
L 240.780789 242.116364 
L 241.049493 220.152727 
L 242.266872 220.152727 
L 242.287531 198.189091 
L 242.63216 220.152727 
L 242.906615 198.189091 
L 244.198291 198.189091 
L 244.404329 176.225455 
L 245.294991 198.189091 
L 245.762589 198.189091 
L 246.496267 220.152727 
L 247.037041 220.152727 
L 247.396203 242.116364 
L 249.150129 242.116364 
L 249.227737 220.152727 
L 249.357297 198.189091 
L 249.881193 198.189091 
L 249.951564 220.152727 
L 250.086328 220.152727 
L 250.884768 242.116364 
L 251.816393 242.116364 
L 252.11253 220.152727 
L 252.241833 242.116364 
L 253.262294 242.116364 
L 253.737731 220.152727 
L 255.645094 220.152727 
L 255.697009 242.116364 
L 255.954113 242.116364 
L 256.384219 220.152727 
L 256.839318 220.152727 
L 257.041981 198.189091 
L 257.866628 220.152727 
L 258.784738 220.152727 
L 258.859413 198.189091 
L 258.911126 220.152727 
L 259.526185 220.152727 
L 259.637064 198.189091 
L 260.009452 198.189091 
L 260.046101 176.225455 
L 260.051544 198.189091 
L 261.642363 198.189091 
L 261.822514 176.225455 
L 262.488763 198.189091 
L 262.524795 220.152727 
L 263.500358 220.152727 
L 263.585286 176.225455 
L 264.812724 176.225455 
L 264.88247 154.261818 
L 264.91171 176.225455 
L 265.223397 154.261818 
L 266.025942 154.261818 
L 266.06223 132.298182 
L 267.320742 132.298182 
L 267.51592 110.334545 
L 267.560521 132.298182 
L 267.889812 154.261818 
L 269.192809 154.261818 
L 269.345564 132.298182 
L 269.378506 110.334545 
L 270.521289 132.298182 
L 270.683061 154.261818 
L 272.440781 154.261818 
L 272.851299 176.225455 
L 272.96314 176.225455 
L 273.174812 154.261818 
L 273.602727 154.261818 
L 273.645896 132.298182 
L 273.912495 132.298182 
L 274.078413 110.334545 
L 274.403223 132.298182 
L 274.521409 132.298182 
L 274.568123 110.334545 
L 275.499111 110.334545 
L 275.687708 132.298182 
L 276.134824 132.298182 
L 276.221989 110.334545 
L 276.415735 88.370909 
L 276.625171 110.334545 
L 276.90034 132.298182 
L 277.055198 110.334545 
L 277.661105 110.334545 
L 277.948412 132.298182 
L 278.098314 132.298182 
L 278.185047 110.334545 
L 278.558002 132.298182 
L 278.632237 154.261818 
L 278.746925 132.298182 
L 279.329716 154.261818 
L 279.330278 132.298182 
L 279.5219 154.261818 
L 280.243287 154.261818 
L 280.393985 176.225455 
L 280.545018 176.225455 
L 280.555551 198.189091 
L 280.842826 198.189091 
L 281.036887 176.225455 
L 281.705523 176.225455 
L 281.827957 198.189091 
L 282.794921 198.189091 
L 283.08621 220.152727 
L 283.741963 220.152727 
L 283.914998 242.116364 
L 285.357422 242.116364 
L 285.646908 220.152727 
L 286.045962 220.152727 
L 286.17238 198.189091 
L 286.707946 198.189091 
L 287.640186 242.116364 
L 288.67794 242.116364 
L 288.765725 220.152727 
L 289.352714 220.152727 
L 289.486651 242.116364 
L 290.220782 242.116364 
L 290.430135 220.152727 
L 290.574536 220.152727 
L 290.592659 242.116364 
L 290.731776 220.152727 
L 291.483168 220.152727 
L 291.582285 242.116364 
L 291.815724 242.116364 
L 291.840961 220.152727 
L 292.349912 220.152727 
L 292.434997 242.116364 
L 292.621514 242.116364 
L 292.648234 198.189091 
L 293.345607 198.189091 
L 293.547151 220.152727 
L 293.661927 242.116364 
L 293.714254 242.116364 
L 293.889684 220.152727 
L 294.242539 198.189091 
L 295.249962 220.152727 
L 295.281958 198.189091 
L 295.577162 176.225455 
L 296.128199 176.225455 
L 296.229768 198.189091 
L 297.464975 220.152727 
L 297.653745 220.152727 
L 297.709487 242.116364 
L 301.841405 242.116364 
L 301.897479 220.152727 
L 302.230807 220.152727 
L 302.53597 242.116364 
L 302.681974 220.152727 
L 302.815954 242.116364 
L 303.290005 220.152727 
L 304.706761 220.152727 
L 304.944735 242.116364 
L 305.563246 242.116364 
L 305.60803 220.152727 
L 305.825413 220.152727 
L 306.07891 198.189091 
L 306.513099 198.189091 
L 306.614961 220.152727 
L 306.971076 242.116364 
L 308.110491 242.116364 
L 308.331439 220.152727 
L 310.495409 220.152727 
L 311.275085 242.116364 
L 311.303758 220.152727 
L 311.944585 242.116364 
L 312.9893 242.116364 
L 313.459535 220.152727 
L 315.761365 220.152727 
L 316.816457 242.116364 
L 317.360024 242.116364 
L 317.478721 220.152727 
L 317.831821 220.152727 
L 317.857438 242.116364 
L 317.929026 220.152727 
L 318.126856 242.116364 
L 318.423118 242.116364 
L 318.491653 220.152727 
L 318.847671 242.116364 
L 320.765705 242.116364 
L 321.091946 220.152727 
L 321.279782 242.116364 
L 322.466748 242.116364 
L 322.491183 220.152727 
L 323.172825 220.152727 
L 323.8283 242.116364 
L 325.334001 242.116364 
L 325.768221 198.189091 
L 325.824605 198.189091 
L 325.828145 220.152727 
L 326.035979 198.189091 
L 326.266111 198.189091 
L 326.306043 154.261818 
L 326.710842 176.225455 
L 327.30141 220.152727 
L 327.430418 220.152727 
L 327.758433 198.189091 
L 328.559898 198.189091 
L 328.568454 220.152727 
L 328.688147 242.116364 
L 329.057535 220.152727 
L 329.348355 220.152727 
L 329.464376 198.189091 
L 329.540608 220.152727 
L 330.273367 220.152727 
L 330.495594 198.189091 
L 331.127756 198.189091 
L 331.175908 220.152727 
L 331.384974 242.116364 
L 331.429152 220.152727 
L 331.582565 220.152727 
L 332.266652 242.116364 
L 332.647649 242.116364 
L 332.689973 220.152727 
L 333.054969 220.152727 
L 333.369395 242.116364 
L 334.13283 242.116364 
L 334.586573 220.152727 
L 334.774134 220.152727 
L 334.847215 198.189091 
L 334.98353 198.189091 
L 335.777679 220.152727 
L 336.544999 220.152727 
L 337.075452 242.116364 
L 337.167868 220.152727 
L 337.388832 220.152727 
L 337.583755 242.116364 
L 337.911126 242.116364 
L 337.914996 220.152727 
L 338.619659 220.152727 
L 338.90637 198.189091 
L 338.921071 220.152727 
L 338.99767 198.189091 
L 340.056737 198.189091 
L 340.080197 220.152727 
L 340.257325 198.189091 
L 340.742833 176.225455 
L 341.319869 176.225455 
L 341.382026 154.261818 
L 342.084002 154.261818 
L 342.103614 132.298182 
L 343.012475 132.298182 
L 343.192909 154.261818 
L 343.327811 154.261818 
L 343.449165 132.298182 
L 343.568878 132.298182 
L 343.723242 154.261818 
L 343.867848 154.261818 
L 343.961037 132.298182 
L 344.180591 132.298182 
L 344.223945 154.261818 
L 344.89839 154.261818 
L 345.327678 176.225455 
L 345.330641 198.189091 
L 345.472137 220.152727 
L 346.782731 220.152727 
L 346.945065 198.189091 
L 347.17763 198.189091 
L 347.404335 220.152727 
L 347.442571 198.189091 
L 347.580237 220.152727 
L 347.914238 198.189091 
L 347.995212 154.261818 
L 348.42729 154.261818 
L 348.704569 176.225455 
L 349.164564 176.225455 
L 349.25313 154.261818 
L 349.256657 176.225455 
L 349.282952 198.189091 
L 351.64404 198.189091 
L 351.845806 220.152727 
L 352.064138 220.152727 
L 352.276308 242.116364 
L 352.672495 242.116364 
L 352.766622 220.152727 
L 353.023852 220.152727 
L 353.056167 242.116364 
L 356.52619 242.116364 
L 356.532552 220.152727 
L 356.607996 242.116364 
L 357.55108 242.116364 
L 357.898577 220.152727 
L 358.214816 220.152727 
L 358.224038 242.116364 
L 359.143097 242.116364 
L 359.77831 220.152727 
L 359.857165 198.189091 
L 361.744495 198.189091 
L 362.499706 176.225455 
L 363.095959 198.189091 
L 363.407373 220.152727 
L 363.492425 242.116364 
L 364.008258 220.152727 
L 364.125591 220.152727 
L 364.262949 198.189091 
L 365.687365 198.189091 
L 365.789709 176.225455 
L 366.693155 176.225455 
L 366.902564 198.189091 
L 367.212369 176.225455 
L 368.336765 198.189091 
L 368.518618 198.189091 
L 368.581875 176.225455 
L 369.29216 176.225455 
L 369.645049 198.189091 
L 369.822114 220.152727 
L 370.89243 242.116364 
L 371.400607 242.116364 
L 371.885427 220.152727 
L 372.911508 220.152727 
L 373.325701 242.116364 
L 373.791344 220.152727 
L 376.871714 220.152727 
L 377.165267 198.189091 
L 377.695126 198.189091 
L 377.83141 176.225455 
L 378.180168 198.189091 
L 378.376911 198.189091 
L 378.684666 220.152727 
L 380.046244 220.152727 
L 380.235301 242.116364 
L 380.552445 242.116364 
L 381.310858 198.189091 
L 381.492293 198.189091 
L 381.563094 220.152727 
L 383.797172 220.152727 
L 383.978943 198.189091 
L 384.3505 220.152727 
L 384.698993 220.152727 
L 385.336285 198.189091 
L 386.644234 198.189091 
L 387.336183 220.152727 
L 388.21202 220.152727 
L 388.231033 242.116364 
L 388.583941 242.116364 
L 388.646626 220.152727 
L 388.796705 220.152727 
L 388.987261 198.189091 
L 389.870636 198.189091 
L 389.878124 176.225455 
L 390.573344 176.225455 
L 390.66447 198.189091 
L 390.94051 198.189091 
L 391.100207 220.152727 
L 391.113623 198.189091 
L 391.533841 198.189091 
L 391.81034 220.152727 
L 393.103651 220.152727 
L 393.218716 198.189091 
L 393.898684 198.189091 
L 394.574229 220.152727 
L 394.896903 220.152727 
L 394.994817 198.189091 
L 395.900176 198.189091 
L 396.020615 242.116364 
L 396.061391 220.152727 
L 396.13005 220.152727 
L 396.442612 198.189091 
L 396.685005 220.152727 
L 396.730508 242.116364 
L 397.262796 242.116364 
L 397.75733 220.152727 
L 397.878805 220.152727 
L 398.17223 198.189091 
L 398.300874 176.225455 
L 398.706155 198.189091 
L 398.788362 220.152727 
L 399.167893 220.152727 
L 399.568795 242.116364 
L 400.153436 242.116364 
L 400.221965 220.152727 
L 400.383545 220.152727 
L 400.472685 198.189091 
L 401.296237 198.189091 
L 401.368407 220.152727 
L 402.133685 242.116364 
L 402.523485 242.116364 
L 402.704568 220.152727 
L 403.446665 220.152727 
L 403.570227 198.189091 
L 403.868156 198.189091 
L 403.901884 176.225455 
L 403.948121 198.189091 
L 404.132957 198.189091 
L 404.360615 220.152727 
L 404.385989 198.189091 
L 404.785321 198.189091 
L 404.917525 176.225455 
L 405.46103 176.225455 
L 405.942769 198.189091 
L 406.724546 198.189091 
L 407.822807 220.152727 
L 407.844672 242.116364 
L 410.228225 242.116364 
L 410.244553 220.152727 
L 410.665897 242.116364 
L 411.775673 242.116364 
L 411.887234 220.152727 
L 412.226819 220.152727 
L 412.674039 242.116364 
L 412.731951 220.152727 
L 413.676592 220.152727 
L 413.735914 198.189091 
L 413.974969 198.189091 
L 414.26478 220.152727 
L 414.996809 220.152727 
L 415.032882 242.116364 
L 415.059599 220.152727 
L 415.348881 242.116364 
L 415.685286 220.152727 
L 417.014793 220.152727 
L 417.321071 242.116364 
L 417.448996 220.152727 
L 417.55199 242.116364 
L 417.603922 220.152727 
L 417.75502 242.116364 
L 418.8391 242.116364 
L 418.897509 220.152727 
L 419.161775 242.116364 
L 420.769286 242.116364 
L 421.51504 220.152727 
L 422.039168 242.116364 
L 422.378364 242.116364 
L 422.529633 220.152727 
L 422.59815 220.152727 
L 422.73778 242.116364 
L 425.245326 242.116364 
L 425.625765 220.152727 
L 426.476033 220.152727 
L 426.512154 198.189091 
L 427.195401 198.189091 
L 427.248748 242.116364 
L 427.558993 220.152727 
L 427.867051 220.152727 
L 428.083885 242.116364 
L 428.196732 242.116364 
L 428.327737 220.152727 
L 428.739924 220.152727 
L 428.8029 242.116364 
L 428.829244 220.152727 
L 428.906838 198.189091 
L 429.224644 198.189091 
L 429.306965 220.152727 
L 429.60962 198.189091 
L 430.135206 220.152727 
L 430.159107 198.189091 
L 432.192697 220.152727 
L 432.6179 220.152727 
L 432.645758 242.116364 
L 434.815837 242.116364 
L 434.933924 220.152727 
L 435.041202 242.116364 
L 436.672593 242.116364 
L 436.838941 220.152727 
L 437.022283 220.152727 
L 437.313948 242.116364 
L 437.808912 220.152727 
L 438.289378 220.152727 
L 438.560903 198.189091 
L 438.690441 220.152727 
L 439.00781 242.116364 
L 442.820496 242.116364 
L 443.322812 220.152727 
L 444.585759 220.152727 
L 444.67379 242.116364 
L 444.892037 220.152727 
L 445.103138 220.152727 
L 445.240965 242.116364 
L 445.339268 220.152727 
L 445.819728 242.116364 
L 446.093469 242.116364 
L 446.117583 220.152727 
L 447.037412 220.152727 
L 447.203804 242.116364 
L 447.27703 220.152727 
L 447.453379 242.116364 
L 447.651663 242.116364 
L 447.722433 220.152727 
L 448.369024 220.152727 
L 448.431113 242.116364 
L 448.774242 220.152727 
L 449.162526 242.116364 
L 449.81012 242.116364 
L 449.848502 220.152727 
L 449.967403 220.152727 
L 451.682636 242.116364 
L 452.314444 242.116364 
L 452.474455 220.152727 
L 452.873242 242.116364 
L 453.828189 242.116364 
L 454.134955 220.152727 
L 455.771963 220.152727 
L 456.050686 198.189091 
L 456.353607 220.152727 
L 457.067894 198.189091 
L 458.035871 198.189091 
L 458.083026 176.225455 
L 459.28077 176.225455 
L 459.595384 154.261818 
L 461.289645 154.261818 
L 461.571686 176.225455 
L 461.62958 198.189091 
L 461.968992 154.261818 
L 462.319423 154.261818 
L 462.43901 132.298182 
L 463.218333 110.334545 
L 463.518657 110.334545 
L 463.785842 132.298182 
L 465.637173 132.298182 
L 466.011987 110.334545 
L 466.114312 132.298182 
L 466.262275 132.298182 
L 466.371983 110.334545 
L 466.521542 110.334545 
L 466.60817 132.298182 
L 468.694031 132.298182 
L 468.909167 110.334545 
L 468.967017 132.298182 
L 469.156618 132.298182 
L 469.189297 110.334545 
L 469.588893 132.298182 
L 470.229865 154.261818 
L 470.671159 154.261818 
L 470.839987 110.334545 
L 471.317965 132.298182 
L 471.470035 110.334545 
L 472.909283 132.298182 
L 473.655833 132.298182 
L 473.734643 154.261818 
L 475.052243 154.261818 
L 475.072756 132.298182 
L 475.270822 154.261818 
L 475.911916 176.225455 
L 476.858233 176.225455 
L 477.027179 198.189091 
L 477.265366 198.189091 
L 477.374268 176.225455 
L 477.46094 198.189091 
L 477.487868 176.225455 
L 477.704354 198.189091 
L 478.041912 176.225455 
L 478.065236 198.189091 
L 478.330304 220.152727 
L 478.673675 176.225455 
L 480.107539 176.225455 
L 480.220006 154.261818 
L 480.915009 154.261818 
L 480.9535 176.225455 
L 481.088961 154.261818 
L 481.34331 154.261818 
L 481.466698 176.225455 
L 482.08818 198.189091 
L 482.415761 220.152727 
L 482.875618 198.189091 
L 482.977477 220.152727 
L 483.087986 198.189091 
L 483.285132 242.116364 
L 483.982913 242.116364 
L 484.05416 220.152727 
L 484.511146 176.225455 
L 485.089872 176.225455 
L 485.377227 154.261818 
L 485.863787 154.261818 
L 486.342038 132.298182 
L 486.602748 132.298182 
L 487.760714 154.261818 
L 487.893319 198.189091 
L 488.10592 220.152727 
L 488.473013 220.152727 
L 488.482318 242.116364 
L 488.509547 220.152727 
L 488.818076 220.152727 
L 488.940226 242.116364 
L 489.687124 242.116364 
L 489.781367 220.152727 
L 490.119311 220.152727 
L 490.571137 242.116364 
L 490.613058 220.152727 
L 490.678795 242.116364 
L 491.182684 220.152727 
L 491.242024 198.189091 
L 491.388471 198.189091 
L 491.537622 220.152727 
L 491.845491 220.152727 
L 491.991601 198.189091 
L 492.948557 198.189091 
L 493.04406 220.152727 
L 493.613762 220.152727 
L 493.957897 198.189091 
L 494.392735 242.116364 
L 495.347467 242.116364 
L 495.642623 220.152727 
L 496.165786 242.116364 
L 496.424919 220.152727 
L 496.639132 242.116364 
L 497.20262 242.116364 
L 497.883618 220.152727 
L 498.068305 220.152727 
L 498.278568 242.116364 
L 499.643792 242.116364 
L 499.724754 220.152727 
L 499.879563 220.152727 
L 500.347743 242.116364 
L 500.693472 220.152727 
L 500.695305 198.189091 
L 501.037318 198.189091 
L 501.284562 220.152727 
L 501.343268 220.152727 
L 501.464794 242.116364 
L 501.481721 220.152727 
L 501.766093 198.189091 
L 503.191107 242.116364 
L 503.500274 242.116364 
L 503.528163 220.152727 
L 503.928258 220.152727 
L 504.591825 242.116364 
L 504.661061 220.152727 
L 505.102806 220.152727 
L 505.262415 242.116364 
L 505.6318 198.189091 
L 505.650348 220.152727 
L 507.683775 220.152727 
L 507.92154 198.189091 
L 508.256466 198.189091 
L 508.739338 220.152727 
L 509.635565 220.152727 
L 509.694166 242.116364 
L 509.928212 220.152727 
L 510.156494 242.116364 
L 511.378973 242.116364 
L 511.590775 220.152727 
L 511.900641 220.152727 
L 512.09361 198.189091 
L 512.618696 198.189091 
L 512.787407 176.225455 
L 513.260037 176.225455 
L 513.320449 198.189091 
L 514.197275 198.189091 
L 514.420549 220.152727 
L 514.819289 220.152727 
L 514.839896 242.116364 
L 514.994761 220.152727 
L 515.379601 220.152727 
L 515.451405 198.189091 
L 516.029955 220.152727 
L 516.447207 220.152727 
L 516.506448 242.116364 
L 516.683951 220.152727 
L 517.576431 220.152727 
L 517.842569 242.116364 
L 518.141593 242.116364 
L 518.212309 220.152727 
L 519.896548 220.152727 
L 520.181894 242.116364 
L 521.192167 242.116364 
L 521.556096 220.152727 
L 521.969728 220.152727 
L 522.214842 198.189091 
L 524.79948 198.189091 
L 524.874919 220.152727 
L 525.414057 220.152727 
L 525.478103 242.116364 
L 526.231699 242.116364 
L 526.359658 220.152727 
L 526.554154 220.152727 
L 526.671285 198.189091 
L 527.042645 220.152727 
L 527.066035 242.116364 
L 527.06886 220.152727 
L 527.618287 242.116364 
L 530.190333 242.116364 
L 531.281461 220.152727 
L 531.306044 220.152727 
L 531.307164 242.116364 
L 531.547594 242.116364 
L 531.64463 198.189091 
L 533.133209 198.189091 
L 533.235748 220.152727 
L 533.402198 220.152727 
L 533.913078 242.116364 
L 534.907835 242.116364 
L 535.036174 220.152727 
L 535.55045 242.116364 
L 539.01622 242.116364 
L 539.438871 220.152727 
L 540.164643 220.152727 
L 540.263512 198.189091 
L 540.278137 220.152727 
L 540.489303 220.152727 
L 540.637553 198.189091 
L 542.560672 198.189091 
L 545.429622 220.152727 
L 546.941655 220.152727 
L 547.250375 242.116364 
L 553.034968 242.116364 
L 553.407962 220.152727 
L 553.441956 242.116364 
L 554.219545 242.116364 
L 554.312211 220.152727 
L 554.623012 220.152727 
L 554.859232 198.189091 
L 555.436827 198.189091 
L 555.462329 176.225455 
L 556.837653 176.225455 
L 557.920904 198.189091 
L 558.392087 242.116364 
L 558.566915 220.152727 
L 558.597206 242.116364 
L 559.305004 242.116364 
L 559.854335 220.152727 
L 560.079092 220.152727 
L 560.152751 242.116364 
L 560.702106 220.152727 
L 560.902689 220.152727 
L 561.064635 242.116364 
L 561.144275 220.152727 
L 561.191494 242.116364 
L 564.086712 242.116364 
L 564.226105 220.152727 
L 564.36958 242.116364 
L 565.29153 242.116364 
L 565.581515 220.152727 
L 566.084073 242.116364 
L 566.686966 242.116364 
L 566.730341 220.152727 
L 567.115148 220.152727 
L 567.296919 242.116364 
L 568.107601 242.116364 
L 568.563739 220.152727 
L 568.568399 198.189091 
L 569.897241 220.152727 
L 570.023771 242.116364 
L 570.562587 242.116364 
L 570.648744 220.152727 
L 571.084243 220.152727 
L 571.141322 242.116364 
L 574.673451 242.116364 
L 574.74015 220.152727 
L 574.874934 220.152727 
L 575.253962 242.116364 
L 575.263148 220.152727 
L 575.47365 220.152727 
L 575.528378 242.116364 
L 576.138375 220.152727 
L 578.112909 220.152727 
L 578.163551 242.116364 
L 578.406931 242.116364 
L 578.595271 220.152727 
L 579.38085 220.152727 
L 579.43676 198.189091 
L 580.320548 198.189091 
L 580.545577 242.116364 
L 581.760275 242.116364 
L 582.752144 220.152727 
L 583.321438 242.116364 
L 587.036039 242.116364 
L 587.093553 220.152727 
L 587.63461 242.116364 
L 589.72354 242.116364 
L 589.947685 198.189091 
L 592.394391 198.189091 
L 592.501174 176.225455 
L 593.03205 198.189091 
L 594.310803 198.189091 
L 594.67276 176.225455 
L 595.27131 176.225455 
L 595.285458 198.189091 
L 595.580544 198.189091 
L 595.972482 220.152727 
L 596.250822 220.152727 
L 596.650317 242.116364 
L 596.805175 220.152727 
L 598.137219 220.152727 
L 598.26448 242.116364 
L 598.569529 242.116364 
L 598.585833 220.152727 
L 599.751321 220.152727 
L 599.789966 198.189091 
L 601.848447 198.189091 
L 601.875252 242.116364 
L 602.535477 220.152727 
L 602.551293 242.116364 
L 603.831034 242.116364 
L 603.962239 220.152727 
L 604.075356 220.152727 
L 604.28621 198.189091 
L 605.185012 198.189091 
L 605.32241 176.225455 
L 605.518346 176.225455 
L 605.604321 198.189091 
L 606.43318 198.189091 
L 606.764242 176.225455 
L 606.835454 176.225455 
L 607.188245 220.152727 
L 607.279903 220.152727 
L 608.209036 242.116364 
L 608.694258 242.116364 
L 608.963266 220.152727 
L 609.373133 220.152727 
L 610.884743 242.116364 
L 611.561827 242.116364 
L 611.879316 220.152727 
L 612.617384 242.116364 
L 612.782825 220.152727 
L 613.716447 220.152727 
L 613.761708 198.189091 
L 614.949457 198.189091 
L 615.140158 220.152727 
L 616.587964 220.152727 
L 616.637206 198.189091 
L 616.922251 198.189091 
L 616.974973 176.225455 
L 617.542652 176.225455 
L 617.758341 154.261818 
L 618.656196 154.261818 
L 618.739512 176.225455 
L 619.101754 176.225455 
L 619.454754 154.261818 
L 619.816628 154.261818 
L 620.538663 176.225455 
L 620.884378 176.225455 
L 621.100926 154.261818 
L 621.817812 154.261818 
L 621.929684 176.225455 
L 622.083638 132.298182 
L 622.096668 132.298182 
L 622.462306 110.334545 
L 623.583703 110.334545 
L 623.63419 88.370909 
L 623.97163 88.370909 
L 623.994522 110.334545 
L 624.004057 88.370909 
L 625.924748 88.370909 
L 625.995461 66.407273 
L 626.111878 88.370909 
L 626.943052 88.370909 
L 627.031717 66.407273 
L 627.730933 66.407273 
L 627.852001 110.334545 
L 628.077771 110.334545 
L 628.09207 88.370909 
L 628.332673 88.370909 
L 628.758423 44.443636 
L 629.168066 44.443636 
L 629.265944 66.407273 
L 630.439149 66.407273 
L 630.656805 88.370909 
L 631.047484 88.370909 
L 631.253133 132.298182 
L 631.687617 132.298182 
L 631.875478 88.370909 
L 632.101651 88.370909 
L 632.236265 110.334545 
L 632.450331 88.370909 
L 632.649277 110.334545 
L 632.783738 88.370909 
L 633.138522 110.334545 
L 634.498668 110.334545 
L 634.743037 132.298182 
L 634.779483 154.261818 
L 635.226888 154.261818 
L 635.240131 176.225455 
L 635.914756 176.225455 
L 635.92315 198.189091 
L 636.34947 198.189091 
L 636.40286 176.225455 
L 636.553003 176.225455 
L 636.605115 154.261818 
L 636.795719 154.261818 
L 636.949913 176.225455 
L 636.996993 132.298182 
L 637.3147 132.298182 
L 639.184712 154.261818 
L 639.598067 132.298182 
L 640.226712 154.261818 
L 641.012043 154.261818 
L 641.281591 176.225455 
L 641.311843 154.261818 
L 642.033489 176.225455 
L 642.162895 198.189091 
L 642.40373 198.189091 
L 642.485689 220.152727 
L 642.609256 220.152727 
L 643.114453 242.116364 
L 643.183556 220.152727 
L 644.00886 176.225455 
L 644.597251 176.225455 
L 644.973332 154.261818 
L 646.357751 154.261818 
L 646.604208 132.298182 
L 647.231407 132.298182 
L 647.604196 110.334545 
L 649.055805 110.334545 
L 649.174052 88.370909 
L 649.499446 66.407273 
L 649.782314 110.334545 
L 649.876709 88.370909 
L 650.279639 66.407273 
L 651.89409 66.407273 
L 652.126563 88.370909 
L 652.289316 88.370909 
L 652.302798 66.407273 
L 652.429097 66.407273 
L 653.375001 88.370909 
L 653.603615 110.334545 
L 653.71065 110.334545 
L 654.31975 132.298182 
L 654.676427 132.298182 
L 654.791217 110.334545 
L 655.283775 110.334545 
L 655.528641 132.298182 
L 655.667677 132.298182 
L 655.89248 154.261818 
L 656.134548 132.298182 
L 656.383586 132.298182 
L 656.496031 110.334545 
L 657.261476 132.298182 
L 659.056365 132.298182 
L 659.119878 154.261818 
L 659.791234 154.261818 
L 660.569637 176.225455 
L 662.403132 198.189091 
L 663.261778 220.152727 
L 663.616221 242.116364 
L 663.663615 220.152727 
L 663.759363 242.116364 
L 663.968125 242.116364 
L 664.204919 220.152727 
L 664.732971 198.189091 
L 665.150941 198.189091 
L 665.180141 176.225455 
L 665.450694 198.189091 
L 665.825844 198.189091 
L 665.911053 176.225455 
L 665.923021 198.189091 
L 667.519998 198.189091 
L 667.750592 176.225455 
L 668.352906 198.189091 
L 668.562579 220.152727 
L 668.895713 242.116364 
L 669.719633 242.116364 
L 669.853366 198.189091 
L 670.254761 198.189091 
L 670.420796 220.152727 
L 670.588595 198.189091 
L 670.611872 220.152727 
L 671.345972 242.116364 
L 672.004287 242.116364 
L 672.196666 198.189091 
L 673.288747 198.189091 
L 673.654603 176.225455 
L 674.275841 198.189091 
L 675.163053 198.189091 
L 675.297005 176.225455 
L 675.652828 176.225455 
L 675.853132 198.189091 
L 675.978964 176.225455 
L 676.287795 176.225455 
L 676.384483 154.261818 
L 676.860779 176.225455 
L 676.912307 176.225455 
L 676.998341 198.189091 
L 677.809528 198.189091 
L 678.024719 176.225455 
L 678.212725 176.225455 
L 678.379866 154.261818 
L 679.742531 154.261818 
L 679.930613 176.225455 
L 680.180379 176.225455 
L 680.398665 198.189091 
L 681.545426 198.189091 
L 681.556202 176.225455 
L 682.166068 176.225455 
L 682.275098 198.189091 
L 682.756341 198.189091 
L 682.784286 176.225455 
L 683.339489 220.152727 
L 683.395443 198.189091 
L 684.205115 198.189091 
L 684.506489 220.152727 
L 684.881763 220.152727 
L 684.912644 198.189091 
L 685.047108 198.189091 
L 685.159072 220.152727 
L 685.174391 198.189091 
L 685.327292 176.225455 
L 685.696464 198.189091 
L 685.82246 198.189091 
L 685.985555 220.152727 
L 686.313006 198.189091 
L 686.599957 198.189091 
L 686.608875 176.225455 
L 687.083206 220.152727 
L 687.237132 198.189091 
L 687.635617 220.152727 
L 688.099212 220.152727 
L 688.401433 242.116364 
L 690.186856 242.116364 
L 690.864515 198.189091 
L 691.444382 198.189091 
L 691.514519 220.152727 
L 692.210494 220.152727 
L 692.558652 242.116364 
L 694.10162 242.116364 
L 694.107095 220.152727 
L 695.013903 220.152727 
L 695.061436 242.116364 
L 695.175767 242.116364 
L 695.521212 220.152727 
L 695.745522 198.189091 
L 696.045654 220.152727 
L 697.003394 220.152727 
L 697.275845 242.116364 
L 699.605685 242.116364 
L 699.833369 220.152727 
L 700.546964 242.116364 
L 700.954438 242.116364 
L 701.076853 220.152727 
L 701.149216 220.152727 
L 701.339451 242.116364 
L 703.825236 242.116364 
L 704.102804 220.152727 
L 704.215851 220.152727 
L 704.598946 242.116364 
L 707.916485 242.116364 
L 707.929776 220.152727 
L 708.776299 242.116364 
L 709.41705 242.116364 
L 709.646211 220.152727 
L 710.125599 220.152727 
L 710.52807 198.189091 
L 710.750064 198.189091 
L 710.761603 220.152727 
L 711.229309 220.152727 
L 711.760642 242.116364 
L 712.881684 242.116364 
L 712.885715 220.152727 
L 714.208764 220.152727 
L 714.270906 242.116364 
L 715.080238 242.116364 
L 715.101644 220.152727 
L 715.32961 220.152727 
L 715.437901 242.116364 
L 715.521604 220.152727 
L 716.856895 220.152727 
L 716.875279 198.189091 
L 720.100148 198.189091 
L 720.108836 220.152727 
L 720.217387 198.189091 
L 721.928611 198.189091 
L 721.954083 176.225455 
L 722.084588 198.189091 
L 722.336924 176.225455 
L 722.520011 176.225455 
L 723.098967 198.189091 
L 723.435828 220.152727 
L 723.996122 242.116364 
L 725.080088 242.116364 
L 725.181693 220.152727 
L 725.529509 242.116364 
L 725.892652 242.116364 
L 726.041267 220.152727 
L 726.092028 242.116364 
L 726.477731 242.116364 
L 726.846302 198.189091 
L 727.44281 198.189091 
L 727.577225 220.152727 
L 727.631108 198.189091 
L 727.959366 198.189091 
L 728.004888 176.225455 
L 728.29838 220.152727 
L 728.604945 198.189091 
L 728.645764 220.152727 
L 729.038716 242.116364 
L 729.375245 220.152727 
L 729.50431 176.225455 
L 730.18864 176.225455 
L 730.349558 198.189091 
L 730.631747 198.189091 
L 730.964279 176.225455 
L 731.089478 176.225455 
L 731.455029 198.189091 
L 731.708646 198.189091 
L 732.230808 220.152727 
L 732.393057 220.152727 
L 732.48128 198.189091 
L 732.78977 198.189091 
L 732.994792 242.116364 
L 734.255296 242.116364 
L 734.261887 220.152727 
L 734.510319 198.189091 
L 734.943416 198.189091 
L 735.339075 220.152727 
L 735.401558 198.189091 
L 735.544361 176.225455 
L 735.549413 198.189091 
L 736.243902 220.152727 
L 736.633008 220.152727 
L 736.888441 242.116364 
L 737.087949 242.116364 
L 737.125146 220.152727 
L 737.614559 220.152727 
L 737.647425 198.189091 
L 738.997717 198.189091 
L 739.214435 220.152727 
L 739.722626 220.152727 
L 739.773722 242.116364 
L 739.777771 220.152727 
L 739.949517 220.152727 
L 740.005426 198.189091 
L 741.430749 198.189091 
L 741.497274 220.152727 
L 741.578139 198.189091 
L 741.827844 198.189091 
L 741.996521 176.225455 
L 742.051779 198.189091 
L 742.886203 198.189091 
L 742.897538 220.152727 
L 743.433857 220.152727 
L 743.506622 242.116364 
L 743.839916 220.152727 
L 744.117707 242.116364 
L 744.225014 220.152727 
L 744.528025 242.116364 
L 745.050939 242.116364 
L 745.105389 220.152727 
L 745.477209 242.116364 
L 746.658234 242.116364 
L 746.665386 220.152727 
L 747.163636 220.152727 
L 747.163636 220.152727 
" style="fill:none;stroke:#ff7f0e;stroke-linecap:square;stroke-width:1.5;"/>
   </g>
   <g id="patch_3">
    <path d="M 108 252 
L 108 34.56 
" style="fill:none;stroke:#000000;stroke-linecap:square;stroke-linejoin:miter;stroke-width:0.8;"/>
   </g>
   <g id="patch_4">
    <path d="M 777.6 252 
L 777.6 34.56 
" style="fill:none;stroke:#000000;stroke-linecap:square;stroke-linejoin:miter;stroke-width:0.8;"/>
   </g>
   <g id="patch_5">
    <path d="M 108 252 
L 777.6 252 
" style="fill:none;stroke:#000000;stroke-linecap:square;stroke-linejoin:miter;stroke-width:0.8;"/>
   </g>
   <g id="patch_6">
    <path d="M 108 34.56 
L 777.6 34.56 
" style="fill:none;stroke:#000000;stroke-linecap:square;stroke-linejoin:miter;stroke-width:0.8;"/>
   </g>
  </g>
 </g>
 <defs>
  <clipPath id="p9961788adf">
   <rect height="217.44" width="669.6" x="108" y="34.56"/>
  </clipPath>
 </defs>
</svg>
