<?xml version="1.0" encoding="utf-8" standalone="no"?>
<!DOCTYPE svg PUBLIC "-//W3C//DTD SVG 1.1//EN"
  "http://www.w3.org/Graphics/SVG/1.1/DTD/svg11.dtd">
<svg xmlns:xlink="http://www.w3.org/1999/xlink" width="720pt" height="288pt" viewBox="0 0 720 288" xmlns="http://www.w3.org/2000/svg" version="1.1">
 <metadata>
  <rdf:RDF xmlns:dc="http://purl.org/dc/elements/1.1/" xmlns:cc="http://creativecommons.org/ns#" xmlns:rdf="http://www.w3.org/1999/02/22-rdf-syntax-ns#">
   <cc:Work>
    <dc:type rdf:resource="http://purl.org/dc/dcmitype/StillImage"/>
    <dc:date>2021-12-17T14:50:40.181736</dc:date>
    <dc:format>image/svg+xml</dc:format>
    <dc:creator>
     <cc:Agent>
      <dc:title>Matplotlib v3.5.0, https://matplotlib.org/</dc:title>
     </cc:Agent>
    </dc:creator>
   </cc:Work>
  </rdf:RDF>
 </metadata>
 <defs>
  <style type="text/css">*{stroke-linejoin: round; stroke-linecap: butt}</style>
 </defs>
 <g id="figure_1">
  <g id="patch_1">
   <path d="M 0 288 
L 720 288 
L 720 0 
L 0 0 
z
" style="fill: #ffffff"/>
  </g>
  <g id="axes_1">
   <g id="patch_2">
    <path d="M 90 252 
L 343.636364 252 
L 343.636364 34.56 
L 90 34.56 
z
" style="fill: #ffffff"/>
   </g>
   <g id="matplotlib.axis_1">
    <g id="xtick_1">
     <g id="line2d_1">
      <path d="M 101.528926 252 
L 101.528926 34.56 
" clip-path="url(#pe425aa8cc0)" style="fill: none; stroke: #cccccc; stroke-width: 0.8; stroke-linecap: round"/>
     </g>
     <g id="line2d_2"/>
     <g id="text_1">
      <!-- 0 -->
      <g style="fill: #262626" transform="translate(98.748457 262.657812)scale(0.1 -0.1)">
       <defs>
        <path id="ArialMT-30" d="M 266 2259 
Q 266 3072 433 3567 
Q 600 4063 929 4331 
Q 1259 4600 1759 4600 
Q 2128 4600 2406 4451 
Q 2684 4303 2865 4023 
Q 3047 3744 3150 3342 
Q 3253 2941 3253 2259 
Q 3253 1453 3087 958 
Q 2922 463 2592 192 
Q 2263 -78 1759 -78 
Q 1097 -78 719 397 
Q 266 969 266 2259 
z
M 844 2259 
Q 844 1131 1108 757 
Q 1372 384 1759 384 
Q 2147 384 2411 759 
Q 2675 1134 2675 2259 
Q 2675 3391 2411 3762 
Q 2147 4134 1753 4134 
Q 1366 4134 1134 3806 
Q 844 3388 844 2259 
z
" transform="scale(0.015625)"/>
       </defs>
       <use xlink:href="#ArialMT-30"/>
      </g>
     </g>
    </g>
    <g id="xtick_2">
     <g id="line2d_3">
      <path d="M 164.701121 252 
L 164.701121 34.56 
" clip-path="url(#pe425aa8cc0)" style="fill: none; stroke: #cccccc; stroke-width: 0.8; stroke-linecap: round"/>
     </g>
     <g id="line2d_4"/>
     <g id="text_2">
      <!-- 100 -->
      <g style="fill: #262626" transform="translate(156.359715 262.657812)scale(0.1 -0.1)">
       <defs>
        <path id="ArialMT-31" d="M 2384 0 
L 1822 0 
L 1822 3584 
Q 1619 3391 1289 3197 
Q 959 3003 697 2906 
L 697 3450 
Q 1169 3672 1522 3987 
Q 1875 4303 2022 4600 
L 2384 4600 
L 2384 0 
z
" transform="scale(0.015625)"/>
       </defs>
       <use xlink:href="#ArialMT-31"/>
       <use xlink:href="#ArialMT-30" x="55.615234"/>
       <use xlink:href="#ArialMT-30" x="111.230469"/>
      </g>
     </g>
    </g>
    <g id="xtick_3">
     <g id="line2d_5">
      <path d="M 227.873316 252 
L 227.873316 34.56 
" clip-path="url(#pe425aa8cc0)" style="fill: none; stroke: #cccccc; stroke-width: 0.8; stroke-linecap: round"/>
     </g>
     <g id="line2d_6"/>
     <g id="text_3">
      <!-- 200 -->
      <g style="fill: #262626" transform="translate(219.53191 262.657812)scale(0.1 -0.1)">
       <defs>
        <path id="ArialMT-32" d="M 3222 541 
L 3222 0 
L 194 0 
Q 188 203 259 391 
Q 375 700 629 1000 
Q 884 1300 1366 1694 
Q 2113 2306 2375 2664 
Q 2638 3022 2638 3341 
Q 2638 3675 2398 3904 
Q 2159 4134 1775 4134 
Q 1369 4134 1125 3890 
Q 881 3647 878 3216 
L 300 3275 
Q 359 3922 746 4261 
Q 1134 4600 1788 4600 
Q 2447 4600 2831 4234 
Q 3216 3869 3216 3328 
Q 3216 3053 3103 2787 
Q 2991 2522 2730 2228 
Q 2469 1934 1863 1422 
Q 1356 997 1212 845 
Q 1069 694 975 541 
L 3222 541 
z
" transform="scale(0.015625)"/>
       </defs>
       <use xlink:href="#ArialMT-32"/>
       <use xlink:href="#ArialMT-30" x="55.615234"/>
       <use xlink:href="#ArialMT-30" x="111.230469"/>
      </g>
     </g>
    </g>
    <g id="xtick_4">
     <g id="line2d_7">
      <path d="M 291.045511 252 
L 291.045511 34.56 
" clip-path="url(#pe425aa8cc0)" style="fill: none; stroke: #cccccc; stroke-width: 0.8; stroke-linecap: round"/>
     </g>
     <g id="line2d_8"/>
     <g id="text_4">
      <!-- 300 -->
      <g style="fill: #262626" transform="translate(282.704105 262.657812)scale(0.1 -0.1)">
       <defs>
        <path id="ArialMT-33" d="M 269 1209 
L 831 1284 
Q 928 806 1161 595 
Q 1394 384 1728 384 
Q 2125 384 2398 659 
Q 2672 934 2672 1341 
Q 2672 1728 2419 1979 
Q 2166 2231 1775 2231 
Q 1616 2231 1378 2169 
L 1441 2663 
Q 1497 2656 1531 2656 
Q 1891 2656 2178 2843 
Q 2466 3031 2466 3422 
Q 2466 3731 2256 3934 
Q 2047 4138 1716 4138 
Q 1388 4138 1169 3931 
Q 950 3725 888 3313 
L 325 3413 
Q 428 3978 793 4289 
Q 1159 4600 1703 4600 
Q 2078 4600 2393 4439 
Q 2709 4278 2876 4000 
Q 3044 3722 3044 3409 
Q 3044 3113 2884 2869 
Q 2725 2625 2413 2481 
Q 2819 2388 3044 2092 
Q 3269 1797 3269 1353 
Q 3269 753 2831 336 
Q 2394 -81 1725 -81 
Q 1122 -81 723 278 
Q 325 638 269 1209 
z
" transform="scale(0.015625)"/>
       </defs>
       <use xlink:href="#ArialMT-33"/>
       <use xlink:href="#ArialMT-30" x="55.615234"/>
       <use xlink:href="#ArialMT-30" x="111.230469"/>
      </g>
     </g>
    </g>
   </g>
   <g id="matplotlib.axis_2">
    <g id="ytick_1">
     <g id="line2d_9">
      <path d="M 90 242.116364 
L 343.636364 242.116364 
" clip-path="url(#pe425aa8cc0)" style="fill: none; stroke: #cccccc; stroke-width: 0.8; stroke-linecap: round"/>
     </g>
     <g id="line2d_10"/>
     <g id="text_5">
      <!-- 0 -->
      <g style="fill: #262626" transform="translate(80.939063 245.69527)scale(0.1 -0.1)">
       <use xlink:href="#ArialMT-30"/>
      </g>
     </g>
    </g>
    <g id="ytick_2">
     <g id="line2d_11">
      <path d="M 90 217.407518 
L 343.636364 217.407518 
" clip-path="url(#pe425aa8cc0)" style="fill: none; stroke: #cccccc; stroke-width: 0.8; stroke-linecap: round"/>
     </g>
     <g id="line2d_12"/>
     <g id="text_6">
      <!-- 25 -->
      <g style="fill: #262626" transform="translate(75.378125 220.986424)scale(0.1 -0.1)">
       <defs>
        <path id="ArialMT-35" d="M 266 1200 
L 856 1250 
Q 922 819 1161 601 
Q 1400 384 1738 384 
Q 2144 384 2425 690 
Q 2706 997 2706 1503 
Q 2706 1984 2436 2262 
Q 2166 2541 1728 2541 
Q 1456 2541 1237 2417 
Q 1019 2294 894 2097 
L 366 2166 
L 809 4519 
L 3088 4519 
L 3088 3981 
L 1259 3981 
L 1013 2750 
Q 1425 3038 1878 3038 
Q 2478 3038 2890 2622 
Q 3303 2206 3303 1553 
Q 3303 931 2941 478 
Q 2500 -78 1738 -78 
Q 1113 -78 717 272 
Q 322 622 266 1200 
z
" transform="scale(0.015625)"/>
       </defs>
       <use xlink:href="#ArialMT-32"/>
       <use xlink:href="#ArialMT-35" x="55.615234"/>
      </g>
     </g>
    </g>
    <g id="ytick_3">
     <g id="line2d_13">
      <path d="M 90 192.698672 
L 343.636364 192.698672 
" clip-path="url(#pe425aa8cc0)" style="fill: none; stroke: #cccccc; stroke-width: 0.8; stroke-linecap: round"/>
     </g>
     <g id="line2d_14"/>
     <g id="text_7">
      <!-- 50 -->
      <g style="fill: #262626" transform="translate(75.378125 196.277578)scale(0.1 -0.1)">
       <use xlink:href="#ArialMT-35"/>
       <use xlink:href="#ArialMT-30" x="55.615234"/>
      </g>
     </g>
    </g>
    <g id="ytick_4">
     <g id="line2d_15">
      <path d="M 90 167.989827 
L 343.636364 167.989827 
" clip-path="url(#pe425aa8cc0)" style="fill: none; stroke: #cccccc; stroke-width: 0.8; stroke-linecap: round"/>
     </g>
     <g id="line2d_16"/>
     <g id="text_8">
      <!-- 75 -->
      <g style="fill: #262626" transform="translate(75.378125 171.568733)scale(0.1 -0.1)">
       <defs>
        <path id="ArialMT-37" d="M 303 3981 
L 303 4522 
L 3269 4522 
L 3269 4084 
Q 2831 3619 2401 2847 
Q 1972 2075 1738 1259 
Q 1569 684 1522 0 
L 944 0 
Q 953 541 1156 1306 
Q 1359 2072 1739 2783 
Q 2119 3494 2547 3981 
L 303 3981 
z
" transform="scale(0.015625)"/>
       </defs>
       <use xlink:href="#ArialMT-37"/>
       <use xlink:href="#ArialMT-35" x="55.615234"/>
      </g>
     </g>
    </g>
    <g id="ytick_5">
     <g id="line2d_17">
      <path d="M 90 143.280981 
L 343.636364 143.280981 
" clip-path="url(#pe425aa8cc0)" style="fill: none; stroke: #cccccc; stroke-width: 0.8; stroke-linecap: round"/>
     </g>
     <g id="line2d_18"/>
     <g id="text_9">
      <!-- 100 -->
      <g style="fill: #262626" transform="translate(69.817188 146.859887)scale(0.1 -0.1)">
       <use xlink:href="#ArialMT-31"/>
       <use xlink:href="#ArialMT-30" x="55.615234"/>
       <use xlink:href="#ArialMT-30" x="111.230469"/>
      </g>
     </g>
    </g>
    <g id="ytick_6">
     <g id="line2d_19">
      <path d="M 90 118.572135 
L 343.636364 118.572135 
" clip-path="url(#pe425aa8cc0)" style="fill: none; stroke: #cccccc; stroke-width: 0.8; stroke-linecap: round"/>
     </g>
     <g id="line2d_20"/>
     <g id="text_10">
      <!-- 125 -->
      <g style="fill: #262626" transform="translate(69.817188 122.151041)scale(0.1 -0.1)">
       <use xlink:href="#ArialMT-31"/>
       <use xlink:href="#ArialMT-32" x="55.615234"/>
       <use xlink:href="#ArialMT-35" x="111.230469"/>
      </g>
     </g>
    </g>
    <g id="ytick_7">
     <g id="line2d_21">
      <path d="M 90 93.863289 
L 343.636364 93.863289 
" clip-path="url(#pe425aa8cc0)" style="fill: none; stroke: #cccccc; stroke-width: 0.8; stroke-linecap: round"/>
     </g>
     <g id="line2d_22"/>
     <g id="text_11">
      <!-- 150 -->
      <g style="fill: #262626" transform="translate(69.817188 97.442196)scale(0.1 -0.1)">
       <use xlink:href="#ArialMT-31"/>
       <use xlink:href="#ArialMT-35" x="55.615234"/>
       <use xlink:href="#ArialMT-30" x="111.230469"/>
      </g>
     </g>
    </g>
    <g id="ytick_8">
     <g id="line2d_23">
      <path d="M 90 69.154444 
L 343.636364 69.154444 
" clip-path="url(#pe425aa8cc0)" style="fill: none; stroke: #cccccc; stroke-width: 0.8; stroke-linecap: round"/>
     </g>
     <g id="line2d_24"/>
     <g id="text_12">
      <!-- 175 -->
      <g style="fill: #262626" transform="translate(69.817188 72.73335)scale(0.1 -0.1)">
       <use xlink:href="#ArialMT-31"/>
       <use xlink:href="#ArialMT-37" x="55.615234"/>
       <use xlink:href="#ArialMT-35" x="111.230469"/>
      </g>
     </g>
    </g>
    <g id="ytick_9">
     <g id="line2d_25">
      <path d="M 90 44.445598 
L 343.636364 44.445598 
" clip-path="url(#pe425aa8cc0)" style="fill: none; stroke: #cccccc; stroke-width: 0.8; stroke-linecap: round"/>
     </g>
     <g id="line2d_26"/>
     <g id="text_13">
      <!-- 200 -->
      <g style="fill: #262626" transform="translate(69.817188 48.024504)scale(0.1 -0.1)">
       <use xlink:href="#ArialMT-32"/>
       <use xlink:href="#ArialMT-30" x="55.615234"/>
       <use xlink:href="#ArialMT-30" x="111.230469"/>
      </g>
     </g>
    </g>
   </g>
   <g id="line2d_27">
    <path d="M 101.528926 44.445598 
L 101.597515 44.545821 
L 101.597515 44.545821 
L 101.70878 45.230687 
L 101.837907 47.911771 
L 101.958337 54.966057 
L 101.958337 54.966057 
L 102.074595 78.770046 
L 102.074595 78.770046 
L 102.197617 166.6972 
L 102.377472 241.497029 
L 102.443107 241.634241 
L 102.501986 241.591398 
L 103.292047 241.251685 
L 103.292047 241.251685 
L 103.487661 240.790159 
L 103.502717 240.802809 
L 103.756359 241.100121 
L 103.865186 241.105047 
L 103.880873 241.08931 
L 104.374321 240.392542 
L 104.469462 239.915224 
L 104.549565 239.957346 
L 104.678691 239.63786 
L 104.890828 238.827617 
L 105.895838 228.489372 
L 105.928452 228.768684 
L 106.033312 229.521 
L 106.076025 229.072319 
L 106.468872 225.707845 
L 106.491074 225.793655 
L 106.497574 225.816166 
L 106.541803 225.629549 
L 106.873373 223.119098 
L 106.88915 223.20397 
L 106.964066 224.821102 
L 107.049086 224.258235 
L 107.487559 220.98086 
L 107.497862 221.041262 
L 107.674511 223.738247 
L 107.768505 223.134582 
L 107.807333 222.804335 
L 107.807333 222.804335 
L 108.321425 219.027791 
L 108.338187 219.133419 
L 108.491137 221.915654 
L 108.598604 221.173741 
L 108.836663 219.960266 
L 108.844066 220.041046 
L 109.102144 222.870252 
L 109.102144 222.870252 
L 109.14278 222.58956 
L 109.606971 219.205731 
L 109.64084 219.536472 
L 110.005161 231.029301 
L 110.226521 235.304256 
L 110.346167 236.086785 
L 110.388028 235.921234 
L 110.646182 234.736892 
L 110.826037 233.998833 
L 111.437488 229.909426 
L 111.47167 229.946449 
L 111.757846 228.714179 
L 111.86991 229.006146 
L 112.010305 231.437244 
L 112.126526 230.773422 
L 112.287934 230.441666 
L 112.463177 229.529619 
L 113.001922 226.662417 
L 113.021189 226.71763 
L 113.056222 226.857937 
L 113.10881 226.621172 
L 113.132015 226.518149 
L 113.228713 226.579939 
L 113.297888 226.203332 
L 113.415408 225.613108 
L 113.46852 225.865668 
L 113.495347 226.008943 
L 113.557023 225.746337 
L 113.557023 225.746337 
L 113.736122 225.115601 
L 113.763666 225.230521 
L 113.764607 225.232452 
L 113.82467 225.128805 
L 113.828986 225.129262 
L 114.052835 224.146776 
L 114.095706 224.263262 
L 114.104289 224.308065 
L 114.164881 224.0194 
L 114.291335 223.874634 
L 114.222277 224.063396 
L 114.300374 223.89582 
L 114.361502 223.756617 
L 114.612212 226.409739 
L 114.681552 227.287382 
L 114.755174 226.999257 
L 114.759834 227.005525 
L 114.787455 226.869594 
L 115.260917 224.872788 
L 115.280903 224.910487 
L 115.304221 225.023029 
L 115.359301 224.824957 
L 115.769739 223.425985 
L 115.829691 223.189407 
L 115.909613 222.910983 
L 115.972653 223.041799 
L 115.97795 223.067031 
L 116.046439 222.848869 
L 116.375511 221.921719 
L 116.089638 222.94369 
L 116.375511 221.921719 
L 116.510329 221.429661 
L 116.558334 221.631697 
L 116.636732 222.667023 
L 116.85348 225.222656 
L 117.010516 226.325352 
L 117.037947 226.225813 
L 117.361984 225.184315 
L 117.374598 225.217357 
L 117.532217 226.91753 
L 117.665133 226.4972 
L 117.753419 226.616241 
L 117.79027 226.487702 
L 118.051857 225.8243 
L 118.061736 225.836959 
L 118.084641 225.866162 
L 118.126299 225.743817 
L 118.621085 224.229583 
L 118.621352 224.229988 
L 118.773705 224.407112 
L 118.776543 224.40398 
L 118.97475 224.078505 
L 119.007195 224.278341 
L 119.145476 224.532545 
L 119.15172 224.541284 
L 119.215085 224.453679 
L 119.215085 224.453679 
L 120.178489 221.412162 
L 120.279945 221.204827 
L 120.342653 221.013576 
L 120.40446 221.17792 
L 120.492975 221.536695 
L 120.492975 221.536695 
L 120.590099 221.703727 
L 120.614848 221.630094 
L 120.928346 221.017555 
L 120.93019 221.020517 
L 120.970364 221.132494 
L 121.031646 220.973509 
L 121.068766 220.888493 
L 121.100821 221.094836 
L 121.218865 222.019442 
L 121.322181 221.785041 
L 122.162968 219.635086 
L 122.166115 219.639899 
L 122.300103 219.812649 
L 122.336747 219.716274 
L 122.571283 219.311026 
L 122.599611 219.333755 
L 122.742573 219.13993 
L 123.088448 218.567725 
L 123.153011 218.41369 
L 123.873561 216.96178 
L 123.873561 216.96178 
L 123.918547 217.209874 
L 124.501119 222.074081 
L 124.578015 221.91819 
L 124.799973 221.420524 
L 124.846133 221.534629 
L 124.882032 221.55381 
L 124.919278 221.461802 
L 125.271282 220.730784 
L 125.300613 220.814932 
L 125.523406 222.405861 
L 125.59631 222.687299 
L 125.66047 222.568096 
L 126.176033 222.294731 
L 126.192097 222.327229 
L 126.352675 222.567153 
L 126.436515 222.425932 
L 126.952417 221.44099 
L 126.966856 221.455654 
L 126.977837 221.459724 
L 127.022196 221.361317 
L 127.7786 219.950248 
L 127.781115 219.952693 
L 128.068172 219.829339 
L 128.095811 219.911738 
L 128.178942 219.876505 
L 128.190804 219.852979 
L 128.760793 218.969875 
L 129.106667 218.556596 
L 129.406425 218.29444 
L 129.794856 217.833795 
L 129.794856 217.833795 
L 129.865349 217.771561 
L 129.895262 217.865692 
L 130.319534 219.650519 
L 130.553963 221.4667 
L 130.646963 221.306888 
L 131.11274 220.639931 
L 131.147047 220.639825 
L 131.16808 220.726033 
L 131.270371 220.902402 
L 131.30643 220.863241 
L 131.644847 220.458918 
L 131.647693 220.461179 
L 131.689809 220.449556 
L 131.726092 220.38443 
L 132.491628 219.241 
L 132.588472 219.314851 
L 132.633033 219.349434 
L 132.685317 219.27056 
L 132.778205 219.315446 
L 132.786814 219.34188 
L 132.868545 219.347003 
L 132.897454 219.323753 
L 132.955915 219.375402 
L 132.966629 219.408192 
L 133.037888 219.58215 
L 133.104979 219.476963 
L 133.46268 219.094656 
L 133.464772 219.096078 
L 133.525496 219.125183 
L 133.566145 219.060754 
L 134.214046 218.235424 
L 134.216389 218.239311 
L 134.256425 218.268537 
L 134.308623 218.191214 
L 134.870827 217.462835 
L 134.900273 217.507051 
L 134.920405 217.545111 
L 134.991149 217.448638 
L 135.529557 216.872405 
L 135.535325 216.880473 
L 135.571941 216.868466 
L 135.618335 216.807041 
L 136.434599 215.912458 
L 136.522221 215.832167 
L 136.775862 215.692346 
L 136.895765 215.620041 
L 137.682923 214.824325 
L 137.693583 214.835052 
L 137.874552 214.910214 
L 137.896496 214.885491 
L 138.379422 214.484421 
L 138.389944 214.494434 
L 138.482177 214.727408 
L 138.772712 215.542018 
L 138.986823 215.646985 
L 138.994072 215.640602 
L 139.679488 215.004465 
L 139.679488 215.004465 
L 140.133152 214.66222 
L 140.354512 214.459813 
L 141.046261 213.884599 
L 141.147718 213.800283 
L 142.217624 212.881436 
L 142.827455 212.461549 
L 142.827455 212.461549 
L 142.882938 212.533977 
L 142.969325 212.456151 
L 143.363447 212.236295 
L 143.36953 212.245394 
L 143.499666 212.229381 
L 143.863987 212.04875 
L 144.020784 212.059115 
L 144.380493 211.892705 
L 144.53729 211.796351 
L 144.855495 211.556291 
L 145.528797 211.136424 
L 145.791662 211.219305 
L 146.815451 210.526691 
L 147.152103 210.51326 
L 147.405312 210.726968 
L 147.410356 210.722973 
L 147.926933 210.454577 
L 147.926933 210.454577 
L 148.083658 210.450228 
L 148.15526 210.446976 
L 148.194338 210.503568 
L 148.675484 211.222834 
L 148.701621 211.200791 
L 149.313143 210.8119 
L 149.319584 210.819652 
L 149.490215 210.852852 
L 149.619342 210.770797 
L 150.543234 210.162484 
L 150.543234 210.162484 
L 150.598301 210.193216 
L 150.661578 210.14483 
L 151.122744 209.932389 
L 152.105028 209.740464 
L 152.350865 209.837262 
L 152.350865 209.837262 
L 152.879787 209.577358 
L 153.057036 209.810078 
L 153.057036 209.810078 
L 153.219253 209.994441 
L 153.239497 209.981908 
L 153.557935 209.78434 
L 153.557935 209.78434 
L 153.94278 209.633144 
L 153.94278 209.633144 
L 154.180276 209.569914 
L 154.982705 209.110976 
L 155.202275 209.111497 
L 155.202275 209.111497 
L 156.287806 208.480025 
L 156.439991 208.384635 
L 157.76416 207.649002 
L 157.76416 207.649002 
L 157.937391 207.587931 
L 157.937391 207.587931 
L 158.727375 207.238126 
L 159.114755 207.226957 
L 160.881022 206.316675 
L 161.595829 205.981866 
L 163.025445 205.361556 
L 163.219135 205.29089 
L 169.164128 203.551302 
L 169.164128 203.551302 
L 169.407986 203.461783 
L 170.847012 202.955442 
L 170.847012 202.955442 
L 171.358719 202.784924 
L 172.708501 202.354278 
L 172.708501 202.354278 
L 173.166491 202.303047 
L 174.831301 201.764971 
L 175.075719 201.682727 
L 177.471833 200.913302 
L 177.471833 200.913302 
L 177.7966 200.837817 
L 178.917234 200.572274 
L 179.359953 200.439768 
L 180.706559 200.108692 
L 181.04321 200.33106 
L 181.504376 200.522588 
L 181.822581 200.522377 
L 182.214572 200.519103 
L 183.701648 200.083263 
L 183.701648 200.083263 
L 184.040791 200.080675 
L 184.364809 200.107798 
L 184.364809 200.107798 
L 187.933034 199.502877 
L 188.14517 199.548411 
L 188.352695 199.726662 
L 188.660947 200.48777 
L 188.660947 200.48777 
L 189.023531 202.125814 
L 189.119566 202.084545 
L 189.424149 202.042966 
L 189.424149 202.042966 
L 189.584009 202.179696 
L 189.727226 202.274518 
L 189.740806 202.266951 
L 190.19736 202.138686 
L 190.515565 202.081439 
L 190.83377 202.037739 
L 191.055129 201.959948 
L 191.308771 201.953232 
L 191.430124 201.907967 
L 191.430124 201.907967 
L 192.47091 201.504165 
L 192.715328 201.624715 
L 193.245669 201.497492 
L 193.522369 201.410675 
L 194.046008 201.298686 
L 194.046008 201.298686 
L 194.214118 201.266932 
L 195.076499 201.017105 
L 195.256354 200.980788 
L 196.108582 200.758457 
L 196.108582 200.758457 
L 196.390823 200.754273 
L 196.990339 200.644779 
L 197.280874 200.638384 
L 197.93573 200.512429 
L 198.127632 200.595555 
L 198.127632 200.595555 
L 199.454971 200.227835 
L 199.454971 200.227835 
L 199.701997 200.184014 
L 199.818108 200.261916 
L 199.818108 200.261916 
L 200.029425 200.354278 
L 201.020932 200.128572 
L 201.847476 200.002255 
L 201.847476 200.002255 
L 202.556616 199.893205 
L 203.063898 199.767867 
L 204.78866 199.366647 
L 205.014632 199.329305 
L 206.601044 199.016443 
L 206.983812 198.939463 
L 207.610998 198.897659 
L 207.777018 198.869321 
L 209.1144 198.656569 
L 210.050567 198.609064 
L 211.94596 198.278776 
L 212.47169 198.274163 
L 212.66538 198.288995 
L 214.740628 197.942296 
L 216.460778 197.686399 
L 217.821218 197.538041 
L 218.051802 197.515819 
L 219.287727 197.39754 
L 219.997923 197.303916 
L 221.528995 197.14122 
L 221.971715 197.081092 
L 222.90327 197.032466 
L 224.060798 197.192296 
L 225.416627 197.043794 
L 226.099153 197.55197 
L 226.375852 197.602781 
L 226.477309 197.793247 
L 226.638717 197.910179 
L 227.551826 197.793023 
L 229.029184 197.551805 
L 229.029184 197.551805 
L 229.673191 197.785897 
L 231.411788 197.49163 
L 232.504752 197.379595 
L 232.675383 197.45444 
L 232.85985 197.550984 
L 233.127326 197.674883 
L 233.399414 197.780451 
L 234.575388 197.625862 
L 234.981215 197.645173 
L 235.935829 197.554839 
L 236.212528 197.583402 
L 236.793598 197.578044 
L 236.973453 197.587488 
L 239.334624 197.221404 
L 239.666888 197.174025 
L 239.666888 197.174025 
L 241.490593 196.983391 
L 241.490593 196.983391 
L 241.889485 197.032437 
L 242.498224 197.049479 
L 242.705749 197.081543 
L 245.283668 196.777882 
L 245.842309 196.728622 
L 245.842309 196.728622 
L 247.884646 196.562717 
L 248.235132 196.612968 
L 249.627855 196.542421 
L 250.965237 196.414525 
L 252.69517 196.320409 
L 252.69517 196.320409 
L 253.174223 196.32829 
L 254.71913 196.260099 
L 255.853599 196.240184 
L 259.335404 196.088364 
L 263.73493 195.735633 
L 264.980079 195.711419 
L 269.64247 195.422799 
L 270.735434 195.356219 
L 273.202673 195.237294 
L 280.673566 194.85191 
L 291.091312 194.407782 
L 311.245209 193.821041 
L 311.245209 193.821041 
L 332.107438 193.385841 
L 332.107438 193.385841 
" clip-path="url(#pe425aa8cc0)" style="fill: none; stroke: #1f77b4; stroke-width: 1.5; stroke-linecap: round"/>
   </g>
   <g id="line2d_28">
    <path d="M 101.528926 240.139656 
L 101.597515 240.053671 
L 101.598101 240.051993 
L 101.70878 239.395557 
L 101.837907 236.765256 
L 101.958337 229.812472 
L 101.958337 229.812472 
L 102.074595 206.267352 
L 102.074595 206.267352 
L 102.197617 119.261616 
L 102.349802 47.593977 
L 102.374853 47.758483 
L 102.59422 52.022236 
L 104.152962 80.860736 
L 104.973379 96.733585 
L 104.973379 96.733585 
L 105.845442 117.584422 
L 106.026537 119.243133 
L 106.026537 119.243133 
L 106.066802 120.05067 
L 106.725715 132.815941 
L 106.730881 132.812534 
L 106.736215 132.809326 
L 106.746013 132.910954 
L 106.746013 132.910954 
L 106.888287 135.414656 
L 106.938406 134.627959 
L 106.955998 134.543631 
L 106.993746 135.012771 
L 107.497862 143.834437 
L 107.526828 143.535449 
L 107.67314 142.858088 
L 107.570317 143.888818 
L 107.674511 142.865598 
L 107.934525 147.339315 
L 108.338187 153.605986 
L 108.377244 153.278043 
L 108.427973 152.668944 
L 108.472537 152.141978 
L 108.534041 152.772003 
L 108.838242 157.081573 
L 108.870692 156.575493 
L 108.931973 156.322341 
L 108.995207 156.352591 
L 109.055149 156.201512 
L 109.096664 156.368851 
L 109.14278 157.010818 
L 109.629683 164.127324 
L 109.660942 163.612687 
L 110.129676 153.37365 
L 110.189628 153.19115 
L 110.272535 152.895895 
L 110.314143 153.138979 
L 110.802979 159.040542 
L 111.531622 168.719615 
L 111.674583 170.389226 
L 111.869535 171.960414 
L 111.891331 171.849767 
L 111.960506 170.960506 
L 112.004603 170.462533 
L 112.061963 171.07712 
L 112.592304 176.684252 
L 113.168762 182.445392 
L 113.27483 183.276799 
L 113.648586 186.194676 
L 113.648586 186.194676 
L 113.71755 186.759528 
L 114.087254 189.550033 
L 114.095706 189.539815 
L 114.102549 189.531694 
L 114.118764 189.658929 
L 114.369792 191.311548 
L 114.395464 191.291038 
L 114.48329 191.02362 
L 114.48329 191.02362 
L 114.679717 189.255625 
L 114.713669 189.569935 
L 115.308573 194.362638 
L 115.589885 196.603527 
L 115.981876 199.006832 
L 116.332362 201.252952 
L 116.5358 202.563011 
L 116.581392 202.347695 
L 116.655179 201.384723 
L 116.839645 200.098642 
L 116.967522 199.340868 
L 117.014888 199.467997 
L 117.250083 201.287842 
L 117.37176 201.864138 
L 117.40688 201.67316 
L 117.524658 200.693235 
L 117.582123 201.058107 
L 117.946444 203.026871 
L 118.015619 203.413086 
L 118.550572 206.497792 
L 118.76732 207.210067 
L 118.843407 207.507682 
L 118.843407 207.507682 
L 119.120691 208.159985 
L 119.120691 208.159985 
L 119.139206 208.139342 
L 119.175138 208.248038 
L 119.175138 208.248038 
L 120.141595 213.701193 
L 120.173877 213.83568 
L 120.360333 214.611995 
L 120.48747 214.424776 
L 120.50542 214.347122 
L 120.551324 214.467811 
L 120.591192 214.446788 
L 120.948825 215.845746 
L 120.962471 215.798708 
L 120.970364 215.796532 
L 121.003976 215.941347 
L 121.070891 216.236219 
L 121.119268 215.98732 
L 121.218277 215.404384 
L 121.280676 215.641957 
L 122.166436 219.509276 
L 122.166436 219.509276 
L 122.221331 219.412042 
L 122.281407 219.513206 
L 122.493543 220.237474 
L 122.84403 221.219333 
L 123.051554 221.865081 
L 123.863207 224.52947 
L 123.88757 224.541369 
L 123.910814 224.404646 
L 123.910814 224.404646 
L 124.499069 220.261557 
L 124.550345 220.423468 
L 125.034569 221.935303 
L 125.288092 222.706524 
L 125.315881 222.602472 
L 125.59159 221.193544 
L 125.657144 221.394314 
L 125.884311 221.845965 
L 125.884311 221.845965 
L 125.89208 221.835037 
L 125.929232 221.965559 
L 126.130432 222.374568 
L 126.14598 222.356018 
L 126.399621 222.529727 
L 126.973973 224.226164 
L 126.973973 224.226164 
L 127.128264 224.715756 
L 127.815402 226.598889 
L 127.8938 226.698323 
L 128.036285 226.953104 
L 128.082878 226.910068 
L 128.102871 226.882734 
L 128.1705 226.979277 
L 128.30885 227.35676 
L 128.931424 228.764134 
L 129.42026 229.496942 
L 129.849145 230.234075 
L 129.866619 230.249756 
L 129.904485 230.146699 
L 130.310311 228.710222 
L 130.553963 227.020322 
L 130.637739 227.234881 
L 131.14041 228.324883 
L 131.181915 228.210281 
L 131.270371 228.155342 
L 131.299894 228.204859 
L 131.687496 228.910836 
L 131.687496 228.910836 
L 131.822936 229.2407 
L 132.515242 230.629045 
L 132.515242 230.629045 
L 132.717599 230.700031 
L 132.776904 230.677743 
L 132.805221 230.63511 
L 132.897454 230.729086 
L 132.926758 230.747219 
L 132.975852 230.656412 
L 133.037888 230.543266 
L 133.09367 230.65915 
L 133.480631 231.231732 
L 133.480631 231.231732 
L 133.511517 231.224244 
L 133.556922 231.301295 
L 134.214046 232.402737 
L 134.216389 232.399662 
L 134.248465 232.378127 
L 134.299399 232.462875 
L 134.870827 233.372359 
L 134.903527 233.331475 
L 134.920405 233.302705 
L 134.982781 233.403352 
L 134.982781 233.403352 
L 135.529557 234.107975 
L 135.535325 234.100951 
L 135.571941 234.119582 
L 135.609111 234.1754 
L 136.319307 235.039862 
L 136.517609 235.263798 
L 136.780474 235.422791 
L 136.891154 235.497323 
L 137.679748 236.30456 
L 137.988729 236.318787 
L 138.274652 236.54445 
L 138.379422 236.622146 
L 138.431449 236.552625 
L 138.521665 236.185497 
L 138.521665 236.185497 
L 138.763488 235.580732 
L 138.986823 235.479119 
L 138.994072 235.486016 
L 139.547471 235.999466 
L 140.119317 236.492662 
L 140.23922 236.563326 
L 141.004756 237.233981 
L 141.018591 237.22074 
L 141.129271 237.26734 
L 141.991652 237.904667 
L 142.771023 238.381563 
L 142.873579 238.292141 
L 142.873579 238.292141 
L 142.973936 238.35087 
L 143.361316 238.49259 
L 143.508889 238.476768 
L 143.859376 238.582503 
L 144.030007 238.540236 
L 144.698698 238.776984 
L 145.496516 239.151638 
L 145.87006 239.025053 
L 146.746276 239.406819 
L 147.082928 239.46139 
L 147.475694 239.094825 
L 147.475694 239.094825 
L 147.928893 239.229252 
L 147.928893 239.229252 
L 148.055932 239.185572 
L 148.069823 239.193234 
L 148.188116 239.135322 
L 148.188116 239.135322 
L 148.675484 238.326001 
L 148.697009 238.341345 
L 149.313143 238.64534 
L 149.313143 238.64534 
L 149.505263 238.570374 
L 149.505263 238.570374 
L 149.75308 238.720174 
L 150.537063 239.091388 
L 150.680024 239.08969 
L 150.879083 239.076202 
L 150.879083 239.076202 
L 151.570075 239.270968 
L 151.969622 239.360584 
L 151.969622 239.360584 
L 152.473961 239.126796 
L 152.872671 239.224784 
L 152.872671 239.224784 
L 153.064254 238.937878 
L 153.260293 238.762209 
L 153.260293 238.762209 
L 153.557935 238.910805 
L 153.557935 238.910805 
L 153.931246 239.010905 
L 154.092655 238.980201 
L 154.95564 239.361079 
L 154.95564 239.361079 
L 155.202275 239.311874 
L 155.202275 239.311874 
L 156.103339 239.662981 
L 156.449214 239.799465 
L 157.620576 240.190187 
L 158.510627 240.347599 
L 158.805774 240.333764 
L 159.008687 240.266586 
L 160.415244 240.640524 
L 160.673497 240.696484 
L 162.212131 240.993075 
L 162.212131 240.993075 
L 162.518162 240.998347 
L 164.030787 241.204229 
L 165.003848 241.173717 
L 165.409674 241.133325 
L 165.820112 241.179314 
L 167.033084 241.281702 
L 167.033084 241.281702 
L 167.355796 241.302182 
L 167.577156 241.225498 
L 167.964535 241.218271 
L 168.734683 241.236038 
L 171.686147 241.363823 
L 172.751441 241.402617 
L 173.018917 241.356496 
L 173.576929 241.388196 
L 175.408192 241.527355 
L 175.408192 241.527355 
L 177.058734 241.634588 
L 178.580904 241.662898 
L 178.580904 241.662898 
L 179.000244 241.62875 
L 180.680523 241.671566 
L 180.680523 241.671566 
L 180.909472 241.494547 
L 181.536658 241.09298 
L 181.815635 241.035065 
L 181.815635 241.035065 
L 182.223796 240.974108 
L 183.533508 241.142463 
L 184.783268 240.99546 
L 185.179871 240.965784 
L 185.774776 241.066549 
L 186.302893 241.058257 
L 186.302893 241.058257 
L 186.683273 241.082842 
L 187.056818 241.042813 
L 187.375023 241.0194 
L 188.1175 241.061315 
L 188.357307 240.833343 
L 188.666288 240.031017 
L 189.023531 238.443792 
L 189.104396 238.487625 
L 189.445659 238.587077 
L 189.579656 238.473404 
L 189.579656 238.473404 
L 189.663444 238.359169 
L 189.722359 238.386644 
L 189.966777 238.486591 
L 190.331098 238.608264 
L 190.441778 238.63419 
L 190.83377 238.760868 
L 191.055129 238.862158 
L 191.308771 238.893005 
L 191.424062 238.946232 
L 192.454472 239.43281 
L 192.454472 239.43281 
L 192.807561 239.352753 
L 193.254892 239.463022 
L 193.380178 239.516009 
L 193.380178 239.516009 
L 193.854408 239.62821 
L 193.994146 239.677453 
L 193.994146 239.677453 
L 194.615477 239.840815 
L 194.615477 239.840815 
L 194.748285 239.865288 
L 194.748285 239.865288 
L 195.625287 240.118015 
L 196.012667 240.213486 
L 196.29859 240.198125 
L 196.704416 240.292331 
L 197.036456 240.293606 
L 197.211699 240.295623 
L 197.931118 240.424992 
L 198.15709 240.340624 
L 199.29617 240.604629 
L 199.780395 240.628831 
L 200.07093 240.499257 
L 200.974897 240.658621 
L 200.974897 240.658621 
L 201.809526 240.740305 
L 202.538169 240.815961 
L 202.794568 240.851795 
L 202.794568 240.851795 
L 204.309047 241.098801 
L 205.051525 241.189033 
L 206.587209 241.34474 
L 206.808568 241.351852 
L 207.60513 241.354509 
L 207.60513 241.354509 
L 207.786241 241.363279 
L 209.101959 241.438641 
L 209.101959 241.438641 
L 209.515614 241.36541 
L 211.097415 241.477984 
L 211.660037 241.498722 
L 212.462467 241.483764 
L 212.702273 241.44526 
L 214.648395 241.579349 
L 216.630389 241.668213 
L 216.630389 241.668213 
L 220.837246 241.707828 
L 222.229968 241.703613 
L 222.704969 241.71852 
L 223.050844 241.602148 
L 223.405942 241.477676 
L 224.203759 241.451225 
L 225.416627 241.496269 
L 226.080706 240.966805 
L 226.375852 240.918293 
L 226.477309 240.728411 
L 226.638717 240.615675 
L 227.491875 240.742263 
L 227.902313 240.829623 
L 229.041393 240.993834 
L 229.654744 240.769076 
L 231.098829 241.022328 
L 231.098829 241.022328 
L 231.351836 241.061739 
L 232.33412 241.143918 
L 232.726112 241.018802 
L 232.902787 240.988758 
L 232.902787 240.988758 
L 233.131938 240.86727 
L 233.394803 240.771283 
L 234.556942 240.952985 
L 234.981215 240.931404 
L 235.931217 241.031248 
L 236.207917 241.000921 
L 236.788986 241.013461 
L 236.973453 241.001632 
L 239.002584 241.314429 
L 240.704288 241.460334 
L 241.160842 241.486599 
L 241.691183 241.437904 
L 243.73415 241.480426 
L 245.873961 241.624927 
L 247.870811 241.698639 
L 248.161346 241.621983 
L 248.701696 241.655372 
L 248.701696 241.655372 
L 250.176642 241.67245 
L 250.7531 241.708752 
L 252.648493 241.743938 
L 253.331056 241.719185 
L 253.331056 241.719185 
L 254.751412 241.714587 
L 255.447773 241.676542 
L 257.481516 241.734016 
L 260.179338 241.787573 
L 263.79027 241.900338 
L 264.920127 241.877078 
L 269.319653 241.964171 
L 274.867483 242.012381 
L 275.792359 242.021596 
L 275.792359 242.021596 
L 284.653431 242.068687 
L 288.121401 242.085644 
L 307.942327 242.089286 
L 312.438698 242.098027 
L 332.107438 242.11391 
L 332.107438 242.11391 
" clip-path="url(#pe425aa8cc0)" style="fill: none; stroke: #ff7f0e; stroke-width: 1.5; stroke-linecap: round"/>
   </g>
   <g id="line2d_29">
    <path d="M 101.528926 242.116364 
L 102.091727 241.974314 
L 102.091727 241.974314 
L 102.223488 241.642527 
L 102.223488 241.642527 
L 102.693814 239.140225 
L 102.693814 239.140225 
L 104.051505 232.597948 
L 105.310489 227.546366 
L 106.426928 223.982825 
L 106.426928 223.982825 
L 107.607097 220.946351 
L 108.838411 218.341911 
L 111.347155 213.808464 
L 112.629197 212.05257 
L 113.712938 210.923038 
L 115.124107 209.792903 
L 116.253964 209.134758 
L 118.598878 208.147539 
L 118.598878 208.147539 
L 120.049362 207.855881 
L 121.778736 207.806169 
L 123.391099 207.986862 
L 123.391099 207.986862 
L 129.115452 209.133661 
L 129.115452 209.133661 
L 135.452315 211.315329 
L 140.3499 213.500754 
L 154.07882 219.560992 
L 167.056038 224.466643 
L 172.839063 226.365449 
L 179.862625 228.433165 
L 184.451229 229.585848 
L 189.547116 230.655837 
L 197.460729 231.889344 
L 213.061983 234.378117 
L 223.756428 235.812493 
L 230.028289 236.41109 
L 252.957475 238.232645 
L 268.231301 239.190141 
L 284.436683 240.002371 
L 301.453718 240.627492 
L 321.911052 241.141138 
L 332.107438 241.328951 
L 332.107438 241.328951 
" clip-path="url(#pe425aa8cc0)" style="fill: none; stroke: #2ca02c; stroke-width: 1.5; stroke-linecap: round"/>
   </g>
   <g id="line2d_30">
    <path d="M 101.528926 242.116364 
L 101.994704 241.936257 
L 102.128442 241.590836 
L 102.257568 240.422779 
L 104.855747 206.757741 
L 104.855747 206.757741 
L 106.020685 194.970224 
L 107.247387 184.634152 
L 108.695449 174.348708 
L 111.457835 157.030614 
L 112.961237 149.283428 
L 114.321677 143.539784 
L 116.147896 136.943368 
L 118.519741 129.766304 
L 118.519741 129.766304 
L 119.980187 126.141036 
L 121.566599 122.911397 
L 122.890146 120.64711 
L 125.975348 116.018585 
L 127.566372 113.816587 
L 129.088221 112.140576 
L 133.584592 107.849976 
L 135.138722 106.732513 
L 136.845037 105.772192 
L 139.838006 104.39193 
L 141.904854 103.611002 
L 141.904854 103.611002 
L 144.795543 102.807209 
L 152.515466 101.009 
L 157.780043 99.946154 
L 157.780043 99.946154 
L 162.149229 99.432476 
L 170.302648 98.854096 
L 177.303448 98.50021 
L 177.303448 98.50021 
L 183.616518 98.168874 
L 189.039833 97.662506 
L 192.78024 96.745807 
L 192.78024 96.745807 
L 196.081841 96.168191 
L 201.993993 95.443605 
L 206.513884 95.085953 
L 206.513884 95.085953 
L 217.236154 94.578339 
L 217.236154 94.578339 
L 226.574154 94.182219 
L 231.992857 93.678221 
L 246.482701 92.748026 
L 265.888576 92.210533 
L 281.102451 92.074968 
L 325.729509 91.990825 
L 332.107438 91.989279 
L 332.107438 91.989279 
" clip-path="url(#pe425aa8cc0)" style="fill: none; stroke: #d62728; stroke-width: 1.5; stroke-linecap: round"/>
   </g>
   <g id="patch_3">
    <path d="M 90 252 
L 90 34.56 
" style="fill: none; stroke: #cccccc; stroke-linejoin: miter; stroke-linecap: square"/>
   </g>
   <g id="patch_4">
    <path d="M 343.636364 252 
L 343.636364 34.56 
" style="fill: none; stroke: #cccccc; stroke-linejoin: miter; stroke-linecap: square"/>
   </g>
   <g id="patch_5">
    <path d="M 90 252 
L 343.636364 252 
" style="fill: none; stroke: #cccccc; stroke-linejoin: miter; stroke-linecap: square"/>
   </g>
   <g id="patch_6">
    <path d="M 90 34.56 
L 343.636364 34.56 
" style="fill: none; stroke: #cccccc; stroke-linejoin: miter; stroke-linecap: square"/>
   </g>
   <g id="text_14">
    <!-- $k=1$ -->
    <g style="fill: #262626" transform="translate(192.318182 28.56)scale(0.2 -0.2)">
     <defs>
      <path id="DejaVuSans-Oblique-6b" d="M 1172 4863 
L 1747 4863 
L 1197 2028 
L 3169 3500 
L 3916 3500 
L 1716 1825 
L 3322 0 
L 2625 0 
L 1131 1709 
L 800 0 
L 225 0 
L 1172 4863 
z
" transform="scale(0.015625)"/>
      <path id="DejaVuSans-3d" d="M 678 2906 
L 4684 2906 
L 4684 2381 
L 678 2381 
L 678 2906 
z
M 678 1631 
L 4684 1631 
L 4684 1100 
L 678 1100 
L 678 1631 
z
" transform="scale(0.015625)"/>
      <path id="DejaVuSans-31" d="M 794 531 
L 1825 531 
L 1825 4091 
L 703 3866 
L 703 4441 
L 1819 4666 
L 2450 4666 
L 2450 531 
L 3481 531 
L 3481 0 
L 794 0 
L 794 531 
z
" transform="scale(0.015625)"/>
     </defs>
     <use xlink:href="#DejaVuSans-Oblique-6b" transform="translate(0 0.015625)"/>
     <use xlink:href="#DejaVuSans-3d" transform="translate(77.392578 0.015625)"/>
     <use xlink:href="#DejaVuSans-31" transform="translate(180.664062 0.015625)"/>
    </g>
   </g>
   <g id="legend_1">
    <g id="patch_7">
     <path d="M 296.306676 173.070625 
L 336.636364 173.070625 
Q 338.636364 173.070625 338.636364 171.070625 
L 338.636364 115.489375 
Q 338.636364 113.489375 336.636364 113.489375 
L 296.306676 113.489375 
Q 294.306676 113.489375 294.306676 115.489375 
L 294.306676 171.070625 
Q 294.306676 173.070625 296.306676 173.070625 
z
" style="fill: #ffffff; opacity: 0.8; stroke: #cccccc; stroke-linejoin: miter"/>
    </g>
    <g id="line2d_31">
     <path d="M 298.306676 121.147188 
L 308.306676 121.147188 
L 318.306676 121.147188 
" style="fill: none; stroke: #1f77b4; stroke-width: 1.5; stroke-linecap: round"/>
    </g>
    <g id="text_15">
     <!-- S -->
     <g style="fill: #262626" transform="translate(326.306676 124.647188)scale(0.1 -0.1)">
      <defs>
       <path id="ArialMT-53" d="M 288 1472 
L 859 1522 
Q 900 1178 1048 958 
Q 1197 738 1509 602 
Q 1822 466 2213 466 
Q 2559 466 2825 569 
Q 3091 672 3220 851 
Q 3350 1031 3350 1244 
Q 3350 1459 3225 1620 
Q 3100 1781 2813 1891 
Q 2628 1963 1997 2114 
Q 1366 2266 1113 2400 
Q 784 2572 623 2826 
Q 463 3081 463 3397 
Q 463 3744 659 4045 
Q 856 4347 1234 4503 
Q 1613 4659 2075 4659 
Q 2584 4659 2973 4495 
Q 3363 4331 3572 4012 
Q 3781 3694 3797 3291 
L 3216 3247 
Q 3169 3681 2898 3903 
Q 2628 4125 2100 4125 
Q 1550 4125 1298 3923 
Q 1047 3722 1047 3438 
Q 1047 3191 1225 3031 
Q 1400 2872 2139 2705 
Q 2878 2538 3153 2413 
Q 3553 2228 3743 1945 
Q 3934 1663 3934 1294 
Q 3934 928 3725 604 
Q 3516 281 3123 101 
Q 2731 -78 2241 -78 
Q 1619 -78 1198 103 
Q 778 284 539 648 
Q 300 1013 288 1472 
z
" transform="scale(0.015625)"/>
      </defs>
      <use xlink:href="#ArialMT-53"/>
     </g>
    </g>
    <g id="line2d_32">
     <path d="M 298.306676 135.2925 
L 308.306676 135.2925 
L 318.306676 135.2925 
" style="fill: none; stroke: #ff7f0e; stroke-width: 1.5; stroke-linecap: round"/>
    </g>
    <g id="text_16">
     <!-- I -->
     <g style="fill: #262626" transform="translate(326.306676 138.7925)scale(0.1 -0.1)">
      <defs>
       <path id="ArialMT-49" d="M 597 0 
L 597 4581 
L 1203 4581 
L 1203 0 
L 597 0 
z
" transform="scale(0.015625)"/>
      </defs>
      <use xlink:href="#ArialMT-49"/>
     </g>
    </g>
    <g id="line2d_33">
     <path d="M 298.306676 149.437813 
L 308.306676 149.437813 
L 318.306676 149.437813 
" style="fill: none; stroke: #2ca02c; stroke-width: 1.5; stroke-linecap: round"/>
    </g>
    <g id="text_17">
     <!-- M -->
     <g style="fill: #262626" transform="translate(326.306676 152.937813)scale(0.1 -0.1)">
      <defs>
       <path id="ArialMT-4d" d="M 475 0 
L 475 4581 
L 1388 4581 
L 2472 1338 
Q 2622 884 2691 659 
Q 2769 909 2934 1394 
L 4031 4581 
L 4847 4581 
L 4847 0 
L 4263 0 
L 4263 3834 
L 2931 0 
L 2384 0 
L 1059 3900 
L 1059 0 
L 475 0 
z
" transform="scale(0.015625)"/>
      </defs>
      <use xlink:href="#ArialMT-4d"/>
     </g>
    </g>
    <g id="line2d_34">
     <path d="M 298.306676 163.583125 
L 308.306676 163.583125 
L 318.306676 163.583125 
" style="fill: none; stroke: #d62728; stroke-width: 1.5; stroke-linecap: round"/>
    </g>
    <g id="text_18">
     <!-- D -->
     <g style="fill: #262626" transform="translate(326.306676 167.083125)scale(0.1 -0.1)">
      <defs>
       <path id="ArialMT-44" d="M 494 0 
L 494 4581 
L 2072 4581 
Q 2606 4581 2888 4516 
Q 3281 4425 3559 4188 
Q 3922 3881 4101 3404 
Q 4281 2928 4281 2316 
Q 4281 1794 4159 1391 
Q 4038 988 3847 723 
Q 3656 459 3429 307 
Q 3203 156 2883 78 
Q 2563 0 2147 0 
L 494 0 
z
M 1100 541 
L 2078 541 
Q 2531 541 2789 625 
Q 3047 709 3200 863 
Q 3416 1078 3536 1442 
Q 3656 1806 3656 2325 
Q 3656 3044 3420 3430 
Q 3184 3816 2847 3947 
Q 2603 4041 2063 4041 
L 1100 4041 
L 1100 541 
z
" transform="scale(0.015625)"/>
      </defs>
      <use xlink:href="#ArialMT-44"/>
     </g>
    </g>
   </g>
  </g>
  <g id="axes_2">
   <g id="patch_8">
    <path d="M 394.363636 252 
L 648 252 
L 648 34.56 
L 394.363636 34.56 
z
" style="fill: #ffffff"/>
   </g>
   <g id="matplotlib.axis_3">
    <g id="xtick_5">
     <g id="line2d_35">
      <path d="M 405.892562 252 
L 405.892562 34.56 
" clip-path="url(#p32057a3276)" style="fill: none; stroke: #cccccc; stroke-width: 0.8; stroke-linecap: round"/>
     </g>
     <g id="line2d_36"/>
     <g id="text_19">
      <!-- 0 -->
      <g style="fill: #262626" transform="translate(403.112093 262.657812)scale(0.1 -0.1)">
       <use xlink:href="#ArialMT-30"/>
      </g>
     </g>
    </g>
    <g id="xtick_6">
     <g id="line2d_37">
      <path d="M 469.064757 252 
L 469.064757 34.56 
" clip-path="url(#p32057a3276)" style="fill: none; stroke: #cccccc; stroke-width: 0.8; stroke-linecap: round"/>
     </g>
     <g id="line2d_38"/>
     <g id="text_20">
      <!-- 100 -->
      <g style="fill: #262626" transform="translate(460.723351 262.657812)scale(0.1 -0.1)">
       <use xlink:href="#ArialMT-31"/>
       <use xlink:href="#ArialMT-30" x="55.615234"/>
       <use xlink:href="#ArialMT-30" x="111.230469"/>
      </g>
     </g>
    </g>
    <g id="xtick_7">
     <g id="line2d_39">
      <path d="M 532.236952 252 
L 532.236952 34.56 
" clip-path="url(#p32057a3276)" style="fill: none; stroke: #cccccc; stroke-width: 0.8; stroke-linecap: round"/>
     </g>
     <g id="line2d_40"/>
     <g id="text_21">
      <!-- 200 -->
      <g style="fill: #262626" transform="translate(523.895546 262.657812)scale(0.1 -0.1)">
       <use xlink:href="#ArialMT-32"/>
       <use xlink:href="#ArialMT-30" x="55.615234"/>
       <use xlink:href="#ArialMT-30" x="111.230469"/>
      </g>
     </g>
    </g>
    <g id="xtick_8">
     <g id="line2d_41">
      <path d="M 595.409148 252 
L 595.409148 34.56 
" clip-path="url(#p32057a3276)" style="fill: none; stroke: #cccccc; stroke-width: 0.8; stroke-linecap: round"/>
     </g>
     <g id="line2d_42"/>
     <g id="text_22">
      <!-- 300 -->
      <g style="fill: #262626" transform="translate(587.067741 262.657812)scale(0.1 -0.1)">
       <use xlink:href="#ArialMT-33"/>
       <use xlink:href="#ArialMT-30" x="55.615234"/>
       <use xlink:href="#ArialMT-30" x="111.230469"/>
      </g>
     </g>
    </g>
   </g>
   <g id="matplotlib.axis_4">
    <g id="ytick_10">
     <g id="line2d_43">
      <path d="M 394.363636 242.116364 
L 648 242.116364 
" clip-path="url(#p32057a3276)" style="fill: none; stroke: #cccccc; stroke-width: 0.8; stroke-linecap: round"/>
     </g>
     <g id="line2d_44"/>
     <g id="text_23">
      <!-- 0 -->
      <g style="fill: #262626" transform="translate(385.302699 245.69527)scale(0.1 -0.1)">
       <use xlink:href="#ArialMT-30"/>
      </g>
     </g>
    </g>
    <g id="ytick_11">
     <g id="line2d_45">
      <path d="M 394.363636 217.407649 
L 648 217.407649 
" clip-path="url(#p32057a3276)" style="fill: none; stroke: #cccccc; stroke-width: 0.8; stroke-linecap: round"/>
     </g>
     <g id="line2d_46"/>
     <g id="text_24">
      <!-- 25 -->
      <g style="fill: #262626" transform="translate(379.741761 220.986555)scale(0.1 -0.1)">
       <use xlink:href="#ArialMT-32"/>
       <use xlink:href="#ArialMT-35" x="55.615234"/>
      </g>
     </g>
    </g>
    <g id="ytick_12">
     <g id="line2d_47">
      <path d="M 394.363636 192.698934 
L 648 192.698934 
" clip-path="url(#p32057a3276)" style="fill: none; stroke: #cccccc; stroke-width: 0.8; stroke-linecap: round"/>
     </g>
     <g id="line2d_48"/>
     <g id="text_25">
      <!-- 50 -->
      <g style="fill: #262626" transform="translate(379.741761 196.277841)scale(0.1 -0.1)">
       <use xlink:href="#ArialMT-35"/>
       <use xlink:href="#ArialMT-30" x="55.615234"/>
      </g>
     </g>
    </g>
    <g id="ytick_13">
     <g id="line2d_49">
      <path d="M 394.363636 167.99022 
L 648 167.99022 
" clip-path="url(#p32057a3276)" style="fill: none; stroke: #cccccc; stroke-width: 0.8; stroke-linecap: round"/>
     </g>
     <g id="line2d_50"/>
     <g id="text_26">
      <!-- 75 -->
      <g style="fill: #262626" transform="translate(379.741761 171.569126)scale(0.1 -0.1)">
       <use xlink:href="#ArialMT-37"/>
       <use xlink:href="#ArialMT-35" x="55.615234"/>
      </g>
     </g>
    </g>
    <g id="ytick_14">
     <g id="line2d_51">
      <path d="M 394.363636 143.281505 
L 648 143.281505 
" clip-path="url(#p32057a3276)" style="fill: none; stroke: #cccccc; stroke-width: 0.8; stroke-linecap: round"/>
     </g>
     <g id="line2d_52"/>
     <g id="text_27">
      <!-- 100 -->
      <g style="fill: #262626" transform="translate(374.180824 146.860411)scale(0.1 -0.1)">
       <use xlink:href="#ArialMT-31"/>
       <use xlink:href="#ArialMT-30" x="55.615234"/>
       <use xlink:href="#ArialMT-30" x="111.230469"/>
      </g>
     </g>
    </g>
    <g id="ytick_15">
     <g id="line2d_53">
      <path d="M 394.363636 118.57279 
L 648 118.57279 
" clip-path="url(#p32057a3276)" style="fill: none; stroke: #cccccc; stroke-width: 0.8; stroke-linecap: round"/>
     </g>
     <g id="line2d_54"/>
     <g id="text_28">
      <!-- 125 -->
      <g style="fill: #262626" transform="translate(374.180824 122.151696)scale(0.1 -0.1)">
       <use xlink:href="#ArialMT-31"/>
       <use xlink:href="#ArialMT-32" x="55.615234"/>
       <use xlink:href="#ArialMT-35" x="111.230469"/>
      </g>
     </g>
    </g>
    <g id="ytick_16">
     <g id="line2d_55">
      <path d="M 394.363636 93.864076 
L 648 93.864076 
" clip-path="url(#p32057a3276)" style="fill: none; stroke: #cccccc; stroke-width: 0.8; stroke-linecap: round"/>
     </g>
     <g id="line2d_56"/>
     <g id="text_29">
      <!-- 150 -->
      <g style="fill: #262626" transform="translate(374.180824 97.442982)scale(0.1 -0.1)">
       <use xlink:href="#ArialMT-31"/>
       <use xlink:href="#ArialMT-35" x="55.615234"/>
       <use xlink:href="#ArialMT-30" x="111.230469"/>
      </g>
     </g>
    </g>
    <g id="ytick_17">
     <g id="line2d_57">
      <path d="M 394.363636 69.155361 
L 648 69.155361 
" clip-path="url(#p32057a3276)" style="fill: none; stroke: #cccccc; stroke-width: 0.8; stroke-linecap: round"/>
     </g>
     <g id="line2d_58"/>
     <g id="text_30">
      <!-- 175 -->
      <g style="fill: #262626" transform="translate(374.180824 72.734267)scale(0.1 -0.1)">
       <use xlink:href="#ArialMT-31"/>
       <use xlink:href="#ArialMT-37" x="55.615234"/>
       <use xlink:href="#ArialMT-35" x="111.230469"/>
      </g>
     </g>
    </g>
    <g id="ytick_18">
     <g id="line2d_59">
      <path d="M 394.363636 44.446646 
L 648 44.446646 
" clip-path="url(#p32057a3276)" style="fill: none; stroke: #cccccc; stroke-width: 0.8; stroke-linecap: round"/>
     </g>
     <g id="line2d_60"/>
     <g id="text_31">
      <!-- 200 -->
      <g style="fill: #262626" transform="translate(374.180824 48.025552)scale(0.1 -0.1)">
       <use xlink:href="#ArialMT-32"/>
       <use xlink:href="#ArialMT-30" x="55.615234"/>
       <use xlink:href="#ArialMT-30" x="111.230469"/>
      </g>
     </g>
    </g>
   </g>
   <g id="line2d_61">
    <path d="M 405.892562 44.446646 
L 406.040135 44.533596 
L 406.218512 44.596202 
L 406.218512 44.596202 
L 406.565865 44.836539 
L 406.77339 45.332575 
L 407.128488 45.619034 
L 407.276061 45.705297 
L 407.368821 45.877291 
L 407.368821 45.877291 
L 408.027762 48.726475 
L 408.318296 51.014437 
L 408.840332 52.795157 
L 408.952418 52.753708 
L 409.068553 52.787538 
L 408.978217 52.821336 
L 409.074609 52.798654 
L 409.229323 53.099077 
L 409.259076 53.076224 
L 409.263749 53.072645 
L 409.286746 53.191851 
L 409.714714 56.910675 
L 409.821698 56.822385 
L 409.877226 56.765235 
L 409.929097 56.862132 
L 410.005594 56.894379 
L 410.045734 56.853479 
L 410.04897 56.850194 
L 410.067847 56.988148 
L 410.067847 56.988148 
L 410.309912 58.585474 
L 410.319758 58.574306 
L 410.324124 58.56947 
L 410.35204 58.674903 
L 410.449285 60.535247 
L 410.449285 60.535247 
L 410.615147 62.083837 
L 410.643069 62.044981 
L 410.838354 62.889215 
L 410.838354 62.889215 
L 411.064135 64.230283 
L 411.066847 64.226171 
L 411.091021 64.191775 
L 411.109396 64.316156 
L 411.109396 64.316156 
L 411.343997 67.13411 
L 411.353662 67.130142 
L 411.358586 67.121685 
L 411.371217 67.268346 
L 411.579408 69.087374 
L 411.579408 69.087374 
L 412.24478 74.835156 
L 412.330443 74.81656 
L 412.378834 74.747977 
L 412.413544 74.897959 
L 412.414294 74.896328 
L 412.750282 76.005534 
L 412.782386 75.935097 
L 412.784326 75.930853 
L 412.828502 76.073761 
L 413.163778 77.341615 
L 413.220494 77.215851 
L 413.363156 76.905045 
L 413.414183 77.045061 
L 413.737804 78.776153 
L 413.737804 78.776153 
L 413.978884 81.823714 
L 413.978884 81.823714 
L 414.073651 82.734409 
L 414.20677 84.007752 
L 414.248894 83.93221 
L 414.48287 84.868985 
L 414.544041 84.777913 
L 414.548757 84.765856 
L 414.573439 84.990705 
L 414.573439 84.990705 
L 414.807269 89.04001 
L 414.807269 89.04001 
L 414.954068 90.334435 
L 414.960245 90.316383 
L 414.974939 90.273514 
L 414.996378 90.510439 
L 414.996378 90.510439 
L 415.268072 95.256534 
L 415.42625 96.679758 
L 415.42625 96.679758 
L 415.602667 99.426286 
L 415.602667 99.426286 
L 415.606255 99.413726 
L 415.633581 99.701711 
L 415.633581 99.701711 
L 415.690114 100.540825 
L 415.766131 100.318598 
L 416.241928 103.450087 
L 416.365647 103.22347 
L 416.385534 103.15254 
L 416.402541 103.469791 
L 416.639734 105.914376 
L 416.667444 105.878187 
L 416.687937 105.80255 
L 416.713925 106.110447 
L 416.713925 106.110447 
L 416.71852 106.138222 
L 416.803755 105.973314 
L 416.827861 105.885281 
L 416.850241 106.200439 
L 416.850241 106.200439 
L 417.029727 107.926356 
L 417.189218 108.890439 
L 417.196507 108.86293 
L 417.203382 108.837018 
L 417.214193 109.117299 
L 417.434856 113.317477 
L 417.440165 113.295919 
L 417.56623 113.020517 
L 417.465035 113.427798 
L 417.578515 113.123227 
L 417.612695 113.465569 
L 417.693806 113.214722 
L 417.902732 114.430778 
L 417.706316 113.205833 
L 417.975118 114.303361 
L 418.059933 114.137823 
L 418.085837 114.310328 
L 418.150087 114.4165 
L 418.123015 114.28631 
L 418.196477 114.330027 
L 418.318815 114.08362 
L 418.348662 114.173407 
L 418.929732 118.197222 
L 419.155277 121.706831 
L 419.169538 121.647533 
L 419.190946 121.558792 
L 419.240002 121.794998 
L 419.240002 121.794998 
L 419.393353 122.573491 
L 419.39551 122.564549 
L 419.430099 122.421556 
L 419.446238 122.729613 
L 419.598423 125.18894 
L 419.667598 126.308103 
L 419.811385 128.409801 
L 419.812936 128.402853 
L 419.858589 128.294493 
L 419.879734 128.564838 
L 420.051778 131.332209 
L 420.059589 131.296064 
L 420.151028 130.87656 
L 420.189332 131.183941 
L 420.19984 131.250996 
L 420.262502 130.966614 
L 420.274969 130.910403 
L 420.294784 131.204699 
L 420.365035 131.770593 
L 420.419299 131.673115 
L 420.561106 131.090957 
L 420.603765 131.350979 
L 420.759737 132.79382 
L 420.86663 132.320356 
L 420.902623 132.162898 
L 420.928694 132.472324 
L 420.928694 132.472324 
L 421.057523 136.249192 
L 421.111048 136.040403 
L 421.194456 136.409631 
L 421.149642 135.990306 
L 421.244786 136.178976 
L 421.305537 135.903235 
L 421.332408 136.22209 
L 421.37539 136.528736 
L 421.448503 136.427195 
L 421.593037 136.067806 
L 421.604496 136.226295 
L 421.770516 137.117816 
L 421.793574 137.801544 
L 421.931924 139.108263 
L 422.484459 143.041572 
L 422.484459 143.041572 
L 422.605227 143.410714 
L 422.738903 144.007999 
L 422.748188 143.965049 
L 422.949703 143.415662 
L 422.955959 143.507358 
L 422.965006 143.610885 
L 423.05717 143.269238 
L 423.073774 143.195601 
L 423.128638 143.457457 
L 423.128638 143.457457 
L 423.254556 143.768242 
L 423.226798 143.374062 
L 423.258204 143.752164 
L 423.282538 143.687022 
L 423.309868 143.990568 
L 423.318254 143.986456 
L 423.418591 144.034772 
L 423.372161 143.796044 
L 423.426447 144.000476 
L 423.49003 143.922788 
L 423.510646 144.125778 
L 423.510646 144.125778 
L 423.533465 144.334326 
L 423.595822 144.064479 
L 423.610569 144.09158 
L 423.664385 143.881032 
L 423.727832 144.028884 
L 423.947541 146.858094 
L 424.013917 146.616856 
L 424.046069 146.503664 
L 424.080959 146.79994 
L 424.093068 146.969682 
L 424.155217 146.69976 
L 424.19625 146.932432 
L 424.323161 146.769117 
L 424.226125 146.953255 
L 424.333729 146.823301 
L 424.461549 147.081462 
L 424.382182 146.740093 
L 424.461549 147.081462 
L 424.511192 147.571119 
L 424.475949 147.04106 
L 424.620523 147.320379 
L 424.703154 147.026746 
L 424.740427 147.283315 
L 424.843323 147.544195 
L 424.812869 147.122568 
L 424.86033 147.473819 
L 425.004701 147.293095 
L 424.921597 147.542364 
L 425.007903 147.308543 
L 425.031271 147.439482 
L 425.106757 147.248756 
L 425.107396 147.251804 
L 425.250361 146.894523 
L 425.132465 147.314784 
L 425.266545 147.065395 
L 425.303779 147.998499 
L 425.404506 147.899569 
L 425.436622 147.799402 
L 425.464458 148.098584 
L 425.532807 149.361168 
L 425.598196 149.137533 
L 425.60221 149.121385 
L 425.635307 149.445526 
L 425.635307 149.445526 
L 425.725606 149.822957 
L 425.663222 149.366553 
L 425.79881 149.682659 
L 425.938954 149.237471 
L 425.806312 149.696794 
L 425.967129 149.451925 
L 426.099351 149.904747 
L 426.099351 149.904747 
L 426.233752 149.74711 
L 426.153301 149.997924 
L 426.234605 149.756804 
L 426.361072 150.294405 
L 426.377567 150.230629 
L 426.470633 149.943587 
L 426.501682 150.194287 
L 426.63527 151.475708 
L 426.704995 151.357998 
L 426.707261 151.349266 
L 426.742876 151.56149 
L 426.771238 151.542109 
L 426.79107 151.674737 
L 426.871015 151.467874 
L 426.948227 151.347902 
L 426.992937 151.426944 
L 427.1242 152.339037 
L 427.226113 151.954477 
L 427.236316 151.916332 
L 427.287964 152.108871 
L 427.287964 152.108871 
L 427.313136 152.507494 
L 427.401356 152.178034 
L 427.476511 152.285393 
L 427.599657 151.869413 
L 427.713776 151.541429 
L 427.79079 151.57343 
L 427.840688 151.9229 
L 427.922474 151.805202 
L 428.130093 151.210724 
L 428.157668 151.317136 
L 428.484746 153.901782 
L 428.498931 153.851533 
L 428.58869 153.701887 
L 428.616268 153.842495 
L 428.750475 154.607746 
L 428.877088 154.401123 
L 428.889093 154.359394 
L 428.960098 154.49682 
L 429.02233 154.547961 
L 429.061554 154.433496 
L 429.319392 153.816965 
L 429.333852 153.86618 
L 429.476019 154.633494 
L 429.621874 154.469543 
L 429.658177 154.350516 
L 429.692638 154.524001 
L 429.74408 154.436646 
L 429.838561 154.668286 
L 429.868595 154.58365 
L 429.894816 154.498982 
L 429.946993 154.685229 
L 429.951455 154.700173 
L 429.994365 154.562265 
L 430.030003 154.598817 
L 430.105183 154.57153 
L 430.050219 154.637738 
L 430.120133 154.657984 
L 430.18246 154.714921 
L 430.158481 154.592982 
L 430.228305 154.639221 
L 430.232596 154.6257 
L 430.285652 154.762072 
L 430.315926 154.712636 
L 430.333626 154.769841 
L 430.389713 154.594631 
L 430.490308 154.411875 
L 430.41845 154.631156 
L 430.523451 154.538029 
L 430.534287 154.611361 
L 430.620331 154.388413 
L 430.624908 154.402661 
L 430.700025 154.964018 
L 430.700025 154.964018 
L 430.715689 155.183127 
L 430.813986 155.060864 
L 430.855171 155.202625 
L 430.909407 155.037739 
L 430.924666 155.069908 
L 431.141169 154.758084 
L 430.942582 155.144356 
L 431.141414 154.758814 
L 431.440305 155.692049 
L 431.202171 154.658318 
L 431.507959 155.504084 
L 431.585783 155.361333 
L 431.597969 155.53648 
L 431.690565 155.82665 
L 431.727095 155.816495 
L 431.746307 155.925486 
L 431.828719 155.760512 
L 431.828719 155.760512 
L 431.962781 155.636547 
L 431.883126 155.828225 
L 431.96954 155.685868 
L 432.141323 156.338141 
L 432.153954 156.301931 
L 432.283609 156.258151 
L 432.243488 156.36877 
L 432.285106 156.262313 
L 432.288978 156.268953 
L 432.334759 156.139728 
L 432.381951 156.203965 
L 432.665543 155.644323 
L 432.672486 155.692453 
L 432.719712 156.09847 
L 432.797001 155.888575 
L 432.930079 155.651328 
L 432.963021 155.726979 
L 433.140844 156.447927 
L 433.161322 156.399433 
L 433.512624 155.77247 
L 433.180495 156.409908 
L 433.512624 155.77247 
L 433.753402 156.50962 
L 433.556515 155.7388 
L 433.866907 156.362417 
L 434.016315 156.091634 
L 434.051373 156.174516 
L 434.130802 156.346532 
L 434.17297 156.316695 
L 434.258898 156.782222 
L 434.336474 156.947482 
L 434.374189 156.8531 
L 434.383487 156.829917 
L 434.421284 157.00202 
L 434.421284 157.00202 
L 434.503564 157.343372 
L 434.540209 157.251488 
L 434.563498 157.21486 
L 434.585729 157.35673 
L 434.623219 157.339287 
L 434.742091 157.492505 
L 434.752346 157.467031 
L 434.894815 157.356479 
L 434.833912 157.50631 
L 434.9012 157.373924 
L 434.974182 157.724225 
L 435.038269 157.698686 
L 435.1675 157.86596 
L 435.210868 157.814732 
L 435.585186 157.133217 
L 435.597262 157.16042 
L 435.730169 157.438096 
L 435.730169 157.438096 
L 435.736102 157.424336 
L 435.768049 157.595733 
L 435.768049 157.595733 
L 435.946028 158.627394 
L 435.946028 158.627394 
L 436.24661 158.144663 
L 436.255748 158.163312 
L 436.452647 158.808809 
L 436.452647 158.808809 
L 436.65974 160.840949 
L 436.689244 160.768448 
L 436.970402 160.360241 
L 436.970555 160.360561 
L 437.081916 160.437173 
L 437.108905 160.394659 
L 437.311559 160.046106 
L 437.331258 160.140399 
L 437.359008 160.167252 
L 437.418212 160.076609 
L 437.418212 160.076609 
L 437.427713 160.054975 
L 437.4796 160.211092 
L 437.483445 160.202324 
L 437.580331 160.287788 
L 437.611577 160.216954 
L 437.700062 160.120998 
L 437.722256 160.206021 
L 437.737599 160.257864 
L 437.823713 160.155553 
L 437.902226 160.079636 
L 437.916466 160.205682 
L 437.916466 160.205682 
L 437.978522 160.381446 
L 438.035849 160.315119 
L 438.232382 160.041367 
L 438.247986 160.111996 
L 438.277266 160.075117 
L 438.460122 161.110298 
L 438.569054 161.333097 
L 438.631491 161.204928 
L 438.669867 161.180974 
L 438.699929 161.290196 
L 438.751307 161.41597 
L 438.824444 161.36285 
L 438.898535 161.361008 
L 438.864509 161.329444 
L 438.921289 161.311572 
L 439.154654 161.036755 
L 439.158739 161.043889 
L 439.254807 161.166564 
L 439.208332 161.031513 
L 439.280998 161.111357 
L 439.299388 161.07272 
L 439.348691 161.194847 
L 439.387067 161.143408 
L 439.52066 161.317481 
L 439.403511 161.127032 
L 439.525416 161.307543 
L 439.626882 161.247884 
L 439.643698 161.312544 
L 439.993338 161.759058 
L 440.009641 161.725404 
L 440.03863 161.665762 
L 440.100221 161.773119 
L 440.115709 161.747875 
L 440.180066 161.764902 
L 440.212554 161.703265 
L 440.26452 161.597945 
L 440.349779 161.67461 
L 440.35882 161.695635 
L 440.425051 161.562773 
L 440.443137 161.583005 
L 440.580331 161.608852 
L 440.501533 161.490299 
L 440.581487 161.606562 
L 440.678704 161.483112 
L 440.605365 161.627578 
L 440.711798 161.594068 
L 440.72695 161.617585 
L 440.7844 161.505153 
L 440.840119 161.399322 
L 440.86741 161.580374 
L 440.901296 161.775334 
L 440.982702 161.660186 
L 441.14411 162.094986 
L 441.245174 162.213245 
L 441.268625 162.21029 
L 441.272348 162.21598 
L 441.310344 162.141986 
L 441.351635 162.142444 
L 441.712991 161.64351 
L 441.718929 161.668332 
L 441.840431 161.747583 
L 441.847151 161.73712 
L 441.964543 161.607585 
L 441.988044 161.70739 
L 442.005492 161.737658 
L 442.052805 161.651262 
L 442.075666 161.653633 
L 442.086225 161.634453 
L 442.132985 161.772555 
L 442.132985 161.772555 
L 442.154313 161.782111 
L 442.201991 161.695603 
L 442.227851 161.726854 
L 442.469011 161.366182 
L 442.486104 161.48314 
L 442.526505 161.692076 
L 442.601395 161.584145 
L 442.615373 161.55958 
L 442.665793 161.68744 
L 442.69843 161.630076 
L 442.702855 161.635795 
L 442.731985 161.584814 
L 442.776639 161.554928 
L 442.874577 161.572871 
L 442.817084 161.653021 
L 442.882707 161.583171 
L 443.008806 161.605732 
L 443.021057 161.584654 
L 443.296827 161.290625 
L 443.310722 161.305269 
L 443.437567 161.42056 
L 443.324528 161.291592 
L 443.482223 161.346329 
L 443.610623 161.241409 
L 443.631271 161.298236 
L 443.757592 161.360455 
L 443.684131 161.26328 
L 443.758923 161.35828 
L 443.95335 161.193721 
L 443.772613 161.36862 
L 443.971059 161.213464 
L 444.137079 161.555911 
L 444.240126 161.663329 
L 444.261594 161.637165 
L 444.311276 161.557153 
L 444.395332 161.624894 
L 444.459387 161.644828 
L 444.5014 161.581194 
L 444.604605 161.424683 
L 444.672032 161.516429 
L 444.678873 161.529832 
L 444.755989 161.409179 
L 444.758072 161.41366 
L 444.827981 161.30535 
L 444.851887 161.436239 
L 444.894129 161.633231 
L 444.97179 161.512355 
L 445.242523 161.266368 
L 445.24849 161.280345 
L 445.343919 161.364773 
L 445.373004 161.321004 
L 445.420301 161.25132 
L 445.449415 161.40345 
L 445.449415 161.40345 
L 445.664708 161.770422 
L 445.664708 161.770422 
L 445.790765 161.872884 
L 445.801889 161.85697 
L 445.837131 161.894839 
L 445.898734 161.80205 
L 446.040156 161.668691 
L 446.064754 161.741738 
L 446.138151 161.767621 
L 446.112247 161.692137 
L 446.170822 161.719251 
L 446.322573 161.631119 
L 446.193585 161.748847 
L 446.331027 161.677246 
L 446.40647 161.68764 
L 446.390046 161.657872 
L 446.433687 161.648506 
L 446.627377 161.563038 
L 446.82735 161.46478 
L 446.828079 161.465425 
L 446.967945 161.651533 
L 446.991698 161.617914 
L 447.140643 161.581841 
L 447.148495 161.588701 
L 447.172625 161.574922 
L 447.226893 161.510376 
L 447.246564 161.483089 
L 447.291456 161.602493 
L 447.332483 161.747782 
L 447.406748 161.644135 
L 447.449776 161.613435 
L 447.503593 161.697587 
L 447.637331 161.811969 
L 447.76647 161.881407 
L 447.771879 161.873911 
L 448.155705 161.521087 
L 448.158449 161.523267 
L 448.309038 161.503967 
L 448.309038 161.503967 
L 448.67104 161.208656 
L 448.67104 161.208656 
L 448.700466 161.247855 
L 448.767188 161.162877 
L 448.916144 161.10728 
L 448.923985 161.128193 
L 448.938474 161.159517 
L 449.01893 161.069504 
L 449.02083 161.070824 
L 449.113063 161.000556 
L 449.211365 160.965751 
L 449.237578 161.022753 
L 449.304532 161.127444 
L 449.366704 161.056433 
L 449.51513 161.037538 
L 449.51513 161.037538 
L 449.543711 161.053969 
L 449.601204 160.984047 
L 449.611122 160.985346 
L 449.706585 160.916867 
L 449.706585 160.916867 
L 449.99967 160.694912 
L 450.005805 160.72474 
L 450.138562 161.059105 
L 450.150687 161.049709 
L 450.410367 160.897849 
L 450.413822 160.901268 
L 450.442481 160.934848 
L 450.515008 160.866863 
L 450.708698 160.810383 
L 451.332903 161.048701 
L 451.332903 161.048701 
L 451.385458 161.052567 
L 451.406042 161.131693 
L 451.406042 161.131693 
L 451.454957 161.163725 
L 451.515739 161.122502 
L 451.626465 161.074095 
L 451.640254 161.122696 
L 451.726773 161.63953 
L 451.79705 161.564885 
L 452.119543 161.312925 
L 452.12909 161.338641 
L 452.21635 161.562189 
L 452.281275 161.4996 
L 452.438561 161.422847 
L 452.451906 161.461967 
L 452.611191 161.559066 
L 452.613315 161.556662 
L 452.869513 161.428891 
L 452.869513 161.428891 
L 452.967268 161.417003 
L 452.977636 161.405549 
L 453.151157 161.377315 
L 453.151157 161.377315 
L 453.230333 161.375472 
L 453.174676 161.356071 
L 453.258947 161.350248 
L 453.610382 161.116738 
L 453.610638 161.11726 
L 453.711297 161.192958 
L 453.73856 161.170027 
L 453.842937 161.098845 
L 453.842937 161.098845 
L 453.978476 161.05912 
L 453.997138 161.09597 
L 454.152089 161.166193 
L 454.15361 161.164609 
L 454.313401 161.156672 
L 454.313401 161.156672 
L 454.343532 161.169928 
L 454.416475 161.116453 
L 454.633223 161.04755 
L 454.753126 160.982217 
L 455.057496 160.828509 
L 455.163564 160.757372 
L 455.222121 160.710551 
L 455.283467 160.792282 
L 455.348571 160.937538 
L 455.348571 160.937538 
L 455.387749 161.055073 
L 455.477157 160.981315 
L 455.633165 160.962754 
L 455.63989 160.973907 
L 455.671964 161.035062 
L 455.753857 160.974365 
L 455.969206 160.918151 
L 455.785603 161.007683 
L 455.969206 160.918151 
L 456.274975 160.923135 
L 456.48735 160.808567 
L 456.501246 160.858979 
L 456.521021 160.936321 
L 456.611626 160.866845 
L 456.869879 160.77542 
L 457.008229 160.707932 
L 457.615528 160.259214 
L 457.625247 160.286501 
L 457.683857 160.417143 
L 457.760158 160.364095 
L 457.782884 160.349229 
L 457.812753 160.45682 
L 457.812753 160.45682 
L 457.877612 160.706948 
L 457.962843 160.655203 
L 458.105805 160.58901 
L 458.384967 160.440563 
L 458.396339 160.466074 
L 458.47709 160.52088 
L 458.520854 160.506531 
L 458.529372 160.519398 
L 458.617182 160.455973 
L 458.620581 160.457134 
L 458.800627 160.396717 
L 458.800627 160.396717 
L 459.074254 160.308522 
L 459.263332 160.248703 
L 459.70144 160.02663 
L 459.890518 159.961343 
L 460.144159 159.895918 
L 460.290156 159.814282 
L 460.290156 159.814282 
L 460.499946 159.771549 
L 460.505815 159.786098 
L 460.628384 159.788855 
L 460.780569 159.708761 
L 461.049494 159.639539 
L 461.049494 159.639539 
L 461.154113 159.592619 
L 461.573775 159.412878 
L 461.727977 159.415057 
L 461.727977 159.415057 
L 462.371238 159.049795 
L 462.380816 159.074147 
L 462.402482 159.092725 
L 462.48348 159.036297 
L 462.692734 158.983296 
L 462.703632 159.013012 
L 462.842833 159.072847 
L 462.842833 159.072847 
L 463.156944 158.980469 
L 463.15784 158.98199 
L 463.170986 159.00616 
L 463.261643 158.94416 
L 463.612609 158.828661 
L 463.612815 158.828994 
L 463.675601 158.867625 
L 463.732033 158.832799 
L 463.975586 158.803121 
L 463.975586 158.803121 
L 464.180174 158.83352 
L 464.180174 158.83352 
L 464.427279 158.746797 
L 464.427279 158.746797 
L 464.797327 158.634526 
L 464.912618 158.585361 
L 465.350726 158.436188 
L 465.672653 158.565668 
L 465.672653 158.565668 
L 465.774999 158.526946 
L 466.420632 158.246057 
L 466.549759 158.201686 
L 466.938443 158.096109 
L 466.938443 158.096109 
L 467.357772 158.000214 
L 467.357772 158.000214 
L 467.605829 157.981465 
L 467.997965 157.883407 
L 467.997965 157.883407 
L 468.671123 157.623553 
L 468.91093 157.513838 
L 469.717971 157.199109 
L 470.234477 157.070491 
L 470.654237 156.972615 
L 470.654237 156.972615 
L 470.765763 157.00801 
L 470.783265 156.999146 
L 471.36896 156.824631 
L 471.36896 156.824631 
L 471.69225 156.698134 
L 471.69225 156.698134 
L 472.531085 156.413363 
L 472.661371 156.372083 
L 472.661371 156.372083 
L 473.587156 156.064792 
L 473.819209 156.008761 
L 473.819209 156.008761 
L 474.233423 155.947731 
L 474.233423 155.947731 
L 474.361915 155.917804 
L 475.423599 155.57542 
L 475.423599 155.57542 
L 476.382653 155.35531 
L 476.382653 155.35531 
L 476.944446 155.247611 
L 477.709982 155.048536 
L 478.276808 154.946499 
L 478.276808 154.946499 
L 479.347122 154.708634 
L 480.170434 154.51778 
L 480.170434 154.51778 
L 481.136447 154.286886 
L 482.570674 153.894389 
L 483.838881 153.584476 
L 484.936457 153.312227 
L 486.255392 153.017797 
L 486.692573 152.904774 
L 486.692573 152.904774 
L 488.362922 152.527481 
L 490.221422 152.122653 
L 491.881621 151.79476 
L 494.118277 151.334388 
L 496.806876 150.801481 
L 497.791956 150.604893 
L 497.791956 150.604893 
L 501.510772 149.910275 
L 520.732181 147.08467 
L 541.103849 145.09533 
L 541.103849 145.09533 
L 552.080008 144.32267 
L 552.080008 144.32267 
L 573.752465 143.231906 
L 590.534304 142.669427 
L 611.720282 142.191491 
L 636.471074 141.846137 
L 636.471074 141.846137 
" clip-path="url(#p32057a3276)" style="fill: none; stroke: #1f77b4; stroke-width: 1.5; stroke-linecap: round"/>
   </g>
   <g id="line2d_62">
    <path d="M 405.892562 240.139666 
L 406.044775 240.079466 
L 406.044775 240.079466 
L 406.256883 240.067863 
L 406.436855 240.031239 
L 406.439792 240.022794 
L 406.748247 239.444455 
L 406.753496 239.447096 
L 406.814333 239.44071 
L 406.842564 239.368372 
L 406.981254 239.321135 
L 406.981254 239.321135 
L 407.248391 239.221383 
L 407.363682 239.101205 
L 407.872047 237.369213 
L 407.8848 237.377881 
L 407.91814 237.390954 
L 407.94014 237.282834 
L 408.544225 233.976362 
L 408.545561 233.97841 
L 408.659006 233.786458 
L 408.659006 233.786458 
L 408.825828 233.083489 
L 408.890143 233.177061 
L 409.068553 233.309215 
L 409.079221 233.298276 
L 409.229323 233.144794 
L 409.240629 233.163888 
L 409.263749 233.202808 
L 409.291357 233.044119 
L 409.450257 232.231863 
L 409.452765 232.236534 
L 409.464166 232.257736 
L 409.498882 232.096413 
L 409.704487 229.847525 
L 409.840145 230.114461 
L 410.04897 230.322667 
L 410.052282 230.319892 
L 410.184271 229.37757 
L 410.184271 229.37757 
L 410.309912 228.923443 
L 410.333867 228.962866 
L 410.366104 228.791809 
L 410.366104 228.791809 
L 410.40738 228.134346 
L 410.587108 225.843521 
L 410.615454 225.890316 
L 410.783697 226.050576 
L 410.675421 225.852912 
L 410.783697 226.050576 
L 410.808782 225.875825 
L 410.808782 225.875825 
L 410.970002 225.198456 
L 411.175053 223.479751 
L 411.175053 223.479751 
L 411.386119 221.882552 
L 411.389723 221.887348 
L 411.772432 218.73869 
L 411.913321 217.563015 
L 411.80389 218.789585 
L 411.96151 217.71008 
L 412.001366 217.892705 
L 412.035296 217.546003 
L 412.185685 216.747103 
L 412.185685 216.747103 
L 412.24478 216.566489 
L 412.29355 216.773639 
L 412.396234 217.004611 
L 412.436511 216.915324 
L 412.478016 216.66039 
L 412.493272 216.583736 
L 412.563543 216.804076 
L 412.579473 216.738794 
L 412.679062 216.577527 
L 412.736269 216.696618 
L 412.854966 216.877627 
L 412.865396 216.822732 
L 412.916771 216.534261 
L 413.008839 216.574944 
L 413.010152 216.572961 
L 413.063697 216.679008 
L 413.078571 216.717294 
L 413.12574 216.446162 
L 413.132872 216.47792 
L 413.163778 216.438647 
L 413.192824 216.578813 
L 413.396517 217.411257 
L 413.437242 217.249398 
L 413.501003 216.992043 
L 413.459065 217.297897 
L 413.571503 217.058237 
L 413.724758 216.649499 
L 413.724758 216.649499 
L 413.988502 214.046829 
L 414.0137 214.134924 
L 414.022923 213.994897 
L 414.18915 212.542253 
L 414.197015 212.586057 
L 414.20677 212.570106 
L 414.235059 212.7272 
L 414.283778 212.844411 
L 414.322054 212.676284 
L 414.359574 212.805802 
L 414.48287 212.530107 
L 414.393542 212.914753 
L 414.530247 212.727251 
L 414.548757 212.829587 
L 414.590157 212.453367 
L 414.930357 208.654265 
L 414.936032 208.669773 
L 414.974939 208.693165 
L 415.000595 208.401659 
L 415.07402 205.584032 
L 415.166615 206.075783 
L 415.194285 205.802511 
L 415.690114 201.158761 
L 415.724626 201.424275 
L 415.905876 202.034561 
L 415.913705 202.020266 
L 415.919429 202.034304 
L 415.964433 201.704985 
L 416.163483 200.478523 
L 415.989429 201.738853 
L 416.17218 200.54671 
L 416.385534 201.42073 
L 416.241928 200.526687 
L 416.388851 201.398577 
L 416.596551 199.686571 
L 416.480095 201.432997 
L 416.644221 199.758784 
L 416.827861 200.551669 
L 416.840649 200.439689 
L 417.037183 199.30247 
L 417.048174 199.323961 
L 417.055162 199.311733 
L 417.075445 199.425701 
L 417.108125 199.437343 
L 417.123337 199.504471 
L 417.181912 199.139245 
L 417.260656 197.027363 
L 417.203382 199.20615 
L 417.260656 197.027363 
L 417.333717 195.945636 
L 417.384825 196.171263 
L 417.434856 195.78589 
L 417.397985 196.214782 
L 417.500116 196.121389 
L 417.706316 197.145212 
L 417.716865 197.105598 
L 417.762587 196.446331 
L 417.850603 196.81907 
L 418.059933 197.815833 
L 418.074382 197.792183 
L 418.095934 197.721708 
L 418.159584 198.016381 
L 418.386692 199.117147 
L 418.399391 199.099222 
L 418.437056 198.343235 
L 418.560799 198.517449 
L 418.614537 198.524127 
L 418.591424 198.617769 
L 418.634585 198.570579 
L 418.644401 198.651055 
L 418.726819 198.433275 
L 418.748908 198.206587 
L 418.79333 198.572631 
L 418.828275 198.514774 
L 418.84328 198.637888 
L 418.885729 198.081602 
L 418.892839 198.131151 
L 418.916866 197.911134 
L 418.916866 197.911134 
L 418.973249 196.944133 
L 419.049635 197.209312 
L 419.155277 195.06997 
L 419.335558 195.180294 
L 419.430099 195.640342 
L 419.449969 195.226682 
L 419.547609 193.576037 
L 419.5892 193.73668 
L 419.781726 191.376066 
L 419.856676 191.852372 
L 419.858589 191.870486 
L 419.893569 191.208939 
L 420.051778 189.823966 
L 420.059589 189.900878 
L 420.280054 191.39512 
L 420.294784 191.197935 
L 420.358637 190.963948 
L 420.324736 191.206576 
L 420.402022 191.196577 
L 420.597576 192.653507 
L 420.646658 192.537128 
L 420.759737 191.929697 
L 420.786463 192.181822 
L 420.902623 193.263022 
L 420.935805 192.657369 
L 421.031729 189.887411 
L 421.078767 190.166052 
L 421.305537 191.569749 
L 421.324954 191.504855 
L 421.343146 191.263087 
L 421.417451 191.696799 
L 421.417451 191.696799 
L 421.593037 192.835052 
L 421.43985 191.688447 
L 421.613719 192.556129 
L 421.630119 192.317542 
L 421.705953 192.919219 
L 421.720967 193.058219 
L 421.775128 192.60047 
L 421.868593 191.207219 
L 421.937532 191.462952 
L 422.062122 191.226972 
L 421.985824 191.646454 
L 422.065662 191.260908 
L 422.073761 191.338464 
L 422.116391 190.738776 
L 422.121272 190.660628 
L 422.215668 190.983657 
L 422.215668 190.983657 
L 422.305859 191.368124 
L 422.340091 191.120754 
L 422.381592 190.709349 
L 422.466877 190.770021 
L 422.495872 190.03619 
L 422.577557 190.742886 
L 422.58215 190.78733 
L 422.629634 190.446591 
L 422.674402 190.622836 
L 422.700397 190.532591 
L 422.681793 190.659713 
L 422.743577 190.689715 
L 423.107126 193.185078 
L 423.109559 193.183281 
L 423.143804 192.948317 
L 423.19552 193.410052 
L 423.226798 193.66633 
L 423.316714 193.505306 
L 423.320526 193.487404 
L 423.372161 193.934862 
L 423.3911 193.86146 
L 423.595822 194.714255 
L 423.596317 194.71391 
L 423.598536 194.709387 
L 423.661298 195.186196 
L 423.72329 195.358852 
L 423.758142 195.05847 
L 423.947541 193.546532 
L 423.819984 195.349276 
L 423.985581 193.843518 
L 424.155217 194.676018 
L 424.182415 194.628725 
L 424.193975 194.612674 
L 424.260814 194.957781 
L 424.445928 195.752764 
L 424.456352 195.742917 
L 424.511192 195.425911 
L 424.475949 195.796771 
L 424.567472 195.706812 
L 424.812869 197.211897 
L 424.834386 197.084236 
L 424.843323 196.922812 
L 424.902635 197.425135 
L 424.934116 197.369888 
L 425.250361 199.303236 
L 425.262894 199.237728 
L 425.303779 198.421688 
L 425.405298 198.947724 
L 425.436622 199.17438 
L 425.474741 198.635905 
L 425.474741 198.635905 
L 425.499929 197.935989 
L 425.588972 198.467582 
L 425.639155 198.36178 
L 425.60221 198.548902 
L 425.661626 198.546669 
L 425.881756 199.439523 
L 425.683393 198.361026 
L 425.881756 199.439523 
L 425.88949 199.435905 
L 425.902565 199.540942 
L 425.938954 199.831895 
L 426.045527 199.789509 
L 426.057243 199.727555 
L 426.12711 199.995281 
L 426.140414 199.919637 
L 426.276679 200.564203 
L 426.316575 200.437769 
L 426.343345 200.414876 
L 426.325243 200.478541 
L 426.368343 200.529228 
L 426.470633 201.253828 
L 426.526781 200.907887 
L 426.63527 200.37033 
L 426.668101 200.627818 
L 426.816379 200.923529 
L 426.816379 200.923529 
L 426.819309 200.922407 
L 426.82951 201.001517 
L 426.989918 201.820415 
L 427.032423 201.738812 
L 427.073779 201.359626 
L 427.152326 201.623797 
L 427.273689 202.314 
L 427.309123 201.982516 
L 427.313136 201.959013 
L 427.369074 202.380108 
L 427.713776 204.398313 
L 427.749511 204.388677 
L 427.752484 204.387555 
L 427.765677 204.481238 
L 427.840688 204.465759 
L 428.019319 205.484366 
L 428.150094 206.185768 
L 428.18995 205.956263 
L 428.345637 205.026144 
L 428.35597 205.098296 
L 428.404597 205.435965 
L 428.441798 204.944506 
L 428.444068 204.959609 
L 428.462038 204.852443 
L 428.484746 204.703301 
L 428.54966 204.992323 
L 428.58869 205.264374 
L 428.690742 205.195299 
L 428.734126 205.083648 
L 428.750475 204.917622 
L 428.828869 205.32588 
L 428.828869 205.32588 
L 428.840145 205.322668 
L 428.854029 205.418814 
L 429.11635 206.481341 
L 429.116894 206.481182 
L 429.146267 206.4768 
L 429.163011 206.580631 
L 429.375504 207.648499 
L 429.416652 207.533486 
L 429.430487 207.442419 
L 429.466974 207.27052 
L 429.520991 207.591098 
L 429.520991 207.591098 
L 429.523079 207.590501 
L 429.536556 207.678073 
L 429.735153 208.364447 
L 429.74408 208.340792 
L 429.756966 208.269414 
L 429.815356 208.495939 
L 429.840925 208.417498 
L 430.077879 209.230355 
L 430.078054 209.230306 
L 430.087818 209.205494 
L 430.154518 209.427238 
L 430.313901 209.800895 
L 430.18246 209.401441 
L 430.32515 209.797748 
L 430.333626 209.795383 
L 430.348208 209.884079 
L 430.648672 211.052829 
L 430.652578 211.04842 
L 430.715689 210.479831 
L 430.790928 210.880406 
L 430.97632 211.357888 
L 430.831235 210.837888 
L 430.980006 211.356889 
L 430.988799 211.354511 
L 431.007676 211.463749 
L 431.215836 212.382858 
L 431.242871 212.196745 
L 431.295203 212.075796 
L 431.295203 212.075796 
L 431.32628 211.833822 
L 431.40889 211.987972 
L 431.440305 211.97025 
L 431.459619 212.079771 
L 431.585783 212.690491 
L 431.662532 212.591066 
L 431.6764 212.486521 
L 431.722394 212.634505 
L 431.7686 212.626457 
L 431.77182 212.625656 
L 431.788342 212.71733 
L 431.788342 212.71733 
L 431.962781 213.406144 
L 431.982533 213.175195 
L 431.9849 213.168562 
L 432.042185 213.469893 
L 432.0453 213.469108 
L 432.119087 213.336105 
L 432.141323 213.162626 
L 432.221748 213.421454 
L 432.221748 213.421454 
L 432.554045 214.613955 
L 432.243488 213.394337 
L 432.554045 214.613955 
L 432.558329 214.612891 
L 432.577139 214.71021 
L 432.577139 214.71021 
L 432.665543 215.161544 
L 432.716227 214.871986 
L 432.719712 214.836939 
L 432.792389 215.208008 
L 432.947985 215.79616 
L 432.999914 215.705415 
L 433.031517 215.374959 
L 433.124429 215.477995 
L 433.14755 215.501421 
L 433.161322 215.570404 
L 433.556515 217.119448 
L 433.576372 217.097812 
L 433.7308 216.733516 
L 433.747003 216.780746 
L 433.753402 216.779239 
L 433.774673 216.880601 
L 434.042591 217.788388 
L 434.056863 217.689697 
L 434.067968 217.665855 
L 434.147683 217.825566 
L 434.155422 217.805494 
L 434.192072 217.874211 
L 434.246018 217.716105 
L 434.246018 217.716105 
L 434.265083 217.526814 
L 434.360354 217.689329 
L 434.412634 217.793147 
L 434.438902 217.598602 
L 434.461811 217.633692 
L 434.548453 217.720475 
L 434.549433 217.724978 
L 434.712308 217.974032 
L 434.585729 217.694276 
L 434.715452 217.973346 
L 434.780016 218.057077 
L 434.900546 218.333614 
L 434.801255 218.04447 
L 434.927799 218.216279 
L 434.947763 218.119099 
L 435.013972 218.291154 
L 435.024434 218.288931 
L 435.15356 218.36432 
L 435.596804 219.923918 
L 435.600892 219.889017 
L 435.620208 219.825459 
L 435.679222 219.978928 
L 435.70696 219.934549 
L 435.718062 219.955382 
L 435.771523 219.758317 
L 435.92832 219.134466 
L 435.974436 219.23594 
L 436.260275 220.161824 
L 436.288029 220.107058 
L 436.340797 220.007344 
L 436.340797 220.007344 
L 436.541162 218.313601 
L 436.427321 220.153428 
L 436.569341 218.439662 
L 436.611374 218.537825 
L 436.647239 218.296137 
L 436.648267 218.29598 
L 436.65974 218.260112 
L 436.712102 218.494358 
L 436.717426 218.493533 
L 437.050871 219.493591 
L 437.053565 219.491654 
L 437.108905 219.584243 
L 437.435492 220.50871 
L 437.436333 220.504998 
L 437.451978 220.423323 
L 437.533178 220.543641 
L 437.712963 220.928059 
L 437.722256 220.884142 
L 437.73124 220.856427 
L 437.796043 221.039315 
L 437.902772 221.322965 
L 437.948228 221.196826 
L 438.026626 221.281372 
L 438.278628 221.961611 
L 438.294871 221.913927 
L 438.49273 221.182338 
L 438.49273 221.182338 
L 438.688697 221.521881 
L 438.690165 221.514784 
L 438.731382 221.399207 
L 438.793986 221.593495 
L 438.794848 221.593364 
L 438.808994 221.579877 
L 438.876912 221.726155 
L 438.876912 221.726155 
L 439.208332 222.560843 
L 439.208332 222.560843 
L 439.294833 222.646638 
L 439.452484 222.826501 
L 439.347241 222.618769 
L 439.455657 222.816526 
L 439.52066 222.763322 
L 439.487264 222.90344 
L 439.553086 222.881221 
L 439.628158 222.996795 
L 439.579594 222.859919 
L 439.677601 222.932419 
L 439.739671 222.758304 
L 439.788281 222.9186 
L 439.83454 222.985676 
L 439.873078 222.876905 
L 439.894926 222.89027 
L 439.905668 222.874421 
L 439.968136 223.049254 
L 440.145196 223.273887 
L 440.145196 223.273887 
L 440.194108 223.371168 
L 440.503089 224.069482 
L 440.627604 224.15544 
L 440.841352 224.634762 
L 440.858187 224.559134 
L 440.901296 224.343255 
L 440.968867 224.568134 
L 441.076293 224.707257 
L 441.094588 224.610262 
L 441.168268 224.272113 
L 441.236343 224.37971 
L 441.291683 224.477859 
L 441.713746 225.568194 
L 441.731759 225.556192 
L 441.847151 225.644038 
L 441.847151 225.644038 
L 442.089501 226.041134 
L 442.227851 226.121236 
L 442.472236 226.763906 
L 442.495327 226.581082 
L 442.526505 226.504934 
L 442.592172 226.672614 
L 442.788326 226.946601 
L 442.796844 226.939666 
L 442.817084 226.875506 
L 442.874577 227.020118 
L 442.887318 227.018159 
L 442.956493 227.118364 
L 443.297292 227.759152 
L 442.973264 227.096955 
L 443.298062 227.75683 
L 443.459165 227.833417 
L 443.705774 228.178002 
L 443.705774 228.178002 
L 443.757592 228.157277 
L 443.800428 228.237002 
L 444.026476 228.561123 
L 444.031011 228.550668 
L 444.201377 228.301556 
L 444.073572 228.569933 
L 444.224701 228.325095 
L 444.283517 228.426544 
L 444.283517 228.426544 
L 444.452919 228.557477 
L 444.452919 228.557477 
L 444.459387 228.552457 
L 444.519847 228.702739 
L 444.83782 229.230095 
L 444.840516 229.220015 
L 444.894129 228.963396 
L 444.957955 229.12065 
L 445.245289 229.635876 
L 445.261054 229.569278 
L 445.267316 229.562003 
L 445.336783 229.637427 
L 445.349946 229.63807 
L 445.525189 229.776107 
L 445.62429 229.650837 
L 445.62429 229.650837 
L 445.701796 229.438914 
L 445.752755 229.517939 
L 445.875676 229.602253 
L 446.115979 229.942399 
L 446.124705 229.923765 
L 446.138151 229.888647 
L 446.178674 229.981669 
L 446.22155 229.98098 
L 446.486827 230.314562 
L 446.486827 230.314562 
L 446.595095 230.408927 
L 446.828079 230.728026 
L 446.853617 230.711477 
L 446.967945 230.644854 
L 446.934392 230.791299 
L 446.982475 230.67622 
L 447.251428 231.014956 
L 447.254563 231.00746 
L 447.332483 230.812569 
L 447.398181 230.951656 
L 447.541105 230.99822 
L 447.541967 230.996157 
L 447.566282 230.904752 
L 447.660573 230.956114 
L 447.983205 231.376421 
L 448.066215 231.47457 
L 448.365617 231.826131 
L 448.365617 231.826131 
L 448.421313 231.921987 
L 448.74413 232.301544 
L 449.01893 232.578729 
L 449.01893 232.578729 
L 449.100521 232.676698 
L 449.100521 232.676698 
L 449.219864 232.782515 
L 449.251413 232.719881 
L 449.385151 232.81097 
L 449.608155 232.977917 
L 449.42311 232.764729 
L 449.608155 232.977917 
L 449.689521 233.077825 
L 449.99967 233.457234 
L 450.007725 233.41289 
L 450.138562 233.160155 
L 450.141463 233.165052 
L 450.413822 233.44929 
L 450.425303 233.428871 
L 450.510396 233.523127 
L 450.731756 233.677719 
L 450.999233 233.529675 
L 451.007043 233.50875 
L 451.091466 233.620878 
L 451.150403 233.577034 
L 451.215981 233.617532 
L 451.289767 233.717625 
L 451.385458 233.733879 
L 451.397077 233.689058 
L 451.454957 233.653743 
L 451.506516 233.708885 
L 451.626465 233.818636 
L 451.644865 233.73578 
L 451.726773 233.299778 
L 451.792439 233.400608 
L 452.119543 233.806694 
L 452.138313 233.760145 
L 452.21635 233.600613 
L 452.290498 233.707184 
L 452.438561 233.83861 
L 452.462288 233.786079 
L 452.497635 233.695698 
L 452.581033 233.765559 
L 452.668655 233.865214 
L 452.917684 234.047273 
L 453.102151 234.130922 
L 453.535647 234.582395 
L 453.784677 234.659977 
L 453.978476 234.806599 
L 453.998577 234.773722 
L 454.029123 234.675087 
L 454.107493 234.783004 
L 454.238922 234.805514 
L 454.245843 234.794093 
L 454.343532 234.820982 
L 454.291505 234.826454 
L 454.351911 234.832492 
L 454.637834 235.037024 
L 454.743903 235.128591 
L 455.126209 235.450438 
L 455.126671 235.449737 
L 455.132407 235.446058 
L 455.200457 235.530432 
L 455.308737 235.490501 
L 455.258706 235.462001 
L 455.308737 235.490501 
L 455.387749 235.249074 
L 455.515596 235.37189 
L 455.633165 235.412424 
L 455.6524 235.3693 
L 455.671964 235.351277 
L 455.744633 235.423797 
L 455.998275 235.568468 
L 456.284198 235.640467 
L 456.48735 235.798412 
L 456.501246 235.751467 
L 456.521021 235.679215 
L 456.607014 235.766354 
L 456.877554 235.925985 
L 456.879102 235.923782 
L 456.943418 235.950901 
L 456.929268 235.9604 
L 456.971336 235.983253 
L 457.615528 236.594422 
L 457.623731 236.576056 
L 457.66742 236.444875 
L 457.750707 236.507354 
L 457.782884 236.534761 
L 457.815435 236.419471 
L 457.815435 236.419471 
L 457.877612 236.195702 
L 457.972066 236.264138 
L 458.101193 236.355561 
L 458.384967 236.560713 
L 458.400951 236.520741 
L 458.524643 236.511033 
L 458.524643 236.511033 
L 458.705321 236.599251 
L 459.059776 236.81213 
L 459.060419 236.811334 
L 459.171099 236.846539 
L 459.304837 236.940715 
L 459.712127 237.184648 
L 459.712127 237.184648 
L 459.89513 237.272329 
L 460.153383 237.360575 
L 460.287121 237.455277 
L 460.499946 237.52027 
L 460.508699 237.502159 
L 460.569568 237.492128 
L 460.620426 237.515691 
L 460.780569 237.608117 
L 461.052657 237.695115 
L 461.149502 237.749165 
L 461.573775 237.956486 
L 461.721348 237.963012 
L 461.859698 238.059387 
L 462.371238 238.34702 
L 462.380816 238.322819 
L 462.402482 238.304642 
L 462.48348 238.362382 
L 462.692734 238.417175 
L 462.703632 238.387573 
L 462.842833 238.330073 
L 462.842833 238.330073 
L 463.156944 238.426341 
L 463.15784 238.424829 
L 463.170986 238.400821 
L 463.261643 238.463759 
L 463.612609 238.580284 
L 463.612815 238.57995 
L 463.675601 238.54133 
L 463.732033 238.576156 
L 463.975586 238.605081 
L 463.975586 238.605081 
L 464.180174 238.575264 
L 464.180174 238.575264 
L 464.428394 238.662109 
L 464.792715 238.772868 
L 464.912618 238.816288 
L 465.341503 238.955058 
L 465.67497 238.813822 
L 465.67497 238.813822 
L 465.788834 238.862922 
L 466.41602 239.11865 
L 466.549759 239.154108 
L 466.932527 239.241532 
L 467.416751 239.311167 
L 467.665781 239.319316 
L 468.011656 239.399744 
L 468.657288 239.605391 
L 468.91093 239.694769 
L 469.648796 239.909497 
L 469.810204 239.944991 
L 470.323246 240.03606 
L 470.323246 240.03606 
L 471.258266 240.083087 
L 472.167918 240.314484 
L 472.167918 240.314484 
L 472.332783 240.359518 
L 472.978416 240.456862 
L 473.398996 240.542634 
L 473.398996 240.542634 
L 474.029875 240.616858 
L 474.366527 240.602737 
L 475.288859 240.750607 
L 475.551724 240.772121 
L 476.235554 240.830919 
L 476.235554 240.830919 
L 476.386435 240.842579 
L 476.925999 240.860127 
L 477.244204 240.871224 
L 478.074303 240.952095 
L 478.438624 240.954274 
L 478.975938 240.958429 
L 478.975938 240.958429 
L 479.227219 240.99622 
L 480.22795 241.062299 
L 481.016544 241.105627 
L 481.312443 241.139808 
L 481.312443 241.139808 
L 482.644461 241.272321 
L 483.686696 241.345765 
L 485.11212 241.440574 
L 485.11212 241.440574 
L 485.623595 241.457123 
L 487.380638 241.563424 
L 488.91171 241.611311 
L 489.474333 241.642924 
L 491.016022 241.669144 
L 491.016022 241.669144 
L 493.325071 241.731217 
L 496.299861 241.835863 
L 496.299861 241.835863 
L 499.375572 241.90368 
L 503.747428 241.967758 
L 510.429907 242.025418 
L 510.429907 242.025418 
L 519.657664 242.07233 
L 536.227367 242.098646 
L 574.047611 242.113769 
L 636.471074 242.116203 
L 636.471074 242.116203 
" clip-path="url(#p32057a3276)" style="fill: none; stroke: #ff7f0e; stroke-width: 1.5; stroke-linecap: round"/>
   </g>
   <g id="line2d_63">
    <path d="M 405.892562 242.116364 
L 408.419753 241.864018 
L 410.227525 241.366171 
L 411.401185 240.840553 
L 411.401185 240.840553 
L 412.727046 239.986714 
L 415.078994 238.269289 
L 416.87293 236.411833 
L 419.888958 233.019829 
L 423.301588 228.94691 
L 425.275379 226.948478 
L 427.562764 225.035263 
L 429.442775 223.793682 
L 429.442775 223.793682 
L 431.136802 222.913595 
L 433.262779 222.091944 
L 435.416425 221.52686 
L 438.824444 220.922617 
L 441.099147 220.733119 
L 441.099147 220.733119 
L 443.486835 220.738286 
L 446.701163 221.009345 
L 450.086124 221.522519 
L 456.099731 222.739094 
L 461.47693 224.051263 
L 486.062839 230.410205 
L 486.062839 230.410205 
L 493.984539 232.114269 
L 502.301977 233.671358 
L 502.301977 233.671358 
L 510.71565 235.018162 
L 519.745285 236.236208 
L 529.432645 237.314459 
L 529.432645 237.314459 
L 540.156503 238.281462 
L 552.174496 239.137587 
L 565.820405 239.881101 
L 581.656854 240.515191 
L 600.518554 241.040483 
L 623.848954 241.458601 
L 636.471074 241.612373 
L 636.471074 241.612373 
" clip-path="url(#p32057a3276)" style="fill: none; stroke: #2ca02c; stroke-width: 1.5; stroke-linecap: round"/>
   </g>
   <g id="line2d_64">
    <path d="M 405.892562 242.116364 
L 407.812584 241.718529 
L 407.812584 241.718529 
L 408.553962 241.349577 
L 408.553962 241.349577 
L 409.766365 240.475021 
L 409.766365 240.475021 
L 410.887871 239.296028 
L 410.887871 239.296028 
L 411.735538 238.042884 
L 413.109814 235.449602 
L 414.758238 232.0283 
L 414.758238 232.0283 
L 415.647428 229.587155 
L 415.647428 229.587155 
L 417.929001 222.231359 
L 420.561106 212.892978 
L 420.561106 212.892978 
L 425.665319 194.289265 
L 425.665319 194.289265 
L 427.687279 188.028043 
L 429.946993 181.909111 
L 431.699425 177.797152 
L 433.474915 174.111334 
L 435.883632 169.764324 
L 435.883632 169.764324 
L 439.193377 164.371673 
L 441.471538 161.203266 
L 443.22397 159.119006 
L 445.349946 156.953878 
L 448.002634 154.611975 
L 448.002634 154.611975 
L 449.860152 153.252466 
L 453.623014 150.87771 
L 453.623014 150.87771 
L 456.413324 149.421255 
L 459.111274 148.244041 
L 459.111274 148.244041 
L 461.633726 147.354122 
L 464.775158 146.48227 
L 464.775158 146.48227 
L 468.754133 145.5977 
L 472.443463 145.017708 
L 477.525719 144.46856 
L 477.525719 144.46856 
L 484.378446 143.959535 
L 492.347399 143.635061 
L 502.811261 143.423646 
L 522.005784 143.302141 
L 522.005784 143.302141 
L 572.587354 143.24865 
L 572.587354 143.24865 
L 636.471074 143.244326 
L 636.471074 143.244326 
" clip-path="url(#p32057a3276)" style="fill: none; stroke: #d62728; stroke-width: 1.5; stroke-linecap: round"/>
   </g>
   <g id="patch_9">
    <path d="M 394.363636 252 
L 394.363636 34.56 
" style="fill: none; stroke: #cccccc; stroke-linejoin: miter; stroke-linecap: square"/>
   </g>
   <g id="patch_10">
    <path d="M 648 252 
L 648 34.56 
" style="fill: none; stroke: #cccccc; stroke-linejoin: miter; stroke-linecap: square"/>
   </g>
   <g id="patch_11">
    <path d="M 394.363636 252 
L 648 252 
" style="fill: none; stroke: #cccccc; stroke-linejoin: miter; stroke-linecap: square"/>
   </g>
   <g id="patch_12">
    <path d="M 394.363636 34.56 
L 648 34.56 
" style="fill: none; stroke: #cccccc; stroke-linejoin: miter; stroke-linecap: square"/>
   </g>
   <g id="text_32">
    <!-- $k=3$ -->
    <g style="fill: #262626" transform="translate(496.681818 28.56)scale(0.2 -0.2)">
     <defs>
      <path id="DejaVuSans-33" d="M 2597 2516 
Q 3050 2419 3304 2112 
Q 3559 1806 3559 1356 
Q 3559 666 3084 287 
Q 2609 -91 1734 -91 
Q 1441 -91 1130 -33 
Q 819 25 488 141 
L 488 750 
Q 750 597 1062 519 
Q 1375 441 1716 441 
Q 2309 441 2620 675 
Q 2931 909 2931 1356 
Q 2931 1769 2642 2001 
Q 2353 2234 1838 2234 
L 1294 2234 
L 1294 2753 
L 1863 2753 
Q 2328 2753 2575 2939 
Q 2822 3125 2822 3475 
Q 2822 3834 2567 4026 
Q 2313 4219 1838 4219 
Q 1578 4219 1281 4162 
Q 984 4106 628 3988 
L 628 4550 
Q 988 4650 1302 4700 
Q 1616 4750 1894 4750 
Q 2613 4750 3031 4423 
Q 3450 4097 3450 3541 
Q 3450 3153 3228 2886 
Q 3006 2619 2597 2516 
z
" transform="scale(0.015625)"/>
     </defs>
     <use xlink:href="#DejaVuSans-Oblique-6b" transform="translate(0 0.015625)"/>
     <use xlink:href="#DejaVuSans-3d" transform="translate(77.392578 0.015625)"/>
     <use xlink:href="#DejaVuSans-33" transform="translate(180.664062 0.015625)"/>
    </g>
   </g>
   <g id="legend_2">
    <g id="patch_13">
     <path d="M 600.670312 99.14125 
L 641 99.14125 
Q 643 99.14125 643 97.14125 
L 643 41.56 
Q 643 39.56 641 39.56 
L 600.670312 39.56 
Q 598.670312 39.56 598.670312 41.56 
L 598.670312 97.14125 
Q 598.670312 99.14125 600.670312 99.14125 
z
" style="fill: #ffffff; opacity: 0.8; stroke: #cccccc; stroke-linejoin: miter"/>
    </g>
    <g id="line2d_65">
     <path d="M 602.670312 47.217813 
L 612.670312 47.217813 
L 622.670312 47.217813 
" style="fill: none; stroke: #1f77b4; stroke-width: 1.5; stroke-linecap: round"/>
    </g>
    <g id="text_33">
     <!-- S -->
     <g style="fill: #262626" transform="translate(630.670312 50.717813)scale(0.1 -0.1)">
      <use xlink:href="#ArialMT-53"/>
     </g>
    </g>
    <g id="line2d_66">
     <path d="M 602.670312 61.363125 
L 612.670312 61.363125 
L 622.670312 61.363125 
" style="fill: none; stroke: #ff7f0e; stroke-width: 1.5; stroke-linecap: round"/>
    </g>
    <g id="text_34">
     <!-- I -->
     <g style="fill: #262626" transform="translate(630.670312 64.863125)scale(0.1 -0.1)">
      <use xlink:href="#ArialMT-49"/>
     </g>
    </g>
    <g id="line2d_67">
     <path d="M 602.670312 75.508438 
L 612.670312 75.508438 
L 622.670312 75.508438 
" style="fill: none; stroke: #2ca02c; stroke-width: 1.5; stroke-linecap: round"/>
    </g>
    <g id="text_35">
     <!-- M -->
     <g style="fill: #262626" transform="translate(630.670312 79.008438)scale(0.1 -0.1)">
      <use xlink:href="#ArialMT-4d"/>
     </g>
    </g>
    <g id="line2d_68">
     <path d="M 602.670312 89.65375 
L 612.670312 89.65375 
L 622.670312 89.65375 
" style="fill: none; stroke: #d62728; stroke-width: 1.5; stroke-linecap: round"/>
    </g>
    <g id="text_36">
     <!-- D -->
     <g style="fill: #262626" transform="translate(630.670312 93.15375)scale(0.1 -0.1)">
      <use xlink:href="#ArialMT-44"/>
     </g>
    </g>
   </g>
  </g>
 </g>
 <defs>
  <clipPath id="pe425aa8cc0">
   <rect x="90" y="34.56" width="253.636364" height="217.44"/>
  </clipPath>
  <clipPath id="p32057a3276">
   <rect x="394.363636" y="34.56" width="253.636364" height="217.44"/>
  </clipPath>
 </defs>
</svg>
