<?xml version="1.0" standalone="no"?>
<!DOCTYPE svg PUBLIC "-//W3C//DTD SVG 20010904//EN"
 "http://www.w3.org/TR/2001/REC-SVG-20010904/DTD/svg10.dtd">
<svg version="1.0" xmlns="http://www.w3.org/2000/svg"
 width="4488.000000pt" height="537.000000pt" viewBox="0 0 4488.000000 537.000000"
 preserveAspectRatio="xMidYMid meet">
<metadata>
Created by potrace 1.16, written by Peter Selinger 2001-2019
</metadata>
<g transform="translate(0.000000,537.000000) scale(0.100000,-0.100000)"
fill="#000000" stroke="none">
<path d="M8090 4792 c0 -11 12 -22 34 -30 22 -8 39 -24 49 -45 23 -49 157
-386 157 -395 0 -5 -88 -89 -195 -188 -108 -98 -198 -189 -201 -201 -12 -45
14 -71 59 -59 12 3 98 91 192 195 93 105 170 189 171 188 1 -1 32 -78 69 -172
76 -193 92 -215 160 -215 24 0 46 4 50 9 3 5 -4 24 -14 43 -11 18 -90 210
-175 427 -85 216 -163 402 -173 414 -27 29 -76 47 -133 47 -41 0 -50 -3 -50
-18z"/>
<path d="M15170 4792 c0 -11 12 -22 34 -30 22 -8 39 -24 49 -45 23 -49 157
-386 157 -395 0 -5 -88 -89 -195 -188 -108 -98 -198 -189 -201 -201 -12 -45
14 -71 59 -59 12 3 98 91 192 195 93 105 170 189 171 188 1 -1 32 -78 69 -172
76 -193 92 -215 160 -215 24 0 46 4 50 9 3 5 -4 24 -14 43 -11 18 -90 210
-175 427 -85 216 -163 402 -173 414 -27 29 -76 47 -133 47 -41 0 -50 -3 -50
-18z"/>
<path d="M36430 4792 c0 -11 12 -22 34 -30 22 -8 39 -24 49 -45 23 -49 157
-386 157 -395 0 -5 -88 -89 -195 -188 -108 -98 -198 -189 -201 -201 -12 -45
14 -71 59 -59 12 3 98 91 192 195 93 105 170 189 171 188 1 -1 32 -78 69 -172
76 -193 92 -215 160 -215 24 0 46 4 50 9 3 5 -4 24 -14 43 -11 18 -90 210
-175 427 -85 216 -163 402 -173 414 -27 29 -76 47 -133 47 -41 0 -50 -3 -50
-18z"/>
<path d="M22000 3861 l0 -227 -136 -23 c-734 -120 -1316 -410 -1850 -923 l-70
-68 -30 31 c-75 79 -278 207 -429 270 -530 221 -1142 124 -1583 -252 -40 -34
-74 -60 -76 -58 -3 3 -385 942 -414 1017 -3 9 -75 -57 -198 -179 l-192 -192
-35 21 c-74 43 -359 162 -507 211 -624 205 -1334 225 -1985 56 -565 -147
-1072 -419 -1522 -818 -131 -115 -131 -116 -150 -95 -20 23 -147 120 -209 160
-23 14 -83 47 -134 73 -546 274 -1239 178 -1681 -233 -31 -28 -48 -38 -52 -30
-28 73 -410 1015 -414 1022 -3 4 -92 -78 -198 -184 l-193 -193 -34 21 c-66 40
-316 146 -473 199 -642 217 -1350 243 -2023 74 -588 -149 -1156 -459 -1578
-864 l-72 -68 -58 51 c-83 73 -235 172 -329 216 -206 94 -371 133 -599 141
-174 6 -268 -3 -426 -43 -561 -140 -998 -607 -1107 -1184 -27 -144 -24 -429 6
-570 64 -301 193 -544 404 -759 369 -377 905 -530 1422 -406 292 69 527 205
740 426 349 362 488 880 373 1384 -51 222 -173 463 -317 629 -44 49 -50 60
-39 73 36 44 260 232 383 322 1013 744 2346 894 3480 392 77 -35 151 -69 164
-78 l24 -15 -94 -94 c-51 -51 -91 -95 -88 -97 2 -2 237 -98 521 -213 l517
-208 -42 -46 c-155 -166 -283 -403 -342 -632 -62 -235 -60 -548 3 -773 76
-273 201 -486 398 -680 447 -441 1110 -556 1689 -293 214 97 453 294 588 485
323 455 373 1036 132 1538 -52 107 -145 250 -210 323 l-48 53 39 40 c134 138
425 361 640 489 879 525 1945 645 2889 327 154 -52 408 -159 461 -194 l25 -16
-92 -93 c-51 -51 -91 -95 -88 -97 3 -4 924 -376 1003 -407 l28 -10 -44 -51
c-264 -307 -388 -632 -388 -1019 0 -206 25 -355 90 -529 171 -465 566 -823
1042 -946 167 -44 436 -59 601 -34 302 45 563 165 788 362 431 377 612 965
469 1527 -57 225 -193 480 -332 626 l-39 41 123 112 c458 412 885 648 1423
786 128 33 396 85 437 85 17 0 18 -14 18 -175 0 -96 2 -175 4 -175 5 0 1016
429 1029 437 5 3 -1 11 -14 18 -19 10 -816 350 -981 418 l-38 16 0 -228z
m-2895 -915 c712 -109 1234 -712 1235 -1426 1 -671 -463 -1257 -1116 -1408
-541 -126 -1112 73 -1453 506 -210 267 -315 567 -314 902 0 195 26 337 94 515
165 429 543 766 989 880 173 45 395 57 565 31z m-14148 -21 c496 -79 925 -434
1108 -920 138 -369 108 -798 -81 -1155 -98 -184 -265 -375 -431 -493 -710
-505 -1702 -264 -2096 510 -106 209 -146 363 -154 601 -6 176 2 255 42 409
121 461 469 837 920 991 226 77 447 95 692 57z m7085 -1 c366 -61 685 -255
907 -551 248 -330 342 -737 261 -1133 -164 -803 -962 -1307 -1750 -1105 -451
115 -829 456 -989 893 -179 487 -76 1033 267 1427 325 372 820 550 1304 469z"/>
<path d="M18830 2084 c-142 -27 -239 -119 -240 -227 0 -50 35 -87 84 -87 49 0
65 8 82 42 31 59 -4 127 -66 128 -24 1 -24 2 12 34 39 34 85 52 159 62 60 7
125 -27 152 -79 41 -81 16 -245 -49 -317 -36 -40 -92 -60 -170 -60 -23 0 -37
-6 -41 -16 -9 -25 16 -34 95 -34 113 0 167 -40 198 -148 23 -78 15 -221 -14
-279 -46 -90 -108 -120 -208 -102 -69 13 -119 36 -157 75 l-29 28 31 11 c43
14 62 37 68 82 4 32 0 44 -22 71 -23 27 -33 32 -71 32 -35 0 -51 -6 -71 -26
-23 -23 -25 -31 -21 -89 7 -110 78 -186 211 -227 227 -68 455 66 474 279 6 72
-7 125 -49 188 -34 52 -127 119 -181 131 l-31 7 47 23 c143 73 213 249 144
366 -27 47 -84 91 -147 113 -42 15 -152 26 -190 19z"/>
<path d="M4724 2041 c-41 -37 -131 -71 -211 -78 -62 -6 -63 -6 -63 -36 l0 -30
64 7 c35 3 85 13 110 20 l46 14 0 -443 0 -444 -22 -15 c-16 -11 -46 -16 -105
-16 l-83 0 0 -30 0 -30 275 0 275 0 0 30 0 30 -84 0 c-138 0 -126 -54 -129
540 -2 497 -2 505 -22 507 -11 2 -34 -10 -51 -26z"/>
<path d="M11723 2060 c-130 -27 -230 -142 -241 -276 -4 -57 -2 -65 21 -88 58
-57 157 -20 157 59 0 42 -44 95 -79 95 -25 0 -25 3 -7 38 53 102 193 146 294
93 78 -40 132 -163 119 -271 -16 -131 -81 -232 -327 -505 -122 -135 -180 -207
-180 -222 l0 -23 309 0 c286 0 310 1 315 18 2 9 12 67 21 127 9 61 18 118 21
128 4 13 -1 17 -20 17 -20 0 -27 -6 -32 -27 -21 -98 -30 -117 -54 -124 -14 -4
-113 -7 -220 -8 l-195 -1 106 103 c58 56 160 154 226 217 132 127 176 196 188
294 8 62 -14 160 -47 213 -64 105 -239 171 -375 143z"/>
<path d="M28930 3641 l0 -38 288 -6 c787 -16 1339 -130 1861 -384 l154 -75
-104 -104 c-56 -57 -101 -105 -98 -107 2 -3 237 -98 521 -213 l517 -208 -37
-41 c-163 -177 -284 -412 -337 -655 -22 -102 -31 -379 -15 -489 75 -528 438
-966 941 -1135 387 -129 800 -88 1155 116 118 67 191 124 294 228 471 476 540
1212 165 1775 -29 44 -72 102 -95 128 l-43 48 39 41 c72 75 238 213 384 319
834 610 1914 833 2915 603 269 -62 649 -201 834 -306 l53 -31 -97 -97 -97 -97
134 -55 c73 -30 305 -124 516 -208 210 -85 382 -158 382 -163 0 -5 -22 -34
-50 -64 -236 -258 -370 -676 -331 -1034 43 -396 224 -727 526 -964 576 -450
1419 -370 1896 180 226 261 338 563 339 910 0 227 -42 410 -140 611 -204 419
-590 697 -1061 764 -109 16 -356 8 -459 -15 -244 -54 -464 -162 -629 -310 -48
-42 -66 -54 -72 -43 -4 7 -98 238 -209 513 -111 275 -204 502 -206 505 -3 2
-90 -81 -193 -184 l-189 -189 -55 31 c-202 114 -589 257 -872 321 -305 70
-461 86 -830 85 -305 -1 -329 -3 -522 -32 -732 -113 -1371 -413 -1930 -906
-124 -110 -143 -123 -155 -109 -15 18 -144 117 -204 155 -151 97 -365 173
-561 199 -115 15 -360 6 -463 -16 -243 -53 -451 -155 -632 -309 l-76 -65 -27
67 c-165 412 -388 959 -393 964 -4 4 -90 -75 -191 -176 l-184 -184 -57 34
c-64 37 -262 129 -372 172 -454 179 -1105 282 -1785 282 l-143 0 0 -39z m4251
-801 c335 -34 611 -166 842 -403 318 -326 446 -796 336 -1238 -146 -587 -684
-1008 -1289 -1009 -603 -1 -1136 417 -1286 1007 -64 253 -51 519 38 768 170
476 612 821 1123 874 115 12 122 12 236 1z m7179 -32 c266 -42 530 -177 719
-366 358 -360 477 -878 312 -1356 -186 -537 -715 -898 -1282 -874 -304 13
-577 121 -804 317 -275 237 -436 570 -452 934 -37 816 701 1475 1507 1345z"/>
<path d="M32885 1884 c-5 -1 -58 -6 -117 -9 l-108 -7 0 -29 c0 -25 4 -29 29
-29 46 0 88 -19 95 -43 10 -39 7 -517 -4 -538 -9 -15 -22 -19 -65 -19 -54 0
-55 0 -55 -30 l0 -30 190 0 190 0 0 30 c0 30 -1 30 -55 30 -45 0 -56 4 -66 21
-7 14 -10 88 -7 227 l3 207 31 55 c23 41 45 63 84 88 99 59 184 34 209 -62 14
-58 15 -490 1 -517 -9 -15 -22 -19 -65 -19 -54 0 -55 0 -55 -30 l0 -30 190 0
190 0 0 30 c0 30 -1 30 -53 30 -29 0 -58 5 -65 12 -9 9 -12 78 -12 248 0 141
-5 251 -11 275 -26 95 -92 137 -215 138 -93 0 -154 -28 -204 -96 l-35 -47 -5
73 c-3 42 -9 73 -15 71z"/>
<path d="M40135 1928 c-3 -7 -13 -84 -23 -170 -10 -87 -20 -160 -23 -162 -2
-2 -69 9 -149 25 -153 31 -195 33 -195 10 0 -12 203 -115 300 -154 5 -2 -28
-70 -74 -151 -76 -135 -90 -176 -61 -176 6 0 44 35 83 77 40 43 92 99 117 126
l45 48 114 -125 c63 -69 119 -126 126 -126 30 0 19 36 -56 171 -43 79 -79 147
-79 150 0 3 68 36 150 74 114 52 150 72 150 87 0 25 -19 24 -195 -12 -82 -17
-149 -29 -150 -28 -1 2 -9 73 -19 158 -10 85 -20 163 -22 173 -6 20 -32 23
-39 5z"/>
<path d="M25189 1581 c-60 -61 -24 -151 61 -151 54 0 90 34 90 85 0 48 -45 95
-90 95 -22 0 -41 -9 -61 -29z"/>
<path d="M25919 1581 c-60 -61 -24 -151 61 -151 54 0 90 34 90 85 0 48 -45 95
-90 95 -22 0 -41 -9 -61 -29z"/>
<path d="M26659 1581 c-60 -61 -24 -151 61 -151 54 0 90 34 90 85 0 48 -45 95
-90 95 -22 0 -41 -9 -61 -29z"/>
</g>
</svg>
