<?xml version="1.0" standalone="no"?>
<!DOCTYPE svg PUBLIC "-//W3C//DTD SVG 20010904//EN"
 "http://www.w3.org/TR/2001/REC-SVG-20010904/DTD/svg10.dtd">
<svg version="1.0" xmlns="http://www.w3.org/2000/svg"
 width="6848.000000pt" height="3634.000000pt" viewBox="0 0 6848.000000 3634.000000"
 preserveAspectRatio="xMidYMid meet">
<metadata>
Created by potrace 1.16, written by Peter Selinger 2001-2019
</metadata>
<g transform="translate(0.000000,3634.000000) scale(0.100000,-0.100000)"
fill="#000000" stroke="none">
<path d="M14200 35762 c0 -11 12 -22 34 -30 22 -8 39 -24 49 -45 23 -49 157
-386 157 -395 0 -5 -88 -89 -195 -188 -108 -98 -198 -189 -201 -201 -12 -45
14 -71 59 -59 12 3 98 91 192 195 93 105 170 189 171 188 1 -1 32 -78 69 -172
76 -193 92 -215 160 -215 24 0 46 4 50 9 3 5 -4 24 -14 43 -11 18 -90 210
-175 427 -85 216 -163 402 -173 414 -27 29 -76 47 -133 47 -41 0 -50 -3 -50
-18z"/>
<path d="M23650 35762 c0 -11 12 -22 34 -30 22 -8 39 -24 49 -45 23 -49 157
-386 157 -395 0 -5 -88 -89 -195 -188 -108 -98 -198 -189 -201 -201 -12 -45
14 -71 59 -59 12 3 98 91 192 195 93 105 170 189 171 188 1 -1 32 -78 69 -172
76 -193 92 -215 160 -215 24 0 46 4 50 9 3 5 -4 24 -14 43 -11 18 -90 210
-175 427 -85 216 -163 402 -173 414 -27 29 -76 47 -133 47 -41 0 -50 -3 -50
-18z"/>
<path d="M15062 35314 c-24 -12 -68 -26 -98 -30 -48 -6 -54 -9 -54 -30 0 -23
3 -24 43 -18 23 3 57 10 75 14 l32 8 0 -258 c0 -178 -3 -261 -11 -266 -6 -3
-40 -9 -75 -12 -54 -4 -64 -8 -64 -23 0 -18 11 -19 195 -19 188 0 195 1 195
20 0 17 -7 20 -49 20 -27 0 -61 4 -75 10 l-26 10 0 300 0 300 -22 -1 c-13 -1
-43 -12 -66 -25z"/>
<path d="M24512 35314 c-24 -12 -68 -26 -98 -30 -48 -6 -54 -9 -54 -30 0 -23
3 -24 43 -18 23 3 57 10 75 14 l32 8 0 -258 c0 -178 -3 -261 -11 -266 -6 -3
-40 -9 -75 -12 -54 -4 -64 -8 -64 -23 0 -18 11 -19 195 -19 188 0 195 1 195
20 0 17 -7 20 -49 20 -27 0 -61 4 -75 10 l-26 10 0 300 0 300 -22 -1 c-13 -1
-43 -12 -66 -25z"/>
<path d="M34360 34762 l0 -209 -172 -7 c-1332 -54 -2204 -305 -3013 -869 -164
-114 -406 -312 -552 -451 -123 -118 -121 -117 -178 -56 -44 47 -247 199 -345
257 -262 157 -542 259 -845 309 -156 26 -554 26 -710 0 -453 -75 -878 -278
-1199 -573 -38 -35 -72 -60 -76 -56 -4 4 -99 235 -210 513 -112 278 -205 507
-207 510 -2 2 -86 -77 -186 -177 l-182 -181 -151 87 c-199 117 -473 238 -724
323 -1209 406 -2565 262 -3670 -390 -288 -170 -612 -414 -817 -614 l-61 -61
-29 21 c-15 11 -39 32 -53 47 -14 15 -68 60 -120 100 -309 234 -667 388 -1055
452 -157 25 -544 25 -705 0 -450 -72 -879 -277 -1201 -572 -39 -36 -75 -63
-79 -58 -4 4 -98 235 -210 513 -111 278 -204 507 -207 510 -2 2 -86 -77 -186
-177 l-182 -181 -145 85 c-425 249 -999 440 -1540 513 -1331 178 -2688 -259
-3667 -1184 l-73 -68 -38 31 c-22 16 -45 38 -53 47 -8 9 -59 51 -114 93 -308
233 -661 384 -1050 448 -157 26 -544 26 -700 0 -472 -79 -873 -270 -1211 -578
-447 -409 -711 -968 -749 -1585 l-7 -111 -511 218 -512 217 -3 -204 -2 -204
-2765 0 -2765 0 0 -40 0 -40 2765 0 2765 0 0 -200 c0 -110 2 -200 5 -200 3 0
229 95 502 211 274 116 503 213 509 216 8 3 14 -29 18 -104 38 -583 267 -1101
665 -1501 359 -362 776 -576 1296 -663 184 -31 503 -31 690 -1 546 89 1012
339 1367 732 309 342 497 737 574 1205 26 157 26 534 0 695 -63 393 -213 746
-451 1060 -40 52 -80 101 -89 109 -9 8 -31 32 -48 53 -37 47 -48 32 152 207
1188 1041 2818 1374 4288 876 253 -85 510 -200 704 -312 l137 -79 -104 -104
c-58 -58 -101 -107 -97 -111 4 -3 235 -98 514 -210 280 -112 508 -207 508
-211 0 -5 -30 -40 -66 -80 -299 -326 -495 -744 -570 -1218 -27 -171 -25 -509
5 -685 84 -503 299 -923 651 -1275 355 -356 766 -564 1285 -651 181 -30 503
-31 685 -1 518 84 937 297 1295 656 354 355 572 786 651 1286 26 161 26 530 0
685 -64 391 -204 727 -430 1035 -38 52 -96 123 -128 158 -32 34 -58 66 -58 70
0 26 284 269 496 424 1135 836 2627 1073 3955 629 247 -82 518 -202 713 -314
l145 -84 -104 -103 c-58 -58 -101 -107 -97 -111 4 -3 235 -98 514 -210 279
-112 508 -207 508 -211 0 -3 -28 -37 -63 -75 -296 -323 -496 -741 -569 -1193
-30 -182 -32 -518 -4 -690 82 -515 298 -944 655 -1300 357 -356 767 -564 1286
-651 186 -31 504 -31 690 0 519 87 929 295 1286 651 357 356 576 790 656 1300
26 171 24 519 -5 695 -53 315 -162 606 -324 864 -72 113 -191 271 -247 326
-23 21 -41 44 -41 51 0 17 210 210 375 345 853 699 1803 1013 3233 1067 l182
7 0 -197 c0 -109 3 -198 6 -198 9 0 1028 432 1037 440 5 5 -816 361 -1030 447
-10 4 -13 -41 -13 -205z m-24033 -1102 c449 -70 847 -259 1176 -558 616 -561
870 -1418 656 -2220 -104 -389 -298 -722 -589 -1012 -338 -337 -754 -546
-1245 -626 -153 -25 -485 -26 -645 -1 -735 114 -1349 565 -1685 1236 -90 181
-164 418 -202 646 -25 154 -25 495 1 655 76 485 290 905 636 1250 501 502
1212 738 1897 630z m9448 0 c381 -58 713 -198 1015 -426 783 -590 1092 -1616
763 -2529 -114 -316 -285 -585 -521 -823 -344 -345 -761 -557 -1257 -638 -153
-25 -496 -26 -650 0 -483 78 -912 295 -1247 630 -342 342 -551 752 -635 1246
-25 150 -25 512 0 665 82 492 290 899 636 1246 380 379 860 601 1406 649 125
11 347 2 490 -20z m9455 -1 c494 -79 895 -283 1246 -633 425 -424 654 -975
654 -1571 0 -1021 -690 -1910 -1680 -2164 -204 -52 -313 -65 -550 -65 -159 0
-244 4 -325 18 -488 79 -911 293 -1249 632 -351 350 -565 781 -637 1279 -18
128 -21 179 -16 350 3 114 12 241 22 295 83 485 290 887 629 1226 191 191 372
321 601 432 410 200 870 271 1305 201z"/>
<path d="M9074 32141 c-41 -37 -131 -71 -211 -78 -62 -6 -63 -6 -63 -36 l0
-30 64 7 c35 3 85 13 110 20 l46 14 0 -443 0 -444 -22 -15 c-16 -11 -46 -16
-105 -16 l-83 0 0 -30 0 -30 275 0 275 0 0 30 0 30 -84 0 c-138 0 -126 -54
-129 540 -2 497 -2 505 -22 507 -11 2 -34 -10 -51 -26z"/>
<path d="M10924 32141 c-41 -37 -131 -71 -211 -78 -62 -6 -63 -6 -63 -36 l0
-30 64 7 c35 3 85 13 110 20 l46 14 0 -443 0 -444 -22 -15 c-16 -11 -46 -16
-105 -16 l-83 0 0 -30 0 -30 275 0 275 0 0 30 0 30 -84 0 c-138 0 -126 -54
-129 540 -2 497 -2 505 -22 507 -11 2 -34 -10 -51 -26z"/>
<path d="M9675 31228 c-53 -30 -62 -102 -19 -145 22 -22 32 -25 76 -21 l51 5
-6 -53 c-6 -62 -45 -153 -87 -206 -53 -65 -26 -98 30 -37 115 126 147 369 58
444 -32 27 -71 32 -103 13z"/>
<path d="M18524 32141 c-41 -37 -131 -71 -211 -78 -62 -6 -63 -6 -63 -36 l0
-30 64 7 c35 3 85 13 110 20 l46 14 0 -443 0 -444 -22 -15 c-16 -11 -46 -16
-105 -16 l-83 0 0 -30 0 -30 275 0 275 0 0 30 0 30 -84 0 c-138 0 -126 -54
-129 540 -2 497 -2 505 -22 507 -11 2 -34 -10 -51 -26z"/>
<path d="M20283 32160 c-130 -27 -230 -142 -241 -276 -4 -57 -2 -65 21 -88 58
-57 157 -20 157 59 0 42 -44 95 -79 95 -25 0 -25 3 -7 38 53 102 193 146 294
93 78 -40 132 -163 119 -271 -16 -131 -81 -232 -327 -505 -122 -135 -180 -207
-180 -222 l0 -23 309 0 c286 0 310 1 315 18 2 9 12 67 21 127 9 61 18 118 21
128 4 13 -1 17 -20 17 -20 0 -27 -6 -32 -27 -21 -98 -30 -117 -54 -124 -14 -4
-113 -7 -220 -8 l-195 -1 106 103 c58 56 160 154 226 217 132 127 176 196 188
294 8 62 -14 160 -47 213 -64 105 -239 171 -375 143z"/>
<path d="M19125 31228 c-53 -30 -62 -102 -19 -145 22 -22 32 -25 76 -21 l51 5
-6 -53 c-6 -62 -45 -153 -87 -206 -53 -65 -26 -98 30 -37 115 126 147 369 58
444 -32 27 -71 32 -103 13z"/>
<path d="M27974 32141 c-41 -37 -131 -71 -211 -78 -62 -6 -63 -6 -63 -36 l0
-30 64 7 c35 3 85 13 110 20 l46 14 0 -443 0 -444 -22 -15 c-16 -11 -46 -16
-105 -16 l-83 0 0 -30 0 -30 275 0 275 0 0 30 0 30 -84 0 c-138 0 -126 -54
-129 540 -2 497 -2 505 -22 507 -11 2 -34 -10 -51 -26z"/>
<path d="M29760 32164 c-142 -27 -239 -119 -240 -227 0 -50 35 -87 84 -87 49
0 65 8 82 42 31 59 -4 127 -66 128 -24 1 -24 2 12 34 39 34 85 52 159 62 60 7
125 -27 152 -79 41 -81 16 -245 -49 -317 -36 -40 -92 -60 -170 -60 -23 0 -37
-6 -41 -16 -9 -25 16 -34 95 -34 113 0 167 -40 198 -148 23 -78 15 -221 -14
-279 -46 -90 -108 -120 -208 -102 -69 13 -119 36 -157 75 l-29 28 31 11 c43
14 62 37 68 82 4 32 0 44 -22 71 -23 27 -33 32 -71 32 -35 0 -51 -6 -71 -26
-23 -23 -25 -31 -21 -89 7 -110 78 -186 211 -227 227 -68 455 66 474 279 6 72
-7 125 -49 188 -34 52 -127 119 -181 131 l-31 7 47 23 c143 73 213 249 144
366 -27 47 -84 91 -147 113 -42 15 -152 26 -190 19z"/>
<path d="M28575 31228 c-53 -30 -62 -102 -19 -145 22 -22 32 -25 76 -21 l51 5
-6 -53 c-6 -62 -45 -153 -87 -206 -53 -65 -26 -98 30 -37 115 126 147 369 58
444 -32 27 -71 32 -103 13z"/>
<path d="M41593 34563 l-303 -3 0 -35 0 -35 683 0 c881 0 1201 -12 1607 -61
403 -48 789 -143 1105 -274 77 -31 341 -159 354 -172 3 -2 -40 -48 -94 -103
-60 -60 -95 -103 -90 -108 6 -5 237 -100 515 -212 278 -111 507 -204 509 -206
2 -2 -29 -38 -69 -81 -293 -316 -517 -733 -624 -1162 -62 -248 -80 -395 -79
-661 0 -204 4 -257 26 -400 59 -370 179 -698 366 -1005 364 -594 955 -1031
1621 -1200 259 -65 373 -79 675 -79 236 -1 288 2 410 22 715 118 1317 478
1744 1042 320 423 512 946 538 1464 l6 119 396 -6 c3219 -50 6516 -869 9156
-2275 3612 -1922 5874 -4778 6456 -8152 50 -291 109 -751 109 -852 l0 -28
-180 0 c-99 0 -180 -2 -180 -4 0 -2 98 -234 218 -517 l219 -514 -106 -6 c-230
-13 -429 -65 -661 -171 -135 -62 -348 -207 -429 -292 -19 -20 -40 -36 -46 -36
-5 0 -98 217 -205 483 -106 265 -200 497 -208 516 l-14 34 -157 -157 -158
-158 -54 49 c-106 96 -468 382 -669 529 -1579 1157 -3358 1817 -5610 2083
-602 71 -1120 108 -1990 143 -454 18 -2213 15 -3260 -6 -897 -17 -2139 -36
-2446 -36 l-181 0 -6 123 c-45 863 -532 1680 -1276 2137 -299 184 -635 307
-1001 367 -136 23 -186 26 -405 27 -213 0 -271 -3 -395 -23 -549 -86 -1040
-318 -1429 -676 l-84 -77 -206 510 c-113 281 -210 514 -214 518 -4 5 -90 -74
-190 -174 l-182 -181 -115 60 c-379 199 -813 329 -1331 398 -449 61 -1125 82
-2031 64 l-338 -6 0 -34 0 -33 703 0 c880 0 1208 -13 1602 -61 414 -51 767
-139 1085 -271 115 -48 335 -155 359 -175 3 -2 -40 -48 -94 -103 -54 -55 -97
-102 -93 -105 3 -3 234 -98 514 -211 280 -113 510 -207 512 -209 2 -2 -31 -41
-73 -87 -294 -319 -513 -728 -619 -1153 -62 -250 -80 -398 -79 -665 0 -204 4
-257 27 -400 73 -457 240 -857 506 -1210 433 -574 1033 -934 1755 -1052 122
-20 175 -23 405 -22 299 0 418 15 674 80 947 242 1696 993 1936 1942 39 156
70 360 77 508 l6 121 821 6 c452 4 1183 14 1626 23 1014 22 3075 25 3530 6
1004 -42 1686 -101 2393 -207 1993 -297 3634 -947 5078 -2010 210 -155 564
-435 654 -518 l50 -46 -130 -130 c-71 -72 -127 -132 -125 -135 3 -2 234 -96
514 -209 279 -113 511 -208 514 -212 3 -3 -17 -29 -45 -58 -136 -141 -277
-373 -351 -577 -37 -101 -76 -254 -94 -365 -18 -117 -15 -417 5 -540 90 -522
382 -960 825 -1234 245 -152 498 -234 810 -261 57 -5 107 -11 109 -14 2 -2
-91 -228 -207 -503 -117 -274 -214 -504 -217 -511 -4 -9 35 -12 176 -12 l181
0 0 -27 c0 -96 -49 -489 -96 -783 -545 -3354 -2750 -6235 -6263 -8182 -2376
-1317 -5263 -2122 -8206 -2288 -283 -16 -925 -39 -1096 -40 l-37 0 -6 118
c-11 179 -53 450 -97 625 -304 1192 -1305 2103 -2519 2293 -350 54 -638 54
-987 -1 -589 -93 -1160 -366 -1591 -763 -78 -72 -106 -92 -112 -82 -5 8 -99
239 -210 515 -111 275 -204 502 -206 505 -3 2 -94 -85 -202 -193 l-198 -198
-79 36 c-166 76 -424 153 -655 196 -379 71 -893 85 -1797 50 -297 -12 -636
-21 -752 -21 l-211 0 0 -42 0 -41 318 6 c174 4 481 13 682 21 929 37 1289 28
1710 -44 225 -38 490 -114 649 -187 l75 -34 -89 -89 -88 -88 34 -14 c19 -8
251 -102 516 -209 266 -107 483 -198 483 -203 0 -4 -42 -54 -94 -110 -394
-427 -663 -995 -763 -1611 -26 -159 -27 -189 -27 -470 0 -277 2 -313 27 -467
109 -676 402 -1254 877 -1728 479 -480 1064 -775 1745 -882 134 -21 183 -23
460 -23 289 1 321 3 473 28 824 136 1530 564 2019 1222 361 487 573 1078 608
1696 l7 116 364 6 c5071 93 9895 2068 12692 5197 1412 1580 2288 3363 2617
5329 44 265 104 749 105 844 0 16 17 17 225 17 124 0 225 2 225 5 0 2 -97 232
-215 511 -119 279 -214 509 -212 511 3 2 51 8 108 13 456 40 827 208 1134 515
538 538 677 1351 349 2040 -199 417 -575 754 -1014 908 -159 56 -375 97 -506
97 -68 0 -76 2 -72 18 3 9 100 241 217 514 116 274 211 500 211 503 0 3 -101
5 -225 5 -195 0 -225 2 -225 15 0 90 -64 592 -110 865 -403 2383 -1651 4533
-3645 6276 -2958 2587 -7399 4142 -12081 4230 l-361 7 -6 121 c-13 245 -74
541 -162 776 -138 371 -339 683 -621 965 -415 417 -922 672 -1524 766 -122 19
-183 23 -385 22 -208 0 -261 -3 -400 -26 -538 -86 -1014 -311 -1398 -660 -54
-49 -99 -88 -101 -86 -1 2 -94 231 -206 509 -112 278 -207 509 -212 515 -5 6
-80 -62 -191 -173 l-182 -182 -125 64 c-523 270 -1072 399 -1900 446 -197 11
-1030 19 -1487 13z m6617 -526 c683 -115 1279 -476 1684 -1022 268 -361 427
-746 497 -1205 31 -207 32 -505 0 -715 -87 -580 -339 -1083 -746 -1490 -656
-656 -1595 -916 -2488 -688 -926 235 -1652 958 -1892 1883 -61 235 -79 385
-79 655 0 203 3 262 23 380 95 580 339 1063 741 1465 402 402 903 656 1460
739 193 29 193 29 435 26 174 -3 250 -9 365 -28z m-11 -9447 c688 -116 1274
-468 1687 -1011 265 -349 433 -754 505 -1219 32 -205 32 -503 0 -715 -132
-871 -657 -1597 -1438 -1988 -382 -192 -895 -298 -1294 -268 -630 47 -1174
275 -1614 675 -453 412 -734 934 -836 1556 -33 198 -33 564 -1 765 94 578 337
1059 739 1463 442 443 980 696 1628 766 22 2 144 2 270 1 176 -3 259 -9 354
-25z m18761 -5624 c496 -81 921 -365 1189 -795 166 -264 251 -568 251 -891 0
-656 -363 -1237 -958 -1534 -227 -114 -475 -170 -747 -170 -218 0 -394 31
-593 104 -511 187 -922 642 -1057 1171 -145 567 1 1151 397 1584 260 286 649
489 1023 534 50 6 104 13 120 15 53 8 287 -4 375 -18z m-18720 -12861 c520
-82 987 -279 1387 -584 635 -484 1040 -1165 1170 -1966 25 -157 27 -191 27
-450 0 -255 -3 -295 -27 -445 -99 -613 -355 -1151 -759 -1592 -483 -529 -1097
-854 -1820 -965 -151 -23 -204 -26 -418 -26 -217 0 -266 3 -425 27 -914 138
-1686 647 -2166 1427 -256 417 -403 888 -440 1416 -26 359 44 820 180 1193
382 1047 1300 1797 2406 1964 219 33 238 34 500 30 176 -2 253 -8 385 -29z"/>
<path d="M46414 32141 c-41 -37 -131 -71 -211 -78 -62 -6 -63 -6 -63 -36 l0
-30 64 7 c35 3 85 13 110 20 l46 14 0 -443 0 -444 -22 -15 c-16 -11 -46 -16
-105 -16 l-83 0 0 -30 0 -30 275 0 275 0 0 30 0 30 -84 0 c-138 0 -126 -54
-129 540 -2 497 -2 505 -22 507 -11 2 -34 -10 -51 -26z"/>
<path d="M48036 31790 c-57 -17 -88 -63 -125 -183 -22 -73 -21 -87 8 -87 15 0
25 19 45 84 29 93 65 146 100 146 64 0 61 -61 -19 -380 -68 -272 -73 -298 -53
-318 18 -18 63 -14 82 7 11 12 42 116 77 258 51 204 65 245 96 291 61 89 142
141 224 142 116 1 117 -134 3 -442 -19 -50 -34 -109 -34 -132 0 -79 58 -136
140 -136 52 0 88 19 130 67 66 75 108 208 66 208 -13 0 -24 -16 -41 -63 -12
-34 -35 -80 -50 -102 -31 -45 -90 -78 -114 -63 -31 20 -24 78 28 227 84 242
95 338 47 408 -32 48 -86 71 -165 71 -82 0 -149 -27 -208 -85 -24 -23 -44 -40
-45 -37 -2 2 -12 22 -23 44 -31 60 -106 94 -169 75z"/>
<path d="M49152 31558 c-39 -22 -70 -32 -117 -36 -61 -4 -65 -6 -65 -30 0 -24
1 -25 68 -19 37 2 75 8 85 12 16 7 17 -12 17 -303 0 -353 9 -322 -96 -322 -62
0 -64 -1 -64 -25 l0 -25 215 0 215 0 0 25 c0 24 -2 25 -67 25 -38 0 -74 4 -80
8 -10 6 -13 94 -15 363 -3 406 3 385 -96 327z"/>
<path d="M47015 31228 c-53 -30 -62 -102 -19 -145 22 -22 32 -25 76 -21 l51 5
-6 -53 c-6 -62 -45 -153 -87 -206 -53 -65 -26 -98 30 -37 115 126 147 369 58
444 -32 27 -71 32 -103 13z"/>
<path d="M46323 22710 c-130 -27 -230 -142 -241 -276 -4 -57 -2 -65 21 -88 58
-57 157 -20 157 59 0 42 -44 95 -79 95 -25 0 -25 3 -7 38 53 102 193 146 294
93 78 -40 132 -163 119 -271 -16 -131 -81 -232 -327 -505 -122 -135 -180 -207
-180 -222 l0 -23 309 0 c286 0 310 1 315 18 2 9 12 67 21 127 9 61 18 118 21
128 4 13 -1 17 -20 17 -20 0 -27 -6 -32 -27 -21 -98 -30 -117 -54 -124 -14 -4
-113 -7 -220 -8 l-195 -1 106 103 c58 56 160 154 226 217 132 127 176 196 188
294 8 62 -14 160 -47 213 -64 105 -239 171 -375 143z"/>
<path d="M48036 22340 c-57 -17 -88 -63 -125 -183 -22 -73 -21 -87 8 -87 15 0
25 19 45 84 29 93 65 146 100 146 64 0 61 -61 -19 -380 -68 -272 -73 -298 -53
-318 18 -18 63 -14 82 7 11 12 42 116 77 258 51 204 65 245 96 291 61 89 142
141 224 142 116 1 117 -134 3 -442 -19 -50 -34 -109 -34 -132 0 -79 58 -136
140 -136 52 0 88 19 130 67 66 75 108 208 66 208 -13 0 -24 -16 -41 -63 -12
-34 -35 -80 -50 -102 -31 -45 -90 -78 -114 -63 -31 20 -24 78 28 227 84 242
95 338 47 408 -32 48 -86 71 -165 71 -82 0 -149 -27 -208 -85 -24 -23 -44 -40
-45 -37 -2 2 -12 22 -23 44 -31 60 -106 94 -169 75z"/>
<path d="M49068 22125 c-58 -21 -96 -55 -123 -109 -43 -87 -26 -156 39 -156
40 0 66 26 66 67 0 30 -26 63 -48 63 -41 0 52 86 103 96 123 23 215 -53 215
-179 0 -92 -32 -141 -227 -338 -95 -96 -173 -183 -173 -192 0 -16 22 -17 245
-17 135 0 245 1 245 3 1 1 9 50 19 110 l17 107 -23 0 c-17 0 -24 -7 -29 -27
-14 -67 -21 -77 -52 -85 -18 -5 -90 -7 -161 -6 l-128 3 95 80 c53 44 123 103
156 131 119 99 157 180 135 286 -15 70 -84 140 -160 162 -64 19 -160 20 -211
1z"/>
<path d="M47015 21778 c-53 -30 -62 -102 -19 -145 22 -22 32 -25 76 -21 l51 5
-6 -53 c-6 -62 -45 -153 -87 -206 -53 -65 -26 -98 30 -37 115 126 147 369 58
444 -32 27 -71 32 -103 13z"/>
<path d="M66666 17983 c-3 -10 -19 -144 -37 -298 -17 -154 -33 -282 -35 -284
-2 -2 -132 22 -289 53 -157 32 -293 55 -301 52 -9 -3 -14 -15 -12 -28 2 -18
49 -42 271 -142 147 -66 267 -124 267 -129 0 -5 -63 -120 -140 -256 -77 -136
-140 -257 -140 -269 0 -17 6 -22 24 -22 19 0 68 49 217 215 107 118 197 215
201 215 3 0 95 -97 203 -215 152 -166 202 -215 221 -215 18 0 24 5 24 23 0 12
-65 135 -144 272 -79 138 -141 253 -137 257 4 4 126 61 271 127 211 95 266
124 268 141 2 12 -3 23 -13 26 -9 4 -145 -19 -301 -51 -156 -32 -286 -56 -289
-53 -3 2 -19 124 -35 269 -40 348 -36 329 -65 329 -14 0 -26 -7 -29 -17z"/>
<path d="M45745 3634 c-5 -1 -58 -6 -117 -9 l-108 -7 0 -29 c0 -25 4 -29 29
-29 46 0 88 -19 95 -43 10 -39 7 -517 -4 -538 -9 -15 -22 -19 -65 -19 -54 0
-55 0 -55 -30 l0 -30 190 0 190 0 0 30 c0 30 -1 30 -55 30 -45 0 -56 4 -66 21
-7 14 -10 88 -7 227 l3 207 31 55 c23 41 45 63 84 88 99 59 184 34 209 -62 14
-58 15 -490 1 -517 -9 -15 -22 -19 -65 -19 -54 0 -55 0 -55 -30 l0 -30 190 0
190 0 0 30 c0 30 -1 30 -55 30 -45 0 -56 4 -66 21 -7 14 -10 88 -7 227 l3 207
31 55 c39 69 115 120 181 120 55 0 100 -38 113 -95 13 -56 13 -491 0 -516 -9
-15 -22 -19 -65 -19 -54 0 -55 0 -55 -30 l0 -30 190 0 190 0 0 30 c0 30 -1 30
-53 30 -29 0 -58 5 -65 12 -9 9 -12 78 -12 247 0 142 -5 252 -11 276 -26 94
-92 137 -214 138 -60 0 -80 -4 -124 -29 -30 -16 -68 -48 -86 -72 -32 -41 -34
-42 -41 -20 -24 79 -98 121 -211 121 -92 0 -153 -29 -203 -96 l-35 -47 -5 73
c-3 42 -9 73 -15 71z"/>
<path d="M48056 3630 c-57 -17 -88 -63 -125 -183 -22 -73 -21 -87 8 -87 15 0
25 19 45 84 29 93 65 146 100 146 64 0 61 -61 -19 -380 -68 -272 -73 -298 -53
-318 18 -18 63 -14 82 7 11 12 42 116 77 258 51 204 65 245 96 291 61 89 142
141 224 142 116 1 117 -134 3 -442 -19 -50 -34 -109 -34 -132 0 -79 58 -136
140 -136 52 0 88 19 130 67 66 75 108 208 66 208 -13 0 -24 -16 -41 -63 -12
-34 -35 -80 -50 -102 -31 -45 -90 -78 -114 -63 -31 20 -24 78 28 227 84 242
95 338 47 408 -32 48 -86 71 -165 71 -82 0 -149 -27 -208 -85 -24 -23 -44 -40
-45 -37 -2 2 -12 22 -23 44 -31 60 -106 94 -169 75z"/>
<path d="M48981 3142 c-26 -26 -71 -125 -71 -157 0 -9 10 -15 25 -15 15 0 25
6 25 15 0 8 9 39 21 70 23 62 56 88 84 65 23 -19 19 -51 -30 -249 -25 -100
-45 -191 -45 -201 0 -27 32 -42 64 -30 17 6 28 21 35 47 5 21 22 85 36 142 15
58 33 120 41 140 23 54 80 117 127 140 52 25 85 27 115 5 33 -22 29 -78 -18
-264 -22 -88 -40 -168 -40 -179 0 -28 32 -44 64 -31 28 10 33 25 82 224 40
161 112 250 213 263 93 13 105 -59 41 -248 -22 -65 -40 -131 -40 -147 0 -60
75 -111 139 -95 63 14 141 113 141 178 0 44 -29 29 -55 -30 -13 -30 -36 -66
-51 -80 -31 -29 -72 -33 -81 -9 -3 9 13 73 37 142 52 154 60 223 30 270 -54
86 -213 81 -306 -9 l-31 -30 -22 36 c-25 43 -72 65 -138 65 -53 0 -137 -34
-167 -69 -25 -27 -29 -27 -42 7 -13 34 -67 62 -119 62 -27 0 -44 -7 -64 -28z"/>
<path d="M47035 3068 c-53 -30 -62 -102 -19 -145 22 -22 32 -25 76 -21 l51 5
-6 -53 c-6 -62 -45 -153 -87 -206 -53 -65 -26 -98 30 -37 115 126 147 369 58
444 -32 27 -71 32 -103 13z"/>
<path d="M2354 32820 c-30 -12 -60 -53 -84 -116 -26 -71 -26 -104 -1 -104 16
0 24 13 37 61 26 94 77 142 112 107 7 -7 12 -25 12 -40 0 -38 -158 -669 -172
-685 -6 -7 -25 -13 -43 -13 -32 0 -52 -21 -39 -41 3 -5 70 -9 150 -9 l144 0 0
25 c0 22 -4 25 -39 25 -22 0 -43 5 -46 11 -6 8 41 226 51 238 1 1 19 -10 40
-25 108 -83 303 14 391 194 24 50 28 68 28 153 0 88 -2 99 -28 138 -68 102
-183 117 -294 38 l-43 -30 -22 28 c-36 46 -103 66 -154 45z m405 -64 c31 -33
37 -95 18 -187 -39 -189 -119 -299 -217 -299 -36 0 -85 42 -95 82 -8 33 61
304 87 341 12 16 41 42 66 58 59 37 109 39 141 5z"/>
<path d="M3192 32694 c-24 -12 -68 -26 -98 -30 -48 -6 -54 -9 -54 -30 0 -23 3
-24 43 -18 23 3 57 10 75 14 l32 8 0 -258 c0 -178 -3 -261 -11 -266 -6 -3 -40
-9 -75 -12 -54 -4 -64 -8 -64 -23 0 -18 11 -19 195 -19 188 0 195 1 195 20 0
17 -7 20 -49 20 -27 0 -61 4 -75 10 l-26 10 0 300 0 300 -22 -1 c-13 -1 -43
-12 -66 -25z"/>
<path d="M56720 31982 c0 -11 12 -22 34 -30 22 -8 39 -24 49 -45 23 -49 157
-386 157 -395 0 -5 -88 -89 -195 -188 -108 -98 -198 -189 -201 -201 -12 -45
14 -71 59 -59 12 3 98 91 192 195 93 105 170 189 171 188 1 -1 32 -78 69 -172
76 -193 92 -215 160 -215 24 0 46 4 50 9 3 5 -4 24 -14 43 -11 18 -90 210
-175 427 -85 216 -163 402 -173 414 -27 29 -76 47 -133 47 -41 0 -50 -3 -50
-18z"/>
<path d="M57582 31534 c-24 -12 -68 -26 -98 -30 -48 -6 -54 -9 -54 -30 0 -23
3 -24 43 -18 23 3 57 10 75 14 l32 8 0 -258 c0 -178 -3 -261 -11 -266 -6 -3
-40 -9 -75 -12 -54 -4 -64 -8 -64 -23 0 -18 11 -19 195 -19 188 0 195 1 195
20 0 17 -7 20 -49 20 -27 0 -61 4 -75 10 l-26 10 0 300 0 300 -22 -1 c-13 -1
-43 -12 -66 -25z"/>
<path d="M37549 31521 c-60 -61 -24 -151 61 -151 54 0 90 34 90 85 0 48 -45
95 -90 95 -22 0 -41 -9 -61 -29z"/>
<path d="M38289 31521 c-60 -61 -24 -151 61 -151 54 0 90 34 90 85 0 48 -45
95 -90 95 -22 0 -41 -9 -61 -29z"/>
<path d="M39029 31521 c-60 -61 -24 -151 61 -151 54 0 90 34 90 85 0 48 -45
95 -90 95 -22 0 -41 -9 -61 -29z"/>
<path d="M14200 26312 c0 -11 12 -22 34 -30 22 -8 39 -24 49 -45 23 -49 157
-386 157 -395 0 -5 -88 -89 -195 -188 -108 -98 -198 -189 -201 -201 -12 -45
14 -71 59 -59 12 3 98 91 192 195 93 105 170 189 171 188 1 -1 32 -78 69 -172
76 -193 92 -215 160 -215 24 0 46 4 50 9 3 5 -4 24 -14 43 -11 18 -90 210
-175 427 -85 216 -163 402 -173 414 -27 29 -76 47 -133 47 -41 0 -50 -3 -50
-18z"/>
<path d="M23650 26312 c0 -11 12 -22 34 -30 22 -8 39 -24 49 -45 23 -49 157
-386 157 -395 0 -5 -88 -89 -195 -188 -108 -98 -198 -189 -201 -201 -12 -45
14 -71 59 -59 12 3 98 91 192 195 93 105 170 189 171 188 1 -1 32 -78 69 -172
76 -193 92 -215 160 -215 24 0 46 4 50 9 3 5 -4 24 -14 43 -11 18 -90 210
-175 427 -85 216 -163 402 -173 414 -27 29 -76 47 -133 47 -41 0 -50 -3 -50
-18z"/>
<path d="M14962 25868 c-59 -28 -94 -77 -100 -137 -4 -42 -1 -50 19 -65 30
-21 52 -20 72 2 25 28 21 69 -8 88 -25 16 -25 17 -8 37 10 11 38 29 62 39 121
55 247 -51 213 -178 -19 -71 -55 -115 -208 -255 -89 -80 -144 -138 -144 -150
0 -18 11 -19 219 -19 l219 0 11 68 c6 37 14 79 17 95 5 24 2 27 -19 27 -21 0
-25 -6 -31 -40 -8 -54 -30 -61 -174 -58 l-115 3 130 102 c152 119 188 157 203
215 29 105 -32 208 -140 238 -62 17 -170 11 -218 -12z"/>
<path d="M24412 25868 c-59 -28 -94 -77 -100 -137 -4 -42 -1 -50 19 -65 30
-21 52 -20 72 2 25 28 21 69 -8 88 -25 16 -25 17 -8 37 10 11 38 29 62 39 121
55 247 -51 213 -178 -19 -71 -55 -115 -208 -255 -89 -80 -144 -138 -144 -150
0 -18 11 -19 219 -19 l219 0 11 68 c6 37 14 79 17 95 5 24 2 27 -19 27 -21 0
-25 -6 -31 -40 -8 -54 -30 -61 -174 -58 l-115 3 130 102 c152 119 188 157 203
215 29 105 -32 208 -140 238 -62 17 -170 11 -218 -12z"/>
<path d="M34360 25311 l0 -208 -192 -7 c-464 -17 -936 -70 -1303 -147 -840
-177 -1535 -530 -2169 -1104 -55 -49 -121 -109 -147 -133 l-48 -43 -63 59
c-249 230 -625 430 -973 516 -356 88 -774 88 -1130 0 -354 -88 -718 -282 -984
-526 -41 -37 -78 -65 -81 -61 -4 5 -98 235 -210 513 -112 278 -205 507 -207
510 -2 2 -86 -77 -186 -177 l-182 -181 -145 85 c-190 112 -509 254 -740 331
-645 215 -1377 275 -2065 171 -709 -108 -1393 -390 -1968 -812 -183 -134 -320
-248 -439 -364 l-66 -66 -40 31 c-21 17 -45 39 -53 48 -26 31 -213 168 -319
233 -589 360 -1345 433 -2000 192 -272 -101 -547 -268 -754 -458 -69 -64 -70
-64 -82 -41 -6 13 -100 244 -209 513 -108 270 -199 492 -201 495 -3 2 -84 -76
-182 -173 -97 -97 -181 -177 -186 -177 -5 0 -79 40 -165 89 -804 458 -1818
637 -2786 490 -410 -62 -841 -193 -1221 -370 -420 -195 -873 -503 -1186 -807
l-67 -65 -53 46 c-446 396 -970 596 -1558 597 -510 0 -984 -157 -1384 -458
-549 -414 -877 -1027 -921 -1724 -4 -60 -10 -108 -13 -108 -4 0 -234 96 -512
214 l-505 215 -3 -205 -2 -204 -2765 0 -2765 0 0 -35 0 -35 2765 0 2765 0 0
-206 c0 -162 3 -205 13 -201 7 2 236 100 510 216 273 116 499 211 501 211 2 0
7 -48 11 -107 38 -589 269 -1106 675 -1513 354 -354 788 -572 1295 -651 197
-31 484 -31 675 0 520 84 934 294 1296 655 353 354 568 776 651 1281 25 156
25 533 0 695 -71 449 -266 861 -573 1208 -56 63 -68 43 126 214 1065 941 2519
1316 3889 1002 380 -87 782 -241 1098 -422 l152 -87 -105 -106 -106 -106 224
-91 c123 -49 355 -143 516 -208 160 -65 292 -122 292 -125 0 -4 -28 -38 -63
-76 -301 -328 -498 -748 -573 -1223 -27 -171 -25 -509 5 -685 84 -500 297
-920 644 -1268 356 -358 788 -576 1297 -658 191 -31 489 -31 680 0 519 84 934
294 1295 656 352 351 571 785 651 1285 26 161 26 529 0 685 -75 460 -271 878
-558 1194 -32 35 -58 67 -58 71 0 4 28 34 63 66 769 718 1728 1134 2766 1198
810 51 1636 -133 2318 -518 l163 -91 -106 -106 -106 -106 134 -55 c73 -30 305
-124 516 -208 210 -85 382 -157 382 -161 0 -4 -28 -37 -63 -75 -295 -321 -494
-737 -569 -1189 -29 -178 -31 -525 -4 -695 82 -514 299 -945 656 -1301 357
-356 776 -567 1290 -650 191 -31 489 -31 680 0 514 83 933 294 1290 650 357
356 574 787 656 1301 28 171 25 518 -4 695 -64 383 -206 720 -431 1020 -41 55
-98 126 -128 157 -29 31 -53 61 -53 66 0 16 223 220 380 349 840 684 1797
1006 3150 1058 85 3 179 8 208 11 l52 5 0 -200 c0 -111 2 -201 5 -201 3 0 787
332 993 420 37 16 49 26 40 31 -17 9 -1029 439 -1034 439 -2 0 -4 -94 -4 -209z
m-24021 -1101 c657 -105 1222 -482 1569 -1048 154 -252 249 -515 303 -837 30
-181 30 -456 0 -640 -80 -497 -286 -908 -629 -1253 -339 -340 -756 -554 -1237
-634 -174 -29 -495 -31 -660 -4 -464 75 -858 263 -1187 564 -378 346 -620 798
-705 1317 -25 154 -25 505 1 660 80 487 291 901 635 1246 385 385 867 605
1431 653 95 8 358 -5 479 -24z m9450 0 c1093 -174 1892 -1106 1893 -2205 1
-594 -233 -1155 -658 -1579 -339 -340 -767 -556 -1254 -632 -157 -25 -480 -25
-635 0 -244 38 -484 114 -686 217 -775 394 -1252 1192 -1226 2054 14 482 165
909 459 1298 85 113 303 328 423 418 355 266 745 413 1205 453 94 8 358 -5
479 -24z m9449 -1 c585 -93 1091 -398 1446 -869 291 -385 446 -850 446 -1335
0 -857 -478 -1619 -1259 -2010 -177 -88 -429 -166 -651 -201 -160 -25 -480
-25 -640 0 -388 61 -722 203 -1034 440 -711 539 -1030 1460 -806 2327 220 851
930 1501 1796 1645 230 38 479 39 702 3z"/>
<path d="M8983 22710 c-130 -27 -230 -142 -241 -276 -4 -57 -2 -65 21 -88 58
-57 157 -20 157 59 0 42 -44 95 -79 95 -25 0 -25 3 -7 38 53 102 193 146 294
93 78 -40 132 -163 119 -271 -16 -131 -81 -232 -327 -505 -122 -135 -180 -207
-180 -222 l0 -23 309 0 c286 0 310 1 315 18 2 9 12 67 21 127 9 61 18 118 21
128 4 13 -1 17 -20 17 -20 0 -27 -6 -32 -27 -21 -98 -30 -117 -54 -124 -14 -4
-113 -7 -220 -8 l-195 -1 106 103 c58 56 160 154 226 217 132 127 176 196 188
294 8 62 -14 160 -47 213 -64 105 -239 171 -375 143z"/>
<path d="M10924 22691 c-41 -37 -131 -71 -211 -78 -62 -6 -63 -6 -63 -36 l0
-30 64 7 c35 3 85 13 110 20 l46 14 0 -443 0 -444 -22 -15 c-16 -11 -46 -16
-105 -16 l-83 0 0 -30 0 -30 275 0 275 0 0 30 0 30 -84 0 c-138 0 -126 -54
-129 540 -2 497 -2 505 -22 507 -11 2 -34 -10 -51 -26z"/>
<path d="M9675 21778 c-53 -30 -62 -102 -19 -145 22 -22 32 -25 76 -21 l51 5
-6 -53 c-6 -62 -45 -153 -87 -206 -53 -65 -26 -98 30 -37 115 126 147 369 58
444 -32 27 -71 32 -103 13z"/>
<path d="M18433 22710 c-130 -27 -230 -142 -241 -276 -4 -57 -2 -65 21 -88 58
-57 157 -20 157 59 0 42 -44 95 -79 95 -25 0 -25 3 -7 38 53 102 193 146 294
93 78 -40 132 -163 119 -271 -16 -131 -81 -232 -327 -505 -122 -135 -180 -207
-180 -222 l0 -23 309 0 c286 0 310 1 315 18 2 9 12 67 21 127 9 61 18 118 21
128 4 13 -1 17 -20 17 -20 0 -27 -6 -32 -27 -21 -98 -30 -117 -54 -124 -14 -4
-113 -7 -220 -8 l-195 -1 106 103 c58 56 160 154 226 217 132 127 176 196 188
294 8 62 -14 160 -47 213 -64 105 -239 171 -375 143z"/>
<path d="M20283 22710 c-130 -27 -230 -142 -241 -276 -4 -57 -2 -65 21 -88 58
-57 157 -20 157 59 0 42 -44 95 -79 95 -25 0 -25 3 -7 38 53 102 193 146 294
93 78 -40 132 -163 119 -271 -16 -131 -81 -232 -327 -505 -122 -135 -180 -207
-180 -222 l0 -23 309 0 c286 0 310 1 315 18 2 9 12 67 21 127 9 61 18 118 21
128 4 13 -1 17 -20 17 -20 0 -27 -6 -32 -27 -21 -98 -30 -117 -54 -124 -14 -4
-113 -7 -220 -8 l-195 -1 106 103 c58 56 160 154 226 217 132 127 176 196 188
294 8 62 -14 160 -47 213 -64 105 -239 171 -375 143z"/>
<path d="M19125 21778 c-53 -30 -62 -102 -19 -145 22 -22 32 -25 76 -21 l51 5
-6 -53 c-6 -62 -45 -153 -87 -206 -53 -65 -26 -98 30 -37 115 126 147 369 58
444 -32 27 -71 32 -103 13z"/>
<path d="M27883 22710 c-130 -27 -230 -142 -241 -276 -4 -57 -2 -65 21 -88 58
-57 157 -20 157 59 0 42 -44 95 -79 95 -25 0 -25 3 -7 38 53 102 193 146 294
93 78 -40 132 -163 119 -271 -16 -131 -81 -232 -327 -505 -122 -135 -180 -207
-180 -222 l0 -23 309 0 c286 0 310 1 315 18 2 9 12 67 21 127 9 61 18 118 21
128 4 13 -1 17 -20 17 -20 0 -27 -6 -32 -27 -21 -98 -30 -117 -54 -124 -14 -4
-113 -7 -220 -8 l-195 -1 106 103 c58 56 160 154 226 217 132 127 176 196 188
294 8 62 -14 160 -47 213 -64 105 -239 171 -375 143z"/>
<path d="M29760 22714 c-142 -27 -239 -119 -240 -227 0 -50 35 -87 84 -87 49
0 65 8 82 42 31 59 -4 127 -66 128 -24 1 -24 2 12 34 39 34 85 52 159 62 60 7
125 -27 152 -79 41 -81 16 -245 -49 -317 -36 -40 -92 -60 -170 -60 -23 0 -37
-6 -41 -16 -9 -25 16 -34 95 -34 113 0 167 -40 198 -148 23 -78 15 -221 -14
-279 -46 -90 -108 -120 -208 -102 -69 13 -119 36 -157 75 l-29 28 31 11 c43
14 62 37 68 82 4 32 0 44 -22 71 -23 27 -33 32 -71 32 -35 0 -51 -6 -71 -26
-23 -23 -25 -31 -21 -89 7 -110 78 -186 211 -227 227 -68 455 66 474 279 6 72
-7 125 -49 188 -34 52 -127 119 -181 131 l-31 7 47 23 c143 73 213 249 144
366 -27 47 -84 91 -147 113 -42 15 -152 26 -190 19z"/>
<path d="M28575 21778 c-53 -30 -62 -102 -19 -145 22 -22 32 -25 76 -21 l51 5
-6 -53 c-6 -62 -45 -153 -87 -206 -53 -65 -26 -98 30 -37 115 126 147 369 58
444 -32 27 -71 32 -103 13z"/>
<path d="M56720 23482 c0 -11 12 -22 34 -30 22 -8 39 -24 49 -45 23 -49 157
-386 157 -395 0 -5 -88 -89 -195 -188 -108 -98 -198 -189 -201 -201 -12 -45
14 -71 59 -59 12 3 98 91 192 195 93 105 170 189 171 188 1 -1 32 -78 69 -172
76 -193 92 -215 160 -215 24 0 46 4 50 9 3 5 -4 24 -14 43 -11 18 -90 210
-175 427 -85 216 -163 402 -173 414 -27 29 -76 47 -133 47 -41 0 -50 -3 -50
-18z"/>
<path d="M2354 23370 c-30 -12 -60 -53 -84 -116 -26 -71 -26 -104 -1 -104 16
0 24 13 37 61 26 94 77 142 112 107 7 -7 12 -25 12 -40 0 -38 -158 -669 -172
-685 -6 -7 -25 -13 -43 -13 -32 0 -52 -21 -39 -41 3 -5 70 -9 150 -9 l144 0 0
25 c0 22 -4 25 -39 25 -22 0 -43 5 -46 11 -6 8 41 226 51 238 1 1 19 -10 40
-25 108 -83 303 14 391 194 24 50 28 68 28 153 0 88 -2 99 -28 138 -68 102
-183 117 -294 38 l-43 -30 -22 28 c-36 46 -103 66 -154 45z m405 -64 c31 -33
37 -95 18 -187 -39 -189 -119 -299 -217 -299 -36 0 -85 42 -95 82 -8 33 61
304 87 341 12 16 41 42 66 58 59 37 109 39 141 5z"/>
<path d="M3092 23248 c-59 -28 -94 -77 -100 -137 -4 -42 -1 -50 19 -65 30 -21
52 -20 72 2 25 28 21 69 -8 88 -25 16 -25 17 -8 37 10 11 38 29 62 39 121 55
247 -51 213 -178 -19 -71 -55 -115 -208 -255 -89 -80 -144 -138 -144 -150 0
-18 11 -19 219 -19 l219 0 11 68 c6 37 14 79 17 95 5 24 2 27 -19 27 -21 0
-25 -6 -31 -40 -8 -54 -30 -61 -174 -58 l-115 3 130 102 c152 119 188 157 203
215 29 105 -32 208 -140 238 -62 17 -170 11 -218 -12z"/>
<path d="M57482 23038 c-59 -28 -94 -77 -100 -137 -4 -42 -1 -50 19 -65 30
-21 52 -20 72 2 25 28 21 69 -8 88 -25 16 -25 17 -8 37 10 11 38 29 62 39 121
55 247 -51 213 -178 -19 -71 -55 -115 -208 -255 -89 -80 -144 -138 -144 -150
0 -18 11 -19 219 -19 l219 0 11 68 c6 37 14 79 17 95 5 24 2 27 -19 27 -21 0
-25 -6 -31 -40 -8 -54 -30 -61 -174 -58 l-115 3 130 102 c152 119 188 157 203
215 29 105 -32 208 -140 238 -62 17 -170 11 -218 -12z"/>
<path d="M37549 22071 c-60 -61 -24 -151 61 -151 54 0 90 34 90 85 0 48 -45
95 -90 95 -22 0 -41 -9 -61 -29z"/>
<path d="M38289 22071 c-60 -61 -24 -151 61 -151 54 0 90 34 90 85 0 48 -45
95 -90 95 -22 0 -41 -9 -61 -29z"/>
<path d="M39029 22071 c-60 -61 -24 -151 61 -151 54 0 90 34 90 85 0 48 -45
95 -90 95 -22 0 -41 -9 -61 -29z"/>
<path d="M9939 12781 c-60 -61 -24 -151 61 -151 54 0 90 34 90 85 0 48 -45 95
-90 95 -22 0 -41 -9 -61 -29z"/>
<path d="M19389 12781 c-60 -61 -24 -151 61 -151 54 0 90 34 90 85 0 48 -45
95 -90 95 -22 0 -41 -9 -61 -29z"/>
<path d="M28839 12781 c-60 -61 -24 -151 61 -151 54 0 90 34 90 85 0 48 -45
95 -90 95 -22 0 -41 -9 -61 -29z"/>
<path d="M47739 12781 c-60 -61 -24 -151 61 -151 54 0 90 34 90 85 0 48 -45
95 -90 95 -22 0 -41 -9 -61 -29z"/>
<path d="M37639 12621 c-60 -61 -24 -151 61 -151 54 0 90 34 90 85 0 48 -45
95 -90 95 -22 0 -41 -9 -61 -29z"/>
<path d="M9939 12121 c-60 -61 -24 -151 61 -151 54 0 90 34 90 85 0 48 -45 95
-90 95 -22 0 -41 -9 -61 -29z"/>
<path d="M19389 12121 c-60 -61 -24 -151 61 -151 54 0 90 34 90 85 0 48 -45
95 -90 95 -22 0 -41 -9 -61 -29z"/>
<path d="M28839 12121 c-60 -61 -24 -151 61 -151 54 0 90 34 90 85 0 48 -45
95 -90 95 -22 0 -41 -9 -61 -29z"/>
<path d="M38289 12121 c-60 -61 -24 -151 61 -151 54 0 90 34 90 85 0 48 -45
95 -90 95 -22 0 -41 -9 -61 -29z"/>
<path d="M47739 12121 c-60 -61 -24 -151 61 -151 54 0 90 34 90 85 0 48 -45
95 -90 95 -22 0 -41 -9 -61 -29z"/>
<path d="M38929 11621 c-60 -61 -24 -151 61 -151 54 0 90 34 90 85 0 48 -45
95 -90 95 -22 0 -41 -9 -61 -29z"/>
<path d="M9939 11451 c-60 -61 -24 -151 61 -151 54 0 90 34 90 85 0 48 -45 95
-90 95 -22 0 -41 -9 -61 -29z"/>
<path d="M19389 11451 c-60 -61 -24 -151 61 -151 54 0 90 34 90 85 0 48 -45
95 -90 95 -22 0 -41 -9 -61 -29z"/>
<path d="M28839 11451 c-60 -61 -24 -151 61 -151 54 0 90 34 90 85 0 48 -45
95 -90 95 -22 0 -41 -9 -61 -29z"/>
<path d="M47739 11451 c-60 -61 -24 -151 61 -151 54 0 90 34 90 85 0 48 -45
95 -90 95 -22 0 -41 -9 -61 -29z"/>
<path d="M13960 7412 c0 -11 12 -22 34 -30 22 -8 39 -24 49 -45 23 -49 157
-386 157 -395 0 -5 -88 -89 -195 -188 -108 -98 -198 -189 -201 -201 -12 -45
14 -71 59 -59 12 3 98 91 192 195 93 105 170 189 171 188 1 -1 32 -78 69 -172
76 -193 92 -215 160 -215 24 0 46 4 50 9 3 5 -4 24 -14 43 -11 18 -90 210
-175 427 -85 216 -163 402 -173 414 -27 29 -76 47 -133 47 -41 0 -50 -3 -50
-18z"/>
<path d="M23410 7412 c0 -11 12 -22 34 -30 22 -8 39 -24 49 -45 23 -49 157
-386 157 -395 0 -5 -88 -89 -195 -188 -108 -98 -198 -189 -201 -201 -12 -45
14 -71 59 -59 12 3 98 91 192 195 93 105 170 189 171 188 1 -1 32 -78 69 -172
76 -193 92 -215 160 -215 24 0 46 4 50 9 3 5 -4 24 -14 43 -11 18 -90 210
-175 427 -85 216 -163 402 -173 414 -27 29 -76 47 -133 47 -41 0 -50 -3 -50
-18z"/>
<path d="M14671 6759 c-27 -26 -60 -94 -61 -126 0 -16 6 -23 20 -23 14 0 22
10 30 39 11 44 45 91 65 91 7 0 18 -7 25 -15 11 -13 6 -46 -29 -191 -24 -96
-40 -181 -37 -189 7 -18 60 -20 73 -2 5 6 24 67 41 135 25 97 39 134 68 173
77 106 204 121 204 25 0 -18 -16 -97 -35 -176 -20 -79 -33 -150 -31 -157 7
-17 60 -17 74 0 6 6 22 59 37 117 32 130 40 151 77 198 54 68 129 98 179 72
30 -17 25 -89 -16 -205 -19 -55 -35 -108 -35 -118 0 -10 13 -32 29 -48 34 -34
92 -39 141 -14 31 16 90 106 90 138 0 34 -39 20 -55 -20 -21 -50 -63 -93 -92
-93 -32 0 -30 27 12 153 49 147 45 199 -17 237 -66 40 -180 19 -244 -45 l-24
-24 -15 29 c-20 40 -63 60 -125 60 -59 0 -102 -16 -147 -54 -22 -19 -33 -23
-33 -14 0 29 -48 61 -97 65 -40 4 -52 1 -72 -18z"/>
<path d="M24121 6759 c-27 -26 -60 -94 -61 -126 0 -16 6 -23 20 -23 14 0 22
10 30 39 11 44 45 91 65 91 7 0 18 -7 25 -15 11 -13 6 -46 -29 -191 -24 -96
-40 -181 -37 -189 7 -18 60 -20 73 -2 5 6 24 67 41 135 25 97 39 134 68 173
77 106 204 121 204 25 0 -18 -16 -97 -35 -176 -20 -79 -33 -150 -31 -157 7
-17 60 -17 74 0 6 6 22 59 37 117 32 130 40 151 77 198 54 68 129 98 179 72
30 -17 25 -89 -16 -205 -19 -55 -35 -108 -35 -118 0 -10 13 -32 29 -48 34 -34
92 -39 141 -14 31 16 90 106 90 138 0 34 -39 20 -55 -20 -21 -50 -63 -93 -92
-93 -32 0 -30 27 12 153 49 147 45 199 -17 237 -66 40 -180 19 -244 -45 l-24
-24 -15 29 c-20 40 -63 60 -125 60 -59 0 -102 -16 -147 -54 -22 -19 -33 -23
-33 -14 0 29 -48 61 -97 65 -40 4 -52 1 -72 -18z"/>
<path d="M34360 6415 l0 -205 -152 0 c-259 0 -670 -26 -958 -61 -762 -91
-1373 -306 -1920 -673 -198 -133 -354 -259 -606 -489 l-53 -48 -72 66 c-278
255 -665 463 -1051 565 -226 60 -354 75 -648 75 -227 0 -284 -3 -400 -23 -495
-82 -946 -297 -1310 -626 -58 -52 -86 -72 -91 -64 -4 7 -98 238 -209 513 -111
275 -204 502 -206 505 -3 2 -87 -78 -188 -179 l-183 -183 -118 67 c-64 38
-199 105 -299 150 -952 430 -2086 472 -3101 114 -513 -181 -980 -458 -1412
-836 l-162 -142 -69 62 c-347 320 -821 543 -1322 623 -177 29 -606 27 -785 -4
-501 -86 -950 -303 -1308 -631 -44 -40 -81 -71 -83 -69 -2 2 -96 233 -209 513
-113 280 -208 511 -210 514 -3 3 -88 -77 -189 -178 l-184 -183 -118 69 c-165
96 -433 214 -659 290 -877 294 -1856 284 -2739 -28 -517 -183 -989 -463 -1418
-841 l-156 -137 -69 62 c-285 262 -684 475 -1073 571 -245 61 -334 71 -635 70
-232 0 -288 -3 -400 -22 -825 -142 -1503 -641 -1876 -1384 -146 -290 -240
-655 -264 -1018 -3 -52 -7 -96 -9 -97 -2 -2 -231 93 -510 212 -279 118 -509
215 -511 215 -3 0 -5 -92 -5 -205 l0 -205 -2645 0 -2645 0 0 -35 0 -35 2645 0
2645 0 0 -206 c0 -161 3 -205 13 -201 6 3 236 100 510 217 274 116 500 210
502 208 2 -2 7 -46 10 -98 43 -666 295 -1232 749 -1685 390 -389 853 -625
1406 -717 115 -19 173 -22 395 -22 286 0 391 13 638 75 882 222 1587 924 1821
1814 63 238 80 378 80 655 0 270 -16 398 -74 631 -97 382 -310 782 -567 1062
-35 38 -63 72 -63 77 0 24 271 256 470 403 631 463 1400 741 2190 792 655 43
1319 -76 1908 -339 135 -61 359 -177 391 -203 3 -2 -41 -50 -98 -107 l-103
-103 516 -208 c284 -114 516 -211 516 -216 0 -5 -30 -41 -66 -81 -333 -363
-556 -835 -635 -1348 -31 -203 -31 -523 0 -725 108 -694 450 -1269 1001 -1682
329 -247 705 -405 1133 -475 112 -19 171 -22 392 -22 285 0 393 13 636 74 889
225 1604 942 1828 1835 58 233 74 365 75 625 0 262 -18 418 -75 640 -102 393
-315 791 -571 1067 -32 34 -58 66 -58 71 0 26 259 250 468 403 1079 793 2496
1016 3752 591 259 -88 534 -214 719 -329 l24 -15 -102 -102 -102 -103 515
-208 c284 -115 516 -212 516 -216 0 -4 -32 -42 -71 -85 -271 -298 -481 -691
-578 -1079 -57 -232 -75 -376 -75 -625 0 -256 19 -416 79 -645 231 -892 940
-1602 1823 -1825 247 -62 351 -74 642 -74 291 0 395 12 642 74 883 223 1590
931 1823 1825 59 228 79 388 79 645 0 249 -18 393 -75 625 -95 382 -317 799
-569 1069 -33 35 -60 68 -60 74 0 18 198 200 353 324 754 604 1608 881 2847
923 91 3 222 8 293 11 l127 5 0 -206 c0 -114 4 -205 9 -203 164 64 1039 444
1034 449 -9 7 -1027 439 -1036 439 -4 0 -7 -92 -7 -205z m-24002 -865 c1080
-162 1921 -1002 2088 -2085 26 -168 26 -562 0 -720 -90 -548 -319 -999 -700
-1381 -390 -389 -854 -622 -1406 -705 -206 -31 -470 -31 -675 0 -551 84 -1019
318 -1406 702 -377 377 -612 840 -700 1384 -32 197 -32 528 0 725 88 543 320
1000 701 1380 417 418 944 663 1545 720 133 13 397 3 553 -20z m9449 -1 c572
-86 1084 -359 1471 -785 330 -364 537 -800 618 -1304 28 -173 26 -557 -4 -735
-90 -532 -321 -984 -696 -1360 -261 -261 -542 -444 -874 -568 -485 -183 -994
-210 -1489 -81 -433 113 -812 332 -1130 650 -374 377 -601 823 -694 1370 -19
108 -23 167 -23 369 0 202 4 261 23 369 94 552 321 998 700 1376 419 419 945
663 1546 720 134 13 396 3 552 -21z m9450 0 c422 -64 797 -223 1146 -486 129
-97 360 -328 458 -458 253 -334 413 -709 481 -1126 32 -193 32 -555 0 -746
-89 -537 -323 -995 -700 -1372 -469 -468 -1085 -724 -1742 -724 -656 0 -1274
257 -1742 724 -377 377 -611 835 -700 1372 -32 191 -32 553 0 746 68 417 228
792 481 1126 98 130 329 361 458 458 278 210 566 350 893 435 112 30 339 68
450 76 116 8 384 -4 517 -25z"/>
<path d="M11204 3791 c-41 -37 -131 -71 -211 -78 -62 -6 -63 -6 -63 -36 l0
-30 64 7 c35 3 85 13 110 20 l46 14 0 -443 0 -444 -22 -15 c-16 -11 -46 -16
-105 -16 l-83 0 0 -30 0 -30 275 0 275 0 0 30 0 30 -84 0 c-138 0 -126 -54
-129 540 -2 497 -2 505 -22 507 -11 2 -34 -10 -51 -26z"/>
<path d="M8665 3444 c-5 -1 -58 -6 -117 -9 l-108 -7 0 -29 c0 -25 4 -29 29
-29 46 0 88 -19 95 -43 10 -39 7 -517 -4 -538 -9 -15 -22 -19 -65 -19 -54 0
-55 0 -55 -30 l0 -30 190 0 190 0 0 30 c0 30 -1 30 -55 30 -45 0 -56 4 -66 21
-7 14 -10 88 -7 227 l3 207 31 55 c23 41 45 63 84 88 99 59 184 34 209 -62 14
-58 15 -490 1 -517 -9 -15 -22 -19 -65 -19 -54 0 -55 0 -55 -30 l0 -30 190 0
190 0 0 30 c0 30 -1 30 -55 30 -45 0 -56 4 -66 21 -7 14 -10 88 -7 227 l3 207
31 55 c39 69 115 120 181 120 55 0 100 -38 113 -95 13 -56 13 -491 0 -516 -9
-15 -22 -19 -65 -19 -54 0 -55 0 -55 -30 l0 -30 190 0 190 0 0 30 c0 30 -1 30
-53 30 -29 0 -58 5 -65 12 -9 9 -12 78 -12 247 0 142 -5 252 -11 276 -26 94
-92 137 -214 138 -60 0 -80 -4 -124 -29 -30 -16 -68 -48 -86 -72 -32 -41 -34
-42 -41 -20 -24 79 -98 121 -211 121 -92 0 -153 -29 -203 -96 l-35 -47 -5 73
c-3 42 -9 73 -15 71z"/>
<path d="M9955 2878 c-53 -30 -62 -102 -19 -145 22 -22 32 -25 76 -21 l51 5
-6 -53 c-6 -62 -45 -153 -87 -206 -53 -65 -26 -98 30 -37 115 126 147 369 58
444 -32 27 -71 32 -103 13z"/>
<path d="M20553 3810 c-130 -27 -230 -142 -241 -276 -4 -57 -2 -65 21 -88 58
-57 157 -20 157 59 0 42 -44 95 -79 95 -25 0 -25 3 -7 38 53 102 193 146 294
93 78 -40 132 -163 119 -271 -16 -131 -81 -232 -327 -505 -122 -135 -180 -207
-180 -222 l0 -23 309 0 c286 0 310 1 315 18 2 9 12 67 21 127 9 61 18 118 21
128 4 13 -1 17 -20 17 -20 0 -27 -6 -32 -27 -21 -98 -30 -117 -54 -124 -14 -4
-113 -7 -220 -8 l-195 -1 106 103 c58 56 160 154 226 217 132 127 176 196 188
294 8 62 -14 160 -47 213 -64 105 -239 171 -375 143z"/>
<path d="M18115 3444 c-5 -1 -58 -6 -117 -9 l-108 -7 0 -29 c0 -25 4 -29 29
-29 46 0 88 -19 95 -43 10 -39 7 -517 -4 -538 -9 -15 -22 -19 -65 -19 -54 0
-55 0 -55 -30 l0 -30 190 0 190 0 0 30 c0 30 -1 30 -55 30 -45 0 -56 4 -66 21
-7 14 -10 88 -7 227 l3 207 31 55 c23 41 45 63 84 88 99 59 184 34 209 -62 14
-58 15 -490 1 -517 -9 -15 -22 -19 -65 -19 -54 0 -55 0 -55 -30 l0 -30 190 0
190 0 0 30 c0 30 -1 30 -55 30 -45 0 -56 4 -66 21 -7 14 -10 88 -7 227 l3 207
31 55 c39 69 115 120 181 120 55 0 100 -38 113 -95 13 -56 13 -491 0 -516 -9
-15 -22 -19 -65 -19 -54 0 -55 0 -55 -30 l0 -30 190 0 190 0 0 30 c0 30 -1 30
-53 30 -29 0 -58 5 -65 12 -9 9 -12 78 -12 247 0 142 -5 252 -11 276 -26 94
-92 137 -214 138 -60 0 -80 -4 -124 -29 -30 -16 -68 -48 -86 -72 -32 -41 -34
-42 -41 -20 -24 79 -98 121 -211 121 -92 0 -153 -29 -203 -96 l-35 -47 -5 73
c-3 42 -9 73 -15 71z"/>
<path d="M19405 2878 c-53 -30 -62 -102 -19 -145 22 -22 32 -25 76 -21 l51 5
-6 -53 c-6 -62 -45 -153 -87 -206 -53 -65 -26 -98 30 -37 115 126 147 369 58
444 -32 27 -71 32 -103 13z"/>
<path d="M30030 3814 c-142 -27 -239 -119 -240 -227 0 -50 35 -87 84 -87 49 0
65 8 82 42 31 59 -4 127 -66 128 -24 1 -24 2 12 34 39 34 85 52 159 62 60 7
125 -27 152 -79 41 -81 16 -245 -49 -317 -36 -40 -92 -60 -170 -60 -23 0 -37
-6 -41 -16 -9 -25 16 -34 95 -34 113 0 167 -40 198 -148 23 -78 15 -221 -14
-279 -46 -90 -108 -120 -208 -102 -69 13 -119 36 -157 75 l-29 28 31 11 c43
14 62 37 68 82 4 32 0 44 -22 71 -23 27 -33 32 -71 32 -35 0 -51 -6 -71 -26
-23 -23 -25 -31 -21 -89 7 -110 78 -186 211 -227 227 -68 455 66 474 279 6 72
-7 125 -49 188 -34 52 -127 119 -181 131 l-31 7 47 23 c143 73 213 249 144
366 -27 47 -84 91 -147 113 -42 15 -152 26 -190 19z"/>
<path d="M27565 3444 c-5 -1 -58 -6 -117 -9 l-108 -7 0 -29 c0 -25 4 -29 29
-29 46 0 88 -19 95 -43 10 -39 7 -517 -4 -538 -9 -15 -22 -19 -65 -19 -54 0
-55 0 -55 -30 l0 -30 190 0 190 0 0 30 c0 30 -1 30 -55 30 -45 0 -56 4 -66 21
-7 14 -10 88 -7 227 l3 207 31 55 c23 41 45 63 84 88 99 59 184 34 209 -62 14
-58 15 -490 1 -517 -9 -15 -22 -19 -65 -19 -54 0 -55 0 -55 -30 l0 -30 190 0
190 0 0 30 c0 30 -1 30 -55 30 -45 0 -56 4 -66 21 -7 14 -10 88 -7 227 l3 207
31 55 c39 69 115 120 181 120 55 0 100 -38 113 -95 13 -56 13 -491 0 -516 -9
-15 -22 -19 -65 -19 -54 0 -55 0 -55 -30 l0 -30 190 0 190 0 0 30 c0 30 -1 30
-53 30 -29 0 -58 5 -65 12 -9 9 -12 78 -12 247 0 142 -5 252 -11 276 -26 94
-92 137 -214 138 -60 0 -80 -4 -124 -29 -30 -16 -68 -48 -86 -72 -32 -41 -34
-42 -41 -20 -24 79 -98 121 -211 121 -92 0 -153 -29 -203 -96 l-35 -47 -5 73
c-3 42 -9 73 -15 71z"/>
<path d="M28855 2878 c-53 -30 -62 -102 -19 -145 22 -22 32 -25 76 -21 l51 5
-6 -53 c-6 -62 -45 -153 -87 -206 -53 -65 -26 -98 30 -37 115 126 147 369 58
444 -32 27 -71 32 -103 13z"/>
<path d="M56480 5992 c0 -11 12 -22 34 -30 22 -8 39 -24 49 -45 23 -49 157
-386 157 -395 0 -5 -88 -89 -195 -188 -108 -98 -198 -189 -201 -201 -12 -45
14 -71 59 -59 12 3 98 91 192 195 93 105 170 189 171 188 1 -1 32 -78 69 -172
76 -193 92 -215 160 -215 24 0 46 4 50 9 3 5 -4 24 -14 43 -11 18 -90 210
-175 427 -85 216 -163 402 -173 414 -27 29 -76 47 -133 47 -41 0 -50 -3 -50
-18z"/>
<path d="M57191 5339 c-27 -26 -60 -94 -61 -126 0 -16 6 -23 20 -23 14 0 22
10 30 39 11 44 45 91 65 91 7 0 18 -7 25 -15 11 -13 6 -46 -29 -191 -24 -96
-40 -181 -37 -189 7 -18 60 -20 73 -2 5 6 24 67 41 135 25 97 39 134 68 173
77 106 204 121 204 25 0 -18 -16 -97 -35 -176 -20 -79 -33 -150 -31 -157 7
-17 60 -17 74 0 6 6 22 59 37 117 32 130 40 151 77 198 54 68 129 98 179 72
30 -17 25 -89 -16 -205 -19 -55 -35 -108 -35 -118 0 -10 13 -32 29 -48 34 -34
92 -39 141 -14 31 16 90 106 90 138 0 34 -39 20 -55 -20 -21 -50 -63 -93 -92
-93 -32 0 -30 27 12 153 49 147 45 199 -17 237 -66 40 -180 19 -244 -45 l-24
-24 -15 29 c-20 40 -63 60 -125 60 -59 0 -102 -16 -147 -54 -22 -19 -33 -23
-33 -14 0 29 -48 61 -97 65 -40 4 -52 1 -72 -18z"/>
<path d="M2114 4470 c-30 -12 -60 -53 -84 -116 -26 -71 -26 -104 -1 -104 16 0
24 13 37 61 26 94 77 142 112 107 7 -7 12 -25 12 -40 0 -38 -158 -669 -172
-685 -6 -7 -25 -13 -43 -13 -32 0 -52 -21 -39 -41 3 -5 70 -9 150 -9 l144 0 0
25 c0 22 -4 25 -39 25 -22 0 -43 5 -46 11 -6 8 41 226 51 238 1 1 19 -10 40
-25 108 -83 303 14 391 194 24 50 28 68 28 153 0 88 -2 99 -28 138 -68 102
-183 117 -294 38 l-43 -30 -22 28 c-36 46 -103 66 -154 45z m405 -64 c31 -33
37 -95 18 -187 -39 -189 -119 -299 -217 -299 -36 0 -85 42 -95 82 -8 33 61
304 87 341 12 16 41 42 66 58 59 37 109 39 141 5z"/>
<path d="M2801 4149 c-27 -26 -60 -94 -61 -126 0 -16 6 -23 20 -23 14 0 22 10
30 39 11 44 45 91 65 91 7 0 18 -7 25 -15 11 -13 6 -46 -29 -191 -24 -96 -40
-181 -37 -189 7 -18 60 -20 73 -2 5 6 24 67 41 135 25 97 39 134 68 173 77
106 204 121 204 25 0 -18 -16 -97 -35 -176 -20 -79 -33 -150 -31 -157 7 -17
60 -17 74 0 6 6 22 59 37 117 32 130 40 151 77 198 54 68 129 98 179 72 30
-17 25 -89 -16 -205 -19 -55 -35 -108 -35 -118 0 -10 13 -32 29 -48 34 -34 92
-39 141 -14 31 16 90 106 90 138 0 34 -39 20 -55 -20 -21 -50 -63 -93 -92 -93
-32 0 -30 27 12 153 49 147 45 199 -17 237 -66 40 -180 19 -244 -45 l-24 -24
-15 29 c-20 40 -63 60 -125 60 -59 0 -102 -16 -147 -54 -22 -19 -33 -23 -33
-14 0 29 -48 61 -97 65 -40 4 -52 1 -72 -18z"/>
<path d="M37549 3171 c-60 -61 -24 -151 61 -151 54 0 90 34 90 85 0 48 -45 95
-90 95 -22 0 -41 -9 -61 -29z"/>
<path d="M38289 3171 c-60 -61 -24 -151 61 -151 54 0 90 34 90 85 0 48 -45 95
-90 95 -22 0 -41 -9 -61 -29z"/>
<path d="M39029 3171 c-60 -61 -24 -151 61 -151 54 0 90 34 90 85 0 48 -45 95
-90 95 -22 0 -41 -9 -61 -29z"/>
</g>
</svg>
