<?xml version="1.0" standalone="no"?>
<!DOCTYPE svg PUBLIC "-//W3C//DTD SVG 20010904//EN"
 "http://www.w3.org/TR/2001/REC-SVG-20010904/DTD/svg10.dtd">
<svg version="1.0" xmlns="http://www.w3.org/2000/svg"
 width="5905.000000pt" height="3125.000000pt" viewBox="0 0 5905.000000 3125.000000"
 preserveAspectRatio="xMidYMid meet">
<metadata>
Created by potrace 1.16, written by Peter Selinger 2001-2019
</metadata>
<g transform="translate(0.000000,3125.000000) scale(0.100000,-0.100000)"
fill="#000000" stroke="none">
<path d="M25750 31235 c-293 -50 -534 -162 -753 -350 -225 -194 -397 -472
-471 -760 -21 -82 -46 -254 -46 -315 0 -27 -2 -50 -5 -50 -2 0 -232 97 -511
215 -279 118 -511 215 -515 215 -5 0 -9 -90 -9 -200 l0 -200 -1980 0 -1980 0
0 -40 0 -40 1980 0 1980 0 0 -205 c0 -113 2 -205 4 -205 2 0 234 98 517 218
l514 219 8 -95 c50 -635 475 -1164 1072 -1337 552 -160 1126 -6 1520 406 239
251 377 560 411 927 l7 72 72 0 c373 0 1023 -59 1444 -131 2347 -401 4195
-1759 5877 -4315 614 -934 1203 -1994 2018 -3629 162 -324 544 -1092 849
-1705 523 -1048 781 -1554 1055 -2059 63 -118 111 -216 106 -218 -29 -11 -344
-199 -345 -207 0 -4 197 -156 438 -338 241 -181 439 -333 441 -337 1 -3 -12
-15 -30 -26 -144 -83 -350 -289 -433 -432 -11 -18 -22 -33 -25 -32 -3 0 -146
188 -318 417 -172 229 -323 430 -335 446 l-24 29 -93 -161 c-51 -89 -97 -162
-102 -162 -12 0 -308 198 -543 365 -698 493 -1274 949 -2415 1910 -758 638
-1128 943 -1505 1236 -1357 1058 -2494 1673 -3730 2018 -683 191 -1383 293
-2186 317 l-217 7 -6 71 c-30 318 -140 597 -329 831 -238 295 -566 483 -957
546 -100 16 -324 16 -430 0 -203 -31 -405 -103 -566 -202 -420 -256 -682 -687
-721 -1182 l-8 -95 -515 218 -515 218 -3 -204 -2 -204 -1980 0 -1980 0 0 -40
0 -40 1980 0 1980 0 0 -200 c0 -139 3 -200 11 -200 6 0 234 95 508 211 273
116 501 213 507 215 7 3 13 -27 17 -90 40 -603 447 -1131 1021 -1321 398 -132
815 -99 1185 95 135 72 241 150 362 271 242 241 390 552 430 908 l13 114 240
-6 c1889 -48 3497 -620 5221 -1856 555 -398 1027 -775 2087 -1667 1361 -1146
2069 -1696 2863 -2224 77 -51 141 -94 143 -96 2 -1 -44 -85 -102 -185 -58
-101 -102 -186 -98 -190 4 -3 241 -34 527 -69 286 -34 532 -64 547 -67 l27 -5
-34 -67 c-72 -143 -123 -335 -140 -528 -4 -40 -10 -73 -14 -73 -3 0 -233 97
-511 215 l-505 214 -3 -204 -2 -205 -5114 0 -5114 0 -6 23 c-3 12 -6 40 -6 62
-1 157 -87 445 -183 618 -133 237 -357 461 -594 594 -141 79 -346 147 -523
174 -116 18 -333 16 -455 -4 -359 -59 -676 -234 -906 -501 -216 -249 -336
-531 -370 -874 -6 -59 -12 -109 -14 -111 -2 -2 -233 94 -512 212 l-508 216 -3
-204 -2 -205 -1975 0 -1975 0 0 -35 0 -35 1975 0 1975 0 0 -205 c0 -113 2
-205 4 -205 2 0 232 97 510 215 279 118 508 215 510 215 2 0 7 -35 11 -77 28
-327 124 -583 306 -826 532 -709 1554 -809 2228 -218 272 238 466 617 496 966
3 39 8 85 11 103 l5 32 5114 0 5115 0 0 -205 c0 -113 2 -205 4 -205 2 0 232
97 511 215 279 119 509 215 510 213 2 -2 8 -52 14 -113 44 -415 246 -766 578
-1001 l95 -67 -24 -19 c-12 -9 -213 -161 -445 -335 -231 -175 -419 -321 -417
-324 2 -3 80 -50 174 -104 94 -54 172 -101 175 -105 2 -3 -26 -60 -61 -126
-314 -575 -687 -1299 -1282 -2491 -1112 -2223 -1576 -3101 -2122 -4018 -1028
-1724 -2023 -2927 -3128 -3783 -1175 -911 -2497 -1434 -3997 -1582 -305 -30
-634 -50 -826 -50 l-105 0 -13 108 c-41 362 -203 675 -469 908 -342 300 -803
415 -1247 312 -575 -133 -1003 -608 -1074 -1193 -6 -49 -12 -107 -14 -127 l-2
-37 -505 215 c-278 117 -511 214 -517 214 -10 0 -13 -46 -13 -200 l0 -200
-2030 0 -2030 0 0 -40 0 -40 2030 0 2030 0 0 -200 c0 -138 3 -200 11 -200 6 0
234 95 507 211 274 116 503 213 510 216 9 4 12 -9 12 -46 0 -28 7 -95 15 -149
87 -584 523 -1044 1105 -1169 121 -26 449 -26 570 0 553 119 980 548 1089
1093 11 55 22 131 26 170 l7 71 306 12 c1828 73 3313 592 4662 1630 1111 855
2137 2095 3162 3821 546 919 900 1587 1951 3680 816 1627 1093 2167 1414 2758
l105 192 31 -18 c118 -71 297 -172 304 -172 5 0 35 213 67 472 83 678 77 639
90 629 6 -4 53 -27 104 -50 560 -250 1225 -104 1617 356 154 180 260 393 310
623 22 103 31 360 15 469 -76 535 -428 959 -939 1130 -150 50 -254 66 -441 65
-233 -1 -383 -34 -586 -129 l-92 -43 -5 37 c-3 20 -34 269 -69 554 -34 284
-65 517 -69 517 -3 0 -80 -43 -170 -95 -90 -52 -166 -91 -170 -87 -11 12 -128
230 -361 672 -121 228 -621 1221 -1112 2205 -1035 2075 -1262 2516 -1678 3259
-1131 2020 -2200 3373 -3403 4308 -1161 902 -2468 1423 -3960 1579 -242 25
-760 58 -936 59 l-46 0 -12 108 c-23 208 -72 369 -166 550 -195 374 -546 652
-955 757 -172 45 -446 58 -610 30z m465 -80 c553 -88 1018 -517 1154 -1064 34
-137 44 -240 38 -397 -6 -164 -21 -248 -72 -401 -99 -299 -302 -561 -569 -737
-452 -297 -1021 -314 -1492 -44 -561 321 -837 984 -667 1603 127 461 465 826
909 979 235 82 451 100 699 61z m-47 -7080 c243 -35 450 -116 641 -252 549
-394 749 -1101 487 -1722 -97 -229 -278 -454 -484 -601 -168 -120 -399 -214
-612 -251 -106 -19 -344 -16 -459 5 -953 174 -1468 1214 -1021 2063 281 534
866 841 1448 758z m0 -7070 c330 -47 586 -171 820 -399 217 -210 348 -450 413
-756 32 -150 32 -400 0 -550 -99 -466 -384 -832 -802 -1029 -192 -90 -347
-129 -557 -138 -507 -22 -981 224 -1266 657 -148 224 -222 461 -233 740 -6
174 16 330 72 497 219 655 884 1073 1553 978z m14252 -150 c389 -87 710 -329
895 -676 148 -279 189 -628 109 -929 -193 -720 -930 -1140 -1636 -929 -357
106 -651 360 -812 700 -301 636 -40 1394 590 1716 112 58 258 107 378 128 107
19 372 13 476 -10z m-14168 -14155 c520 -109 922 -514 1035 -1040 25 -120 25
-401 0 -520 -58 -266 -185 -498 -378 -688 -130 -128 -304 -239 -465 -296 -416
-149 -845 -95 -1206 150 -366 249 -582 657 -580 1099 1 504 290 963 747 1186
210 102 389 141 615 134 82 -3 173 -12 232 -25z"/>
<path d="M25984 30271 c-41 -37 -131 -71 -211 -78 -62 -6 -63 -6 -63 -36 l0
-30 64 7 c35 3 85 13 110 20 l46 14 0 -443 0 -444 -22 -15 c-16 -11 -46 -16
-105 -16 l-83 0 0 -30 0 -30 275 0 275 0 0 30 0 30 -84 0 c-138 0 -126 -54
-129 540 -2 497 -2 505 -22 507 -11 2 -34 -10 -51 -26z"/>
<path d="M25893 23210 c-130 -27 -230 -142 -241 -276 -4 -57 -2 -65 21 -88 58
-57 157 -20 157 59 0 42 -44 95 -79 95 -25 0 -25 3 -7 38 53 102 193 146 294
93 78 -40 132 -163 119 -271 -16 -131 -81 -232 -327 -505 -122 -135 -180 -207
-180 -222 l0 -23 309 0 c286 0 310 1 315 18 2 9 12 67 21 127 9 61 18 118 21
128 4 13 -1 17 -20 17 -20 0 -27 -6 -32 -27 -21 -98 -30 -117 -54 -124 -14 -4
-113 -7 -220 -8 l-195 -1 106 103 c58 56 160 154 226 217 132 127 176 196 188
294 8 62 -14 160 -47 213 -64 105 -239 171 -375 143z"/>
<path d="M25920 16144 c-142 -27 -239 -119 -240 -227 0 -50 35 -87 84 -87 49
0 65 8 82 42 31 59 -4 127 -66 128 -24 1 -24 2 12 34 39 34 85 52 159 62 60 7
125 -27 152 -79 41 -81 16 -245 -49 -317 -36 -40 -92 -60 -170 -60 -23 0 -37
-6 -41 -16 -9 -25 16 -34 95 -34 113 0 167 -40 198 -148 23 -78 15 -221 -14
-279 -46 -90 -108 -120 -208 -102 -69 13 -119 36 -157 75 l-29 28 31 11 c43
14 62 37 68 82 4 32 0 44 -22 71 -23 27 -33 32 -71 32 -35 0 -51 -6 -71 -26
-23 -23 -25 -31 -21 -89 7 -110 78 -186 211 -227 227 -68 455 66 474 279 6 72
-7 125 -49 188 -34 52 -127 119 -181 131 l-31 7 47 23 c143 73 213 249 144
366 -27 47 -84 91 -147 113 -42 15 -152 26 -190 19z"/>
<path d="M40135 15988 c-3 -7 -13 -84 -23 -170 -10 -87 -20 -160 -23 -162 -2
-2 -69 9 -149 25 -153 31 -195 33 -195 10 0 -12 203 -115 300 -154 5 -2 -28
-70 -74 -151 -76 -135 -90 -176 -61 -176 6 0 44 35 83 77 40 43 92 99 117 126
l45 48 114 -125 c63 -69 119 -126 126 -126 30 0 19 36 -56 171 -43 79 -79 147
-79 150 0 3 68 36 150 74 114 52 150 72 150 87 0 25 -19 24 -195 -12 -82 -17
-149 -29 -150 -28 -1 2 -9 73 -19 158 -10 85 -20 163 -22 173 -6 20 -32 23
-39 5z"/>
<path d="M25795 1764 c-5 -1 -58 -6 -117 -9 l-108 -7 0 -29 c0 -25 4 -29 29
-29 46 0 88 -19 95 -43 10 -39 7 -517 -4 -538 -9 -15 -22 -19 -65 -19 -54 0
-55 0 -55 -30 l0 -30 190 0 190 0 0 30 c0 30 -1 30 -55 30 -45 0 -56 4 -66 21
-7 14 -10 88 -7 227 l3 207 31 55 c23 41 45 63 84 88 99 59 184 34 209 -62 14
-58 15 -490 1 -517 -9 -15 -22 -19 -65 -19 -54 0 -55 0 -55 -30 l0 -30 190 0
190 0 0 30 c0 30 -1 30 -53 30 -29 0 -58 5 -65 12 -9 9 -12 78 -12 248 0 141
-5 251 -11 275 -26 95 -92 137 -215 138 -93 0 -154 -28 -204 -96 l-35 -47 -5
73 c-3 42 -9 73 -15 71z"/>
<path d="M17864 30170 c-30 -12 -60 -53 -84 -116 -26 -71 -26 -104 -1 -104 16
0 24 13 37 61 26 94 77 142 112 107 7 -7 12 -25 12 -40 0 -38 -158 -669 -172
-685 -6 -7 -25 -13 -43 -13 -32 0 -52 -21 -39 -41 3 -5 70 -9 150 -9 l144 0 0
25 c0 22 -4 25 -39 25 -22 0 -43 5 -46 11 -6 8 41 226 51 238 1 1 19 -10 40
-25 108 -83 303 14 391 194 24 50 28 68 28 153 0 88 -2 99 -28 138 -68 102
-183 117 -294 38 l-43 -30 -22 28 c-36 46 -103 66 -154 45z m405 -64 c31 -33
37 -95 18 -187 -39 -189 -119 -299 -217 -299 -36 0 -85 42 -95 82 -8 33 61
304 87 341 12 16 41 42 66 58 59 37 109 39 141 5z"/>
<path d="M18702 30044 c-24 -12 -68 -26 -98 -30 -48 -6 -54 -9 -54 -30 0 -23
3 -24 43 -18 23 3 57 10 75 14 l32 8 0 -258 c0 -178 -3 -261 -11 -266 -6 -3
-40 -9 -75 -12 -54 -4 -64 -8 -64 -23 0 -18 11 -19 195 -19 188 0 195 1 195
20 0 17 -7 20 -49 20 -27 0 -61 4 -75 10 l-26 10 0 300 0 300 -22 -1 c-13 -1
-43 -12 -66 -25z"/>
<path d="M32540 29332 c0 -11 12 -22 34 -30 22 -8 39 -24 49 -45 23 -49 157
-386 157 -395 0 -5 -88 -89 -195 -188 -108 -98 -198 -189 -201 -201 -12 -45
14 -71 59 -59 12 3 98 91 192 195 93 105 170 189 171 188 1 -1 32 -78 69 -172
76 -193 92 -215 160 -215 24 0 46 4 50 9 3 5 -4 24 -14 43 -11 18 -90 210
-175 427 -85 216 -163 402 -173 414 -27 29 -76 47 -133 47 -41 0 -50 -3 -50
-18z"/>
<path d="M33412 28884 c-24 -12 -68 -26 -98 -30 -48 -6 -54 -9 -54 -30 0 -23
3 -24 43 -18 23 3 57 10 75 14 l32 8 0 -258 c0 -178 -3 -261 -11 -266 -6 -3
-40 -9 -75 -12 -54 -4 -64 -8 -64 -23 0 -18 11 -19 195 -19 188 0 195 1 195
20 0 17 -7 20 -49 20 -27 0 -61 4 -75 10 l-26 10 0 300 0 300 -22 -1 c-13 -1
-43 -12 -66 -25z"/>
<path d="M17864 23080 c-30 -12 -60 -53 -84 -116 -26 -71 -26 -104 -1 -104 16
0 24 13 37 61 26 94 77 142 112 107 7 -7 12 -25 12 -40 0 -38 -158 -669 -172
-685 -6 -7 -25 -13 -43 -13 -32 0 -52 -21 -39 -41 3 -5 70 -9 150 -9 l144 0 0
25 c0 22 -4 25 -39 25 -22 0 -43 5 -46 11 -6 8 41 226 51 238 1 1 19 -10 40
-25 108 -83 303 14 391 194 24 50 28 68 28 153 0 88 -2 99 -28 138 -68 102
-183 117 -294 38 l-43 -30 -22 28 c-36 46 -103 66 -154 45z m405 -64 c31 -33
37 -95 18 -187 -39 -189 -119 -299 -217 -299 -36 0 -85 42 -95 82 -8 33 61
304 87 341 12 16 41 42 66 58 59 37 109 39 141 5z"/>
<path d="M18602 22958 c-59 -28 -94 -77 -100 -137 -4 -42 -1 -50 19 -65 30
-21 52 -20 72 2 25 28 21 69 -8 88 -25 16 -25 17 -8 37 10 11 38 29 62 39 121
55 247 -51 213 -178 -19 -71 -55 -115 -208 -255 -89 -80 -144 -138 -144 -150
0 -18 11 -19 219 -19 l219 0 11 68 c6 37 14 79 17 95 5 24 2 27 -19 27 -21 0
-25 -6 -31 -40 -8 -54 -30 -61 -174 -58 l-115 3 130 102 c152 119 188 157 203
215 29 105 -32 208 -140 238 -62 17 -170 11 -218 -12z"/>
<path d="M32540 22722 c0 -11 12 -22 34 -30 22 -8 39 -24 49 -45 23 -49 157
-386 157 -395 0 -5 -88 -89 -195 -188 -108 -98 -198 -189 -201 -201 -12 -45
14 -71 59 -59 12 3 98 91 192 195 93 105 170 189 171 188 1 -1 32 -78 69 -172
76 -193 92 -215 160 -215 24 0 46 4 50 9 3 5 -4 24 -14 43 -11 18 -90 210
-175 427 -85 216 -163 402 -173 414 -27 29 -76 47 -133 47 -41 0 -50 -3 -50
-18z"/>
<path d="M33312 22268 c-59 -28 -94 -77 -100 -137 -4 -42 -1 -50 19 -65 30
-21 52 -20 72 2 25 28 21 69 -8 88 -25 16 -25 17 -8 37 10 11 38 29 62 39 121
55 247 -51 213 -178 -19 -71 -55 -115 -208 -255 -89 -80 -144 -138 -144 -150
0 -18 11 -19 219 -19 l219 0 11 68 c6 37 14 79 17 95 5 24 2 27 -19 27 -21 0
-25 -6 -31 -40 -8 -54 -30 -61 -174 -58 l-115 3 130 102 c152 119 188 157 203
215 29 105 -32 208 -140 238 -62 17 -170 11 -218 -12z"/>
<path d="M32540 16812 c0 -11 12 -22 34 -30 22 -8 39 -24 49 -45 23 -49 157
-386 157 -395 0 -5 -88 -89 -195 -188 -108 -98 -198 -189 -201 -201 -12 -45
14 -71 59 -59 12 3 98 91 192 195 93 105 170 189 171 188 1 -1 32 -78 69 -172
76 -193 92 -215 160 -215 24 0 46 4 50 9 3 5 -4 24 -14 43 -11 18 -90 210
-175 427 -85 216 -163 402 -173 414 -27 29 -76 47 -133 47 -41 0 -50 -3 -50
-18z"/>
<path d="M33334 16380 c-101 -31 -144 -170 -56 -178 18 -2 40 2 48 9 19 16 18
78 -1 85 -43 17 26 54 100 54 110 0 151 -77 98 -182 -20 -40 -60 -62 -122 -68
-43 -4 -57 -9 -59 -22 -3 -15 4 -18 45 -18 108 0 166 -41 179 -126 13 -90 -31
-167 -105 -180 -44 -9 -130 8 -166 32 -26 17 -27 18 -6 25 42 16 39 93 -6 110
-41 15 -77 -8 -81 -53 -4 -52 20 -93 75 -125 40 -23 61 -28 138 -31 78 -4 99
-1 143 18 95 41 147 130 123 210 -16 53 -52 94 -107 120 l-45 22 33 18 c51 27
90 88 90 144 2 92 -65 140 -202 143 -47 1 -99 -2 -116 -7z"/>
<path d="M17864 16000 c-30 -12 -60 -53 -84 -116 -26 -71 -26 -104 -1 -104 16
0 24 13 37 61 26 94 77 142 112 107 7 -7 12 -25 12 -40 0 -38 -158 -669 -172
-685 -6 -7 -25 -13 -43 -13 -32 0 -52 -21 -39 -41 3 -5 70 -9 150 -9 l144 0 0
25 c0 22 -4 25 -39 25 -22 0 -43 5 -46 11 -6 8 41 226 51 238 1 1 19 -10 40
-25 108 -83 303 14 391 194 24 50 28 68 28 153 0 88 -2 99 -28 138 -68 102
-183 117 -294 38 l-43 -30 -22 28 c-36 46 -103 66 -154 45z m405 -64 c31 -33
37 -95 18 -187 -39 -189 -119 -299 -217 -299 -36 0 -85 42 -95 82 -8 33 61
304 87 341 12 16 41 42 66 58 59 37 109 39 141 5z"/>
<path d="M18624 15880 c-101 -31 -144 -170 -56 -178 18 -2 40 2 48 9 19 16 18
78 -1 85 -43 17 26 54 100 54 110 0 151 -77 98 -182 -20 -40 -60 -62 -122 -68
-43 -4 -57 -9 -59 -22 -3 -15 4 -18 45 -18 108 0 166 -41 179 -126 13 -90 -31
-167 -105 -180 -44 -9 -130 8 -166 32 -26 17 -27 18 -6 25 42 16 39 93 -6 110
-41 15 -77 -8 -81 -53 -4 -52 20 -93 75 -125 40 -23 61 -28 138 -31 78 -4 99
-1 143 18 95 41 147 130 123 210 -16 53 -52 94 -107 120 l-45 22 33 18 c51 27
90 88 90 144 2 92 -65 140 -202 143 -47 1 -99 -2 -116 -7z"/>
<path d="M25189 8551 c-60 -61 -24 -151 61 -151 54 0 90 34 90 85 0 48 -45 95
-90 95 -22 0 -41 -9 -61 -29z"/>
<path d="M25919 8551 c-60 -61 -24 -151 61 -151 54 0 90 34 90 85 0 48 -45 95
-90 95 -22 0 -41 -9 -61 -29z"/>
<path d="M26659 8551 c-60 -61 -24 -151 61 -151 54 0 90 34 90 85 0 48 -45 95
-90 95 -22 0 -41 -9 -61 -29z"/>
<path d="M32460 5702 c0 -11 12 -22 34 -30 22 -8 39 -24 49 -45 23 -49 157
-386 157 -395 0 -5 -88 -89 -195 -188 -108 -98 -198 -189 -201 -201 -12 -45
14 -71 59 -59 12 3 98 91 192 195 93 105 170 189 171 188 1 -1 32 -78 69 -172
76 -193 92 -215 160 -215 24 0 46 4 50 9 3 5 -4 24 -14 43 -11 18 -90 210
-175 427 -85 216 -163 402 -173 414 -27 29 -76 47 -133 47 -41 0 -50 -3 -50
-18z"/>
<path d="M33181 5059 c-27 -26 -60 -94 -61 -126 0 -35 38 -31 46 5 21 86 69
128 94 82 9 -17 2 -57 -30 -191 -23 -93 -39 -176 -36 -184 7 -18 60 -20 73 -2
5 6 24 67 41 135 25 97 39 134 68 173 56 77 149 113 188 73 25 -24 19 -80 -19
-189 -42 -121 -43 -144 -9 -179 22 -21 36 -26 75 -26 40 0 54 5 85 33 39 33
80 110 69 127 -13 21 -35 9 -50 -27 -31 -73 -102 -120 -119 -78 -3 8 10 57 29
109 19 52 37 117 41 144 12 90 -38 142 -136 142 -59 0 -102 -16 -147 -54 -22
-19 -33 -23 -33 -14 0 29 -48 61 -97 65 -40 4 -52 1 -72 -18z"/>
<path d="M17784 1820 c-30 -12 -60 -53 -84 -116 -26 -71 -26 -104 -1 -104 16
0 24 13 37 61 26 94 77 142 112 107 7 -7 12 -25 12 -40 0 -38 -158 -669 -172
-685 -6 -7 -25 -13 -43 -13 -32 0 -52 -21 -39 -41 3 -5 70 -9 150 -9 l144 0 0
25 c0 22 -4 25 -39 25 -22 0 -43 5 -46 11 -6 8 41 226 51 238 1 1 19 -10 40
-25 108 -83 303 14 391 194 24 50 28 68 28 153 0 88 -2 99 -28 138 -68 102
-183 117 -294 38 l-43 -30 -22 28 c-36 46 -103 66 -154 45z m405 -64 c31 -33
37 -95 18 -187 -39 -189 -119 -299 -217 -299 -36 0 -85 42 -95 82 -8 33 61
304 87 341 12 16 41 42 66 58 59 37 109 39 141 5z"/>
<path d="M18481 1499 c-27 -26 -60 -94 -61 -126 0 -35 38 -31 46 5 21 86 69
128 94 82 9 -17 2 -57 -30 -191 -23 -93 -39 -176 -36 -184 7 -18 60 -20 73 -2
5 6 24 67 41 135 25 97 39 134 68 173 56 77 149 113 188 73 25 -24 19 -80 -19
-189 -42 -121 -43 -144 -9 -179 22 -21 36 -26 75 -26 40 0 54 5 85 33 39 33
80 110 69 127 -13 21 -35 9 -50 -27 -31 -73 -102 -120 -119 -78 -3 8 10 57 29
109 19 52 37 117 41 144 12 90 -38 142 -136 142 -59 0 -102 -16 -147 -54 -22
-19 -33 -23 -33 -14 0 29 -48 61 -97 65 -40 4 -52 1 -72 -18z"/>
</g>
</svg>
