<?xml version="1.0" standalone="no"?>
<!DOCTYPE svg PUBLIC "-//W3C//DTD SVG 20010904//EN"
 "http://www.w3.org/TR/2001/REC-SVG-20010904/DTD/svg10.dtd">
<svg version="1.0" xmlns="http://www.w3.org/2000/svg"
 width="4724.000000pt" height="2168.000000pt" viewBox="0 0 4724.000000 2168.000000"
 preserveAspectRatio="xMidYMid meet">
<metadata>
Created by potrace 1.16, written by Peter Selinger 2001-2019
</metadata>
<g transform="translate(0.000000,2168.000000) scale(0.100000,-0.100000)"
fill="#000000" stroke="none">
<path d="M18645 21660 c-122 -21 -170 -34 -260 -67 -843 -312 -1229 -1263
-841 -2074 l42 -87 -36 -5 c-19 -3 -268 -34 -552 -69 -285 -34 -518 -66 -518
-71 0 -4 46 -88 102 -184 56 -97 98 -178 92 -180 -18 -6 -600 -380 -799 -513
-2377 -1590 -4014 -3267 -5073 -5195 -506 -922 -876 -1915 -1106 -2970 -169
-776 -259 -1562 -282 -2466 l-7 -267 -111 -12 c-693 -76 -1231 -589 -1337
-1275 -16 -103 -16 -337 0 -440 88 -562 471 -1024 996 -1203 179 -61 279 -76
495 -76 216 0 319 16 495 76 288 99 550 296 730 550 l61 85 34 -22 c19 -12
136 -78 260 -147 2543 -1414 5237 -2374 8020 -2858 1913 -333 3877 -423 5701
-260 4081 363 7585 1939 10122 4552 592 610 1097 1227 1566 1913 79 116 147
214 152 219 4 4 90 -39 191 -98 158 -91 184 -104 190 -89 4 10 34 245 68 523
33 278 63 519 66 536 l6 32 81 -38 c196 -92 376 -132 592 -133 158 -1 246 10
385 48 438 121 789 455 939 891 62 183 86 430 60 621 -80 592 -511 1055 -1099
1180 -65 14 -130 18 -275 18 -145 0 -210 -4 -275 -18 -109 -23 -247 -70 -334
-114 -37 -19 -70 -32 -73 -29 -3 2 -34 242 -69 533 -36 290 -67 538 -69 550
-5 21 -17 16 -186 -82 -100 -58 -184 -105 -188 -105 -4 0 -57 75 -117 168
-156 240 -447 648 -668 937 -987 1293 -2152 2397 -3456 3277 -2657 1793 -5993
2756 -10230 2953 -424 20 -953 35 -1210 35 -113 0 -276 3 -362 7 l-158 6 0 46
c0 108 -50 331 -104 469 -170 431 -563 779 -1010 893 -206 53 -449 64 -641 29z
m366 -60 c351 -34 651 -174 893 -416 244 -244 381 -538 417 -900 23 -226 -36
-525 -146 -744 -182 -362 -533 -645 -925 -745 -750 -193 -1523 258 -1729 1008
-151 550 51 1154 500 1497 236 181 475 273 789 303 68 7 106 6 201 -3z m2177
-1470 c1744 -39 3252 -184 4677 -449 4278 -796 7508 -2683 9878 -5773 259
-337 530 -720 729 -1029 l56 -86 -164 -94 c-90 -52 -164 -96 -164 -99 1 -3
201 -155 445 -339 245 -184 445 -335 445 -336 0 -1 -28 -21 -63 -43 -97 -63
-228 -182 -304 -277 -181 -228 -276 -459 -305 -748 -8 -73 -16 -116 -23 -113
-5 2 -234 99 -507 215 -273 116 -502 211 -507 211 -8 0 -11 -66 -11 -200 l0
-200 -2749 0 -2749 0 -6 63 c-42 404 -184 714 -448 974 -181 179 -357 287
-589 364 -385 126 -784 100 -1155 -78 l-82 -38 -10 80 c-5 44 -36 293 -68 553
-31 259 -61 472 -66 472 -5 0 -87 -46 -184 -101 -96 -56 -176 -100 -178 -98
-1 2 -63 101 -136 219 -184 295 -477 734 -699 1045 -1351 1897 -2831 3258
-5046 4642 -278 173 -804 491 -932 563 -24 13 -43 27 -43 31 0 4 14 38 31 76
82 180 138 405 139 551 l0 52 171 0 c94 0 371 -5 617 -10z m-3553 -774 c172
-270 442 -483 755 -596 36 -13 68 -26 72 -29 8 -6 -100 -394 -198 -716 -467
-1529 -1063 -2876 -1824 -4125 -707 -1160 -1569 -2265 -2794 -3585 -437 -470
-1802 -1866 -2242 -2294 l-188 -182 -143 143 c-78 78 -144 140 -146 138 -3 -3
-96 -232 -207 -510 -112 -278 -206 -508 -209 -512 -3 -4 -37 20 -76 54 -238
204 -517 323 -839 359 l-109 12 6 301 c75 3510 1447 6380 4227 8847 780 692
1695 1372 2720 2021 135 85 254 160 264 165 18 10 28 -4 112 -149 50 -88 95
-163 100 -168 5 -5 153 182 343 436 184 244 336 444 338 444 2 0 19 -24 38
-54z m2920 -186 c1319 -785 2335 -1509 3255 -2320 321 -283 923 -883 1209
-1205 544 -611 1037 -1255 1540 -2008 181 -272 465 -718 459 -722 -2 -1 -73
-41 -158 -90 -85 -48 -161 -92 -167 -98 -9 -6 112 -103 425 -339 240 -181 441
-333 446 -338 5 -5 -15 -24 -47 -44 -82 -53 -194 -145 -268 -222 -69 -72 -189
-228 -189 -246 0 -20 -43 2 -357 189 -1347 802 -2351 1518 -3273 2332 -337
298 -918 880 -1221 1221 -559 630 -1026 1242 -1539 2015 -314 473 -456 705
-439 716 8 4 83 48 167 96 83 48 152 90 152 94 0 4 -98 80 -217 170 -120 89
-320 240 -445 335 l-228 172 38 23 c148 91 320 252 423 399 l63 89 45 -27 c25
-14 172 -101 326 -192z m-846 -832 c69 -569 70 -578 81 -578 4 0 85 45 180
100 95 56 176 97 180 93 4 -4 65 -100 135 -213 298 -477 721 -1091 1059 -1535
1259 -1656 2678 -2911 4741 -4195 278 -173 751 -458 872 -525 l51 -29 -29 -58
c-80 -158 -146 -408 -150 -563 -2 -108 48 -120 -518 121 -278 118 -509 214
-513 214 -4 0 -8 -92 -8 -204 l0 -203 -352 -7 c-1902 -36 -3467 -152 -4883
-361 -3284 -486 -6138 -1515 -9540 -3442 -121 -69 -234 -133 -251 -144 l-30
-18 -41 62 c-23 34 -69 95 -104 135 -34 40 -60 74 -58 76 3 3 942 385 1017
414 9 3 -38 57 -129 148 l-143 144 715 717 c1436 1442 2114 2167 2840 3038
1371 1644 2328 3250 3041 5105 220 574 461 1306 624 1900 26 96 49 176 50 178
1 2 44 -5 95 -14 114 -21 368 -24 484 -5 149 23 342 85 455 146 25 13 50 24
55 25 6 0 37 -220 74 -522z m8921 -6193 c516 -114 922 -473 1085 -960 261
-780 -184 -1618 -978 -1844 -233 -67 -443 -75 -684 -25 -229 46 -467 164 -650
323 -247 214 -418 513 -480 843 -26 139 -23 380 6 518 61 288 191 536 386 734
221 225 490 366 803 421 105 19 410 13 512 -10z m9398 -131 c454 -79 850 -418
1003 -859 52 -152 64 -233 64 -435 -1 -160 -4 -198 -24 -280 -42 -168 -95
-291 -187 -430 -177 -269 -450 -466 -758 -546 -590 -154 -1210 123 -1490 665
-94 183 -134 336 -143 547 -10 246 40 468 153 673 213 389 590 635 1049 685
65 7 240 -4 333 -20z m-11197 -1409 c16 -191 69 -386 143 -533 l36 -71 -43
-23 c-23 -14 -145 -83 -272 -154 -2246 -1271 -4241 -2139 -6250 -2718 -2335
-673 -4794 -993 -8072 -1052 l-383 -7 0 201 c0 111 -2 202 -3 202 -2 0 -235
-98 -518 -218 l-514 -219 -2 51 c-9 205 -64 426 -150 600 -24 49 -26 59 -13
67 52 32 516 293 728 411 1517 836 2976 1508 4342 2000 2549 918 5083 1371
8405 1503 493 19 1078 35 1327 35 l198 0 2 -199 3 -199 510 217 c281 120 511
216 513 215 2 -1 8 -50 13 -109z m9590 -35 c46 -412 270 -774 620 -1004 l50
-34 -263 -199 c-145 -110 -345 -261 -445 -336 -101 -76 -183 -139 -183 -141 0
-3 72 -46 161 -97 117 -67 158 -96 154 -107 -9 -25 -260 -387 -404 -582 -578
-788 -1189 -1467 -1946 -2161 -218 -201 -574 -496 -870 -724 -2467 -1897
-5592 -3003 -9100 -3219 -508 -32 -821 -39 -1469 -33 -717 7 -1064 23 -1701
78 -1540 133 -3135 436 -4665 885 -1873 551 -3630 1292 -5361 2262 l-227 127
33 65 c84 167 144 408 145 574 0 60 2 68 17 63 10 -2 242 -100 515 -216 273
-116 499 -211 502 -211 3 0 6 92 6 204 l0 204 288 6 c1704 38 2788 103 3982
236 3744 420 6844 1477 10590 3609 179 102 196 110 208 94 7 -10 38 -52 68
-93 194 -266 491 -469 817 -559 239 -65 548 -68 782 -7 402 105 738 361 945
723 109 190 171 395 195 646 l7 67 2749 0 2749 0 0 -205 c0 -113 1 -205 3
-205 1 0 234 98 517 219 512 217 515 218 517 192 2 -14 8 -69 14 -121z
m-26761 -3154 c466 -77 856 -361 1064 -774 200 -397 202 -857 7 -1257 -355
-724 -1220 -1017 -1926 -651 -129 67 -193 110 -293 196 -178 154 -325 367
-402 583 -67 187 -96 374 -87 551 34 682 529 1237 1205 1351 104 17 328 18
432 1z"/>
<path d="M18803 20720 c-130 -27 -230 -142 -241 -276 -4 -57 -2 -65 21 -88 58
-57 157 -20 157 59 0 42 -44 95 -79 95 -25 0 -25 3 -7 38 53 102 193 146 294
93 78 -40 132 -163 119 -271 -16 -131 -81 -232 -327 -505 -122 -135 -180 -207
-180 -222 l0 -23 309 0 c286 0 310 1 315 18 2 9 12 67 21 127 9 61 18 118 21
128 4 13 -1 17 -20 17 -20 0 -27 -6 -32 -27 -21 -98 -30 -117 -54 -124 -14 -4
-113 -7 -220 -8 l-195 -1 106 103 c58 56 160 154 226 217 132 127 176 196 188
294 8 62 -14 160 -47 213 -64 105 -239 171 -375 143z"/>
<path d="M24153 17766 c-92 -29 -191 -128 -231 -231 -48 -123 -36 -233 32
-301 69 -70 154 -80 242 -29 l41 24 -24 -101 c-33 -142 -34 -143 -118 -150
-22 -2 -30 -8 -30 -23 0 -19 7 -20 160 -20 153 0 160 1 160 20 0 16 -8 21 -40
23 -22 2 -44 7 -48 11 -4 4 35 180 88 390 52 210 93 386 90 392 -11 17 -31 9
-70 -31 l-39 -40 -25 26 c-47 51 -109 64 -188 40z m140 -63 c47 -50 47 -64 6
-226 -32 -130 -42 -154 -71 -184 -65 -68 -149 -92 -187 -54 -42 42 -44 103
-10 250 44 185 181 297 262 214z"/>
<path d="M24642 17638 c-59 -28 -94 -77 -100 -137 -4 -42 -1 -50 19 -65 30
-21 52 -20 72 2 25 28 21 69 -8 88 -25 16 -25 17 -8 37 10 11 38 29 62 39 121
55 247 -51 213 -178 -19 -71 -55 -115 -208 -255 -89 -80 -144 -138 -144 -150
0 -18 11 -19 219 -19 l219 0 11 68 c6 37 14 79 17 95 5 24 2 27 -19 27 -21 0
-25 -6 -31 -40 -8 -54 -30 -61 -174 -58 l-115 3 130 102 c152 119 188 157 203
215 29 105 -32 208 -140 238 -62 17 -170 11 -218 -12z"/>
<path d="M25274 17650 c-101 -31 -144 -170 -56 -178 18 -2 40 2 48 9 19 16 18
78 -1 85 -43 17 26 54 100 54 110 0 151 -77 98 -182 -20 -40 -60 -62 -122 -68
-43 -4 -57 -9 -59 -22 -3 -15 4 -18 45 -18 108 0 166 -41 179 -126 13 -90 -31
-167 -105 -180 -44 -9 -130 8 -166 32 -26 17 -27 18 -6 25 42 16 39 93 -6 110
-41 15 -77 -8 -81 -53 -4 -52 20 -93 75 -125 40 -23 61 -28 138 -31 78 -4 99
-1 143 18 95 41 147 130 123 210 -16 53 -52 94 -107 120 l-45 22 33 18 c51 27
90 88 90 144 2 92 -65 140 -202 143 -47 1 -99 -2 -116 -7z"/>
<path d="M32403 11856 c-92 -29 -191 -128 -231 -231 -48 -123 -36 -233 32
-301 69 -70 154 -80 242 -29 l41 24 -24 -101 c-33 -142 -34 -143 -118 -150
-22 -2 -30 -8 -30 -23 0 -19 7 -20 160 -20 153 0 160 1 160 20 0 16 -8 21 -40
23 -22 2 -44 7 -48 11 -4 4 35 180 88 390 52 210 93 386 90 392 -11 17 -31 9
-70 -31 l-39 -40 -25 26 c-47 51 -109 64 -188 40z m140 -63 c47 -50 47 -64 6
-226 -32 -130 -42 -154 -71 -184 -65 -68 -149 -92 -187 -54 -42 42 -44 103
-10 250 44 185 181 297 262 214z"/>
<path d="M32914 11750 c-101 -31 -144 -170 -56 -178 18 -2 40 2 48 9 19 16 18
78 -1 85 -43 17 26 54 100 54 110 0 151 -77 98 -182 -20 -40 -60 -62 -122 -68
-43 -4 -57 -9 -59 -22 -3 -15 4 -18 45 -18 108 0 166 -41 179 -126 13 -90 -31
-167 -105 -180 -44 -9 -130 8 -166 32 -26 17 -27 18 -6 25 42 16 39 93 -6 110
-41 15 -77 -8 -81 -53 -4 -52 20 -93 75 -125 40 -23 61 -28 138 -31 78 -4 99
-1 143 18 95 41 147 130 123 210 -16 53 -52 94 -107 120 l-45 22 33 18 c51 27
90 88 90 144 2 92 -65 140 -202 143 -47 1 -99 -2 -116 -7z"/>
<path d="M33627 11568 c-3 -13 -9 -56 -13 -96 -3 -40 -11 -75 -16 -78 -5 -4
-50 2 -99 11 -63 12 -93 15 -101 7 -17 -17 -3 -27 87 -67 47 -21 85 -42 85
-47 0 -5 -20 -44 -45 -88 -50 -89 -53 -100 -26 -100 11 0 46 30 82 71 l63 71
68 -71 c63 -66 98 -87 98 -59 0 6 -21 49 -46 96 -25 46 -44 85 -42 86 142 68
178 88 178 101 0 19 -16 19 -118 -1 -45 -9 -85 -15 -87 -12 -3 3 -11 47 -18
99 -9 72 -16 94 -28 97 -10 2 -19 -6 -22 -20z"/>
<path d="M14233 13506 c-92 -29 -191 -128 -231 -231 -48 -123 -36 -233 32
-301 69 -70 154 -80 242 -29 l41 24 -24 -101 c-33 -142 -34 -143 -118 -150
-22 -2 -30 -8 -30 -23 0 -19 7 -20 160 -20 153 0 160 1 160 20 0 16 -8 21 -40
23 -22 2 -44 7 -48 11 -4 4 35 180 88 390 52 210 93 386 90 392 -11 17 -31 9
-70 -31 l-39 -40 -25 26 c-47 51 -109 64 -188 40z m140 -63 c47 -50 47 -64 6
-226 -32 -130 -42 -154 -71 -184 -65 -68 -149 -92 -187 -54 -42 42 -44 103
-10 250 44 185 181 297 262 214z"/>
<path d="M14722 13388 c-59 -28 -94 -77 -100 -137 -4 -42 -1 -50 19 -65 30
-21 52 -20 72 2 25 28 21 69 -8 88 -25 16 -25 17 -8 37 10 11 38 29 62 39 121
55 247 -51 213 -178 -19 -71 -55 -115 -208 -255 -89 -80 -144 -138 -144 -150
0 -18 11 -19 219 -19 l219 0 11 68 c6 37 14 79 17 95 5 24 2 27 -19 27 -21 0
-25 -6 -31 -40 -8 -54 -30 -61 -174 -58 l-115 3 130 102 c152 119 188 157 203
215 29 105 -32 208 -140 238 -62 17 -170 11 -218 -12z"/>
<path d="M15432 13384 c-24 -12 -68 -26 -98 -30 -48 -6 -54 -9 -54 -30 0 -23
3 -24 43 -18 23 3 57 10 75 14 l32 8 0 -258 c0 -178 -3 -261 -11 -266 -6 -3
-40 -9 -75 -12 -54 -4 -64 -8 -64 -23 0 -18 11 -19 195 -19 188 0 195 1 195
20 0 17 -7 20 -49 20 -27 0 -61 4 -75 10 l-26 10 0 300 0 300 -22 -1 c-13 -1
-43 -12 -66 -25z"/>
<path d="M21793 13986 c-92 -29 -191 -128 -231 -231 -48 -123 -36 -233 32
-301 69 -70 154 -80 242 -29 l41 24 -24 -101 c-33 -142 -34 -143 -118 -150
-22 -2 -30 -8 -30 -23 0 -19 7 -20 160 -20 153 0 160 1 160 20 0 16 -8 21 -40
23 -22 2 -44 7 -48 11 -4 4 35 180 88 390 52 210 93 386 90 392 -11 17 -31 9
-70 -31 l-39 -40 -25 26 c-47 51 -109 64 -188 40z m140 -63 c47 -50 47 -64 6
-226 -32 -130 -42 -154 -71 -184 -65 -68 -149 -92 -187 -54 -42 42 -44 103
-10 250 44 185 181 297 262 214z"/>
<path d="M22304 13870 c-101 -31 -144 -170 -56 -178 18 -2 40 2 48 9 19 16 18
78 -1 85 -43 17 26 54 100 54 110 0 151 -77 98 -182 -20 -40 -60 -62 -122 -68
-43 -4 -57 -9 -59 -22 -3 -15 4 -18 45 -18 108 0 166 -41 179 -126 13 -90 -31
-167 -105 -180 -44 -9 -130 8 -166 32 -26 17 -27 18 -6 25 42 16 39 93 -6 110
-41 15 -77 -8 -81 -53 -4 -52 20 -93 75 -125 40 -23 61 -28 138 -31 78 -4 99
-1 143 18 95 41 147 130 123 210 -16 53 -52 94 -107 120 l-45 22 33 18 c51 27
90 88 90 144 2 92 -65 140 -202 143 -47 1 -99 -2 -116 -7z"/>
<path d="M22882 13858 c-59 -28 -94 -77 -100 -137 -4 -42 -1 -50 19 -65 30
-21 52 -20 72 2 25 28 21 69 -8 88 -25 16 -25 17 -8 37 10 11 38 29 62 39 121
55 247 -51 213 -178 -19 -71 -55 -115 -208 -255 -89 -80 -144 -138 -144 -150
0 -18 11 -19 219 -19 l219 0 11 68 c6 37 14 79 17 95 5 24 2 27 -19 27 -21 0
-25 -6 -31 -40 -8 -54 -30 -61 -174 -58 l-115 3 130 102 c152 119 188 157 203
215 29 105 -32 208 -140 238 -62 17 -170 11 -218 -12z"/>
<path d="M18243 11146 c-92 -29 -191 -128 -231 -231 -48 -123 -36 -233 32
-301 69 -70 154 -80 242 -29 l41 24 -24 -101 c-33 -142 -34 -143 -118 -150
-22 -2 -30 -8 -30 -23 0 -19 7 -20 160 -20 153 0 160 1 160 20 0 16 -8 21 -40
23 -22 2 -44 7 -48 11 -4 4 35 180 88 390 52 210 93 386 90 392 -11 17 -31 9
-70 -31 l-39 -40 -25 26 c-47 51 -109 64 -188 40z m140 -63 c47 -50 47 -64 6
-226 -32 -130 -42 -154 -71 -184 -65 -68 -149 -92 -187 -54 -42 42 -44 103
-10 250 44 185 181 297 262 214z"/>
<path d="M18832 11024 c-24 -12 -68 -26 -98 -30 -48 -6 -54 -9 -54 -30 0 -23
3 -24 43 -18 23 3 57 10 75 14 l32 8 0 -258 c0 -178 -3 -261 -11 -266 -6 -3
-40 -9 -75 -12 -54 -4 -64 -8 -64 -23 0 -18 11 -19 195 -19 188 0 195 1 195
20 0 17 -7 20 -49 20 -27 0 -61 4 -75 10 l-26 10 0 300 0 300 -22 -1 c-13 -1
-43 -12 -66 -25z"/>
<path d="M19364 11040 c-101 -31 -144 -170 -56 -178 18 -2 40 2 48 9 19 16 18
78 -1 85 -43 17 26 54 100 54 110 0 151 -77 98 -182 -20 -40 -60 -62 -122 -68
-43 -4 -57 -9 -59 -22 -3 -15 4 -18 45 -18 108 0 166 -41 179 -126 13 -90 -31
-167 -105 -180 -44 -9 -130 8 -166 32 -26 17 -27 18 -6 25 42 16 39 93 -6 110
-41 15 -77 -8 -81 -53 -4 -52 20 -93 75 -125 40 -23 61 -28 138 -31 78 -4 99
-1 143 18 95 41 147 130 123 210 -16 53 -52 94 -107 120 l-45 22 33 18 c51 27
90 88 90 144 2 92 -65 140 -202 143 -47 1 -99 -2 -116 -7z"/>
<path d="M28280 11294 c-142 -27 -239 -119 -240 -227 0 -50 35 -87 84 -87 49
0 65 8 82 42 31 59 -4 127 -66 128 -24 1 -24 2 12 34 39 34 85 52 159 62 60 7
125 -27 152 -79 41 -81 16 -245 -49 -317 -36 -40 -92 -60 -170 -60 -23 0 -37
-6 -41 -16 -9 -25 16 -34 95 -34 113 0 167 -40 198 -148 23 -78 15 -221 -14
-279 -46 -90 -108 -120 -208 -102 -69 13 -119 36 -157 75 l-29 28 31 11 c43
14 62 37 68 82 4 32 0 44 -22 71 -23 27 -33 32 -71 32 -35 0 -51 -6 -71 -26
-23 -23 -25 -31 -21 -89 7 -110 78 -186 211 -227 227 -68 455 66 474 279 6 72
-7 125 -49 188 -34 52 -127 119 -181 131 l-31 7 47 23 c143 73 213 249 144
366 -27 47 -84 91 -147 113 -42 15 -152 26 -190 19z"/>
<path d="M37775 11138 c-3 -7 -13 -84 -23 -170 -10 -87 -20 -160 -23 -162 -2
-2 -69 9 -149 25 -153 31 -195 33 -195 10 0 -12 203 -115 300 -154 5 -2 -28
-70 -74 -151 -76 -135 -90 -176 -61 -176 6 0 44 35 83 77 40 43 92 99 117 126
l45 48 114 -125 c63 -69 119 -126 126 -126 30 0 19 36 -56 171 -43 79 -79 147
-79 150 0 3 68 36 150 74 114 52 150 72 150 87 0 25 -19 24 -195 -12 -82 -17
-149 -29 -150 -28 -1 2 -9 73 -19 158 -10 85 -20 163 -22 173 -6 20 -32 23
-39 5z"/>
<path d="M18243 6426 c-92 -29 -191 -128 -231 -231 -48 -123 -36 -233 32 -301
69 -70 154 -80 242 -29 l41 24 -24 -101 c-33 -142 -34 -143 -118 -150 -22 -2
-30 -8 -30 -23 0 -19 7 -20 160 -20 153 0 160 1 160 20 0 16 -8 21 -40 23 -22
2 -44 7 -48 11 -4 4 35 180 88 390 52 210 93 386 90 392 -11 17 -31 9 -70 -31
l-39 -40 -25 26 c-47 51 -109 64 -188 40z m140 -63 c47 -50 47 -64 6 -226 -32
-130 -42 -154 -71 -184 -65 -68 -149 -92 -187 -54 -42 42 -44 103 -10 250 44
185 181 297 262 214z"/>
<path d="M18754 6310 c-101 -31 -144 -170 -56 -178 18 -2 40 2 48 9 19 16 18
78 -1 85 -43 17 26 54 100 54 110 0 151 -77 98 -182 -20 -40 -60 -62 -122 -68
-43 -4 -57 -9 -59 -22 -3 -15 4 -18 45 -18 108 0 166 -41 179 -126 13 -90 -31
-167 -105 -180 -44 -9 -130 8 -166 32 -26 17 -27 18 -6 25 42 16 39 93 -6 110
-41 15 -77 -8 -81 -53 -4 -52 20 -93 75 -125 40 -23 61 -28 138 -31 78 -4 99
-1 143 18 95 41 147 130 123 210 -16 53 -52 94 -107 120 l-45 22 33 18 c51 27
90 88 90 144 2 92 -65 140 -202 143 -47 1 -99 -2 -116 -7z"/>
<path d="M19442 6294 c-24 -12 -68 -26 -98 -30 -48 -6 -54 -9 -54 -30 0 -23 3
-24 43 -18 23 3 57 10 75 14 l32 8 0 -258 c0 -178 -3 -261 -11 -266 -6 -3 -40
-9 -75 -12 -54 -4 -64 -8 -64 -23 0 -18 11 -19 195 -19 188 0 195 1 195 20 0
17 -7 20 -49 20 -27 0 -61 4 -75 10 l-26 10 0 300 0 300 -22 -1 c-13 -1 -43
-12 -66 -25z"/>
<path d="M24133 3116 c-92 -29 -191 -128 -231 -231 -48 -123 -36 -233 32 -301
69 -70 154 -80 242 -29 l41 24 -24 -101 c-33 -142 -34 -143 -118 -150 -22 -2
-30 -8 -30 -23 0 -19 7 -20 160 -20 153 0 160 1 160 20 0 16 -8 21 -40 23 -22
2 -44 7 -48 11 -4 4 35 180 88 390 52 210 93 386 90 392 -11 17 -31 9 -70 -31
l-39 -40 -25 26 c-47 51 -109 64 -188 40z m140 -63 c47 -50 47 -64 6 -226 -32
-130 -42 -154 -71 -184 -65 -68 -149 -92 -187 -54 -42 42 -44 103 -10 250 44
185 181 297 262 214z"/>
<path d="M24722 2994 c-24 -12 -68 -26 -98 -30 -48 -6 -54 -9 -54 -30 0 -23 3
-24 43 -18 23 3 57 10 75 14 l32 8 0 -258 c0 -178 -3 -261 -11 -266 -6 -3 -40
-9 -75 -12 -54 -4 -64 -8 -64 -23 0 -18 11 -19 195 -19 188 0 195 1 195 20 0
17 -7 20 -49 20 -27 0 -61 4 -75 10 l-26 10 0 300 0 300 -22 -1 c-13 -1 -43
-12 -66 -25z"/>
<path d="M25357 2828 c-3 -13 -9 -56 -13 -96 -3 -40 -11 -75 -16 -78 -5 -4
-50 2 -99 11 -63 12 -93 15 -101 7 -17 -17 -3 -27 87 -67 47 -21 85 -42 85
-47 0 -5 -20 -44 -45 -88 -50 -89 -53 -100 -26 -100 11 0 46 30 82 71 l63 71
68 -71 c63 -66 98 -87 98 -59 0 6 -21 49 -46 96 -25 46 -44 85 -42 86 142 68
178 88 178 101 0 19 -16 19 -118 -1 -45 -9 -85 -15 -87 -12 -3 3 -11 47 -18
99 -9 72 -16 94 -28 97 -10 2 -19 -6 -22 -20z"/>
<path d="M9444 6531 c-41 -37 -131 -71 -211 -78 -62 -6 -63 -6 -63 -36 l0 -30
64 7 c35 3 85 13 110 20 l46 14 0 -443 0 -444 -22 -15 c-16 -11 -46 -16 -105
-16 l-83 0 0 -30 0 -30 275 0 275 0 0 30 0 30 -84 0 c-138 0 -126 -54 -129
540 -2 497 -2 505 -22 507 -11 2 -34 -10 -51 -26z"/>
<path d="M28863 20126 c-92 -29 -191 -128 -231 -231 -48 -123 -36 -233 32
-301 69 -70 154 -80 242 -29 l41 24 -24 -101 c-33 -142 -34 -143 -118 -150
-22 -2 -30 -8 -30 -23 0 -19 7 -20 160 -20 153 0 160 1 160 20 0 16 -8 21 -40
23 -22 2 -44 7 -48 11 -4 4 35 180 88 390 52 210 93 386 90 392 -11 17 -31 9
-70 -31 l-39 -40 -25 26 c-47 51 -109 64 -188 40z m140 -63 c47 -50 47 -64 6
-226 -32 -130 -42 -154 -71 -184 -65 -68 -149 -92 -187 -54 -42 42 -44 103
-10 250 44 185 181 297 262 214z"/>
<path d="M29352 19998 c-59 -28 -94 -77 -100 -137 -4 -42 -1 -50 19 -65 30
-21 52 -20 72 2 25 28 21 69 -8 88 -25 16 -25 17 -8 37 10 11 38 29 62 39 121
55 247 -51 213 -178 -19 -71 -55 -115 -208 -255 -89 -80 -144 -138 -144 -150
0 -18 11 -19 219 -19 l219 0 11 68 c6 37 14 79 17 95 5 24 2 27 -19 27 -21 0
-25 -6 -31 -40 -8 -54 -30 -61 -174 -58 l-115 3 130 102 c152 119 188 157 203
215 29 105 -32 208 -140 238 -62 17 -170 11 -218 -12z"/>
<path d="M30087 19828 c-3 -13 -9 -56 -13 -96 -3 -40 -11 -75 -16 -78 -5 -4
-50 2 -99 11 -63 12 -93 15 -101 7 -17 -17 -3 -27 87 -67 47 -21 85 -42 85
-47 0 -5 -20 -44 -45 -88 -50 -89 -53 -100 -26 -100 11 0 46 30 82 71 l63 71
68 -71 c63 -66 98 -87 98 -59 0 6 -21 49 -46 96 -25 46 -44 85 -42 86 142 68
178 88 178 101 0 19 -16 19 -118 -1 -45 -9 -85 -15 -87 -12 -3 3 -11 47 -18
99 -9 72 -16 94 -28 97 -10 2 -19 -6 -22 -20z"/>
<path d="M9503 14686 c-92 -29 -191 -128 -231 -231 -48 -123 -36 -233 32 -301
69 -70 154 -80 242 -29 l41 24 -24 -101 c-33 -142 -34 -143 -118 -150 -22 -2
-30 -8 -30 -23 0 -19 7 -20 160 -20 153 0 160 1 160 20 0 16 -8 21 -40 23 -22
2 -44 7 -48 11 -4 4 35 180 88 390 52 210 93 386 90 392 -11 17 -31 9 -70 -31
l-39 -40 -25 26 c-47 51 -109 64 -188 40z m140 -63 c47 -50 47 -64 6 -226 -32
-130 -42 -154 -71 -184 -65 -68 -149 -92 -187 -54 -42 42 -44 103 -10 250 44
185 181 297 262 214z"/>
<path d="M10092 14564 c-24 -12 -68 -26 -98 -30 -48 -6 -54 -9 -54 -30 0 -23
3 -24 43 -18 23 3 57 10 75 14 l32 8 0 -258 c0 -178 -3 -261 -11 -266 -6 -3
-40 -9 -75 -12 -54 -4 -64 -8 -64 -23 0 -18 11 -19 195 -19 188 0 195 1 195
20 0 17 -7 20 -49 20 -27 0 -61 4 -75 10 l-26 10 0 300 0 300 -22 -1 c-13 -1
-43 -12 -66 -25z"/>
<path d="M10602 14568 c-59 -28 -94 -77 -100 -137 -4 -42 -1 -50 19 -65 30
-21 52 -20 72 2 25 28 21 69 -8 88 -25 16 -25 17 -8 37 10 11 38 29 62 39 121
55 247 -51 213 -178 -19 -71 -55 -115 -208 -255 -89 -80 -144 -138 -144 -150
0 -18 11 -19 219 -19 l219 0 11 68 c6 37 14 79 17 95 5 24 2 27 -19 27 -21 0
-25 -6 -31 -40 -8 -54 -30 -61 -174 -58 l-115 3 130 102 c152 119 188 157 203
215 29 105 -32 208 -140 238 -62 17 -170 11 -218 -12z"/>
</g>
</svg>
