<?xml version="1.0" encoding="utf-8" standalone="no"?>
<!DOCTYPE svg PUBLIC "-//W3C//DTD SVG 1.1//EN"
  "http://www.w3.org/Graphics/SVG/1.1/DTD/svg11.dtd">
<svg xmlns:xlink="http://www.w3.org/1999/xlink" width="432pt" height="288pt" viewBox="0 0 432 288" xmlns="http://www.w3.org/2000/svg" version="1.1">
 <metadata>
  <rdf:RDF xmlns:dc="http://purl.org/dc/elements/1.1/" xmlns:cc="http://creativecommons.org/ns#" xmlns:rdf="http://www.w3.org/1999/02/22-rdf-syntax-ns#">
   <cc:Work>
    <dc:type rdf:resource="http://purl.org/dc/dcmitype/StillImage"/>
    <dc:date>2022-03-02T09:28:24.473866</dc:date>
    <dc:format>image/svg+xml</dc:format>
    <dc:creator>
     <cc:Agent>
      <dc:title>Matplotlib v3.5.1, https://matplotlib.org/</dc:title>
     </cc:Agent>
    </dc:creator>
   </cc:Work>
  </rdf:RDF>
 </metadata>
 <defs>
  <style type="text/css">*{stroke-linejoin: round; stroke-linecap: butt}</style>
 </defs>
 <g id="figure_1">
  <g id="patch_1">
   <path d="M 0 288 
L 432 288 
L 432 0 
L 0 0 
L 0 288 
z
" style="fill: none"/>
  </g>
  <g id="axes_1">
   <g id="patch_2">
    <path d="M 54 252 
L 388.8 252 
L 388.8 34.56 
L 54 34.56 
z
" style="fill: #ffffff"/>
   </g>
   <g id="matplotlib.axis_1">
    <g id="xtick_1">
     <g id="line2d_1">
      <defs>
       <path id="m9e4b977c29" d="M 0 0 
L 0 3.5 
" style="stroke: #000000; stroke-width: 0.8"/>
      </defs>
      <g>
       <use xlink:href="#m9e4b977c29" x="69.218182" y="252" style="stroke: #000000; stroke-width: 0.8"/>
      </g>
     </g>
     <g id="text_1">
      <!-- 0 -->
      <g transform="translate(66.036932 266.598437)scale(0.1 -0.1)">
       <defs>
        <path id="DejaVuSans-30" d="M 2034 4250 
Q 1547 4250 1301 3770 
Q 1056 3291 1056 2328 
Q 1056 1369 1301 889 
Q 1547 409 2034 409 
Q 2525 409 2770 889 
Q 3016 1369 3016 2328 
Q 3016 3291 2770 3770 
Q 2525 4250 2034 4250 
z
M 2034 4750 
Q 2819 4750 3233 4129 
Q 3647 3509 3647 2328 
Q 3647 1150 3233 529 
Q 2819 -91 2034 -91 
Q 1250 -91 836 529 
Q 422 1150 422 2328 
Q 422 3509 836 4129 
Q 1250 4750 2034 4750 
z
" transform="scale(0.015625)"/>
       </defs>
       <use xlink:href="#DejaVuSans-30"/>
      </g>
     </g>
    </g>
    <g id="xtick_2">
     <g id="line2d_2">
      <g>
       <use xlink:href="#m9e4b977c29" x="130.092274" y="252" style="stroke: #000000; stroke-width: 0.8"/>
      </g>
     </g>
     <g id="text_2">
      <!-- 100 -->
      <g transform="translate(120.548524 266.598437)scale(0.1 -0.1)">
       <defs>
        <path id="DejaVuSans-31" d="M 794 531 
L 1825 531 
L 1825 4091 
L 703 3866 
L 703 4441 
L 1819 4666 
L 2450 4666 
L 2450 531 
L 3481 531 
L 3481 0 
L 794 0 
L 794 531 
z
" transform="scale(0.015625)"/>
       </defs>
       <use xlink:href="#DejaVuSans-31"/>
       <use xlink:href="#DejaVuSans-30" x="63.623047"/>
       <use xlink:href="#DejaVuSans-30" x="127.246094"/>
      </g>
     </g>
    </g>
    <g id="xtick_3">
     <g id="line2d_3">
      <g>
       <use xlink:href="#m9e4b977c29" x="190.966367" y="252" style="stroke: #000000; stroke-width: 0.8"/>
      </g>
     </g>
     <g id="text_3">
      <!-- 200 -->
      <g transform="translate(181.422617 266.598437)scale(0.1 -0.1)">
       <defs>
        <path id="DejaVuSans-32" d="M 1228 531 
L 3431 531 
L 3431 0 
L 469 0 
L 469 531 
Q 828 903 1448 1529 
Q 2069 2156 2228 2338 
Q 2531 2678 2651 2914 
Q 2772 3150 2772 3378 
Q 2772 3750 2511 3984 
Q 2250 4219 1831 4219 
Q 1534 4219 1204 4116 
Q 875 4013 500 3803 
L 500 4441 
Q 881 4594 1212 4672 
Q 1544 4750 1819 4750 
Q 2544 4750 2975 4387 
Q 3406 4025 3406 3419 
Q 3406 3131 3298 2873 
Q 3191 2616 2906 2266 
Q 2828 2175 2409 1742 
Q 1991 1309 1228 531 
z
" transform="scale(0.015625)"/>
       </defs>
       <use xlink:href="#DejaVuSans-32"/>
       <use xlink:href="#DejaVuSans-30" x="63.623047"/>
       <use xlink:href="#DejaVuSans-30" x="127.246094"/>
      </g>
     </g>
    </g>
    <g id="xtick_4">
     <g id="line2d_4">
      <g>
       <use xlink:href="#m9e4b977c29" x="251.840459" y="252" style="stroke: #000000; stroke-width: 0.8"/>
      </g>
     </g>
     <g id="text_4">
      <!-- 300 -->
      <g transform="translate(242.296709 266.598437)scale(0.1 -0.1)">
       <defs>
        <path id="DejaVuSans-33" d="M 2597 2516 
Q 3050 2419 3304 2112 
Q 3559 1806 3559 1356 
Q 3559 666 3084 287 
Q 2609 -91 1734 -91 
Q 1441 -91 1130 -33 
Q 819 25 488 141 
L 488 750 
Q 750 597 1062 519 
Q 1375 441 1716 441 
Q 2309 441 2620 675 
Q 2931 909 2931 1356 
Q 2931 1769 2642 2001 
Q 2353 2234 1838 2234 
L 1294 2234 
L 1294 2753 
L 1863 2753 
Q 2328 2753 2575 2939 
Q 2822 3125 2822 3475 
Q 2822 3834 2567 4026 
Q 2313 4219 1838 4219 
Q 1578 4219 1281 4162 
Q 984 4106 628 3988 
L 628 4550 
Q 988 4650 1302 4700 
Q 1616 4750 1894 4750 
Q 2613 4750 3031 4423 
Q 3450 4097 3450 3541 
Q 3450 3153 3228 2886 
Q 3006 2619 2597 2516 
z
" transform="scale(0.015625)"/>
       </defs>
       <use xlink:href="#DejaVuSans-33"/>
       <use xlink:href="#DejaVuSans-30" x="63.623047"/>
       <use xlink:href="#DejaVuSans-30" x="127.246094"/>
      </g>
     </g>
    </g>
    <g id="xtick_5">
     <g id="line2d_5">
      <g>
       <use xlink:href="#m9e4b977c29" x="312.714552" y="252" style="stroke: #000000; stroke-width: 0.8"/>
      </g>
     </g>
     <g id="text_5">
      <!-- 400 -->
      <g transform="translate(303.170802 266.598437)scale(0.1 -0.1)">
       <defs>
        <path id="DejaVuSans-34" d="M 2419 4116 
L 825 1625 
L 2419 1625 
L 2419 4116 
z
M 2253 4666 
L 3047 4666 
L 3047 1625 
L 3713 1625 
L 3713 1100 
L 3047 1100 
L 3047 0 
L 2419 0 
L 2419 1100 
L 313 1100 
L 313 1709 
L 2253 4666 
z
" transform="scale(0.015625)"/>
       </defs>
       <use xlink:href="#DejaVuSans-34"/>
       <use xlink:href="#DejaVuSans-30" x="63.623047"/>
       <use xlink:href="#DejaVuSans-30" x="127.246094"/>
      </g>
     </g>
    </g>
    <g id="xtick_6">
     <g id="line2d_6">
      <g>
       <use xlink:href="#m9e4b977c29" x="373.588645" y="252" style="stroke: #000000; stroke-width: 0.8"/>
      </g>
     </g>
     <g id="text_6">
      <!-- 500 -->
      <g transform="translate(364.044895 266.598437)scale(0.1 -0.1)">
       <defs>
        <path id="DejaVuSans-35" d="M 691 4666 
L 3169 4666 
L 3169 4134 
L 1269 4134 
L 1269 2991 
Q 1406 3038 1543 3061 
Q 1681 3084 1819 3084 
Q 2600 3084 3056 2656 
Q 3513 2228 3513 1497 
Q 3513 744 3044 326 
Q 2575 -91 1722 -91 
Q 1428 -91 1123 -41 
Q 819 9 494 109 
L 494 744 
Q 775 591 1075 516 
Q 1375 441 1709 441 
Q 2250 441 2565 725 
Q 2881 1009 2881 1497 
Q 2881 1984 2565 2268 
Q 2250 2553 1709 2553 
Q 1456 2553 1204 2497 
Q 953 2441 691 2322 
L 691 4666 
z
" transform="scale(0.015625)"/>
       </defs>
       <use xlink:href="#DejaVuSans-35"/>
       <use xlink:href="#DejaVuSans-30" x="63.623047"/>
       <use xlink:href="#DejaVuSans-30" x="127.246094"/>
      </g>
     </g>
    </g>
   </g>
   <g id="matplotlib.axis_2">
    <g id="ytick_1">
     <g id="line2d_7">
      <defs>
       <path id="m8057fec76c" d="M 0 0 
L -3.5 0 
" style="stroke: #000000; stroke-width: 0.8"/>
      </defs>
      <g>
       <use xlink:href="#m8057fec76c" x="54" y="242.116364" style="stroke: #000000; stroke-width: 0.8"/>
      </g>
     </g>
     <g id="text_7">
      <!-- 0 -->
      <g transform="translate(40.6375 245.915582)scale(0.1 -0.1)">
       <use xlink:href="#DejaVuSans-30"/>
      </g>
     </g>
    </g>
    <g id="ytick_2">
     <g id="line2d_8">
      <g>
       <use xlink:href="#m8057fec76c" x="54" y="211.326219" style="stroke: #000000; stroke-width: 0.8"/>
      </g>
     </g>
     <g id="text_8">
      <!-- 200 -->
      <g transform="translate(27.9125 215.125438)scale(0.1 -0.1)">
       <use xlink:href="#DejaVuSans-32"/>
       <use xlink:href="#DejaVuSans-30" x="63.623047"/>
       <use xlink:href="#DejaVuSans-30" x="127.246094"/>
      </g>
     </g>
    </g>
    <g id="ytick_3">
     <g id="line2d_9">
      <g>
       <use xlink:href="#m8057fec76c" x="54" y="180.536075" style="stroke: #000000; stroke-width: 0.8"/>
      </g>
     </g>
     <g id="text_9">
      <!-- 400 -->
      <g transform="translate(27.9125 184.335294)scale(0.1 -0.1)">
       <use xlink:href="#DejaVuSans-34"/>
       <use xlink:href="#DejaVuSans-30" x="63.623047"/>
       <use xlink:href="#DejaVuSans-30" x="127.246094"/>
      </g>
     </g>
    </g>
    <g id="ytick_4">
     <g id="line2d_10">
      <g>
       <use xlink:href="#m8057fec76c" x="54" y="149.74593" style="stroke: #000000; stroke-width: 0.8"/>
      </g>
     </g>
     <g id="text_10">
      <!-- 600 -->
      <g transform="translate(27.9125 153.545149)scale(0.1 -0.1)">
       <defs>
        <path id="DejaVuSans-36" d="M 2113 2584 
Q 1688 2584 1439 2293 
Q 1191 2003 1191 1497 
Q 1191 994 1439 701 
Q 1688 409 2113 409 
Q 2538 409 2786 701 
Q 3034 994 3034 1497 
Q 3034 2003 2786 2293 
Q 2538 2584 2113 2584 
z
M 3366 4563 
L 3366 3988 
Q 3128 4100 2886 4159 
Q 2644 4219 2406 4219 
Q 1781 4219 1451 3797 
Q 1122 3375 1075 2522 
Q 1259 2794 1537 2939 
Q 1816 3084 2150 3084 
Q 2853 3084 3261 2657 
Q 3669 2231 3669 1497 
Q 3669 778 3244 343 
Q 2819 -91 2113 -91 
Q 1303 -91 875 529 
Q 447 1150 447 2328 
Q 447 3434 972 4092 
Q 1497 4750 2381 4750 
Q 2619 4750 2861 4703 
Q 3103 4656 3366 4563 
z
" transform="scale(0.015625)"/>
       </defs>
       <use xlink:href="#DejaVuSans-36"/>
       <use xlink:href="#DejaVuSans-30" x="63.623047"/>
       <use xlink:href="#DejaVuSans-30" x="127.246094"/>
      </g>
     </g>
    </g>
    <g id="ytick_5">
     <g id="line2d_11">
      <g>
       <use xlink:href="#m8057fec76c" x="54" y="118.955786" style="stroke: #000000; stroke-width: 0.8"/>
      </g>
     </g>
     <g id="text_11">
      <!-- 800 -->
      <g transform="translate(27.9125 122.755005)scale(0.1 -0.1)">
       <defs>
        <path id="DejaVuSans-38" d="M 2034 2216 
Q 1584 2216 1326 1975 
Q 1069 1734 1069 1313 
Q 1069 891 1326 650 
Q 1584 409 2034 409 
Q 2484 409 2743 651 
Q 3003 894 3003 1313 
Q 3003 1734 2745 1975 
Q 2488 2216 2034 2216 
z
M 1403 2484 
Q 997 2584 770 2862 
Q 544 3141 544 3541 
Q 544 4100 942 4425 
Q 1341 4750 2034 4750 
Q 2731 4750 3128 4425 
Q 3525 4100 3525 3541 
Q 3525 3141 3298 2862 
Q 3072 2584 2669 2484 
Q 3125 2378 3379 2068 
Q 3634 1759 3634 1313 
Q 3634 634 3220 271 
Q 2806 -91 2034 -91 
Q 1263 -91 848 271 
Q 434 634 434 1313 
Q 434 1759 690 2068 
Q 947 2378 1403 2484 
z
M 1172 3481 
Q 1172 3119 1398 2916 
Q 1625 2713 2034 2713 
Q 2441 2713 2670 2916 
Q 2900 3119 2900 3481 
Q 2900 3844 2670 4047 
Q 2441 4250 2034 4250 
Q 1625 4250 1398 4047 
Q 1172 3844 1172 3481 
z
" transform="scale(0.015625)"/>
       </defs>
       <use xlink:href="#DejaVuSans-38"/>
       <use xlink:href="#DejaVuSans-30" x="63.623047"/>
       <use xlink:href="#DejaVuSans-30" x="127.246094"/>
      </g>
     </g>
    </g>
    <g id="ytick_6">
     <g id="line2d_12">
      <g>
       <use xlink:href="#m8057fec76c" x="54" y="88.165641" style="stroke: #000000; stroke-width: 0.8"/>
      </g>
     </g>
     <g id="text_12">
      <!-- 1000 -->
      <g transform="translate(21.55 91.96486)scale(0.1 -0.1)">
       <use xlink:href="#DejaVuSans-31"/>
       <use xlink:href="#DejaVuSans-30" x="63.623047"/>
       <use xlink:href="#DejaVuSans-30" x="127.246094"/>
       <use xlink:href="#DejaVuSans-30" x="190.869141"/>
      </g>
     </g>
    </g>
    <g id="ytick_7">
     <g id="line2d_13">
      <g>
       <use xlink:href="#m8057fec76c" x="54" y="57.375497" style="stroke: #000000; stroke-width: 0.8"/>
      </g>
     </g>
     <g id="text_13">
      <!-- 1200 -->
      <g transform="translate(21.55 61.174716)scale(0.1 -0.1)">
       <use xlink:href="#DejaVuSans-31"/>
       <use xlink:href="#DejaVuSans-32" x="63.623047"/>
       <use xlink:href="#DejaVuSans-30" x="127.246094"/>
       <use xlink:href="#DejaVuSans-30" x="190.869141"/>
      </g>
     </g>
    </g>
   </g>
   <g id="line2d_14">
    <path d="M 69.218182 242.116364 
L 69.444707 241.962413 
L 72.60417 241.654511 
L 72.862324 241.500561 
L 79.095955 241.192659 
L 79.338038 241.038709 
L 80.939356 240.884758 
L 80.954591 240.730807 
L 82.61516 240.576856 
L 82.686922 240.422906 
L 83.05224 240.268955 
L 85.068052 240.115004 
L 85.571268 239.807103 
L 87.976858 239.653152 
L 88.922417 239.345251 
L 93.644141 238.421546 
L 101.019218 237.805743 
L 102.051834 237.651793 
L 102.104223 237.497842 
L 102.824837 237.343891 
L 102.913868 237.189941 
L 105.670734 237.03599 
L 106.054134 236.882039 
L 110.661316 236.574138 
L 111.837455 236.266236 
L 111.849827 236.112285 
L 113.073844 235.804384 
L 113.38276 235.650433 
L 115.709299 235.188581 
L 119.624132 235.03463 
L 120.219736 234.726729 
L 120.627414 234.572778 
L 127.111405 233.803025 
L 127.43608 233.495123 
L 129.644665 233.187222 
L 135.593582 232.87932 
L 136.239347 232.72537 
L 137.446161 232.571419 
L 137.759205 232.417468 
L 140.962275 232.263517 
L 141.476856 232.109567 
L 149.428713 231.955616 
L 150.89983 231.647715 
L 150.932899 231.493764 
L 165.767096 230.570059 
L 165.936833 230.262158 
L 166.219327 230.108207 
L 169.342565 229.800306 
L 169.795204 229.646355 
L 179.904711 228.5687 
L 179.960533 228.414749 
L 182.38039 228.260799 
L 189.730334 227.952897 
L 190.123181 227.798946 
L 194.970079 227.491045 
L 196.862547 227.029193 
L 200.022864 226.567341 
L 200.083656 226.41339 
L 203.152771 226.259439 
L 203.246408 226.105489 
L 205.394914 225.951538 
L 205.722897 225.797587 
L 210.249178 225.335735 
L 210.351933 225.181784 
L 210.811096 225.027833 
L 210.884773 224.873883 
L 212.637106 224.719932 
L 212.759666 224.565981 
L 218.945367 224.104129 
L 220.763737 223.642277 
L 222.476452 223.334376 
L 222.778117 223.180425 
L 225.183477 222.872523 
L 227.279393 222.718573 
L 232.688569 222.564622 
L 232.708617 222.410671 
L 232.867994 222.25672 
L 233.625235 222.10277 
L 235.25362 221.948819 
L 235.268208 221.794868 
L 236.287543 221.640918 
L 238.457699 221.486967 
L 239.226066 221.179065 
L 239.466173 221.025115 
L 247.315241 220.717213 
L 251.116368 220.255361 
L 258.931155 219.793509 
L 259.021745 219.639558 
L 259.534271 219.485607 
L 259.658357 219.331657 
L 260.124408 219.177706 
L 265.076987 218.869805 
L 265.309714 218.715854 
L 272.332281 217.638199 
L 275.207871 217.484248 
L 276.111989 217.176347 
L 276.284095 217.022396 
L 276.770868 216.868445 
L 276.803768 216.714494 
L 279.124735 216.560544 
L 279.172379 216.406593 
L 280.47708 216.098692 
L 284.22856 215.944741 
L 284.475721 215.79079 
L 287.985906 215.482889 
L 288.428442 215.328938 
L 290.572027 215.021037 
L 292.26694 214.867086 
L 292.376179 214.713135 
L 294.856343 214.405234 
L 298.859253 214.251283 
L 299.441699 214.097332 
L 300.500851 213.943381 
L 300.526363 213.789431 
L 302.739536 213.481529 
L 305.448494 213.019677 
L 305.934396 212.865726 
L 309.298832 212.711776 
L 309.878596 212.557825 
L 312.273696 212.249924 
L 312.76146 212.095973 
L 316.320707 211.942022 
L 317.524836 211.48017 
L 323.181019 211.018318 
L 323.716028 210.864367 
L 326.503545 210.710416 
L 326.970288 210.556466 
L 327.060231 210.402515 
L 328.756431 209.940663 
L 330.644273 209.786712 
L 330.933926 209.632761 
L 333.202418 209.32486 
L 343.54558 209.016958 
L 346.519112 208.709057 
L 346.724425 208.555106 
L 352.235464 208.401155 
L 352.293637 208.247205 
L 353.89095 207.939303 
L 353.992507 207.785353 
L 355.199434 207.631402 
L 355.606849 207.3235 
L 357.312246 207.015599 
L 357.379801 206.861648 
L 358.948847 206.553747 
L 361.682738 206.399796 
L 363.840078 205.937944 
L 365.838342 205.630042 
L 366.510893 205.476092 
L 369.166743 205.16819 
L 369.293516 204.860289 
L 371.604319 204.552387 
L 371.604319 204.552387 
" clip-path="url(#p71634f7ba1)" style="fill: none; stroke: #1f77b4; stroke-width: 1.5; stroke-linecap: square"/>
   </g>
   <g id="line2d_15">
    <path d="M 69.218182 242.116364 
L 69.511147 241.962413 
L 71.348797 241.808462 
L 77.119179 241.654511 
L 82.335702 241.500561 
L 85.468351 241.34661 
L 87.42356 241.192659 
L 90.259872 241.038709 
L 94.715221 240.884758 
L 98.964331 240.730807 
L 99.772489 240.576856 
L 104.529558 240.422906 
L 107.35531 240.268955 
L 109.709006 240.115004 
L 112.780531 239.961054 
L 121.258898 239.807103 
L 123.319063 239.653152 
L 123.480972 239.499201 
L 127.636243 239.345251 
L 129.407585 239.1913 
L 136.461159 239.037349 
L 154.111133 238.883398 
L 157.363274 238.729448 
L 160.232709 238.575497 
L 166.573004 238.421546 
L 166.849196 238.267596 
L 178.973946 238.113645 
L 187.70307 237.959694 
L 198.163165 237.805743 
L 199.217617 237.651793 
L 205.3576 237.497842 
L 205.365541 237.343891 
L 211.719746 237.189941 
L 221.23102 237.03599 
L 224.652456 236.882039 
L 231.046378 236.728088 
L 237.940462 236.574138 
L 260.161957 236.420187 
L 266.500905 236.266236 
L 275.373759 236.112285 
L 286.797372 235.958335 
L 293.203881 235.804384 
L 297.917583 235.650433 
L 299.486558 235.496483 
L 309.097073 235.342532 
L 323.050286 235.188581 
L 328.300861 235.03463 
L 332.505525 234.88068 
L 334.517667 234.726729 
L 339.17462 234.572778 
L 345.60281 234.418828 
L 346.495842 234.264877 
L 349.157165 234.110926 
L 351.505507 233.956975 
L 360.382097 233.803025 
L 371.966059 233.649074 
" clip-path="url(#p71634f7ba1)" style="fill: none; stroke: #ff7f0e; stroke-width: 1.5; stroke-linecap: square"/>
   </g>
   <g id="line2d_16">
    <path d="M 69.218182 242.116364 
L 70.154233 241.654511 
L 70.368073 241.500561 
L 72.680777 241.192659 
L 72.935899 241.038709 
L 72.961426 240.884758 
L 74.34753 239.807103 
L 75.129431 239.653152 
L 75.227578 239.499201 
L 76.743576 239.037349 
L 77.065096 238.421546 
L 78.709286 237.805743 
L 78.921791 237.651793 
L 79.995343 237.497842 
L 80.131298 237.343891 
L 81.494042 237.189941 
L 82.031351 236.574138 
L 82.155251 236.420187 
L 86.132407 235.342532 
L 86.271511 235.188581 
L 86.628004 235.03463 
L 87.730137 234.726729 
L 88.412868 234.418828 
L 88.56584 234.110926 
L 89.146178 233.956975 
L 90.284313 233.803025 
L 91.00345 233.187222 
L 91.609759 233.033271 
L 91.842559 232.72537 
L 93.19981 232.263517 
L 93.314378 232.109567 
L 93.648537 231.955616 
L 93.697419 231.801665 
L 94.259674 231.647715 
L 94.398491 231.031912 
L 95.223525 230.72401 
L 96.64186 230.570059 
L 96.84102 230.262158 
L 97.371034 229.954257 
L 98.438107 229.492404 
L 98.772806 229.184503 
L 99.143991 229.030552 
L 99.931787 228.876602 
L 100.117304 228.722651 
L 101.895919 227.952897 
L 101.927721 227.798946 
L 104.944463 226.567341 
L 106.252783 226.41339 
L 106.394805 226.105489 
L 106.437974 225.951538 
L 106.681543 225.797587 
L 106.708432 225.643636 
L 107.132764 225.489686 
L 107.196719 225.335735 
L 108.195327 224.565981 
L 110.126713 224.104129 
L 110.467647 223.796228 
L 112.413599 222.718573 
L 113.922532 222.25672 
L 114.07275 222.10277 
L 114.646229 221.794868 
L 114.761112 221.640918 
L 115.206039 221.333016 
L 118.039308 220.717213 
L 118.062162 220.563263 
L 118.77494 220.10141 
L 119.216292 219.94746 
L 119.289059 219.639558 
L 119.941459 219.331657 
L 120.590367 218.869805 
L 120.730076 218.561903 
L 122.975959 217.638199 
L 123.01075 217.484248 
L 123.245031 217.330297 
L 124.053649 217.022396 
L 124.755595 216.714494 
L 125.082017 216.560544 
L 125.419532 215.636839 
L 126.007842 215.174987 
L 126.101032 215.021037 
L 128.30604 214.097332 
L 128.51237 213.943381 
L 129.6649 213.789431 
L 129.918988 213.63548 
L 130.705471 213.481529 
L 130.830444 213.173628 
L 131.62571 212.865726 
L 131.639279 212.711776 
L 132.904967 212.403874 
L 133.075447 212.095973 
L 133.440493 211.942022 
L 134.408717 211.788071 
L 134.643664 211.634121 
L 136.44639 211.018318 
L 136.787315 210.556466 
L 139.279201 210.094613 
L 140.287202 209.786712 
L 140.757388 209.478811 
L 141.172292 209.32486 
L 141.198598 209.170909 
L 141.539677 208.863008 
L 141.59101 208.709057 
L 142.386632 208.093254 
L 142.583617 207.939303 
L 143.093877 207.785353 
L 143.25538 207.3235 
L 143.658164 207.16955 
L 143.677658 207.015599 
L 143.827865 206.861648 
L 144.785266 206.399796 
L 144.844589 206.245845 
L 146.259739 205.476092 
L 146.451068 205.01424 
L 147.093626 204.860289 
L 147.191023 204.552387 
L 147.325733 204.244486 
L 147.962357 204.090535 
L 147.968354 203.936585 
L 149.855481 203.320782 
L 151.742129 203.166831 
L 152.452019 202.551028 
L 153.412137 202.397077 
L 153.651758 202.243127 
L 155.32186 201.781274 
L 155.763518 201.627324 
L 156.722764 201.473373 
L 156.83355 201.319422 
L 158.344176 201.011521 
L 160.515642 200.395718 
L 160.606144 199.933866 
L 161.965577 199.625964 
L 162.093455 199.472014 
L 163.06138 199.164112 
L 163.103547 199.010161 
L 164.203751 198.548309 
L 164.418963 198.240408 
L 164.566387 198.086457 
L 165.757721 197.932506 
L 166.138883 197.624605 
L 166.355486 197.316703 
L 167.7123 197.008802 
L 168.512217 196.54695 
L 168.951384 196.085098 
L 169.795937 195.931147 
L 170.15923 195.623246 
L 170.917942 195.315344 
L 170.969242 195.161393 
L 171.192198 195.007443 
L 173.485176 194.39164 
L 173.56189 194.237689 
L 173.903237 194.083738 
L 175.936649 193.775837 
L 175.981277 193.621886 
L 176.529264 193.313985 
L 176.533954 193.160034 
L 176.896448 192.698182 
L 177.943836 192.544231 
L 178.060968 192.39028 
L 179.237434 192.23633 
L 179.34447 191.928428 
L 181.220855 190.696822 
L 182.797238 190.388921 
L 182.823705 190.23497 
L 183.344511 190.08102 
L 183.355389 189.927069 
L 183.991549 189.465217 
L 184.198511 189.157315 
L 185.938305 189.003364 
L 186.407514 188.849414 
L 186.570392 188.541512 
L 187.284111 188.387562 
L 187.302412 188.233611 
L 187.678314 188.07966 
L 187.767318 187.771759 
L 189.124922 187.463857 
L 189.253541 187.155956 
L 189.486348 186.848054 
L 190.741789 186.694104 
L 191.711875 185.92435 
L 191.988372 185.616449 
L 192.350333 185.462498 
L 192.48824 185.154596 
L 192.70515 185.000646 
L 193.162707 184.846695 
L 193.179011 184.692744 
L 194.228882 184.538794 
L 194.231637 184.384843 
L 195.658416 184.230892 
L 195.946374 184.076941 
L 197.55228 183.615089 
L 197.838075 183.461138 
L 197.86276 183.307188 
L 200.641375 182.537434 
L 201.318937 182.383483 
L 201.366762 182.229533 
L 202.23042 182.075582 
L 202.357662 181.61373 
L 203.882211 180.536075 
L 204.296859 180.382124 
L 205.860951 180.074223 
L 205.927877 179.766321 
L 206.911504 179.304469 
L 207.190228 179.150518 
L 208.985668 178.842617 
L 209.228975 178.688666 
L 210.286971 178.380765 
L 210.79025 178.072863 
L 210.827446 177.918912 
L 212.657708 177.611011 
L 212.910029 177.45706 
L 212.93923 177.30311 
L 213.090376 177.149159 
L 214.076501 176.841257 
L 214.172836 176.687307 
L 215.284438 176.533356 
L 215.332802 176.225455 
L 215.403446 176.071504 
L 216.115497 175.609652 
L 216.354236 175.147799 
L 217.082037 174.993849 
L 217.447503 174.531997 
L 218.051609 174.378046 
L 218.258726 174.070144 
L 218.411035 173.762243 
L 219.076106 173.608292 
L 219.168616 173.454342 
L 220.672965 172.530637 
L 220.774186 172.376686 
L 221.801249 171.914834 
L 222.130252 171.606933 
L 223.890867 171.299031 
L 224.565761 170.837179 
L 228.142399 170.221376 
L 228.752577 169.759524 
L 229.664424 169.451623 
L 230.018178 169.297672 
L 231.327488 169.143721 
L 231.785404 168.681869 
L 231.822602 168.527918 
L 232.74873 168.220017 
L 233.551133 167.912116 
L 234.134557 167.758165 
L 234.253541 167.604214 
L 234.726216 167.450263 
L 236.005841 167.142362 
L 236.163842 166.988411 
L 237.111441 166.526559 
L 237.212777 166.372608 
L 238.298225 166.218658 
L 239.947589 165.294953 
L 241.173151 164.987052 
L 241.447247 164.67915 
L 242.063307 164.5252 
L 242.100769 164.371249 
L 242.835726 164.063347 
L 242.880994 163.909397 
L 243.686655 163.601495 
L 243.805902 163.447545 
L 244.171088 163.293594 
L 244.221445 163.139643 
L 244.678712 162.985692 
L 244.757104 162.677791 
L 247.633929 162.215939 
L 247.636307 162.061988 
L 248.581608 161.754087 
L 249.107996 161.600136 
L 249.117281 161.446185 
L 250.032834 161.138284 
L 251.097078 160.830382 
L 252.123271 160.522481 
L 253.714079 160.060629 
L 253.802637 159.906678 
L 254.578918 159.444826 
L 255.280101 159.136924 
L 255.434038 158.829023 
L 256.261305 158.675072 
L 256.580663 158.21322 
L 257.264379 158.059269 
L 257.280164 157.905319 
L 257.58186 157.751368 
L 259.228269 157.289516 
L 262.057829 156.05791 
L 262.157665 155.903959 
L 262.821062 155.442107 
L 264.731626 154.980255 
L 265.176378 154.672353 
L 265.405186 154.518403 
L 266.104416 154.364452 
L 266.223046 154.056551 
L 267.201213 153.748649 
L 267.597752 153.440748 
L 267.90268 153.132846 
L 268.902963 152.978895 
L 269.151195 152.670994 
L 269.88145 152.517043 
L 269.938462 152.363093 
L 270.799452 152.209142 
L 270.989725 151.90124 
L 271.00159 151.74729 
L 272.990483 151.131487 
L 273.349947 150.823585 
L 274.050682 150.515684 
L 274.810079 150.053832 
L 276.501699 149.59198 
L 276.843456 149.284078 
L 278.742982 148.976177 
L 279.158131 148.514325 
L 279.982947 148.206423 
L 280.570173 148.052472 
L 280.792333 147.744571 
L 282.977408 147.128768 
L 283.09068 146.974817 
L 283.640729 146.666916 
L 284.593599 146.359014 
L 284.973086 146.205064 
L 285.037864 146.051113 
L 286.339184 145.43531 
L 286.442757 145.281359 
L 287.698338 144.819507 
L 288.25123 144.665556 
L 289.370857 144.511606 
L 289.68253 143.895803 
L 290.390805 143.433951 
L 291.612797 143.126049 
L 291.827665 142.818148 
L 292.818089 142.664197 
L 293.184097 142.356296 
L 294.041417 142.202345 
L 294.570376 141.740493 
L 294.591267 141.586542 
L 294.865213 141.432591 
L 296.062425 141.278641 
L 296.110254 141.12469 
L 296.327851 140.970739 
L 297.777232 140.662838 
L 297.868439 140.508887 
L 298.837658 140.047035 
L 299.32985 139.277281 
L 300.348896 139.123331 
L 300.465111 138.96938 
L 300.926019 138.661478 
L 303.277193 138.353577 
L 303.921969 138.045675 
L 304.713017 137.891725 
L 305.392978 137.429873 
L 306.141873 137.121971 
L 306.811009 136.506168 
L 306.991237 136.352218 
L 307.84393 136.044316 
L 307.901552 135.890365 
L 309.473339 135.582464 
L 310.273817 135.274562 
L 310.499774 134.966661 
L 311.095813 134.65876 
L 311.145169 134.504809 
L 311.527605 134.350858 
L 311.585041 134.196907 
L 311.927569 134.042957 
L 311.929239 133.889006 
L 312.776469 133.581105 
L 312.981498 133.273203 
L 313.4213 133.119252 
L 314.727337 132.965302 
L 314.980768 132.195548 
L 315.792871 131.887647 
L 316.980169 131.733696 
L 317.35586 131.425794 
L 317.411602 131.271844 
L 319.014851 130.50209 
L 319.918906 130.194189 
L 320.265497 129.886287 
L 321.46266 129.424435 
L 321.474376 129.270484 
L 322.199725 129.116534 
L 322.35079 128.808632 
L 323.812032 128.500731 
L 325.462475 128.038879 
L 325.856665 127.730977 
L 328.329875 127.269125 
L 328.685951 127.115174 
L 328.718511 126.961223 
L 330.219862 126.807273 
L 330.424918 126.653322 
L 331.421579 126.345421 
L 331.751703 126.037519 
L 331.78493 125.729618 
L 332.410587 125.421716 
L 332.421248 125.267766 
L 332.807432 124.805913 
L 332.972439 124.498012 
L 333.847042 124.19011 
L 335.624092 123.420357 
L 336.136339 122.958505 
L 336.328486 122.804554 
L 337.751828 122.496653 
L 337.932759 122.342702 
L 338.718967 122.188751 
L 338.809143 121.88085 
L 340.813228 121.111096 
L 341.5044 120.957145 
L 341.566846 120.803195 
L 341.753847 120.649244 
L 343.031762 120.033441 
L 343.760306 119.109737 
L 344.595759 118.647884 
L 344.695079 118.493934 
L 346.407126 117.416279 
L 347.505652 117.108377 
L 348.32445 116.800476 
L 348.932684 116.492574 
L 349.761585 115.876771 
L 349.95431 115.56887 
L 350.984056 114.953067 
L 352.58952 114.491215 
L 352.698789 114.183314 
L 353.375997 114.029363 
L 353.395306 113.875412 
L 353.576753 113.721461 
L 354.182601 113.567511 
L 355.373476 113.41356 
L 355.388843 113.259609 
L 357.118864 112.951708 
L 357.198718 112.643806 
L 358.717931 112.181954 
L 360.421248 111.874053 
L 360.570604 111.720102 
L 361.688215 111.25825 
L 362.914997 111.104299 
L 363.321202 110.796398 
L 363.482175 110.642447 
L 363.841778 110.488496 
L 365.034874 110.180595 
L 365.682257 110.026644 
L 365.694871 109.872693 
L 365.897 109.718743 
L 367.329794 109.410841 
L 367.50461 109.25689 
L 369.235998 109.10294 
L 369.239884 108.948989 
L 370.240533 108.641088 
L 370.31037 108.487137 
L 373.372644 108.025285 
L 373.372644 108.025285 
" clip-path="url(#p71634f7ba1)" style="fill: none; stroke: #2ca02c; stroke-width: 1.5; stroke-linecap: square"/>
   </g>
   <g id="line2d_17">
    <path d="M 69.218182 242.116364 
L 70.194539 241.808462 
L 74.067219 239.653152 
L 74.109825 239.499201 
L 74.326746 239.345251 
L 75.905347 238.729448 
L 77.039247 238.575497 
L 77.092873 238.267596 
L 77.879168 237.805743 
L 78.725389 237.651793 
L 79.037105 237.343891 
L 79.311854 236.882039 
L 80.367392 236.420187 
L 80.544446 236.112285 
L 81.088015 235.342532 
L 81.154922 235.188581 
L 82.483028 234.572778 
L 83.368633 233.956975 
L 84.475252 233.803025 
L 84.858011 233.495123 
L 84.904578 233.187222 
L 85.167377 233.033271 
L 85.946648 232.87932 
L 86.012858 232.72537 
L 86.920966 232.571419 
L 87.334525 232.263517 
L 87.807326 232.109567 
L 88.087728 231.801665 
L 88.260099 231.493764 
L 91.023778 230.262158 
L 91.620609 229.800306 
L 91.652718 229.646355 
L 91.862537 229.492404 
L 93.064808 229.338454 
L 93.365007 229.184503 
L 94.447356 228.876602 
L 94.482902 228.722651 
L 95.472933 228.414749 
L 95.519766 228.260799 
L 96.159679 227.952897 
L 96.267162 227.798946 
L 96.653902 227.644996 
L 96.667675 227.491045 
L 97.291511 227.183144 
L 97.303103 227.029193 
L 97.604136 226.875242 
L 98.209644 226.721291 
L 98.522176 226.259439 
L 100.484659 225.335735 
L 101.052065 225.181784 
L 101.101438 225.027833 
L 102.938321 224.412031 
L 103.032131 224.104129 
L 103.726609 223.642277 
L 105.776597 223.334376 
L 106.571931 223.026474 
L 106.603074 222.872523 
L 106.770612 222.718573 
L 108.365699 222.25672 
L 109.179568 221.486967 
L 109.470843 221.333016 
L 109.565534 220.871164 
L 109.738901 220.563263 
L 109.806518 220.409312 
L 111.110732 219.94746 
L 111.145404 219.793509 
L 111.496537 219.485607 
L 111.574269 219.331657 
L 111.788486 219.177706 
L 112.45806 218.869805 
L 113.034567 218.407952 
L 113.138503 218.100051 
L 113.705311 217.79215 
L 113.824464 217.638199 
L 114.497327 217.484248 
L 114.522495 217.330297 
L 115.327708 217.022396 
L 116.138537 216.868445 
L 116.336029 216.560544 
L 116.336817 216.406593 
L 117.662419 215.328938 
L 117.883533 214.867086 
L 118.762284 214.251283 
L 118.840009 214.097332 
L 119.35058 213.943381 
L 119.378393 213.789431 
L 120.119665 213.481529 
L 121.588923 212.557825 
L 121.59412 212.403874 
L 122.621347 212.095973 
L 123.349324 211.788071 
L 124.281923 211.48017 
L 124.392645 211.172268 
L 125.321994 210.864367 
L 125.77441 210.710416 
L 126.652463 210.556466 
L 126.683281 210.248564 
L 129.151574 208.709057 
L 129.452674 208.401155 
L 129.700218 207.939303 
L 129.781312 207.785353 
L 131.604125 207.3235 
L 131.662406 206.861648 
L 132.610857 206.553747 
L 132.841445 205.937944 
L 133.48133 205.630042 
L 135.443467 205.322141 
L 135.942382 205.01424 
L 136.375998 204.706338 
L 138.449742 203.936585 
L 138.649114 203.782634 
L 139.079592 203.628683 
L 139.088211 203.474732 
L 139.266492 203.166831 
L 140.65354 202.704979 
L 140.662558 202.551028 
L 141.208138 202.089176 
L 143.47324 201.011521 
L 143.477174 200.85757 
L 144.509944 200.395718 
L 144.750458 199.933866 
L 144.86762 199.472014 
L 144.991333 199.318063 
L 145.407934 199.164112 
L 145.469648 199.010161 
L 145.681513 198.856211 
L 146.826155 198.548309 
L 147.582438 197.624605 
L 147.683854 197.316703 
L 148.156831 197.008802 
L 148.16473 196.854851 
L 148.469328 196.700901 
L 148.493408 196.54695 
L 149.009384 196.085098 
L 149.21206 195.777196 
L 149.675661 195.315344 
L 149.777576 195.161393 
L 150.465167 194.853492 
L 151.393801 194.54559 
L 151.51398 194.237689 
L 151.762705 193.929788 
L 152.514449 193.621886 
L 152.625182 193.313985 
L 153.491903 192.544231 
L 153.582098 192.23633 
L 154.011746 191.928428 
L 154.037334 191.774477 
L 155.063455 191.312625 
L 155.137355 191.158675 
L 156.762296 190.696822 
L 157.221134 190.388921 
L 157.245051 190.23497 
L 157.979816 189.773118 
L 158.157908 189.619167 
L 158.677463 189.465217 
L 158.714784 189.311266 
L 159.219088 189.003364 
L 159.266427 188.849414 
L 159.516306 188.695463 
L 160.152201 188.387562 
L 160.487474 187.925709 
L 161.187936 187.617808 
L 161.217789 187.463857 
L 161.686353 187.002005 
L 162.373903 186.694104 
L 162.572367 186.232251 
L 163.270561 185.92435 
L 163.365587 185.770399 
L 164.276477 185.462498 
L 164.458838 185.154596 
L 164.874253 184.692744 
L 165.374655 184.230892 
L 165.523966 183.76904 
L 166.279894 183.615089 
L 166.422889 183.307188 
L 166.85761 183.153237 
L 166.897171 182.999286 
L 167.457165 182.691385 
L 168.007347 182.383483 
L 169.151759 181.767681 
L 169.50754 181.305828 
L 170.040167 181.151878 
L 170.270619 180.843976 
L 172.026577 180.228173 
L 172.898528 179.61237 
L 173.099858 179.304469 
L 173.592765 178.996568 
L 175.022973 178.072863 
L 176.067269 177.764962 
L 176.300832 177.45706 
L 176.317373 177.30311 
L 177.029133 177.149159 
L 177.391433 176.687307 
L 177.739502 175.763602 
L 177.939581 175.609652 
L 179.855811 175.30175 
L 180.01885 175.147799 
L 182.199211 174.839898 
L 184.073621 174.685947 
L 184.182279 174.531997 
L 185.976197 174.070144 
L 186.745496 173.454342 
L 187.400166 173.300391 
L 187.72989 172.530637 
L 188.342905 172.222736 
L 188.415102 172.068785 
L 190.184381 171.299031 
L 190.343738 170.99113 
L 190.46367 170.837179 
L 190.769031 170.683229 
L 190.804225 170.375327 
L 190.897022 170.221376 
L 191.569789 170.067426 
L 191.700709 169.913475 
L 192.483557 169.605573 
L 193.4414 168.527918 
L 193.861054 168.373968 
L 194.03193 167.912116 
L 195.184327 167.296313 
L 196.031247 166.83446 
L 197.920871 166.218658 
L 198.040074 165.756805 
L 198.525072 165.448904 
L 199.39904 164.987052 
L 199.426304 164.5252 
L 200.185098 164.063347 
L 200.19078 163.909397 
L 200.646403 163.447545 
L 201.706402 163.139643 
L 202.066893 162.985692 
L 202.068726 162.831742 
L 202.735783 162.215939 
L 202.767655 162.061988 
L 203.024705 161.754087 
L 203.140801 161.446185 
L 203.306051 161.138284 
L 203.453597 160.676432 
L 203.938394 160.36853 
L 204.415482 160.214579 
L 205.053765 158.829023 
L 205.994761 158.521121 
L 207.242584 158.367171 
L 207.39949 158.059269 
L 209.224651 156.365811 
L 209.382002 156.05791 
L 209.586963 155.750008 
L 210.1381 155.288156 
L 210.413864 154.980255 
L 211.163072 154.672353 
L 211.814616 154.364452 
L 211.834031 154.210501 
L 213.033055 153.9026 
L 213.060938 153.748649 
L 213.639728 153.594698 
L 213.684459 153.440748 
L 215.270056 152.824945 
L 216.180357 152.209142 
L 216.343457 152.055191 
L 216.969016 151.90124 
L 217.094355 151.74729 
L 217.553921 151.593339 
L 217.810268 151.285438 
L 218.113939 150.977536 
L 218.140249 150.823585 
L 218.624558 150.361733 
L 218.718259 149.899881 
L 219.099522 149.59198 
L 219.426557 149.438029 
L 219.695755 148.668275 
L 219.825286 148.514325 
L 220.67344 148.052472 
L 220.99699 147.59062 
L 221.087387 147.436669 
L 221.52222 147.128768 
L 221.925362 146.820867 
L 223.157757 146.666916 
L 223.542417 146.205064 
L 224.791729 145.589261 
L 225.586534 144.819507 
L 226.371688 144.665556 
L 226.498451 144.357655 
L 227.171696 144.049754 
L 227.507631 143.741852 
L 227.562492 143.587901 
L 228.03647 143.433951 
L 228.104639 143.28 
L 228.60195 142.818148 
L 229.211811 142.664197 
L 229.293201 142.510246 
L 229.718015 142.202345 
L 229.806691 142.048394 
L 230.190391 141.894444 
L 230.210884 141.740493 
L 231.003551 141.432591 
L 232.122636 140.200986 
L 232.179887 140.047035 
L 232.809339 139.585183 
L 232.869477 139.431232 
L 233.890659 138.507528 
L 233.955302 138.353577 
L 234.651134 138.045675 
L 234.691952 137.891725 
L 235.163546 137.583823 
L 235.295827 137.275922 
L 236.276056 137.121971 
L 236.27664 136.96802 
L 236.782551 136.506168 
L 236.966076 136.198267 
L 237.457541 135.890365 
L 237.491478 135.736415 
L 237.973383 135.428513 
L 238.930574 135.274562 
L 239.07869 134.966661 
L 239.83661 134.042957 
L 239.844442 133.889006 
L 239.999553 133.581105 
L 240.024738 133.427154 
L 240.439782 133.119252 
L 240.697472 132.6574 
L 241.246586 132.503449 
L 241.376709 131.733696 
L 241.965509 131.425794 
L 242.402734 131.117893 
L 242.427554 130.963942 
L 242.841645 130.656041 
L 243.419545 129.886287 
L 244.040031 129.578386 
L 244.0963 129.424435 
L 244.664025 128.962583 
L 244.83034 128.654681 
L 244.868686 128.500731 
L 245.164842 128.192829 
L 246.324165 127.884928 
L 246.412634 127.577026 
L 246.587469 127.269125 
L 246.913788 127.115174 
L 246.923487 126.961223 
L 247.727399 126.807273 
L 247.779574 126.653322 
L 248.685035 126.499371 
L 248.783218 126.19147 
L 248.953022 126.037519 
L 249.2938 125.883568 
L 249.347946 125.729618 
L 250.106482 125.575667 
L 250.806244 124.959864 
L 252.376186 124.03616 
L 253.477385 123.728258 
L 254.09048 122.958505 
L 254.356919 122.804554 
L 254.375087 122.650603 
L 254.628006 122.496653 
L 255.228977 122.342702 
L 255.323326 122.0348 
L 255.76359 121.572948 
L 256.142307 121.418997 
L 257.118752 121.265047 
L 257.297365 120.803195 
L 257.49379 120.495293 
L 258.720913 119.109737 
L 259.70508 118.493934 
L 259.85538 118.186032 
L 260.82691 117.570229 
L 260.851251 117.416279 
L 261.976553 116.492574 
L 262.051954 116.184673 
L 263.571416 116.030722 
L 263.65856 115.876771 
L 264.218564 115.56887 
L 264.244752 115.414919 
L 265.053335 114.645166 
L 265.416796 114.491215 
L 265.904681 113.721461 
L 267.434724 112.951708 
L 268.47838 112.643806 
L 268.6262 112.335905 
L 269.816802 111.874053 
L 270.802275 111.566151 
L 270.843459 111.412201 
L 271.220023 111.25825 
L 271.270136 110.950348 
L 272.090899 110.488496 
L 272.159534 110.334545 
L 273.253744 110.180595 
L 274.500876 109.410841 
L 275.085128 109.25689 
L 276.926336 109.10294 
L 277.882321 108.641088 
L 278.154098 108.333186 
L 278.494805 108.179235 
L 279.587469 107.871334 
L 280.042317 107.563432 
L 280.66935 107.409482 
L 280.742247 107.255531 
L 281.099087 107.10158 
L 281.104785 106.94763 
L 281.722606 106.793679 
L 282.069663 106.331827 
L 283.342909 106.023925 
L 283.468526 105.716024 
L 283.55112 105.562073 
L 285.490869 105.254172 
L 285.748367 104.94627 
L 286.56984 104.638369 
L 286.636143 104.330467 
L 287.216195 104.022566 
L 287.663711 103.714664 
L 287.91017 103.406763 
L 288.197227 102.944911 
L 288.910157 102.483059 
L 289.02874 102.329108 
L 289.52077 102.021206 
L 290.206733 101.405404 
L 290.813946 101.097502 
L 291.646399 100.63565 
L 292.006887 100.481699 
L 292.012412 100.327749 
L 292.914216 99.557995 
L 293.768646 99.250093 
L 293.79077 99.096143 
L 294.664412 98.942192 
L 294.780331 98.634291 
L 295.543761 98.326389 
L 296.190008 97.556636 
L 296.222769 97.402685 
L 296.728913 96.940833 
L 296.786714 96.786882 
L 297.23842 96.632931 
L 297.260686 96.47898 
L 298.282541 95.863178 
L 298.754562 95.709227 
L 299.655311 95.555276 
L 299.742879 95.247375 
L 300.324721 94.939473 
L 300.751514 94.631572 
L 300.753731 94.477621 
L 301.641276 94.16972 
L 302.051022 93.861818 
L 303.06962 93.246015 
L 303.072493 93.092065 
L 303.266916 92.938114 
L 303.928873 92.784163 
L 303.991046 92.630212 
L 304.384261 92.322311 
L 306.827275 91.706508 
L 307.573413 90.782804 
L 308.272915 90.628853 
L 308.346114 90.474902 
L 309.206357 90.167001 
L 309.389714 89.705149 
L 310.037677 89.397247 
L 310.099967 89.243297 
L 310.319223 89.089346 
L 310.333565 88.935395 
L 311.977543 87.087986 
L 312.572777 86.934036 
L 312.576746 86.780085 
L 314.381615 86.164282 
L 314.904299 86.010331 
L 314.925093 85.856381 
L 315.426281 85.548479 
L 315.461107 85.394528 
L 315.644316 85.240578 
L 315.67441 84.932676 
L 316.616268 84.624775 
L 316.923444 84.316873 
L 317.50553 84.162923 
L 317.596804 83.701071 
L 317.912199 83.54712 
L 317.962367 83.393169 
L 318.668367 82.623415 
L 318.756666 82.315514 
L 320.21847 81.853662 
L 320.569968 81.237859 
L 321.585406 80.776007 
L 321.663477 80.622056 
L 322.250574 80.314155 
L 322.587921 79.698352 
L 323.057948 79.39045 
L 323.154535 79.082549 
L 323.465351 78.774647 
L 324.012026 78.620697 
L 324.137229 78.312795 
L 324.284624 78.158845 
L 325.095751 77.850943 
L 326.06058 76.927239 
L 327.261733 76.773288 
L 327.545679 76.619337 
L 328.690597 76.465387 
L 328.779407 76.311436 
L 329.095055 76.157485 
L 329.106359 76.003534 
L 329.885536 75.233781 
L 330.438206 74.925879 
L 330.503886 74.771929 
L 330.916926 74.617978 
L 330.973596 74.310076 
L 331.316053 74.156126 
L 331.436625 73.694274 
L 331.756844 73.386372 
L 331.840858 73.232421 
L 332.692496 72.616619 
L 332.874668 72.308717 
L 333.883216 71.846865 
L 333.967576 71.538963 
L 334.589038 71.077111 
L 336.362667 70.615259 
L 336.922351 70.153407 
L 337.452427 69.999456 
L 337.514887 69.845506 
L 338.236996 69.229703 
L 338.273388 69.075752 
L 338.877571 68.76785 
L 339.047738 68.459949 
L 339.761851 68.305998 
L 340.226304 67.844146 
L 340.802365 67.382294 
L 341.733168 67.228343 
L 341.811171 66.920442 
L 342.488405 66.61254 
L 344.221182 65.842787 
L 344.242489 65.688836 
L 344.442855 65.534885 
L 345.08646 65.380935 
L 345.205192 65.073033 
L 346.294436 64.765132 
L 346.303178 64.611181 
L 346.541716 64.45723 
L 346.671252 63.995378 
L 346.879795 63.687477 
L 347.096741 63.379575 
L 347.280515 62.763772 
L 347.482343 62.609822 
L 348.550718 62.147969 
L 348.931585 61.686117 
L 349.850204 61.532167 
L 349.920966 61.378216 
L 350.459127 61.224265 
L 351.153256 60.300561 
L 351.182789 60.14661 
L 351.404831 59.992659 
L 351.823013 59.838709 
L 351.977085 59.530807 
L 352.43655 59.222906 
L 352.475297 59.068955 
L 352.696137 58.761054 
L 353.48447 58.607103 
L 353.497397 58.453152 
L 354.874136 57.375497 
L 354.915723 57.221546 
L 356.033261 56.759694 
L 356.118161 56.297842 
L 356.387689 56.143891 
L 356.479127 55.682039 
L 356.951846 55.374138 
L 357.708744 55.220187 
L 357.77535 55.066236 
L 358.378354 54.758335 
L 358.849626 54.450433 
L 359.788941 54.142532 
L 360.394715 53.83463 
L 360.556818 53.526729 
L 361.000587 53.218828 
L 361.0138 53.064877 
L 361.395717 52.910926 
L 362.337242 52.603025 
L 362.406601 52.449074 
L 362.762663 52.141172 
L 362.839555 51.67932 
L 363.161197 51.52537 
L 363.163164 51.371419 
L 363.766267 50.755616 
L 363.773771 50.447715 
L 364.308648 49.677961 
L 364.382149 49.52401 
L 364.921282 49.216109 
L 365.103933 48.908207 
L 365.664838 48.600306 
L 365.923809 48.446355 
L 365.930262 48.292404 
L 367.89999 47.676602 
L 367.993623 47.522651 
L 368.721843 47.060799 
L 368.8252 46.906848 
L 369.263601 46.598946 
L 369.373609 46.444996 
L 370.766261 46.137094 
L 371.416599 45.521291 
L 371.617439 45.367341 
L 372.547637 45.21339 
L 372.609852 45.059439 
L 373.267713 44.905489 
L 373.301782 44.597587 
L 373.581818 44.443636 
L 373.581818 44.443636 
" clip-path="url(#p71634f7ba1)" style="fill: none; stroke: #d62728; stroke-width: 1.5; stroke-linecap: square"/>
   </g>
   <g id="patch_3">
    <path d="M 54 252 
L 54 34.56 
" style="fill: none; stroke: #000000; stroke-width: 0.8; stroke-linejoin: miter; stroke-linecap: square"/>
   </g>
   <g id="patch_4">
    <path d="M 388.8 252 
L 388.8 34.56 
" style="fill: none; stroke: #000000; stroke-width: 0.8; stroke-linejoin: miter; stroke-linecap: square"/>
   </g>
   <g id="patch_5">
    <path d="M 54 252 
L 388.8 252 
" style="fill: none; stroke: #000000; stroke-width: 0.8; stroke-linejoin: miter; stroke-linecap: square"/>
   </g>
   <g id="patch_6">
    <path d="M 54 34.56 
L 388.8 34.56 
" style="fill: none; stroke: #000000; stroke-width: 0.8; stroke-linejoin: miter; stroke-linecap: square"/>
   </g>
   <g id="legend_1">
    <g id="patch_7">
     <path d="M 61 101.2725 
L 135.335938 101.2725 
Q 137.335938 101.2725 137.335938 99.2725 
L 137.335938 41.56 
Q 137.335938 39.56 135.335938 39.56 
L 61 39.56 
Q 59 39.56 59 41.56 
L 59 99.2725 
Q 59 101.2725 61 101.2725 
z
" style="fill: #ffffff; opacity: 0.8; stroke: #cccccc; stroke-linejoin: miter"/>
    </g>
    <g id="line2d_18">
     <path d="M 63 47.658437 
L 73 47.658437 
L 83 47.658437 
" style="fill: none; stroke: #1f77b4; stroke-width: 1.5; stroke-linecap: square"/>
    </g>
    <g id="text_14">
     <!-- Server 1 -->
     <g transform="translate(91 51.158437)scale(0.1 -0.1)">
      <defs>
       <path id="DejaVuSans-53" d="M 3425 4513 
L 3425 3897 
Q 3066 4069 2747 4153 
Q 2428 4238 2131 4238 
Q 1616 4238 1336 4038 
Q 1056 3838 1056 3469 
Q 1056 3159 1242 3001 
Q 1428 2844 1947 2747 
L 2328 2669 
Q 3034 2534 3370 2195 
Q 3706 1856 3706 1288 
Q 3706 609 3251 259 
Q 2797 -91 1919 -91 
Q 1588 -91 1214 -16 
Q 841 59 441 206 
L 441 856 
Q 825 641 1194 531 
Q 1563 422 1919 422 
Q 2459 422 2753 634 
Q 3047 847 3047 1241 
Q 3047 1584 2836 1778 
Q 2625 1972 2144 2069 
L 1759 2144 
Q 1053 2284 737 2584 
Q 422 2884 422 3419 
Q 422 4038 858 4394 
Q 1294 4750 2059 4750 
Q 2388 4750 2728 4690 
Q 3069 4631 3425 4513 
z
" transform="scale(0.015625)"/>
       <path id="DejaVuSans-65" d="M 3597 1894 
L 3597 1613 
L 953 1613 
Q 991 1019 1311 708 
Q 1631 397 2203 397 
Q 2534 397 2845 478 
Q 3156 559 3463 722 
L 3463 178 
Q 3153 47 2828 -22 
Q 2503 -91 2169 -91 
Q 1331 -91 842 396 
Q 353 884 353 1716 
Q 353 2575 817 3079 
Q 1281 3584 2069 3584 
Q 2775 3584 3186 3129 
Q 3597 2675 3597 1894 
z
M 3022 2063 
Q 3016 2534 2758 2815 
Q 2500 3097 2075 3097 
Q 1594 3097 1305 2825 
Q 1016 2553 972 2059 
L 3022 2063 
z
" transform="scale(0.015625)"/>
       <path id="DejaVuSans-72" d="M 2631 2963 
Q 2534 3019 2420 3045 
Q 2306 3072 2169 3072 
Q 1681 3072 1420 2755 
Q 1159 2438 1159 1844 
L 1159 0 
L 581 0 
L 581 3500 
L 1159 3500 
L 1159 2956 
Q 1341 3275 1631 3429 
Q 1922 3584 2338 3584 
Q 2397 3584 2469 3576 
Q 2541 3569 2628 3553 
L 2631 2963 
z
" transform="scale(0.015625)"/>
       <path id="DejaVuSans-76" d="M 191 3500 
L 800 3500 
L 1894 563 
L 2988 3500 
L 3597 3500 
L 2284 0 
L 1503 0 
L 191 3500 
z
" transform="scale(0.015625)"/>
       <path id="DejaVuSans-20" transform="scale(0.015625)"/>
      </defs>
      <use xlink:href="#DejaVuSans-53"/>
      <use xlink:href="#DejaVuSans-65" x="63.476562"/>
      <use xlink:href="#DejaVuSans-72" x="125"/>
      <use xlink:href="#DejaVuSans-76" x="166.113281"/>
      <use xlink:href="#DejaVuSans-65" x="225.292969"/>
      <use xlink:href="#DejaVuSans-72" x="286.816406"/>
      <use xlink:href="#DejaVuSans-20" x="327.929688"/>
      <use xlink:href="#DejaVuSans-31" x="359.716797"/>
     </g>
    </g>
    <g id="line2d_19">
     <path d="M 63 62.336562 
L 73 62.336562 
L 83 62.336562 
" style="fill: none; stroke: #ff7f0e; stroke-width: 1.5; stroke-linecap: square"/>
    </g>
    <g id="text_15">
     <!-- Server 2 -->
     <g transform="translate(91 65.836562)scale(0.1 -0.1)">
      <use xlink:href="#DejaVuSans-53"/>
      <use xlink:href="#DejaVuSans-65" x="63.476562"/>
      <use xlink:href="#DejaVuSans-72" x="125"/>
      <use xlink:href="#DejaVuSans-76" x="166.113281"/>
      <use xlink:href="#DejaVuSans-65" x="225.292969"/>
      <use xlink:href="#DejaVuSans-72" x="286.816406"/>
      <use xlink:href="#DejaVuSans-20" x="327.929688"/>
      <use xlink:href="#DejaVuSans-32" x="359.716797"/>
     </g>
    </g>
    <g id="line2d_20">
     <path d="M 63 77.014687 
L 73 77.014687 
L 83 77.014687 
" style="fill: none; stroke: #2ca02c; stroke-width: 1.5; stroke-linecap: square"/>
    </g>
    <g id="text_16">
     <!-- Server 3 -->
     <g transform="translate(91 80.514687)scale(0.1 -0.1)">
      <use xlink:href="#DejaVuSans-53"/>
      <use xlink:href="#DejaVuSans-65" x="63.476562"/>
      <use xlink:href="#DejaVuSans-72" x="125"/>
      <use xlink:href="#DejaVuSans-76" x="166.113281"/>
      <use xlink:href="#DejaVuSans-65" x="225.292969"/>
      <use xlink:href="#DejaVuSans-72" x="286.816406"/>
      <use xlink:href="#DejaVuSans-20" x="327.929688"/>
      <use xlink:href="#DejaVuSans-33" x="359.716797"/>
     </g>
    </g>
    <g id="line2d_21">
     <path d="M 63 91.692813 
L 73 91.692813 
L 83 91.692813 
" style="fill: none; stroke: #d62728; stroke-width: 1.5; stroke-linecap: square"/>
    </g>
    <g id="text_17">
     <!-- Server 4 -->
     <g transform="translate(91 95.192813)scale(0.1 -0.1)">
      <use xlink:href="#DejaVuSans-53"/>
      <use xlink:href="#DejaVuSans-65" x="63.476562"/>
      <use xlink:href="#DejaVuSans-72" x="125"/>
      <use xlink:href="#DejaVuSans-76" x="166.113281"/>
      <use xlink:href="#DejaVuSans-65" x="225.292969"/>
      <use xlink:href="#DejaVuSans-72" x="286.816406"/>
      <use xlink:href="#DejaVuSans-20" x="327.929688"/>
      <use xlink:href="#DejaVuSans-34" x="359.716797"/>
     </g>
    </g>
   </g>
  </g>
 </g>
 <defs>
  <clipPath id="p71634f7ba1">
   <rect x="54" y="34.56" width="334.8" height="217.44"/>
  </clipPath>
 </defs>
</svg>
