<?xml version="1.0" encoding="utf-8" standalone="no"?>
<!DOCTYPE svg PUBLIC "-//W3C//DTD SVG 1.1//EN"
  "http://www.w3.org/Graphics/SVG/1.1/DTD/svg11.dtd">
<svg xmlns:xlink="http://www.w3.org/1999/xlink" width="432pt" height="288pt" viewBox="0 0 432 288" xmlns="http://www.w3.org/2000/svg" version="1.1">
 <metadata>
  <rdf:RDF xmlns:dc="http://purl.org/dc/elements/1.1/" xmlns:cc="http://creativecommons.org/ns#" xmlns:rdf="http://www.w3.org/1999/02/22-rdf-syntax-ns#">
   <cc:Work>
    <dc:type rdf:resource="http://purl.org/dc/dcmitype/StillImage"/>
    <dc:date>2022-03-02T09:28:33.993755</dc:date>
    <dc:format>image/svg+xml</dc:format>
    <dc:creator>
     <cc:Agent>
      <dc:title>Matplotlib v3.5.1, https://matplotlib.org/</dc:title>
     </cc:Agent>
    </dc:creator>
   </cc:Work>
  </rdf:RDF>
 </metadata>
 <defs>
  <style type="text/css">*{stroke-linejoin: round; stroke-linecap: butt}</style>
 </defs>
 <g id="figure_1">
  <g id="patch_1">
   <path d="M 0 288 
L 432 288 
L 432 0 
L 0 0 
L 0 288 
z
" style="fill: none"/>
  </g>
  <g id="axes_1">
   <g id="patch_2">
    <path d="M 54 252 
L 388.8 252 
L 388.8 34.56 
L 54 34.56 
z
" style="fill: #ffffff"/>
   </g>
   <g id="matplotlib.axis_1">
    <g id="xtick_1">
     <g id="line2d_1">
      <defs>
       <path id="m2342d94bf6" d="M 0 0 
L 0 3.5 
" style="stroke: #000000; stroke-width: 0.8"/>
      </defs>
      <g>
       <use xlink:href="#m2342d94bf6" x="69.218182" y="252" style="stroke: #000000; stroke-width: 0.8"/>
      </g>
     </g>
     <g id="text_1">
      <!-- 0 -->
      <g transform="translate(66.036932 266.598437)scale(0.1 -0.1)">
       <defs>
        <path id="DejaVuSans-30" d="M 2034 4250 
Q 1547 4250 1301 3770 
Q 1056 3291 1056 2328 
Q 1056 1369 1301 889 
Q 1547 409 2034 409 
Q 2525 409 2770 889 
Q 3016 1369 3016 2328 
Q 3016 3291 2770 3770 
Q 2525 4250 2034 4250 
z
M 2034 4750 
Q 2819 4750 3233 4129 
Q 3647 3509 3647 2328 
Q 3647 1150 3233 529 
Q 2819 -91 2034 -91 
Q 1250 -91 836 529 
Q 422 1150 422 2328 
Q 422 3509 836 4129 
Q 1250 4750 2034 4750 
z
" transform="scale(0.015625)"/>
       </defs>
       <use xlink:href="#DejaVuSans-30"/>
      </g>
     </g>
    </g>
    <g id="xtick_2">
     <g id="line2d_2">
      <g>
       <use xlink:href="#m2342d94bf6" x="130.099409" y="252" style="stroke: #000000; stroke-width: 0.8"/>
      </g>
     </g>
     <g id="text_2">
      <!-- 100 -->
      <g transform="translate(120.555659 266.598437)scale(0.1 -0.1)">
       <defs>
        <path id="DejaVuSans-31" d="M 794 531 
L 1825 531 
L 1825 4091 
L 703 3866 
L 703 4441 
L 1819 4666 
L 2450 4666 
L 2450 531 
L 3481 531 
L 3481 0 
L 794 0 
L 794 531 
z
" transform="scale(0.015625)"/>
       </defs>
       <use xlink:href="#DejaVuSans-31"/>
       <use xlink:href="#DejaVuSans-30" x="63.623047"/>
       <use xlink:href="#DejaVuSans-30" x="127.246094"/>
      </g>
     </g>
    </g>
    <g id="xtick_3">
     <g id="line2d_3">
      <g>
       <use xlink:href="#m2342d94bf6" x="190.980636" y="252" style="stroke: #000000; stroke-width: 0.8"/>
      </g>
     </g>
     <g id="text_3">
      <!-- 200 -->
      <g transform="translate(181.436886 266.598437)scale(0.1 -0.1)">
       <defs>
        <path id="DejaVuSans-32" d="M 1228 531 
L 3431 531 
L 3431 0 
L 469 0 
L 469 531 
Q 828 903 1448 1529 
Q 2069 2156 2228 2338 
Q 2531 2678 2651 2914 
Q 2772 3150 2772 3378 
Q 2772 3750 2511 3984 
Q 2250 4219 1831 4219 
Q 1534 4219 1204 4116 
Q 875 4013 500 3803 
L 500 4441 
Q 881 4594 1212 4672 
Q 1544 4750 1819 4750 
Q 2544 4750 2975 4387 
Q 3406 4025 3406 3419 
Q 3406 3131 3298 2873 
Q 3191 2616 2906 2266 
Q 2828 2175 2409 1742 
Q 1991 1309 1228 531 
z
" transform="scale(0.015625)"/>
       </defs>
       <use xlink:href="#DejaVuSans-32"/>
       <use xlink:href="#DejaVuSans-30" x="63.623047"/>
       <use xlink:href="#DejaVuSans-30" x="127.246094"/>
      </g>
     </g>
    </g>
    <g id="xtick_4">
     <g id="line2d_4">
      <g>
       <use xlink:href="#m2342d94bf6" x="251.861863" y="252" style="stroke: #000000; stroke-width: 0.8"/>
      </g>
     </g>
     <g id="text_4">
      <!-- 300 -->
      <g transform="translate(242.318113 266.598437)scale(0.1 -0.1)">
       <defs>
        <path id="DejaVuSans-33" d="M 2597 2516 
Q 3050 2419 3304 2112 
Q 3559 1806 3559 1356 
Q 3559 666 3084 287 
Q 2609 -91 1734 -91 
Q 1441 -91 1130 -33 
Q 819 25 488 141 
L 488 750 
Q 750 597 1062 519 
Q 1375 441 1716 441 
Q 2309 441 2620 675 
Q 2931 909 2931 1356 
Q 2931 1769 2642 2001 
Q 2353 2234 1838 2234 
L 1294 2234 
L 1294 2753 
L 1863 2753 
Q 2328 2753 2575 2939 
Q 2822 3125 2822 3475 
Q 2822 3834 2567 4026 
Q 2313 4219 1838 4219 
Q 1578 4219 1281 4162 
Q 984 4106 628 3988 
L 628 4550 
Q 988 4650 1302 4700 
Q 1616 4750 1894 4750 
Q 2613 4750 3031 4423 
Q 3450 4097 3450 3541 
Q 3450 3153 3228 2886 
Q 3006 2619 2597 2516 
z
" transform="scale(0.015625)"/>
       </defs>
       <use xlink:href="#DejaVuSans-33"/>
       <use xlink:href="#DejaVuSans-30" x="63.623047"/>
       <use xlink:href="#DejaVuSans-30" x="127.246094"/>
      </g>
     </g>
    </g>
    <g id="xtick_5">
     <g id="line2d_5">
      <g>
       <use xlink:href="#m2342d94bf6" x="312.74309" y="252" style="stroke: #000000; stroke-width: 0.8"/>
      </g>
     </g>
     <g id="text_5">
      <!-- 400 -->
      <g transform="translate(303.19934 266.598437)scale(0.1 -0.1)">
       <defs>
        <path id="DejaVuSans-34" d="M 2419 4116 
L 825 1625 
L 2419 1625 
L 2419 4116 
z
M 2253 4666 
L 3047 4666 
L 3047 1625 
L 3713 1625 
L 3713 1100 
L 3047 1100 
L 3047 0 
L 2419 0 
L 2419 1100 
L 313 1100 
L 313 1709 
L 2253 4666 
z
" transform="scale(0.015625)"/>
       </defs>
       <use xlink:href="#DejaVuSans-34"/>
       <use xlink:href="#DejaVuSans-30" x="63.623047"/>
       <use xlink:href="#DejaVuSans-30" x="127.246094"/>
      </g>
     </g>
    </g>
    <g id="xtick_6">
     <g id="line2d_6">
      <g>
       <use xlink:href="#m2342d94bf6" x="373.624317" y="252" style="stroke: #000000; stroke-width: 0.8"/>
      </g>
     </g>
     <g id="text_6">
      <!-- 500 -->
      <g transform="translate(364.080567 266.598437)scale(0.1 -0.1)">
       <defs>
        <path id="DejaVuSans-35" d="M 691 4666 
L 3169 4666 
L 3169 4134 
L 1269 4134 
L 1269 2991 
Q 1406 3038 1543 3061 
Q 1681 3084 1819 3084 
Q 2600 3084 3056 2656 
Q 3513 2228 3513 1497 
Q 3513 744 3044 326 
Q 2575 -91 1722 -91 
Q 1428 -91 1123 -41 
Q 819 9 494 109 
L 494 744 
Q 775 591 1075 516 
Q 1375 441 1709 441 
Q 2250 441 2565 725 
Q 2881 1009 2881 1497 
Q 2881 1984 2565 2268 
Q 2250 2553 1709 2553 
Q 1456 2553 1204 2497 
Q 953 2441 691 2322 
L 691 4666 
z
" transform="scale(0.015625)"/>
       </defs>
       <use xlink:href="#DejaVuSans-35"/>
       <use xlink:href="#DejaVuSans-30" x="63.623047"/>
       <use xlink:href="#DejaVuSans-30" x="127.246094"/>
      </g>
     </g>
    </g>
   </g>
   <g id="matplotlib.axis_2">
    <g id="ytick_1">
     <g id="line2d_7">
      <defs>
       <path id="m2ac3ecb845" d="M 0 0 
L -3.5 0 
" style="stroke: #000000; stroke-width: 0.8"/>
      </defs>
      <g>
       <use xlink:href="#m2ac3ecb845" x="54" y="242.116364" style="stroke: #000000; stroke-width: 0.8"/>
      </g>
     </g>
     <g id="text_7">
      <!-- 0 -->
      <g transform="translate(40.6375 245.915582)scale(0.1 -0.1)">
       <use xlink:href="#DejaVuSans-30"/>
      </g>
     </g>
    </g>
    <g id="ytick_2">
     <g id="line2d_8">
      <g>
       <use xlink:href="#m2ac3ecb845" x="54" y="204.819623" style="stroke: #000000; stroke-width: 0.8"/>
      </g>
     </g>
     <g id="text_8">
      <!-- 50 -->
      <g transform="translate(34.275 208.618841)scale(0.1 -0.1)">
       <use xlink:href="#DejaVuSans-35"/>
       <use xlink:href="#DejaVuSans-30" x="63.623047"/>
      </g>
     </g>
    </g>
    <g id="ytick_3">
     <g id="line2d_9">
      <g>
       <use xlink:href="#m2ac3ecb845" x="54" y="167.522882" style="stroke: #000000; stroke-width: 0.8"/>
      </g>
     </g>
     <g id="text_9">
      <!-- 100 -->
      <g transform="translate(27.9125 171.3221)scale(0.1 -0.1)">
       <use xlink:href="#DejaVuSans-31"/>
       <use xlink:href="#DejaVuSans-30" x="63.623047"/>
       <use xlink:href="#DejaVuSans-30" x="127.246094"/>
      </g>
     </g>
    </g>
    <g id="ytick_4">
     <g id="line2d_10">
      <g>
       <use xlink:href="#m2ac3ecb845" x="54" y="130.226141" style="stroke: #000000; stroke-width: 0.8"/>
      </g>
     </g>
     <g id="text_10">
      <!-- 150 -->
      <g transform="translate(27.9125 134.025359)scale(0.1 -0.1)">
       <use xlink:href="#DejaVuSans-31"/>
       <use xlink:href="#DejaVuSans-35" x="63.623047"/>
       <use xlink:href="#DejaVuSans-30" x="127.246094"/>
      </g>
     </g>
    </g>
    <g id="ytick_5">
     <g id="line2d_11">
      <g>
       <use xlink:href="#m2ac3ecb845" x="54" y="92.9294" style="stroke: #000000; stroke-width: 0.8"/>
      </g>
     </g>
     <g id="text_11">
      <!-- 200 -->
      <g transform="translate(27.9125 96.728618)scale(0.1 -0.1)">
       <use xlink:href="#DejaVuSans-32"/>
       <use xlink:href="#DejaVuSans-30" x="63.623047"/>
       <use xlink:href="#DejaVuSans-30" x="127.246094"/>
      </g>
     </g>
    </g>
    <g id="ytick_6">
     <g id="line2d_12">
      <g>
       <use xlink:href="#m2ac3ecb845" x="54" y="55.632659" style="stroke: #000000; stroke-width: 0.8"/>
      </g>
     </g>
     <g id="text_12">
      <!-- 250 -->
      <g transform="translate(27.9125 59.431877)scale(0.1 -0.1)">
       <use xlink:href="#DejaVuSans-32"/>
       <use xlink:href="#DejaVuSans-35" x="63.623047"/>
       <use xlink:href="#DejaVuSans-30" x="127.246094"/>
      </g>
     </g>
    </g>
   </g>
   <g id="line2d_13">
    <path d="M 69.218182 242.116364 
L 69.444734 241.370429 
L 71.172092 240.624494 
L 71.624168 239.878559 
L 73.191399 238.38669 
L 74.534539 237.640755 
L 77.822838 236.89482 
L 78.90788 236.148885 
L 80.827596 235.40295 
L 80.860545 234.657015 
L 81.995692 233.911081 
L 82.126013 233.165146 
L 82.651096 232.419211 
L 82.92182 231.673276 
L 85.140548 230.927341 
L 85.638979 230.181407 
L 86.820589 229.435472 
L 87.447192 228.689537 
L 89.162189 227.943602 
L 94.433489 227.197667 
L 95.401677 226.451732 
L 99.954751 225.705798 
L 101.341885 224.959863 
L 103.417204 224.213928 
L 104.267125 223.467993 
L 104.548158 222.722058 
L 105.659645 221.976123 
L 106.520454 221.230189 
L 106.634574 219.738319 
L 107.93819 218.246449 
L 107.978376 217.500515 
L 109.188891 216.75458 
L 111.080891 216.008645 
L 111.176266 215.26271 
L 111.987025 214.516775 
L 113.827324 213.77084 
L 121.363694 212.278971 
L 122.537803 211.533036 
L 122.745008 210.041166 
L 123.654285 209.295232 
L 124.514864 207.803362 
L 125.74386 206.311492 
L 127.029317 205.565557 
L 129.543381 204.819623 
L 130.144323 204.073688 
L 130.376162 203.327753 
L 131.250031 202.581818 
L 134.561066 201.835883 
L 135.313451 201.089949 
L 135.46651 200.344014 
L 136.117279 199.598079 
L 136.166163 198.852144 
L 136.40838 198.106209 
L 136.87725 197.360274 
L 137.812662 196.61434 
L 140.19881 195.868405 
L 142.014016 195.12247 
L 142.812397 194.376535 
L 143.402529 193.6306 
L 143.769337 192.884666 
L 145.374093 192.138731 
L 146.61754 190.646861 
L 148.222847 189.900926 
L 148.256509 189.154991 
L 151.537383 188.409057 
L 152.611623 187.663122 
L 154.286986 186.917187 
L 157.901235 186.171252 
L 159.810327 185.425317 
L 161.023945 184.679383 
L 161.75112 183.933448 
L 167.824139 182.441578 
L 167.872072 181.695643 
L 169.121312 180.949708 
L 175.313188 178.711904 
L 177.519882 177.220034 
L 177.543872 176.474099 
L 179.659808 175.728165 
L 179.970223 174.98223 
L 181.030508 174.236295 
L 181.3599 173.49036 
L 181.497233 172.744425 
L 184.055198 171.998491 
L 184.292239 171.252556 
L 184.979284 170.506621 
L 186.369824 169.760686 
L 187.520463 168.268816 
L 189.178521 167.522882 
L 195.85852 166.776947 
L 196.047329 166.031012 
L 198.031228 164.539142 
L 198.156184 163.793208 
L 200.376873 163.047273 
L 201.065436 162.301338 
L 201.907738 161.555403 
L 206.481686 160.809468 
L 207.728203 160.063533 
L 208.04629 158.571664 
L 208.818873 157.825729 
L 208.855683 156.333859 
L 209.48758 155.587925 
L 210.601596 154.84199 
L 213.086153 154.096055 
L 214.115878 153.35012 
L 219.238306 151.85825 
L 220.113499 151.112316 
L 220.955121 149.620446 
L 220.985065 148.874511 
L 221.678626 148.128576 
L 223.20869 145.890772 
L 226.778069 144.398902 
L 227.172698 143.652967 
L 228.502341 142.907033 
L 233.209011 142.161098 
L 233.282223 141.415163 
L 234.786006 140.669228 
L 235.785576 139.923293 
L 237.435136 139.177358 
L 237.82803 138.431424 
L 238.037019 137.685489 
L 238.375466 136.939554 
L 240.207844 136.193619 
L 240.730506 135.447684 
L 242.465276 133.955815 
L 243.745417 133.20988 
L 247.854227 132.463945 
L 251.024038 131.71801 
L 252.696326 130.972075 
L 254.782944 130.226141 
L 254.94848 129.480206 
L 258.73933 128.734271 
L 260.398115 127.988336 
L 260.639483 127.242401 
L 264.215622 126.496467 
L 264.447509 125.750532 
L 265.469158 125.004597 
L 268.102281 124.258662 
L 268.319742 123.512727 
L 269.740439 122.766792 
L 270.540699 122.020858 
L 272.443176 121.274923 
L 273.52316 120.528988 
L 276.437821 119.783053 
L 276.758349 119.037118 
L 278.127925 118.291184 
L 281.172112 117.545249 
L 281.299913 116.799314 
L 282.540636 116.053379 
L 283.429139 115.307444 
L 285.98358 114.561509 
L 286.358259 113.815575 
L 286.540909 113.06964 
L 287.476484 112.323705 
L 290.081834 110.831835 
L 295.954246 110.085901 
L 297.794361 109.339966 
L 298.700552 108.594031 
L 298.700716 107.848096 
L 298.890676 107.102161 
L 299.623797 106.356226 
L 304.632399 104.864357 
L 304.673161 104.118422 
L 305.323784 103.372487 
L 306.869825 102.626552 
L 307.530751 101.880617 
L 309.32758 101.134683 
L 311.595927 99.642813 
L 312.295977 98.896878 
L 312.584368 97.405009 
L 313.480094 95.913139 
L 314.702609 95.167204 
L 317.167137 94.421269 
L 323.534509 93.675334 
L 323.847594 92.9294 
L 327.122375 92.183465 
L 327.849517 91.43753 
L 329.409845 90.691595 
L 330.059304 89.94566 
L 330.353553 89.199726 
L 330.433005 88.453791 
L 333.719256 87.707856 
L 335.170917 86.215986 
L 337.443489 85.470051 
L 337.980727 84.724117 
L 339.284924 83.978182 
L 339.476275 83.232247 
L 341.223957 82.486312 
L 341.675224 81.740377 
L 345.323216 79.502573 
L 347.265033 78.756638 
L 348.147343 77.264768 
L 350.632798 76.518834 
L 351.552558 75.772899 
L 352.20518 75.026964 
L 352.668357 74.281029 
L 353.382357 73.535094 
L 353.675647 72.78916 
L 356.038792 72.043225 
L 356.731866 71.29729 
L 356.911754 70.551355 
L 358.176512 69.80542 
L 360.0912 69.059485 
L 361.091798 68.313551 
L 371.923769 67.567616 
L 371.923769 67.567616 
" clip-path="url(#pa9cb73f3bd)" style="fill: none; stroke: #1f77b4; stroke-width: 1.5; stroke-linecap: square"/>
   </g>
   <g id="line2d_14">
    <path d="M 69.218182 242.116364 
L 69.876033 240.624494 
L 72.78274 239.878559 
L 74.773432 239.132624 
L 76.843257 237.640755 
L 79.624897 236.89482 
L 79.963932 236.148885 
L 80.115626 235.40295 
L 80.607875 234.657015 
L 83.540065 233.911081 
L 87.677153 233.165146 
L 88.508024 232.419211 
L 89.728857 231.673276 
L 90.643914 230.927341 
L 90.747223 230.181407 
L 91.138311 229.435472 
L 91.312677 228.689537 
L 91.8317 227.943602 
L 92.826805 227.197667 
L 94.344011 226.451732 
L 96.858196 223.467993 
L 97.674783 222.722058 
L 98.042925 221.976123 
L 98.123274 221.230189 
L 99.597422 220.484254 
L 99.793023 219.738319 
L 100.427063 218.992384 
L 100.901069 218.246449 
L 102.046878 217.500515 
L 104.050299 216.75458 
L 109.724304 216.008645 
L 112.232503 215.26271 
L 113.550166 213.77084 
L 113.588134 213.024906 
L 115.000207 212.278971 
L 117.387045 211.533036 
L 117.518831 210.787101 
L 119.551973 209.295232 
L 121.490642 208.549297 
L 122.69772 207.803362 
L 123.058732 207.057427 
L 128.008464 204.819623 
L 128.421934 204.073688 
L 129.832697 202.581818 
L 129.894888 201.835883 
L 130.21952 201.089949 
L 132.432974 199.598079 
L 133.047915 198.852144 
L 133.179373 198.106209 
L 135.107752 197.360274 
L 135.85919 196.61434 
L 135.956942 195.868405 
L 137.668673 195.12247 
L 138.550464 194.376535 
L 138.855431 193.6306 
L 139.744455 192.884666 
L 139.841301 192.138731 
L 141.604839 191.392796 
L 142.60441 189.900926 
L 144.70392 189.154991 
L 145.001039 188.409057 
L 146.675989 187.663122 
L 148.768432 186.917187 
L 151.578729 186.171252 
L 153.129091 185.425317 
L 153.678591 184.679383 
L 154.796431 183.933448 
L 158.173419 182.441578 
L 159.491049 181.695643 
L 159.806611 180.949708 
L 163.826971 178.711904 
L 163.992088 177.965969 
L 164.890088 177.220034 
L 165.350406 176.474099 
L 167.112343 175.728165 
L 167.751884 174.236295 
L 170.557547 173.49036 
L 170.581154 172.744425 
L 173.224638 171.998491 
L 174.059005 171.252556 
L 177.838962 170.506621 
L 178.707773 169.760686 
L 181.690785 169.014751 
L 181.784671 167.522882 
L 184.271058 166.776947 
L 184.689988 166.031012 
L 185.846321 165.285077 
L 187.4674 164.539142 
L 192.544608 163.793208 
L 194.682589 163.047273 
L 194.793143 162.301338 
L 195.289031 161.555403 
L 196.10958 160.809468 
L 196.485341 160.063533 
L 196.667053 159.317599 
L 198.775486 158.571664 
L 199.087825 157.825729 
L 202.432871 157.079794 
L 203.244846 156.333859 
L 204.287823 155.587925 
L 204.558563 154.84199 
L 204.560385 154.096055 
L 207.322629 153.35012 
L 207.902556 152.604185 
L 210.6269 151.85825 
L 212.618445 151.112316 
L 214.705602 149.620446 
L 217.343475 148.874511 
L 217.522008 148.128576 
L 218.776078 147.382642 
L 222.142214 145.890772 
L 223.092831 145.144837 
L 223.751188 144.398902 
L 224.825588 143.652967 
L 228.803305 142.907033 
L 228.905325 142.161098 
L 235.865317 141.415163 
L 237.423787 140.669228 
L 239.024342 139.177358 
L 240.658215 137.685489 
L 242.106229 136.939554 
L 243.640421 135.447684 
L 243.889511 134.70175 
L 243.909758 133.955815 
L 245.048722 133.20988 
L 246.903861 132.463945 
L 247.010442 130.972075 
L 248.280559 130.226141 
L 248.461623 129.480206 
L 249.76459 128.734271 
L 251.292288 127.988336 
L 251.420588 127.242401 
L 251.790892 126.496467 
L 252.725915 125.750532 
L 252.834181 125.004597 
L 253.440128 124.258662 
L 254.919786 123.512727 
L 255.202675 122.766792 
L 256.249007 122.020858 
L 256.397097 121.274923 
L 256.888768 120.528988 
L 256.967448 119.783053 
L 257.324034 119.037118 
L 260.665134 116.053379 
L 260.666723 115.307444 
L 261.937713 114.561509 
L 262.157119 113.815575 
L 262.749582 113.06964 
L 264.245106 112.323705 
L 264.954766 111.57777 
L 265.829339 110.831835 
L 266.160567 110.085901 
L 268.265643 108.594031 
L 268.368409 107.848096 
L 269.623873 106.356226 
L 272.416432 105.610292 
L 272.533247 104.864357 
L 273.137903 104.118422 
L 276.248557 103.372487 
L 276.299613 102.626552 
L 276.602128 101.880617 
L 277.877494 101.134683 
L 283.449636 99.642813 
L 283.562708 98.896878 
L 284.855244 98.150943 
L 285.114261 97.405009 
L 285.785633 96.659074 
L 286.696485 95.913139 
L 290.060982 95.167204 
L 291.112405 94.421269 
L 291.593373 92.9294 
L 293.357822 92.183465 
L 294.626698 91.43753 
L 294.988565 90.691595 
L 295.218363 89.94566 
L 295.237438 89.199726 
L 296.229732 87.707856 
L 299.190812 86.961921 
L 299.943858 86.215986 
L 300.287403 85.470051 
L 302.441178 84.724117 
L 305.028842 83.978182 
L 305.043432 83.232247 
L 306.062886 82.486312 
L 306.694962 81.740377 
L 309.150945 80.994443 
L 314.894769 80.248508 
L 314.997948 79.502573 
L 315.999564 78.756638 
L 316.717992 78.010703 
L 316.864009 76.518834 
L 317.211241 75.772899 
L 319.971447 75.026964 
L 320.093092 74.281029 
L 322.012243 73.535094 
L 322.051832 72.78916 
L 322.543119 72.043225 
L 323.208766 71.29729 
L 324.770475 70.551355 
L 326.876275 69.80542 
L 327.61284 69.059485 
L 327.633344 68.313551 
L 328.183786 67.567616 
L 329.416476 66.821681 
L 330.022953 66.075746 
L 331.276917 65.329811 
L 331.40351 64.583877 
L 332.069263 63.837942 
L 332.947186 63.092007 
L 333.598961 62.346072 
L 337.205207 61.600137 
L 337.268356 60.854202 
L 338.276669 60.108268 
L 340.068955 59.362333 
L 340.284546 58.616398 
L 342.264549 57.870463 
L 345.026162 57.124528 
L 346.646014 56.378593 
L 349.043223 55.632659 
L 351.040811 54.886724 
L 351.090054 54.140789 
L 352.114758 53.394854 
L 354.820362 52.648919 
L 355.048434 51.902985 
L 357.526964 51.15705 
L 357.93882 50.411115 
L 361.373518 49.66518 
L 362.812545 48.919245 
L 363.630512 48.17331 
L 367.679176 46.681441 
L 369.304764 45.935506 
L 372.880372 45.189571 
L 373.581818 44.443636 
L 373.581818 44.443636 
" clip-path="url(#pa9cb73f3bd)" style="fill: none; stroke: #ff7f0e; stroke-width: 1.5; stroke-linecap: square"/>
   </g>
   <g id="line2d_15">
    <path d="M 69.218182 242.116364 
L 69.598358 241.370429 
L 70.230406 240.624494 
L 70.581517 239.878559 
L 72.605057 239.132624 
L 72.972501 238.38669 
L 74.071056 236.89482 
L 76.05026 236.148885 
L 77.35194 235.40295 
L 77.744573 234.657015 
L 80.489301 233.911081 
L 80.545664 233.165146 
L 81.5843 232.419211 
L 81.656072 230.927341 
L 85.607259 230.181407 
L 86.830282 229.435472 
L 88.303717 228.689537 
L 90.34144 227.943602 
L 90.469974 227.197667 
L 92.812348 226.451732 
L 94.109435 225.705798 
L 94.160668 224.959863 
L 94.99977 223.467993 
L 95.782048 222.722058 
L 98.519384 221.976123 
L 99.250898 221.230189 
L 99.443574 220.484254 
L 104.901038 219.738319 
L 106.807368 218.992384 
L 108.345198 218.246449 
L 109.165842 217.500515 
L 110.350542 216.75458 
L 110.60581 216.008645 
L 111.32181 215.26271 
L 118.23956 213.77084 
L 118.658403 213.024906 
L 118.952858 211.533036 
L 122.574799 210.787101 
L 125.194807 210.041166 
L 126.283598 209.295232 
L 126.367332 208.549297 
L 129.243645 207.057427 
L 130.441842 205.565557 
L 132.997998 204.819623 
L 133.734167 204.073688 
L 134.008343 203.327753 
L 134.464104 202.581818 
L 134.610963 201.089949 
L 136.181149 200.344014 
L 136.348041 199.598079 
L 139.6662 198.852144 
L 140.535972 198.106209 
L 142.598342 197.360274 
L 144.078285 196.61434 
L 144.162134 195.868405 
L 145.370667 194.376535 
L 145.957986 193.6306 
L 146.010154 192.884666 
L 146.650414 192.138731 
L 147.138138 191.392796 
L 148.539545 190.646861 
L 148.922478 189.900926 
L 150.727508 189.154991 
L 151.233967 188.409057 
L 155.581856 187.663122 
L 156.022909 186.171252 
L 158.138748 184.679383 
L 159.826991 183.933448 
L 161.030448 183.187513 
L 161.896307 182.441578 
L 164.319032 180.949708 
L 164.372702 180.203774 
L 166.643243 179.457839 
L 170.28312 178.711904 
L 172.689879 177.965969 
L 173.855327 177.220034 
L 173.977837 176.474099 
L 174.472052 175.728165 
L 175.668063 174.98223 
L 178.332677 174.236295 
L 178.477177 173.49036 
L 180.311582 172.744425 
L 182.945509 171.998491 
L 183.461493 171.252556 
L 184.673007 170.506621 
L 185.191704 169.760686 
L 186.150299 169.014751 
L 186.303847 168.268816 
L 188.651841 167.522882 
L 189.524282 166.776947 
L 189.727934 166.031012 
L 193.066271 165.285077 
L 193.290222 164.539142 
L 195.596685 163.793208 
L 195.808315 163.047273 
L 197.977437 162.301338 
L 198.48901 161.555403 
L 199.355066 160.809468 
L 199.896894 160.063533 
L 200.672165 159.317599 
L 203.124173 158.571664 
L 208.172239 157.825729 
L 208.827597 157.079794 
L 210.392527 156.333859 
L 210.597753 155.587925 
L 210.643261 154.84199 
L 211.413094 154.096055 
L 215.367509 153.35012 
L 216.679477 151.85825 
L 216.705665 151.112316 
L 216.988567 150.366381 
L 219.50996 149.620446 
L 220.412871 148.128576 
L 221.207799 147.382642 
L 222.953828 146.636707 
L 224.111191 145.890772 
L 224.630715 145.144837 
L 226.071333 144.398902 
L 226.367743 143.652967 
L 228.512633 142.907033 
L 229.38798 142.161098 
L 229.426757 141.415163 
L 231.624362 140.669228 
L 232.443045 139.923293 
L 235.298256 139.177358 
L 235.731486 138.431424 
L 238.194383 137.685489 
L 238.27887 136.939554 
L 238.998549 136.193619 
L 243.035626 135.447684 
L 243.122384 134.70175 
L 245.045534 133.955815 
L 246.107856 133.20988 
L 246.965645 132.463945 
L 249.738227 131.71801 
L 249.876944 130.972075 
L 250.542904 130.226141 
L 252.583838 129.480206 
L 253.041473 128.734271 
L 253.075565 127.988336 
L 254.188473 127.242401 
L 259.306946 126.496467 
L 259.353604 125.750532 
L 259.943308 125.004597 
L 260.904141 124.258662 
L 262.198122 123.512727 
L 262.611352 122.766792 
L 265.17989 122.020858 
L 269.180359 121.274923 
L 269.32916 120.528988 
L 278.750817 119.037118 
L 280.495467 118.291184 
L 280.719312 117.545249 
L 282.042504 116.053379 
L 282.323234 115.307444 
L 283.030411 114.561509 
L 283.516307 113.815575 
L 284.670992 113.06964 
L 285.21344 112.323705 
L 286.788287 111.57777 
L 287.220634 110.831835 
L 287.350277 110.085901 
L 287.693503 109.339966 
L 290.056126 107.848096 
L 291.900126 107.102161 
L 296.613933 106.356226 
L 297.256667 105.610292 
L 299.367873 104.118422 
L 299.500573 103.372487 
L 299.956755 102.626552 
L 302.163061 101.880617 
L 303.286313 101.134683 
L 303.314924 100.388748 
L 305.205847 99.642813 
L 306.518331 98.896878 
L 306.521837 98.150943 
L 307.689335 97.405009 
L 312.031637 96.659074 
L 312.078632 95.913139 
L 312.872144 95.167204 
L 313.309588 94.421269 
L 315.459689 93.675334 
L 315.706899 92.183465 
L 319.024842 91.43753 
L 319.843654 90.691595 
L 320.319556 89.94566 
L 320.659521 88.453791 
L 322.614672 87.707856 
L 325.686754 86.961921 
L 326.173292 86.215986 
L 326.441848 85.470051 
L 327.695819 84.724117 
L 328.491809 83.978182 
L 329.707297 83.232247 
L 331.845622 82.486312 
L 332.306509 81.740377 
L 333.155682 80.994443 
L 333.264702 80.248508 
L 334.782395 79.502573 
L 335.244218 78.756638 
L 336.067092 78.010703 
L 336.611968 77.264768 
L 336.735121 76.518834 
L 337.588668 75.772899 
L 338.629518 74.281029 
L 339.932934 73.535094 
L 340.445519 72.78916 
L 341.282763 72.043225 
L 343.642215 71.29729 
L 344.564303 70.551355 
L 344.853517 69.80542 
L 345.392335 69.059485 
L 352.826248 68.313551 
L 353.45096 67.567616 
L 356.372321 66.821681 
L 356.486984 66.075746 
L 358.157616 65.329811 
L 358.533682 64.583877 
L 360.296089 63.092007 
L 363.802009 62.346072 
L 364.46776 61.600137 
L 365.717218 60.854202 
L 365.862345 60.108268 
L 370.143261 59.362333 
L 372.582283 58.616398 
L 372.582283 58.616398 
" clip-path="url(#pa9cb73f3bd)" style="fill: none; stroke: #2ca02c; stroke-width: 1.5; stroke-linecap: square"/>
   </g>
   <g id="line2d_16">
    <path d="M 69.218182 242.116364 
L 70.224915 240.624494 
L 71.397854 239.878559 
L 74.187474 239.132624 
L 74.910928 238.38669 
L 75.8572 237.640755 
L 76.274789 236.89482 
L 78.824137 236.148885 
L 85.219512 234.657015 
L 88.945886 233.911081 
L 89.052011 233.165146 
L 90.626402 232.419211 
L 91.241709 231.673276 
L 92.137606 230.927341 
L 95.532006 230.181407 
L 96.326106 229.435472 
L 100.796557 228.689537 
L 101.071297 227.943602 
L 103.862962 227.197667 
L 105.854168 226.451732 
L 109.341171 225.705798 
L 111.296858 224.959863 
L 114.113658 224.213928 
L 114.214647 222.722058 
L 118.673806 221.976123 
L 119.341683 221.230189 
L 120.014358 219.738319 
L 123.68604 218.246449 
L 124.605855 217.500515 
L 125.234794 216.75458 
L 125.417779 216.008645 
L 126.196962 215.26271 
L 128.868594 214.516775 
L 130.848267 213.024906 
L 134.616619 212.278971 
L 134.675834 211.533036 
L 136.691607 210.787101 
L 137.639978 210.041166 
L 138.952206 209.295232 
L 139.276161 208.549297 
L 140.256923 207.803362 
L 142.993517 206.311492 
L 146.965506 205.565557 
L 147.415101 204.073688 
L 148.524358 203.327753 
L 150.143692 202.581818 
L 150.186156 201.835883 
L 151.248269 201.089949 
L 151.533704 200.344014 
L 154.680004 199.598079 
L 156.757127 198.852144 
L 160.316834 198.106209 
L 160.707517 197.360274 
L 163.886034 196.61434 
L 165.395349 195.868405 
L 166.232006 194.376535 
L 166.344374 192.884666 
L 167.330116 192.138731 
L 167.686723 191.392796 
L 175.639512 190.646861 
L 176.442598 189.900926 
L 178.989394 189.154991 
L 179.081755 188.409057 
L 180.390628 187.663122 
L 180.956691 186.917187 
L 180.983438 186.171252 
L 182.43246 184.679383 
L 182.646758 183.933448 
L 189.381496 183.187513 
L 193.492923 181.695643 
L 194.379387 180.949708 
L 197.3991 180.203774 
L 198.82682 179.457839 
L 200.545424 177.220034 
L 206.596972 176.474099 
L 206.714555 175.728165 
L 208.242322 174.98223 
L 209.255836 174.236295 
L 209.611359 173.49036 
L 213.835973 172.744425 
L 214.102198 171.998491 
L 215.506924 171.252556 
L 217.784828 170.506621 
L 218.604014 169.760686 
L 219.059513 169.014751 
L 219.093953 168.268816 
L 224.154903 166.776947 
L 225.148447 166.031012 
L 225.530271 165.285077 
L 226.05206 164.539142 
L 228.380615 163.793208 
L 228.5289 163.047273 
L 229.046603 162.301338 
L 229.615391 160.809468 
L 230.46151 159.317599 
L 230.521959 158.571664 
L 232.022785 157.825729 
L 232.612143 157.079794 
L 232.630785 156.333859 
L 234.337887 155.587925 
L 236.955993 154.84199 
L 241.978344 154.096055 
L 243.808787 153.35012 
L 243.819809 152.604185 
L 249.527591 151.85825 
L 249.626342 151.112316 
L 251.611588 150.366381 
L 252.839728 149.620446 
L 258.059066 148.874511 
L 259.387994 148.128576 
L 259.89812 147.382642 
L 261.073081 146.636707 
L 263.729453 145.890772 
L 264.844478 145.144837 
L 267.28514 144.398902 
L 267.398365 143.652967 
L 267.685832 142.907033 
L 269.284038 142.161098 
L 269.357722 141.415163 
L 271.110262 140.669228 
L 273.457437 139.923293 
L 273.725853 139.177358 
L 274.56016 138.431424 
L 274.58128 137.685489 
L 275.521049 136.939554 
L 277.97275 136.193619 
L 278.094571 135.447684 
L 279.626036 134.70175 
L 280.574433 133.955815 
L 280.848441 133.20988 
L 281.756522 132.463945 
L 283.000678 131.71801 
L 283.417735 130.972075 
L 284.944139 130.226141 
L 285.841496 129.480206 
L 289.917578 127.988336 
L 293.489514 125.750532 
L 293.934776 125.004597 
L 293.999758 124.258662 
L 294.408821 123.512727 
L 295.433486 122.766792 
L 297.834022 122.020858 
L 299.303224 121.274923 
L 302.679845 120.528988 
L 303.511455 119.037118 
L 304.882244 118.291184 
L 305.590119 117.545249 
L 311.2925 114.561509 
L 316.637321 113.815575 
L 318.944556 113.06964 
L 319.123755 112.323705 
L 323.234699 111.57777 
L 329.884536 110.831835 
L 331.5096 110.085901 
L 332.451096 109.339966 
L 334.195425 108.594031 
L 335.272595 107.848096 
L 336.77758 107.102161 
L 336.968897 106.356226 
L 340.276516 105.610292 
L 341.762527 104.864357 
L 342.547674 104.118422 
L 344.041934 103.372487 
L 347.515264 101.134683 
L 348.013212 99.642813 
L 349.168083 98.896878 
L 349.191102 98.150943 
L 349.441202 96.659074 
L 354.989614 95.167204 
L 355.250657 94.421269 
L 355.634992 93.675334 
L 356.953474 92.9294 
L 357.508751 92.183465 
L 358.223459 91.43753 
L 358.701427 90.691595 
L 359.315952 89.94566 
L 362.489272 89.199726 
L 362.661398 88.453791 
L 363.148228 87.707856 
L 363.799186 86.961921 
L 364.006669 86.215986 
L 366.432475 85.470051 
L 367.007142 84.724117 
L 367.054792 83.978182 
L 369.572736 83.232247 
L 369.932259 82.486312 
L 372.073552 81.740377 
L 372.073552 81.740377 
" clip-path="url(#pa9cb73f3bd)" style="fill: none; stroke: #d62728; stroke-width: 1.5; stroke-linecap: square"/>
   </g>
   <g id="patch_3">
    <path d="M 54 252 
L 54 34.56 
" style="fill: none; stroke: #000000; stroke-width: 0.8; stroke-linejoin: miter; stroke-linecap: square"/>
   </g>
   <g id="patch_4">
    <path d="M 388.8 252 
L 388.8 34.56 
" style="fill: none; stroke: #000000; stroke-width: 0.8; stroke-linejoin: miter; stroke-linecap: square"/>
   </g>
   <g id="patch_5">
    <path d="M 54 252 
L 388.8 252 
" style="fill: none; stroke: #000000; stroke-width: 0.8; stroke-linejoin: miter; stroke-linecap: square"/>
   </g>
   <g id="patch_6">
    <path d="M 54 34.56 
L 388.8 34.56 
" style="fill: none; stroke: #000000; stroke-width: 0.8; stroke-linejoin: miter; stroke-linecap: square"/>
   </g>
   <g id="legend_1">
    <g id="patch_7">
     <path d="M 61 101.2725 
L 135.335938 101.2725 
Q 137.335938 101.2725 137.335938 99.2725 
L 137.335938 41.56 
Q 137.335938 39.56 135.335938 39.56 
L 61 39.56 
Q 59 39.56 59 41.56 
L 59 99.2725 
Q 59 101.2725 61 101.2725 
z
" style="fill: #ffffff; opacity: 0.8; stroke: #cccccc; stroke-linejoin: miter"/>
    </g>
    <g id="line2d_17">
     <path d="M 63 47.658437 
L 73 47.658437 
L 83 47.658437 
" style="fill: none; stroke: #1f77b4; stroke-width: 1.5; stroke-linecap: square"/>
    </g>
    <g id="text_13">
     <!-- Server 1 -->
     <g transform="translate(91 51.158437)scale(0.1 -0.1)">
      <defs>
       <path id="DejaVuSans-53" d="M 3425 4513 
L 3425 3897 
Q 3066 4069 2747 4153 
Q 2428 4238 2131 4238 
Q 1616 4238 1336 4038 
Q 1056 3838 1056 3469 
Q 1056 3159 1242 3001 
Q 1428 2844 1947 2747 
L 2328 2669 
Q 3034 2534 3370 2195 
Q 3706 1856 3706 1288 
Q 3706 609 3251 259 
Q 2797 -91 1919 -91 
Q 1588 -91 1214 -16 
Q 841 59 441 206 
L 441 856 
Q 825 641 1194 531 
Q 1563 422 1919 422 
Q 2459 422 2753 634 
Q 3047 847 3047 1241 
Q 3047 1584 2836 1778 
Q 2625 1972 2144 2069 
L 1759 2144 
Q 1053 2284 737 2584 
Q 422 2884 422 3419 
Q 422 4038 858 4394 
Q 1294 4750 2059 4750 
Q 2388 4750 2728 4690 
Q 3069 4631 3425 4513 
z
" transform="scale(0.015625)"/>
       <path id="DejaVuSans-65" d="M 3597 1894 
L 3597 1613 
L 953 1613 
Q 991 1019 1311 708 
Q 1631 397 2203 397 
Q 2534 397 2845 478 
Q 3156 559 3463 722 
L 3463 178 
Q 3153 47 2828 -22 
Q 2503 -91 2169 -91 
Q 1331 -91 842 396 
Q 353 884 353 1716 
Q 353 2575 817 3079 
Q 1281 3584 2069 3584 
Q 2775 3584 3186 3129 
Q 3597 2675 3597 1894 
z
M 3022 2063 
Q 3016 2534 2758 2815 
Q 2500 3097 2075 3097 
Q 1594 3097 1305 2825 
Q 1016 2553 972 2059 
L 3022 2063 
z
" transform="scale(0.015625)"/>
       <path id="DejaVuSans-72" d="M 2631 2963 
Q 2534 3019 2420 3045 
Q 2306 3072 2169 3072 
Q 1681 3072 1420 2755 
Q 1159 2438 1159 1844 
L 1159 0 
L 581 0 
L 581 3500 
L 1159 3500 
L 1159 2956 
Q 1341 3275 1631 3429 
Q 1922 3584 2338 3584 
Q 2397 3584 2469 3576 
Q 2541 3569 2628 3553 
L 2631 2963 
z
" transform="scale(0.015625)"/>
       <path id="DejaVuSans-76" d="M 191 3500 
L 800 3500 
L 1894 563 
L 2988 3500 
L 3597 3500 
L 2284 0 
L 1503 0 
L 191 3500 
z
" transform="scale(0.015625)"/>
       <path id="DejaVuSans-20" transform="scale(0.015625)"/>
      </defs>
      <use xlink:href="#DejaVuSans-53"/>
      <use xlink:href="#DejaVuSans-65" x="63.476562"/>
      <use xlink:href="#DejaVuSans-72" x="125"/>
      <use xlink:href="#DejaVuSans-76" x="166.113281"/>
      <use xlink:href="#DejaVuSans-65" x="225.292969"/>
      <use xlink:href="#DejaVuSans-72" x="286.816406"/>
      <use xlink:href="#DejaVuSans-20" x="327.929688"/>
      <use xlink:href="#DejaVuSans-31" x="359.716797"/>
     </g>
    </g>
    <g id="line2d_18">
     <path d="M 63 62.336562 
L 73 62.336562 
L 83 62.336562 
" style="fill: none; stroke: #ff7f0e; stroke-width: 1.5; stroke-linecap: square"/>
    </g>
    <g id="text_14">
     <!-- Server 2 -->
     <g transform="translate(91 65.836562)scale(0.1 -0.1)">
      <use xlink:href="#DejaVuSans-53"/>
      <use xlink:href="#DejaVuSans-65" x="63.476562"/>
      <use xlink:href="#DejaVuSans-72" x="125"/>
      <use xlink:href="#DejaVuSans-76" x="166.113281"/>
      <use xlink:href="#DejaVuSans-65" x="225.292969"/>
      <use xlink:href="#DejaVuSans-72" x="286.816406"/>
      <use xlink:href="#DejaVuSans-20" x="327.929688"/>
      <use xlink:href="#DejaVuSans-32" x="359.716797"/>
     </g>
    </g>
    <g id="line2d_19">
     <path d="M 63 77.014687 
L 73 77.014687 
L 83 77.014687 
" style="fill: none; stroke: #2ca02c; stroke-width: 1.5; stroke-linecap: square"/>
    </g>
    <g id="text_15">
     <!-- Server 3 -->
     <g transform="translate(91 80.514687)scale(0.1 -0.1)">
      <use xlink:href="#DejaVuSans-53"/>
      <use xlink:href="#DejaVuSans-65" x="63.476562"/>
      <use xlink:href="#DejaVuSans-72" x="125"/>
      <use xlink:href="#DejaVuSans-76" x="166.113281"/>
      <use xlink:href="#DejaVuSans-65" x="225.292969"/>
      <use xlink:href="#DejaVuSans-72" x="286.816406"/>
      <use xlink:href="#DejaVuSans-20" x="327.929688"/>
      <use xlink:href="#DejaVuSans-33" x="359.716797"/>
     </g>
    </g>
    <g id="line2d_20">
     <path d="M 63 91.692813 
L 73 91.692813 
L 83 91.692813 
" style="fill: none; stroke: #d62728; stroke-width: 1.5; stroke-linecap: square"/>
    </g>
    <g id="text_16">
     <!-- Server 4 -->
     <g transform="translate(91 95.192813)scale(0.1 -0.1)">
      <use xlink:href="#DejaVuSans-53"/>
      <use xlink:href="#DejaVuSans-65" x="63.476562"/>
      <use xlink:href="#DejaVuSans-72" x="125"/>
      <use xlink:href="#DejaVuSans-76" x="166.113281"/>
      <use xlink:href="#DejaVuSans-65" x="225.292969"/>
      <use xlink:href="#DejaVuSans-72" x="286.816406"/>
      <use xlink:href="#DejaVuSans-20" x="327.929688"/>
      <use xlink:href="#DejaVuSans-34" x="359.716797"/>
     </g>
    </g>
   </g>
  </g>
 </g>
 <defs>
  <clipPath id="pa9cb73f3bd">
   <rect x="54" y="34.56" width="334.8" height="217.44"/>
  </clipPath>
 </defs>
</svg>
