<?xml version="1.0" encoding="utf-8" standalone="no"?>
<!DOCTYPE svg PUBLIC "-//W3C//DTD SVG 1.1//EN"
  "http://www.w3.org/Graphics/SVG/1.1/DTD/svg11.dtd">
<svg xmlns:xlink="http://www.w3.org/1999/xlink" width="432pt" height="288pt" viewBox="0 0 432 288" xmlns="http://www.w3.org/2000/svg" version="1.1">
 <metadata>
  <rdf:RDF xmlns:dc="http://purl.org/dc/elements/1.1/" xmlns:cc="http://creativecommons.org/ns#" xmlns:rdf="http://www.w3.org/1999/02/22-rdf-syntax-ns#">
   <cc:Work>
    <dc:type rdf:resource="http://purl.org/dc/dcmitype/StillImage"/>
    <dc:date>2021-12-16T13:06:22.611079</dc:date>
    <dc:format>image/svg+xml</dc:format>
    <dc:creator>
     <cc:Agent>
      <dc:title>Matplotlib v3.5.1, https://matplotlib.org/</dc:title>
     </cc:Agent>
    </dc:creator>
   </cc:Work>
  </rdf:RDF>
 </metadata>
 <defs>
  <style type="text/css">*{stroke-linejoin: round; stroke-linecap: butt}</style>
 </defs>
 <g id="figure_1">
  <g id="patch_1">
   <path d="M 0 288 
L 432 288 
L 432 0 
L 0 0 
L 0 288 
z
" style="fill: none"/>
  </g>
  <g id="axes_1">
   <g id="patch_2">
    <path d="M 54 252 
L 388.8 252 
L 388.8 34.56 
L 54 34.56 
L 54 252 
z
" style="fill: none"/>
   </g>
   <g id="matplotlib.axis_1">
    <g id="xtick_1">
     <g id="line2d_1">
      <defs>
       <path id="m7bd0d82ffc" d="M 0 0 
L 0 3.5 
" style="stroke: #000000; stroke-width: 0.8"/>
      </defs>
      <g>
       <use xlink:href="#m7bd0d82ffc" x="69.218182" y="252" style="stroke: #000000; stroke-width: 0.8"/>
      </g>
     </g>
     <g id="text_1">
      <!-- 0 -->
      <g transform="translate(66.036932 266.598437)scale(0.1 -0.1)">
       <defs>
        <path id="DejaVuSans-30" d="M 2034 4250 
Q 1547 4250 1301 3770 
Q 1056 3291 1056 2328 
Q 1056 1369 1301 889 
Q 1547 409 2034 409 
Q 2525 409 2770 889 
Q 3016 1369 3016 2328 
Q 3016 3291 2770 3770 
Q 2525 4250 2034 4250 
z
M 2034 4750 
Q 2819 4750 3233 4129 
Q 3647 3509 3647 2328 
Q 3647 1150 3233 529 
Q 2819 -91 2034 -91 
Q 1250 -91 836 529 
Q 422 1150 422 2328 
Q 422 3509 836 4129 
Q 1250 4750 2034 4750 
z
" transform="scale(0.015625)"/>
       </defs>
       <use xlink:href="#DejaVuSans-30"/>
      </g>
     </g>
    </g>
    <g id="xtick_2">
     <g id="line2d_2">
      <g>
       <use xlink:href="#m7bd0d82ffc" x="130.138726" y="252" style="stroke: #000000; stroke-width: 0.8"/>
      </g>
     </g>
     <g id="text_2">
      <!-- 20 -->
      <g transform="translate(123.776226 266.598437)scale(0.1 -0.1)">
       <defs>
        <path id="DejaVuSans-32" d="M 1228 531 
L 3431 531 
L 3431 0 
L 469 0 
L 469 531 
Q 828 903 1448 1529 
Q 2069 2156 2228 2338 
Q 2531 2678 2651 2914 
Q 2772 3150 2772 3378 
Q 2772 3750 2511 3984 
Q 2250 4219 1831 4219 
Q 1534 4219 1204 4116 
Q 875 4013 500 3803 
L 500 4441 
Q 881 4594 1212 4672 
Q 1544 4750 1819 4750 
Q 2544 4750 2975 4387 
Q 3406 4025 3406 3419 
Q 3406 3131 3298 2873 
Q 3191 2616 2906 2266 
Q 2828 2175 2409 1742 
Q 1991 1309 1228 531 
z
" transform="scale(0.015625)"/>
       </defs>
       <use xlink:href="#DejaVuSans-32"/>
       <use xlink:href="#DejaVuSans-30" x="63.623047"/>
      </g>
     </g>
    </g>
    <g id="xtick_3">
     <g id="line2d_3">
      <g>
       <use xlink:href="#m7bd0d82ffc" x="191.05927" y="252" style="stroke: #000000; stroke-width: 0.8"/>
      </g>
     </g>
     <g id="text_3">
      <!-- 40 -->
      <g transform="translate(184.69677 266.598437)scale(0.1 -0.1)">
       <defs>
        <path id="DejaVuSans-34" d="M 2419 4116 
L 825 1625 
L 2419 1625 
L 2419 4116 
z
M 2253 4666 
L 3047 4666 
L 3047 1625 
L 3713 1625 
L 3713 1100 
L 3047 1100 
L 3047 0 
L 2419 0 
L 2419 1100 
L 313 1100 
L 313 1709 
L 2253 4666 
z
" transform="scale(0.015625)"/>
       </defs>
       <use xlink:href="#DejaVuSans-34"/>
       <use xlink:href="#DejaVuSans-30" x="63.623047"/>
      </g>
     </g>
    </g>
    <g id="xtick_4">
     <g id="line2d_4">
      <g>
       <use xlink:href="#m7bd0d82ffc" x="251.979814" y="252" style="stroke: #000000; stroke-width: 0.8"/>
      </g>
     </g>
     <g id="text_4">
      <!-- 60 -->
      <g transform="translate(245.617314 266.598437)scale(0.1 -0.1)">
       <defs>
        <path id="DejaVuSans-36" d="M 2113 2584 
Q 1688 2584 1439 2293 
Q 1191 2003 1191 1497 
Q 1191 994 1439 701 
Q 1688 409 2113 409 
Q 2538 409 2786 701 
Q 3034 994 3034 1497 
Q 3034 2003 2786 2293 
Q 2538 2584 2113 2584 
z
M 3366 4563 
L 3366 3988 
Q 3128 4100 2886 4159 
Q 2644 4219 2406 4219 
Q 1781 4219 1451 3797 
Q 1122 3375 1075 2522 
Q 1259 2794 1537 2939 
Q 1816 3084 2150 3084 
Q 2853 3084 3261 2657 
Q 3669 2231 3669 1497 
Q 3669 778 3244 343 
Q 2819 -91 2113 -91 
Q 1303 -91 875 529 
Q 447 1150 447 2328 
Q 447 3434 972 4092 
Q 1497 4750 2381 4750 
Q 2619 4750 2861 4703 
Q 3103 4656 3366 4563 
z
" transform="scale(0.015625)"/>
       </defs>
       <use xlink:href="#DejaVuSans-36"/>
       <use xlink:href="#DejaVuSans-30" x="63.623047"/>
      </g>
     </g>
    </g>
    <g id="xtick_5">
     <g id="line2d_5">
      <g>
       <use xlink:href="#m7bd0d82ffc" x="312.900358" y="252" style="stroke: #000000; stroke-width: 0.8"/>
      </g>
     </g>
     <g id="text_5">
      <!-- 80 -->
      <g transform="translate(306.537858 266.598437)scale(0.1 -0.1)">
       <defs>
        <path id="DejaVuSans-38" d="M 2034 2216 
Q 1584 2216 1326 1975 
Q 1069 1734 1069 1313 
Q 1069 891 1326 650 
Q 1584 409 2034 409 
Q 2484 409 2743 651 
Q 3003 894 3003 1313 
Q 3003 1734 2745 1975 
Q 2488 2216 2034 2216 
z
M 1403 2484 
Q 997 2584 770 2862 
Q 544 3141 544 3541 
Q 544 4100 942 4425 
Q 1341 4750 2034 4750 
Q 2731 4750 3128 4425 
Q 3525 4100 3525 3541 
Q 3525 3141 3298 2862 
Q 3072 2584 2669 2484 
Q 3125 2378 3379 2068 
Q 3634 1759 3634 1313 
Q 3634 634 3220 271 
Q 2806 -91 2034 -91 
Q 1263 -91 848 271 
Q 434 634 434 1313 
Q 434 1759 690 2068 
Q 947 2378 1403 2484 
z
M 1172 3481 
Q 1172 3119 1398 2916 
Q 1625 2713 2034 2713 
Q 2441 2713 2670 2916 
Q 2900 3119 2900 3481 
Q 2900 3844 2670 4047 
Q 2441 4250 2034 4250 
Q 1625 4250 1398 4047 
Q 1172 3844 1172 3481 
z
" transform="scale(0.015625)"/>
       </defs>
       <use xlink:href="#DejaVuSans-38"/>
       <use xlink:href="#DejaVuSans-30" x="63.623047"/>
      </g>
     </g>
    </g>
    <g id="xtick_6">
     <g id="line2d_6">
      <g>
       <use xlink:href="#m7bd0d82ffc" x="373.820901" y="252" style="stroke: #000000; stroke-width: 0.8"/>
      </g>
     </g>
     <g id="text_6">
      <!-- 100 -->
      <g transform="translate(364.277151 266.598437)scale(0.1 -0.1)">
       <defs>
        <path id="DejaVuSans-31" d="M 794 531 
L 1825 531 
L 1825 4091 
L 703 3866 
L 703 4441 
L 1819 4666 
L 2450 4666 
L 2450 531 
L 3481 531 
L 3481 0 
L 794 0 
L 794 531 
z
" transform="scale(0.015625)"/>
       </defs>
       <use xlink:href="#DejaVuSans-31"/>
       <use xlink:href="#DejaVuSans-30" x="63.623047"/>
       <use xlink:href="#DejaVuSans-30" x="127.246094"/>
      </g>
     </g>
    </g>
   </g>
   <g id="matplotlib.axis_2">
    <g id="ytick_1">
     <g id="line2d_7">
      <defs>
       <path id="m6c6a540e8e" d="M 0 0 
L -3.5 0 
" style="stroke: #000000; stroke-width: 0.8"/>
      </defs>
      <g>
       <use xlink:href="#m6c6a540e8e" x="54" y="242.116364" style="stroke: #000000; stroke-width: 0.8"/>
      </g>
     </g>
     <g id="text_7">
      <!-- 0 -->
      <g transform="translate(40.6375 245.915582)scale(0.1 -0.1)">
       <use xlink:href="#DejaVuSans-30"/>
      </g>
     </g>
    </g>
    <g id="ytick_2">
     <g id="line2d_8">
      <g>
       <use xlink:href="#m6c6a540e8e" x="54" y="209.710999" style="stroke: #000000; stroke-width: 0.8"/>
      </g>
     </g>
     <g id="text_8">
      <!-- 20 -->
      <g transform="translate(34.275 213.510217)scale(0.1 -0.1)">
       <use xlink:href="#DejaVuSans-32"/>
       <use xlink:href="#DejaVuSans-30" x="63.623047"/>
      </g>
     </g>
    </g>
    <g id="ytick_3">
     <g id="line2d_9">
      <g>
       <use xlink:href="#m6c6a540e8e" x="54" y="177.305633" style="stroke: #000000; stroke-width: 0.8"/>
      </g>
     </g>
     <g id="text_9">
      <!-- 40 -->
      <g transform="translate(34.275 181.104852)scale(0.1 -0.1)">
       <use xlink:href="#DejaVuSans-34"/>
       <use xlink:href="#DejaVuSans-30" x="63.623047"/>
      </g>
     </g>
    </g>
    <g id="ytick_4">
     <g id="line2d_10">
      <g>
       <use xlink:href="#m6c6a540e8e" x="54" y="144.900268" style="stroke: #000000; stroke-width: 0.8"/>
      </g>
     </g>
     <g id="text_10">
      <!-- 60 -->
      <g transform="translate(34.275 148.699487)scale(0.1 -0.1)">
       <use xlink:href="#DejaVuSans-36"/>
       <use xlink:href="#DejaVuSans-30" x="63.623047"/>
      </g>
     </g>
    </g>
    <g id="ytick_5">
     <g id="line2d_11">
      <g>
       <use xlink:href="#m6c6a540e8e" x="54" y="112.494903" style="stroke: #000000; stroke-width: 0.8"/>
      </g>
     </g>
     <g id="text_11">
      <!-- 80 -->
      <g transform="translate(34.275 116.294122)scale(0.1 -0.1)">
       <use xlink:href="#DejaVuSans-38"/>
       <use xlink:href="#DejaVuSans-30" x="63.623047"/>
      </g>
     </g>
    </g>
    <g id="ytick_6">
     <g id="line2d_12">
      <g>
       <use xlink:href="#m6c6a540e8e" x="54" y="80.089538" style="stroke: #000000; stroke-width: 0.8"/>
      </g>
     </g>
     <g id="text_12">
      <!-- 100 -->
      <g transform="translate(27.9125 83.888757)scale(0.1 -0.1)">
       <use xlink:href="#DejaVuSans-31"/>
       <use xlink:href="#DejaVuSans-30" x="63.623047"/>
       <use xlink:href="#DejaVuSans-30" x="127.246094"/>
      </g>
     </g>
    </g>
    <g id="ytick_7">
     <g id="line2d_13">
      <g>
       <use xlink:href="#m6c6a540e8e" x="54" y="47.684173" style="stroke: #000000; stroke-width: 0.8"/>
      </g>
     </g>
     <g id="text_13">
      <!-- 120 -->
      <g transform="translate(27.9125 51.483392)scale(0.1 -0.1)">
       <use xlink:href="#DejaVuSans-31"/>
       <use xlink:href="#DejaVuSans-32" x="63.623047"/>
       <use xlink:href="#DejaVuSans-30" x="127.246094"/>
      </g>
     </g>
    </g>
   </g>
   <g id="line2d_14">
    <path d="M 69.218182 242.116364 
L 72.051912 240.496095 
L 72.88304 238.875827 
L 73.973449 237.255559 
L 76.306013 235.635291 
L 77.292017 234.015022 
L 77.446633 235.635291 
L 79.695562 232.394754 
L 80.199771 230.774486 
L 81.810468 232.394754 
L 81.879157 234.015022 
L 82.346892 232.394754 
L 86.009938 230.774486 
L 86.270879 232.394754 
L 92.196422 230.774486 
L 93.657827 232.394754 
L 95.736641 230.774486 
L 96.481675 232.394754 
L 97.729825 230.774486 
L 99.312435 232.394754 
L 99.645931 229.154218 
L 100.513234 227.533949 
L 101.950784 225.913681 
L 105.669944 224.293413 
L 109.043415 225.913681 
L 110.847262 224.293413 
L 111.581465 225.913681 
L 113.80393 227.533949 
L 113.900567 225.913681 
L 115.112309 224.293413 
L 115.133847 222.673145 
L 116.177472 224.293413 
L 117.070985 222.673145 
L 118.915475 224.293413 
L 119.724203 222.673145 
L 119.725944 221.052876 
L 120.762179 219.432608 
L 123.841635 217.81234 
L 123.927582 219.432608 
L 124.267463 217.81234 
L 127.380278 216.192072 
L 127.703217 214.571803 
L 128.979803 212.951535 
L 129.395003 211.331267 
L 129.918286 212.951535 
L 131.374448 214.571803 
L 134.61552 212.951535 
L 134.743249 211.331267 
L 135.330741 209.710999 
L 135.715562 211.331267 
L 136.410795 209.710999 
L 136.586666 208.09073 
L 137.807099 206.470462 
L 138.703655 208.09073 
L 139.674446 206.470462 
L 140.423466 208.09073 
L 142.239996 206.470462 
L 147.296038 204.850194 
L 150.052829 201.609657 
L 150.77867 203.229925 
L 150.94953 201.609657 
L 151.689672 199.989389 
L 152.259497 201.609657 
L 152.995198 199.989389 
L 153.629779 196.748852 
L 154.674308 198.369121 
L 155.07473 196.748852 
L 156.060542 195.128584 
L 156.203885 193.508316 
L 157.482741 195.128584 
L 158.362273 193.508316 
L 162.274758 191.888048 
L 164.593175 193.508316 
L 165.089405 191.888048 
L 168.995967 190.267779 
L 170.180618 188.647511 
L 170.936678 187.027243 
L 170.955815 188.647511 
L 172.797406 187.027243 
L 175.339834 185.406975 
L 175.866905 187.027243 
L 176.845846 188.647511 
L 178.223963 187.027243 
L 182.779359 185.406975 
L 184.099469 183.786706 
L 185.011543 182.166438 
L 186.655684 180.54617 
L 189.370165 182.166438 
L 190.417623 183.786706 
L 195.166424 182.166438 
L 195.297349 180.54617 
L 196.742339 178.925902 
L 197.75727 177.305633 
L 199.272136 175.685365 
L 199.386134 177.305633 
L 202.112299 175.685365 
L 203.626799 177.305633 
L 204.494165 174.065097 
L 205.524203 175.685365 
L 206.904658 174.065097 
L 209.482126 172.444829 
L 209.884628 169.204292 
L 210.198161 170.82456 
L 211.681291 174.065097 
L 211.706515 172.444829 
L 212.870089 170.82456 
L 214.42958 172.444829 
L 214.608269 170.82456 
L 214.841702 172.444829 
L 217.44986 169.204292 
L 218.909728 165.963756 
L 223.894479 167.584024 
L 224.459071 169.204292 
L 224.792216 170.82456 
L 224.907652 169.204292 
L 225.780727 164.343487 
L 227.265891 165.963756 
L 228.237619 164.343487 
L 228.272718 162.723219 
L 229.040204 164.343487 
L 229.117171 162.723219 
L 229.955624 159.482683 
L 230.670268 161.102951 
L 231.541198 159.482683 
L 231.844032 157.862414 
L 232.910822 156.242146 
L 233.134034 153.00161 
L 237.23804 154.621878 
L 239.900234 153.00161 
L 240.576501 151.381341 
L 240.624287 153.00161 
L 242.579676 151.381341 
L 246.397768 149.761073 
L 246.680495 148.140805 
L 248.35734 149.761073 
L 248.472321 146.520537 
L 250.189724 144.900268 
L 253.033302 143.28 
L 253.671484 141.659732 
L 254.111024 140.039463 
L 255.494379 138.419195 
L 256.383757 136.798927 
L 256.676408 135.178659 
L 257.648015 133.55839 
L 258.451362 131.938122 
L 259.733601 130.317854 
L 260.815698 128.697586 
L 262.056966 125.457049 
L 264.825911 123.836781 
L 265.265949 122.216513 
L 266.518393 120.596244 
L 266.537452 118.975976 
L 268.376288 120.596244 
L 268.598314 118.975976 
L 268.669551 117.355708 
L 269.171736 115.73544 
L 269.363984 117.355708 
L 269.589969 115.73544 
L 270.251281 114.115171 
L 270.768353 112.494903 
L 271.446154 110.874635 
L 274.213946 112.494903 
L 274.610705 114.115171 
L 275.917248 112.494903 
L 277.832348 110.874635 
L 279.395265 107.634098 
L 280.997787 106.01383 
L 281.00011 104.393562 
L 281.32539 102.773294 
L 281.945361 101.153025 
L 282.362163 99.532757 
L 283.907189 97.912489 
L 284.631926 96.292221 
L 287.804112 94.671952 
L 289.082956 93.051684 
L 289.390362 94.671952 
L 289.511601 96.292221 
L 289.897965 94.671952 
L 290.722942 93.051684 
L 292.375852 91.431416 
L 292.448819 89.811148 
L 293.346516 88.190879 
L 293.803513 86.570611 
L 294.064867 84.950343 
L 296.224302 81.709806 
L 297.227961 83.330075 
L 297.479537 81.709806 
L 300.104327 83.330075 
L 301.328406 80.089538 
L 302.28643 78.46927 
L 304.808117 76.849001 
L 307.94144 78.46927 
L 307.975334 76.849001 
L 308.292512 75.228733 
L 310.496927 76.849001 
L 315.973734 78.46927 
L 318.679268 81.709806 
L 319.643688 80.089538 
L 320.426301 78.46927 
L 322.154624 76.849001 
L 322.733455 75.228733 
L 323.099273 73.608465 
L 325.023531 71.988197 
L 325.027126 70.367928 
L 325.767199 71.988197 
L 327.662076 70.367928 
L 328.011593 67.127392 
L 329.607293 65.507124 
L 332.757996 63.886855 
L 333.258276 62.266587 
L 333.42942 63.886855 
L 335.037133 65.507124 
L 336.993748 67.127392 
L 337.212792 68.74766 
L 338.504994 70.367928 
L 339.107271 68.74766 
L 340.026054 67.127392 
L 342.420019 65.507124 
L 343.396746 67.127392 
L 344.690059 68.74766 
L 345.429302 67.127392 
L 345.577724 68.74766 
L 347.031608 67.127392 
L 350.160885 65.507124 
L 350.657842 63.886855 
L 350.749622 60.646319 
L 352.069712 62.266587 
L 352.489747 60.646319 
L 355.895997 62.266587 
L 356.949316 60.646319 
L 360.614133 59.026051 
L 360.679489 57.405782 
L 362.785573 55.785514 
L 364.335724 57.405782 
L 364.516549 59.026051 
L 364.62598 57.405782 
L 368.174694 55.785514 
L 369.73128 54.165246 
L 370.440899 52.544978 
L 371.616721 50.924709 
L 371.971579 49.304441 
L 373.318854 47.684173 
L 373.332465 46.063905 
L 373.581818 44.443636 
L 373.581818 44.443636 
" clip-path="url(#p9c5fc11745)" style="fill: none; stroke: #1f77b4; stroke-width: 1.5; stroke-linecap: square"/>
   </g>
   <g id="patch_3">
    <path d="M 54 252 
L 54 34.56 
" style="fill: none; stroke: #000000; stroke-width: 0.8; stroke-linejoin: miter; stroke-linecap: square"/>
   </g>
   <g id="patch_4">
    <path d="M 388.8 252 
L 388.8 34.56 
" style="fill: none; stroke: #000000; stroke-width: 0.8; stroke-linejoin: miter; stroke-linecap: square"/>
   </g>
   <g id="patch_5">
    <path d="M 54 252 
L 388.8 252 
" style="fill: none; stroke: #000000; stroke-width: 0.8; stroke-linejoin: miter; stroke-linecap: square"/>
   </g>
   <g id="patch_6">
    <path d="M 54 34.56 
L 388.8 34.56 
" style="fill: none; stroke: #000000; stroke-width: 0.8; stroke-linejoin: miter; stroke-linecap: square"/>
   </g>
  </g>
 </g>
 <defs>
  <clipPath id="p9c5fc11745">
   <rect x="54" y="34.56" width="334.8" height="217.44"/>
  </clipPath>
 </defs>
</svg>
