<?xml version="1.0" encoding="utf-8" standalone="no"?>
<!DOCTYPE svg PUBLIC "-//W3C//DTD SVG 1.1//EN"
  "http://www.w3.org/Graphics/SVG/1.1/DTD/svg11.dtd">
<svg xmlns:xlink="http://www.w3.org/1999/xlink" width="432pt" height="288pt" viewBox="0 0 432 288" xmlns="http://www.w3.org/2000/svg" version="1.1">
 <metadata>
  <rdf:RDF xmlns:dc="http://purl.org/dc/elements/1.1/" xmlns:cc="http://creativecommons.org/ns#" xmlns:rdf="http://www.w3.org/1999/02/22-rdf-syntax-ns#">
   <cc:Work>
    <dc:type rdf:resource="http://purl.org/dc/dcmitype/StillImage"/>
    <dc:date>2021-12-16T13:10:59.463644</dc:date>
    <dc:format>image/svg+xml</dc:format>
    <dc:creator>
     <cc:Agent>
      <dc:title>Matplotlib v3.5.1, https://matplotlib.org/</dc:title>
     </cc:Agent>
    </dc:creator>
   </cc:Work>
  </rdf:RDF>
 </metadata>
 <defs>
  <style type="text/css">*{stroke-linejoin: round; stroke-linecap: butt}</style>
 </defs>
 <g id="figure_1">
  <g id="patch_1">
   <path d="M 0 288 
L 432 288 
L 432 0 
L 0 0 
L 0 288 
z
" style="fill: none"/>
  </g>
  <g id="axes_1">
   <g id="patch_2">
    <path d="M 54 252 
L 388.8 252 
L 388.8 34.56 
L 54 34.56 
L 54 252 
z
" style="fill: none"/>
   </g>
   <g id="matplotlib.axis_1">
    <g id="xtick_1">
     <g id="line2d_1">
      <defs>
       <path id="m3041a40b55" d="M 0 0 
L 0 3.5 
" style="stroke: #000000; stroke-width: 0.8"/>
      </defs>
      <g>
       <use xlink:href="#m3041a40b55" x="69.218182" y="252" style="stroke: #000000; stroke-width: 0.8"/>
      </g>
     </g>
     <g id="text_1">
      <!-- 0 -->
      <g transform="translate(66.036932 266.598437)scale(0.1 -0.1)">
       <defs>
        <path id="DejaVuSans-30" d="M 2034 4250 
Q 1547 4250 1301 3770 
Q 1056 3291 1056 2328 
Q 1056 1369 1301 889 
Q 1547 409 2034 409 
Q 2525 409 2770 889 
Q 3016 1369 3016 2328 
Q 3016 3291 2770 3770 
Q 2525 4250 2034 4250 
z
M 2034 4750 
Q 2819 4750 3233 4129 
Q 3647 3509 3647 2328 
Q 3647 1150 3233 529 
Q 2819 -91 2034 -91 
Q 1250 -91 836 529 
Q 422 1150 422 2328 
Q 422 3509 836 4129 
Q 1250 4750 2034 4750 
z
" transform="scale(0.015625)"/>
       </defs>
       <use xlink:href="#DejaVuSans-30"/>
      </g>
     </g>
    </g>
    <g id="xtick_2">
     <g id="line2d_2">
      <g>
       <use xlink:href="#m3041a40b55" x="130.155024" y="252" style="stroke: #000000; stroke-width: 0.8"/>
      </g>
     </g>
     <g id="text_2">
      <!-- 20 -->
      <g transform="translate(123.792524 266.598437)scale(0.1 -0.1)">
       <defs>
        <path id="DejaVuSans-32" d="M 1228 531 
L 3431 531 
L 3431 0 
L 469 0 
L 469 531 
Q 828 903 1448 1529 
Q 2069 2156 2228 2338 
Q 2531 2678 2651 2914 
Q 2772 3150 2772 3378 
Q 2772 3750 2511 3984 
Q 2250 4219 1831 4219 
Q 1534 4219 1204 4116 
Q 875 4013 500 3803 
L 500 4441 
Q 881 4594 1212 4672 
Q 1544 4750 1819 4750 
Q 2544 4750 2975 4387 
Q 3406 4025 3406 3419 
Q 3406 3131 3298 2873 
Q 3191 2616 2906 2266 
Q 2828 2175 2409 1742 
Q 1991 1309 1228 531 
z
" transform="scale(0.015625)"/>
       </defs>
       <use xlink:href="#DejaVuSans-32"/>
       <use xlink:href="#DejaVuSans-30" x="63.623047"/>
      </g>
     </g>
    </g>
    <g id="xtick_3">
     <g id="line2d_3">
      <g>
       <use xlink:href="#m3041a40b55" x="191.091866" y="252" style="stroke: #000000; stroke-width: 0.8"/>
      </g>
     </g>
     <g id="text_3">
      <!-- 40 -->
      <g transform="translate(184.729366 266.598437)scale(0.1 -0.1)">
       <defs>
        <path id="DejaVuSans-34" d="M 2419 4116 
L 825 1625 
L 2419 1625 
L 2419 4116 
z
M 2253 4666 
L 3047 4666 
L 3047 1625 
L 3713 1625 
L 3713 1100 
L 3047 1100 
L 3047 0 
L 2419 0 
L 2419 1100 
L 313 1100 
L 313 1709 
L 2253 4666 
z
" transform="scale(0.015625)"/>
       </defs>
       <use xlink:href="#DejaVuSans-34"/>
       <use xlink:href="#DejaVuSans-30" x="63.623047"/>
      </g>
     </g>
    </g>
    <g id="xtick_4">
     <g id="line2d_4">
      <g>
       <use xlink:href="#m3041a40b55" x="252.028708" y="252" style="stroke: #000000; stroke-width: 0.8"/>
      </g>
     </g>
     <g id="text_4">
      <!-- 60 -->
      <g transform="translate(245.666208 266.598437)scale(0.1 -0.1)">
       <defs>
        <path id="DejaVuSans-36" d="M 2113 2584 
Q 1688 2584 1439 2293 
Q 1191 2003 1191 1497 
Q 1191 994 1439 701 
Q 1688 409 2113 409 
Q 2538 409 2786 701 
Q 3034 994 3034 1497 
Q 3034 2003 2786 2293 
Q 2538 2584 2113 2584 
z
M 3366 4563 
L 3366 3988 
Q 3128 4100 2886 4159 
Q 2644 4219 2406 4219 
Q 1781 4219 1451 3797 
Q 1122 3375 1075 2522 
Q 1259 2794 1537 2939 
Q 1816 3084 2150 3084 
Q 2853 3084 3261 2657 
Q 3669 2231 3669 1497 
Q 3669 778 3244 343 
Q 2819 -91 2113 -91 
Q 1303 -91 875 529 
Q 447 1150 447 2328 
Q 447 3434 972 4092 
Q 1497 4750 2381 4750 
Q 2619 4750 2861 4703 
Q 3103 4656 3366 4563 
z
" transform="scale(0.015625)"/>
       </defs>
       <use xlink:href="#DejaVuSans-36"/>
       <use xlink:href="#DejaVuSans-30" x="63.623047"/>
      </g>
     </g>
    </g>
    <g id="xtick_5">
     <g id="line2d_5">
      <g>
       <use xlink:href="#m3041a40b55" x="312.96555" y="252" style="stroke: #000000; stroke-width: 0.8"/>
      </g>
     </g>
     <g id="text_5">
      <!-- 80 -->
      <g transform="translate(306.60305 266.598437)scale(0.1 -0.1)">
       <defs>
        <path id="DejaVuSans-38" d="M 2034 2216 
Q 1584 2216 1326 1975 
Q 1069 1734 1069 1313 
Q 1069 891 1326 650 
Q 1584 409 2034 409 
Q 2484 409 2743 651 
Q 3003 894 3003 1313 
Q 3003 1734 2745 1975 
Q 2488 2216 2034 2216 
z
M 1403 2484 
Q 997 2584 770 2862 
Q 544 3141 544 3541 
Q 544 4100 942 4425 
Q 1341 4750 2034 4750 
Q 2731 4750 3128 4425 
Q 3525 4100 3525 3541 
Q 3525 3141 3298 2862 
Q 3072 2584 2669 2484 
Q 3125 2378 3379 2068 
Q 3634 1759 3634 1313 
Q 3634 634 3220 271 
Q 2806 -91 2034 -91 
Q 1263 -91 848 271 
Q 434 634 434 1313 
Q 434 1759 690 2068 
Q 947 2378 1403 2484 
z
M 1172 3481 
Q 1172 3119 1398 2916 
Q 1625 2713 2034 2713 
Q 2441 2713 2670 2916 
Q 2900 3119 2900 3481 
Q 2900 3844 2670 4047 
Q 2441 4250 2034 4250 
Q 1625 4250 1398 4047 
Q 1172 3844 1172 3481 
z
" transform="scale(0.015625)"/>
       </defs>
       <use xlink:href="#DejaVuSans-38"/>
       <use xlink:href="#DejaVuSans-30" x="63.623047"/>
      </g>
     </g>
    </g>
    <g id="xtick_6">
     <g id="line2d_6">
      <g>
       <use xlink:href="#m3041a40b55" x="373.902392" y="252" style="stroke: #000000; stroke-width: 0.8"/>
      </g>
     </g>
     <g id="text_6">
      <!-- 100 -->
      <g transform="translate(364.358642 266.598437)scale(0.1 -0.1)">
       <defs>
        <path id="DejaVuSans-31" d="M 794 531 
L 1825 531 
L 1825 4091 
L 703 3866 
L 703 4441 
L 1819 4666 
L 2450 4666 
L 2450 531 
L 3481 531 
L 3481 0 
L 794 0 
L 794 531 
z
" transform="scale(0.015625)"/>
       </defs>
       <use xlink:href="#DejaVuSans-31"/>
       <use xlink:href="#DejaVuSans-30" x="63.623047"/>
       <use xlink:href="#DejaVuSans-30" x="127.246094"/>
      </g>
     </g>
    </g>
   </g>
   <g id="matplotlib.axis_2">
    <g id="ytick_1">
     <g id="line2d_7">
      <defs>
       <path id="m5af190a2f6" d="M 0 0 
L -3.5 0 
" style="stroke: #000000; stroke-width: 0.8"/>
      </defs>
      <g>
       <use xlink:href="#m5af190a2f6" x="54" y="242.116364" style="stroke: #000000; stroke-width: 0.8"/>
      </g>
     </g>
     <g id="text_7">
      <!-- 0 -->
      <g transform="translate(40.6375 245.915582)scale(0.1 -0.1)">
       <use xlink:href="#DejaVuSans-30"/>
      </g>
     </g>
    </g>
    <g id="ytick_2">
     <g id="line2d_8">
      <g>
       <use xlink:href="#m5af190a2f6" x="54" y="202.581818" style="stroke: #000000; stroke-width: 0.8"/>
      </g>
     </g>
     <g id="text_8">
      <!-- 2 -->
      <g transform="translate(40.6375 206.381037)scale(0.1 -0.1)">
       <use xlink:href="#DejaVuSans-32"/>
      </g>
     </g>
    </g>
    <g id="ytick_3">
     <g id="line2d_9">
      <g>
       <use xlink:href="#m5af190a2f6" x="54" y="163.047273" style="stroke: #000000; stroke-width: 0.8"/>
      </g>
     </g>
     <g id="text_9">
      <!-- 4 -->
      <g transform="translate(40.6375 166.846491)scale(0.1 -0.1)">
       <use xlink:href="#DejaVuSans-34"/>
      </g>
     </g>
    </g>
    <g id="ytick_4">
     <g id="line2d_10">
      <g>
       <use xlink:href="#m5af190a2f6" x="54" y="123.512727" style="stroke: #000000; stroke-width: 0.8"/>
      </g>
     </g>
     <g id="text_10">
      <!-- 6 -->
      <g transform="translate(40.6375 127.311946)scale(0.1 -0.1)">
       <use xlink:href="#DejaVuSans-36"/>
      </g>
     </g>
    </g>
    <g id="ytick_5">
     <g id="line2d_11">
      <g>
       <use xlink:href="#m5af190a2f6" x="54" y="83.978182" style="stroke: #000000; stroke-width: 0.8"/>
      </g>
     </g>
     <g id="text_11">
      <!-- 8 -->
      <g transform="translate(40.6375 87.777401)scale(0.1 -0.1)">
       <use xlink:href="#DejaVuSans-38"/>
      </g>
     </g>
    </g>
    <g id="ytick_6">
     <g id="line2d_12">
      <g>
       <use xlink:href="#m5af190a2f6" x="54" y="44.443636" style="stroke: #000000; stroke-width: 0.8"/>
      </g>
     </g>
     <g id="text_12">
      <!-- 10 -->
      <g transform="translate(34.275 48.242855)scale(0.1 -0.1)">
       <use xlink:href="#DejaVuSans-31"/>
       <use xlink:href="#DejaVuSans-30" x="63.623047"/>
      </g>
     </g>
    </g>
   </g>
   <g id="line2d_13">
    <path d="M 69.218182 242.116364 
L 72.05267 222.349091 
L 72.884021 202.581818 
L 73.974721 182.814545 
L 75.556286 202.581818 
L 76.307909 182.814545 
L 77.294177 163.047273 
L 77.448835 202.581818 
L 79.961948 222.349091 
L 80.930879 202.581818 
L 81.435223 182.814545 
L 82.902736 163.047273 
L 83.781316 182.814545 
L 85.730615 202.581818 
L 86.566762 182.814545 
L 89.098498 163.047273 
L 89.66411 143.28 
L 91.633904 163.047273 
L 91.657827 143.28 
L 93.41275 123.512727 
L 93.664365 143.28 
L 94.386109 123.512727 
L 95.253643 103.745455 
L 95.281323 123.512727 
L 96.180829 143.28 
L 96.691578 123.512727 
L 97.679048 103.745455 
L 98.94304 123.512727 
L 99.862488 143.28 
L 100.733171 123.512727 
L 101.945237 103.745455 
L 101.96678 83.978182 
L 103.904437 64.210909 
L 104.679655 44.443636 
L 104.843765 64.210909 
L 106.538234 83.978182 
L 106.541718 103.745455 
L 107.333583 83.978182 
L 108.204681 103.745455 
L 109.056566 143.28 
L 109.813204 163.047273 
L 110.413862 143.28 
L 110.459254 163.047273 
L 111.289876 182.814545 
L 111.69079 163.047273 
L 114.167054 143.28 
L 115.072198 123.512727 
L 115.199962 103.745455 
L 115.283861 123.512727 
L 115.787611 103.745455 
L 117.444548 123.512727 
L 117.796384 143.28 
L 119.901739 123.512727 
L 120.237903 143.28 
L 121.769586 123.512727 
L 122.134616 143.28 
L 122.653552 163.047273 
L 124.335822 143.28 
L 124.502456 163.047273 
L 125.7439 143.28 
L 126.536012 163.047273 
L 126.64084 143.28 
L 127.201358 163.047273 
L 127.381181 143.28 
L 127.903645 123.512727 
L 128.538396 83.978182 
L 129.813108 103.745455 
L 129.983733 83.978182 
L 130.969809 64.210909 
L 131.11319 44.443636 
L 132.482872 64.210909 
L 133.07028 103.745455 
L 133.272155 83.978182 
L 136.752382 64.210909 
L 138.70108 83.978182 
L 140.354214 103.745455 
L 140.595406 123.512727 
L 140.659989 103.745455 
L 141.071017 123.512727 
L 141.151229 103.745455 
L 144.03613 83.978182 
L 144.317858 103.745455 
L 146.157233 123.512727 
L 147.032939 143.28 
L 147.470174 123.512727 
L 147.91683 143.28 
L 148.382492 123.512727 
L 149.673865 143.28 
L 155.270462 163.047273 
L 156.89551 143.28 
L 157.026469 123.512727 
L 157.255038 143.28 
L 158.471846 123.512727 
L 159.285443 143.28 
L 159.987118 123.512727 
L 160.074138 143.28 
L 160.411298 123.512727 
L 160.601089 103.745455 
L 160.9805 83.978182 
L 163.391638 64.210909 
L 164.007512 44.443636 
L 164.080322 64.210909 
L 164.362642 83.978182 
L 164.403396 123.512727 
L 164.544432 143.28 
L 164.967288 163.047273 
L 166.585669 143.28 
L 166.773364 163.047273 
L 167.143393 182.814545 
L 167.749555 163.047273 
L 167.832001 182.814545 
L 169.284946 163.047273 
L 170.591906 143.28 
L 172.052163 103.745455 
L 172.305002 182.814545 
L 178.051693 163.047273 
L 178.253195 143.28 
L 178.613411 123.512727 
L 178.674872 143.28 
L 181.07096 123.512727 
L 181.106069 103.745455 
L 181.950748 83.978182 
L 182.113798 64.210909 
L 182.191451 83.978182 
L 182.572343 64.210909 
L 182.602572 83.978182 
L 182.951714 103.745455 
L 183.557544 123.512727 
L 184.158342 103.745455 
L 184.159818 123.512727 
L 184.219545 103.745455 
L 185.691695 123.512727 
L 185.780504 143.28 
L 186.369126 163.047273 
L 187.096743 182.814545 
L 189.172101 202.581818 
L 190.376547 222.349091 
L 190.987555 202.581818 
L 192.544986 222.349091 
L 194.806668 202.581818 
L 196.507867 182.814545 
L 196.598974 163.047273 
L 197.634695 182.814545 
L 199.443313 163.047273 
L 199.88297 143.28 
L 200.034699 163.047273 
L 201.266695 143.28 
L 201.559426 123.512727 
L 201.813931 143.28 
L 202.531292 123.512727 
L 203.421056 143.28 
L 203.813873 123.512727 
L 205.055474 83.978182 
L 205.585828 103.745455 
L 205.826834 123.512727 
L 206.466141 143.28 
L 206.50427 163.047273 
L 206.860033 182.814545 
L 207.825159 163.047273 
L 207.896415 143.28 
L 208.817079 103.745455 
L 209.072376 123.512727 
L 210.395354 143.28 
L 210.627097 163.047273 
L 211.429775 182.814545 
L 211.983062 202.581818 
L 215.009476 163.047273 
L 216.925089 143.28 
L 217.673166 123.512727 
L 218.354621 163.047273 
L 218.377859 182.814545 
L 218.488424 163.047273 
L 218.74698 182.814545 
L 219.108561 163.047273 
L 220.654001 143.28 
L 221.172099 163.047273 
L 221.378932 143.28 
L 221.742091 163.047273 
L 222.42388 182.814545 
L 222.658119 163.047273 
L 223.277687 182.814545 
L 224.226058 202.581818 
L 224.501596 182.814545 
L 226.154948 163.047273 
L 226.30092 182.814545 
L 227.052886 163.047273 
L 227.31431 143.28 
L 227.518167 163.047273 
L 227.967124 182.814545 
L 228.456681 163.047273 
L 229.553449 182.814545 
L 229.894363 202.581818 
L 230.602385 182.814545 
L 230.967823 202.581818 
L 231.641923 182.814545 
L 232.600204 163.047273 
L 232.753574 182.814545 
L 232.781598 202.581818 
L 235.768268 182.814545 
L 236.08553 163.047273 
L 237.612966 143.28 
L 237.644927 163.047273 
L 237.745743 143.28 
L 241.5845 163.047273 
L 243.150145 182.814545 
L 244.340887 163.047273 
L 244.919873 143.28 
L 245.28579 123.512727 
L 247.210563 103.745455 
L 247.214158 83.978182 
L 247.798457 103.745455 
L 249.849813 83.978182 
L 250.006575 64.210909 
L 250.088188 83.978182 
L 250.199423 64.210909 
L 253.280442 83.978182 
L 253.350969 64.210909 
L 254.281269 83.978182 
L 254.602898 103.745455 
L 258.793956 123.512727 
L 259.201529 103.745455 
L 259.330784 83.978182 
L 259.82009 64.210909 
L 260.33363 83.978182 
L 260.464184 103.745455 
L 260.957275 64.210909 
L 261.263067 83.978182 
L 262.078169 64.210909 
L 262.727541 44.443636 
L 263.403003 64.210909 
L 265.122841 83.978182 
L 265.30645 123.512727 
L 265.857656 103.745455 
L 266.48436 123.512727 
L 267.102673 103.745455 
L 268.373894 123.512727 
L 268.787632 143.28 
L 268.918379 163.047273 
L 271.34955 143.28 
L 273.131673 163.047273 
L 273.19045 143.28 
L 275.088689 123.512727 
L 275.405883 143.28 
L 277.290408 182.814545 
L 277.79697 202.581818 
L 278.519888 222.349091 
L 278.638353 202.581818 
L 278.993305 182.814545 
L 279.00692 163.047273 
L 279.505759 182.814545 
L 279.624786 163.047273 
L 281.555906 143.28 
L 281.688577 163.047273 
L 282.184891 143.28 
L 282.24899 123.512727 
L 282.521621 103.745455 
L 284.37437 123.512727 
L 284.640971 143.28 
L 286.171043 182.814545 
L 287.838553 202.581818 
L 288.634532 182.814545 
L 289.625078 163.047273 
L 289.692702 182.814545 
L 289.700426 163.047273 
L 290.30354 182.814545 
L 290.460066 222.349091 
L 290.828282 202.581818 
L 291.614552 182.814545 
L 291.94798 202.581818 
L 292.4306 182.814545 
L 292.828024 202.581818 
L 294.025537 222.349091 
L 296.076359 202.581818 
L 298.876251 182.814545 
L 299.517708 163.047273 
L 301.349812 143.28 
L 301.504771 163.047273 
L 302.196924 143.28 
L 302.599798 163.047273 
L 304.218635 143.28 
L 305.863774 182.814545 
L 308.060469 163.047273 
L 309.449388 182.814545 
L 310.269333 202.581818 
L 313.653638 182.814545 
L 313.757386 163.047273 
L 314.02694 182.814545 
L 315.234536 202.581818 
L 315.868501 182.814545 
L 315.880509 163.047273 
L 316.756971 182.814545 
L 316.829873 202.581818 
L 316.995494 182.814545 
L 317.405631 202.581818 
L 318.017161 182.814545 
L 319.749683 163.047273 
L 320.044968 182.814545 
L 320.449528 163.047273 
L 320.695971 182.814545 
L 320.910126 163.047273 
L 321.425382 182.814545 
L 321.769737 163.047273 
L 321.870264 143.28 
L 323.122467 163.047273 
L 324.904933 143.28 
L 326.062801 182.814545 
L 326.811205 202.581818 
L 327.313992 222.349091 
L 328.45931 202.581818 
L 328.652169 182.814545 
L 329.005944 163.047273 
L 329.136999 182.814545 
L 330.198199 202.581818 
L 333.508825 182.814545 
L 333.74989 163.047273 
L 334.249852 182.814545 
L 334.422051 202.581818 
L 334.473311 182.814545 
L 334.723289 163.047273 
L 336.881902 182.814545 
L 340.929566 163.047273 
L 341.419013 182.814545 
L 341.72284 163.047273 
L 344.923431 143.28 
L 345.193845 163.047273 
L 345.671809 182.814545 
L 345.965453 163.047273 
L 348.068502 123.512727 
L 348.379413 143.28 
L 349.06689 163.047273 
L 349.757776 143.28 
L 350.133893 123.512727 
L 350.767407 103.745455 
L 351.895935 123.512727 
L 351.934031 143.28 
L 352.778889 163.047273 
L 352.888918 182.814545 
L 355.772132 163.047273 
L 356.224436 143.28 
L 356.261453 163.047273 
L 357.127066 182.814545 
L 358.560219 163.047273 
L 360.48935 143.28 
L 361.224819 163.047273 
L 361.434025 182.814545 
L 361.8898 202.581818 
L 362.995914 182.814545 
L 363.265381 202.581818 
L 366.091139 182.814545 
L 366.213663 202.581818 
L 366.479625 182.814545 
L 366.50309 163.047273 
L 366.60601 182.814545 
L 367.114538 163.047273 
L 367.360009 143.28 
L 367.64827 163.047273 
L 368.986043 143.28 
L 370.057308 123.512727 
L 372.162931 143.28 
L 373.581818 123.512727 
L 373.581818 123.512727 
" clip-path="url(#pe62429bb14)" style="fill: none; stroke: #1f77b4; stroke-width: 1.5; stroke-linecap: square"/>
   </g>
   <g id="patch_3">
    <path d="M 54 252 
L 54 34.56 
" style="fill: none; stroke: #000000; stroke-width: 0.8; stroke-linejoin: miter; stroke-linecap: square"/>
   </g>
   <g id="patch_4">
    <path d="M 388.8 252 
L 388.8 34.56 
" style="fill: none; stroke: #000000; stroke-width: 0.8; stroke-linejoin: miter; stroke-linecap: square"/>
   </g>
   <g id="patch_5">
    <path d="M 54 252 
L 388.8 252 
" style="fill: none; stroke: #000000; stroke-width: 0.8; stroke-linejoin: miter; stroke-linecap: square"/>
   </g>
   <g id="patch_6">
    <path d="M 54 34.56 
L 388.8 34.56 
" style="fill: none; stroke: #000000; stroke-width: 0.8; stroke-linejoin: miter; stroke-linecap: square"/>
   </g>
  </g>
 </g>
 <defs>
  <clipPath id="pe62429bb14">
   <rect x="54" y="34.56" width="334.8" height="217.44"/>
  </clipPath>
 </defs>
</svg>
