<?xml version="1.0" encoding="utf-8" standalone="no"?>
<!DOCTYPE svg PUBLIC "-//W3C//DTD SVG 1.1//EN"
  "http://www.w3.org/Graphics/SVG/1.1/DTD/svg11.dtd">
<svg xmlns:xlink="http://www.w3.org/1999/xlink" width="432pt" height="288pt" viewBox="0 0 432 288" xmlns="http://www.w3.org/2000/svg" version="1.1">
 <metadata>
  <rdf:RDF xmlns:dc="http://purl.org/dc/elements/1.1/" xmlns:cc="http://creativecommons.org/ns#" xmlns:rdf="http://www.w3.org/1999/02/22-rdf-syntax-ns#">
   <cc:Work>
    <dc:type rdf:resource="http://purl.org/dc/dcmitype/StillImage"/>
    <dc:date>2021-12-17T13:47:50.515947</dc:date>
    <dc:format>image/svg+xml</dc:format>
    <dc:creator>
     <cc:Agent>
      <dc:title>Matplotlib v3.5.0, https://matplotlib.org/</dc:title>
     </cc:Agent>
    </dc:creator>
   </cc:Work>
  </rdf:RDF>
 </metadata>
 <defs>
  <style type="text/css">*{stroke-linejoin: round; stroke-linecap: butt}</style>
 </defs>
 <g id="figure_1">
  <g id="patch_1">
   <path d="M 0 288 
L 432 288 
L 432 0 
L 0 0 
L 0 288 
z
" style="fill: none"/>
  </g>
  <g id="axes_1">
   <g id="patch_2">
    <path d="M 54 252 
L 388.8 252 
L 388.8 34.56 
L 54 34.56 
z
" style="fill: #ffffff"/>
   </g>
   <g id="matplotlib.axis_1">
    <g id="xtick_1">
     <g id="line2d_1">
      <defs>
       <path id="mbb9c581235" d="M 0 0 
L 0 3.5 
" style="stroke: #000000; stroke-width: 0.8"/>
      </defs>
      <g>
       <use xlink:href="#mbb9c581235" x="69.218182" y="252" style="stroke: #000000; stroke-width: 0.8"/>
      </g>
     </g>
     <g id="text_1">
      <!-- 0 -->
      <g transform="translate(66.036932 266.598437)scale(0.1 -0.1)">
       <defs>
        <path id="DejaVuSans-30" d="M 2034 4250 
Q 1547 4250 1301 3770 
Q 1056 3291 1056 2328 
Q 1056 1369 1301 889 
Q 1547 409 2034 409 
Q 2525 409 2770 889 
Q 3016 1369 3016 2328 
Q 3016 3291 2770 3770 
Q 2525 4250 2034 4250 
z
M 2034 4750 
Q 2819 4750 3233 4129 
Q 3647 3509 3647 2328 
Q 3647 1150 3233 529 
Q 2819 -91 2034 -91 
Q 1250 -91 836 529 
Q 422 1150 422 2328 
Q 422 3509 836 4129 
Q 1250 4750 2034 4750 
z
" transform="scale(0.015625)"/>
       </defs>
       <use xlink:href="#DejaVuSans-30"/>
      </g>
     </g>
    </g>
    <g id="xtick_2">
     <g id="line2d_2">
      <g>
       <use xlink:href="#mbb9c581235" x="130.091158" y="252" style="stroke: #000000; stroke-width: 0.8"/>
      </g>
     </g>
     <g id="text_2">
      <!-- 100 -->
      <g transform="translate(120.547408 266.598437)scale(0.1 -0.1)">
       <defs>
        <path id="DejaVuSans-31" d="M 794 531 
L 1825 531 
L 1825 4091 
L 703 3866 
L 703 4441 
L 1819 4666 
L 2450 4666 
L 2450 531 
L 3481 531 
L 3481 0 
L 794 0 
L 794 531 
z
" transform="scale(0.015625)"/>
       </defs>
       <use xlink:href="#DejaVuSans-31"/>
       <use xlink:href="#DejaVuSans-30" x="63.623047"/>
       <use xlink:href="#DejaVuSans-30" x="127.246094"/>
      </g>
     </g>
    </g>
    <g id="xtick_3">
     <g id="line2d_3">
      <g>
       <use xlink:href="#mbb9c581235" x="190.964134" y="252" style="stroke: #000000; stroke-width: 0.8"/>
      </g>
     </g>
     <g id="text_3">
      <!-- 200 -->
      <g transform="translate(181.420384 266.598437)scale(0.1 -0.1)">
       <defs>
        <path id="DejaVuSans-32" d="M 1228 531 
L 3431 531 
L 3431 0 
L 469 0 
L 469 531 
Q 828 903 1448 1529 
Q 2069 2156 2228 2338 
Q 2531 2678 2651 2914 
Q 2772 3150 2772 3378 
Q 2772 3750 2511 3984 
Q 2250 4219 1831 4219 
Q 1534 4219 1204 4116 
Q 875 4013 500 3803 
L 500 4441 
Q 881 4594 1212 4672 
Q 1544 4750 1819 4750 
Q 2544 4750 2975 4387 
Q 3406 4025 3406 3419 
Q 3406 3131 3298 2873 
Q 3191 2616 2906 2266 
Q 2828 2175 2409 1742 
Q 1991 1309 1228 531 
z
" transform="scale(0.015625)"/>
       </defs>
       <use xlink:href="#DejaVuSans-32"/>
       <use xlink:href="#DejaVuSans-30" x="63.623047"/>
       <use xlink:href="#DejaVuSans-30" x="127.246094"/>
      </g>
     </g>
    </g>
    <g id="xtick_4">
     <g id="line2d_4">
      <g>
       <use xlink:href="#mbb9c581235" x="251.83711" y="252" style="stroke: #000000; stroke-width: 0.8"/>
      </g>
     </g>
     <g id="text_4">
      <!-- 300 -->
      <g transform="translate(242.29336 266.598437)scale(0.1 -0.1)">
       <defs>
        <path id="DejaVuSans-33" d="M 2597 2516 
Q 3050 2419 3304 2112 
Q 3559 1806 3559 1356 
Q 3559 666 3084 287 
Q 2609 -91 1734 -91 
Q 1441 -91 1130 -33 
Q 819 25 488 141 
L 488 750 
Q 750 597 1062 519 
Q 1375 441 1716 441 
Q 2309 441 2620 675 
Q 2931 909 2931 1356 
Q 2931 1769 2642 2001 
Q 2353 2234 1838 2234 
L 1294 2234 
L 1294 2753 
L 1863 2753 
Q 2328 2753 2575 2939 
Q 2822 3125 2822 3475 
Q 2822 3834 2567 4026 
Q 2313 4219 1838 4219 
Q 1578 4219 1281 4162 
Q 984 4106 628 3988 
L 628 4550 
Q 988 4650 1302 4700 
Q 1616 4750 1894 4750 
Q 2613 4750 3031 4423 
Q 3450 4097 3450 3541 
Q 3450 3153 3228 2886 
Q 3006 2619 2597 2516 
z
" transform="scale(0.015625)"/>
       </defs>
       <use xlink:href="#DejaVuSans-33"/>
       <use xlink:href="#DejaVuSans-30" x="63.623047"/>
       <use xlink:href="#DejaVuSans-30" x="127.246094"/>
      </g>
     </g>
    </g>
    <g id="xtick_5">
     <g id="line2d_5">
      <g>
       <use xlink:href="#mbb9c581235" x="312.710086" y="252" style="stroke: #000000; stroke-width: 0.8"/>
      </g>
     </g>
     <g id="text_5">
      <!-- 400 -->
      <g transform="translate(303.166336 266.598437)scale(0.1 -0.1)">
       <defs>
        <path id="DejaVuSans-34" d="M 2419 4116 
L 825 1625 
L 2419 1625 
L 2419 4116 
z
M 2253 4666 
L 3047 4666 
L 3047 1625 
L 3713 1625 
L 3713 1100 
L 3047 1100 
L 3047 0 
L 2419 0 
L 2419 1100 
L 313 1100 
L 313 1709 
L 2253 4666 
z
" transform="scale(0.015625)"/>
       </defs>
       <use xlink:href="#DejaVuSans-34"/>
       <use xlink:href="#DejaVuSans-30" x="63.623047"/>
       <use xlink:href="#DejaVuSans-30" x="127.246094"/>
      </g>
     </g>
    </g>
    <g id="xtick_6">
     <g id="line2d_6">
      <g>
       <use xlink:href="#mbb9c581235" x="373.583062" y="252" style="stroke: #000000; stroke-width: 0.8"/>
      </g>
     </g>
     <g id="text_6">
      <!-- 500 -->
      <g transform="translate(364.039312 266.598437)scale(0.1 -0.1)">
       <defs>
        <path id="DejaVuSans-35" d="M 691 4666 
L 3169 4666 
L 3169 4134 
L 1269 4134 
L 1269 2991 
Q 1406 3038 1543 3061 
Q 1681 3084 1819 3084 
Q 2600 3084 3056 2656 
Q 3513 2228 3513 1497 
Q 3513 744 3044 326 
Q 2575 -91 1722 -91 
Q 1428 -91 1123 -41 
Q 819 9 494 109 
L 494 744 
Q 775 591 1075 516 
Q 1375 441 1709 441 
Q 2250 441 2565 725 
Q 2881 1009 2881 1497 
Q 2881 1984 2565 2268 
Q 2250 2553 1709 2553 
Q 1456 2553 1204 2497 
Q 953 2441 691 2322 
L 691 4666 
z
" transform="scale(0.015625)"/>
       </defs>
       <use xlink:href="#DejaVuSans-35"/>
       <use xlink:href="#DejaVuSans-30" x="63.623047"/>
       <use xlink:href="#DejaVuSans-30" x="127.246094"/>
      </g>
     </g>
    </g>
   </g>
   <g id="matplotlib.axis_2">
    <g id="ytick_1">
     <g id="line2d_7">
      <defs>
       <path id="m18c04f7f39" d="M 0 0 
L -3.5 0 
" style="stroke: #000000; stroke-width: 0.8"/>
      </defs>
      <g>
       <use xlink:href="#m18c04f7f39" x="54" y="242.116364" style="stroke: #000000; stroke-width: 0.8"/>
      </g>
     </g>
     <g id="text_7">
      <!-- 0 -->
      <g transform="translate(40.6375 245.915582)scale(0.1 -0.1)">
       <use xlink:href="#DejaVuSans-30"/>
      </g>
     </g>
    </g>
    <g id="ytick_2">
     <g id="line2d_8">
      <g>
       <use xlink:href="#m18c04f7f39" x="54" y="204.102378" style="stroke: #000000; stroke-width: 0.8"/>
      </g>
     </g>
     <g id="text_8">
      <!-- 50 -->
      <g transform="translate(34.275 207.901596)scale(0.1 -0.1)">
       <use xlink:href="#DejaVuSans-35"/>
       <use xlink:href="#DejaVuSans-30" x="63.623047"/>
      </g>
     </g>
    </g>
    <g id="ytick_3">
     <g id="line2d_9">
      <g>
       <use xlink:href="#m18c04f7f39" x="54" y="166.088392" style="stroke: #000000; stroke-width: 0.8"/>
      </g>
     </g>
     <g id="text_9">
      <!-- 100 -->
      <g transform="translate(27.9125 169.88761)scale(0.1 -0.1)">
       <use xlink:href="#DejaVuSans-31"/>
       <use xlink:href="#DejaVuSans-30" x="63.623047"/>
       <use xlink:href="#DejaVuSans-30" x="127.246094"/>
      </g>
     </g>
    </g>
    <g id="ytick_4">
     <g id="line2d_10">
      <g>
       <use xlink:href="#m18c04f7f39" x="54" y="128.074406" style="stroke: #000000; stroke-width: 0.8"/>
      </g>
     </g>
     <g id="text_10">
      <!-- 150 -->
      <g transform="translate(27.9125 131.873624)scale(0.1 -0.1)">
       <use xlink:href="#DejaVuSans-31"/>
       <use xlink:href="#DejaVuSans-35" x="63.623047"/>
       <use xlink:href="#DejaVuSans-30" x="127.246094"/>
      </g>
     </g>
    </g>
    <g id="ytick_5">
     <g id="line2d_11">
      <g>
       <use xlink:href="#m18c04f7f39" x="54" y="90.06042" style="stroke: #000000; stroke-width: 0.8"/>
      </g>
     </g>
     <g id="text_11">
      <!-- 200 -->
      <g transform="translate(27.9125 93.859638)scale(0.1 -0.1)">
       <use xlink:href="#DejaVuSans-32"/>
       <use xlink:href="#DejaVuSans-30" x="63.623047"/>
       <use xlink:href="#DejaVuSans-30" x="127.246094"/>
      </g>
     </g>
    </g>
    <g id="ytick_6">
     <g id="line2d_12">
      <g>
       <use xlink:href="#m18c04f7f39" x="54" y="52.046434" style="stroke: #000000; stroke-width: 0.8"/>
      </g>
     </g>
     <g id="text_12">
      <!-- 250 -->
      <g transform="translate(27.9125 55.845652)scale(0.1 -0.1)">
       <use xlink:href="#DejaVuSans-32"/>
       <use xlink:href="#DejaVuSans-35" x="63.623047"/>
       <use xlink:href="#DejaVuSans-30" x="127.246094"/>
      </g>
     </g>
    </g>
   </g>
   <g id="line2d_13">
    <path d="M 69.218182 242.116364 
L 69.784485 241.356084 
L 71.558266 240.595804 
L 72.684261 239.835524 
L 77.629584 239.075245 
L 77.969981 238.314965 
L 80.458288 237.554685 
L 84.499964 236.794406 
L 85.987384 236.034126 
L 87.042647 235.273846 
L 88.962104 234.513566 
L 89.283854 232.993007 
L 90.740225 232.232727 
L 91.784697 231.472448 
L 92.033707 230.712168 
L 93.997686 229.951888 
L 95.598975 229.191608 
L 99.735501 228.431329 
L 100.966361 226.910769 
L 102.439597 226.15049 
L 102.894989 225.39021 
L 103.660809 224.62993 
L 112.73466 223.86965 
L 112.74554 223.109371 
L 112.944867 222.349091 
L 113.941302 220.828531 
L 114.909359 220.068252 
L 117.822909 219.307972 
L 118.396233 218.547692 
L 121.02083 217.027133 
L 123.446021 216.266853 
L 123.641594 215.506573 
L 124.275549 214.746294 
L 125.108292 213.986014 
L 125.582234 213.225734 
L 126.932237 212.465455 
L 126.976202 211.705175 
L 127.337667 210.944895 
L 129.586646 210.184615 
L 130.436452 209.424336 
L 132.427388 208.664056 
L 133.360709 207.903776 
L 133.959642 207.143497 
L 135.262299 206.383217 
L 135.428101 205.622937 
L 135.840087 204.862657 
L 135.954192 203.342098 
L 136.77834 202.581818 
L 136.978169 201.821538 
L 142.238126 201.061259 
L 143.694041 199.540699 
L 152.355971 197.25986 
L 153.136676 196.49958 
L 154.366761 195.739301 
L 154.573827 194.979021 
L 157.349153 194.218741 
L 158.380956 192.698182 
L 160.319362 191.937902 
L 163.687199 191.177622 
L 164.74804 190.417343 
L 165.192063 189.657063 
L 167.00491 188.136503 
L 168.199766 186.615944 
L 168.382726 185.855664 
L 168.914811 185.095385 
L 172.008452 183.574825 
L 172.959132 181.293986 
L 175.728827 180.533706 
L 175.79101 179.773427 
L 176.389502 179.013147 
L 177.543723 178.252867 
L 178.42751 177.492587 
L 181.660882 176.732308 
L 183.137576 175.211748 
L 186.327138 173.691189 
L 187.004967 172.930909 
L 187.171837 172.170629 
L 190.489546 171.41035 
L 190.647662 170.65007 
L 191.909185 169.88979 
L 192.798088 169.12951 
L 193.894791 167.608951 
L 195.746196 166.848671 
L 198.269789 165.328112 
L 198.634989 164.567832 
L 200.508457 163.807552 
L 200.875215 163.047273 
L 202.479754 162.286993 
L 207.747971 161.526713 
L 208.927601 160.766434 
L 209.638437 159.245874 
L 210.091542 158.485594 
L 211.120455 157.725315 
L 212.676289 156.965035 
L 212.958807 156.204755 
L 217.630918 155.444476 
L 218.827355 154.684196 
L 219.624451 153.923916 
L 221.701291 153.163636 
L 222.069881 151.643077 
L 223.200883 150.882797 
L 230.395663 149.362238 
L 232.054719 148.601958 
L 235.257731 147.841678 
L 237.413959 147.081399 
L 237.874215 146.321119 
L 239.635913 145.560839 
L 239.694156 144.800559 
L 241.807554 144.04028 
L 242.164113 143.28 
L 245.501567 142.51972 
L 246.289496 141.759441 
L 246.390993 140.999161 
L 247.070517 140.238881 
L 247.224555 139.478601 
L 247.688531 138.718322 
L 247.716517 137.958042 
L 249.327621 137.197762 
L 251.522673 136.437483 
L 252.812794 135.677203 
L 253.183073 134.916923 
L 255.316061 134.156643 
L 255.654319 133.396364 
L 256.847516 132.636084 
L 259.51177 131.875804 
L 259.559166 131.115524 
L 261.386717 130.355245 
L 261.733649 129.594965 
L 261.825998 128.834685 
L 265.944525 128.074406 
L 266.038398 126.553846 
L 267.311792 125.033287 
L 268.832342 124.273007 
L 269.238571 123.512727 
L 270.091156 122.752448 
L 271.297036 121.992168 
L 271.534045 121.231888 
L 273.757086 119.711329 
L 273.98281 118.951049 
L 274.889915 118.190769 
L 275.386915 117.43049 
L 276.026952 116.67021 
L 278.820762 115.90993 
L 279.338734 115.14965 
L 283.407539 114.389371 
L 283.981415 113.629091 
L 283.994249 112.868811 
L 289.795937 111.348252 
L 289.906476 110.587972 
L 290.986673 109.827692 
L 291.441393 108.307133 
L 293.610221 107.546853 
L 294.604974 106.786573 
L 296.0325 106.026294 
L 296.865785 105.266014 
L 298.594066 104.505734 
L 298.762729 103.745455 
L 299.957205 102.224895 
L 301.727025 101.464615 
L 305.526406 100.704336 
L 305.69614 99.183776 
L 305.968267 98.423497 
L 306.450052 97.663217 
L 306.774171 96.902937 
L 306.77967 96.142657 
L 306.930458 95.382378 
L 310.257201 94.622098 
L 312.938684 93.101538 
L 313.711161 92.341259 
L 314.208933 91.580979 
L 317.538221 90.820699 
L 319.529497 90.06042 
L 322.191215 89.30014 
L 323.220801 88.53986 
L 323.275 87.77958 
L 324.662766 86.259021 
L 327.300281 85.498741 
L 328.05924 84.738462 
L 329.542261 83.978182 
L 329.72077 83.217902 
L 330.539845 82.457622 
L 331.122127 81.697343 
L 331.140886 80.937063 
L 331.802691 80.176783 
L 333.578082 79.416503 
L 333.879838 78.656224 
L 334.385292 77.895944 
L 334.703478 76.375385 
L 340.752904 75.615105 
L 341.56144 74.854825 
L 343.001864 74.094545 
L 354.248118 73.334266 
L 356.206732 71.813706 
L 360.134682 71.053427 
L 365.015696 69.532867 
L 365.531373 68.772587 
L 365.740334 68.012308 
L 365.881308 66.491748 
L 366.600889 65.731469 
L 369.958243 64.210909 
L 370.541619 63.450629 
L 371.908394 62.69035 
L 373.581818 61.16979 
L 373.581818 61.16979 
" clip-path="url(#pc45ef8f570)" style="fill: none; stroke: #1f77b4; stroke-width: 1.5; stroke-linecap: square"/>
   </g>
   <g id="line2d_14">
    <path d="M 69.218182 242.116364 
L 70.634641 240.595804 
L 71.659029 239.835524 
L 74.000392 239.075245 
L 75.40286 238.314965 
L 76.192008 237.554685 
L 77.160645 236.794406 
L 78.503602 236.034126 
L 79.226958 235.273846 
L 79.367545 234.513566 
L 82.39357 232.232727 
L 84.118932 231.472448 
L 85.065913 230.712168 
L 87.371415 229.951888 
L 88.182726 229.191608 
L 88.521714 228.431329 
L 88.673388 227.671049 
L 90.600277 226.910769 
L 90.633221 226.15049 
L 91.860247 225.39021 
L 92.02128 224.62993 
L 92.309151 223.86965 
L 95.674369 223.109371 
L 97.047219 222.349091 
L 97.91222 221.588811 
L 98.93922 220.068252 
L 100.162077 219.307972 
L 100.163934 218.547692 
L 100.423955 217.787413 
L 102.959722 217.027133 
L 104.975496 216.266853 
L 105.267922 215.506573 
L 105.270796 214.746294 
L 107.37711 213.986014 
L 107.992334 213.225734 
L 110.39788 212.465455 
L 113.327445 211.705175 
L 114.870722 210.944895 
L 114.998183 210.184615 
L 117.235749 209.424336 
L 118.435538 208.664056 
L 118.626158 207.143497 
L 122.140727 205.622937 
L 125.739256 204.862657 
L 126.88491 204.102378 
L 128.959947 203.342098 
L 129.010448 202.581818 
L 129.223717 201.821538 
L 130.079831 201.061259 
L 131.118344 200.300979 
L 132.791412 199.540699 
L 133.592735 198.78042 
L 135.913135 198.02014 
L 136.571847 197.25986 
L 138.109468 196.49958 
L 139.079305 195.739301 
L 139.845802 194.979021 
L 143.761027 193.458462 
L 147.287385 192.698182 
L 148.900895 191.937902 
L 149.000477 191.177622 
L 149.542394 190.417343 
L 151.623391 189.657063 
L 151.793158 188.896783 
L 155.928606 188.136503 
L 156.347392 187.376224 
L 156.497614 185.855664 
L 157.471869 185.095385 
L 161.093319 184.335105 
L 162.267269 183.574825 
L 163.647575 182.814545 
L 164.556728 182.054266 
L 165.658384 181.293986 
L 165.875815 180.533706 
L 166.528195 179.773427 
L 167.450974 179.013147 
L 167.871813 178.252867 
L 168.079842 177.492587 
L 168.664638 176.732308 
L 169.443715 175.972028 
L 169.540757 174.451469 
L 170.317212 173.691189 
L 174.695286 171.41035 
L 175.296147 170.65007 
L 177.520179 169.12951 
L 179.795774 167.608951 
L 180.091137 166.848671 
L 180.145674 166.088392 
L 180.546288 164.567832 
L 181.935422 163.807552 
L 183.86354 163.047273 
L 184.376703 162.286993 
L 184.46812 161.526713 
L 186.679035 159.245874 
L 188.831592 158.485594 
L 189.766877 157.725315 
L 192.446825 156.204755 
L 192.858371 155.444476 
L 193.930363 154.684196 
L 195.745323 153.923916 
L 196.833864 153.163636 
L 198.372446 151.643077 
L 199.501169 150.882797 
L 200.012896 150.122517 
L 201.588155 149.362238 
L 201.666605 148.601958 
L 202.874974 147.081399 
L 203.462215 146.321119 
L 204.874983 145.560839 
L 205.753273 144.800559 
L 207.845433 144.04028 
L 208.043395 143.28 
L 211.844028 141.759441 
L 211.886487 140.999161 
L 213.276465 140.238881 
L 213.561861 139.478601 
L 214.048414 138.718322 
L 217.194288 137.958042 
L 218.21863 136.437483 
L 218.219863 135.677203 
L 218.404559 134.916923 
L 222.018318 134.156643 
L 223.957585 133.396364 
L 224.942136 132.636084 
L 229.194653 131.115524 
L 230.792865 130.355245 
L 231.519942 129.594965 
L 231.738729 128.834685 
L 234.86911 128.074406 
L 236.065317 127.314126 
L 236.11703 126.553846 
L 236.636694 125.793566 
L 239.842182 125.033287 
L 241.501769 124.273007 
L 243.544965 123.512727 
L 243.592891 122.752448 
L 244.665094 121.992168 
L 244.755599 121.231888 
L 246.028162 120.471608 
L 247.069106 118.951049 
L 249.475538 118.190769 
L 252.301468 117.43049 
L 253.135722 116.67021 
L 254.406891 115.90993 
L 254.447831 115.14965 
L 257.366702 114.389371 
L 257.697917 113.629091 
L 258.454652 112.868811 
L 258.461534 112.108531 
L 259.063135 111.348252 
L 270.070306 110.587972 
L 270.58622 109.827692 
L 271.797569 109.067413 
L 272.224943 108.307133 
L 273.620644 107.546853 
L 274.603438 106.786573 
L 276.137871 106.026294 
L 276.648316 105.266014 
L 279.609569 104.505734 
L 286.288663 103.745455 
L 288.426354 102.985175 
L 289.058487 102.224895 
L 290.932288 100.704336 
L 291.711395 99.944056 
L 291.986558 98.423497 
L 295.710145 97.663217 
L 296.164541 96.902937 
L 299.738584 96.142657 
L 300.427053 95.382378 
L 300.846355 94.622098 
L 301.565346 93.861818 
L 301.905133 93.101538 
L 302.504361 92.341259 
L 307.077689 91.580979 
L 307.34587 90.820699 
L 309.624357 90.06042 
L 310.788845 89.30014 
L 312.316406 88.53986 
L 312.770226 86.259021 
L 315.4942 85.498741 
L 315.90011 84.738462 
L 316.799739 83.978182 
L 317.233808 83.217902 
L 317.439006 82.457622 
L 317.484508 81.697343 
L 319.968728 80.937063 
L 321.535708 80.176783 
L 322.706288 79.416503 
L 325.571402 78.656224 
L 326.979519 77.895944 
L 330.724126 77.135664 
L 331.662136 76.375385 
L 332.117573 75.615105 
L 332.152009 74.854825 
L 334.577436 74.094545 
L 335.586845 73.334266 
L 340.641494 71.813706 
L 341.715748 71.053427 
L 345.692926 70.293147 
L 347.480025 69.532867 
L 347.901123 68.772587 
L 352.607155 68.012308 
L 354.107778 67.252028 
L 358.102845 65.731469 
L 358.641056 64.971189 
L 358.991946 64.210909 
L 361.609697 63.450629 
L 363.259034 62.69035 
L 364.086424 61.93007 
L 365.753402 61.16979 
L 368.097649 60.40951 
L 369.516793 59.649231 
L 369.943921 58.888951 
L 371.180524 58.128671 
L 371.435281 57.368392 
L 372.314666 56.608112 
L 372.314666 56.608112 
" clip-path="url(#pc45ef8f570)" style="fill: none; stroke: #ff7f0e; stroke-width: 1.5; stroke-linecap: square"/>
   </g>
   <g id="line2d_15">
    <path d="M 69.218182 242.116364 
L 70.168493 241.356084 
L 70.831688 240.595804 
L 73.190078 239.075245 
L 76.020041 238.314965 
L 76.387435 237.554685 
L 76.404651 236.794406 
L 77.953152 236.034126 
L 78.432034 235.273846 
L 82.605186 234.513566 
L 85.732731 233.753287 
L 86.817625 232.993007 
L 89.846916 232.232727 
L 90.777049 231.472448 
L 91.38125 230.712168 
L 91.453013 229.191608 
L 95.403665 228.431329 
L 95.62967 227.671049 
L 95.702479 226.910769 
L 97.975565 226.15049 
L 98.03251 225.39021 
L 98.847279 223.86965 
L 102.421361 223.109371 
L 103.252119 222.349091 
L 105.289566 221.588811 
L 106.204498 220.828531 
L 106.604409 220.068252 
L 106.732926 219.307972 
L 111.576451 217.787413 
L 114.413205 217.027133 
L 114.47342 216.266853 
L 115.374759 215.506573 
L 115.887387 214.746294 
L 116.681379 213.986014 
L 117.118931 213.225734 
L 119.855895 212.465455 
L 121.102153 210.944895 
L 123.942674 210.184615 
L 125.329621 209.424336 
L 126.169709 208.664056 
L 128.960996 207.903776 
L 128.979749 207.143497 
L 131.241312 206.383217 
L 134.11711 205.622937 
L 134.117404 204.862657 
L 134.719438 203.342098 
L 135.158563 202.581818 
L 137.180677 201.821538 
L 138.332588 201.061259 
L 143.985898 198.78042 
L 145.018495 198.02014 
L 146.858545 197.25986 
L 147.512613 196.49958 
L 148.924494 195.739301 
L 149.049579 194.218741 
L 149.570071 193.458462 
L 149.659101 192.698182 
L 150.221952 191.177622 
L 151.585652 190.417343 
L 152.647366 188.896783 
L 156.015633 188.136503 
L 156.678366 187.376224 
L 156.865224 186.615944 
L 158.947529 184.335105 
L 160.36635 183.574825 
L 160.553611 182.814545 
L 161.788345 182.054266 
L 162.7476 181.293986 
L 163.069542 180.533706 
L 168.105092 179.773427 
L 169.193736 179.013147 
L 169.269355 178.252867 
L 169.703914 177.492587 
L 172.375184 176.732308 
L 172.510865 175.972028 
L 174.167246 174.451469 
L 176.063438 173.691189 
L 176.546924 172.170629 
L 177.420674 171.41035 
L 177.9509 170.65007 
L 181.718741 169.88979 
L 183.71419 166.848671 
L 184.071986 166.088392 
L 185.589505 165.328112 
L 186.240186 164.567832 
L 186.337925 163.807552 
L 188.049423 163.047273 
L 189.255329 160.766434 
L 189.382115 160.006154 
L 190.989254 159.245874 
L 191.530509 158.485594 
L 192.169768 156.965035 
L 193.536781 156.204755 
L 195.432515 154.684196 
L 197.169801 153.923916 
L 198.00084 153.163636 
L 198.459573 152.403357 
L 199.939316 151.643077 
L 200.647822 150.882797 
L 201.18425 150.122517 
L 201.27054 148.601958 
L 201.58208 147.841678 
L 201.665917 147.081399 
L 206.023067 146.321119 
L 206.050119 145.560839 
L 208.049561 144.800559 
L 209.655944 144.04028 
L 212.46586 143.28 
L 213.388838 141.759441 
L 214.405172 140.999161 
L 215.797437 140.238881 
L 216.2862 139.478601 
L 219.820238 137.958042 
L 221.656002 137.197762 
L 221.888486 136.437483 
L 223.197825 135.677203 
L 224.738591 134.916923 
L 226.647424 134.156643 
L 227.192553 133.396364 
L 228.351896 132.636084 
L 229.740093 131.875804 
L 233.270023 131.115524 
L 235.077851 130.355245 
L 237.660675 129.594965 
L 242.71908 128.834685 
L 243.69863 128.074406 
L 244.947701 127.314126 
L 245.690124 126.553846 
L 246.678397 125.793566 
L 248.861082 125.033287 
L 250.373823 124.273007 
L 252.356389 123.512727 
L 252.523158 121.992168 
L 254.935301 121.231888 
L 255.376664 119.711329 
L 257.946852 118.951049 
L 258.127642 118.190769 
L 259.140838 117.43049 
L 259.164825 116.67021 
L 261.280474 115.90993 
L 261.773363 115.14965 
L 263.186664 113.629091 
L 270.733117 112.868811 
L 274.022217 111.348252 
L 274.559811 110.587972 
L 276.18067 109.827692 
L 277.028356 109.067413 
L 278.68619 108.307133 
L 284.662615 107.546853 
L 284.801947 106.786573 
L 286.874556 105.266014 
L 287.098476 104.505734 
L 289.404627 103.745455 
L 292.633224 102.985175 
L 292.814912 102.224895 
L 294.923058 101.464615 
L 295.921313 100.704336 
L 296.231031 99.944056 
L 297.296199 98.423497 
L 298.947441 97.663217 
L 299.791936 96.902937 
L 300.333778 96.142657 
L 302.785454 95.382378 
L 303.957349 94.622098 
L 305.359577 93.861818 
L 306.402412 93.101538 
L 306.953678 92.341259 
L 307.224381 91.580979 
L 307.226203 90.820699 
L 309.988072 90.06042 
L 312.124611 89.30014 
L 313.438115 88.53986 
L 314.014682 87.77958 
L 314.362442 87.019301 
L 314.369777 86.259021 
L 315.684855 84.738462 
L 318.914517 83.978182 
L 319.174149 83.217902 
L 323.128028 82.457622 
L 323.702966 80.937063 
L 325.426507 80.176783 
L 326.465732 78.656224 
L 332.987722 76.375385 
L 335.518199 74.094545 
L 337.263992 73.334266 
L 338.214479 72.573986 
L 338.241504 71.813706 
L 338.731946 71.053427 
L 339.889152 70.293147 
L 339.974451 69.532867 
L 341.003378 68.772587 
L 342.857313 68.012308 
L 347.247175 67.252028 
L 347.290687 66.491748 
L 348.442416 65.731469 
L 349.094354 64.971189 
L 349.663066 63.450629 
L 350.362372 62.69035 
L 350.401144 61.93007 
L 352.598451 61.16979 
L 352.658892 60.40951 
L 354.963809 59.649231 
L 355.782381 58.888951 
L 356.371659 58.128671 
L 356.390299 57.368392 
L 358.09717 56.608112 
L 360.440628 55.847832 
L 360.664547 55.087552 
L 361.097718 54.327273 
L 363.027155 53.566993 
L 363.31798 52.806713 
L 363.33225 52.046434 
L 365.454496 51.286154 
L 368.170049 50.525874 
L 368.344668 49.765594 
L 369.846222 48.245035 
L 370.368813 47.484755 
L 371.216389 46.724476 
L 371.513251 45.964196 
L 373.240229 44.443636 
L 373.240229 44.443636 
" clip-path="url(#pc45ef8f570)" style="fill: none; stroke: #2ca02c; stroke-width: 1.5; stroke-linecap: square"/>
   </g>
   <g id="line2d_16">
    <path d="M 69.218182 242.116364 
L 73.303082 241.356084 
L 74.896384 240.595804 
L 79.035003 239.835524 
L 79.898372 239.075245 
L 81.391083 238.314965 
L 81.982735 237.554685 
L 83.284238 236.794406 
L 86.065502 236.034126 
L 86.794591 235.273846 
L 93.597867 234.513566 
L 93.868555 233.753287 
L 94.409147 232.993007 
L 96.627573 232.232727 
L 97.404251 231.472448 
L 97.756007 230.712168 
L 98.75718 229.951888 
L 99.298998 229.191608 
L 101.502724 227.671049 
L 102.220321 226.910769 
L 103.935086 226.15049 
L 104.041196 225.39021 
L 109.311782 224.62993 
L 110.306751 223.86965 
L 113.700692 223.109371 
L 113.751917 222.349091 
L 118.637121 221.588811 
L 118.723546 220.068252 
L 120.425672 217.787413 
L 120.966197 217.027133 
L 121.046535 216.266853 
L 122.520484 215.506573 
L 122.720257 214.746294 
L 127.680074 213.986014 
L 129.221762 213.225734 
L 133.435258 212.465455 
L 134.510065 211.705175 
L 137.996595 210.944895 
L 138.132049 210.184615 
L 138.650284 209.424336 
L 140.981568 207.903776 
L 143.489427 207.143497 
L 143.584789 206.383217 
L 146.89932 205.622937 
L 147.026525 204.862657 
L 150.39707 203.342098 
L 153.787524 202.581818 
L 153.919292 201.821538 
L 154.977904 201.061259 
L 158.52416 200.300979 
L 158.918988 199.540699 
L 159.913478 198.78042 
L 161.690324 198.02014 
L 162.897239 197.25986 
L 163.297329 196.49958 
L 163.865468 194.218741 
L 164.479761 193.458462 
L 167.394869 192.698182 
L 170.949024 191.177622 
L 171.008063 189.657063 
L 180.824849 188.896783 
L 189.818842 187.376224 
L 191.467881 186.615944 
L 192.783469 185.855664 
L 193.764098 185.095385 
L 193.860931 184.335105 
L 195.624229 183.574825 
L 196.155193 182.814545 
L 196.294354 182.054266 
L 200.579368 180.533706 
L 201.934981 179.773427 
L 202.232059 179.013147 
L 204.964842 175.972028 
L 207.971148 174.451469 
L 208.32541 173.691189 
L 208.484757 172.170629 
L 208.906423 171.41035 
L 209.105443 170.65007 
L 210.724558 169.88979 
L 211.095173 169.12951 
L 213.919397 167.608951 
L 218.130566 166.848671 
L 223.462687 166.088392 
L 224.402456 165.328112 
L 224.658983 164.567832 
L 226.516792 163.807552 
L 229.649466 163.047273 
L 230.040096 162.286993 
L 230.138867 161.526713 
L 230.862686 160.766434 
L 232.864376 160.006154 
L 233.218985 159.245874 
L 235.818589 158.485594 
L 235.84854 157.725315 
L 236.630066 156.965035 
L 236.683728 156.204755 
L 238.953962 155.444476 
L 239.58443 154.684196 
L 241.342702 153.923916 
L 241.447925 153.163636 
L 242.446873 152.403357 
L 242.652202 151.643077 
L 245.457484 150.882797 
L 245.951729 150.122517 
L 248.043453 149.362238 
L 248.067056 148.601958 
L 250.710183 147.841678 
L 250.74813 147.081399 
L 252.72228 146.321119 
L 255.10252 145.560839 
L 255.295925 144.800559 
L 256.54015 144.04028 
L 257.343127 143.28 
L 257.745736 142.51972 
L 260.292186 141.759441 
L 261.655259 140.999161 
L 262.583172 140.238881 
L 263.844927 139.478601 
L 264.410914 138.718322 
L 265.194351 137.958042 
L 269.245505 137.197762 
L 272.544541 136.437483 
L 272.717108 135.677203 
L 273.33577 134.916923 
L 275.167017 134.156643 
L 279.173909 133.396364 
L 280.046232 132.636084 
L 281.446594 131.875804 
L 282.332889 131.115524 
L 282.612068 130.355245 
L 287.484358 129.594965 
L 290.052162 128.834685 
L 290.547983 128.074406 
L 295.157618 126.553846 
L 297.686388 125.793566 
L 298.485141 125.033287 
L 299.026896 124.273007 
L 301.221245 121.992168 
L 301.734549 121.231888 
L 302.576737 120.471608 
L 304.441968 118.951049 
L 304.75603 118.190769 
L 308.930764 117.43049 
L 309.627601 116.67021 
L 310.009612 115.90993 
L 311.386141 115.14965 
L 311.774087 114.389371 
L 313.083388 113.629091 
L 313.822131 112.868811 
L 314.145977 112.108531 
L 315.662592 110.587972 
L 316.776457 109.827692 
L 316.888012 109.067413 
L 318.249489 108.307133 
L 319.019217 107.546853 
L 320.90224 106.786573 
L 322.420167 106.026294 
L 322.712365 105.266014 
L 323.700362 104.505734 
L 326.111096 103.745455 
L 326.81461 102.985175 
L 328.510395 102.224895 
L 331.662735 99.944056 
L 333.32649 99.183776 
L 333.723824 98.423497 
L 334.313815 97.663217 
L 334.686802 96.902937 
L 334.766412 96.142657 
L 335.234933 95.382378 
L 336.564249 94.622098 
L 336.603581 93.861818 
L 336.990059 93.101538 
L 338.968379 92.341259 
L 339.626647 91.580979 
L 341.530486 90.820699 
L 348.124341 90.06042 
L 348.999569 89.30014 
L 355.958617 88.53986 
L 356.407372 87.77958 
L 357.314939 87.019301 
L 357.388142 86.259021 
L 358.891721 85.498741 
L 359.549397 84.738462 
L 359.888888 83.978182 
L 360.888323 83.217902 
L 363.350885 82.457622 
L 367.318336 81.697343 
L 367.875112 80.937063 
L 368.72326 80.176783 
L 368.994331 79.416503 
L 369.60998 78.656224 
L 372.583921 77.895944 
L 372.583921 77.895944 
" clip-path="url(#pc45ef8f570)" style="fill: none; stroke: #d62728; stroke-width: 1.5; stroke-linecap: square"/>
   </g>
   <g id="patch_3">
    <path d="M 54 252 
L 54 34.56 
" style="fill: none; stroke: #000000; stroke-width: 0.8; stroke-linejoin: miter; stroke-linecap: square"/>
   </g>
   <g id="patch_4">
    <path d="M 388.8 252 
L 388.8 34.56 
" style="fill: none; stroke: #000000; stroke-width: 0.8; stroke-linejoin: miter; stroke-linecap: square"/>
   </g>
   <g id="patch_5">
    <path d="M 54 252 
L 388.8 252 
" style="fill: none; stroke: #000000; stroke-width: 0.8; stroke-linejoin: miter; stroke-linecap: square"/>
   </g>
   <g id="patch_6">
    <path d="M 54 34.56 
L 388.8 34.56 
" style="fill: none; stroke: #000000; stroke-width: 0.8; stroke-linejoin: miter; stroke-linecap: square"/>
   </g>
   <g id="legend_1">
    <g id="patch_7">
     <path d="M 61 101.2725 
L 135.335938 101.2725 
Q 137.335938 101.2725 137.335938 99.2725 
L 137.335938 41.56 
Q 137.335938 39.56 135.335938 39.56 
L 61 39.56 
Q 59 39.56 59 41.56 
L 59 99.2725 
Q 59 101.2725 61 101.2725 
z
" style="fill: #ffffff; opacity: 0.8; stroke: #cccccc; stroke-linejoin: miter"/>
    </g>
    <g id="line2d_17">
     <path d="M 63 47.658437 
L 73 47.658437 
L 83 47.658437 
" style="fill: none; stroke: #1f77b4; stroke-width: 1.5; stroke-linecap: square"/>
    </g>
    <g id="text_13">
     <!-- Server 1 -->
     <g transform="translate(91 51.158437)scale(0.1 -0.1)">
      <defs>
       <path id="DejaVuSans-53" d="M 3425 4513 
L 3425 3897 
Q 3066 4069 2747 4153 
Q 2428 4238 2131 4238 
Q 1616 4238 1336 4038 
Q 1056 3838 1056 3469 
Q 1056 3159 1242 3001 
Q 1428 2844 1947 2747 
L 2328 2669 
Q 3034 2534 3370 2195 
Q 3706 1856 3706 1288 
Q 3706 609 3251 259 
Q 2797 -91 1919 -91 
Q 1588 -91 1214 -16 
Q 841 59 441 206 
L 441 856 
Q 825 641 1194 531 
Q 1563 422 1919 422 
Q 2459 422 2753 634 
Q 3047 847 3047 1241 
Q 3047 1584 2836 1778 
Q 2625 1972 2144 2069 
L 1759 2144 
Q 1053 2284 737 2584 
Q 422 2884 422 3419 
Q 422 4038 858 4394 
Q 1294 4750 2059 4750 
Q 2388 4750 2728 4690 
Q 3069 4631 3425 4513 
z
" transform="scale(0.015625)"/>
       <path id="DejaVuSans-65" d="M 3597 1894 
L 3597 1613 
L 953 1613 
Q 991 1019 1311 708 
Q 1631 397 2203 397 
Q 2534 397 2845 478 
Q 3156 559 3463 722 
L 3463 178 
Q 3153 47 2828 -22 
Q 2503 -91 2169 -91 
Q 1331 -91 842 396 
Q 353 884 353 1716 
Q 353 2575 817 3079 
Q 1281 3584 2069 3584 
Q 2775 3584 3186 3129 
Q 3597 2675 3597 1894 
z
M 3022 2063 
Q 3016 2534 2758 2815 
Q 2500 3097 2075 3097 
Q 1594 3097 1305 2825 
Q 1016 2553 972 2059 
L 3022 2063 
z
" transform="scale(0.015625)"/>
       <path id="DejaVuSans-72" d="M 2631 2963 
Q 2534 3019 2420 3045 
Q 2306 3072 2169 3072 
Q 1681 3072 1420 2755 
Q 1159 2438 1159 1844 
L 1159 0 
L 581 0 
L 581 3500 
L 1159 3500 
L 1159 2956 
Q 1341 3275 1631 3429 
Q 1922 3584 2338 3584 
Q 2397 3584 2469 3576 
Q 2541 3569 2628 3553 
L 2631 2963 
z
" transform="scale(0.015625)"/>
       <path id="DejaVuSans-76" d="M 191 3500 
L 800 3500 
L 1894 563 
L 2988 3500 
L 3597 3500 
L 2284 0 
L 1503 0 
L 191 3500 
z
" transform="scale(0.015625)"/>
       <path id="DejaVuSans-20" transform="scale(0.015625)"/>
      </defs>
      <use xlink:href="#DejaVuSans-53"/>
      <use xlink:href="#DejaVuSans-65" x="63.476562"/>
      <use xlink:href="#DejaVuSans-72" x="125"/>
      <use xlink:href="#DejaVuSans-76" x="166.113281"/>
      <use xlink:href="#DejaVuSans-65" x="225.292969"/>
      <use xlink:href="#DejaVuSans-72" x="286.816406"/>
      <use xlink:href="#DejaVuSans-20" x="327.929688"/>
      <use xlink:href="#DejaVuSans-31" x="359.716797"/>
     </g>
    </g>
    <g id="line2d_18">
     <path d="M 63 62.336562 
L 73 62.336562 
L 83 62.336562 
" style="fill: none; stroke: #ff7f0e; stroke-width: 1.5; stroke-linecap: square"/>
    </g>
    <g id="text_14">
     <!-- Server 2 -->
     <g transform="translate(91 65.836562)scale(0.1 -0.1)">
      <use xlink:href="#DejaVuSans-53"/>
      <use xlink:href="#DejaVuSans-65" x="63.476562"/>
      <use xlink:href="#DejaVuSans-72" x="125"/>
      <use xlink:href="#DejaVuSans-76" x="166.113281"/>
      <use xlink:href="#DejaVuSans-65" x="225.292969"/>
      <use xlink:href="#DejaVuSans-72" x="286.816406"/>
      <use xlink:href="#DejaVuSans-20" x="327.929688"/>
      <use xlink:href="#DejaVuSans-32" x="359.716797"/>
     </g>
    </g>
    <g id="line2d_19">
     <path d="M 63 77.014687 
L 73 77.014687 
L 83 77.014687 
" style="fill: none; stroke: #2ca02c; stroke-width: 1.5; stroke-linecap: square"/>
    </g>
    <g id="text_15">
     <!-- Server 3 -->
     <g transform="translate(91 80.514687)scale(0.1 -0.1)">
      <use xlink:href="#DejaVuSans-53"/>
      <use xlink:href="#DejaVuSans-65" x="63.476562"/>
      <use xlink:href="#DejaVuSans-72" x="125"/>
      <use xlink:href="#DejaVuSans-76" x="166.113281"/>
      <use xlink:href="#DejaVuSans-65" x="225.292969"/>
      <use xlink:href="#DejaVuSans-72" x="286.816406"/>
      <use xlink:href="#DejaVuSans-20" x="327.929688"/>
      <use xlink:href="#DejaVuSans-33" x="359.716797"/>
     </g>
    </g>
    <g id="line2d_20">
     <path d="M 63 91.692813 
L 73 91.692813 
L 83 91.692813 
" style="fill: none; stroke: #d62728; stroke-width: 1.5; stroke-linecap: square"/>
    </g>
    <g id="text_16">
     <!-- Server 4 -->
     <g transform="translate(91 95.192813)scale(0.1 -0.1)">
      <use xlink:href="#DejaVuSans-53"/>
      <use xlink:href="#DejaVuSans-65" x="63.476562"/>
      <use xlink:href="#DejaVuSans-72" x="125"/>
      <use xlink:href="#DejaVuSans-76" x="166.113281"/>
      <use xlink:href="#DejaVuSans-65" x="225.292969"/>
      <use xlink:href="#DejaVuSans-72" x="286.816406"/>
      <use xlink:href="#DejaVuSans-20" x="327.929688"/>
      <use xlink:href="#DejaVuSans-34" x="359.716797"/>
     </g>
    </g>
   </g>
  </g>
 </g>
 <defs>
  <clipPath id="pc45ef8f570">
   <rect x="54" y="34.56" width="334.8" height="217.44"/>
  </clipPath>
 </defs>
</svg>
