<?xml version="1.0" encoding="utf-8" standalone="no"?>
<!DOCTYPE svg PUBLIC "-//W3C//DTD SVG 1.1//EN"
  "http://www.w3.org/Graphics/SVG/1.1/DTD/svg11.dtd">
<svg xmlns:xlink="http://www.w3.org/1999/xlink" width="432pt" height="288pt" viewBox="0 0 432 288" xmlns="http://www.w3.org/2000/svg" version="1.1">
 <metadata>
  <rdf:RDF xmlns:dc="http://purl.org/dc/elements/1.1/" xmlns:cc="http://creativecommons.org/ns#" xmlns:rdf="http://www.w3.org/1999/02/22-rdf-syntax-ns#">
   <cc:Work>
    <dc:type rdf:resource="http://purl.org/dc/dcmitype/StillImage"/>
    <dc:date>2021-12-17T13:47:50.708981</dc:date>
    <dc:format>image/svg+xml</dc:format>
    <dc:creator>
     <cc:Agent>
      <dc:title>Matplotlib v3.5.0, https://matplotlib.org/</dc:title>
     </cc:Agent>
    </dc:creator>
   </cc:Work>
  </rdf:RDF>
 </metadata>
 <defs>
  <style type="text/css">*{stroke-linejoin: round; stroke-linecap: butt}</style>
 </defs>
 <g id="figure_1">
  <g id="patch_1">
   <path d="M 0 288 
L 432 288 
L 432 0 
L 0 0 
L 0 288 
z
" style="fill: none"/>
  </g>
  <g id="axes_1">
   <g id="patch_2">
    <path d="M 54 252 
L 388.8 252 
L 388.8 34.56 
L 54 34.56 
z
" style="fill: #ffffff"/>
   </g>
   <g id="matplotlib.axis_1">
    <g id="xtick_1">
     <g id="line2d_1">
      <defs>
       <path id="ma9ad5bdc70" d="M 0 0 
L 0 3.5 
" style="stroke: #000000; stroke-width: 0.8"/>
      </defs>
      <g>
       <use xlink:href="#ma9ad5bdc70" x="69.218182" y="252" style="stroke: #000000; stroke-width: 0.8"/>
      </g>
     </g>
     <g id="text_1">
      <!-- 0 -->
      <g transform="translate(66.036932 266.598437)scale(0.1 -0.1)">
       <defs>
        <path id="DejaVuSans-30" d="M 2034 4250 
Q 1547 4250 1301 3770 
Q 1056 3291 1056 2328 
Q 1056 1369 1301 889 
Q 1547 409 2034 409 
Q 2525 409 2770 889 
Q 3016 1369 3016 2328 
Q 3016 3291 2770 3770 
Q 2525 4250 2034 4250 
z
M 2034 4750 
Q 2819 4750 3233 4129 
Q 3647 3509 3647 2328 
Q 3647 1150 3233 529 
Q 2819 -91 2034 -91 
Q 1250 -91 836 529 
Q 422 1150 422 2328 
Q 422 3509 836 4129 
Q 1250 4750 2034 4750 
z
" transform="scale(0.015625)"/>
       </defs>
       <use xlink:href="#DejaVuSans-30"/>
      </g>
     </g>
    </g>
    <g id="xtick_2">
     <g id="line2d_2">
      <g>
       <use xlink:href="#ma9ad5bdc70" x="130.146275" y="252" style="stroke: #000000; stroke-width: 0.8"/>
      </g>
     </g>
     <g id="text_2">
      <!-- 100 -->
      <g transform="translate(120.602525 266.598437)scale(0.1 -0.1)">
       <defs>
        <path id="DejaVuSans-31" d="M 794 531 
L 1825 531 
L 1825 4091 
L 703 3866 
L 703 4441 
L 1819 4666 
L 2450 4666 
L 2450 531 
L 3481 531 
L 3481 0 
L 794 0 
L 794 531 
z
" transform="scale(0.015625)"/>
       </defs>
       <use xlink:href="#DejaVuSans-31"/>
       <use xlink:href="#DejaVuSans-30" x="63.623047"/>
       <use xlink:href="#DejaVuSans-30" x="127.246094"/>
      </g>
     </g>
    </g>
    <g id="xtick_3">
     <g id="line2d_3">
      <g>
       <use xlink:href="#ma9ad5bdc70" x="191.074368" y="252" style="stroke: #000000; stroke-width: 0.8"/>
      </g>
     </g>
     <g id="text_3">
      <!-- 200 -->
      <g transform="translate(181.530618 266.598437)scale(0.1 -0.1)">
       <defs>
        <path id="DejaVuSans-32" d="M 1228 531 
L 3431 531 
L 3431 0 
L 469 0 
L 469 531 
Q 828 903 1448 1529 
Q 2069 2156 2228 2338 
Q 2531 2678 2651 2914 
Q 2772 3150 2772 3378 
Q 2772 3750 2511 3984 
Q 2250 4219 1831 4219 
Q 1534 4219 1204 4116 
Q 875 4013 500 3803 
L 500 4441 
Q 881 4594 1212 4672 
Q 1544 4750 1819 4750 
Q 2544 4750 2975 4387 
Q 3406 4025 3406 3419 
Q 3406 3131 3298 2873 
Q 3191 2616 2906 2266 
Q 2828 2175 2409 1742 
Q 1991 1309 1228 531 
z
" transform="scale(0.015625)"/>
       </defs>
       <use xlink:href="#DejaVuSans-32"/>
       <use xlink:href="#DejaVuSans-30" x="63.623047"/>
       <use xlink:href="#DejaVuSans-30" x="127.246094"/>
      </g>
     </g>
    </g>
    <g id="xtick_4">
     <g id="line2d_4">
      <g>
       <use xlink:href="#ma9ad5bdc70" x="252.002461" y="252" style="stroke: #000000; stroke-width: 0.8"/>
      </g>
     </g>
     <g id="text_4">
      <!-- 300 -->
      <g transform="translate(242.458711 266.598437)scale(0.1 -0.1)">
       <defs>
        <path id="DejaVuSans-33" d="M 2597 2516 
Q 3050 2419 3304 2112 
Q 3559 1806 3559 1356 
Q 3559 666 3084 287 
Q 2609 -91 1734 -91 
Q 1441 -91 1130 -33 
Q 819 25 488 141 
L 488 750 
Q 750 597 1062 519 
Q 1375 441 1716 441 
Q 2309 441 2620 675 
Q 2931 909 2931 1356 
Q 2931 1769 2642 2001 
Q 2353 2234 1838 2234 
L 1294 2234 
L 1294 2753 
L 1863 2753 
Q 2328 2753 2575 2939 
Q 2822 3125 2822 3475 
Q 2822 3834 2567 4026 
Q 2313 4219 1838 4219 
Q 1578 4219 1281 4162 
Q 984 4106 628 3988 
L 628 4550 
Q 988 4650 1302 4700 
Q 1616 4750 1894 4750 
Q 2613 4750 3031 4423 
Q 3450 4097 3450 3541 
Q 3450 3153 3228 2886 
Q 3006 2619 2597 2516 
z
" transform="scale(0.015625)"/>
       </defs>
       <use xlink:href="#DejaVuSans-33"/>
       <use xlink:href="#DejaVuSans-30" x="63.623047"/>
       <use xlink:href="#DejaVuSans-30" x="127.246094"/>
      </g>
     </g>
    </g>
    <g id="xtick_5">
     <g id="line2d_5">
      <g>
       <use xlink:href="#ma9ad5bdc70" x="312.930554" y="252" style="stroke: #000000; stroke-width: 0.8"/>
      </g>
     </g>
     <g id="text_5">
      <!-- 400 -->
      <g transform="translate(303.386804 266.598437)scale(0.1 -0.1)">
       <defs>
        <path id="DejaVuSans-34" d="M 2419 4116 
L 825 1625 
L 2419 1625 
L 2419 4116 
z
M 2253 4666 
L 3047 4666 
L 3047 1625 
L 3713 1625 
L 3713 1100 
L 3047 1100 
L 3047 0 
L 2419 0 
L 2419 1100 
L 313 1100 
L 313 1709 
L 2253 4666 
z
" transform="scale(0.015625)"/>
       </defs>
       <use xlink:href="#DejaVuSans-34"/>
       <use xlink:href="#DejaVuSans-30" x="63.623047"/>
       <use xlink:href="#DejaVuSans-30" x="127.246094"/>
      </g>
     </g>
    </g>
    <g id="xtick_6">
     <g id="line2d_6">
      <g>
       <use xlink:href="#ma9ad5bdc70" x="373.858647" y="252" style="stroke: #000000; stroke-width: 0.8"/>
      </g>
     </g>
     <g id="text_6">
      <!-- 500 -->
      <g transform="translate(364.314897 266.598437)scale(0.1 -0.1)">
       <defs>
        <path id="DejaVuSans-35" d="M 691 4666 
L 3169 4666 
L 3169 4134 
L 1269 4134 
L 1269 2991 
Q 1406 3038 1543 3061 
Q 1681 3084 1819 3084 
Q 2600 3084 3056 2656 
Q 3513 2228 3513 1497 
Q 3513 744 3044 326 
Q 2575 -91 1722 -91 
Q 1428 -91 1123 -41 
Q 819 9 494 109 
L 494 744 
Q 775 591 1075 516 
Q 1375 441 1709 441 
Q 2250 441 2565 725 
Q 2881 1009 2881 1497 
Q 2881 1984 2565 2268 
Q 2250 2553 1709 2553 
Q 1456 2553 1204 2497 
Q 953 2441 691 2322 
L 691 4666 
z
" transform="scale(0.015625)"/>
       </defs>
       <use xlink:href="#DejaVuSans-35"/>
       <use xlink:href="#DejaVuSans-30" x="63.623047"/>
       <use xlink:href="#DejaVuSans-30" x="127.246094"/>
      </g>
     </g>
    </g>
   </g>
   <g id="matplotlib.axis_2">
    <g id="ytick_1">
     <g id="line2d_7">
      <defs>
       <path id="m4e5589f002" d="M 0 0 
L -3.5 0 
" style="stroke: #000000; stroke-width: 0.8"/>
      </defs>
      <g>
       <use xlink:href="#m4e5589f002" x="54" y="242.116364" style="stroke: #000000; stroke-width: 0.8"/>
      </g>
     </g>
     <g id="text_7">
      <!-- 0 -->
      <g transform="translate(40.6375 245.915582)scale(0.1 -0.1)">
       <use xlink:href="#DejaVuSans-30"/>
      </g>
     </g>
    </g>
    <g id="ytick_2">
     <g id="line2d_8">
      <g>
       <use xlink:href="#m4e5589f002" x="54" y="195.274485" style="stroke: #000000; stroke-width: 0.8"/>
      </g>
     </g>
     <g id="text_8">
      <!-- 100 -->
      <g transform="translate(27.9125 199.073704)scale(0.1 -0.1)">
       <use xlink:href="#DejaVuSans-31"/>
       <use xlink:href="#DejaVuSans-30" x="63.623047"/>
       <use xlink:href="#DejaVuSans-30" x="127.246094"/>
      </g>
     </g>
    </g>
    <g id="ytick_3">
     <g id="line2d_9">
      <g>
       <use xlink:href="#m4e5589f002" x="54" y="148.432607" style="stroke: #000000; stroke-width: 0.8"/>
      </g>
     </g>
     <g id="text_9">
      <!-- 200 -->
      <g transform="translate(27.9125 152.231825)scale(0.1 -0.1)">
       <use xlink:href="#DejaVuSans-32"/>
       <use xlink:href="#DejaVuSans-30" x="63.623047"/>
       <use xlink:href="#DejaVuSans-30" x="127.246094"/>
      </g>
     </g>
    </g>
    <g id="ytick_4">
     <g id="line2d_10">
      <g>
       <use xlink:href="#m4e5589f002" x="54" y="101.590728" style="stroke: #000000; stroke-width: 0.8"/>
      </g>
     </g>
     <g id="text_10">
      <!-- 300 -->
      <g transform="translate(27.9125 105.389947)scale(0.1 -0.1)">
       <use xlink:href="#DejaVuSans-33"/>
       <use xlink:href="#DejaVuSans-30" x="63.623047"/>
       <use xlink:href="#DejaVuSans-30" x="127.246094"/>
      </g>
     </g>
    </g>
    <g id="ytick_5">
     <g id="line2d_11">
      <g>
       <use xlink:href="#m4e5589f002" x="54" y="54.74885" style="stroke: #000000; stroke-width: 0.8"/>
      </g>
     </g>
     <g id="text_11">
      <!-- 400 -->
      <g transform="translate(27.9125 58.548068)scale(0.1 -0.1)">
       <use xlink:href="#DejaVuSans-34"/>
       <use xlink:href="#DejaVuSans-30" x="63.623047"/>
       <use xlink:href="#DejaVuSans-30" x="127.246094"/>
      </g>
     </g>
    </g>
   </g>
   <g id="line2d_12">
    <path d="M 69.218182 242.116364 
L 69.784998 241.647945 
L 71.560385 241.179526 
L 72.6874 240.711107 
L 82.165394 239.77427 
L 84.761633 239.305851 
L 92.008343 238.369013 
L 92.540077 237.900595 
L 96.344792 237.432176 
L 97.679288 236.495338 
L 98.861807 236.026919 
L 100.406038 235.558501 
L 101.231188 235.090082 
L 103.270479 234.621663 
L 104.56903 234.153244 
L 111.011545 233.216407 
L 111.066063 232.747988 
L 116.355623 232.279569 
L 117.714606 231.81115 
L 123.220269 231.342732 
L 126.218182 230.874313 
L 127.182846 230.405894 
L 131.062909 229.469056 
L 131.819213 229.000638 
L 133.148568 228.532219 
L 133.688272 228.0638 
L 133.905644 227.595381 
L 136.473684 227.126963 
L 137.5916 226.658544 
L 147.867327 225.253287 
L 148.785516 224.784869 
L 149.392485 224.31645 
L 152.476141 222.911193 
L 156.406631 222.442775 
L 158.404374 221.974356 
L 161.514196 220.100681 
L 163.913553 219.163843 
L 166.712672 218.695424 
L 167.579153 218.227006 
L 167.942933 217.758587 
L 169.084047 216.821749 
L 172.945099 216.35333 
L 175.520755 215.884912 
L 179.577218 214.479655 
L 183.81506 214.011237 
L 184.594608 213.542818 
L 187.412363 213.074399 
L 189.426755 212.137561 
L 190.659147 211.200724 
L 191.491615 210.263886 
L 193.142147 209.795467 
L 195.356505 209.327049 
L 198.341423 208.390211 
L 200.638561 207.921792 
L 201.225855 207.453374 
L 201.563081 206.984955 
L 201.750054 206.516536 
L 204.566977 206.048117 
L 205.614151 205.579698 
L 206.330311 204.642861 
L 207.511009 204.174442 
L 208.100876 203.706023 
L 209.254428 203.237604 
L 213.429053 202.300767 
L 217.791746 201.832348 
L 219.591129 201.363929 
L 219.637345 200.895511 
L 221.475667 199.958673 
L 223.624452 199.490254 
L 226.733167 198.553417 
L 229.305546 198.084998 
L 230.174414 197.616579 
L 231.667684 197.14816 
L 231.848802 196.679741 
L 234.280683 196.211323 
L 241.167263 195.274485 
L 241.413888 194.806066 
L 243.404078 194.337648 
L 243.672372 193.869229 
L 246.395823 192.932391 
L 246.565858 192.463972 
L 247.569823 191.995554 
L 249.026764 190.590297 
L 250.69493 189.65346 
L 252.741289 189.185041 
L 253.233965 188.716622 
L 255.674571 188.248203 
L 256.3177 187.779785 
L 259.347605 186.842947 
L 259.601133 186.374528 
L 260.412566 185.906109 
L 260.563103 185.437691 
L 263.317387 184.969272 
L 263.846778 184.500853 
L 264.797256 184.032434 
L 265.234207 183.564016 
L 266.832646 183.095597 
L 271.651049 182.158759 
L 271.817547 181.69034 
L 274.37688 181.221922 
L 278.011306 180.753503 
L 279.941895 180.285084 
L 281.301531 179.348246 
L 282.165331 178.879828 
L 287.81672 178.411409 
L 292.667827 177.474571 
L 292.938121 177.006153 
L 294.909823 176.069315 
L 295.707253 175.132477 
L 302.674695 173.727221 
L 305.467213 173.258802 
L 310.175881 172.790383 
L 311.083809 172.321965 
L 313.455185 171.853546 
L 313.745763 171.385127 
L 317.278278 170.916708 
L 318.418689 170.44829 
L 318.928345 169.979871 
L 322.876566 169.043033 
L 333.243343 167.169358 
L 333.397602 166.700939 
L 334.207162 166.23252 
L 336.622547 165.764102 
L 338.029554 165.295683 
L 344.62938 164.827264 
L 346.884714 164.358845 
L 347.884055 163.422008 
L 349.123709 162.953589 
L 350.431328 162.016751 
L 351.654166 161.548333 
L 354.943807 161.079914 
L 355.683787 160.611495 
L 356.684126 160.143076 
L 358.982353 159.674657 
L 360.656925 159.206239 
L 361.425193 158.73782 
L 362.764584 158.269401 
L 363.435682 157.800982 
L 364.342304 157.332564 
L 364.633689 156.864145 
L 367.226969 156.395726 
L 368.393059 155.927307 
L 372.247242 155.458888 
L 372.77318 154.99047 
L 373.581818 154.522051 
L 373.581818 154.522051 
" clip-path="url(#p10d3a8011f)" style="fill: none; stroke: #1f77b4; stroke-width: 1.5; stroke-linecap: square"/>
   </g>
   <g id="line2d_13">
    <path d="M 69.218182 242.116364 
L 69.951244 241.647945 
L 71.9547 241.179526 
L 74.004722 240.711107 
L 81.183484 240.242688 
L 83.643933 239.77427 
L 99.333743 239.305851 
L 99.769081 238.837432 
L 104.820823 238.369013 
L 108.689861 237.900595 
L 116.37637 237.432176 
L 117.023898 236.963757 
L 120.802044 236.495338 
L 124.987802 236.026919 
L 126.922983 235.558501 
L 131.331854 235.090082 
L 142.948957 234.621663 
L 144.062331 234.153244 
L 144.877943 233.684826 
L 145.644662 233.216407 
L 165.705718 232.747988 
L 170.47587 232.279569 
L 173.311559 231.81115 
L 181.494437 231.342732 
L 183.040274 230.874313 
L 186.222194 230.405894 
L 194.612252 229.937475 
L 199.271867 229.469056 
L 202.499937 229.000638 
L 205.62092 228.532219 
L 215.629896 228.0638 
L 218.256892 227.595381 
L 225.944977 227.126963 
L 230.687384 226.658544 
L 239.472742 226.190125 
L 248.913168 225.721706 
L 249.421634 225.253287 
L 252.120662 224.784869 
L 257.204624 224.31645 
L 263.858638 223.848031 
L 274.505975 223.379612 
L 281.173804 222.911193 
L 295.410686 222.442775 
L 296.359624 221.974356 
L 296.963045 221.505937 
L 302.873748 221.037518 
L 305.721426 220.5691 
L 311.704288 220.100681 
L 312.588923 219.632262 
L 320.59265 219.163843 
L 327.815093 218.695424 
L 328.633289 218.227006 
L 330.07311 217.758587 
L 331.842533 217.290168 
L 333.709158 216.821749 
L 336.787263 216.35333 
L 346.968736 215.884912 
L 350.538486 215.416493 
L 352.637042 214.948074 
L 353.064146 214.479655 
L 357.606092 214.011237 
L 361.897059 213.542818 
L 369.99216 213.074399 
L 371.420204 212.60598 
L 371.705164 212.137561 
" clip-path="url(#p10d3a8011f)" style="fill: none; stroke: #ff7f0e; stroke-width: 1.5; stroke-linecap: square"/>
   </g>
   <g id="line2d_14">
    <path d="M 69.218182 242.116364 
L 70.169353 241.647945 
L 70.635924 241.179526 
L 70.833149 240.711107 
L 71.661239 240.242688 
L 73.193674 239.77427 
L 74.199366 239.305851 
L 74.372848 238.837432 
L 75.116772 238.369013 
L 76.291701 237.900595 
L 77.438726 236.963757 
L 77.558555 236.495338 
L 78.201383 236.026919 
L 78.44297 235.558501 
L 80.376171 234.621663 
L 80.922347 234.153244 
L 81.536476 233.216407 
L 82.947988 232.747988 
L 83.880893 232.279569 
L 84.253085 231.81115 
L 86.359535 230.874313 
L 88.72463 230.405894 
L 89.316675 229.469056 
L 89.997481 229.000638 
L 90.045689 228.532219 
L 91.019786 227.126963 
L 92.048638 226.658544 
L 92.547098 226.190125 
L 93.000475 225.253287 
L 93.032884 224.784869 
L 94.605206 224.31645 
L 96.595312 223.379612 
L 97.021784 222.911193 
L 97.373297 221.974356 
L 98.267626 221.505937 
L 98.391636 221.037518 
L 99.00312 220.100681 
L 99.513305 219.632262 
L 100.19816 219.163843 
L 101.294632 218.695424 
L 103.565148 218.227006 
L 104.722976 217.758587 
L 105.299675 217.290168 
L 106.289734 216.821749 
L 106.643514 216.35333 
L 108.268592 215.884912 
L 109.724213 214.948074 
L 110.206624 214.479655 
L 110.330179 214.011237 
L 111.170198 213.542818 
L 111.851118 212.137561 
L 112.171536 211.200724 
L 113.460481 210.263886 
L 116.798532 209.327049 
L 117.574657 208.390211 
L 117.806712 207.921792 
L 119.316332 206.984955 
L 119.557157 206.516536 
L 121.560439 206.048117 
L 121.770651 205.579698 
L 122.395131 204.642861 
L 122.521815 204.174442 
L 123.884472 203.706023 
L 124.270243 203.237604 
L 124.910116 202.769186 
L 124.992495 202.300767 
L 129.820224 201.363929 
L 130.053766 200.895511 
L 130.58596 200.427092 
L 131.819286 199.958673 
L 132.034654 199.490254 
L 132.927753 199.021835 
L 133.087498 198.553417 
L 134.290397 197.616579 
L 134.63143 197.14816 
L 135.033888 195.742904 
L 135.529309 195.274485 
L 135.67662 194.806066 
L 136.514128 193.869229 
L 136.863663 193.40081 
L 138.219132 192.932391 
L 140.089121 191.058716 
L 140.563918 190.590297 
L 141.663064 190.121879 
L 143.118055 189.185041 
L 146.035238 188.248203 
L 146.066537 187.779785 
L 147.185236 187.311366 
L 149.428805 185.906109 
L 151.633311 185.437691 
L 152.78394 184.969272 
L 154.293428 184.500853 
L 154.55832 184.032434 
L 156.453388 182.627178 
L 156.941332 181.69034 
L 157.847514 181.221922 
L 158.007544 180.753503 
L 158.473876 180.285084 
L 158.667796 179.816665 
L 160.040437 179.348246 
L 160.794014 178.411409 
L 161.754227 177.94299 
L 162.472854 177.006153 
L 163.926163 176.537734 
L 164.153657 176.069315 
L 165.579185 175.132477 
L 165.79297 174.664059 
L 168.21534 173.727221 
L 168.746426 173.258802 
L 168.94372 172.790383 
L 169.500162 172.321965 
L 170.488681 171.853546 
L 173.389873 171.385127 
L 173.90451 170.916708 
L 174.085139 170.44829 
L 176.970233 169.043033 
L 177.424041 168.574614 
L 177.711503 168.106196 
L 178.185276 167.637777 
L 180.386293 167.169358 
L 181.965094 166.700939 
L 183.941414 166.23252 
L 184.713412 165.764102 
L 184.918686 165.295683 
L 185.727529 164.358845 
L 185.741397 163.890427 
L 187.450658 163.422008 
L 187.482325 162.953589 
L 187.924069 162.48517 
L 188.596577 162.016751 
L 189.600599 161.548333 
L 190.193006 160.611495 
L 191.163305 160.143076 
L 191.712233 159.674657 
L 192.567677 159.206239 
L 193.238935 158.269401 
L 194.636482 157.800982 
L 195.099753 157.332564 
L 195.945641 156.864145 
L 196.380561 156.395726 
L 198.226636 155.458888 
L 198.432805 154.99047 
L 198.803076 154.522051 
L 199.685359 154.053632 
L 200.874801 153.585213 
L 201.582712 153.116794 
L 202.672985 152.648376 
L 203.257376 151.711538 
L 203.94717 151.243119 
L 204.968613 150.774701 
L 205.090638 150.306282 
L 205.67726 149.837863 
L 206.516625 149.369444 
L 206.797268 148.901025 
L 207.698641 147.964188 
L 207.856661 147.495769 
L 209.51189 147.02735 
L 210.873965 145.153675 
L 211.677437 144.685256 
L 212.259968 143.748419 
L 213.500467 143.28 
L 214.409396 142.811581 
L 214.797285 142.343162 
L 216.049059 141.874744 
L 216.565355 141.406325 
L 217.492366 140.937906 
L 221.935023 140.001069 
L 222.354051 139.53265 
L 222.406225 139.064231 
L 222.608844 138.595812 
L 223.52227 137.658975 
L 226.191337 137.190556 
L 227.737601 136.722137 
L 228.647312 136.253718 
L 229.310364 135.785299 
L 230.478052 135.316881 
L 230.872443 134.848462 
L 232.030736 134.380043 
L 232.531612 133.911624 
L 235.446577 132.506368 
L 235.7459 132.037949 
L 235.846068 131.56953 
L 236.763232 130.632693 
L 237.24963 129.695855 
L 238.091827 129.227436 
L 239.570744 128.759018 
L 239.957921 128.290599 
L 239.998733 127.82218 
L 240.198469 127.353761 
L 240.638435 126.885343 
L 242.650744 125.948505 
L 244.640472 125.480086 
L 244.790029 125.011667 
L 245.88511 124.07483 
L 247.685922 123.137992 
L 249.043106 122.669573 
L 251.03482 121.732736 
L 251.530911 121.264317 
L 251.925914 119.859061 
L 252.757469 119.390642 
L 253.891 118.453804 
L 254.91867 117.985386 
L 255.363233 116.580129 
L 257.885052 116.11171 
L 258.068674 115.174873 
L 258.710416 114.706454 
L 263.894791 114.238035 
L 264.842436 113.301198 
L 265.074624 112.832779 
L 266.264771 112.36436 
L 266.439258 111.895941 
L 267.097922 111.427523 
L 269.127868 110.959104 
L 269.61658 110.022266 
L 270.630285 109.553847 
L 271.969686 108.61701 
L 272.757021 108.148591 
L 274.948617 107.680172 
L 275.375148 107.211754 
L 276.336118 106.743335 
L 277.639268 104.401241 
L 279.980312 102.527566 
L 282.580165 101.590728 
L 283.227338 101.122309 
L 284.722797 100.653891 
L 285.476872 99.717053 
L 286.331069 99.248634 
L 288.016345 98.780215 
L 288.19993 98.311797 
L 288.744558 97.843378 
L 289.611676 97.374959 
L 290.789548 96.90654 
L 291.45019 95.969703 
L 291.859947 95.501284 
L 293.15345 95.032865 
L 293.352629 94.564446 
L 294.213642 94.096028 
L 294.408595 93.627609 
L 295.083759 93.15919 
L 297.391944 92.222352 
L 297.749149 91.753934 
L 298.564708 91.285515 
L 298.781389 90.817096 
L 298.999082 89.880259 
L 299.145282 89.41184 
L 300.297246 88.943421 
L 300.495674 88.475002 
L 300.832306 88.006583 
L 303.053659 87.538165 
L 304.089388 87.069746 
L 306.06441 86.601327 
L 306.618435 86.132908 
L 306.734647 85.664489 
L 308.076222 85.196071 
L 308.679537 84.727652 
L 308.76064 84.259233 
L 309.593079 83.790814 
L 309.854936 82.853977 
L 311.428253 81.917139 
L 312.685997 81.44872 
L 313.939057 80.043464 
L 314.354076 79.106626 
L 314.879836 78.638208 
L 315.033555 78.169789 
L 315.841024 77.232951 
L 315.942593 76.764533 
L 317.306192 76.296114 
L 317.528399 75.827695 
L 319.120951 74.890857 
L 319.926618 74.422439 
L 321.2583 73.95402 
L 321.724622 73.485601 
L 323.123789 73.017182 
L 323.315743 72.548763 
L 323.996229 72.080345 
L 325.647675 71.611926 
L 326.011898 71.143507 
L 327.054431 70.20667 
L 330.32052 69.269832 
L 330.539486 68.801413 
L 330.59021 68.332994 
L 331.313043 67.396157 
L 331.870922 66.927738 
L 332.82182 65.522482 
L 334.333166 65.054063 
L 334.999061 64.585644 
L 336.808607 64.117225 
L 337.301456 63.648807 
L 337.525196 63.180388 
L 339.385181 62.24355 
L 342.001941 61.775131 
L 342.538576 61.306713 
L 343.979086 60.838294 
L 344.892551 60.369875 
L 345.143377 59.433037 
L 347.979634 58.964619 
L 349.300866 58.027781 
L 350.036533 57.559362 
L 350.15079 57.090944 
L 351.041119 56.622525 
L 353.104672 56.154106 
L 353.399289 55.217268 
L 356.47485 53.812012 
L 357.812851 53.343593 
L 358.019885 52.875174 
L 359.326697 52.406756 
L 359.48044 51.938337 
L 360.159943 51.469918 
L 360.24462 51.001499 
L 360.476867 50.533081 
L 361.115372 50.064662 
L 361.564513 49.596243 
L 363.777685 48.659405 
L 364.416587 48.190987 
L 364.85563 47.722568 
L 365.846889 47.254149 
L 366.159848 46.78573 
L 367.248675 46.317312 
L 367.76302 45.848893 
L 368.45538 45.380474 
L 369.483373 44.912055 
L 372.984223 44.443636 
L 372.984223 44.443636 
" clip-path="url(#p10d3a8011f)" style="fill: none; stroke: #2ca02c; stroke-width: 1.5; stroke-linecap: square"/>
   </g>
   <g id="line2d_15">
    <path d="M 69.218182 242.116364 
L 73.30678 241.647945 
L 75.314238 241.179526 
L 75.721396 240.711107 
L 75.904226 240.242688 
L 77.623151 239.305851 
L 78.226932 238.837432 
L 78.851664 237.900595 
L 80.646023 237.432176 
L 81.733663 236.963757 
L 86.541973 236.495338 
L 89.401499 236.026919 
L 89.66854 235.558501 
L 89.750644 235.090082 
L 90.094349 234.621663 
L 90.583424 234.153244 
L 90.867671 233.684826 
L 91.008493 233.216407 
L 92.579703 232.747988 
L 92.655719 232.279569 
L 93.501302 231.342732 
L 94.265015 230.874313 
L 94.623425 230.405894 
L 95.192211 229.937475 
L 95.4646 229.000638 
L 95.790934 228.0638 
L 97.105441 227.595381 
L 98.062356 227.126963 
L 98.43908 226.190125 
L 101.600075 224.784869 
L 101.993976 224.31645 
L 102.873202 223.848031 
L 102.873681 223.379612 
L 103.225051 222.911193 
L 103.299018 221.974356 
L 105.3433 221.505937 
L 105.663801 221.037518 
L 106.295446 220.5691 
L 109.866155 220.100681 
L 110.02295 219.632262 
L 110.716348 219.163843 
L 111.62558 218.695424 
L 113.588754 218.227006 
L 113.955122 217.758587 
L 114.068054 217.290168 
L 114.524628 216.821749 
L 116.800933 216.35333 
L 117.97861 215.884912 
L 118.068779 215.416493 
L 118.788578 214.948074 
L 119.018045 214.479655 
L 119.026781 214.011237 
L 119.627079 213.542818 
L 119.765459 212.60598 
L 119.996826 212.137561 
L 123.23127 211.669143 
L 123.321718 211.200724 
L 125.114767 210.263886 
L 125.163854 209.795467 
L 132.055331 209.327049 
L 135.28663 207.921792 
L 135.881939 207.453374 
L 136.810531 206.984955 
L 140.57783 206.516536 
L 141.921447 206.048117 
L 141.970863 205.579698 
L 142.837979 205.11128 
L 146.057454 204.174442 
L 146.147855 203.706023 
L 148.795316 203.237604 
L 155.749842 202.769186 
L 155.834586 202.300767 
L 156.12012 201.832348 
L 156.162847 200.895511 
L 159.401684 200.427092 
L 160.2126 199.958673 
L 160.396641 199.490254 
L 160.958455 199.021835 
L 161.068277 198.553417 
L 164.30737 197.616579 
L 164.396071 197.14816 
L 165.847377 196.211323 
L 166.175073 195.274485 
L 166.405977 194.806066 
L 167.277241 194.337648 
L 169.060421 193.869229 
L 169.274829 193.40081 
L 169.280084 192.932391 
L 169.655231 191.995554 
L 170.139042 191.527135 
L 173.49332 191.058716 
L 173.762935 190.121879 
L 174.311389 189.65346 
L 176.097419 189.185041 
L 177.051454 188.716622 
L 177.114431 188.248203 
L 178.317953 187.779785 
L 178.622394 187.311366 
L 180.651266 186.842947 
L 181.022255 186.374528 
L 181.170564 185.437691 
L 184.833213 184.969272 
L 184.847033 184.500853 
L 184.982049 184.032434 
L 186.23701 182.627178 
L 187.645143 182.158759 
L 188.156167 181.69034 
L 188.164321 181.221922 
L 189.703013 180.753503 
L 189.878643 180.285084 
L 191.751797 179.816665 
L 192.19734 178.879828 
L 193.006013 177.94299 
L 193.436745 177.006153 
L 193.479108 176.537734 
L 195.429652 176.069315 
L 196.078502 175.600896 
L 196.78001 174.664059 
L 196.782593 174.19564 
L 199.290451 173.727221 
L 200.207578 172.790383 
L 200.425386 172.321965 
L 200.924747 171.853546 
L 201.23987 171.385127 
L 201.824391 170.916708 
L 202.080877 169.979871 
L 203.158882 169.511452 
L 203.948119 169.043033 
L 206.052783 168.574614 
L 207.305104 168.106196 
L 207.852338 167.637777 
L 208.017462 166.700939 
L 213.622215 166.23252 
L 214.930095 165.764102 
L 221.998337 165.295683 
L 222.166327 164.827264 
L 226.255527 164.358845 
L 227.155553 163.890427 
L 227.485214 163.422008 
L 228.808897 162.953589 
L 230.774697 162.48517 
L 234.67624 162.016751 
L 235.128606 161.548333 
L 235.722296 160.143076 
L 236.770727 159.674657 
L 237.251002 159.206239 
L 237.293992 158.73782 
L 238.206995 158.269401 
L 241.846544 157.332564 
L 242.025593 156.864145 
L 242.366434 156.395726 
L 242.48686 155.458888 
L 244.201542 154.053632 
L 244.519971 153.585213 
L 246.967671 153.116794 
L 251.540406 152.648376 
L 252.06412 151.711538 
L 253.326619 151.243119 
L 254.815583 150.306282 
L 264.499312 149.837863 
L 264.673923 149.369444 
L 266.516922 148.901025 
L 272.350167 147.964188 
L 272.719575 147.02735 
L 277.177007 146.558931 
L 277.663403 145.622094 
L 278.307621 145.153675 
L 278.386552 144.685256 
L 283.356948 144.216838 
L 283.960198 143.748419 
L 285.10553 143.28 
L 285.698646 142.811581 
L 286.657209 141.406325 
L 287.137541 140.937906 
L 288.289151 140.469487 
L 288.995803 140.001069 
L 289.352407 139.53265 
L 291.456708 139.064231 
L 291.606402 138.595812 
L 294.274477 138.127393 
L 295.457012 137.190556 
L 298.12693 136.722137 
L 298.147772 136.253718 
L 298.518172 135.785299 
L 299.114385 135.316881 
L 299.725708 134.380043 
L 301.004579 133.443206 
L 301.160644 132.974787 
L 303.138682 132.506368 
L 304.12488 132.037949 
L 304.274823 131.56953 
L 306.267561 131.101112 
L 306.813234 130.632693 
L 308.088796 130.164274 
L 308.23726 129.227436 
L 308.693147 128.759018 
L 308.791111 128.290599 
L 309.289365 127.353761 
L 310.617504 126.416924 
L 312.981418 125.948505 
L 314.229521 125.011667 
L 314.634647 124.07483 
L 315.644671 123.606411 
L 316.221311 123.137992 
L 319.282449 122.669573 
L 319.433478 122.201155 
L 320.878475 121.732736 
L 321.982251 120.795898 
L 322.159639 120.32748 
L 323.137351 119.859061 
L 323.393 119.390642 
L 324.165093 118.922223 
L 325.701957 118.453804 
L 325.867482 117.985386 
L 327.207046 117.048548 
L 327.444002 116.580129 
L 327.896245 116.11171 
L 328.679221 115.643292 
L 329.04487 114.706454 
L 329.757261 114.238035 
L 329.833236 113.769617 
L 330.11078 113.301198 
L 333.200378 111.895941 
L 333.639915 111.427523 
L 333.768164 110.490685 
L 334.386797 110.022266 
L 334.525733 109.553847 
L 337.032649 109.085429 
L 337.655177 108.61701 
L 338.545114 108.148591 
L 338.961755 107.680172 
L 339.057284 107.211754 
L 342.637309 106.743335 
L 343.989974 105.338078 
L 344.182103 104.86966 
L 344.967151 104.401241 
L 348.309369 103.932822 
L 348.551172 103.464403 
L 350.355618 102.995984 
L 351.124119 102.527566 
L 353.417606 102.059147 
L 354.004001 101.590728 
L 354.167525 100.653891 
L 354.420338 100.185472 
L 356.332426 99.717053 
L 356.509298 99.248634 
L 357.541863 98.311797 
L 357.923676 97.843378 
L 357.963613 96.90654 
L 360.258758 95.969703 
L 361.159373 95.501284 
L 361.376493 95.032865 
L 361.776742 94.564446 
L 362.501294 93.15919 
L 362.572546 92.690771 
L 363.0734 92.222352 
L 365.313593 91.753934 
L 365.974265 91.285515 
L 366.176167 90.817096 
L 367.281862 90.348677 
L 373.117676 89.880259 
L 373.117676 89.880259 
" clip-path="url(#p10d3a8011f)" style="fill: none; stroke: #d62728; stroke-width: 1.5; stroke-linecap: square"/>
   </g>
   <g id="patch_3">
    <path d="M 54 252 
L 54 34.56 
" style="fill: none; stroke: #000000; stroke-width: 0.8; stroke-linejoin: miter; stroke-linecap: square"/>
   </g>
   <g id="patch_4">
    <path d="M 388.8 252 
L 388.8 34.56 
" style="fill: none; stroke: #000000; stroke-width: 0.8; stroke-linejoin: miter; stroke-linecap: square"/>
   </g>
   <g id="patch_5">
    <path d="M 54 252 
L 388.8 252 
" style="fill: none; stroke: #000000; stroke-width: 0.8; stroke-linejoin: miter; stroke-linecap: square"/>
   </g>
   <g id="patch_6">
    <path d="M 54 34.56 
L 388.8 34.56 
" style="fill: none; stroke: #000000; stroke-width: 0.8; stroke-linejoin: miter; stroke-linecap: square"/>
   </g>
   <g id="legend_1">
    <g id="patch_7">
     <path d="M 61 101.2725 
L 135.335938 101.2725 
Q 137.335938 101.2725 137.335938 99.2725 
L 137.335938 41.56 
Q 137.335938 39.56 135.335938 39.56 
L 61 39.56 
Q 59 39.56 59 41.56 
L 59 99.2725 
Q 59 101.2725 61 101.2725 
z
" style="fill: #ffffff; opacity: 0.8; stroke: #cccccc; stroke-linejoin: miter"/>
    </g>
    <g id="line2d_16">
     <path d="M 63 47.658437 
L 73 47.658437 
L 83 47.658437 
" style="fill: none; stroke: #1f77b4; stroke-width: 1.5; stroke-linecap: square"/>
    </g>
    <g id="text_12">
     <!-- Server 1 -->
     <g transform="translate(91 51.158437)scale(0.1 -0.1)">
      <defs>
       <path id="DejaVuSans-53" d="M 3425 4513 
L 3425 3897 
Q 3066 4069 2747 4153 
Q 2428 4238 2131 4238 
Q 1616 4238 1336 4038 
Q 1056 3838 1056 3469 
Q 1056 3159 1242 3001 
Q 1428 2844 1947 2747 
L 2328 2669 
Q 3034 2534 3370 2195 
Q 3706 1856 3706 1288 
Q 3706 609 3251 259 
Q 2797 -91 1919 -91 
Q 1588 -91 1214 -16 
Q 841 59 441 206 
L 441 856 
Q 825 641 1194 531 
Q 1563 422 1919 422 
Q 2459 422 2753 634 
Q 3047 847 3047 1241 
Q 3047 1584 2836 1778 
Q 2625 1972 2144 2069 
L 1759 2144 
Q 1053 2284 737 2584 
Q 422 2884 422 3419 
Q 422 4038 858 4394 
Q 1294 4750 2059 4750 
Q 2388 4750 2728 4690 
Q 3069 4631 3425 4513 
z
" transform="scale(0.015625)"/>
       <path id="DejaVuSans-65" d="M 3597 1894 
L 3597 1613 
L 953 1613 
Q 991 1019 1311 708 
Q 1631 397 2203 397 
Q 2534 397 2845 478 
Q 3156 559 3463 722 
L 3463 178 
Q 3153 47 2828 -22 
Q 2503 -91 2169 -91 
Q 1331 -91 842 396 
Q 353 884 353 1716 
Q 353 2575 817 3079 
Q 1281 3584 2069 3584 
Q 2775 3584 3186 3129 
Q 3597 2675 3597 1894 
z
M 3022 2063 
Q 3016 2534 2758 2815 
Q 2500 3097 2075 3097 
Q 1594 3097 1305 2825 
Q 1016 2553 972 2059 
L 3022 2063 
z
" transform="scale(0.015625)"/>
       <path id="DejaVuSans-72" d="M 2631 2963 
Q 2534 3019 2420 3045 
Q 2306 3072 2169 3072 
Q 1681 3072 1420 2755 
Q 1159 2438 1159 1844 
L 1159 0 
L 581 0 
L 581 3500 
L 1159 3500 
L 1159 2956 
Q 1341 3275 1631 3429 
Q 1922 3584 2338 3584 
Q 2397 3584 2469 3576 
Q 2541 3569 2628 3553 
L 2631 2963 
z
" transform="scale(0.015625)"/>
       <path id="DejaVuSans-76" d="M 191 3500 
L 800 3500 
L 1894 563 
L 2988 3500 
L 3597 3500 
L 2284 0 
L 1503 0 
L 191 3500 
z
" transform="scale(0.015625)"/>
       <path id="DejaVuSans-20" transform="scale(0.015625)"/>
      </defs>
      <use xlink:href="#DejaVuSans-53"/>
      <use xlink:href="#DejaVuSans-65" x="63.476562"/>
      <use xlink:href="#DejaVuSans-72" x="125"/>
      <use xlink:href="#DejaVuSans-76" x="166.113281"/>
      <use xlink:href="#DejaVuSans-65" x="225.292969"/>
      <use xlink:href="#DejaVuSans-72" x="286.816406"/>
      <use xlink:href="#DejaVuSans-20" x="327.929688"/>
      <use xlink:href="#DejaVuSans-31" x="359.716797"/>
     </g>
    </g>
    <g id="line2d_17">
     <path d="M 63 62.336562 
L 73 62.336562 
L 83 62.336562 
" style="fill: none; stroke: #ff7f0e; stroke-width: 1.5; stroke-linecap: square"/>
    </g>
    <g id="text_13">
     <!-- Server 2 -->
     <g transform="translate(91 65.836562)scale(0.1 -0.1)">
      <use xlink:href="#DejaVuSans-53"/>
      <use xlink:href="#DejaVuSans-65" x="63.476562"/>
      <use xlink:href="#DejaVuSans-72" x="125"/>
      <use xlink:href="#DejaVuSans-76" x="166.113281"/>
      <use xlink:href="#DejaVuSans-65" x="225.292969"/>
      <use xlink:href="#DejaVuSans-72" x="286.816406"/>
      <use xlink:href="#DejaVuSans-20" x="327.929688"/>
      <use xlink:href="#DejaVuSans-32" x="359.716797"/>
     </g>
    </g>
    <g id="line2d_18">
     <path d="M 63 77.014687 
L 73 77.014687 
L 83 77.014687 
" style="fill: none; stroke: #2ca02c; stroke-width: 1.5; stroke-linecap: square"/>
    </g>
    <g id="text_14">
     <!-- Server 3 -->
     <g transform="translate(91 80.514687)scale(0.1 -0.1)">
      <use xlink:href="#DejaVuSans-53"/>
      <use xlink:href="#DejaVuSans-65" x="63.476562"/>
      <use xlink:href="#DejaVuSans-72" x="125"/>
      <use xlink:href="#DejaVuSans-76" x="166.113281"/>
      <use xlink:href="#DejaVuSans-65" x="225.292969"/>
      <use xlink:href="#DejaVuSans-72" x="286.816406"/>
      <use xlink:href="#DejaVuSans-20" x="327.929688"/>
      <use xlink:href="#DejaVuSans-33" x="359.716797"/>
     </g>
    </g>
    <g id="line2d_19">
     <path d="M 63 91.692813 
L 73 91.692813 
L 83 91.692813 
" style="fill: none; stroke: #d62728; stroke-width: 1.5; stroke-linecap: square"/>
    </g>
    <g id="text_15">
     <!-- Server 4 -->
     <g transform="translate(91 95.192813)scale(0.1 -0.1)">
      <use xlink:href="#DejaVuSans-53"/>
      <use xlink:href="#DejaVuSans-65" x="63.476562"/>
      <use xlink:href="#DejaVuSans-72" x="125"/>
      <use xlink:href="#DejaVuSans-76" x="166.113281"/>
      <use xlink:href="#DejaVuSans-65" x="225.292969"/>
      <use xlink:href="#DejaVuSans-72" x="286.816406"/>
      <use xlink:href="#DejaVuSans-20" x="327.929688"/>
      <use xlink:href="#DejaVuSans-34" x="359.716797"/>
     </g>
    </g>
   </g>
  </g>
 </g>
 <defs>
  <clipPath id="p10d3a8011f">
   <rect x="54" y="34.56" width="334.8" height="217.44"/>
  </clipPath>
 </defs>
</svg>
